G04*
G04 #@! TF.GenerationSoftware,Altium Limited,Altium Designer,21.2.2 (38)*
G04*
G04 Layer_Color=16711935*
%FSLAX25Y25*%
%MOIN*%
G70*
G04*
G04 #@! TF.SameCoordinates,0000E620-6A5C-4488-86E2-F855693774CC*
G04*
G04*
G04 #@! TF.FilePolarity,Negative*
G04*
G01*
G75*
G04:AMPARAMS|DCode=56|XSize=47.37mil|YSize=86.74mil|CornerRadius=13.84mil|HoleSize=0mil|Usage=FLASHONLY|Rotation=0.000|XOffset=0mil|YOffset=0mil|HoleType=Round|Shape=RoundedRectangle|*
%AMROUNDEDRECTD56*
21,1,0.04737,0.05906,0,0,0.0*
21,1,0.01968,0.08674,0,0,0.0*
1,1,0.02769,0.00984,-0.02953*
1,1,0.02769,-0.00984,-0.02953*
1,1,0.02769,-0.00984,0.02953*
1,1,0.02769,0.00984,0.02953*
%
%ADD56ROUNDEDRECTD56*%
%ADD61C,0.06706*%
%ADD62R,0.06706X0.06706*%
%ADD63C,0.03950*%
%ADD64R,0.06706X0.06706*%
%ADD65O,0.04737X0.06863*%
%ADD66R,0.04737X0.06800*%
G04:AMPARAMS|DCode=67|XSize=74.93mil|YSize=63.12mil|CornerRadius=17.78mil|HoleSize=0mil|Usage=FLASHONLY|Rotation=270.000|XOffset=0mil|YOffset=0mil|HoleType=Round|Shape=RoundedRectangle|*
%AMROUNDEDRECTD67*
21,1,0.07493,0.02756,0,0,270.0*
21,1,0.03937,0.06312,0,0,270.0*
1,1,0.03556,-0.01378,-0.01968*
1,1,0.03556,-0.01378,0.01968*
1,1,0.03556,0.01378,0.01968*
1,1,0.03556,0.01378,-0.01968*
%
%ADD67ROUNDEDRECTD67*%
G04:AMPARAMS|DCode=68|XSize=68mil|YSize=57.21mil|CornerRadius=16.3mil|HoleSize=0mil|Usage=FLASHONLY|Rotation=180.000|XOffset=0mil|YOffset=0mil|HoleType=Round|Shape=RoundedRectangle|*
%AMROUNDEDRECTD68*
21,1,0.06800,0.02461,0,0,180.0*
21,1,0.03539,0.05721,0,0,180.0*
1,1,0.03261,-0.01770,0.01230*
1,1,0.03261,0.01770,0.01230*
1,1,0.03261,0.01770,-0.01230*
1,1,0.03261,-0.01770,-0.01230*
%
%ADD68ROUNDEDRECTD68*%
%ADD69C,0.04343*%
D56*
X-10000Y-14500D02*
D03*
X-5000D02*
D03*
X0D02*
D03*
X5000D02*
D03*
X10000D02*
D03*
D61*
X-50000Y130000D02*
D03*
X50000D02*
D03*
D62*
X-50000Y40000D02*
D03*
X50000Y0D02*
D03*
X50000Y80000D02*
D03*
X50000Y-10000D02*
D03*
X-50000Y0D02*
D03*
Y110000D02*
D03*
Y100000D02*
D03*
X50000Y30000D02*
D03*
Y20000D02*
D03*
Y10000D02*
D03*
Y40000D02*
D03*
Y50000D02*
D03*
Y60000D02*
D03*
Y70000D02*
D03*
Y110000D02*
D03*
X-50000Y120000D02*
D03*
X50000Y100000D02*
D03*
X-50000Y10000D02*
D03*
Y20000D02*
D03*
Y30000D02*
D03*
Y50000D02*
D03*
Y60000D02*
D03*
Y70000D02*
D03*
Y80000D02*
D03*
Y90000D02*
D03*
Y-10000D02*
D03*
D63*
X30000Y112000D02*
D03*
D64*
X50000Y120000D02*
D03*
Y90000D02*
D03*
D65*
X-29961Y122500D02*
D03*
D66*
X-25039D02*
D03*
D67*
X-13780Y130098D02*
D03*
X13780D02*
D03*
D68*
X-9843Y119370D02*
D03*
X9843D02*
D03*
D69*
X-15000Y75000D02*
D03*
X5000Y103000D02*
D03*
X22500Y22000D02*
D03*
X31500Y84000D02*
D03*
X20000Y92500D02*
D03*
X-32500Y95000D02*
D03*
X-17500Y32500D02*
D03*
X17500Y34752D02*
D03*
X-15000Y15000D02*
D03*
X42500Y40000D02*
D03*
X-22500Y90000D02*
D03*
X0Y130000D02*
D03*
X-8500Y98500D02*
D03*
X-42500Y90000D02*
D03*
Y80000D02*
D03*
Y50000D02*
D03*
Y40000D02*
D03*
Y30000D02*
D03*
Y10000D02*
D03*
Y0D02*
D03*
X42500Y90000D02*
D03*
Y80000D02*
D03*
Y-10000D02*
D03*
Y0D02*
D03*
Y10000D02*
D03*
Y20000D02*
D03*
Y50000D02*
D03*
Y60000D02*
D03*
X22000Y105748D02*
D03*
X0Y105000D02*
D03*
X-5000D02*
D03*
X2500Y32500D02*
D03*
X-15063Y10062D02*
D03*
X-14821Y5216D02*
D03*
X-15000Y0D02*
D03*
X15500Y-10000D02*
D03*
X-5000Y-5000D02*
D03*
X-2500Y32500D02*
D03*
X10000Y2500D02*
D03*
X2500Y25000D02*
D03*
X-5000D02*
D03*
X-12500D02*
D03*
X-30000Y117500D02*
D03*
X-25000D02*
D03*
X-42500Y-10000D02*
D03*
X7500Y107500D02*
D03*
X15000Y87500D02*
D03*
X42500Y30000D02*
D03*
X37500Y72500D02*
D03*
X-40000Y126752D02*
D03*
X30000Y127500D02*
D03*
X-5000Y112500D02*
D03*
X0Y85000D02*
D03*
X-15000Y67500D02*
D03*
X-26648Y100000D02*
D03*
X0Y65000D02*
D03*
X-12500Y110000D02*
D03*
X15000Y80000D02*
D03*
X17500Y65000D02*
D03*
X42500Y125000D02*
D03*
X44000Y116000D02*
D03*
X18000D02*
D03*
X8000Y31500D02*
D03*
X10000Y12500D02*
D03*
X-2362Y47638D02*
D03*
X2362D02*
D03*
Y52362D02*
D03*
X-2362D02*
D03*
M02*
