G04*
G04 #@! TF.GenerationSoftware,Altium Limited,Altium Designer,21.2.2 (38)*
G04*
G04 Layer_Physical_Order=1*
G04 Layer_Color=255*
%FSLAX25Y25*%
%MOIN*%
G70*
G04*
G04 #@! TF.SameCoordinates,0000E620-6A5C-4488-86E2-F855693774CC*
G04*
G04*
G04 #@! TF.FilePolarity,Positive*
G04*
G01*
G75*
%ADD12C,0.00984*%
G04:AMPARAMS|DCode=16|XSize=31.89mil|YSize=12.6mil|CornerRadius=3.15mil|HoleSize=0mil|Usage=FLASHONLY|Rotation=180.000|XOffset=0mil|YOffset=0mil|HoleType=Round|Shape=RoundedRectangle|*
%AMROUNDEDRECTD16*
21,1,0.03189,0.00630,0,0,180.0*
21,1,0.02559,0.01260,0,0,180.0*
1,1,0.00630,-0.01280,0.00315*
1,1,0.00630,0.01280,0.00315*
1,1,0.00630,0.01280,-0.00315*
1,1,0.00630,-0.01280,-0.00315*
%
%ADD16ROUNDEDRECTD16*%
G04:AMPARAMS|DCode=17|XSize=31.89mil|YSize=12.6mil|CornerRadius=3.15mil|HoleSize=0mil|Usage=FLASHONLY|Rotation=270.000|XOffset=0mil|YOffset=0mil|HoleType=Round|Shape=RoundedRectangle|*
%AMROUNDEDRECTD17*
21,1,0.03189,0.00630,0,0,270.0*
21,1,0.02559,0.01260,0,0,270.0*
1,1,0.00630,-0.00315,-0.01280*
1,1,0.00630,-0.00315,0.01280*
1,1,0.00630,0.00315,0.01280*
1,1,0.00630,0.00315,-0.01280*
%
%ADD17ROUNDEDRECTD17*%
%ADD18C,0.03150*%
%ADD19R,0.02165X0.05709*%
%ADD20R,0.02165X0.05709*%
%ADD21R,0.03937X0.06299*%
%ADD22R,0.01968X0.02362*%
%ADD23R,0.02362X0.01968*%
%ADD24R,0.02362X0.05906*%
G04:AMPARAMS|DCode=25|XSize=23.62mil|YSize=27.56mil|CornerRadius=2.95mil|HoleSize=0mil|Usage=FLASHONLY|Rotation=90.000|XOffset=0mil|YOffset=0mil|HoleType=Round|Shape=RoundedRectangle|*
%AMROUNDEDRECTD25*
21,1,0.02362,0.02165,0,0,90.0*
21,1,0.01772,0.02756,0,0,90.0*
1,1,0.00591,0.01083,0.00886*
1,1,0.00591,0.01083,-0.00886*
1,1,0.00591,-0.01083,-0.00886*
1,1,0.00591,-0.01083,0.00886*
%
%ADD25ROUNDEDRECTD25*%
G04:AMPARAMS|DCode=26|XSize=51.18mil|YSize=51.18mil|CornerRadius=6.4mil|HoleSize=0mil|Usage=FLASHONLY|Rotation=180.000|XOffset=0mil|YOffset=0mil|HoleType=Round|Shape=RoundedRectangle|*
%AMROUNDEDRECTD26*
21,1,0.05118,0.03839,0,0,180.0*
21,1,0.03839,0.05118,0,0,180.0*
1,1,0.01280,-0.01919,0.01919*
1,1,0.01280,0.01919,0.01919*
1,1,0.01280,0.01919,-0.01919*
1,1,0.01280,-0.01919,-0.01919*
%
%ADD26ROUNDEDRECTD26*%
G04:AMPARAMS|DCode=27|XSize=51.18mil|YSize=51.18mil|CornerRadius=12.8mil|HoleSize=0mil|Usage=FLASHONLY|Rotation=180.000|XOffset=0mil|YOffset=0mil|HoleType=Round|Shape=RoundedRectangle|*
%AMROUNDEDRECTD27*
21,1,0.05118,0.02559,0,0,180.0*
21,1,0.02559,0.05118,0,0,180.0*
1,1,0.02559,-0.01280,0.01280*
1,1,0.02559,0.01280,0.01280*
1,1,0.02559,0.01280,-0.01280*
1,1,0.02559,-0.01280,-0.01280*
%
%ADD27ROUNDEDRECTD27*%
G04:AMPARAMS|DCode=28|XSize=78.74mil|YSize=47.24mil|CornerRadius=5.91mil|HoleSize=0mil|Usage=FLASHONLY|Rotation=0.000|XOffset=0mil|YOffset=0mil|HoleType=Round|Shape=RoundedRectangle|*
%AMROUNDEDRECTD28*
21,1,0.07874,0.03543,0,0,0.0*
21,1,0.06693,0.04724,0,0,0.0*
1,1,0.01181,0.03347,-0.01772*
1,1,0.01181,-0.03347,-0.01772*
1,1,0.01181,-0.03347,0.01772*
1,1,0.01181,0.03347,0.01772*
%
%ADD28ROUNDEDRECTD28*%
%ADD29R,0.00984X0.02362*%
G04:AMPARAMS|DCode=30|XSize=31.5mil|YSize=31.5mil|CornerRadius=3.94mil|HoleSize=0mil|Usage=FLASHONLY|Rotation=270.000|XOffset=0mil|YOffset=0mil|HoleType=Round|Shape=RoundedRectangle|*
%AMROUNDEDRECTD30*
21,1,0.03150,0.02362,0,0,270.0*
21,1,0.02362,0.03150,0,0,270.0*
1,1,0.00787,-0.01181,-0.01181*
1,1,0.00787,-0.01181,0.01181*
1,1,0.00787,0.01181,0.01181*
1,1,0.00787,0.01181,-0.01181*
%
%ADD30ROUNDEDRECTD30*%
%ADD31R,0.01575X0.05315*%
G04:AMPARAMS|DCode=32|XSize=39.37mil|YSize=78.74mil|CornerRadius=9.84mil|HoleSize=0mil|Usage=FLASHONLY|Rotation=0.000|XOffset=0mil|YOffset=0mil|HoleType=Round|Shape=RoundedRectangle|*
%AMROUNDEDRECTD32*
21,1,0.03937,0.05906,0,0,0.0*
21,1,0.01968,0.07874,0,0,0.0*
1,1,0.01968,0.00984,-0.02953*
1,1,0.01968,-0.00984,-0.02953*
1,1,0.01968,-0.00984,0.02953*
1,1,0.01968,0.00984,0.02953*
%
%ADD32ROUNDEDRECTD32*%
G04:AMPARAMS|DCode=33|XSize=31.5mil|YSize=31.5mil|CornerRadius=3.94mil|HoleSize=0mil|Usage=FLASHONLY|Rotation=180.000|XOffset=0mil|YOffset=0mil|HoleType=Round|Shape=RoundedRectangle|*
%AMROUNDEDRECTD33*
21,1,0.03150,0.02362,0,0,180.0*
21,1,0.02362,0.03150,0,0,180.0*
1,1,0.00787,-0.01181,0.01181*
1,1,0.00787,0.01181,0.01181*
1,1,0.00787,0.01181,-0.01181*
1,1,0.00787,-0.01181,-0.01181*
%
%ADD33ROUNDEDRECTD33*%
%ADD34R,0.02500X0.01400*%
%ADD35R,0.01400X0.02500*%
%ADD36O,0.02559X0.01181*%
%ADD37O,0.01181X0.02559*%
%ADD38R,0.11024X0.11024*%
%ADD70R,0.08268X0.08268*%
%ADD71C,0.03937*%
%ADD72C,0.01968*%
%ADD73C,0.05906*%
%ADD74R,0.05906X0.05906*%
%ADD75R,0.05906X0.05906*%
%ADD76O,0.03937X0.06063*%
%ADD77R,0.03937X0.06000*%
G04:AMPARAMS|DCode=78|XSize=66.93mil|YSize=55.12mil|CornerRadius=13.78mil|HoleSize=0mil|Usage=FLASHONLY|Rotation=270.000|XOffset=0mil|YOffset=0mil|HoleType=Round|Shape=RoundedRectangle|*
%AMROUNDEDRECTD78*
21,1,0.06693,0.02756,0,0,270.0*
21,1,0.03937,0.05512,0,0,270.0*
1,1,0.02756,-0.01378,-0.01968*
1,1,0.02756,-0.01378,0.01968*
1,1,0.02756,0.01378,0.01968*
1,1,0.02756,0.01378,-0.01968*
%
%ADD78ROUNDEDRECTD78*%
G04:AMPARAMS|DCode=79|XSize=60mil|YSize=49.21mil|CornerRadius=12.3mil|HoleSize=0mil|Usage=FLASHONLY|Rotation=180.000|XOffset=0mil|YOffset=0mil|HoleType=Round|Shape=RoundedRectangle|*
%AMROUNDEDRECTD79*
21,1,0.06000,0.02461,0,0,180.0*
21,1,0.03539,0.04921,0,0,180.0*
1,1,0.02461,-0.01770,0.01230*
1,1,0.02461,0.01770,0.01230*
1,1,0.02461,0.01770,-0.01230*
1,1,0.02461,-0.01770,-0.01230*
%
%ADD79ROUNDEDRECTD79*%
%ADD80C,0.03543*%
G36*
X-32283Y131008D02*
X-32471Y130998D01*
X-32638Y130968D01*
X-32785Y130919D01*
X-32913Y130850D01*
X-33022Y130762D01*
X-33110Y130654D01*
X-33179Y130526D01*
X-33228Y130378D01*
X-33258Y130211D01*
X-33268Y130024D01*
X-34252D01*
X-34262Y130211D01*
X-34291Y130378D01*
X-34341Y130526D01*
X-34409Y130654D01*
X-34498Y130762D01*
X-34606Y130850D01*
X-34734Y130919D01*
X-34882Y130968D01*
X-35049Y130998D01*
X-35236Y131008D01*
X-33760Y131992D01*
X-32283Y131008D01*
D02*
G37*
G36*
X-22094Y127181D02*
X-22288Y126681D01*
X-28189D01*
Y126535D01*
X-28689Y126249D01*
X-29186Y126455D01*
X-29461Y126491D01*
Y122500D01*
X-30000D01*
Y124000D01*
X-30461D01*
Y126491D01*
X-30736Y126455D01*
X-31458Y126156D01*
X-31605Y126043D01*
X-32054Y126264D01*
Y129794D01*
X-24707D01*
X-22094Y127181D01*
D02*
G37*
G36*
X36965Y125454D02*
X36778Y125468D01*
X36610Y125436D01*
X36463Y125356D01*
X36335Y125228D01*
X36226Y125054D01*
X36138Y124832D01*
X36069Y124563D01*
X36020Y124247D01*
X35990Y123884D01*
X35980Y123474D01*
X34012Y123777D01*
X34009Y124145D01*
X33938Y125312D01*
X33905Y125527D01*
X33867Y125712D01*
X33822Y125865D01*
X33772Y125989D01*
X33716Y126081D01*
X36965Y125454D01*
D02*
G37*
G36*
X-35466Y124000D02*
X-38016D01*
Y124150D01*
X-39499D01*
X-39500Y124140D01*
X-39506Y124033D01*
X-39503Y123935D01*
X-39489Y123767D01*
X-39465Y123620D01*
X-39431Y123492D01*
X-39388Y123384D01*
X-39335Y123295D01*
X-39273Y123226D01*
X-39201Y123177D01*
X-39119Y123147D01*
X-39028Y123138D01*
X-40972D01*
X-40881Y123147D01*
X-40799Y123177D01*
X-40727Y123226D01*
X-40665Y123295D01*
X-40612Y123384D01*
X-40569Y123492D01*
X-40535Y123620D01*
X-40511Y123767D01*
X-40497Y123935D01*
X-40494Y124033D01*
X-40500Y124140D01*
X-40501Y124150D01*
X-41984D01*
Y120394D01*
X-42165D01*
Y118082D01*
X-42447Y117801D01*
X-42816Y117247D01*
X-42946Y116595D01*
Y115768D01*
X-43504D01*
Y107697D01*
X-43504D01*
X-43504Y107303D01*
X-43504D01*
Y99232D01*
X-42946D01*
Y97500D01*
X-46047D01*
Y98936D01*
X-46101Y98927D01*
X-46358Y98858D01*
X-46576Y98770D01*
X-46754Y98661D01*
X-46893Y98533D01*
X-46992Y98386D01*
X-47051Y98219D01*
X-47071Y98032D01*
Y99500D01*
X-50000D01*
Y100500D01*
X-47071D01*
Y101969D01*
X-47051Y101781D01*
X-46992Y101614D01*
X-46893Y101467D01*
X-46754Y101339D01*
X-46576Y101230D01*
X-46358Y101142D01*
X-46101Y101073D01*
X-46047Y101064D01*
Y103953D01*
X-47500D01*
Y105866D01*
X-45866D01*
Y114134D01*
X-47500D01*
Y115866D01*
X-45866D01*
Y124134D01*
X-45866Y124134D01*
X-45866D01*
X-45584Y124503D01*
X-40293Y129794D01*
X-35466D01*
Y124000D01*
D02*
G37*
G36*
X26328Y125699D02*
X26257Y125541D01*
X26194Y125362D01*
X26139Y125161D01*
X26093Y124939D01*
X26026Y124430D01*
X26005Y124144D01*
X25988Y123506D01*
X24020Y123472D01*
X24010Y123869D01*
X23980Y124221D01*
X23931Y124529D01*
X23862Y124793D01*
X23774Y125013D01*
X23665Y125189D01*
X23537Y125321D01*
X23390Y125409D01*
X23222Y125453D01*
X23035Y125453D01*
X26408Y125836D01*
X26328Y125699D01*
D02*
G37*
G36*
X-48151Y123677D02*
X-48138Y123520D01*
X-48118Y123381D01*
X-48088Y123261D01*
X-48050Y123160D01*
X-48004Y123077D01*
X-47950Y123012D01*
X-47887Y122966D01*
X-47815Y122938D01*
X-47736Y122929D01*
X-49559D01*
X-49479Y122938D01*
X-49408Y122966D01*
X-49345Y123012D01*
X-49291Y123077D01*
X-49244Y123160D01*
X-49207Y123261D01*
X-49177Y123381D01*
X-49156Y123520D01*
X-49144Y123677D01*
X-49140Y123853D01*
X-48155D01*
X-48151Y123677D01*
D02*
G37*
G36*
X40497Y123435D02*
X40511Y123267D01*
X40535Y123120D01*
X40569Y122992D01*
X40612Y122884D01*
X40665Y122795D01*
X40727Y122726D01*
X40799Y122677D01*
X40881Y122647D01*
X40972Y122638D01*
X39028D01*
X39119Y122647D01*
X39201Y122677D01*
X39273Y122726D01*
X39335Y122795D01*
X39388Y122884D01*
X39431Y122992D01*
X39465Y123120D01*
X39489Y123267D01*
X39503Y123435D01*
X39508Y123622D01*
X40492D01*
X40497Y123435D01*
D02*
G37*
G36*
X-4565Y122813D02*
X-4531Y122370D01*
X-4511Y122262D01*
X-4486Y122173D01*
X-4457Y122104D01*
X-4423Y122055D01*
X-4385Y122025D01*
X-4343Y122016D01*
X-5894D01*
X-5829Y122025D01*
X-5770Y122055D01*
X-5719Y122104D01*
X-5674Y122173D01*
X-5637Y122262D01*
X-5606Y122370D01*
X-5582Y122498D01*
X-5565Y122645D01*
X-5555Y122813D01*
X-5551Y123000D01*
X-4567D01*
X-4565Y122813D01*
D02*
G37*
G36*
X21040Y120984D02*
X21030Y121078D01*
X21000Y121161D01*
X20950Y121235D01*
X20880Y121299D01*
X20791Y121353D01*
X20681Y121398D01*
X20552Y121432D01*
X20402Y121457D01*
X20233Y121472D01*
X20043Y121476D01*
Y122461D01*
X20233Y122466D01*
X20402Y122480D01*
X20552Y122505D01*
X20681Y122539D01*
X20791Y122584D01*
X20880Y122638D01*
X20950Y122702D01*
X21000Y122776D01*
X21030Y122859D01*
X21040Y122953D01*
Y120984D01*
D02*
G37*
G36*
X47500Y133330D02*
X47462Y133308D01*
X46692Y132538D01*
X46148Y131596D01*
X45866Y130544D01*
Y129456D01*
X46148Y128404D01*
X46692Y127462D01*
X47462Y126692D01*
X47500Y126670D01*
Y124134D01*
X45866D01*
Y120224D01*
X45096Y120071D01*
X44569Y119720D01*
X44492Y119740D01*
X43508D01*
X43000Y119604D01*
X42500Y119988D01*
Y120000D01*
X41984D01*
Y123650D01*
X38016D01*
Y120000D01*
X36283D01*
X36092Y120462D01*
X36557Y120927D01*
X37036Y121643D01*
X37204Y122488D01*
Y123951D01*
X37216Y124106D01*
X37233Y124212D01*
X37382D01*
X38342Y124403D01*
X39156Y124946D01*
X39700Y125760D01*
X39891Y126720D01*
Y129279D01*
X39700Y130240D01*
X39156Y131053D01*
X38342Y131597D01*
X37382Y131788D01*
X34823D01*
X33863Y131597D01*
X33049Y131053D01*
X32505Y130240D01*
X32314Y129279D01*
Y126720D01*
X32505Y125760D01*
X32658Y125532D01*
X32669Y125505D01*
X32687Y125455D01*
X32688Y125454D01*
X32697Y125421D01*
X32719Y125314D01*
X32739Y125185D01*
X32788Y124376D01*
Y123403D01*
X30900Y121514D01*
X30421Y120798D01*
X30253Y119953D01*
X30307Y119682D01*
X30263Y119461D01*
Y118787D01*
X29737D01*
Y119461D01*
X29693Y119683D01*
X29747Y119953D01*
X29579Y120798D01*
X29100Y121514D01*
X27212Y123403D01*
Y124133D01*
X27224Y124307D01*
X27281Y124737D01*
X27311Y124880D01*
X27345Y125004D01*
X27376Y125093D01*
X27400Y125146D01*
X27448Y125228D01*
X27459Y125261D01*
X27532Y125370D01*
X27554Y125481D01*
X27566Y125503D01*
X27571Y125565D01*
X27580Y125609D01*
X27601Y125672D01*
X27599Y125707D01*
X27674Y126081D01*
Y129919D01*
X27532Y130630D01*
X27130Y131232D01*
X26527Y131634D01*
X25817Y131776D01*
X21978D01*
X21268Y131634D01*
X20666Y131232D01*
X20263Y130630D01*
X20122Y129919D01*
Y126081D01*
X20263Y125370D01*
X20666Y124768D01*
X20843Y124650D01*
X20691Y124150D01*
X20016D01*
Y120394D01*
X19835D01*
Y119767D01*
X19335Y119515D01*
X18492Y119740D01*
X17508D01*
X16556Y119485D01*
X15703Y118993D01*
X15007Y118297D01*
X14515Y117444D01*
X14260Y116492D01*
Y115508D01*
X14490Y114647D01*
X14347Y114358D01*
X14172Y114150D01*
X10516D01*
Y110819D01*
X10404Y110556D01*
X9873Y110416D01*
X9797Y110493D01*
X8944Y110985D01*
X7992Y111240D01*
X7008D01*
X6824Y111381D01*
Y115532D01*
X7087D01*
Y115561D01*
X7587Y115963D01*
X8073Y115866D01*
X9342D01*
Y119370D01*
Y122874D01*
X8073D01*
X7587Y122778D01*
X7087Y123179D01*
Y123209D01*
X-4528D01*
Y123028D01*
X-6905D01*
Y123028D01*
X-7406Y122742D01*
X-8073Y122874D01*
X-9342D01*
Y119370D01*
Y115866D01*
X-8073D01*
X-7406Y115998D01*
X-6905Y115713D01*
Y115713D01*
X-4528D01*
Y115532D01*
X-1706D01*
Y110707D01*
X-2574Y109838D01*
X-2645Y109853D01*
X-3490Y109684D01*
X-4206Y109206D01*
X-4671Y108740D01*
X-5492D01*
X-6444Y108485D01*
X-7297Y107993D01*
X-7993Y107297D01*
X-8485Y106444D01*
X-8740Y105492D01*
Y104508D01*
X-8485Y103556D01*
X-8014Y102740D01*
X-8056Y102584D01*
X-8237Y102240D01*
X-8992D01*
X-9944Y101985D01*
X-10796Y101493D01*
X-11493Y100796D01*
X-11985Y99944D01*
X-12240Y98992D01*
Y98008D01*
X-12205Y97878D01*
X-12622Y97500D01*
X-18500D01*
Y96984D01*
X-19150D01*
Y93016D01*
X-18500D01*
Y91984D01*
X-19150D01*
Y88016D01*
X-18500D01*
Y86984D01*
X-19150D01*
Y83200D01*
X-19650Y83048D01*
X-19678Y83090D01*
X-25794Y89207D01*
Y91831D01*
X-17553Y100072D01*
X-17184Y100625D01*
X-17054Y101278D01*
Y107106D01*
X-16398D01*
Y107792D01*
X-15544D01*
X-15493Y107703D01*
X-14796Y107007D01*
X-13944Y106515D01*
X-12992Y106260D01*
X-12008D01*
X-11056Y106515D01*
X-10204Y107007D01*
X-9507Y107703D01*
X-9015Y108556D01*
X-8760Y109508D01*
Y110492D01*
X-9015Y111444D01*
X-9507Y112296D01*
X-10204Y112993D01*
X-11056Y113485D01*
X-12008Y113740D01*
X-12992D01*
X-13944Y113485D01*
X-14796Y112993D01*
X-15493Y112296D01*
X-15544Y112208D01*
X-16398D01*
Y115374D01*
X-17054D01*
Y118260D01*
X-17184Y118913D01*
X-17553Y119466D01*
X-18544Y120457D01*
Y127750D01*
X-18674Y128403D01*
X-19044Y128956D01*
X-22794Y132706D01*
X-23347Y133076D01*
X-24000Y133206D01*
X-41000D01*
X-41653Y133076D01*
X-42206Y132706D01*
X-45366Y129546D01*
X-45866Y129754D01*
Y130544D01*
X-46148Y131596D01*
X-46692Y132538D01*
X-47462Y133308D01*
X-47500Y133330D01*
Y135989D01*
X47500D01*
Y133330D01*
D02*
G37*
G36*
X-28393Y120249D02*
X-28520Y120032D01*
X-28631Y119800D01*
X-28728Y119553D01*
X-28810Y119290D01*
X-28877Y119013D01*
X-28880Y118993D01*
X-28874Y118971D01*
X-28836Y118882D01*
X-28793Y118809D01*
X-28746Y118751D01*
X-28923Y118753D01*
X-28929Y118720D01*
X-28952Y118528D01*
X-28664Y118275D01*
X-28740Y117992D01*
Y117008D01*
X-28485Y116056D01*
X-28393Y115896D01*
X-28395Y115887D01*
Y115374D01*
X-28602D01*
Y114265D01*
X-28613Y114220D01*
X-28610Y114200D01*
X-28613Y114181D01*
X-28602Y114125D01*
Y109747D01*
X-28613Y109691D01*
X-28602Y109635D01*
Y109548D01*
X-28761Y109361D01*
X-30996Y107125D01*
X-31496Y107303D01*
Y107697D01*
X-31496D01*
Y115768D01*
X-32054D01*
Y117500D01*
X-30000D01*
Y117762D01*
X-30965Y117773D01*
X-30972Y118116D01*
X-31028Y118752D01*
X-31032Y118777D01*
X-31226Y118779D01*
X-31176Y118837D01*
X-31132Y118910D01*
X-31093Y118999D01*
X-31077Y119045D01*
Y119045D01*
X-31141Y119322D01*
X-31218Y119581D01*
X-31310Y119823D01*
X-31416Y120049D01*
X-31536Y120258D01*
X-31670Y120450D01*
X-28252D01*
X-28393Y120249D01*
D02*
G37*
G36*
X47059Y117059D02*
X46356Y117052D01*
X46335Y117030D01*
X46011Y116655D01*
X45933Y116546D01*
X45870Y116445D01*
X45822Y116352D01*
X45788Y116267D01*
X45770Y116191D01*
X45767Y116122D01*
X43993Y117772D01*
X44057Y117779D01*
X44129Y117801D01*
X44210Y117838D01*
X44300Y117889D01*
X44398Y117955D01*
X44505Y118035D01*
X44745Y118240D01*
X45020Y118503D01*
X45941Y117659D01*
Y119016D01*
X46155Y119017D01*
X46890Y119064D01*
X46969Y119082D01*
X47026Y119102D01*
X47060Y119125D01*
X47071Y119150D01*
X47059Y117059D01*
D02*
G37*
G36*
X-24033Y119853D02*
X-24006Y119512D01*
X-23083D01*
X-23264Y119492D01*
X-23426Y119433D01*
X-23569Y119335D01*
X-23693Y119197D01*
X-23797Y119020D01*
X-23852Y118883D01*
X-23824Y118837D01*
X-23774Y118779D01*
X-23890Y118778D01*
X-23950Y118547D01*
X-23997Y118252D01*
X-24026Y117918D01*
X-24035Y117543D01*
X-26004D01*
X-26014Y117918D01*
X-26043Y118252D01*
X-26092Y118547D01*
X-26148Y118753D01*
X-26254Y118751D01*
X-26207Y118809D01*
X-26182Y118852D01*
X-26250Y119020D01*
X-26358Y119197D01*
X-26486Y119335D01*
X-26634Y119433D01*
X-26801Y119492D01*
X-26988Y119512D01*
X-26027D01*
X-26014Y119645D01*
X-26006Y119826D01*
X-26004Y120023D01*
X-24035Y120049D01*
X-24033Y119853D01*
D02*
G37*
G36*
X22502Y117593D02*
X22532Y117425D01*
X22581Y117278D01*
X22650Y117150D01*
X22738Y117041D01*
X22847Y116953D01*
X22974Y116884D01*
X23122Y116835D01*
X23289Y116805D01*
X23476Y116795D01*
Y115811D01*
X23289Y115801D01*
X23122Y115772D01*
X22974Y115722D01*
X22847Y115654D01*
X22738Y115565D01*
X22650Y115457D01*
X22611Y115386D01*
X22612Y115384D01*
X22665Y115295D01*
X22727Y115226D01*
X22799Y115177D01*
X22881Y115147D01*
X22972Y115138D01*
X22524D01*
X22502Y115014D01*
X22492Y114827D01*
X21508D01*
X21498Y115014D01*
X21476Y115138D01*
X21028D01*
X21119Y115147D01*
X21201Y115177D01*
X21273Y115226D01*
X21335Y115295D01*
X21388Y115384D01*
X21389Y115386D01*
X21350Y115457D01*
X21262Y115565D01*
X21154Y115654D01*
X21026Y115722D01*
X20878Y115772D01*
X20711Y115801D01*
X20673Y115803D01*
X20666Y115803D01*
X20513Y115778D01*
X20364Y115738D01*
X20221Y115680D01*
X20082Y115607D01*
X19947Y115517D01*
X19818Y115411D01*
X19693Y115288D01*
X19574Y115150D01*
X19459Y114995D01*
X19034Y117438D01*
X19211Y117316D01*
X19555Y117110D01*
X19722Y117027D01*
X19884Y116956D01*
X20044Y116898D01*
X20200Y116853D01*
X20352Y116821D01*
X20501Y116802D01*
X20580Y116798D01*
X20711Y116805D01*
X20878Y116835D01*
X21026Y116884D01*
X21154Y116953D01*
X21262Y117041D01*
X21350Y117150D01*
X21419Y117278D01*
X21468Y117425D01*
X21498Y117593D01*
X21508Y117780D01*
X22492D01*
X22502Y117593D01*
D02*
G37*
G36*
X5840Y116715D02*
X5791Y116685D01*
X5749Y116636D01*
X5712Y116567D01*
X5681Y116479D01*
X5656Y116370D01*
X5636Y116242D01*
X5622Y116095D01*
X5610Y115740D01*
X4626D01*
X4623Y115927D01*
X4600Y116242D01*
X4581Y116370D01*
X4555Y116479D01*
X4524Y116567D01*
X4487Y116636D01*
X4445Y116685D01*
X4397Y116715D01*
X4343Y116725D01*
X5894D01*
X5840Y116715D01*
D02*
G37*
G36*
X3275D02*
X3222Y116685D01*
X3175Y116636D01*
X3134Y116567D01*
X3100Y116479D01*
X3072Y116370D01*
X3050Y116242D01*
X3034Y116095D01*
X3022Y115740D01*
X2037D01*
X2035Y115927D01*
X1997Y116370D01*
X1974Y116479D01*
X1946Y116567D01*
X1913Y116636D01*
X1875Y116685D01*
X1832Y116715D01*
X1784Y116725D01*
X3334D01*
X3275Y116715D01*
D02*
G37*
G36*
X722D02*
X673Y116685D01*
X631Y116636D01*
X594Y116567D01*
X563Y116479D01*
X538Y116370D01*
X518Y116242D01*
X503Y116095D01*
X492Y115740D01*
X-492D01*
X-495Y115927D01*
X-518Y116242D01*
X-538Y116370D01*
X-563Y116479D01*
X-594Y116567D01*
X-631Y116636D01*
X-673Y116685D01*
X-722Y116715D01*
X-775Y116725D01*
X775D01*
X722Y116715D01*
D02*
G37*
G36*
X-4385D02*
X-4423Y116685D01*
X-4457Y116636D01*
X-4486Y116567D01*
X-4511Y116479D01*
X-4531Y116370D01*
X-4547Y116242D01*
X-4565Y115927D01*
X-4567Y115740D01*
X-5551D01*
X-5555Y115927D01*
X-5582Y116242D01*
X-5606Y116370D01*
X-5637Y116479D01*
X-5674Y116567D01*
X-5719Y116636D01*
X-5770Y116685D01*
X-5829Y116715D01*
X-5894Y116725D01*
X-4343D01*
X-4385Y116715D01*
D02*
G37*
G36*
X34412Y116900D02*
X34432Y116869D01*
X34466Y116843D01*
X34514Y116820D01*
X34576Y116800D01*
X34650Y116784D01*
X34739Y116772D01*
X34841Y116763D01*
X35087Y116756D01*
Y115771D01*
X34957Y115770D01*
X34650Y115743D01*
X34576Y115727D01*
X34514Y115708D01*
X34466Y115685D01*
X34432Y115658D01*
X34412Y115628D01*
X34405Y115594D01*
Y116933D01*
X34412Y116900D01*
D02*
G37*
G36*
X25583Y115437D02*
X25573Y115508D01*
X25543Y115572D01*
X25494Y115628D01*
X25425Y115676D01*
X25337Y115718D01*
X25229Y115751D01*
X25101Y115777D01*
X24953Y115796D01*
X24786Y115807D01*
X24599Y115811D01*
Y116795D01*
X24787Y116800D01*
X24956Y116815D01*
X25105Y116840D01*
X25235Y116874D01*
X25344Y116918D01*
X25434Y116972D01*
X25504Y117036D01*
X25554Y117110D01*
X25584Y117194D01*
X25595Y117287D01*
X25583Y115437D01*
D02*
G37*
G36*
X40502Y117109D02*
X40532Y116942D01*
X40581Y116794D01*
X40650Y116666D01*
X40738Y116558D01*
X40846Y116469D01*
X40974Y116400D01*
X41122Y116351D01*
X41289Y116322D01*
X41337Y116319D01*
X41349Y116320D01*
X41502Y116343D01*
X41653Y116383D01*
X41799Y116439D01*
X41943Y116510D01*
X42084Y116597D01*
X42221Y116700D01*
X42356Y116819D01*
X42487Y116954D01*
X42615Y117105D01*
X42868Y114637D01*
X42702Y114769D01*
X42378Y114989D01*
X42218Y115079D01*
X42060Y115155D01*
X41904Y115217D01*
X41750Y115265D01*
X41597Y115300D01*
X41447Y115321D01*
X41393Y115323D01*
X41289Y115318D01*
X41122Y115288D01*
X40974Y115239D01*
X40846Y115170D01*
X40738Y115081D01*
X40650Y114973D01*
X40581Y114845D01*
X40532Y114698D01*
X40502Y114530D01*
X40492Y114343D01*
X39508D01*
X39498Y114530D01*
X39469Y114698D01*
X39419Y114845D01*
X39350Y114973D01*
X39262Y115081D01*
X39154Y115170D01*
X39026Y115239D01*
X38878Y115288D01*
X38711Y115318D01*
X38524Y115328D01*
Y116312D01*
X38711Y116322D01*
X38878Y116351D01*
X39026Y116400D01*
X39154Y116469D01*
X39262Y116558D01*
X39350Y116666D01*
X39419Y116794D01*
X39469Y116942D01*
X39498Y117109D01*
X39508Y117296D01*
X40492D01*
X40502Y117109D01*
D02*
G37*
G36*
X-33263Y115370D02*
X-33248Y115200D01*
X-33223Y115051D01*
X-33189Y114921D01*
X-33145Y114812D01*
X-33091Y114722D01*
X-33027Y114652D01*
X-32953Y114602D01*
X-32869Y114573D01*
X-32776Y114563D01*
X-34744D01*
X-34651Y114573D01*
X-34567Y114602D01*
X-34493Y114652D01*
X-34429Y114722D01*
X-34375Y114812D01*
X-34331Y114921D01*
X-34296Y115051D01*
X-34272Y115200D01*
X-34257Y115370D01*
X-34252Y115559D01*
X-33268D01*
X-33263Y115370D01*
D02*
G37*
G36*
X-40743D02*
X-40728Y115200D01*
X-40704Y115051D01*
X-40669Y114921D01*
X-40625Y114812D01*
X-40571Y114722D01*
X-40507Y114652D01*
X-40433Y114602D01*
X-40349Y114573D01*
X-40256Y114563D01*
X-42224D01*
X-42131Y114573D01*
X-42047Y114602D01*
X-41973Y114652D01*
X-41909Y114722D01*
X-41855Y114812D01*
X-41811Y114921D01*
X-41777Y115051D01*
X-41752Y115200D01*
X-41737Y115370D01*
X-41732Y115559D01*
X-40748D01*
X-40743Y115370D01*
D02*
G37*
G36*
X-25201Y115563D02*
X-25118Y114249D01*
X-25096Y114198D01*
X-25071Y114181D01*
X-27409D01*
X-27364Y114198D01*
X-27323Y114249D01*
X-27288Y114334D01*
X-27257Y114454D01*
X-27231Y114607D01*
X-27209Y114795D01*
X-27181Y115273D01*
X-27171Y115887D01*
X-25203D01*
X-25201Y115563D01*
D02*
G37*
G36*
X45106Y113553D02*
X43138Y113389D01*
X43106Y114470D01*
X45096Y114608D01*
X45106Y113553D01*
D02*
G37*
G36*
X18310Y114256D02*
X18248Y114234D01*
X18192Y114193D01*
X18144Y114133D01*
X18101Y114053D01*
X18066Y113954D01*
X18036Y113835D01*
X18013Y113697D01*
X17997Y113539D01*
X17984Y113165D01*
X16016Y113475D01*
X16292Y115529D01*
X18310Y114256D01*
D02*
G37*
G36*
X12997Y113935D02*
X13011Y113768D01*
X13035Y113620D01*
X13069Y113492D01*
X13112Y113384D01*
X13165Y113295D01*
X13227Y113226D01*
X13299Y113177D01*
X13381Y113147D01*
X13472Y113138D01*
X11528D01*
X11619Y113147D01*
X11701Y113177D01*
X11773Y113226D01*
X11835Y113295D01*
X11888Y113384D01*
X11931Y113492D01*
X11965Y113620D01*
X11989Y113768D01*
X12003Y113935D01*
X12008Y114122D01*
X12992D01*
X12997Y113935D01*
D02*
G37*
G36*
X30497Y115156D02*
X30512Y114987D01*
X30536Y114838D01*
X30571Y114708D01*
X30615Y114599D01*
X30669Y114509D01*
X30733Y114439D01*
X30807Y114389D01*
X30891Y114359D01*
X30984Y114349D01*
X30501D01*
X30511Y114202D01*
X30516Y114158D01*
X30547Y114021D01*
X30590Y113886D01*
X30645Y113753D01*
X30712Y113622D01*
X30791Y113494D01*
X30883Y113369D01*
X30986Y113245D01*
X31102Y113125D01*
X30582D01*
X30592Y112973D01*
X30623Y112846D01*
X30658Y112754D01*
X30696Y112696D01*
X29304D01*
X29342Y112754D01*
X29377Y112846D01*
X29408Y112973D01*
X29433Y113125D01*
X28898D01*
X29014Y113245D01*
X29117Y113369D01*
X29209Y113494D01*
X29288Y113622D01*
X29355Y113753D01*
X29410Y113886D01*
X29453Y114021D01*
X29484Y114158D01*
X29500Y114285D01*
X29502Y114349D01*
X29016D01*
X29109Y114359D01*
X29193Y114389D01*
X29267Y114439D01*
X29331Y114509D01*
X29385Y114599D01*
X29429Y114708D01*
X29464Y114838D01*
X29488Y114987D01*
X29503Y115156D01*
X29508Y115346D01*
X30492D01*
X30497Y115156D01*
D02*
G37*
G36*
X47071Y110441D02*
X47057Y110516D01*
X47015Y110584D01*
X46945Y110643D01*
X46847Y110695D01*
X46722Y110739D01*
X46569Y110774D01*
X46388Y110802D01*
X46179Y110822D01*
X45678Y110838D01*
Y112806D01*
X45940Y112808D01*
X46935Y112872D01*
X47004Y112892D01*
X47045Y112915D01*
X47059Y112941D01*
X47071Y110441D01*
D02*
G37*
G36*
X45126Y112278D02*
X45091Y112186D01*
X45061Y112059D01*
X45034Y111898D01*
X44993Y111473D01*
X44963Y110578D01*
X44961Y110211D01*
X43976D01*
X43974Y110578D01*
X43876Y112059D01*
X43846Y112186D01*
X43811Y112278D01*
X43772Y112336D01*
X45165D01*
X45126Y112278D01*
D02*
G37*
G36*
X33917Y111391D02*
X33933Y111307D01*
X33974Y111233D01*
X34038Y111169D01*
X34125Y111115D01*
X34237Y111071D01*
X34372Y111036D01*
X34531Y111012D01*
X34714Y110997D01*
X34921Y110992D01*
X34877Y110008D01*
X34716Y110005D01*
X34415Y109979D01*
X34275Y109956D01*
X34141Y109927D01*
X34014Y109891D01*
X33894Y109849D01*
X33780Y109800D01*
X33673Y109745D01*
X33572Y109683D01*
X33924Y111484D01*
X33917Y111391D01*
D02*
G37*
G36*
X26428Y109683D02*
X26327Y109745D01*
X26220Y109800D01*
X26106Y109849D01*
X25986Y109891D01*
X25859Y109927D01*
X25725Y109956D01*
X25585Y109979D01*
X25284Y110005D01*
X25123Y110008D01*
X25079Y110992D01*
X25286Y110997D01*
X25469Y111012D01*
X25628Y111036D01*
X25763Y111071D01*
X25875Y111115D01*
X25962Y111169D01*
X26026Y111233D01*
X26067Y111307D01*
X26083Y111391D01*
X26076Y111484D01*
X26428Y109683D01*
D02*
G37*
G36*
X22982Y111161D02*
X23012Y111126D01*
X23061Y111094D01*
X23130Y111067D01*
X23218Y111044D01*
X23327Y111026D01*
X23455Y111011D01*
X23769Y110994D01*
X23956Y110992D01*
Y110008D01*
X23768Y110003D01*
X23599Y109988D01*
X23450Y109964D01*
X23321Y109929D01*
X23211Y109885D01*
X23121Y109831D01*
X23051Y109767D01*
X23001Y109693D01*
X22971Y109609D01*
X22960Y109516D01*
X22972Y111201D01*
X22982Y111161D01*
D02*
G37*
G36*
X-25510Y110566D02*
X-25560Y110476D01*
X-25604Y110378D01*
X-25642Y110272D01*
X-25675Y110158D01*
X-25701Y110036D01*
X-25722Y109906D01*
X-25745Y109622D01*
X-25748Y109468D01*
X-26732D01*
X-26735Y109622D01*
X-26759Y109906D01*
X-26779Y110036D01*
X-26806Y110158D01*
X-26838Y110272D01*
X-26876Y110378D01*
X-26920Y110476D01*
X-26970Y110566D01*
X-27026Y110648D01*
X-25454D01*
X-25510Y110566D01*
D02*
G37*
G36*
X39040Y109047D02*
X39030Y109141D01*
X39000Y109224D01*
X38950Y109298D01*
X38880Y109362D01*
X38791Y109416D01*
X38681Y109461D01*
X38552Y109495D01*
X38402Y109520D01*
X38233Y109534D01*
X38043Y109539D01*
Y110524D01*
X38233Y110529D01*
X38402Y110543D01*
X38552Y110568D01*
X38681Y110602D01*
X38791Y110647D01*
X38880Y110701D01*
X38950Y110765D01*
X39000Y110839D01*
X39030Y110922D01*
X39040Y111016D01*
Y109047D01*
D02*
G37*
G36*
X32859Y109641D02*
X32776Y109611D01*
X32702Y109561D01*
X32638Y109491D01*
X32584Y109401D01*
X32539Y109292D01*
X32505Y109162D01*
X32480Y109013D01*
X32466Y108844D01*
X32461Y108654D01*
X31476D01*
X31471Y108844D01*
X31457Y109013D01*
X31432Y109162D01*
X31398Y109292D01*
X31353Y109401D01*
X31299Y109491D01*
X31235Y109561D01*
X31161Y109611D01*
X31078Y109641D01*
X30984Y109651D01*
X32953D01*
X32859Y109641D01*
D02*
G37*
G36*
X-26017Y108299D02*
X-26094Y108355D01*
X-26184Y108383D01*
X-26289D01*
X-26407Y108355D01*
X-26539Y108299D01*
X-26685Y108216D01*
X-26845Y108105D01*
X-27020Y107965D01*
X-27409Y107603D01*
X-28105Y108299D01*
X-27910Y108501D01*
X-27604Y108863D01*
X-27493Y109023D01*
X-27409Y109169D01*
X-27354Y109302D01*
X-27326Y109420D01*
Y109524D01*
X-27354Y109615D01*
X-27409Y109691D01*
X-26017Y108299D01*
D02*
G37*
G36*
X8912Y108598D02*
X9060Y108471D01*
X9208Y108359D01*
X9357Y108261D01*
X9507Y108179D01*
X9657Y108112D01*
X9808Y108059D01*
X9960Y108022D01*
X10112Y108000D01*
X10258Y107992D01*
X10321Y107992D01*
Y107008D01*
X10258Y107008D01*
X10112Y107000D01*
X9960Y106978D01*
X9808Y106941D01*
X9657Y106888D01*
X9507Y106821D01*
X9357Y106739D01*
X9208Y106641D01*
X9060Y106529D01*
X8912Y106402D01*
X8765Y106260D01*
Y106927D01*
X8473Y106908D01*
X8346Y106877D01*
X8254Y106842D01*
X8196Y106804D01*
Y108196D01*
X8254Y108158D01*
X8346Y108123D01*
X8473Y108092D01*
X8634Y108066D01*
X8765Y108053D01*
Y108740D01*
X8912Y108598D01*
D02*
G37*
G36*
X5898Y109798D02*
X6006Y109700D01*
X6130Y109608D01*
X6264Y109528D01*
X6407Y109458D01*
X6561Y109399D01*
X6725Y109352D01*
X6899Y109315D01*
X7084Y109290D01*
X7278Y109275D01*
X7482Y109272D01*
X7010Y108800D01*
X7231Y108607D01*
X7342Y108539D01*
X7432Y108498D01*
X7501Y108484D01*
X6516Y107499D01*
X6502Y107568D01*
X6461Y107658D01*
X6393Y107769D01*
X6298Y107902D01*
X6214Y108004D01*
X5728Y107518D01*
X5725Y107722D01*
X5711Y107916D01*
X5685Y108101D01*
X5648Y108275D01*
X5601Y108439D01*
X5542Y108593D01*
X5472Y108736D01*
X5392Y108870D01*
X5300Y108994D01*
X5202Y109102D01*
X5157Y109147D01*
X5853Y109843D01*
X5898Y109798D01*
D02*
G37*
G36*
X3024Y109983D02*
X3122Y108502D01*
X3152Y108376D01*
X3187Y108283D01*
X3226Y108225D01*
X2241D01*
X2530Y107529D01*
X1834Y107241D01*
X2530Y106545D01*
X2462Y106532D01*
X2372Y106491D01*
X2261Y106423D01*
X2128Y106328D01*
X2078Y106287D01*
X2489Y105404D01*
X2347Y105262D01*
X1722Y104560D01*
X1708Y104527D01*
X1181Y105479D01*
X1144Y105445D01*
X883Y105187D01*
X187Y105883D01*
X445Y106144D01*
X539Y106251D01*
X18Y106772D01*
X222Y106775D01*
X416Y106790D01*
X601Y106815D01*
X775Y106852D01*
X939Y106899D01*
X1093Y106958D01*
X1206Y107013D01*
X1423Y107261D01*
X1491Y107372D01*
X1532Y107462D01*
X1545Y107530D01*
X1655Y107420D01*
X1696Y107481D01*
X1787Y107640D01*
X1863Y107805D01*
X1926Y107976D01*
X1975Y108153D01*
X1988Y108225D01*
X1833D01*
X1872Y108283D01*
X1907Y108376D01*
X1937Y108502D01*
X1964Y108663D01*
X2005Y109088D01*
X2035Y109983D01*
X2037Y110350D01*
X3022D01*
X3024Y109983D01*
D02*
G37*
G36*
X-17869Y108290D02*
X-17953Y108260D01*
X-18027Y108211D01*
X-18090Y108142D01*
X-18145Y108053D01*
X-18189Y107945D01*
X-18223Y107817D01*
X-18248Y107669D01*
X-18263Y107502D01*
X-18268Y107315D01*
X-19252D01*
X-19257Y107502D01*
X-19272Y107669D01*
X-19296Y107817D01*
X-19331Y107945D01*
X-19375Y108053D01*
X-19429Y108142D01*
X-19493Y108211D01*
X-19567Y108260D01*
X-19651Y108290D01*
X-19744Y108299D01*
X-17776D01*
X-17869Y108290D01*
D02*
G37*
G36*
X-35466Y115768D02*
X-36024D01*
Y107697D01*
X-36024D01*
Y107622D01*
X-36449Y107122D01*
X-38551D01*
X-38976Y107622D01*
X-38976Y107697D01*
X-38976D01*
Y115669D01*
X-37835D01*
Y117500D01*
X-35466D01*
Y115768D01*
D02*
G37*
G36*
X-24862Y103805D02*
X-25362Y103528D01*
X-26155Y103740D01*
X-27140D01*
X-28091Y103485D01*
X-28944Y102993D01*
X-29641Y102296D01*
X-30133Y101444D01*
X-30388Y100492D01*
Y99508D01*
X-30133Y98556D01*
X-29641Y97703D01*
X-28944Y97007D01*
X-28091Y96515D01*
X-27140Y96260D01*
X-26844D01*
X-26653Y95798D01*
X-28706Y93744D01*
X-29076Y93191D01*
X-29206Y92538D01*
Y90330D01*
X-29706Y90063D01*
X-29858Y90165D01*
X-30472Y90287D01*
X-32835D01*
X-33449Y90165D01*
X-33970Y89816D01*
X-34203Y89468D01*
X-35798D01*
X-36030Y89816D01*
X-36551Y90165D01*
X-36641Y90182D01*
Y93347D01*
X-36770Y93999D01*
X-37140Y94553D01*
X-39534Y96947D01*
Y99232D01*
X-38976D01*
Y99413D01*
X-36024D01*
Y99232D01*
X-31496D01*
Y103544D01*
X-30458D01*
X-29806Y103674D01*
X-29252Y104044D01*
X-26383Y106913D01*
X-26233Y107053D01*
X-26166Y107106D01*
X-26073D01*
X-26017Y107095D01*
X-25961Y107106D01*
X-24862D01*
Y103805D01*
D02*
G37*
G36*
X22881Y108853D02*
X22799Y108823D01*
X22727Y108774D01*
X22665Y108705D01*
X22612Y108616D01*
X22569Y108508D01*
X22535Y108380D01*
X22515Y108255D01*
X22522Y108208D01*
X22559Y108056D01*
X22612Y107905D01*
X22679Y107755D01*
X22761Y107605D01*
X22859Y107456D01*
X22971Y107308D01*
X23098Y107160D01*
X23240Y107013D01*
X20760Y107013D01*
X20902Y107160D01*
X21029Y107308D01*
X21141Y107456D01*
X21239Y107605D01*
X21321Y107755D01*
X21388Y107905D01*
X21441Y108056D01*
X21478Y108208D01*
X21485Y108255D01*
X21465Y108380D01*
X21431Y108508D01*
X21388Y108616D01*
X21335Y108705D01*
X21273Y108774D01*
X21201Y108823D01*
X21119Y108853D01*
X21028Y108862D01*
X22972D01*
X22881Y108853D01*
D02*
G37*
G36*
X11528Y106862D02*
X12000D01*
X12003Y106891D01*
X12008Y107080D01*
X12992D01*
X12997Y106891D01*
X13000Y106862D01*
X13472D01*
X13381Y106853D01*
X13299Y106823D01*
X13227Y106774D01*
X13165Y106705D01*
X13112Y106616D01*
X13069Y106508D01*
X13061Y106479D01*
X13071Y106443D01*
X13115Y106333D01*
X13169Y106243D01*
X13233Y106174D01*
X13307Y106124D01*
X13391Y106094D01*
X13484Y106084D01*
X12999D01*
X12997Y106065D01*
X12992Y105878D01*
X12008D01*
X12003Y106065D01*
X12001Y106084D01*
X11516D01*
X11609Y106094D01*
X11693Y106124D01*
X11767Y106174D01*
X11831Y106243D01*
X11885Y106333D01*
X11929Y106443D01*
X11939Y106479D01*
X11931Y106508D01*
X11888Y106616D01*
X11835Y106705D01*
X11773Y106774D01*
X11701Y106823D01*
X11619Y106853D01*
X11528Y106862D01*
X11518Y106890D01*
X11488Y106915D01*
X11439Y106937D01*
X11370Y106956D01*
X11282Y106972D01*
X11173Y106985D01*
X10898Y107002D01*
X10543Y107008D01*
Y107992D01*
X10732Y107997D01*
X10901Y108012D01*
X11050Y108036D01*
X11179Y108071D01*
X11289Y108115D01*
X11379Y108169D01*
X11449Y108233D01*
X11499Y108307D01*
X11529Y108391D01*
X11540Y108484D01*
X11528Y106862D01*
D02*
G37*
G36*
X-3621Y107115D02*
X-3506Y107200D01*
X-3398Y107298D01*
X-3353Y107343D01*
X-2657Y106647D01*
X-2702Y106602D01*
X-2798Y106495D01*
X-2572Y106325D01*
X-2708Y106185D01*
X-2934Y105924D01*
X-3024Y105804D01*
X-3099Y105690D01*
X-3158Y105583D01*
X-3201Y105487D01*
X-3210Y105417D01*
X-3225Y105222D01*
X-3228Y105018D01*
X-3700Y105490D01*
X-3893Y105269D01*
X-3961Y105158D01*
X-4002Y105068D01*
X-4016Y104999D01*
X-5001Y105984D01*
X-4932Y105998D01*
X-4842Y106039D01*
X-4731Y106107D01*
X-4598Y106202D01*
X-4540Y106250D01*
X-5187Y106762D01*
X-5123Y106775D01*
X-5050Y106802D01*
X-4969Y106843D01*
X-4879Y106898D01*
X-4781Y106967D01*
X-4558Y107147D01*
X-4301Y107383D01*
X-4160Y107521D01*
X-3621Y107115D01*
D02*
G37*
G36*
X348Y103960D02*
X236Y103843D01*
X43Y103618D01*
X-38Y103508D01*
X-38Y103507D01*
X136Y103333D01*
X38Y103314D01*
X-61Y103285D01*
X-163Y103246D01*
X-180Y103237D01*
X-180Y103237D01*
X-180Y103237D01*
X-200Y103228D01*
X-218Y103191D01*
X-257Y103089D01*
X-286Y102990D01*
X-305Y102892D01*
X-479Y103066D01*
X-480Y103066D01*
X-589Y102985D01*
X-816Y102792D01*
X-932Y102680D01*
X-1627Y103376D01*
X-1560Y103447D01*
X-1454Y103577D01*
X-1416Y103636D01*
X-1388Y103692D01*
X-1370Y103743D01*
X-1362Y103791D01*
X-1364Y103835D01*
X-1376Y103875D01*
X-1398Y103911D01*
X-1243Y103826D01*
X-1242Y103828D01*
X-1241Y103829D01*
X-1415Y104003D01*
X-1318Y104021D01*
X-1218Y104050D01*
X-1117Y104090D01*
X-1080Y104108D01*
X-1062Y104145D01*
X-1022Y104246D01*
X-993Y104346D01*
X-975Y104443D01*
X-801Y104269D01*
X-800Y104270D01*
X-690Y104351D01*
X-464Y104544D01*
X-348Y104656D01*
X348Y103960D01*
D02*
G37*
G36*
X-32679Y106040D02*
X-32650Y105978D01*
X-32601Y105922D01*
X-32532Y105875D01*
X-32443Y105834D01*
X-32335Y105801D01*
X-32207Y105775D01*
X-32059Y105757D01*
X-31892Y105746D01*
X-31705Y105742D01*
Y104758D01*
X-31894Y104753D01*
X-32063Y104738D01*
X-32212Y104714D01*
X-32341Y104679D01*
X-32451Y104635D01*
X-32540Y104581D01*
X-32610Y104517D01*
X-32660Y104443D01*
X-32691Y104359D01*
X-32701Y104266D01*
X-32689Y106110D01*
X-32679Y106040D01*
D02*
G37*
G36*
X37835Y111606D02*
X38016D01*
Y107850D01*
X41984D01*
Y111148D01*
X42032Y111192D01*
X42586Y111319D01*
X42725Y111214D01*
X42763Y110652D01*
Y107175D01*
X41562Y105975D01*
X41192Y105421D01*
X41063Y104769D01*
Y104331D01*
X40335D01*
Y103674D01*
X39665D01*
Y104331D01*
X36667D01*
Y104476D01*
X36537Y105129D01*
X36167Y105683D01*
X35643Y106207D01*
Y107394D01*
X35610Y107559D01*
Y109756D01*
X35268D01*
X34951Y110142D01*
X34968Y110228D01*
Y113358D01*
X35347Y113788D01*
X35443Y113792D01*
X37835D01*
Y111606D01*
D02*
G37*
G36*
X43263Y103935D02*
X43295Y103492D01*
X43314Y103384D01*
X43337Y103295D01*
X43364Y103226D01*
X43396Y103177D01*
X43432Y103147D01*
X43472Y103138D01*
X41784D01*
X41878Y103147D01*
X41962Y103177D01*
X42035Y103226D01*
X42099Y103295D01*
X42153Y103384D01*
X42198Y103492D01*
X42232Y103620D01*
X42257Y103768D01*
X42272Y103935D01*
X42276Y104122D01*
X43261D01*
X43263Y103935D01*
D02*
G37*
G36*
X32947Y103874D02*
X32959Y103717D01*
X32980Y103578D01*
X33010Y103458D01*
X33048Y103357D01*
X33094Y103273D01*
X33148Y103209D01*
X33211Y103163D01*
X33283Y103135D01*
X33362Y103126D01*
X31539D01*
X31618Y103135D01*
X31690Y103163D01*
X31753Y103209D01*
X31807Y103273D01*
X31854Y103357D01*
X31891Y103458D01*
X31921Y103578D01*
X31942Y103717D01*
X31954Y103874D01*
X31958Y104049D01*
X32943D01*
X32947Y103874D01*
D02*
G37*
G36*
X29158Y102165D02*
X29025Y102163D01*
X28803Y102148D01*
X28712Y102135D01*
X28635Y102117D01*
X28573Y102096D01*
X28524Y102071D01*
X28489Y102042D01*
X28468Y102009D01*
X28460Y101972D01*
X28472Y103138D01*
X29158Y103150D01*
Y102165D01*
D02*
G37*
G36*
X41540Y100984D02*
X41530Y101078D01*
X41500Y101161D01*
X41450Y101235D01*
X41380Y101299D01*
X41291Y101353D01*
X41181Y101398D01*
X41052Y101432D01*
X40902Y101457D01*
X40733Y101471D01*
X40543Y101476D01*
Y102461D01*
X40733Y102466D01*
X40902Y102480D01*
X41052Y102505D01*
X41181Y102539D01*
X41291Y102584D01*
X41380Y102638D01*
X41450Y102702D01*
X41500Y102776D01*
X41530Y102859D01*
X41540Y102953D01*
Y100984D01*
D02*
G37*
G36*
X38470Y102859D02*
X38500Y102776D01*
X38550Y102702D01*
X38620Y102638D01*
X38709Y102584D01*
X38819Y102539D01*
X38948Y102505D01*
X39098Y102480D01*
X39267Y102466D01*
X39456Y102461D01*
Y101476D01*
X39267Y101471D01*
X39098Y101457D01*
X38948Y101432D01*
X38819Y101398D01*
X38709Y101353D01*
X38620Y101299D01*
X38550Y101235D01*
X38500Y101161D01*
X38470Y101078D01*
X38460Y100984D01*
Y102953D01*
X38470Y102859D01*
D02*
G37*
G36*
X31528Y100799D02*
X30740Y100787D01*
Y101772D01*
X30892Y101775D01*
X31147Y101798D01*
X31251Y101819D01*
X31339Y101846D01*
X31411Y101878D01*
X31467Y101916D01*
X31507Y101961D01*
X31531Y102011D01*
X31540Y102067D01*
X31528Y100799D01*
D02*
G37*
G36*
X-622Y102274D02*
X-657Y102182D01*
X-687Y102055D01*
X-714Y101894D01*
X-755Y101469D01*
X-785Y100574D01*
X-787Y100207D01*
X-1772D01*
X-1774Y100574D01*
X-1872Y102055D01*
X-1902Y102182D01*
X-1937Y102274D01*
X-1976Y102332D01*
X-583D01*
X-622Y102274D01*
D02*
G37*
G36*
X17994Y104587D02*
X18024Y104252D01*
X18073Y103957D01*
X18142Y103701D01*
X18230Y103484D01*
X18339Y103307D01*
X18466Y103169D01*
X18614Y103071D01*
X18765Y103018D01*
X19454Y102994D01*
X19821Y102992D01*
Y102008D01*
X19454Y102006D01*
X18688Y101955D01*
X18614Y101929D01*
X18466Y101831D01*
X18339Y101693D01*
X18230Y101516D01*
X18142Y101299D01*
X18073Y101043D01*
X18024Y100748D01*
X17994Y100413D01*
X17984Y100039D01*
X16016Y102500D01*
X17984Y104961D01*
X17994Y104587D01*
D02*
G37*
G36*
X-40349Y100416D02*
X-40433Y100386D01*
X-40507Y100337D01*
X-40571Y100268D01*
X-40625Y100179D01*
X-40669Y100071D01*
X-40704Y99943D01*
X-40728Y99796D01*
X-40743Y99628D01*
X-40748Y99441D01*
X-41732D01*
X-41737Y99628D01*
X-41752Y99796D01*
X-41777Y99943D01*
X-41811Y100071D01*
X-41855Y100179D01*
X-41909Y100268D01*
X-41973Y100337D01*
X-42047Y100386D01*
X-42131Y100416D01*
X-42224Y100425D01*
X-40256D01*
X-40349Y100416D01*
D02*
G37*
G36*
X-36609Y100416D02*
X-36693Y100386D01*
X-36767Y100337D01*
X-36831Y100268D01*
X-36885Y100179D01*
X-36929Y100071D01*
X-36963Y99943D01*
X-36988Y99795D01*
X-37003Y99628D01*
X-37008Y99441D01*
X-37992D01*
X-37997Y99628D01*
X-38012Y99795D01*
X-38036Y99943D01*
X-38071Y100071D01*
X-38115Y100179D01*
X-38169Y100268D01*
X-38233Y100337D01*
X-38307Y100386D01*
X-38391Y100416D01*
X-38484Y100425D01*
X-36516D01*
X-36609Y100416D01*
D02*
G37*
G36*
X-7019Y99491D02*
X-6949Y99438D01*
X-6864Y99390D01*
X-6763Y99349D01*
X-6646Y99315D01*
X-6513Y99287D01*
X-6365Y99265D01*
X-6021Y99239D01*
X-5826Y99236D01*
X-6164Y97268D01*
X-6362Y97266D01*
X-6994Y97224D01*
X-7112Y97206D01*
X-7213Y97183D01*
X-7299Y97157D01*
X-7368Y97128D01*
X-7421Y97095D01*
X-7074Y99551D01*
X-7019Y99491D01*
D02*
G37*
G36*
X36540Y97047D02*
X36530Y97141D01*
X36500Y97224D01*
X36450Y97298D01*
X36380Y97362D01*
X36291Y97416D01*
X36181Y97461D01*
X36052Y97495D01*
X35902Y97520D01*
X35733Y97535D01*
X35544Y97539D01*
Y98524D01*
X35733Y98528D01*
X35902Y98543D01*
X36052Y98568D01*
X36181Y98602D01*
X36291Y98647D01*
X36380Y98701D01*
X36450Y98765D01*
X36500Y98839D01*
X36530Y98922D01*
X36540Y99016D01*
Y97047D01*
D02*
G37*
G36*
X-4257Y98281D02*
X-4225Y98181D01*
X-4180Y98075D01*
X-4121Y97963D01*
X-4050Y97847D01*
X-3965Y97725D01*
X-3754Y97466D01*
X-3629Y97329D01*
X-3491Y97187D01*
X-4187Y96491D01*
X-4329Y96629D01*
X-4725Y96965D01*
X-4847Y97050D01*
X-4963Y97122D01*
X-5074Y97180D01*
X-5181Y97225D01*
X-5281Y97257D01*
X-5377Y97276D01*
X-4276Y98377D01*
X-4257Y98281D01*
D02*
G37*
G36*
X43381Y96853D02*
X43299Y96823D01*
X43227Y96774D01*
X43165Y96705D01*
X43112Y96616D01*
X43069Y96508D01*
X43035Y96380D01*
X43011Y96232D01*
X42997Y96065D01*
X42992Y95878D01*
X42008D01*
X42003Y96065D01*
X41989Y96232D01*
X41965Y96380D01*
X41931Y96508D01*
X41888Y96616D01*
X41835Y96705D01*
X41773Y96774D01*
X41701Y96823D01*
X41619Y96853D01*
X41528Y96862D01*
X43472D01*
X43381Y96853D01*
D02*
G37*
G36*
X28381D02*
X28299Y96823D01*
X28227Y96774D01*
X28165Y96705D01*
X28112Y96616D01*
X28069Y96508D01*
X28035Y96380D01*
X28011Y96232D01*
X27997Y96065D01*
X27992Y95878D01*
X27008D01*
X27003Y96065D01*
X26989Y96232D01*
X26965Y96380D01*
X26931Y96508D01*
X26888Y96616D01*
X26835Y96705D01*
X26773Y96774D01*
X26701Y96823D01*
X26619Y96853D01*
X26528Y96862D01*
X28472D01*
X28381Y96853D01*
D02*
G37*
G36*
X1773Y95005D02*
X1825Y94243D01*
X1841Y94171D01*
X1859Y94115D01*
X1880Y94075D01*
X679D01*
X700Y94115D01*
X718Y94171D01*
X734Y94243D01*
X748Y94331D01*
X770Y94553D01*
X786Y95005D01*
X787Y95187D01*
X1772D01*
X1773Y95005D01*
D02*
G37*
G36*
X-786D02*
X-734Y94243D01*
X-718Y94171D01*
X-700Y94115D01*
X-679Y94075D01*
X-1880D01*
X-1859Y94115D01*
X-1841Y94171D01*
X-1825Y94243D01*
X-1811Y94331D01*
X-1789Y94553D01*
X-1773Y95005D01*
X-1772Y95187D01*
X-787D01*
X-786Y95005D01*
D02*
G37*
G36*
X-3345D02*
X-3293Y94243D01*
X-3277Y94171D01*
X-3259Y94115D01*
X-3238Y94075D01*
X-4439D01*
X-4418Y94115D01*
X-4400Y94171D01*
X-4384Y94243D01*
X-4370Y94331D01*
X-4348Y94553D01*
X-4332Y95005D01*
X-4331Y95187D01*
X-3347D01*
X-3345Y95005D01*
D02*
G37*
G36*
X-11852Y95881D02*
X-11823Y95799D01*
X-11774Y95727D01*
X-11705Y95665D01*
X-11616Y95612D01*
X-11508Y95569D01*
X-11380Y95535D01*
X-11232Y95511D01*
X-11065Y95497D01*
X-10878Y95492D01*
Y94508D01*
X-11065Y94503D01*
X-11232Y94489D01*
X-11380Y94465D01*
X-11508Y94431D01*
X-11616Y94388D01*
X-11705Y94335D01*
X-11774Y94273D01*
X-11823Y94201D01*
X-11852Y94119D01*
X-11862Y94028D01*
Y95972D01*
X-11852Y95881D01*
D02*
G37*
G36*
X-18138Y94028D02*
X-18147Y94119D01*
X-18177Y94201D01*
X-18226Y94273D01*
X-18295Y94335D01*
X-18384Y94388D01*
X-18492Y94431D01*
X-18620Y94465D01*
X-18767Y94489D01*
X-18935Y94503D01*
X-19122Y94508D01*
Y95492D01*
X-18935Y95497D01*
X-18767Y95511D01*
X-18620Y95535D01*
X-18492Y95569D01*
X-18384Y95612D01*
X-18295Y95665D01*
X-18226Y95727D01*
X-18177Y95799D01*
X-18147Y95881D01*
X-18138Y95972D01*
Y94028D01*
D02*
G37*
G36*
X13781Y96184D02*
X13897Y96142D01*
X14041Y96105D01*
X14214Y96073D01*
X14642Y96024D01*
X15183Y95994D01*
X15836Y95984D01*
X15774Y94016D01*
X13693Y93926D01*
Y96231D01*
X13781Y96184D01*
D02*
G37*
G36*
X-12141Y94030D02*
X-12224Y94000D01*
X-12298Y93950D01*
X-12362Y93880D01*
X-12416Y93791D01*
X-12461Y93681D01*
X-12495Y93552D01*
X-12520Y93402D01*
X-12534Y93233D01*
X-12539Y93044D01*
X-13524D01*
X-13529Y93233D01*
X-13543Y93402D01*
X-13568Y93552D01*
X-13602Y93681D01*
X-13647Y93791D01*
X-13701Y93880D01*
X-13765Y93950D01*
X-13839Y94000D01*
X-13922Y94030D01*
X-14016Y94040D01*
X-12047D01*
X-12141Y94030D01*
D02*
G37*
G36*
X39766Y92417D02*
X39570Y92214D01*
X39261Y91851D01*
X39149Y91690D01*
X39064Y91544D01*
X39007Y91412D01*
X38978Y91294D01*
X38977Y91190D01*
X39004Y91100D01*
X39058Y91025D01*
X37678Y92405D01*
X37754Y92350D01*
X37843Y92324D01*
X37947Y92325D01*
X38065Y92354D01*
X38197Y92411D01*
X38344Y92496D01*
X38504Y92608D01*
X38679Y92748D01*
X39070Y93113D01*
X39766Y92417D01*
D02*
G37*
G36*
X-12534Y91767D02*
X-12520Y91598D01*
X-12495Y91448D01*
X-12461Y91319D01*
X-12416Y91209D01*
X-12362Y91120D01*
X-12298Y91050D01*
X-12224Y91000D01*
X-12141Y90970D01*
X-12047Y90960D01*
X-14016D01*
X-13922Y90970D01*
X-13839Y91000D01*
X-13765Y91050D01*
X-13701Y91120D01*
X-13647Y91209D01*
X-13602Y91319D01*
X-13568Y91448D01*
X-13543Y91598D01*
X-13529Y91767D01*
X-13524Y91957D01*
X-12539D01*
X-12534Y91767D01*
D02*
G37*
G36*
X-37849Y89865D02*
X-37835Y89696D01*
X-37810Y89546D01*
X-37776Y89417D01*
X-37731Y89307D01*
X-37677Y89218D01*
X-37613Y89148D01*
X-37539Y89098D01*
X-37456Y89068D01*
X-37362Y89058D01*
X-39331D01*
X-39237Y89068D01*
X-39154Y89098D01*
X-39080Y89148D01*
X-39016Y89218D01*
X-38962Y89307D01*
X-38917Y89417D01*
X-38883Y89546D01*
X-38858Y89696D01*
X-38844Y89865D01*
X-38839Y90055D01*
X-37854D01*
X-37849Y89865D01*
D02*
G37*
G36*
X-18138Y89028D02*
X-18147Y89119D01*
X-18177Y89201D01*
X-18226Y89273D01*
X-18295Y89335D01*
X-18384Y89388D01*
X-18492Y89431D01*
X-18620Y89465D01*
X-18767Y89489D01*
X-18935Y89503D01*
X-19122Y89508D01*
Y90492D01*
X-18935Y90497D01*
X-18767Y90511D01*
X-18620Y90535D01*
X-18492Y90569D01*
X-18384Y90612D01*
X-18295Y90665D01*
X-18226Y90727D01*
X-18177Y90799D01*
X-18147Y90881D01*
X-18138Y90972D01*
Y89028D01*
D02*
G37*
G36*
X-43765Y88760D02*
X-43823Y88809D01*
X-43896Y88852D01*
X-43985Y88890D01*
X-44089Y88924D01*
X-44208Y88952D01*
X-44343Y88975D01*
X-44659Y89006D01*
X-44840Y89013D01*
X-45036Y89016D01*
Y90984D01*
X-44840Y90987D01*
X-44343Y91025D01*
X-44208Y91048D01*
X-44089Y91076D01*
X-43985Y91110D01*
X-43896Y91148D01*
X-43823Y91192D01*
X-43765Y91240D01*
Y88760D01*
D02*
G37*
G36*
X-9075Y88238D02*
X-9115Y88259D01*
X-9171Y88277D01*
X-9243Y88293D01*
X-9331Y88307D01*
X-9553Y88329D01*
X-10005Y88345D01*
X-10187Y88346D01*
Y89331D01*
X-10005Y89332D01*
X-9243Y89384D01*
X-9171Y89400D01*
X-9115Y89418D01*
X-9075Y89439D01*
Y88238D01*
D02*
G37*
G36*
X47500Y103953D02*
X46047D01*
Y100500D01*
X50000D01*
Y99500D01*
X46047D01*
Y96047D01*
X47500D01*
Y93953D01*
X46047D01*
Y91064D01*
X46101Y91073D01*
X46358Y91142D01*
X46576Y91230D01*
X46754Y91339D01*
X46893Y91466D01*
X46992Y91614D01*
X47051Y91782D01*
X47071Y91969D01*
Y90500D01*
X50000D01*
Y89500D01*
X47071D01*
Y88032D01*
X47051Y88218D01*
X46992Y88386D01*
X46893Y88534D01*
X46754Y88661D01*
X46576Y88770D01*
X46358Y88858D01*
X46101Y88927D01*
X46047Y88936D01*
Y86047D01*
X47500D01*
Y84134D01*
X45866D01*
Y82602D01*
X45366Y82423D01*
X44796Y82993D01*
X43944Y83485D01*
X42992Y83740D01*
X42008D01*
X41056Y83485D01*
X40602Y83223D01*
X40102Y83512D01*
Y85335D01*
X39994Y85878D01*
X39686Y86339D01*
X39469Y86485D01*
Y88297D01*
X39816Y88530D01*
X40165Y89051D01*
X40287Y89665D01*
Y91197D01*
X40418Y91352D01*
X43706Y94640D01*
X44076Y95194D01*
X44171Y95669D01*
X44665D01*
Y96806D01*
X44677Y96862D01*
X44665Y96918D01*
Y96944D01*
X44669Y96991D01*
X44665Y97005D01*
Y99606D01*
Y103082D01*
X44677Y103138D01*
X44665Y103194D01*
Y104253D01*
X45675Y105262D01*
X46045Y105816D01*
X46055Y105866D01*
X47500D01*
Y103953D01*
D02*
G37*
G36*
X-47051Y91782D02*
X-46992Y91614D01*
X-46893Y91466D01*
X-46754Y91339D01*
X-46576Y91230D01*
X-46358Y91142D01*
X-46101Y91073D01*
X-45804Y91024D01*
X-45467Y90994D01*
X-45091Y90984D01*
Y89016D01*
X-45467Y89006D01*
X-45804Y88976D01*
X-46101Y88927D01*
X-46358Y88858D01*
X-46576Y88770D01*
X-46754Y88661D01*
X-46893Y88534D01*
X-46992Y88386D01*
X-47051Y88218D01*
X-47071Y88032D01*
Y91969D01*
X-47051Y91782D01*
D02*
G37*
G36*
X-41842Y89246D02*
X-41877Y89154D01*
X-41908Y89027D01*
X-41934Y88866D01*
X-41947Y88735D01*
X-41260D01*
X-41402Y88588D01*
X-41529Y88440D01*
X-41641Y88292D01*
X-41739Y88143D01*
X-41821Y87993D01*
X-41888Y87843D01*
X-41941Y87692D01*
X-41978Y87540D01*
X-42000Y87388D01*
X-42007Y87242D01*
X-42008Y87179D01*
X-42992D01*
X-42992Y87242D01*
X-43000Y87388D01*
X-43022Y87540D01*
X-43059Y87692D01*
X-43112Y87843D01*
X-43179Y87993D01*
X-43261Y88143D01*
X-43359Y88292D01*
X-43471Y88440D01*
X-43598Y88588D01*
X-43740Y88735D01*
X-43073D01*
X-43092Y89027D01*
X-43123Y89154D01*
X-43158Y89246D01*
X-43196Y89305D01*
X-41804D01*
X-41842Y89246D01*
D02*
G37*
G36*
X9115Y86859D02*
X9171Y86841D01*
X9243Y86825D01*
X9331Y86811D01*
X9553Y86789D01*
X10005Y86773D01*
X10187Y86772D01*
Y85787D01*
X10005Y85786D01*
X9243Y85734D01*
X9171Y85718D01*
X9115Y85700D01*
X9075Y85679D01*
Y86880D01*
X9115Y86859D01*
D02*
G37*
G36*
X6279Y85679D02*
X6239Y85700D01*
X6183Y85718D01*
X6111Y85734D01*
X6024Y85748D01*
X5801Y85770D01*
X5350Y85786D01*
X5167Y85787D01*
Y86772D01*
X5350Y86773D01*
X6111Y86825D01*
X6183Y86841D01*
X6239Y86859D01*
X6279Y86880D01*
Y85679D01*
D02*
G37*
G36*
X-9075D02*
X-9115Y85700D01*
X-9171Y85718D01*
X-9243Y85734D01*
X-9331Y85748D01*
X-9553Y85770D01*
X-10005Y85786D01*
X-10187Y85787D01*
Y86772D01*
X-10005Y86773D01*
X-9243Y86825D01*
X-9171Y86841D01*
X-9115Y86859D01*
X-9075Y86880D01*
Y85679D01*
D02*
G37*
G36*
X4120Y87170D02*
X4150Y87087D01*
X4200Y87013D01*
X4269Y86949D01*
X4359Y86895D01*
X4468Y86850D01*
X4598Y86816D01*
X4747Y86791D01*
X4917Y86777D01*
X5106Y86772D01*
Y85787D01*
X4917Y85782D01*
X4747Y85768D01*
X4598Y85743D01*
X4468Y85709D01*
X4359Y85664D01*
X4269Y85610D01*
X4200Y85546D01*
X4150Y85472D01*
X4120Y85389D01*
X4110Y85295D01*
Y87264D01*
X4120Y87170D01*
D02*
G37*
G36*
X-30684Y85932D02*
X-30768Y85902D01*
X-30841Y85852D01*
X-30906Y85782D01*
X-30960Y85693D01*
X-31004Y85583D01*
X-31038Y85454D01*
X-31063Y85304D01*
X-31078Y85135D01*
X-31083Y84945D01*
X-32067D01*
X-32072Y85135D01*
X-32087Y85304D01*
X-32111Y85454D01*
X-32146Y85583D01*
X-32190Y85693D01*
X-32244Y85782D01*
X-32308Y85852D01*
X-32382Y85902D01*
X-32465Y85932D01*
X-32559Y85942D01*
X-30591D01*
X-30684Y85932D01*
D02*
G37*
G36*
X-18138Y84028D02*
X-18147Y84119D01*
X-18177Y84201D01*
X-18226Y84273D01*
X-18295Y84335D01*
X-18384Y84388D01*
X-18492Y84431D01*
X-18620Y84465D01*
X-18767Y84489D01*
X-18935Y84503D01*
X-19122Y84508D01*
Y85492D01*
X-18935Y85497D01*
X-18767Y85511D01*
X-18620Y85535D01*
X-18492Y85569D01*
X-18384Y85612D01*
X-18295Y85665D01*
X-18226Y85727D01*
X-18177Y85799D01*
X-18147Y85881D01*
X-18138Y85972D01*
Y84028D01*
D02*
G37*
G36*
X9115Y84300D02*
X9171Y84282D01*
X9243Y84266D01*
X9331Y84252D01*
X9553Y84230D01*
X10005Y84214D01*
X10187Y84213D01*
Y83228D01*
X10005Y83227D01*
X9243Y83175D01*
X9171Y83159D01*
X9115Y83141D01*
X9075Y83120D01*
Y84321D01*
X9115Y84300D01*
D02*
G37*
G36*
X-12141Y84030D02*
X-12224Y84000D01*
X-12298Y83950D01*
X-12362Y83880D01*
X-12416Y83791D01*
X-12461Y83681D01*
X-12495Y83552D01*
X-12520Y83402D01*
X-12534Y83233D01*
X-12539Y83043D01*
X-13524D01*
X-13529Y83233D01*
X-13543Y83402D01*
X-13568Y83552D01*
X-13602Y83681D01*
X-13647Y83791D01*
X-13701Y83880D01*
X-13765Y83950D01*
X-13839Y84000D01*
X-13922Y84030D01*
X-14016Y84040D01*
X-12047D01*
X-12141Y84030D01*
D02*
G37*
G36*
X-18Y83228D02*
X-222Y83225D01*
X-416Y83210D01*
X-601Y83185D01*
X-775Y83148D01*
X-939Y83101D01*
X-1093Y83042D01*
X-1236Y82972D01*
X-1370Y82892D01*
X-1494Y82800D01*
X-1607Y82697D01*
X-2303Y83393D01*
X-2200Y83506D01*
X-2108Y83630D01*
X-2028Y83764D01*
X-1958Y83907D01*
X-1899Y84061D01*
X-1852Y84225D01*
X-1815Y84399D01*
X-1790Y84583D01*
X-1775Y84778D01*
X-1772Y84982D01*
X-18Y83228D01*
D02*
G37*
G36*
X25335Y100986D02*
Y99606D01*
X25516D01*
Y95850D01*
X29484D01*
Y99500D01*
X30335D01*
Y95669D01*
X34665D01*
Y95888D01*
X34750Y95991D01*
X34877D01*
X35335Y95669D01*
Y95669D01*
X39203D01*
X39410Y95169D01*
X38039Y93798D01*
X37890Y93660D01*
X37857Y93633D01*
X36319D01*
X35704Y93511D01*
X35184Y93163D01*
X34835Y92642D01*
X34713Y92028D01*
Y89665D01*
X34835Y89051D01*
X35184Y88530D01*
X35531Y88297D01*
Y86485D01*
X35314Y86339D01*
X35006Y85878D01*
X34898Y85335D01*
Y85049D01*
X35093Y85084D01*
X35314Y85141D01*
X35510Y85210D01*
X35681Y85291D01*
X35827Y85385D01*
X35948Y85491D01*
X36044Y85610D01*
X36170Y82613D01*
X36039Y82689D01*
X35889Y82758D01*
X35718Y82818D01*
X35527Y82871D01*
X35316Y82915D01*
X34898Y82971D01*
X35006Y82429D01*
X35155Y82206D01*
X34888Y81706D01*
X25707D01*
X22486Y84927D01*
X21933Y85297D01*
X21280Y85426D01*
X10700D01*
X10290Y85927D01*
X10297Y85965D01*
Y86594D01*
X10290Y86633D01*
X10295Y86691D01*
X10686Y87202D01*
X10991Y87262D01*
X11545Y87632D01*
X12206Y88294D01*
X12576Y88847D01*
X12706Y89500D01*
Y91000D01*
X12576Y91653D01*
X12219Y92188D01*
X12262Y92407D01*
X12378Y92688D01*
X13583D01*
X13765Y92724D01*
X15352Y92792D01*
X15847D01*
X16692Y92960D01*
X17408Y93439D01*
X18561Y94592D01*
X19040Y95308D01*
X19208Y96153D01*
Y100467D01*
X19219Y100596D01*
X19251Y100786D01*
X19379Y100794D01*
X23778D01*
X24431Y100924D01*
X24835Y101193D01*
X25335Y100986D01*
D02*
G37*
G36*
X-20388Y81709D02*
X-20375Y81552D01*
X-20354Y81414D01*
X-20325Y81294D01*
X-20287Y81193D01*
X-20241Y81109D01*
X-20186Y81045D01*
X-20123Y80998D01*
X-20052Y80970D01*
X-19972Y80960D01*
X-21701Y80972D01*
X-21639Y80981D01*
X-21584Y81009D01*
X-21535Y81054D01*
X-21493Y81118D01*
X-21457Y81200D01*
X-21428Y81300D01*
X-21405Y81419D01*
X-21389Y81556D01*
X-21379Y81711D01*
X-21376Y81884D01*
X-20392D01*
X-20388Y81709D01*
D02*
G37*
G36*
X9115Y81741D02*
X9171Y81723D01*
X9243Y81707D01*
X9331Y81692D01*
X9553Y81671D01*
X10005Y81655D01*
X10187Y81653D01*
Y80669D01*
X10005Y80668D01*
X9243Y80616D01*
X9171Y80600D01*
X9115Y80582D01*
X9075Y80561D01*
Y81762D01*
X9115Y81741D01*
D02*
G37*
G36*
X13756Y81261D02*
X13271Y80384D01*
X12798Y80813D01*
X13494Y81509D01*
X13756Y81261D01*
D02*
G37*
G36*
X-2948Y80879D02*
X-3032Y80849D01*
X-3105Y80799D01*
X-3169Y80729D01*
X-3223Y80639D01*
X-3268Y80529D01*
X-3302Y80400D01*
X-3327Y80251D01*
X-3342Y80082D01*
X-3347Y79894D01*
X-4331D01*
X-4122Y80878D01*
X-2854Y80890D01*
X-2948Y80879D01*
D02*
G37*
G36*
X39305Y79304D02*
X39246Y79342D01*
X39154Y79377D01*
X39027Y79408D01*
X38866Y79434D01*
X38441Y79475D01*
X37546Y79506D01*
X37179Y79508D01*
Y80492D01*
X37546Y80494D01*
X39027Y80592D01*
X39154Y80623D01*
X39246Y80658D01*
X39305Y80696D01*
Y79304D01*
D02*
G37*
G36*
X-19353Y80881D02*
X-19323Y80799D01*
X-19274Y80727D01*
X-19205Y80665D01*
X-19116Y80612D01*
X-19008Y80569D01*
X-18880Y80535D01*
X-18733Y80511D01*
X-18565Y80497D01*
X-18378Y80492D01*
Y79508D01*
X-18565Y79503D01*
X-18733Y79489D01*
X-18880Y79465D01*
X-19008Y79431D01*
X-19116Y79388D01*
X-19205Y79335D01*
X-19274Y79273D01*
X-19323Y79201D01*
X-19353Y79119D01*
X-19362Y79028D01*
Y80972D01*
X-19353Y80881D01*
D02*
G37*
G36*
X-25638Y79028D02*
X-25647Y79119D01*
X-25677Y79201D01*
X-25726Y79273D01*
X-25795Y79335D01*
X-25884Y79388D01*
X-25992Y79431D01*
X-26120Y79465D01*
X-26267Y79489D01*
X-26435Y79503D01*
X-26622Y79508D01*
Y80492D01*
X-26435Y80497D01*
X-26267Y80511D01*
X-26120Y80535D01*
X-25992Y80569D01*
X-25884Y80612D01*
X-25795Y80665D01*
X-25726Y80727D01*
X-25677Y80799D01*
X-25647Y80881D01*
X-25638Y80972D01*
Y79028D01*
D02*
G37*
G36*
X43823Y81191D02*
X43896Y81148D01*
X43985Y81110D01*
X44089Y81076D01*
X44208Y81048D01*
X44343Y81025D01*
X44659Y80994D01*
X44840Y80987D01*
X45036Y80984D01*
Y79016D01*
X44840Y79013D01*
X44343Y78975D01*
X44208Y78952D01*
X44089Y78924D01*
X43985Y78890D01*
X43896Y78852D01*
X43823Y78808D01*
X43765Y78760D01*
Y81240D01*
X43823Y81191D01*
D02*
G37*
G36*
X-43765Y78760D02*
X-43823Y78808D01*
X-43896Y78852D01*
X-43985Y78890D01*
X-44089Y78924D01*
X-44208Y78952D01*
X-44343Y78975D01*
X-44659Y79005D01*
X-44840Y79013D01*
X-45036Y79016D01*
Y80984D01*
X-44840Y80987D01*
X-44343Y81025D01*
X-44208Y81048D01*
X-44089Y81076D01*
X-43985Y81110D01*
X-43896Y81148D01*
X-43823Y81191D01*
X-43765Y81240D01*
Y78760D01*
D02*
G37*
G36*
X-3345Y79650D02*
X-3293Y78889D01*
X-3277Y78817D01*
X-3259Y78761D01*
X-3238Y78721D01*
X-4439D01*
X-4418Y78761D01*
X-4400Y78817D01*
X-4384Y78889D01*
X-4370Y78976D01*
X-4348Y79199D01*
X-4332Y79650D01*
X-4331Y79833D01*
X-3347D01*
X-3345Y79650D01*
D02*
G37*
G36*
X47071Y78031D02*
X47051Y78219D01*
X46992Y78386D01*
X46893Y78534D01*
X46754Y78661D01*
X46576Y78770D01*
X46358Y78858D01*
X46101Y78927D01*
X45804Y78976D01*
X45467Y79006D01*
X45091Y79016D01*
Y80984D01*
X45467Y80994D01*
X45804Y81024D01*
X46101Y81073D01*
X46358Y81142D01*
X46576Y81230D01*
X46754Y81339D01*
X46893Y81467D01*
X46992Y81614D01*
X47051Y81782D01*
X47071Y81968D01*
Y78031D01*
D02*
G37*
G36*
X-47051Y81782D02*
X-46992Y81614D01*
X-46893Y81467D01*
X-46754Y81339D01*
X-46576Y81230D01*
X-46358Y81142D01*
X-46101Y81073D01*
X-45804Y81024D01*
X-45467Y80994D01*
X-45091Y80984D01*
Y79016D01*
X-45467Y79006D01*
X-45804Y78976D01*
X-46101Y78927D01*
X-46358Y78858D01*
X-46576Y78770D01*
X-46754Y78661D01*
X-46893Y78534D01*
X-46992Y78386D01*
X-47051Y78219D01*
X-47071Y78031D01*
Y81968D01*
X-47051Y81782D01*
D02*
G37*
G36*
X-41842Y79246D02*
X-41877Y79154D01*
X-41908Y79027D01*
X-41934Y78866D01*
X-41947Y78735D01*
X-41260D01*
X-41402Y78588D01*
X-41529Y78440D01*
X-41641Y78292D01*
X-41739Y78143D01*
X-41821Y77993D01*
X-41888Y77843D01*
X-41941Y77692D01*
X-41978Y77540D01*
X-42000Y77388D01*
X-42007Y77242D01*
X-42008Y77179D01*
X-42992D01*
X-42992Y77242D01*
X-43000Y77388D01*
X-43022Y77540D01*
X-43059Y77692D01*
X-43112Y77843D01*
X-43179Y77993D01*
X-43261Y78143D01*
X-43359Y78292D01*
X-43471Y78440D01*
X-43598Y78588D01*
X-43740Y78735D01*
X-43073D01*
X-43092Y79027D01*
X-43123Y79154D01*
X-43158Y79246D01*
X-43196Y79304D01*
X-41804D01*
X-41842Y79246D01*
D02*
G37*
G36*
X-37849Y77365D02*
X-37835Y77196D01*
X-37810Y77046D01*
X-37776Y76917D01*
X-37731Y76807D01*
X-37677Y76718D01*
X-37613Y76648D01*
X-37539Y76598D01*
X-37456Y76568D01*
X-37362Y76558D01*
X-39331D01*
X-39237Y76568D01*
X-39154Y76598D01*
X-39080Y76648D01*
X-39016Y76718D01*
X-38962Y76807D01*
X-38917Y76917D01*
X-38883Y77046D01*
X-38858Y77196D01*
X-38844Y77365D01*
X-38839Y77555D01*
X-37854D01*
X-37849Y77365D01*
D02*
G37*
G36*
X43158Y76746D02*
X43123Y76654D01*
X43092Y76527D01*
X43066Y76366D01*
X43025Y75941D01*
X42994Y75046D01*
X42992Y74679D01*
X42008D01*
X42006Y75046D01*
X41908Y76527D01*
X41877Y76654D01*
X41842Y76746D01*
X41804Y76805D01*
X43196D01*
X43158Y76746D01*
D02*
G37*
G36*
X-19353Y75881D02*
X-19323Y75799D01*
X-19274Y75727D01*
X-19205Y75665D01*
X-19116Y75612D01*
X-19008Y75569D01*
X-18880Y75535D01*
X-18733Y75511D01*
X-18565Y75497D01*
X-18378Y75492D01*
Y74508D01*
X-18565Y74503D01*
X-18733Y74489D01*
X-18880Y74465D01*
X-19008Y74431D01*
X-19116Y74388D01*
X-19205Y74335D01*
X-19274Y74273D01*
X-19323Y74201D01*
X-19353Y74119D01*
X-19362Y74028D01*
Y75972D01*
X-19353Y75881D01*
D02*
G37*
G36*
X-25638Y74028D02*
X-25647Y74119D01*
X-25677Y74201D01*
X-25726Y74273D01*
X-25795Y74335D01*
X-25884Y74388D01*
X-25992Y74431D01*
X-26120Y74465D01*
X-26267Y74489D01*
X-26435Y74503D01*
X-26622Y74508D01*
Y75492D01*
X-26435Y75497D01*
X-26267Y75511D01*
X-26120Y75535D01*
X-25992Y75569D01*
X-25884Y75612D01*
X-25795Y75665D01*
X-25726Y75727D01*
X-25677Y75799D01*
X-25647Y75881D01*
X-25638Y75972D01*
Y74028D01*
D02*
G37*
G36*
X-36894Y73535D02*
X-36898Y73514D01*
X-36901Y73480D01*
X-36908Y73306D01*
X-36912Y72904D01*
X-37896D01*
X-37896Y73007D01*
X-37923Y73437D01*
X-37930Y73442D01*
X-36890Y73544D01*
X-36894Y73535D01*
D02*
G37*
G36*
X4970Y70891D02*
X5000Y70807D01*
X5050Y70733D01*
X5120Y70669D01*
X5209Y70615D01*
X5319Y70571D01*
X5448Y70536D01*
X5598Y70512D01*
X5767Y70497D01*
X5918Y70493D01*
X6065Y70497D01*
X6233Y70511D01*
X6380Y70535D01*
X6508Y70569D01*
X6616Y70612D01*
X6705Y70665D01*
X6774Y70727D01*
X6823Y70799D01*
X6853Y70881D01*
X6862Y70972D01*
Y69028D01*
X6853Y69119D01*
X6823Y69201D01*
X6774Y69273D01*
X6705Y69335D01*
X6616Y69388D01*
X6508Y69431D01*
X6380Y69465D01*
X6233Y69489D01*
X6065Y69503D01*
X5918Y69507D01*
X5767Y69503D01*
X5598Y69488D01*
X5448Y69464D01*
X5319Y69429D01*
X5209Y69385D01*
X5120Y69331D01*
X5050Y69267D01*
X5000Y69193D01*
X4970Y69109D01*
X4960Y69016D01*
Y70984D01*
X4970Y70891D01*
D02*
G37*
G36*
X3040Y69016D02*
X3030Y69109D01*
X3000Y69193D01*
X2950Y69267D01*
X2880Y69331D01*
X2791Y69385D01*
X2681Y69429D01*
X2552Y69464D01*
X2402Y69488D01*
X2233Y69503D01*
X2043Y69508D01*
Y70492D01*
X2233Y70497D01*
X2402Y70512D01*
X2552Y70536D01*
X2681Y70571D01*
X2791Y70615D01*
X2880Y70669D01*
X2950Y70733D01*
X3000Y70807D01*
X3030Y70891D01*
X3040Y70984D01*
Y69016D01*
D02*
G37*
G36*
X12859Y69030D02*
X12776Y69000D01*
X12702Y68950D01*
X12638Y68880D01*
X12584Y68791D01*
X12539Y68681D01*
X12505Y68552D01*
X12480Y68402D01*
X12466Y68233D01*
X12461Y68044D01*
X11476D01*
X11472Y68233D01*
X11457Y68402D01*
X11432Y68552D01*
X11398Y68681D01*
X11353Y68791D01*
X11299Y68880D01*
X11235Y68950D01*
X11161Y69000D01*
X11078Y69030D01*
X10984Y69040D01*
X12953D01*
X12859Y69030D01*
D02*
G37*
G36*
X-39714Y69570D02*
X-39351Y69261D01*
X-39190Y69149D01*
X-39044Y69064D01*
X-38912Y69007D01*
X-38794Y68978D01*
X-38690Y68977D01*
X-38600Y69004D01*
X-38525Y69058D01*
X-39905Y67678D01*
X-39850Y67754D01*
X-39824Y67843D01*
X-39825Y67947D01*
X-39854Y68065D01*
X-39911Y68197D01*
X-39996Y68344D01*
X-40108Y68504D01*
X-40248Y68679D01*
X-40613Y69070D01*
X-39917Y69766D01*
X-39714Y69570D01*
D02*
G37*
G36*
X-47056Y71450D02*
X-47008Y71352D01*
X-46930Y71266D01*
X-46820Y71191D01*
X-46678Y71128D01*
X-46506Y71076D01*
X-46301Y71036D01*
X-46066Y71007D01*
X-45799Y70990D01*
X-45500Y70984D01*
Y69016D01*
X-44516Y70001D01*
X-44502Y69932D01*
X-44461Y69842D01*
X-44393Y69731D01*
X-44298Y69598D01*
X-44027Y69269D01*
X-43415Y68614D01*
X-43157Y68353D01*
X-43853Y67657D01*
X-44114Y67915D01*
X-45231Y68893D01*
X-45342Y68961D01*
X-45432Y69002D01*
X-45501Y69016D01*
X-45799Y69010D01*
X-46301Y68964D01*
X-46506Y68924D01*
X-46678Y68872D01*
X-46820Y68809D01*
X-46930Y68734D01*
X-47008Y68648D01*
X-47056Y68550D01*
X-47071Y68441D01*
Y71559D01*
X-47056Y71450D01*
D02*
G37*
G36*
X47059Y67059D02*
X45091Y67047D01*
Y69016D01*
X45466Y69026D01*
X45802Y69055D01*
X46099Y69104D01*
X46356Y69173D01*
X46574Y69262D01*
X46752Y69370D01*
X46891Y69498D01*
X46991Y69646D01*
X47051Y69813D01*
X47071Y70000D01*
X47059Y67059D01*
D02*
G37*
G36*
X-19353Y68381D02*
X-19323Y68299D01*
X-19274Y68227D01*
X-19205Y68165D01*
X-19116Y68112D01*
X-19008Y68069D01*
X-18880Y68035D01*
X-18733Y68011D01*
X-18565Y67997D01*
X-18378Y67992D01*
Y67008D01*
X-18565Y67003D01*
X-18733Y66989D01*
X-18880Y66965D01*
X-19008Y66931D01*
X-19116Y66888D01*
X-19205Y66835D01*
X-19274Y66773D01*
X-19323Y66701D01*
X-19353Y66619D01*
X-19362Y66528D01*
Y68472D01*
X-19353Y68381D01*
D02*
G37*
G36*
X-25638Y66528D02*
X-25647Y66619D01*
X-25677Y66701D01*
X-25726Y66773D01*
X-25795Y66835D01*
X-25884Y66888D01*
X-25992Y66931D01*
X-26120Y66965D01*
X-26267Y66989D01*
X-26435Y67003D01*
X-26622Y67008D01*
Y67992D01*
X-26435Y67997D01*
X-26267Y68011D01*
X-26120Y68035D01*
X-25992Y68069D01*
X-25884Y68112D01*
X-25795Y68165D01*
X-25726Y68227D01*
X-25677Y68299D01*
X-25647Y68381D01*
X-25638Y68472D01*
Y66528D01*
D02*
G37*
G36*
X-30085Y68391D02*
X-30055Y68307D01*
X-30006Y68233D01*
X-29936Y68169D01*
X-29846Y68115D01*
X-29737Y68071D01*
X-29607Y68036D01*
X-29458Y68012D01*
X-29288Y67997D01*
X-29099Y67992D01*
Y67008D01*
X-29288Y67003D01*
X-29458Y66988D01*
X-29607Y66964D01*
X-29737Y66929D01*
X-29846Y66885D01*
X-29936Y66831D01*
X-30006Y66767D01*
X-30055Y66693D01*
X-30085Y66609D01*
X-30095Y66516D01*
Y68484D01*
X-30085Y68391D01*
D02*
G37*
G36*
X12466Y66767D02*
X12480Y66598D01*
X12505Y66448D01*
X12539Y66319D01*
X12584Y66209D01*
X12638Y66120D01*
X12702Y66050D01*
X12776Y66000D01*
X12859Y65970D01*
X12953Y65960D01*
X10984D01*
X11078Y65970D01*
X11161Y66000D01*
X11235Y66050D01*
X11299Y66120D01*
X11353Y66209D01*
X11398Y66319D01*
X11432Y66448D01*
X11457Y66598D01*
X11472Y66767D01*
X11476Y66957D01*
X12461D01*
X12466Y66767D01*
D02*
G37*
G36*
X-36942Y66002D02*
X-36988Y65950D01*
X-37029Y65887D01*
X-37064Y65814D01*
X-37094Y65731D01*
X-37118Y65636D01*
X-37137Y65531D01*
X-37151Y65416D01*
X-37159Y65290D01*
X-37162Y65154D01*
X-38146D01*
X-38149Y65307D01*
X-38172Y65564D01*
X-38192Y65667D01*
X-38217Y65754D01*
X-38248Y65825D01*
X-38285Y65879D01*
X-38328Y65916D01*
X-38376Y65937D01*
X-38430Y65942D01*
X-36890Y66044D01*
X-36942Y66002D01*
D02*
G37*
G36*
X43001Y66016D02*
X42932Y66002D01*
X42842Y65961D01*
X42731Y65893D01*
X42598Y65798D01*
X42269Y65527D01*
X41614Y64915D01*
X41353Y64657D01*
X40657Y65353D01*
X40915Y65614D01*
X41893Y66731D01*
X41961Y66842D01*
X42002Y66932D01*
X42016Y67001D01*
X43001Y66016D01*
D02*
G37*
G36*
X-7643Y64777D02*
X-7834Y64316D01*
X-18500D01*
Y65516D01*
X-18350D01*
Y69484D01*
X-17979Y69794D01*
X-12659D01*
X-7643Y64777D01*
D02*
G37*
G36*
X13147Y65881D02*
X13177Y65799D01*
X13226Y65727D01*
X13295Y65665D01*
X13384Y65612D01*
X13492Y65569D01*
X13620Y65535D01*
X13768Y65511D01*
X13935Y65497D01*
X14122Y65492D01*
Y64508D01*
X13935Y64503D01*
X13768Y64489D01*
X13620Y64465D01*
X13492Y64431D01*
X13384Y64388D01*
X13295Y64335D01*
X13226Y64273D01*
X13177Y64201D01*
X13147Y64119D01*
X13138Y64028D01*
Y65972D01*
X13147Y65881D01*
D02*
G37*
G36*
X4971Y65891D02*
X5002Y65807D01*
X5052Y65733D01*
X5122Y65669D01*
X5212Y65615D01*
X5321Y65571D01*
X5451Y65536D01*
X5599Y65512D01*
X5768Y65497D01*
X5918Y65493D01*
X6065Y65497D01*
X6233Y65511D01*
X6380Y65535D01*
X6508Y65569D01*
X6616Y65612D01*
X6705Y65665D01*
X6774Y65727D01*
X6823Y65799D01*
X6853Y65881D01*
X6862Y65972D01*
Y64028D01*
X6853Y64119D01*
X6823Y64201D01*
X6774Y64273D01*
X6705Y64335D01*
X6616Y64388D01*
X6508Y64431D01*
X6380Y64465D01*
X6233Y64489D01*
X6065Y64503D01*
X5878Y64508D01*
Y64536D01*
X4972Y64862D01*
X4960Y65984D01*
X4971Y65891D01*
D02*
G37*
G36*
X4881Y64852D02*
X4799Y64823D01*
X4727Y64774D01*
X4665Y64705D01*
X4612Y64616D01*
X4569Y64508D01*
X4535Y64380D01*
X4511Y64232D01*
X4497Y64065D01*
X4492Y63878D01*
X3508D01*
X3503Y64065D01*
X3489Y64232D01*
X3465Y64380D01*
X3431Y64508D01*
X3388Y64616D01*
X3335Y64705D01*
X3273Y64774D01*
X3201Y64823D01*
X3119Y64852D01*
X3028Y64862D01*
X4972D01*
X4881Y64852D01*
D02*
G37*
G36*
X16235Y63760D02*
X16088Y63902D01*
X15940Y64029D01*
X15792Y64141D01*
X15643Y64239D01*
X15493Y64321D01*
X15343Y64388D01*
X15192Y64441D01*
X15040Y64478D01*
X14888Y64500D01*
X14735Y64508D01*
X14735Y65492D01*
X14888Y65500D01*
X15040Y65522D01*
X15192Y65559D01*
X15343Y65612D01*
X15493Y65679D01*
X15643Y65761D01*
X15792Y65859D01*
X15940Y65971D01*
X16088Y66098D01*
X16235Y66240D01*
X16235Y63760D01*
D02*
G37*
G36*
X-10481Y82750D02*
X-10283Y82184D01*
X-10366Y82060D01*
X-10482Y81476D01*
Y80847D01*
X-10366Y80263D01*
X-10035Y79768D01*
X-9540Y79437D01*
X-8957Y79321D01*
X-6398D01*
X-5814Y79437D01*
X-5750Y79480D01*
X-5390Y79119D01*
X-5392Y79115D01*
X-5494Y78602D01*
Y76043D01*
X-5392Y75530D01*
X-5102Y75095D01*
X-4667Y74805D01*
X-4154Y74703D01*
X-3524D01*
X-3011Y74805D01*
X-2703Y75010D01*
X-2673Y74965D01*
X-2178Y74634D01*
X-1595Y74518D01*
X-965D01*
X-813Y74548D01*
X-427Y74231D01*
Y73337D01*
X-297Y72684D01*
X73Y72130D01*
X784Y71420D01*
X1337Y71050D01*
X1990Y70920D01*
X2016D01*
Y68394D01*
X1835D01*
Y65005D01*
X1830Y64991D01*
X1835Y64944D01*
Y64918D01*
X1823Y64862D01*
X1835Y64806D01*
Y63669D01*
X2204D01*
X2257Y63169D01*
X1746Y62659D01*
X1377Y62106D01*
X1247Y61453D01*
Y60742D01*
X750Y60510D01*
X725Y60521D01*
X719Y60543D01*
X592Y61184D01*
X222Y61738D01*
X-10746Y72706D01*
X-11300Y73076D01*
X-11953Y73206D01*
X-18350D01*
Y76984D01*
X-18500D01*
Y77835D01*
X-18169D01*
Y78294D01*
X-15000D01*
X-14347Y78424D01*
X-13794Y78794D01*
X-11825Y80762D01*
X-11455Y81316D01*
X-11326Y81968D01*
Y82835D01*
X-10669D01*
X-10481Y82750D01*
D02*
G37*
G36*
X43823Y61191D02*
X43896Y61148D01*
X43985Y61110D01*
X44089Y61076D01*
X44208Y61048D01*
X44343Y61025D01*
X44659Y60994D01*
X44840Y60987D01*
X45036Y60984D01*
Y59016D01*
X44840Y59013D01*
X44343Y58975D01*
X44208Y58952D01*
X44089Y58924D01*
X43985Y58890D01*
X43896Y58852D01*
X43823Y58808D01*
X43765Y58760D01*
Y61240D01*
X43823Y61191D01*
D02*
G37*
G36*
X47071Y58031D02*
X47051Y58218D01*
X46992Y58386D01*
X46893Y58534D01*
X46754Y58661D01*
X46576Y58770D01*
X46358Y58858D01*
X46101Y58927D01*
X45804Y58976D01*
X45467Y59006D01*
X45091Y59016D01*
Y60984D01*
X45467Y60994D01*
X45804Y61024D01*
X46101Y61073D01*
X46358Y61142D01*
X46576Y61230D01*
X46754Y61339D01*
X46893Y61466D01*
X46992Y61614D01*
X47051Y61782D01*
X47071Y61968D01*
Y58031D01*
D02*
G37*
G36*
X-47051Y61782D02*
X-46992Y61614D01*
X-46893Y61466D01*
X-46754Y61339D01*
X-46576Y61230D01*
X-46358Y61142D01*
X-46101Y61073D01*
X-45804Y61024D01*
X-45467Y60994D01*
X-45091Y60984D01*
Y59016D01*
X-45467Y59006D01*
X-45804Y58976D01*
X-46101Y58927D01*
X-46358Y58858D01*
X-46576Y58770D01*
X-46754Y58661D01*
X-46893Y58534D01*
X-46992Y58386D01*
X-47051Y58218D01*
X-47071Y58031D01*
Y61968D01*
X-47051Y61782D01*
D02*
G37*
G36*
X-42303Y59932D02*
X-42263Y59842D01*
X-42195Y59731D01*
X-42099Y59598D01*
X-41828Y59269D01*
X-41217Y58614D01*
X-40959Y58353D01*
X-41655Y57657D01*
X-41916Y57915D01*
X-43032Y58893D01*
X-43143Y58961D01*
X-43233Y59002D01*
X-43302Y59016D01*
X-42317Y60001D01*
X-42303Y59932D01*
D02*
G37*
G36*
X42482Y58228D02*
X42407Y58222D01*
X42324Y58201D01*
X42235Y58165D01*
X42138Y58115D01*
X42033Y58051D01*
X41922Y57972D01*
X41677Y57770D01*
X41543Y57648D01*
X41403Y57511D01*
X40011Y58903D01*
X40148Y59043D01*
X40472Y59422D01*
X40551Y59533D01*
X40615Y59637D01*
X40665Y59735D01*
X40701Y59824D01*
X40722Y59907D01*
X40728Y59982D01*
X42482Y58228D01*
D02*
G37*
G36*
X1481Y56297D02*
X1496Y56130D01*
X1521Y55982D01*
X1555Y55854D01*
X1599Y55746D01*
X1654Y55657D01*
X1718Y55588D01*
X1791Y55539D01*
X1875Y55510D01*
X1969Y55500D01*
X0D01*
X94Y55510D01*
X177Y55539D01*
X251Y55588D01*
X315Y55657D01*
X369Y55746D01*
X413Y55854D01*
X448Y55982D01*
X472Y56130D01*
X487Y56297D01*
X492Y56484D01*
X1476D01*
X1481Y56297D01*
D02*
G37*
G36*
X40001Y56516D02*
X39932Y56502D01*
X39842Y56461D01*
X39731Y56393D01*
X39598Y56298D01*
X39269Y56027D01*
X38614Y55415D01*
X38353Y55157D01*
X37657Y55853D01*
X37915Y56114D01*
X38893Y57231D01*
X38961Y57342D01*
X39002Y57432D01*
X39016Y57501D01*
X40001Y56516D01*
D02*
G37*
G36*
X1483Y54786D02*
X1504Y54633D01*
X1538Y54499D01*
X1585Y54386D01*
X1647Y54292D01*
X1722Y54218D01*
X1810Y54164D01*
X1912Y54130D01*
X2028Y54116D01*
X2158Y54122D01*
X597Y52515D01*
X492Y54539D01*
X1476Y54959D01*
X1483Y54786D01*
D02*
G37*
G36*
X39305Y49304D02*
X39246Y49342D01*
X39154Y49377D01*
X39027Y49408D01*
X38866Y49434D01*
X38441Y49475D01*
X37546Y49506D01*
X37179Y49508D01*
Y50492D01*
X37546Y50494D01*
X39027Y50592D01*
X39154Y50623D01*
X39246Y50658D01*
X39305Y50696D01*
Y49304D01*
D02*
G37*
G36*
X-36746Y50658D02*
X-36654Y50623D01*
X-36527Y50592D01*
X-36366Y50566D01*
X-35941Y50525D01*
X-35046Y50494D01*
X-34679Y50492D01*
Y49508D01*
X-35046Y49506D01*
X-36527Y49408D01*
X-36654Y49377D01*
X-36746Y49342D01*
X-36805Y49304D01*
Y50696D01*
X-36746Y50658D01*
D02*
G37*
G36*
X43823Y51192D02*
X43896Y51148D01*
X43985Y51110D01*
X44089Y51076D01*
X44208Y51048D01*
X44343Y51025D01*
X44659Y50994D01*
X44840Y50987D01*
X45036Y50984D01*
Y49016D01*
X44840Y49013D01*
X44343Y48975D01*
X44208Y48952D01*
X44089Y48924D01*
X43985Y48890D01*
X43896Y48852D01*
X43823Y48809D01*
X43765Y48760D01*
Y51240D01*
X43823Y51192D01*
D02*
G37*
G36*
X-41177D02*
X-41104Y51148D01*
X-41015Y51110D01*
X-40911Y51076D01*
X-40792Y51048D01*
X-40657Y51025D01*
X-40341Y50994D01*
X-40160Y50987D01*
X-39964Y50984D01*
Y49016D01*
X-40160Y49013D01*
X-40657Y48975D01*
X-40792Y48952D01*
X-40911Y48924D01*
X-41015Y48890D01*
X-41104Y48852D01*
X-41177Y48809D01*
X-41235Y48760D01*
Y51240D01*
X-41177Y51192D01*
D02*
G37*
G36*
X-43765Y48760D02*
X-43823Y48809D01*
X-43896Y48852D01*
X-43985Y48890D01*
X-44089Y48924D01*
X-44208Y48952D01*
X-44343Y48975D01*
X-44659Y49005D01*
X-44840Y49013D01*
X-45036Y49016D01*
Y50984D01*
X-44840Y50987D01*
X-44343Y51025D01*
X-44208Y51048D01*
X-44089Y51076D01*
X-43985Y51110D01*
X-43896Y51148D01*
X-43823Y51192D01*
X-43765Y51240D01*
Y48760D01*
D02*
G37*
G36*
X47071Y48031D02*
X47051Y48219D01*
X46992Y48386D01*
X46893Y48533D01*
X46754Y48661D01*
X46576Y48770D01*
X46358Y48858D01*
X46101Y48927D01*
X45804Y48976D01*
X45467Y49006D01*
X45091Y49016D01*
Y50984D01*
X45467Y50994D01*
X45804Y51024D01*
X46101Y51073D01*
X46358Y51142D01*
X46576Y51230D01*
X46754Y51339D01*
X46893Y51467D01*
X46992Y51614D01*
X47051Y51781D01*
X47071Y51968D01*
Y48031D01*
D02*
G37*
G36*
X-47051Y51781D02*
X-46992Y51614D01*
X-46893Y51467D01*
X-46754Y51339D01*
X-46576Y51230D01*
X-46358Y51142D01*
X-46101Y51073D01*
X-45804Y51024D01*
X-45467Y50994D01*
X-45091Y50984D01*
Y49016D01*
X-45467Y49006D01*
X-45804Y48976D01*
X-46101Y48927D01*
X-46358Y48858D01*
X-46576Y48770D01*
X-46754Y48661D01*
X-46893Y48533D01*
X-46992Y48386D01*
X-47051Y48219D01*
X-47071Y48031D01*
Y51968D01*
X-47051Y51781D01*
D02*
G37*
G36*
X-94Y44502D02*
X-177Y44472D01*
X-251Y44423D01*
X-315Y44353D01*
X-369Y44263D01*
X-413Y44153D01*
X-448Y44024D01*
X-472Y43875D01*
X-487Y43705D01*
X-492Y43516D01*
X-1476D01*
X-1481Y43705D01*
X-1496Y43875D01*
X-1521Y44024D01*
X-1555Y44153D01*
X-1599Y44263D01*
X-1654Y44353D01*
X-1718Y44423D01*
X-1791Y44472D01*
X-1875Y44502D01*
X-1969Y44512D01*
X0D01*
X-94Y44502D01*
D02*
G37*
G36*
X39305Y39304D02*
X39246Y39342D01*
X39154Y39377D01*
X39027Y39408D01*
X38866Y39434D01*
X38441Y39475D01*
X37546Y39506D01*
X37179Y39508D01*
Y40492D01*
X37546Y40494D01*
X39027Y40592D01*
X39154Y40623D01*
X39246Y40658D01*
X39305Y40696D01*
Y39304D01*
D02*
G37*
G36*
X-36746Y40658D02*
X-36654Y40623D01*
X-36527Y40592D01*
X-36366Y40566D01*
X-35941Y40525D01*
X-35046Y40494D01*
X-34679Y40492D01*
Y39508D01*
X-35046Y39506D01*
X-36527Y39408D01*
X-36654Y39377D01*
X-36746Y39342D01*
X-36805Y39304D01*
Y40696D01*
X-36746Y40658D01*
D02*
G37*
G36*
X43823Y41192D02*
X43896Y41148D01*
X43985Y41110D01*
X44089Y41076D01*
X44208Y41048D01*
X44343Y41025D01*
X44659Y40995D01*
X44840Y40987D01*
X45036Y40984D01*
Y39016D01*
X44840Y39013D01*
X44343Y38975D01*
X44208Y38952D01*
X44089Y38924D01*
X43985Y38890D01*
X43896Y38852D01*
X43823Y38809D01*
X43765Y38760D01*
Y41240D01*
X43823Y41192D01*
D02*
G37*
G36*
X-41177D02*
X-41104Y41148D01*
X-41015Y41110D01*
X-40911Y41076D01*
X-40792Y41048D01*
X-40657Y41025D01*
X-40341Y40995D01*
X-40160Y40987D01*
X-39964Y40984D01*
Y39016D01*
X-40160Y39013D01*
X-40657Y38975D01*
X-40792Y38952D01*
X-40911Y38924D01*
X-41015Y38890D01*
X-41104Y38852D01*
X-41177Y38809D01*
X-41235Y38760D01*
Y41240D01*
X-41177Y41192D01*
D02*
G37*
G36*
X-43765Y38760D02*
X-43823Y38809D01*
X-43896Y38852D01*
X-43985Y38890D01*
X-44089Y38924D01*
X-44208Y38952D01*
X-44343Y38975D01*
X-44659Y39006D01*
X-44840Y39013D01*
X-45036Y39016D01*
Y40984D01*
X-44840Y40987D01*
X-44343Y41025D01*
X-44208Y41048D01*
X-44089Y41076D01*
X-43985Y41110D01*
X-43896Y41148D01*
X-43823Y41192D01*
X-43765Y41240D01*
Y38760D01*
D02*
G37*
G36*
X47071Y38032D02*
X47051Y38219D01*
X46992Y38386D01*
X46893Y38533D01*
X46754Y38661D01*
X46576Y38770D01*
X46358Y38858D01*
X46101Y38927D01*
X45804Y38976D01*
X45467Y39006D01*
X45091Y39016D01*
Y40984D01*
X45467Y40994D01*
X45804Y41024D01*
X46101Y41073D01*
X46358Y41142D01*
X46576Y41230D01*
X46754Y41339D01*
X46893Y41467D01*
X46992Y41614D01*
X47051Y41781D01*
X47071Y41969D01*
Y38032D01*
D02*
G37*
G36*
X-47051Y41781D02*
X-46992Y41614D01*
X-46893Y41467D01*
X-46754Y41339D01*
X-46576Y41230D01*
X-46358Y41142D01*
X-46101Y41073D01*
X-45804Y41024D01*
X-45467Y40994D01*
X-45091Y40984D01*
Y39016D01*
X-45467Y39006D01*
X-45804Y38976D01*
X-46101Y38927D01*
X-46358Y38858D01*
X-46576Y38770D01*
X-46754Y38661D01*
X-46893Y38533D01*
X-46992Y38386D01*
X-47051Y38219D01*
X-47071Y38032D01*
Y41969D01*
X-47051Y41781D01*
D02*
G37*
G36*
X-7030Y36921D02*
X-7000Y36838D01*
X-6950Y36764D01*
X-6880Y36700D01*
X-6791Y36646D01*
X-6681Y36601D01*
X-6552Y36567D01*
X-6402Y36542D01*
X-6233Y36527D01*
X-6044Y36522D01*
Y35538D01*
X-6233Y35533D01*
X-6402Y35519D01*
X-6552Y35494D01*
X-6681Y35460D01*
X-6791Y35415D01*
X-6880Y35361D01*
X-6950Y35297D01*
X-7000Y35223D01*
X-7030Y35140D01*
X-7040Y35046D01*
Y37015D01*
X-7030Y36921D01*
D02*
G37*
G36*
X-8960Y35046D02*
X-8970Y35140D01*
X-9000Y35223D01*
X-9050Y35297D01*
X-9120Y35361D01*
X-9209Y35415D01*
X-9319Y35460D01*
X-9448Y35494D01*
X-9598Y35519D01*
X-9767Y35533D01*
X-9956Y35538D01*
Y36522D01*
X-9767Y36527D01*
X-9598Y36542D01*
X-9448Y36567D01*
X-9319Y36601D01*
X-9209Y36646D01*
X-9120Y36700D01*
X-9050Y36764D01*
X-9000Y36838D01*
X-8970Y36921D01*
X-8960Y37015D01*
Y35046D01*
D02*
G37*
G36*
X-11030Y36921D02*
X-11000Y36838D01*
X-10950Y36764D01*
X-10880Y36700D01*
X-10791Y36646D01*
X-10681Y36601D01*
X-10552Y36567D01*
X-10402Y36542D01*
X-10233Y36527D01*
X-10044Y36522D01*
Y35538D01*
X-10233Y35533D01*
X-10402Y35519D01*
X-10552Y35494D01*
X-10681Y35460D01*
X-10791Y35415D01*
X-10880Y35361D01*
X-10950Y35297D01*
X-11000Y35223D01*
X-11030Y35140D01*
X-11040Y35046D01*
Y37015D01*
X-11030Y36921D01*
D02*
G37*
G36*
X13148Y35767D02*
X13177Y35683D01*
X13226Y35609D01*
X13295Y35545D01*
X13384Y35491D01*
X13492Y35447D01*
X13620Y35412D01*
X13768Y35388D01*
X13935Y35373D01*
X14122Y35368D01*
Y34384D01*
X13935Y34380D01*
X13620Y34352D01*
X13492Y34327D01*
X13384Y34295D01*
X13295Y34256D01*
X13226Y34209D01*
X13177Y34156D01*
X13148Y34095D01*
X13138Y34028D01*
Y35860D01*
X13148Y35767D01*
D02*
G37*
G36*
X6862Y34028D02*
X6853Y34119D01*
X6823Y34201D01*
X6774Y34273D01*
X6705Y34335D01*
X6616Y34388D01*
X6508Y34431D01*
X6380Y34465D01*
X6233Y34489D01*
X6065Y34503D01*
X5878Y34508D01*
Y35492D01*
X6065Y35497D01*
X6233Y35511D01*
X6380Y35535D01*
X6508Y35569D01*
X6616Y35612D01*
X6705Y35665D01*
X6774Y35727D01*
X6823Y35799D01*
X6853Y35881D01*
X6862Y35972D01*
Y34028D01*
D02*
G37*
G36*
X1508Y34990D02*
X1760Y34775D01*
X1842Y34716D01*
X1978Y34629D01*
X2124Y34546D01*
X2276Y34474D01*
X2307Y34467D01*
X2376Y34465D01*
X2339Y34445D01*
X2444Y34395D01*
X2619Y34326D01*
X2997Y34201D01*
X845Y33132D01*
X899Y33292D01*
X936Y33446D01*
X957Y33595D01*
X960Y33702D01*
X927Y33684D01*
X961Y33740D01*
X948Y33873D01*
X919Y34004D01*
X874Y34128D01*
X811Y34247D01*
X732Y34360D01*
X636Y34467D01*
X1377Y35118D01*
X1508Y34990D01*
D02*
G37*
G36*
X8508Y34260D02*
X8515Y34108D01*
X8525Y34040D01*
X9000D01*
X8907Y34030D01*
X8823Y34000D01*
X8749Y33950D01*
X8685Y33880D01*
X8631Y33791D01*
X8603Y33722D01*
X8627Y33652D01*
X8694Y33502D01*
X8776Y33351D01*
X8872Y33201D01*
X8984Y33052D01*
X9110Y32903D01*
X9251Y32754D01*
X6771Y32776D01*
X6914Y32922D01*
X7042Y33068D01*
X7155Y33215D01*
X7253Y33363D01*
X7335Y33512D01*
X7403Y33661D01*
X7426Y33727D01*
X7401Y33791D01*
X7346Y33880D01*
X7282Y33950D01*
X7209Y34000D01*
X7125Y34030D01*
X7032Y34040D01*
X7505D01*
X7516Y34116D01*
X7524Y34269D01*
X8508Y34260D01*
D02*
G37*
G36*
X-8960Y31047D02*
X-8970Y31141D01*
X-9000Y31224D01*
X-9050Y31298D01*
X-9120Y31362D01*
X-9209Y31416D01*
X-9319Y31461D01*
X-9448Y31495D01*
X-9598Y31520D01*
X-9767Y31534D01*
X-9956Y31539D01*
Y32524D01*
X-9767Y32529D01*
X-9598Y32543D01*
X-9448Y32568D01*
X-9319Y32602D01*
X-9209Y32647D01*
X-9120Y32701D01*
X-9050Y32765D01*
X-9000Y32839D01*
X-8970Y32922D01*
X-8960Y33016D01*
Y31047D01*
D02*
G37*
G36*
X-11030Y32922D02*
X-11000Y32839D01*
X-10950Y32765D01*
X-10880Y32701D01*
X-10791Y32647D01*
X-10681Y32602D01*
X-10552Y32568D01*
X-10402Y32543D01*
X-10233Y32529D01*
X-10044Y32524D01*
Y31539D01*
X-10233Y31534D01*
X-10402Y31520D01*
X-10552Y31495D01*
X-10681Y31461D01*
X-10791Y31416D01*
X-10880Y31362D01*
X-10950Y31298D01*
X-11000Y31224D01*
X-11030Y31141D01*
X-11040Y31047D01*
Y33016D01*
X-11030Y32922D01*
D02*
G37*
G36*
X-7030Y32922D02*
X-7000Y32839D01*
X-6950Y32765D01*
X-6880Y32701D01*
X-6791Y32647D01*
X-6681Y32602D01*
X-6552Y32568D01*
X-6402Y32543D01*
X-6233Y32528D01*
X-6044Y32524D01*
Y31539D01*
X-6233Y31534D01*
X-6402Y31520D01*
X-6552Y31495D01*
X-6681Y31461D01*
X-6791Y31416D01*
X-6880Y31362D01*
X-6950Y31298D01*
X-7000Y31224D01*
X-7030Y31141D01*
X-7040Y31047D01*
Y33016D01*
X-7030Y32922D01*
D02*
G37*
G36*
X-12960Y31047D02*
X-12970Y31141D01*
X-13000Y31224D01*
X-13050Y31298D01*
X-13120Y31362D01*
X-13209Y31416D01*
X-13319Y31461D01*
X-13448Y31495D01*
X-13598Y31520D01*
X-13767Y31534D01*
X-13957Y31539D01*
Y32524D01*
X-13767Y32528D01*
X-13598Y32543D01*
X-13448Y32568D01*
X-13319Y32602D01*
X-13209Y32647D01*
X-13120Y32701D01*
X-13050Y32765D01*
X-13000Y32839D01*
X-12970Y32922D01*
X-12960Y33016D01*
Y31047D01*
D02*
G37*
G36*
X-40901Y30782D02*
X-40845Y30721D01*
X-40778Y30667D01*
X-40700Y30621D01*
X-40611Y30582D01*
X-40511Y30549D01*
X-40400Y30524D01*
X-40278Y30506D01*
X-40145Y30496D01*
X-40000Y30492D01*
Y29508D01*
X-40145Y29504D01*
X-40278Y29494D01*
X-40400Y29476D01*
X-40511Y29451D01*
X-40611Y29419D01*
X-40700Y29379D01*
X-40778Y29333D01*
X-40845Y29279D01*
X-40901Y29218D01*
X-40945Y29150D01*
Y29464D01*
X-41246Y29445D01*
X-41419Y29417D01*
X-41567Y29384D01*
X-41689Y29346D01*
X-41785Y29303D01*
X-41856Y29256D01*
Y30744D01*
X-41785Y30697D01*
X-41689Y30654D01*
X-41567Y30616D01*
X-41419Y30583D01*
X-41246Y30555D01*
X-40945Y30526D01*
Y30850D01*
X-40901Y30782D01*
D02*
G37*
G36*
X9412Y32598D02*
X9560Y32471D01*
X9708Y32359D01*
X9857Y32261D01*
X10007Y32179D01*
X10157Y32112D01*
X10308Y32059D01*
X10460Y32022D01*
X10612Y32000D01*
X10765Y31992D01*
Y31008D01*
X10612Y31000D01*
X10460Y30978D01*
X10308Y30941D01*
X10157Y30888D01*
X10007Y30821D01*
X9857Y30739D01*
X9708Y30641D01*
X9560Y30529D01*
X9412Y30402D01*
X9265Y30260D01*
Y32740D01*
X9412Y32598D01*
D02*
G37*
G36*
X-722Y39212D02*
Y34815D01*
X-660Y34506D01*
X-985Y33944D01*
X-1240Y32992D01*
Y32008D01*
X-985Y31056D01*
X-493Y30204D01*
X203Y29507D01*
X1056Y29015D01*
X1078Y29009D01*
Y28491D01*
X1056Y28485D01*
X203Y27993D01*
X-493Y27297D01*
X-985Y26444D01*
X-991Y26422D01*
X-1509D01*
X-1515Y26444D01*
X-2007Y27297D01*
X-2703Y27993D01*
X-3556Y28485D01*
X-4508Y28740D01*
X-5492D01*
X-6444Y28485D01*
X-7297Y27993D01*
X-7993Y27297D01*
X-8485Y26444D01*
X-8491Y26422D01*
X-9009D01*
X-9015Y26444D01*
X-9507Y27297D01*
X-10204Y27993D01*
X-11056Y28485D01*
X-12008Y28740D01*
X-12992D01*
X-13944Y28485D01*
X-14796Y27993D01*
X-15493Y27297D01*
X-15985Y26444D01*
X-16240Y25492D01*
Y24508D01*
X-15985Y23556D01*
X-15493Y22704D01*
X-14796Y22007D01*
X-13944Y21515D01*
X-12992Y21260D01*
X-12008D01*
X-11349Y21436D01*
X-8706Y18794D01*
X-8153Y18424D01*
X-7500Y18294D01*
X-6283D01*
X-4834Y16845D01*
Y13850D01*
X-6081D01*
Y13675D01*
X-6907D01*
X-9439Y16206D01*
X-9992Y16576D01*
X-10645Y16706D01*
X-11666D01*
X-12007Y17297D01*
X-12704Y17993D01*
X-13556Y18485D01*
X-14508Y18740D01*
X-15492D01*
X-16444Y18485D01*
X-17297Y17993D01*
X-17993Y17297D01*
X-18485Y16444D01*
X-18740Y15492D01*
Y14508D01*
X-18485Y13556D01*
X-17993Y12704D01*
X-17852Y12562D01*
X-18055Y12359D01*
X-18548Y11506D01*
X-18803Y10555D01*
Y9570D01*
X-18548Y8619D01*
X-18055Y7766D01*
X-17808Y7519D01*
X-17814Y7513D01*
X-18306Y6660D01*
X-18561Y5709D01*
Y4724D01*
X-18306Y3773D01*
X-17814Y2920D01*
X-17592Y2698D01*
X-17993Y2296D01*
X-18485Y1444D01*
X-18740Y492D01*
Y-492D01*
X-18485Y-1444D01*
X-17993Y-2296D01*
X-17297Y-2993D01*
X-16444Y-3485D01*
X-15492Y-3740D01*
X-14508D01*
X-13556Y-3485D01*
X-12704Y-2993D01*
X-12007Y-2296D01*
X-11666Y-1706D01*
X-5000D01*
X-4347Y-1576D01*
X-3794Y-1206D01*
X-3176Y-588D01*
X-2641Y-761D01*
X-2560Y-1169D01*
X-2191Y-1722D01*
X-2165Y-1747D01*
Y-5394D01*
X-1984D01*
Y-9150D01*
X-1664D01*
X-1615Y-9650D01*
X-1759Y-9678D01*
X-2382Y-10095D01*
X-2455Y-9986D01*
X-3171Y-9507D01*
X-4016Y-9340D01*
X-5984D01*
X-6829Y-9507D01*
X-7545Y-9986D01*
X-7618Y-10095D01*
X-8241Y-9678D01*
X-8953Y-9537D01*
X-8953Y-9543D01*
X-8904Y-9808D01*
X-8840Y-10047D01*
X-8763Y-10260D01*
X-8672Y-10446D01*
X-8567Y-10606D01*
X-8448Y-10739D01*
X-8315Y-10846D01*
X-11685D01*
X-11552Y-10739D01*
X-11433Y-10606D01*
X-11328Y-10446D01*
X-11237Y-10260D01*
X-11159Y-10047D01*
X-11096Y-9808D01*
X-11047Y-9543D01*
X-11047Y-9537D01*
X-11759Y-9678D01*
X-12415Y-10117D01*
X-12853Y-10773D01*
X-13007Y-11547D01*
Y-13439D01*
X-12934Y-13427D01*
X-12676Y-13358D01*
X-12459Y-13270D01*
X-12280Y-13161D01*
X-12142Y-13034D01*
X-12043Y-12886D01*
X-11983Y-12719D01*
X-11964Y-12531D01*
Y-16468D01*
X-11983Y-16282D01*
X-12043Y-16114D01*
X-12142Y-15967D01*
X-12280Y-15839D01*
X-12459Y-15730D01*
X-12676Y-15642D01*
X-12934Y-15573D01*
X-13007Y-15561D01*
Y-17453D01*
X-13000Y-17492D01*
X-13317Y-17879D01*
X-47500D01*
Y-13953D01*
X-46047D01*
Y-10500D01*
X-50000D01*
Y-9500D01*
X-46047D01*
Y-6047D01*
X-47500D01*
Y-4134D01*
X-45866D01*
Y-2602D01*
X-45366Y-2423D01*
X-44796Y-2993D01*
X-43944Y-3485D01*
X-42992Y-3740D01*
X-42008D01*
X-41056Y-3485D01*
X-40203Y-2993D01*
X-39706Y-2495D01*
X-39206Y-2702D01*
Y-5768D01*
X-40630D01*
Y-14429D01*
X-34331D01*
Y-5768D01*
X-35794D01*
Y-2253D01*
X-35773Y-1637D01*
X-35739Y-1290D01*
X-35734Y-1254D01*
X-35460Y-845D01*
X-35292Y0D01*
X-35460Y845D01*
X-35718Y1230D01*
X-35794Y2379D01*
Y10768D01*
X-34331D01*
Y19429D01*
X-35005D01*
X-35196Y19891D01*
X-16793Y38294D01*
X-14165D01*
Y33606D01*
X-13984D01*
Y29850D01*
X-10016D01*
Y29850D01*
X-9984Y29850D01*
Y29850D01*
X-6016D01*
Y33606D01*
X-5835D01*
Y34324D01*
X-5589D01*
X-4936Y34454D01*
X-4383Y34824D01*
X-1746Y37460D01*
X-1377Y38014D01*
X-1247Y38666D01*
Y39212D01*
X-984Y39364D01*
X-722Y39212D01*
D02*
G37*
G36*
X-43765Y28760D02*
X-43823Y28809D01*
X-43896Y28852D01*
X-43985Y28890D01*
X-44089Y28924D01*
X-44208Y28952D01*
X-44343Y28975D01*
X-44659Y29006D01*
X-44840Y29013D01*
X-45036Y29016D01*
Y30984D01*
X-44840Y30987D01*
X-44343Y31025D01*
X-44208Y31048D01*
X-44089Y31076D01*
X-43985Y31110D01*
X-43896Y31148D01*
X-43823Y31192D01*
X-43765Y31240D01*
Y28760D01*
D02*
G37*
G36*
X9110Y30097D02*
X8984Y29948D01*
X8872Y29799D01*
X8776Y29649D01*
X8694Y29498D01*
X8627Y29348D01*
X8575Y29196D01*
X8538Y29044D01*
X8537Y29041D01*
X8552Y28948D01*
X8587Y28819D01*
X8631Y28709D01*
X8685Y28620D01*
X8749Y28550D01*
X8823Y28500D01*
X8907Y28470D01*
X9000Y28460D01*
X7032D01*
X7125Y28470D01*
X7209Y28500D01*
X7282Y28550D01*
X7346Y28620D01*
X7401Y28709D01*
X7445Y28819D01*
X7479Y28948D01*
X7494Y29035D01*
X7493Y29036D01*
X7456Y29188D01*
X7403Y29338D01*
X7335Y29488D01*
X7253Y29637D01*
X7155Y29785D01*
X7042Y29932D01*
X6914Y30078D01*
X6771Y30224D01*
X9251Y30246D01*
X9110Y30097D01*
D02*
G37*
G36*
X38363Y38273D02*
X38710Y38239D01*
X38746Y38234D01*
X39155Y37960D01*
X39385Y37914D01*
X39507Y37703D01*
X40203Y37007D01*
X41056Y36515D01*
X42008Y36260D01*
X42992D01*
X43944Y36515D01*
X44796Y37007D01*
X45366Y37577D01*
X45866Y37398D01*
Y35866D01*
X47500D01*
Y33953D01*
X46047D01*
Y31064D01*
X46101Y31073D01*
X46358Y31142D01*
X46576Y31230D01*
X46754Y31339D01*
X46893Y31466D01*
X46992Y31614D01*
X47051Y31782D01*
X47071Y31969D01*
Y30500D01*
X50000D01*
Y29500D01*
X47071D01*
Y28032D01*
X47051Y28218D01*
X46992Y28386D01*
X46893Y28534D01*
X46754Y28661D01*
X46576Y28770D01*
X46358Y28858D01*
X46101Y28927D01*
X46047Y28936D01*
Y26047D01*
X47500D01*
Y24134D01*
X45866D01*
Y22602D01*
X45366Y22423D01*
X44796Y22993D01*
X43944Y23485D01*
X42992Y23740D01*
X42008D01*
X41056Y23485D01*
X40203Y22993D01*
X39686Y22476D01*
X39186Y22683D01*
Y32020D01*
X39057Y32673D01*
X38687Y33226D01*
X34119Y37794D01*
X34326Y38294D01*
X37747D01*
X38363Y38273D01*
D02*
G37*
G36*
X-47051Y31782D02*
X-46992Y31614D01*
X-46893Y31466D01*
X-46754Y31339D01*
X-46576Y31230D01*
X-46358Y31142D01*
X-46101Y31073D01*
X-45804Y31024D01*
X-45467Y30994D01*
X-45091Y30984D01*
Y29016D01*
X-45467Y29006D01*
X-45804Y28976D01*
X-46101Y28927D01*
X-46358Y28858D01*
X-46576Y28770D01*
X-46754Y28661D01*
X-46893Y28534D01*
X-46992Y28386D01*
X-47051Y28218D01*
X-47071Y28032D01*
Y31969D01*
X-47051Y31782D01*
D02*
G37*
G36*
X13148Y28381D02*
X13177Y28299D01*
X13226Y28227D01*
X13295Y28165D01*
X13384Y28112D01*
X13492Y28069D01*
X13620Y28035D01*
X13768Y28011D01*
X13935Y27997D01*
X14122Y27992D01*
Y27008D01*
X13935Y27003D01*
X13768Y26989D01*
X13620Y26965D01*
X13492Y26931D01*
X13384Y26888D01*
X13295Y26835D01*
X13226Y26773D01*
X13177Y26701D01*
X13148Y26619D01*
X13138Y26528D01*
Y28472D01*
X13148Y28381D01*
D02*
G37*
G36*
X15492Y22500D02*
X14508Y21024D01*
X14498Y21211D01*
X14469Y21378D01*
X14419Y21526D01*
X14350Y21654D01*
X14262Y21762D01*
X14153Y21850D01*
X14026Y21919D01*
X13878Y21969D01*
X13766Y21988D01*
X13620Y21965D01*
X13492Y21931D01*
X13384Y21888D01*
X13295Y21835D01*
X13226Y21773D01*
X13177Y21701D01*
X13147Y21619D01*
X13138Y21528D01*
Y23472D01*
X13147Y23381D01*
X13177Y23299D01*
X13226Y23227D01*
X13295Y23165D01*
X13384Y23112D01*
X13492Y23069D01*
X13620Y23035D01*
X13766Y23012D01*
X13878Y23031D01*
X14026Y23081D01*
X14153Y23150D01*
X14262Y23238D01*
X14350Y23346D01*
X14419Y23474D01*
X14469Y23622D01*
X14498Y23789D01*
X14508Y23976D01*
X15492Y22500D01*
D02*
G37*
G36*
X-3225Y24778D02*
X-3210Y24584D01*
X-3186Y24404D01*
X-3099Y24490D01*
X-3120Y24380D01*
X-3126Y24267D01*
X-3116Y24153D01*
X-3091Y24037D01*
X-3080Y24008D01*
X-3042Y23907D01*
X-2979Y23777D01*
X-2920Y23679D01*
X-2832Y23556D01*
X-2728Y23431D01*
X-2608Y23304D01*
X-3304Y22608D01*
X-3431Y22728D01*
X-3556Y22832D01*
X-3679Y22920D01*
X-3777Y22979D01*
X-3907Y23042D01*
X-4008Y23080D01*
X-4037Y23091D01*
X-4153Y23116D01*
X-4267Y23126D01*
X-4380Y23120D01*
X-4490Y23099D01*
X-4403Y23186D01*
X-4583Y23211D01*
X-4778Y23225D01*
X-4982Y23228D01*
X-3228Y24982D01*
X-3225Y24778D01*
D02*
G37*
G36*
X-10725D02*
X-10711Y24584D01*
X-10686Y24404D01*
X-10599Y24490D01*
X-10620Y24380D01*
X-10626Y24267D01*
X-10616Y24153D01*
X-10591Y24037D01*
X-10581Y24008D01*
X-10542Y23907D01*
X-10479Y23777D01*
X-10420Y23679D01*
X-10332Y23556D01*
X-10228Y23431D01*
X-10108Y23304D01*
X-10804Y22608D01*
X-10931Y22728D01*
X-11056Y22832D01*
X-11179Y22920D01*
X-11277Y22979D01*
X-11407Y23042D01*
X-11508Y23080D01*
X-11537Y23091D01*
X-11653Y23116D01*
X-11767Y23126D01*
X-11880Y23120D01*
X-11991Y23099D01*
X-11903Y23186D01*
X-12083Y23211D01*
X-12278Y23225D01*
X-12482Y23228D01*
X-10728Y24982D01*
X-10725Y24778D01*
D02*
G37*
G36*
X2467Y23229D02*
X2358Y23224D01*
X2246Y23207D01*
X2133Y23176D01*
X2018Y23133D01*
X1901Y23076D01*
X1782Y23007D01*
X1661Y22924D01*
X1538Y22829D01*
X1413Y22721D01*
X1286Y22599D01*
X590Y23295D01*
X683Y23395D01*
X762Y23496D01*
X827Y23596D01*
X877Y23695D01*
X913Y23795D01*
X935Y23894D01*
X942Y23993D01*
X935Y24092D01*
X913Y24191D01*
X877Y24289D01*
X2467Y23229D01*
D02*
G37*
G36*
X6862Y21528D02*
X6853Y21619D01*
X6823Y21701D01*
X6774Y21773D01*
X6705Y21835D01*
X6616Y21888D01*
X6508Y21931D01*
X6380Y21965D01*
X6233Y21989D01*
X6065Y22003D01*
X5878Y22008D01*
Y22992D01*
X6065Y22997D01*
X6233Y23011D01*
X6380Y23035D01*
X6508Y23069D01*
X6616Y23112D01*
X6705Y23165D01*
X6774Y23227D01*
X6823Y23299D01*
X6853Y23381D01*
X6862Y23472D01*
Y21528D01*
D02*
G37*
G36*
X-43657Y21647D02*
X-43915Y21386D01*
X-44893Y20269D01*
X-44961Y20158D01*
X-45002Y20068D01*
X-45016Y19999D01*
X-46000Y20984D01*
Y19016D01*
X-46204Y19015D01*
X-47028Y18968D01*
X-47060Y18955D01*
X-47071Y18941D01*
Y21059D01*
X-47060Y21045D01*
X-47028Y21032D01*
X-46975Y21021D01*
X-46900Y21011D01*
X-46686Y20996D01*
X-46001Y20984D01*
X-45932Y20998D01*
X-45842Y21039D01*
X-45731Y21107D01*
X-45598Y21202D01*
X-45269Y21473D01*
X-44614Y22085D01*
X-44353Y22343D01*
X-43657Y21647D01*
D02*
G37*
G36*
X25794Y31793D02*
Y19621D01*
X25488Y19248D01*
X25294Y19248D01*
X22993D01*
X22992Y19235D01*
X22008D01*
X22007Y19248D01*
X19706D01*
X19551Y19248D01*
X19206Y19605D01*
Y27900D01*
X19076Y28553D01*
X18706Y29106D01*
X15106Y32706D01*
X14553Y33076D01*
X14150Y33156D01*
Y36984D01*
X10604D01*
X10397Y37484D01*
X12207Y39294D01*
X18293D01*
X25794Y31793D01*
D02*
G37*
G36*
X43823Y21192D02*
X43896Y21148D01*
X43985Y21110D01*
X44089Y21076D01*
X44208Y21048D01*
X44343Y21025D01*
X44659Y20994D01*
X44840Y20987D01*
X45036Y20984D01*
Y19016D01*
X44840Y19013D01*
X44343Y18975D01*
X44208Y18952D01*
X44089Y18924D01*
X43985Y18890D01*
X43896Y18852D01*
X43823Y18809D01*
X43765Y18760D01*
Y21240D01*
X43823Y21192D01*
D02*
G37*
G36*
X37977Y19031D02*
X37992Y18862D01*
X38017Y18712D01*
X38051Y18583D01*
X38096Y18473D01*
X38150Y18383D01*
X38214Y18314D01*
X38287Y18264D01*
X38371Y18234D01*
X38465Y18224D01*
X36496D01*
X36590Y18234D01*
X36673Y18264D01*
X36747Y18314D01*
X36811Y18383D01*
X36865Y18473D01*
X36909Y18583D01*
X36944Y18712D01*
X36968Y18862D01*
X36983Y19031D01*
X36988Y19220D01*
X37972D01*
X37977Y19031D01*
D02*
G37*
G36*
X22997D02*
X23012Y18862D01*
X23036Y18712D01*
X23071Y18583D01*
X23115Y18473D01*
X23169Y18383D01*
X23233Y18314D01*
X23307Y18264D01*
X23391Y18234D01*
X23484Y18224D01*
X21516D01*
X21609Y18234D01*
X21693Y18264D01*
X21767Y18314D01*
X21831Y18383D01*
X21885Y18473D01*
X21929Y18583D01*
X21964Y18712D01*
X21988Y18862D01*
X22003Y19031D01*
X22008Y19220D01*
X22992D01*
X22997Y19031D01*
D02*
G37*
G36*
X-36983Y19031D02*
X-36968Y18862D01*
X-36944Y18712D01*
X-36909Y18583D01*
X-36865Y18473D01*
X-36811Y18383D01*
X-36747Y18314D01*
X-36673Y18264D01*
X-36590Y18234D01*
X-36496Y18224D01*
X-38465D01*
X-38371Y18234D01*
X-38287Y18264D01*
X-38214Y18314D01*
X-38150Y18383D01*
X-38096Y18473D01*
X-38051Y18583D01*
X-38017Y18712D01*
X-37992Y18862D01*
X-37977Y19031D01*
X-37972Y19220D01*
X-36988D01*
X-36983Y19031D01*
D02*
G37*
G36*
X47071Y18032D02*
X47051Y18218D01*
X46992Y18386D01*
X46893Y18533D01*
X46754Y18661D01*
X46576Y18770D01*
X46358Y18858D01*
X46101Y18927D01*
X45804Y18976D01*
X45467Y19006D01*
X45091Y19016D01*
Y20984D01*
X45467Y20994D01*
X45804Y21024D01*
X46101Y21073D01*
X46358Y21142D01*
X46576Y21230D01*
X46754Y21339D01*
X46893Y21466D01*
X46992Y21614D01*
X47051Y21781D01*
X47071Y21969D01*
Y18032D01*
D02*
G37*
G36*
X6874Y16555D02*
X6864Y16649D01*
X6834Y16732D01*
X6783Y16806D01*
X6713Y16870D01*
X6624Y16924D01*
X6514Y16969D01*
X6385Y17003D01*
X6236Y17028D01*
X6067Y17042D01*
X5878Y17047D01*
Y18032D01*
X6065Y18036D01*
X6233Y18049D01*
X6380Y18071D01*
X6508Y18102D01*
X6616Y18142D01*
X6705Y18190D01*
X6774Y18248D01*
X6823Y18314D01*
X6853Y18388D01*
X6862Y18472D01*
X6874Y16555D01*
D02*
G37*
G36*
X-42006Y17454D02*
X-41908Y15973D01*
X-41877Y15846D01*
X-41842Y15754D01*
X-41804Y15696D01*
X-43196D01*
X-43158Y15754D01*
X-43123Y15846D01*
X-43092Y15973D01*
X-43066Y16134D01*
X-43025Y16559D01*
X-42994Y17454D01*
X-42992Y17821D01*
X-42008D01*
X-42006Y17454D01*
D02*
G37*
G36*
X12859Y16530D02*
X12776Y16500D01*
X12702Y16450D01*
X12638Y16380D01*
X12584Y16291D01*
X12539Y16181D01*
X12505Y16052D01*
X12480Y15902D01*
X12466Y15733D01*
X12461Y15543D01*
X11476D01*
X11472Y15733D01*
X11457Y15902D01*
X11432Y16052D01*
X11398Y16181D01*
X11353Y16291D01*
X11299Y16380D01*
X11235Y16450D01*
X11161Y16500D01*
X11078Y16530D01*
X10984Y16540D01*
X12953D01*
X12859Y16530D01*
D02*
G37*
G36*
X-13588Y16098D02*
X-13440Y15971D01*
X-13292Y15859D01*
X-13143Y15761D01*
X-12993Y15679D01*
X-12843Y15612D01*
X-12692Y15560D01*
X-12540Y15522D01*
X-12388Y15500D01*
X-12235Y15492D01*
Y14508D01*
X-12388Y14500D01*
X-12540Y14478D01*
X-12692Y14441D01*
X-12843Y14388D01*
X-12993Y14321D01*
X-13143Y14239D01*
X-13292Y14141D01*
X-13440Y14029D01*
X-13588Y13902D01*
X-13735Y13760D01*
Y16240D01*
X-13588Y16098D01*
D02*
G37*
G36*
X4898Y12619D02*
X4927Y12586D01*
X4977Y12557D01*
X5046Y12531D01*
X5134Y12510D01*
X5242Y12492D01*
X5370Y12478D01*
X5685Y12463D01*
X5872Y12461D01*
Y11476D01*
X5685Y11474D01*
X5242Y11445D01*
X5134Y11427D01*
X5046Y11406D01*
X4977Y11380D01*
X4927Y11351D01*
X4898Y11318D01*
X4888Y11281D01*
Y12656D01*
X4898Y12619D01*
D02*
G37*
G36*
X-41513Y12340D02*
X-41475Y11843D01*
X-41452Y11708D01*
X-41424Y11589D01*
X-41390Y11485D01*
X-41352Y11396D01*
X-41309Y11323D01*
X-41260Y11265D01*
X-43740D01*
X-43692Y11323D01*
X-43648Y11396D01*
X-43610Y11485D01*
X-43576Y11589D01*
X-43548Y11708D01*
X-43525Y11843D01*
X-43494Y12159D01*
X-43487Y12340D01*
X-43484Y12536D01*
X-41516D01*
X-41513Y12340D01*
D02*
G37*
G36*
X23391Y11963D02*
X23307Y11933D01*
X23233Y11883D01*
X23169Y11813D01*
X23115Y11724D01*
X23071Y11614D01*
X23036Y11485D01*
X23012Y11335D01*
X22997Y11166D01*
X22992Y10977D01*
X22008D01*
X22003Y11166D01*
X21988Y11335D01*
X21964Y11485D01*
X21929Y11614D01*
X21885Y11724D01*
X21831Y11813D01*
X21767Y11883D01*
X21693Y11933D01*
X21609Y11963D01*
X21516Y11973D01*
X23484D01*
X23391Y11963D01*
D02*
G37*
G36*
X-36609Y11963D02*
X-36693Y11933D01*
X-36767Y11883D01*
X-36831Y11813D01*
X-36885Y11724D01*
X-36929Y11614D01*
X-36964Y11485D01*
X-36988Y11335D01*
X-37003Y11166D01*
X-37008Y10977D01*
X-37992D01*
X-37997Y11166D01*
X-38012Y11335D01*
X-38036Y11485D01*
X-38071Y11614D01*
X-38115Y11724D01*
X-38169Y11813D01*
X-38233Y11883D01*
X-38307Y11933D01*
X-38391Y11963D01*
X-38484Y11973D01*
X-36516D01*
X-36609Y11963D01*
D02*
G37*
G36*
X47071Y10984D02*
Y9016D01*
Y8032D01*
X47051Y8219D01*
X46992Y8386D01*
X46893Y8534D01*
X46754Y8661D01*
X46576Y8770D01*
X46358Y8858D01*
X46101Y8927D01*
X45804Y8976D01*
X45467Y9006D01*
X45091Y9016D01*
Y9497D01*
X45036Y9489D01*
Y9016D01*
X44840Y9013D01*
X44343Y8975D01*
X44208Y8952D01*
X44089Y8924D01*
X43985Y8890D01*
X43896Y8852D01*
X43823Y8809D01*
X43765Y8760D01*
Y11240D01*
X43823Y11191D01*
X43896Y11148D01*
X43985Y11110D01*
X44089Y11076D01*
X44208Y11048D01*
X44343Y11025D01*
X44659Y10994D01*
X44840Y10987D01*
X45036Y10984D01*
Y10511D01*
X45091Y10503D01*
Y10984D01*
X45467Y10994D01*
X45804Y11024D01*
X46101Y11073D01*
X46358Y11142D01*
X46576Y11230D01*
X46754Y11339D01*
X46893Y11467D01*
X46992Y11614D01*
X47051Y11782D01*
X47071Y11969D01*
Y10984D01*
D02*
G37*
G36*
X13294Y9757D02*
X7500D01*
Y11476D01*
X7491Y11476D01*
X7166Y12461D01*
X7327Y12469D01*
X7480Y12494D01*
X7500Y12500D01*
Y15000D01*
X7861Y15335D01*
X10394D01*
Y15516D01*
X13294D01*
Y9757D01*
D02*
G37*
G36*
X39387Y13549D02*
X39380Y13439D01*
X39406Y13310D01*
X39464Y13164D01*
X39553Y12999D01*
X39675Y12816D01*
X39829Y12614D01*
X40231Y12157D01*
X40447Y11935D01*
X40558Y11835D01*
X40684Y11745D01*
X40817Y11672D01*
X40955Y11618D01*
X41099Y11581D01*
X41249Y11563D01*
X41404Y11563D01*
X41566Y11580D01*
X41734Y11616D01*
X41907Y11670D01*
X40819Y9441D01*
X40745Y9653D01*
X40512Y10214D01*
X40431Y10376D01*
X40262Y10662D01*
X40174Y10786D01*
X40085Y10897D01*
X39994Y10996D01*
X40376Y11813D01*
X39724Y11265D01*
X39509Y11474D01*
X39128Y11800D01*
X38963Y11916D01*
X38816Y12003D01*
X38685Y12058D01*
X38572Y12083D01*
X38475Y12077D01*
X38395Y12040D01*
X38333Y11973D01*
X39425Y13640D01*
X39387Y13549D01*
D02*
G37*
G36*
X49305Y9304D02*
X49246Y9342D01*
X49154Y9377D01*
X49027Y9408D01*
X48866Y9434D01*
X48441Y9475D01*
X47546Y9506D01*
X47179Y9508D01*
Y10492D01*
X47546Y10494D01*
X49027Y10592D01*
X49154Y10623D01*
X49246Y10658D01*
X49305Y10696D01*
Y9304D01*
D02*
G37*
G36*
X-13614Y11112D02*
X-13472Y10982D01*
X-13328Y10867D01*
X-13183Y10768D01*
X-13036Y10683D01*
X-12888Y10615D01*
X-12739Y10561D01*
X-12588Y10523D01*
X-12435Y10500D01*
X-12281Y10492D01*
X-12317Y9508D01*
X-12468Y9501D01*
X-12620Y9479D01*
X-12772Y9442D01*
X-12924Y9391D01*
X-13077Y9325D01*
X-13229Y9245D01*
X-13382Y9150D01*
X-13535Y9041D01*
X-13688Y8917D01*
X-13842Y8778D01*
X-13754Y11257D01*
X-13614Y11112D01*
D02*
G37*
G36*
X-43765Y8760D02*
X-43823Y8809D01*
X-43896Y8852D01*
X-43985Y8890D01*
X-44089Y8924D01*
X-44208Y8952D01*
X-44343Y8975D01*
X-44659Y9005D01*
X-44840Y9013D01*
X-45036Y9016D01*
Y10984D01*
X-44840Y10987D01*
X-44343Y11025D01*
X-44208Y11048D01*
X-44089Y11076D01*
X-43985Y11110D01*
X-43896Y11148D01*
X-43823Y11191D01*
X-43765Y11240D01*
Y8760D01*
D02*
G37*
G36*
X-47051Y11782D02*
X-46992Y11614D01*
X-46893Y11467D01*
X-46754Y11339D01*
X-46576Y11230D01*
X-46358Y11142D01*
X-46101Y11073D01*
X-45804Y11024D01*
X-45467Y10994D01*
X-45091Y10984D01*
Y9016D01*
X-45467Y9006D01*
X-45804Y8976D01*
X-46101Y8927D01*
X-46358Y8858D01*
X-46576Y8770D01*
X-46754Y8661D01*
X-46893Y8534D01*
X-46992Y8386D01*
X-47051Y8219D01*
X-47071Y8032D01*
Y11969D01*
X-47051Y11782D01*
D02*
G37*
G36*
X15492Y8051D02*
X14508Y6575D01*
X14498Y6762D01*
X14469Y6929D01*
X14419Y7077D01*
X14350Y7205D01*
X14262Y7313D01*
X14153Y7402D01*
X14026Y7470D01*
X13878Y7520D01*
X13711Y7549D01*
X13524Y7559D01*
Y8543D01*
X13711Y8553D01*
X13878Y8583D01*
X14026Y8632D01*
X14153Y8701D01*
X14262Y8789D01*
X14350Y8898D01*
X14419Y9026D01*
X14469Y9173D01*
X14498Y9341D01*
X14508Y9528D01*
X15492Y8051D01*
D02*
G37*
G36*
X-13753Y6651D02*
X-13207Y6400D01*
X-13038Y6338D01*
X-12717Y6248D01*
X-12566Y6220D01*
X-12422Y6204D01*
X-12283Y6198D01*
X-11986Y5214D01*
X-12147Y5205D01*
X-12301Y5180D01*
X-12447Y5138D01*
X-12585Y5079D01*
X-12717Y5004D01*
X-12841Y4911D01*
X-12957Y4802D01*
X-13066Y4676D01*
X-13168Y4534D01*
X-13262Y4374D01*
X-13948Y6758D01*
X-13753Y6651D01*
D02*
G37*
G36*
X38614Y4585D02*
X39731Y3607D01*
X39842Y3539D01*
X39932Y3498D01*
X40001Y3484D01*
X39016Y2499D01*
X39002Y2568D01*
X38961Y2658D01*
X38893Y2769D01*
X38798Y2902D01*
X38527Y3231D01*
X37915Y3886D01*
X37657Y4147D01*
X38353Y4843D01*
X38614Y4585D01*
D02*
G37*
G36*
X9418Y827D02*
X9244Y879D01*
X9076Y914D01*
X8913Y931D01*
X8909Y931D01*
X8966Y825D01*
X8872Y872D01*
X8775Y901D01*
X8673Y912D01*
X8581Y905D01*
X8462Y874D01*
X8331Y822D01*
X8232Y768D01*
X8112Y685D01*
X7988Y584D01*
X7862Y465D01*
X7382Y1377D01*
X7503Y1503D01*
X7707Y1750D01*
X7791Y1870D01*
X7862Y1989D01*
X7921Y2107D01*
X7967Y2222D01*
X8001Y2336D01*
X8023Y2448D01*
X8032Y2558D01*
X8092Y2448D01*
X8092Y2449D01*
X8315Y3048D01*
X9418Y827D01*
D02*
G37*
G36*
X-37006Y2454D02*
X-36908Y973D01*
X-36877Y846D01*
X-36842Y754D01*
X-36804Y696D01*
X-38196D01*
X-38158Y754D01*
X-38123Y846D01*
X-38092Y973D01*
X-38066Y1134D01*
X-38025Y1559D01*
X-37994Y2454D01*
X-37992Y2821D01*
X-37008D01*
X-37006Y2454D01*
D02*
G37*
G36*
X41543Y2352D02*
X41922Y2028D01*
X42033Y1949D01*
X42138Y1885D01*
X42235Y1835D01*
X42324Y1799D01*
X42407Y1778D01*
X42482Y1772D01*
X40728Y18D01*
X40722Y93D01*
X40701Y176D01*
X40665Y265D01*
X40615Y362D01*
X40551Y467D01*
X40472Y578D01*
X40270Y823D01*
X40148Y957D01*
X40011Y1097D01*
X41403Y2489D01*
X41543Y2352D01*
D02*
G37*
G36*
X1188Y-1008D02*
X1056Y-1149D01*
X938Y-1292D01*
X833Y-1438D01*
X743Y-1587D01*
X666Y-1739D01*
X604Y-1893D01*
X555Y-2051D01*
X520Y-2211D01*
X499Y-2374D01*
X492Y-2539D01*
X-492D01*
X-499Y-2374D01*
X-520Y-2211D01*
X-555Y-2051D01*
X-604Y-1893D01*
X-666Y-1739D01*
X-743Y-1587D01*
X-833Y-1438D01*
X-938Y-1292D01*
X-1056Y-1149D01*
X-1188Y-1008D01*
X-636Y-168D01*
X-509Y-282D01*
X-382Y-371D01*
X-255Y-435D01*
X-127Y-473D01*
X0Y-486D01*
X127Y-473D01*
X255Y-435D01*
X382Y-371D01*
X509Y-282D01*
X636Y-168D01*
X1188Y-1008D01*
D02*
G37*
G36*
X-13588Y1098D02*
X-13440Y971D01*
X-13292Y859D01*
X-13143Y761D01*
X-12993Y679D01*
X-12843Y612D01*
X-12692Y559D01*
X-12540Y522D01*
X-12388Y500D01*
X-12235Y492D01*
Y-492D01*
X-12388Y-500D01*
X-12540Y-522D01*
X-12692Y-559D01*
X-12843Y-612D01*
X-12993Y-679D01*
X-13143Y-761D01*
X-13292Y-859D01*
X-13440Y-971D01*
X-13588Y-1098D01*
X-13735Y-1240D01*
Y1240D01*
X-13588Y1098D01*
D02*
G37*
G36*
X-41177Y1192D02*
X-41104Y1148D01*
X-41015Y1110D01*
X-40911Y1076D01*
X-40792Y1048D01*
X-40657Y1025D01*
X-40341Y994D01*
X-40160Y987D01*
X-39964Y984D01*
Y-984D01*
X-40160Y-987D01*
X-40657Y-1025D01*
X-40792Y-1048D01*
X-40911Y-1076D01*
X-41015Y-1110D01*
X-41104Y-1148D01*
X-41177Y-1192D01*
X-41235Y-1240D01*
Y1240D01*
X-41177Y1192D01*
D02*
G37*
G36*
X-36842Y-754D02*
X-36877Y-846D01*
X-36908Y-973D01*
X-36934Y-1134D01*
X-36975Y-1559D01*
X-37006Y-2454D01*
X-37008Y-2821D01*
X-37992D01*
X-37994Y-2454D01*
X-38092Y-973D01*
X-38123Y-846D01*
X-38158Y-754D01*
X-38196Y-696D01*
X-36804D01*
X-36842Y-754D01*
D02*
G37*
G36*
X38470Y-1271D02*
X39586Y-2249D01*
X39698Y-2317D01*
X39787Y-2357D01*
X39856Y-2371D01*
X38871Y-3356D01*
X38857Y-3287D01*
X38817Y-3198D01*
X38749Y-3086D01*
X38654Y-2954D01*
X38382Y-2624D01*
X37771Y-1970D01*
X37513Y-1709D01*
X38209Y-1013D01*
X38470Y-1271D01*
D02*
G37*
G36*
X982Y-1944D02*
X1012Y-2018D01*
X1061Y-2082D01*
X1130Y-2138D01*
X1218Y-2186D01*
X1327Y-2224D01*
X1455Y-2255D01*
X1602Y-2276D01*
X1770Y-2289D01*
X1956Y-2293D01*
Y-3278D01*
X1768Y-3283D01*
X1599Y-3297D01*
X1450Y-3322D01*
X1320Y-3356D01*
X1211Y-3401D01*
X1121Y-3455D01*
X1051Y-3519D01*
X1001Y-3593D01*
X971Y-3676D01*
X960Y-3770D01*
X972Y-1862D01*
X982Y-1944D01*
D02*
G37*
G36*
X14966Y-3476D02*
X14708Y-3737D01*
X13730Y-4854D01*
X13662Y-4965D01*
X13621Y-5055D01*
X13607Y-5124D01*
X12622Y-4139D01*
X12691Y-4125D01*
X12781Y-4084D01*
X12892Y-4016D01*
X13025Y-3921D01*
X13354Y-3650D01*
X14009Y-3038D01*
X14270Y-2780D01*
X14966Y-3476D01*
D02*
G37*
G36*
X9670Y-4953D02*
X8439Y-6185D01*
X7960Y-6901D01*
X7792Y-7746D01*
Y-9078D01*
X7788Y-9139D01*
X7762Y-9362D01*
X7728Y-9545D01*
X7690Y-9688D01*
X7681Y-9711D01*
X7384Y-9872D01*
X7291Y-9901D01*
X7131Y-9927D01*
X6758Y-9678D01*
X6047Y-9537D01*
X6047Y-9543D01*
X6096Y-9808D01*
X6160Y-10047D01*
X6237Y-10260D01*
X6328Y-10446D01*
X6433Y-10606D01*
X6552Y-10739D01*
X6685Y-10846D01*
X3315D01*
X3448Y-10739D01*
X3567Y-10606D01*
X3672Y-10446D01*
X3763Y-10260D01*
X3841Y-10047D01*
X3904Y-9808D01*
X3953Y-9543D01*
X3953Y-9537D01*
X3241Y-9678D01*
X2585Y-10117D01*
X2415D01*
X1759Y-9678D01*
X1615Y-9650D01*
X1664Y-9150D01*
X1984D01*
Y-7724D01*
X1947Y-7724D01*
X1770Y-7728D01*
X1455Y-7761D01*
X1327Y-7790D01*
X1218Y-7827D01*
X1130Y-7873D01*
X1061Y-7927D01*
X1012Y-7989D01*
X982Y-8059D01*
X972Y-8138D01*
X881Y-8147D01*
X799Y-8177D01*
X727Y-8226D01*
X665Y-8295D01*
X612Y-8384D01*
X569Y-8492D01*
X535Y-8620D01*
X511Y-8767D01*
X497Y-8935D01*
X492Y-9122D01*
X-492D01*
X-497Y-8935D01*
X-511Y-8767D01*
X-535Y-8620D01*
X-569Y-8492D01*
X-612Y-8384D01*
X-665Y-8295D01*
X-727Y-8226D01*
X-799Y-8177D01*
X-881Y-8147D01*
X-972Y-8138D01*
X-982Y-8059D01*
X-1012Y-7989D01*
X-1061Y-7927D01*
X-1130Y-7873D01*
X-1218Y-7827D01*
X-1327Y-7790D01*
X-1455Y-7761D01*
X-1602Y-7740D01*
X-1770Y-7728D01*
X-1956Y-7724D01*
Y-6740D01*
X-1768Y-6735D01*
X-1599Y-6720D01*
X-1450Y-6695D01*
X-1320Y-6661D01*
X-1211Y-6617D01*
X-1121Y-6562D01*
X-1051Y-6498D01*
X-1001Y-6425D01*
X-971Y-6341D01*
X-960Y-6247D01*
X-972Y-8138D01*
X972D01*
X960Y-6247D01*
X971Y-6341D01*
X1001Y-6425D01*
X1051Y-6498D01*
X1121Y-6562D01*
X1211Y-6617D01*
X1320Y-6661D01*
X1450Y-6695D01*
X1599Y-6720D01*
X1768Y-6735D01*
X1949Y-6739D01*
X1984Y-6739D01*
Y-5394D01*
X2165D01*
Y-4491D01*
X9479D01*
X9670Y-4953D01*
D02*
G37*
G36*
X22997Y-6166D02*
X23012Y-6335D01*
X23036Y-6485D01*
X23071Y-6614D01*
X23115Y-6724D01*
X23169Y-6813D01*
X23233Y-6883D01*
X23307Y-6933D01*
X23391Y-6963D01*
X23484Y-6973D01*
X21516D01*
X21609Y-6963D01*
X21693Y-6933D01*
X21767Y-6883D01*
X21831Y-6813D01*
X21885Y-6724D01*
X21929Y-6614D01*
X21964Y-6485D01*
X21988Y-6335D01*
X22003Y-6166D01*
X22008Y-5977D01*
X22992D01*
X22997Y-6166D01*
D02*
G37*
G36*
X-37003Y-6166D02*
X-36988Y-6335D01*
X-36964Y-6485D01*
X-36929Y-6614D01*
X-36885Y-6724D01*
X-36831Y-6813D01*
X-36767Y-6883D01*
X-36693Y-6933D01*
X-36609Y-6963D01*
X-36516Y-6973D01*
X-38484D01*
X-38391Y-6963D01*
X-38307Y-6933D01*
X-38233Y-6883D01*
X-38169Y-6813D01*
X-38115Y-6724D01*
X-38071Y-6614D01*
X-38036Y-6485D01*
X-38012Y-6335D01*
X-37997Y-6166D01*
X-37992Y-5977D01*
X-37008D01*
X-37003Y-6166D01*
D02*
G37*
G36*
X43424Y-7620D02*
X43466Y-8116D01*
X43490Y-8250D01*
X43520Y-8369D01*
X43556Y-8473D01*
X43597Y-8561D01*
X43643Y-8634D01*
X43695Y-8692D01*
X41216Y-8779D01*
X41261Y-8722D01*
X41301Y-8649D01*
X41337Y-8560D01*
X41368Y-8456D01*
X41394Y-8337D01*
X41415Y-8202D01*
X41444Y-7886D01*
X41453Y-7508D01*
X43422Y-7424D01*
X43424Y-7620D01*
D02*
G37*
G36*
X497Y-9761D02*
X512Y-9930D01*
X536Y-10080D01*
X570Y-10209D01*
X615Y-10319D01*
X668Y-10408D01*
X732Y-10478D01*
X806Y-10528D01*
X889Y-10558D01*
X982Y-10568D01*
X-984Y-10568D01*
X-891Y-10558D01*
X-807Y-10528D01*
X-733Y-10478D01*
X-669Y-10408D01*
X-615Y-10319D01*
X-571Y-10209D01*
X-536Y-10080D01*
X-512Y-9930D01*
X-497Y-9761D01*
X-492Y-9572D01*
X492D01*
X497Y-9761D01*
D02*
G37*
G36*
X10991Y-8932D02*
X11047Y-9543D01*
X11096Y-9808D01*
X11159Y-10047D01*
X11237Y-10260D01*
X11328Y-10446D01*
X11433Y-10606D01*
X11552Y-10739D01*
X11685Y-10846D01*
X8315D01*
X8448Y-10739D01*
X8567Y-10606D01*
X8672Y-10446D01*
X8763Y-10260D01*
X8840Y-10047D01*
X8904Y-9808D01*
X8953Y-9543D01*
X8988Y-9251D01*
X9009Y-8932D01*
X9016Y-8587D01*
X10984D01*
X10991Y-8932D01*
D02*
G37*
G36*
X43823Y-8809D02*
X43896Y-8852D01*
X43985Y-8890D01*
X44089Y-8924D01*
X44208Y-8952D01*
X44343Y-8975D01*
X44659Y-9005D01*
X44840Y-9013D01*
X45036Y-9016D01*
Y-10984D01*
X44840Y-10987D01*
X44343Y-11025D01*
X44208Y-11048D01*
X44089Y-11076D01*
X43985Y-11110D01*
X43896Y-11148D01*
X43823Y-11191D01*
X43765Y-11240D01*
Y-8760D01*
X43823Y-8809D01*
D02*
G37*
G36*
X47071Y-11969D02*
X47052Y-11782D01*
X46992Y-11614D01*
X46893Y-11467D01*
X46754Y-11339D01*
X46576Y-11230D01*
X46358Y-11142D01*
X46101Y-11073D01*
X45804Y-11024D01*
X45467Y-10994D01*
X45091Y-10984D01*
Y-9016D01*
X45467Y-9006D01*
X45804Y-8976D01*
X46101Y-8927D01*
X46358Y-8858D01*
X46576Y-8770D01*
X46754Y-8661D01*
X46893Y-8534D01*
X46992Y-8386D01*
X47052Y-8219D01*
X47071Y-8032D01*
Y-11969D01*
D02*
G37*
G36*
X16691Y-11323D02*
X16648Y-11396D01*
X16610Y-11485D01*
X16576Y-11589D01*
X16548Y-11708D01*
X16525Y-11843D01*
X16495Y-12159D01*
X16487Y-12340D01*
X16484Y-12536D01*
X14516D01*
X14513Y-12340D01*
X14475Y-11843D01*
X14452Y-11708D01*
X14424Y-11589D01*
X14390Y-11485D01*
X14352Y-11396D01*
X14309Y-11323D01*
X14260Y-11265D01*
X16740D01*
X16691Y-11323D01*
D02*
G37*
G36*
X43668Y-11332D02*
X43614Y-11389D01*
X43566Y-11462D01*
X43524Y-11550D01*
X43487Y-11653D01*
X43456Y-11772D01*
X43431Y-11906D01*
X43411Y-12056D01*
X43389Y-12401D01*
X43386Y-12597D01*
X41417Y-12465D01*
X41415Y-12268D01*
X41381Y-11771D01*
X41361Y-11636D01*
X41336Y-11517D01*
X41307Y-11413D01*
X41273Y-11324D01*
X41234Y-11252D01*
X41192Y-11194D01*
X43668Y-11332D01*
D02*
G37*
G36*
X25294Y10949D02*
X25488Y10949D01*
X25794Y10576D01*
Y9000D01*
X25924Y8347D01*
X26294Y7794D01*
X37056Y-2969D01*
X37477Y-3419D01*
X37699Y-3688D01*
X37720Y-3718D01*
X37816Y-4200D01*
X38294Y-4916D01*
X38684Y-5306D01*
X38492Y-5768D01*
X34331D01*
Y-14429D01*
X38921D01*
X39113Y-14891D01*
X38439Y-15565D01*
X38286Y-15794D01*
X18714D01*
X18662Y-15532D01*
X18184Y-14816D01*
X17708Y-14340D01*
Y-13044D01*
X17797Y-12993D01*
X18493Y-12297D01*
X18985Y-11444D01*
X19051Y-11198D01*
X19551Y-11264D01*
Y-14248D01*
X25488D01*
Y-5949D01*
X19551D01*
Y-8737D01*
X19051Y-8802D01*
X18985Y-8556D01*
X18493Y-7704D01*
X17797Y-7007D01*
X16944Y-6515D01*
X15992Y-6260D01*
X15069D01*
X14939Y-6167D01*
X14691Y-5827D01*
X14753Y-5513D01*
X15512Y-4647D01*
X18706Y-1452D01*
X19076Y-899D01*
X19206Y-246D01*
Y10592D01*
X19551Y10949D01*
X19706Y10949D01*
X25294D01*
D02*
G37*
G36*
X17615Y-16335D02*
X17639Y-16431D01*
X17671Y-16525D01*
X17710Y-16618D01*
X17756Y-16710D01*
X17809Y-16801D01*
X17869Y-16891D01*
X17937Y-16979D01*
X18012Y-17066D01*
X18093Y-17152D01*
X17397Y-17848D01*
X17311Y-17766D01*
X17136Y-17624D01*
X17046Y-17564D01*
X16956Y-17510D01*
X16864Y-17464D01*
X16770Y-17425D01*
X16676Y-17394D01*
X16581Y-17369D01*
X16484Y-17352D01*
X17597Y-16239D01*
X17615Y-16335D01*
D02*
G37*
%LPC*%
G36*
X-12402Y134492D02*
X-13280D01*
Y130598D01*
X-9977D01*
Y132067D01*
X-10162Y132995D01*
X-10687Y133781D01*
X-11474Y134307D01*
X-12402Y134492D01*
D02*
G37*
G36*
X-14279D02*
X-15157D01*
X-16085Y134307D01*
X-16872Y133781D01*
X-17398Y132995D01*
X-17582Y132067D01*
Y130598D01*
X-14279D01*
Y134492D01*
D02*
G37*
G36*
X15157D02*
X14279D01*
Y130598D01*
X17582D01*
Y132067D01*
X17398Y132995D01*
X16872Y133781D01*
X16085Y134307D01*
X15157Y134492D01*
D02*
G37*
G36*
X13280D02*
X12402D01*
X11474Y134307D01*
X10687Y133781D01*
X10162Y132995D01*
X9977Y132067D01*
Y130598D01*
X13280D01*
Y134492D01*
D02*
G37*
G36*
X17582Y129598D02*
X14279D01*
Y125705D01*
X15157D01*
X16085Y125890D01*
X16872Y126416D01*
X17398Y127202D01*
X17582Y128130D01*
Y129598D01*
D02*
G37*
G36*
X13280D02*
X9977D01*
Y128130D01*
X10162Y127202D01*
X10687Y126416D01*
X11474Y125890D01*
X12402Y125705D01*
X13280D01*
Y129598D01*
D02*
G37*
G36*
X-9977Y129598D02*
X-13280D01*
Y125705D01*
X-12402D01*
X-11474Y125890D01*
X-10687Y126416D01*
X-10162Y127202D01*
X-9977Y128130D01*
Y129598D01*
D02*
G37*
G36*
X-14279D02*
X-17582D01*
Y128130D01*
X-17398Y127202D01*
X-16872Y126416D01*
X-16085Y125890D01*
X-15157Y125705D01*
X-14279D01*
Y129598D01*
D02*
G37*
G36*
X11612Y122874D02*
X10343D01*
Y119870D01*
X13886D01*
Y120600D01*
X13713Y121471D01*
X13220Y122208D01*
X12482Y122701D01*
X11612Y122874D01*
D02*
G37*
G36*
X-10343D02*
X-11612D01*
X-12482Y122701D01*
X-13220Y122208D01*
X-13713Y121471D01*
X-13886Y120600D01*
Y119870D01*
X-10343D01*
Y122874D01*
D02*
G37*
G36*
X13886Y118870D02*
X10343D01*
Y115866D01*
X11612D01*
X12482Y116039D01*
X13220Y116532D01*
X13713Y117270D01*
X13886Y118140D01*
Y118870D01*
D02*
G37*
G36*
X-10343D02*
X-13886D01*
Y118140D01*
X-13713Y117270D01*
X-13220Y116532D01*
X-12482Y116039D01*
X-11612Y115866D01*
X-10343D01*
Y118870D01*
D02*
G37*
G36*
X-19551Y19248D02*
X-25488D01*
Y10949D01*
X-19551D01*
Y19248D01*
D02*
G37*
G36*
Y-5949D02*
X-25488D01*
Y-14248D01*
X-19551D01*
Y-5949D01*
D02*
G37*
%LPD*%
G36*
X-22023Y19031D02*
X-22008Y18862D01*
X-21983Y18712D01*
X-21949Y18583D01*
X-21904Y18473D01*
X-21850Y18383D01*
X-21786Y18314D01*
X-21713Y18264D01*
X-21629Y18234D01*
X-21535Y18224D01*
X-23504D01*
X-23410Y18234D01*
X-23327Y18264D01*
X-23253Y18314D01*
X-23189Y18383D01*
X-23135Y18473D01*
X-23090Y18583D01*
X-23056Y18712D01*
X-23031Y18862D01*
X-23017Y19031D01*
X-23012Y19220D01*
X-22028D01*
X-22023Y19031D01*
D02*
G37*
G36*
X-20553Y15891D02*
X-20524Y15807D01*
X-20475Y15733D01*
X-20406Y15669D01*
X-20317Y15615D01*
X-20209Y15571D01*
X-20081Y15536D01*
X-19933Y15512D01*
X-19766Y15497D01*
X-19579Y15492D01*
Y14508D01*
X-19766Y14503D01*
X-19933Y14488D01*
X-20081Y14464D01*
X-20209Y14429D01*
X-20317Y14385D01*
X-20406Y14331D01*
X-20475Y14267D01*
X-20524Y14193D01*
X-20553Y14109D01*
X-20563Y14016D01*
Y15984D01*
X-20553Y15891D01*
D02*
G37*
G36*
X-24464Y14016D02*
X-24474Y14109D01*
X-24504Y14193D01*
X-24554Y14267D01*
X-24624Y14331D01*
X-24713Y14385D01*
X-24823Y14429D01*
X-24952Y14464D01*
X-25102Y14488D01*
X-25271Y14503D01*
X-25460Y14508D01*
Y15492D01*
X-25271Y15497D01*
X-25102Y15512D01*
X-24952Y15536D01*
X-24823Y15571D01*
X-24713Y15615D01*
X-24624Y15669D01*
X-24554Y15733D01*
X-24504Y15807D01*
X-24474Y15891D01*
X-24464Y15984D01*
Y14016D01*
D02*
G37*
G36*
X-21629Y11963D02*
X-21713Y11933D01*
X-21786Y11883D01*
X-21850Y11813D01*
X-21904Y11724D01*
X-21949Y11614D01*
X-21983Y11485D01*
X-22008Y11335D01*
X-22023Y11166D01*
X-22028Y10977D01*
X-23012D01*
X-23017Y11166D01*
X-23031Y11335D01*
X-23056Y11485D01*
X-23090Y11614D01*
X-23135Y11724D01*
X-23189Y11813D01*
X-23253Y11883D01*
X-23327Y11933D01*
X-23410Y11963D01*
X-23504Y11973D01*
X-21535D01*
X-21629Y11963D01*
D02*
G37*
G36*
X-22023Y-6166D02*
X-22008Y-6335D01*
X-21983Y-6485D01*
X-21949Y-6614D01*
X-21904Y-6724D01*
X-21850Y-6813D01*
X-21786Y-6883D01*
X-21713Y-6933D01*
X-21629Y-6963D01*
X-21535Y-6973D01*
X-23504D01*
X-23410Y-6963D01*
X-23327Y-6933D01*
X-23253Y-6883D01*
X-23189Y-6813D01*
X-23135Y-6724D01*
X-23090Y-6614D01*
X-23056Y-6485D01*
X-23031Y-6335D01*
X-23017Y-6166D01*
X-23012Y-5977D01*
X-22028D01*
X-22023Y-6166D01*
D02*
G37*
G36*
X-20553Y-9109D02*
X-20524Y-9193D01*
X-20475Y-9267D01*
X-20406Y-9331D01*
X-20317Y-9385D01*
X-20209Y-9429D01*
X-20081Y-9464D01*
X-19933Y-9488D01*
X-19766Y-9503D01*
X-19579Y-9508D01*
Y-10492D01*
X-19766Y-10497D01*
X-19933Y-10512D01*
X-20081Y-10536D01*
X-20209Y-10571D01*
X-20317Y-10615D01*
X-20406Y-10669D01*
X-20475Y-10733D01*
X-20524Y-10807D01*
X-20553Y-10891D01*
X-20563Y-10984D01*
Y-9016D01*
X-20553Y-9109D01*
D02*
G37*
G36*
X-24464Y-10984D02*
X-24474Y-10891D01*
X-24504Y-10807D01*
X-24554Y-10733D01*
X-24624Y-10669D01*
X-24713Y-10615D01*
X-24823Y-10571D01*
X-24952Y-10536D01*
X-25102Y-10512D01*
X-25271Y-10497D01*
X-25460Y-10492D01*
Y-9508D01*
X-25271Y-9503D01*
X-25102Y-9488D01*
X-24952Y-9464D01*
X-24823Y-9429D01*
X-24713Y-9385D01*
X-24624Y-9331D01*
X-24554Y-9267D01*
X-24504Y-9193D01*
X-24474Y-9109D01*
X-24464Y-9016D01*
Y-10984D01*
D02*
G37*
G36*
X-21629Y-13234D02*
X-21713Y-13264D01*
X-21786Y-13314D01*
X-21850Y-13383D01*
X-21904Y-13473D01*
X-21949Y-13583D01*
X-21983Y-13712D01*
X-22008Y-13862D01*
X-22023Y-14031D01*
X-22028Y-14220D01*
X-23012D01*
X-23017Y-14031D01*
X-23031Y-13862D01*
X-23056Y-13712D01*
X-23090Y-13583D01*
X-23135Y-13473D01*
X-23189Y-13383D01*
X-23253Y-13314D01*
X-23327Y-13264D01*
X-23410Y-13234D01*
X-23504Y-13224D01*
X-21535D01*
X-21629Y-13234D01*
D02*
G37*
D12*
X-36000Y71500D02*
X-11953D01*
X-984Y60532D01*
X-37404Y72904D02*
X-36000Y71500D01*
X-11673Y88839D02*
X-7730D01*
X14510Y87010D02*
X15000Y87500D01*
X7677Y86279D02*
X12205D01*
X12936Y87010D02*
X14510D01*
X12205Y86279D02*
X12936Y87010D01*
X1280Y92677D02*
Y98779D01*
X2500Y100000D01*
X-1280Y92677D02*
Y103028D01*
X-3839Y92677D02*
Y96839D01*
X-5252Y98252D02*
X-3839Y96839D01*
X17095Y74594D02*
X20000Y77500D01*
X4415Y74594D02*
X17095D01*
X3839Y75171D02*
X4415Y74594D01*
X1990Y72626D02*
X34874D01*
X10339Y88839D02*
X11000Y89500D01*
X7677Y83720D02*
X21280D01*
X25000Y80000D02*
X40000D01*
X21280Y83720D02*
X25000Y80000D01*
X7677Y81161D02*
X13146D01*
X14308Y80000D02*
X15000D01*
X13146Y81161D02*
X14308Y80000D01*
X-3839Y81161D02*
X0Y85000D01*
X1280Y73337D02*
X1990Y72626D01*
X1280Y73337D02*
Y77323D01*
X0Y85000D02*
X1280Y86279D01*
X7677D01*
X3839Y75171D02*
Y77323D01*
X-7868Y88976D02*
X-7730Y88839D01*
X-7677D01*
X-3839Y77323D02*
Y81161D01*
X-13032Y85000D02*
X-12835D01*
X-11555Y86279D01*
X-7677D01*
X7677Y88839D02*
X10339D01*
X6500Y97947D02*
Y98000D01*
Y97947D02*
X8500Y95947D01*
Y93500D02*
Y95947D01*
Y93500D02*
X11000Y91000D01*
Y89500D02*
Y91000D01*
X34874Y72626D02*
X35000Y72500D01*
X-13032Y90197D02*
X-11673Y88839D01*
X-13032Y81968D02*
Y85000D01*
X-15000Y80000D02*
X-13032Y81968D01*
X-20531Y80000D02*
X-15000D01*
X-20531Y75000D02*
X-15000D01*
X-20250Y119750D02*
X-18760Y118260D01*
Y111240D02*
Y118260D01*
X-24000Y131500D02*
X-20250Y127750D01*
Y119750D02*
Y127750D01*
X-37500Y125500D02*
X-37500Y125500D01*
Y103268D02*
Y125500D01*
X-6500Y-6500D02*
X-5768Y-7232D01*
X0D02*
Y-6968D01*
Y-12500D02*
Y-7232D01*
X263D01*
X-5768D02*
X0D01*
X20000Y92500D02*
X25000D01*
X27500Y95000D01*
X-37500Y97500D02*
X-37500Y97500D01*
Y103268D01*
X-36931Y102699D01*
X-36319Y98819D02*
Y98819D01*
Y98819D02*
X-32500Y95000D01*
X-17968Y32032D02*
X-12000D01*
X-17500Y32500D02*
X-17266Y32266D01*
X-12234D02*
X-12000Y32032D01*
X-8000D01*
Y32032D02*
X-4661D01*
X17376Y34876D02*
X17500Y34752D01*
X11969Y35000D02*
X12093Y34876D01*
X17376D01*
X4000Y70000D02*
X8032D01*
X4000Y70000D02*
X4000Y70000D01*
X-500Y70000D02*
X4000D01*
X22500Y-11500D02*
Y20500D01*
Y-11500D02*
X22520Y-11480D01*
X22000Y-12000D02*
X22500Y-11500D01*
X22520Y-11480D02*
Y-10098D01*
X-20000Y85000D02*
X-16969D01*
X-20000Y85000D02*
X-20000Y85000D01*
Y90000D02*
X-16969D01*
X-20000Y90000D02*
X-20000Y90000D01*
X-20500Y95000D02*
X-16969D01*
X-20500Y95000D02*
X-20500Y95000D01*
X-22500Y90000D02*
X-22165D01*
X-22500D02*
X-20329Y92171D01*
X-22500Y90000D02*
X-22500D01*
X32500Y111734D02*
Y112000D01*
X31969Y111202D02*
X32500Y111734D01*
X31969Y107394D02*
Y111202D01*
Y104532D02*
Y107394D01*
X32199Y111432D02*
X33131Y110500D01*
X32065Y111565D02*
X32199Y111432D01*
X33131Y110500D02*
X36500D01*
X36968Y110031D01*
X40000D01*
X40000Y121468D02*
Y124500D01*
X18531Y121968D02*
X22000D01*
X18500Y122000D02*
X18531Y121968D01*
X12500Y111969D02*
Y115500D01*
X12500Y111969D02*
X12500Y111969D01*
X-22520Y-10000D02*
Y-5020D01*
Y-10098D02*
Y-10000D01*
X-17500D01*
X-27000D02*
X-22520D01*
Y-15980D02*
X-22500Y-16000D01*
X-22520Y-15980D02*
Y-10098D01*
Y-5020D02*
X-22500Y-5000D01*
X-22520Y15000D02*
Y15098D01*
Y7520D02*
Y15000D01*
X-19500D01*
X-26500D02*
X-22520D01*
Y7520D02*
X-22500Y7500D01*
X-22520Y20980D02*
X-22500Y21000D01*
X-22520Y15098D02*
Y20980D01*
X-9000Y60000D02*
X-5500D01*
X-10500Y58500D02*
X-9000Y60000D01*
X-42500Y65000D02*
X-36000Y58500D01*
X-10500D01*
X34000Y50000D02*
X40000D01*
X24000Y52000D02*
X32000D01*
X34000Y50000D01*
X7776Y50984D02*
X22984D01*
X24000Y52000D01*
X22000Y55000D02*
X37500D01*
X19953Y52953D02*
X22000Y55000D01*
X37500D02*
X40000Y57500D01*
X7776Y52953D02*
X19953D01*
X33500Y57500D02*
X43000Y67000D01*
X15921Y54921D02*
X18500Y57500D01*
X33500D01*
X7776Y54921D02*
X15921D01*
X6000Y38000D02*
X8500D01*
X19000Y41000D02*
X27500Y32500D01*
X8500Y38000D02*
X11500Y41000D01*
X19000D01*
X2953Y1547D02*
Y5350D01*
X7201Y500D02*
X9201Y2500D01*
X4000Y500D02*
X7201D01*
X9201Y2500D02*
X10000D01*
X2953Y1547D02*
X4000Y500D01*
X-7500Y8032D02*
X-3650D01*
X-9826Y5706D02*
X-7500Y8032D01*
X-14821Y5216D02*
X-14331Y5706D01*
X-9826D01*
X-42500Y15000D02*
Y20000D01*
X12623Y-5123D02*
X17500Y-246D01*
Y27900D01*
X0Y-3032D02*
X246Y-2785D01*
X11591D01*
X16623Y-16377D02*
X17745Y-17500D01*
X27500Y9000D02*
X39855Y-3355D01*
X30000Y12500D02*
X40000Y2500D01*
X-13032Y95000D02*
X-12982Y95049D01*
X-9401Y95599D02*
X-9101Y95899D01*
X-10000Y95000D02*
X-9401Y95599D01*
X-13032Y95000D02*
X-10000D01*
X22000Y116303D02*
X26063D01*
X25904Y104626D02*
X26063Y104785D01*
X-15000Y-500D02*
X-14500Y0D01*
X-42500Y30000D02*
X-40000D01*
X-10645Y15000D02*
X-7614Y11969D01*
X-15000Y15000D02*
X-10645D01*
X0Y105000D02*
X2530Y107529D01*
X0Y104574D02*
Y105000D01*
Y104307D02*
Y104574D01*
X42500Y72500D02*
Y77500D01*
X30000Y60000D02*
X42500Y72500D01*
X34000Y40000D02*
X40000D01*
X27500Y9000D02*
Y32500D01*
X30000Y12500D02*
Y35000D01*
X17745Y-17500D02*
X40000D01*
X-37500Y40000D02*
X-33540D01*
X-37500Y50000D02*
X-29524D01*
X-41000Y131500D02*
X-33760D01*
X-48647Y121353D02*
Y123853D01*
X-50000Y120000D02*
X-48647Y121353D01*
Y123853D02*
X-41000Y131500D01*
X-27500Y88500D02*
X-20884Y81884D01*
X-27500Y88500D02*
Y92538D01*
X-20884Y80353D02*
Y81884D01*
Y80353D02*
X-20531Y80000D01*
X-27500Y92538D02*
X-18760Y101278D01*
X-20329Y92171D02*
X-19994D01*
X-18760Y101278D02*
Y110197D01*
X-31653Y87500D02*
X-31575Y87421D01*
Y84449D02*
Y87421D01*
Y84449D02*
X-27126Y80000D01*
X-24468D01*
X-8500Y98500D02*
X-8252Y98252D01*
X7776Y49016D02*
X25000D01*
Y49000D02*
X34000Y40000D01*
X37480Y15098D02*
Y32020D01*
Y13917D02*
Y15098D01*
X7813Y47010D02*
X22500D01*
Y47000D02*
X37480Y32020D01*
X-5059Y127441D02*
X-4363Y128137D01*
X-5059Y112559D02*
Y127441D01*
X-692Y130000D02*
X0D01*
X-2556Y128137D02*
X-692Y130000D01*
X-4363Y128137D02*
X-2556D01*
X-18000Y47047D02*
X-7776D01*
X-19000Y47000D02*
X-18000D01*
X-46000Y20000D02*
X-19000Y47000D01*
X-41250Y83750D02*
X-38923D01*
X-38346Y75000D02*
Y83173D01*
X-38923Y83750D02*
X-38346Y83173D01*
X-42500Y85000D02*
X-41250Y83750D01*
X-42500Y65000D02*
Y67000D01*
Y85000D02*
Y90000D01*
X-41240Y96240D02*
X-38346Y93347D01*
Y87500D02*
Y93347D01*
X-41240Y96240D02*
Y103268D01*
X-42500Y71653D02*
Y80000D01*
Y71653D02*
X-39429Y68583D01*
X27500Y95000D02*
Y98032D01*
X-14500Y0D02*
X-5000D01*
X-2953Y2047D02*
Y5350D01*
X-5000Y0D02*
X-2953Y2047D01*
X-33760Y111732D02*
Y131500D01*
X-24000D01*
X38583Y91929D02*
X42500Y95846D01*
X38583Y91929D02*
X38583D01*
X42500Y95846D02*
Y98032D01*
X37500Y90847D02*
X38583Y91929D01*
X42769Y104769D02*
X44469Y106468D01*
X42769Y102237D02*
Y104769D01*
X44469Y106468D02*
Y113031D01*
X42500Y101969D02*
X42769Y102237D01*
X44000Y116000D02*
X44122Y115878D01*
X40000Y109835D02*
Y110031D01*
X47539Y102461D02*
X50000Y100000D01*
X27992Y102657D02*
X29158D01*
X30000Y103500D02*
Y107394D01*
X29158Y102657D02*
X30000Y103500D01*
X32500Y101969D02*
Y102500D01*
Y101772D02*
Y101969D01*
X32451Y102018D02*
Y104049D01*
Y102018D02*
X32500Y101969D01*
X30740Y101279D02*
X32008D01*
X29961Y100500D02*
X30740Y101279D01*
X32008D02*
X32500Y101772D01*
X29961Y95039D02*
Y100500D01*
Y95039D02*
X30500Y94500D01*
X22000Y105748D02*
Y110031D01*
Y105748D02*
X22000Y105748D01*
X26063Y104785D02*
Y107394D01*
X17000Y102500D02*
X23778D01*
X28032Y105203D02*
Y107394D01*
X25904Y104626D02*
X27455D01*
X28032Y105203D01*
X23778Y102500D02*
X25904Y104626D01*
X27500Y102165D02*
X27992Y102657D01*
X27500Y101969D02*
Y102165D01*
X26563Y110500D02*
X27500Y111437D01*
X22468Y110500D02*
X26563D01*
X27500Y111437D02*
Y111500D01*
X21924Y109955D02*
X22468Y110500D01*
X34969Y98032D02*
X37500D01*
X33750D02*
X34969D01*
X35000Y98000D01*
X34961Y98039D02*
X34969Y98032D01*
X34961Y98039D02*
Y104476D01*
X33937Y105500D02*
X34961Y104476D01*
X33937Y105500D02*
Y107394D01*
X31969Y104532D02*
X32451Y104049D01*
X33750Y98032D02*
X33750Y98032D01*
X32500Y98032D02*
X33750D01*
X37500Y101969D02*
X42500D01*
X30000Y112000D02*
Y116606D01*
X-22555Y50984D02*
X-7776D01*
X-26571Y52953D02*
X-7776D01*
X-1280Y103028D02*
X0Y104307D01*
X2530Y119341D02*
X2559Y119370D01*
X2530Y107529D02*
Y119341D01*
X-5000Y105000D02*
X0Y110000D01*
X-7614Y11969D02*
X-3650D01*
X-15000Y10000D02*
X-3650D01*
X-15000Y0D02*
Y350D01*
X38957Y12441D02*
X39244D01*
X41685Y10000D01*
X37480Y13917D02*
X38957Y12441D01*
X41685Y10000D02*
X50000D01*
X7627D02*
X10000Y12373D01*
X-5000Y-5000D02*
X-4307D01*
X-2461Y-6847D01*
X-122D02*
X0Y-6968D01*
X0Y-6968D02*
X263Y-7232D01*
X4732D01*
X13900Y31500D02*
X17500Y27900D01*
X8000Y31500D02*
X13900D01*
X-3000Y33000D02*
X-2500Y32500D01*
X-4661Y32032D02*
X-3692Y33000D01*
X-3000D01*
Y33562D01*
X-984Y35578D01*
Y42224D01*
X-45500Y70000D02*
X-42500Y67000D01*
X5498Y60000D02*
X30000D01*
X11591Y-2785D02*
X15000Y624D01*
X-984Y-516D02*
X0Y-1500D01*
X0Y-3032D02*
X246Y-2785D01*
X0Y-2539D02*
X246Y-2785D01*
X0Y-2539D02*
Y-1500D01*
X984Y-516D02*
Y5350D01*
X0Y-1500D02*
X984Y-516D01*
X-1031Y18238D02*
X-984Y18192D01*
X-4435Y24435D02*
X-1031Y21031D01*
Y18238D02*
Y21031D01*
X-5000Y25000D02*
X-4435Y24435D01*
X-984Y14650D02*
Y17376D01*
X-984Y17376D02*
X-984Y17376D01*
X-984Y17376D02*
Y18192D01*
X0Y110000D02*
Y119370D01*
X12500Y105000D02*
Y107992D01*
X-18760Y110197D02*
Y111240D01*
X-33169Y105250D02*
X-30458D01*
X-26240Y109468D01*
Y111240D01*
X-33760Y104660D02*
X-33169Y105250D01*
X-33760Y103268D02*
Y104660D01*
X12500Y107992D02*
Y108031D01*
X12008Y107500D02*
X12500Y107992D01*
X7500Y107500D02*
X12008D01*
X11811Y105610D02*
X12500Y104921D01*
X12500Y105000D02*
X12500Y105000D01*
X5118Y109882D02*
Y119370D01*
Y109882D02*
X7500Y107500D01*
X-13032Y90197D02*
Y95000D01*
Y90000D02*
Y90197D01*
X-40000Y121968D02*
X-40000Y121968D01*
Y126752D01*
X30000Y116606D02*
Y127500D01*
X27539Y119953D02*
X28032Y119461D01*
X31969Y116606D02*
Y119461D01*
X32461Y119953D01*
X28032Y116606D02*
Y119461D01*
X-5059Y112559D02*
X-5000Y112500D01*
X-37500Y-10079D02*
Y0D01*
Y-10079D02*
X-37480Y-10098D01*
X-20531Y75000D02*
X-20531Y75000D01*
X-20531Y67500D02*
X-20531Y67500D01*
X-15000D01*
X-31653D02*
X-24468D01*
X-32500D02*
X-31653D01*
X-24468D02*
X-24468Y67500D01*
X-30000Y75000D02*
X-30000Y75000D01*
X-24468D01*
X-38346Y75000D02*
X-37404Y74058D01*
Y72904D02*
Y74058D01*
X-37654Y65154D02*
X-35110Y62610D01*
X-5883D01*
X-38346Y67500D02*
X-37654Y66808D01*
Y65154D02*
Y66808D01*
X-5883Y62610D02*
X-2990Y59718D01*
Y57813D02*
Y59718D01*
Y57813D02*
X-2953Y57776D01*
X-43301Y60000D02*
X-38223Y54921D01*
X-7776D01*
X-984Y57776D02*
Y60532D01*
X-41240Y116595D02*
X-40000Y117835D01*
Y118032D01*
X-41240Y111732D02*
Y116595D01*
X984Y50984D02*
Y63323D01*
X0Y64307D02*
Y65000D01*
Y64307D02*
X984Y63323D01*
X-2362Y47638D02*
X-984Y46260D01*
Y42224D02*
Y46260D01*
X18000Y116000D02*
X18303Y116303D01*
X17500Y65000D02*
X17565D01*
X12657D02*
X17500D01*
X17500Y65000D01*
X33937Y116264D02*
X35087D01*
X40000Y115820D02*
Y117532D01*
X40000Y113969D02*
X40000Y113969D01*
Y115820D01*
X40000Y121468D02*
X40483Y121951D01*
X42500Y125000D02*
Y125000D01*
X12657Y64705D02*
Y65000D01*
X12461Y64508D02*
X12657Y64705D01*
X7866Y34969D02*
X8016Y34819D01*
X4921Y57776D02*
Y59423D01*
X5498Y60000D01*
X7776Y45079D02*
X19921D01*
X30000Y35000D01*
X2953Y61453D02*
X4000Y62500D01*
Y66031D01*
X4165Y65000D02*
X8032D01*
X40000Y115820D02*
X43820D01*
X44000Y116000D01*
X18303Y116303D02*
X22000D01*
Y118032D01*
Y113969D02*
Y116303D01*
Y118032D02*
X22000Y118032D01*
X22000Y113969D02*
X22000Y113969D01*
X26063Y116303D02*
Y116606D01*
X33937Y116264D02*
Y116606D01*
X40000Y117532D02*
X40000Y117532D01*
X38180Y115820D02*
X40000D01*
X21969Y122000D02*
X22000Y121968D01*
X38000Y116000D02*
X38180Y115820D01*
X4921Y39079D02*
Y42224D01*
Y39079D02*
X6000Y38000D01*
X-4921Y57776D02*
Y59421D01*
X-5500Y60000D02*
X-4921Y59421D01*
X8016Y27516D02*
Y31484D01*
Y27516D02*
X8032Y27500D01*
X8000Y31500D02*
X8016Y31484D01*
X8000Y31500D02*
X8016Y31516D01*
Y34819D01*
X2990Y37010D02*
X5000Y35000D01*
X2990Y37010D02*
Y42187D01*
X5000Y35000D02*
X8032D01*
X7500Y35531D02*
X8032Y35000D01*
X2953Y42224D02*
X2990Y42187D01*
X15000Y22500D02*
Y26923D01*
X14423Y27500D02*
X15000Y26923D01*
X11969Y27500D02*
X14423D01*
X-984Y-516D02*
Y5350D01*
X15000Y624D02*
Y8051D01*
X3670D02*
X15000D01*
X3650Y8032D02*
X3670Y8051D01*
X984Y34815D02*
Y42224D01*
Y34815D02*
X2500Y33299D01*
Y32500D02*
Y33299D01*
X938Y14696D02*
Y22947D01*
X2500Y24509D01*
Y25000D01*
X938Y14696D02*
X984Y14650D01*
X10000Y13071D02*
X11969Y15039D01*
Y17500D01*
X10000Y12500D02*
Y13071D01*
X11969Y22500D02*
X15000D01*
Y8051D02*
Y22500D01*
X5577D02*
X8032D01*
X5554Y17539D02*
X7992D01*
X3116D02*
X5554D01*
X5000Y21923D02*
X5577Y22500D01*
X5000Y18093D02*
Y21923D01*
Y18093D02*
X5554Y17539D01*
X7992D02*
X8032Y17500D01*
X-12500Y25000D02*
X-7500Y20000D01*
X-5576D01*
X-2953Y17376D01*
Y14650D02*
Y17376D01*
X2953Y14650D02*
Y17376D01*
X-42500Y20000D02*
X-17421Y45079D01*
X-7776D01*
X-40000Y30000D02*
X-20984Y49016D01*
X-7776D01*
X-5498Y40000D02*
X-4921Y40577D01*
X-17500Y40000D02*
X-5498D01*
X-4921Y40577D02*
Y42224D01*
X-37480Y20020D02*
X-17500Y40000D01*
X-37480Y15098D02*
Y20020D01*
X-37500Y0D02*
Y15079D01*
X-37480Y15098D01*
X-33540Y40000D02*
X-22555Y50984D01*
X-29524Y50000D02*
X-26571Y52953D01*
X3650Y11969D02*
X9469D01*
X10000Y12373D02*
Y12500D01*
X4000Y69968D02*
Y70000D01*
X-11938Y36030D02*
X-5589D01*
X-12000Y35969D02*
X-11938Y36030D01*
X-5589D02*
X-2953Y38666D01*
Y42224D01*
X11969Y65000D02*
X12461Y64508D01*
X3650Y10000D02*
X7627D01*
X11969Y65000D02*
Y69819D01*
X-32500Y75000D02*
X-31653D01*
X8032Y65000D02*
X8032Y65000D01*
X7776Y47047D02*
X7813Y47010D01*
X0Y50000D02*
X984Y50984D01*
X2953Y57776D02*
Y61453D01*
D16*
X7677Y81161D02*
D03*
Y83720D02*
D03*
Y86279D02*
D03*
Y88839D02*
D03*
X-7677D02*
D03*
Y86279D02*
D03*
Y83720D02*
D03*
Y81161D02*
D03*
D17*
X3839Y92677D02*
D03*
X1280D02*
D03*
X-1280D02*
D03*
X-3839D02*
D03*
Y77323D02*
D03*
X-1280D02*
D03*
X1280D02*
D03*
X3839D02*
D03*
D18*
X30000Y112000D02*
D03*
D19*
X-41240Y103268D02*
D03*
D20*
X-37500Y103268D02*
D03*
X-33760D02*
D03*
Y111732D02*
D03*
X-41240D02*
D03*
D21*
X-22520Y-10098D02*
D03*
X-37480D02*
D03*
Y15098D02*
D03*
X-22520D02*
D03*
X22520Y15098D02*
D03*
X37480D02*
D03*
Y-10098D02*
D03*
X22520D02*
D03*
D22*
X0Y-3032D02*
D03*
Y-6968D02*
D03*
X32500Y98032D02*
D03*
Y101969D02*
D03*
X37500Y101969D02*
D03*
Y98032D02*
D03*
X12500Y108031D02*
D03*
Y111969D02*
D03*
X27500Y98032D02*
D03*
Y101969D02*
D03*
X-40000Y118032D02*
D03*
Y121968D02*
D03*
X40000Y110031D02*
D03*
Y113969D02*
D03*
X42500Y98032D02*
D03*
Y101969D02*
D03*
X40000Y117532D02*
D03*
Y121468D02*
D03*
X22000Y113969D02*
D03*
Y110031D02*
D03*
X22000Y118032D02*
D03*
Y121968D02*
D03*
X4000Y69968D02*
D03*
Y66031D02*
D03*
X-8000Y35969D02*
D03*
Y32032D02*
D03*
X-12000Y32032D02*
D03*
Y35969D02*
D03*
D23*
X-13032Y95000D02*
D03*
X-16969D02*
D03*
X-24468Y75000D02*
D03*
X-20531D02*
D03*
Y67500D02*
D03*
X-24468D02*
D03*
X-20531Y80000D02*
D03*
X-24468D02*
D03*
X-13032Y85000D02*
D03*
X-16969D02*
D03*
X-13032Y90000D02*
D03*
X-16969D02*
D03*
X8032Y65000D02*
D03*
X11969D02*
D03*
X11969Y17500D02*
D03*
X8032D02*
D03*
Y27500D02*
D03*
X11969D02*
D03*
X11969Y22500D02*
D03*
X8032D02*
D03*
X11969Y70000D02*
D03*
X8032D02*
D03*
X11969Y35000D02*
D03*
X8032D02*
D03*
D24*
X-22500Y103760D02*
D03*
X-26240Y111240D02*
D03*
X-18760D02*
D03*
D25*
X12500Y104921D02*
D03*
Y95079D02*
D03*
D26*
X23898Y128000D02*
D03*
D27*
X36102D02*
D03*
D28*
X30000Y112000D02*
D03*
D29*
X26063Y107394D02*
D03*
X28032D02*
D03*
X30000D02*
D03*
X31969D02*
D03*
X33937D02*
D03*
X26063Y116606D02*
D03*
X28032D02*
D03*
X30000D02*
D03*
X31969D02*
D03*
X33937D02*
D03*
D30*
X37500Y90847D02*
D03*
Y84153D02*
D03*
D31*
X0Y119370D02*
D03*
X-2559D02*
D03*
X-5118D02*
D03*
X2559D02*
D03*
X5118D02*
D03*
D32*
X10000Y-14500D02*
D03*
X5000D02*
D03*
X0D02*
D03*
X-5000D02*
D03*
X-10000D02*
D03*
D33*
X-31653Y87500D02*
D03*
X-38346D02*
D03*
Y75000D02*
D03*
X-31653D02*
D03*
X-38346Y67500D02*
D03*
X-31653D02*
D03*
D34*
X-3650Y8032D02*
D03*
Y10000D02*
D03*
Y11969D02*
D03*
X3650D02*
D03*
Y10000D02*
D03*
Y8032D02*
D03*
D35*
X-2953Y14650D02*
D03*
X-984D02*
D03*
X984D02*
D03*
X2953D02*
D03*
Y5350D02*
D03*
X984D02*
D03*
X-984D02*
D03*
X-2953D02*
D03*
D36*
X7776Y45079D02*
D03*
Y47047D02*
D03*
Y49016D02*
D03*
Y50984D02*
D03*
Y52953D02*
D03*
Y54921D02*
D03*
X-7776D02*
D03*
Y52953D02*
D03*
Y50984D02*
D03*
Y49016D02*
D03*
Y47047D02*
D03*
Y45079D02*
D03*
D37*
X4921Y57776D02*
D03*
X2953D02*
D03*
X984D02*
D03*
X-984D02*
D03*
X-2953D02*
D03*
X-4921D02*
D03*
Y42224D02*
D03*
X-2953D02*
D03*
X-984D02*
D03*
X984D02*
D03*
X2953D02*
D03*
X4921D02*
D03*
D38*
X0Y50000D02*
D03*
D70*
Y85000D02*
D03*
D71*
X20000Y77500D02*
D03*
X6500Y98000D02*
D03*
X10000Y2500D02*
D03*
X-12500Y25000D02*
D03*
X-5000D02*
D03*
X2500D02*
D03*
Y32500D02*
D03*
D72*
Y100000D02*
Y100074D01*
X5000Y102574D01*
Y103000D01*
X35000Y72500D02*
X37500D01*
X33000Y84000D02*
X40000D01*
X41500Y85500D01*
X42500Y-10000D02*
X50000D01*
X42402Y-14724D02*
Y-10098D01*
X42500Y-10000D01*
X40000Y-17126D02*
X42402Y-14724D01*
X-50000Y40000D02*
X-42500D01*
X-37500D01*
X-50000Y30000D02*
X-42500D01*
X-50000Y20000D02*
X-46000D01*
X-42500Y10000D02*
Y15000D01*
X-50000Y10000D02*
X-42500D01*
X-15000Y-15000D02*
X-14500Y-14500D01*
X-10000D01*
Y-7500D01*
X4732Y-7232D02*
X5000Y-7500D01*
Y-14500D02*
Y-7500D01*
X10000Y-14500D02*
Y-7746D01*
X12623Y-5123D01*
X15500Y-15255D02*
X16623Y-16377D01*
X15500Y-15255D02*
Y-10000D01*
X39855Y-3355D02*
X42437Y-5938D01*
Y-9938D02*
X42500Y-10000D01*
X42437Y-9938D02*
Y-5938D01*
X40000Y2500D02*
X42500Y0D01*
X-50000Y60000D02*
X-43301D01*
X-50000Y70000D02*
X-45500D01*
X-9101Y95899D02*
X-8801Y96199D01*
Y98199D01*
X-8500Y98500D01*
X-8252Y98252D02*
X-5252D01*
X-5000Y105000D02*
Y105289D01*
X-2645Y107645D01*
X6309Y108691D02*
X7500Y107500D01*
Y107500D02*
Y107500D01*
X0Y104307D02*
X2530Y106837D01*
Y107529D01*
X-1280Y103294D02*
X0Y104574D01*
X-1280Y103028D02*
Y103294D01*
X42500Y77500D02*
Y80000D01*
X40000D02*
X42500D01*
X48031Y68032D02*
X50000Y70000D01*
X44032Y68032D02*
X48031D01*
X43000Y67000D02*
X44032Y68032D01*
X40000Y57500D02*
X42500Y60000D01*
X50000D01*
X42500Y50000D02*
X50000D01*
X40000D02*
X42500D01*
X40000Y40000D02*
X42500D01*
X50000D01*
X42500Y0D02*
X43429D01*
X-42500D02*
X-37500D01*
X-42500Y50000D02*
X-37500D01*
X-45000Y100000D02*
X-44500Y100500D01*
X-50000Y100000D02*
X-45000D01*
X-50000Y90000D02*
X-42500D01*
X-50000Y80000D02*
X-42500D01*
X-50000Y50000D02*
X-42500D01*
X42500Y90000D02*
X50000D01*
X42500Y80000D02*
X50000D01*
X42500Y10000D02*
X50000D01*
X42500Y20000D02*
X50000D01*
X44469Y113031D02*
X45678Y111822D01*
X44122Y113378D02*
X44469Y113031D01*
X48178Y111822D02*
X50000Y110000D01*
X44122Y113378D02*
Y115878D01*
X45678Y111822D02*
X48178D01*
X17000Y96153D02*
Y102500D01*
X15847Y95000D02*
X17000Y96153D01*
X12579Y95000D02*
X15847D01*
X12500Y95079D02*
X12579Y95000D01*
X17000Y102500D02*
Y114574D01*
X30000Y112000D02*
X30435Y111565D01*
X42500Y30000D02*
X50000D01*
X-26240Y111240D02*
X-26187Y111293D01*
Y115887D01*
X-25039Y117034D01*
Y117520D01*
X-30000Y117500D02*
X-29980Y117520D01*
Y122480D02*
X-29961Y122500D01*
X-29980Y117520D02*
Y122480D01*
X-25020Y117520D02*
X-25000Y117500D01*
X-25039Y122500D02*
X-25020Y122480D01*
Y117520D02*
Y122480D01*
X44000Y116000D02*
Y116091D01*
X45941Y118032D02*
X48031D01*
X50000Y120000D01*
X44000Y116091D02*
X45941Y118032D01*
X-26355Y100292D02*
X-24196D01*
X-22500Y101988D01*
X-26648Y100000D02*
X-26355Y100292D01*
X18000Y115574D02*
Y116000D01*
X17000Y114574D02*
X18000Y115574D01*
X25004Y122488D02*
X27539Y119953D01*
X25004Y122488D02*
Y126894D01*
X32461Y119953D02*
X34996Y122488D01*
Y126894D01*
X36102Y128000D01*
X23898D02*
X25004Y126894D01*
X-22500Y101988D02*
Y103760D01*
X-18563Y110000D02*
X-12500D01*
X-18760Y110197D02*
X-18563Y110000D01*
X30435Y111565D02*
X32065D01*
X32500Y112000D01*
X35350Y116000D02*
X38000D01*
X-9000Y119000D02*
X-8630Y119370D01*
D73*
X-50000Y130000D02*
D03*
X50000D02*
D03*
D74*
X-50000Y40000D02*
D03*
X50000Y0D02*
D03*
X50000Y80000D02*
D03*
X50000Y-10000D02*
D03*
X-50000Y0D02*
D03*
Y110000D02*
D03*
Y100000D02*
D03*
X50000Y30000D02*
D03*
Y20000D02*
D03*
Y10000D02*
D03*
Y40000D02*
D03*
Y50000D02*
D03*
Y60000D02*
D03*
Y70000D02*
D03*
Y110000D02*
D03*
X-50000Y120000D02*
D03*
X50000Y100000D02*
D03*
X-50000Y10000D02*
D03*
Y20000D02*
D03*
Y30000D02*
D03*
Y50000D02*
D03*
Y60000D02*
D03*
Y70000D02*
D03*
Y80000D02*
D03*
Y90000D02*
D03*
Y-10000D02*
D03*
D75*
X50000Y120000D02*
D03*
Y90000D02*
D03*
D76*
X-29961Y122500D02*
D03*
D77*
X-25039D02*
D03*
D78*
X-13780Y130098D02*
D03*
X13780D02*
D03*
D79*
X-9843Y119370D02*
D03*
X9843D02*
D03*
D80*
X-15000Y75000D02*
D03*
X5000Y103000D02*
D03*
X22500Y22000D02*
D03*
X31500Y84000D02*
D03*
X20000Y92500D02*
D03*
X-32500Y95000D02*
D03*
X-17500Y32500D02*
D03*
X17500Y34752D02*
D03*
X-15000Y15000D02*
D03*
X42500Y40000D02*
D03*
X-22500Y90000D02*
D03*
X0Y130000D02*
D03*
X-8500Y98500D02*
D03*
X-42500Y90000D02*
D03*
Y80000D02*
D03*
Y50000D02*
D03*
Y40000D02*
D03*
Y30000D02*
D03*
Y10000D02*
D03*
Y0D02*
D03*
X42500Y90000D02*
D03*
Y80000D02*
D03*
Y-10000D02*
D03*
Y0D02*
D03*
Y10000D02*
D03*
Y20000D02*
D03*
Y50000D02*
D03*
Y60000D02*
D03*
X22000Y105748D02*
D03*
X0Y105000D02*
D03*
X-5000D02*
D03*
X2500Y32500D02*
D03*
X-15063Y10062D02*
D03*
X-14821Y5216D02*
D03*
X-15000Y0D02*
D03*
X15500Y-10000D02*
D03*
X-5000Y-5000D02*
D03*
X-2500Y32500D02*
D03*
X10000Y2500D02*
D03*
X2500Y25000D02*
D03*
X-5000D02*
D03*
X-12500D02*
D03*
X-30000Y117500D02*
D03*
X-25000D02*
D03*
X-42500Y-10000D02*
D03*
X7500Y107500D02*
D03*
X15000Y87500D02*
D03*
X42500Y30000D02*
D03*
X37500Y72500D02*
D03*
X-40000Y126752D02*
D03*
X30000Y127500D02*
D03*
X-5000Y112500D02*
D03*
X0Y85000D02*
D03*
X-15000Y67500D02*
D03*
X-26648Y100000D02*
D03*
X0Y65000D02*
D03*
X-12500Y110000D02*
D03*
X15000Y80000D02*
D03*
X17500Y65000D02*
D03*
X42500Y125000D02*
D03*
X44000Y116000D02*
D03*
X18000D02*
D03*
X8000Y31500D02*
D03*
X10000Y12500D02*
D03*
X-2362Y47638D02*
D03*
X2362D02*
D03*
Y52362D02*
D03*
X-2362D02*
D03*
M02*
