G04*
G04 #@! TF.GenerationSoftware,Altium Limited,Altium Designer,21.2.2 (38)*
G04*
G04 Layer_Physical_Order=2*
G04 Layer_Color=16711680*
%FSLAX25Y25*%
%MOIN*%
G70*
G04*
G04 #@! TF.SameCoordinates,0000E620-6A5C-4488-86E2-F855693774CC*
G04*
G04*
G04 #@! TF.FilePolarity,Positive*
G04*
G01*
G75*
%ADD12C,0.00984*%
%ADD18C,0.03150*%
G04:AMPARAMS|DCode=32|XSize=39.37mil|YSize=78.74mil|CornerRadius=9.84mil|HoleSize=0mil|Usage=FLASHONLY|Rotation=0.000|XOffset=0mil|YOffset=0mil|HoleType=Round|Shape=RoundedRectangle|*
%AMROUNDEDRECTD32*
21,1,0.03937,0.05906,0,0,0.0*
21,1,0.01968,0.07874,0,0,0.0*
1,1,0.01968,0.00984,-0.02953*
1,1,0.01968,-0.00984,-0.02953*
1,1,0.01968,-0.00984,0.02953*
1,1,0.01968,0.00984,0.02953*
%
%ADD32ROUNDEDRECTD32*%
%ADD72C,0.01968*%
%ADD73C,0.05906*%
%ADD74R,0.05906X0.05906*%
%ADD75R,0.05906X0.05906*%
%ADD76O,0.03937X0.06063*%
%ADD77R,0.03937X0.06000*%
G04:AMPARAMS|DCode=78|XSize=66.93mil|YSize=55.12mil|CornerRadius=13.78mil|HoleSize=0mil|Usage=FLASHONLY|Rotation=270.000|XOffset=0mil|YOffset=0mil|HoleType=Round|Shape=RoundedRectangle|*
%AMROUNDEDRECTD78*
21,1,0.06693,0.02756,0,0,270.0*
21,1,0.03937,0.05512,0,0,270.0*
1,1,0.02756,-0.01378,-0.01968*
1,1,0.02756,-0.01378,0.01968*
1,1,0.02756,0.01378,0.01968*
1,1,0.02756,0.01378,-0.01968*
%
%ADD78ROUNDEDRECTD78*%
G04:AMPARAMS|DCode=79|XSize=60mil|YSize=49.21mil|CornerRadius=12.3mil|HoleSize=0mil|Usage=FLASHONLY|Rotation=180.000|XOffset=0mil|YOffset=0mil|HoleType=Round|Shape=RoundedRectangle|*
%AMROUNDEDRECTD79*
21,1,0.06000,0.02461,0,0,180.0*
21,1,0.03539,0.04921,0,0,180.0*
1,1,0.02461,-0.01770,0.01230*
1,1,0.02461,0.01770,0.01230*
1,1,0.02461,0.01770,-0.01230*
1,1,0.02461,-0.01770,-0.01230*
%
%ADD79ROUNDEDRECTD79*%
%ADD80C,0.03543*%
G36*
X47500Y133330D02*
X47462Y133308D01*
X46692Y132538D01*
X46148Y131596D01*
X45866Y130544D01*
Y129456D01*
X46148Y128404D01*
X46692Y127462D01*
X47462Y126692D01*
X47500Y126670D01*
Y124134D01*
X45866D01*
Y120206D01*
X45187Y120071D01*
X44634Y119702D01*
X44492Y119740D01*
X43508D01*
X42556Y119485D01*
X41704Y118993D01*
X41007Y118297D01*
X40515Y117444D01*
X40260Y116492D01*
Y115508D01*
X40515Y114556D01*
X41007Y113704D01*
X41294Y113417D01*
X38439Y110561D01*
X38439Y110561D01*
X24439Y96561D01*
X23960Y95845D01*
X23792Y95000D01*
Y67686D01*
X23766Y67541D01*
X23729Y67428D01*
X23695Y67366D01*
X23668Y67332D01*
X23634Y67305D01*
X23572Y67271D01*
X23459Y67234D01*
X23313Y67208D01*
X20544D01*
X20493Y67296D01*
X19796Y67993D01*
X18944Y68485D01*
X17992Y68740D01*
X17008D01*
X16056Y68485D01*
X15203Y67993D01*
X14507Y67296D01*
X14015Y66444D01*
X13760Y65492D01*
Y64508D01*
X14015Y63556D01*
X14507Y62704D01*
X15203Y62007D01*
X16056Y61515D01*
X17008Y61260D01*
X17992D01*
X18944Y61515D01*
X19796Y62007D01*
X20493Y62704D01*
X20544Y62792D01*
X23313D01*
X23459Y62766D01*
X23572Y62729D01*
X23634Y62695D01*
X23668Y62668D01*
X23695Y62634D01*
X23729Y62572D01*
X23766Y62459D01*
X23792Y62313D01*
Y31379D01*
X23766Y31234D01*
X23729Y31121D01*
X23695Y31059D01*
X23668Y31025D01*
X23634Y30997D01*
X23572Y30964D01*
X23459Y30926D01*
X23314Y30901D01*
X12220D01*
X11740Y31008D01*
Y31992D01*
X11485Y32944D01*
X10993Y33797D01*
X10296Y34493D01*
X9444Y34985D01*
X8492Y35240D01*
X7508D01*
X6556Y34985D01*
X6110Y34728D01*
X5493Y34797D01*
X4797Y35493D01*
X3944Y35985D01*
X2992Y36240D01*
X2008D01*
X1056Y35985D01*
X203Y35493D01*
X-493Y34797D01*
X-985Y33944D01*
X-1240Y32992D01*
Y32008D01*
X-985Y31056D01*
X-493Y30204D01*
X203Y29507D01*
X1056Y29015D01*
X1078Y29009D01*
Y28491D01*
X1056Y28485D01*
X203Y27993D01*
X-493Y27297D01*
X-985Y26444D01*
X-991Y26422D01*
X-1509D01*
X-1515Y26444D01*
X-2007Y27297D01*
X-2703Y27993D01*
X-3556Y28485D01*
X-4508Y28740D01*
X-5492D01*
X-6444Y28485D01*
X-7297Y27993D01*
X-7993Y27297D01*
X-8485Y26444D01*
X-8491Y26422D01*
X-9009D01*
X-9015Y26444D01*
X-9507Y27297D01*
X-10204Y27993D01*
X-11056Y28485D01*
X-12008Y28740D01*
X-12992D01*
X-13944Y28485D01*
X-14796Y27993D01*
X-15493Y27297D01*
X-15985Y26444D01*
X-16240Y25492D01*
Y24508D01*
X-15985Y23556D01*
X-15493Y22704D01*
X-14796Y22007D01*
X-13944Y21515D01*
X-12992Y21260D01*
X-12008D01*
X-11056Y21515D01*
X-10204Y22007D01*
X-9507Y22704D01*
X-9015Y23556D01*
X-9009Y23578D01*
X-8491D01*
X-8485Y23556D01*
X-7993Y22704D01*
X-7297Y22007D01*
X-6444Y21515D01*
X-5492Y21260D01*
X-4508D01*
X-3556Y21515D01*
X-2703Y22007D01*
X-2007Y22704D01*
X-1515Y23556D01*
X-1509Y23578D01*
X-991D01*
X-985Y23556D01*
X-493Y22704D01*
X203Y22007D01*
X1056Y21515D01*
X2008Y21260D01*
X2992D01*
X3944Y21515D01*
X4797Y22007D01*
X5493Y22704D01*
X5985Y23556D01*
X6240Y24508D01*
Y25492D01*
X5985Y26444D01*
X5493Y27297D01*
X4797Y27993D01*
X3944Y28485D01*
X3921Y28491D01*
Y29009D01*
X3944Y29015D01*
X4390Y29272D01*
X5007Y29204D01*
X5703Y28507D01*
X6556Y28015D01*
X7508Y27760D01*
X8492D01*
X8591Y27786D01*
X9246Y27132D01*
X9962Y26653D01*
X10807Y26485D01*
X23344D01*
X23496Y26462D01*
X23626Y26424D01*
X23699Y26390D01*
X23729Y26369D01*
X23741Y26356D01*
X23755Y26333D01*
X23777Y26277D01*
X23792Y26201D01*
Y26000D01*
X23826Y25828D01*
X23826Y25815D01*
X23833Y25796D01*
X23960Y25155D01*
X24439Y24439D01*
X30439Y18439D01*
X31155Y17960D01*
X32000Y17792D01*
X39456D01*
X39507Y17704D01*
X40203Y17007D01*
X41056Y16515D01*
X42008Y16260D01*
X42992D01*
X43944Y16515D01*
X44796Y17007D01*
X45366Y17577D01*
X45866Y17398D01*
Y15866D01*
X47500D01*
Y14134D01*
X45866D01*
Y12602D01*
X45366Y12423D01*
X44796Y12993D01*
X43944Y13485D01*
X42992Y13740D01*
X42008D01*
X41056Y13485D01*
X40203Y12993D01*
X39507Y12297D01*
X39015Y11444D01*
X38760Y10492D01*
Y9508D01*
X39015Y8556D01*
X39507Y7704D01*
X40203Y7007D01*
X41056Y6515D01*
X42008Y6260D01*
X42992D01*
X43944Y6515D01*
X44796Y7007D01*
X45366Y7577D01*
X45866Y7398D01*
Y5866D01*
X47500D01*
Y4134D01*
X45866D01*
Y2602D01*
X45366Y2423D01*
X44796Y2993D01*
X43944Y3485D01*
X42992Y3740D01*
X42008D01*
X41056Y3485D01*
X40203Y2993D01*
X39507Y2296D01*
X39456Y2208D01*
X37500D01*
X36655Y2040D01*
X35939Y1561D01*
X21586Y-12792D01*
X18650D01*
X18459Y-12330D01*
X18493Y-12297D01*
X18985Y-11444D01*
X19240Y-10492D01*
Y-9508D01*
X18985Y-8556D01*
X18493Y-7704D01*
X17797Y-7007D01*
X17483Y-6826D01*
Y-6153D01*
X17315Y-5308D01*
X16837Y-4592D01*
X15684Y-3439D01*
X14967Y-2960D01*
X14122Y-2792D01*
X6153D01*
X5308Y-2960D01*
X4592Y-3439D01*
X3439Y-4592D01*
X2960Y-5308D01*
X2792Y-6153D01*
Y-9078D01*
X2788Y-9139D01*
X2761Y-9362D01*
X2728Y-9545D01*
X2340Y-9730D01*
X2238Y-9742D01*
X2171Y-9735D01*
X2168Y-9734D01*
X1829Y-9507D01*
X984Y-9340D01*
X-984D01*
X-1829Y-9507D01*
X-2500Y-9956D01*
X-3171Y-9507D01*
X-4016Y-9340D01*
X-5984D01*
X-6829Y-9507D01*
X-7500Y-9956D01*
X-8171Y-9507D01*
X-9016Y-9340D01*
X-10984D01*
X-11829Y-9507D01*
X-12545Y-9986D01*
X-13024Y-10702D01*
X-13192Y-11547D01*
Y-12749D01*
X-13382Y-12781D01*
X-13513Y-12792D01*
X-16586D01*
X-30939Y1561D01*
X-31655Y2040D01*
X-32500Y2208D01*
X-39456D01*
X-39507Y2296D01*
X-40203Y2993D01*
X-41056Y3485D01*
X-42008Y3740D01*
X-42992D01*
X-43944Y3485D01*
X-44796Y2993D01*
X-45366Y2423D01*
X-45866Y2602D01*
Y4134D01*
X-47500D01*
Y5866D01*
X-45866D01*
Y7398D01*
X-45366Y7577D01*
X-44796Y7007D01*
X-43944Y6515D01*
X-42992Y6260D01*
X-42008D01*
X-41056Y6515D01*
X-40203Y7007D01*
X-39507Y7704D01*
X-39456Y7792D01*
X-33415D01*
X-24061Y-1561D01*
X-23345Y-2040D01*
X-22500Y-2208D01*
X-18044D01*
X-17993Y-2296D01*
X-17297Y-2993D01*
X-16444Y-3485D01*
X-15492Y-3740D01*
X-14508D01*
X-13556Y-3485D01*
X-12704Y-2993D01*
X-12007Y-2296D01*
X-11515Y-1444D01*
X-11260Y-492D01*
Y492D01*
X-11515Y1444D01*
X-12007Y2296D01*
X-12229Y2519D01*
X-11828Y2920D01*
X-11336Y3773D01*
X-11081Y4724D01*
Y5709D01*
X-11336Y6660D01*
X-11828Y7513D01*
X-12076Y7760D01*
X-12070Y7766D01*
X-11577Y8619D01*
X-11322Y9570D01*
Y10555D01*
X-11577Y11506D01*
X-12070Y12359D01*
X-12211Y12500D01*
X-12007Y12704D01*
X-11515Y13556D01*
X-11260Y14508D01*
Y15492D01*
X-11515Y16444D01*
X-12007Y17297D01*
X-12704Y17993D01*
X-13556Y18485D01*
X-14508Y18740D01*
X-15492D01*
X-16444Y18485D01*
X-17297Y17993D01*
X-17334Y17956D01*
X-38786Y39409D01*
X-38760Y39508D01*
Y40492D01*
X-39015Y41444D01*
X-39507Y42296D01*
X-40203Y42993D01*
X-41056Y43485D01*
X-42008Y43740D01*
X-42992D01*
X-43944Y43485D01*
X-44796Y42993D01*
X-45366Y42423D01*
X-45866Y42602D01*
Y44134D01*
X-47500D01*
Y45866D01*
X-45866D01*
Y47398D01*
X-45366Y47577D01*
X-44796Y47007D01*
X-43944Y46515D01*
X-42992Y46260D01*
X-42008D01*
X-41056Y46515D01*
X-40203Y47007D01*
X-39507Y47703D01*
X-39015Y48556D01*
X-38760Y49508D01*
Y50492D01*
X-39015Y51444D01*
X-39507Y52297D01*
X-40203Y52993D01*
X-41056Y53485D01*
X-42008Y53740D01*
X-42992D01*
X-43944Y53485D01*
X-44796Y52993D01*
X-45366Y52423D01*
X-45866Y52602D01*
Y54134D01*
X-47500D01*
Y55866D01*
X-45866D01*
Y64134D01*
X-47500D01*
Y65866D01*
X-45866D01*
Y74134D01*
X-47500D01*
Y75866D01*
X-45866D01*
Y77398D01*
X-45366Y77577D01*
X-44796Y77007D01*
X-43944Y76515D01*
X-42992Y76260D01*
X-42008D01*
X-41056Y76515D01*
X-40203Y77007D01*
X-39507Y77703D01*
X-39015Y78556D01*
X-38760Y79508D01*
Y80492D01*
X-39015Y81444D01*
X-39507Y82297D01*
X-40203Y82993D01*
X-41056Y83485D01*
X-42008Y83740D01*
X-42992D01*
X-43944Y83485D01*
X-44796Y82993D01*
X-45366Y82423D01*
X-45866Y82602D01*
Y84134D01*
X-47500D01*
Y85866D01*
X-45866D01*
Y87398D01*
X-45366Y87577D01*
X-44796Y87007D01*
X-43944Y86515D01*
X-42992Y86260D01*
X-42008D01*
X-41056Y86515D01*
X-40203Y87007D01*
X-39507Y87704D01*
X-39015Y88556D01*
X-38760Y89508D01*
Y90492D01*
X-39015Y91444D01*
X-39507Y92296D01*
X-40203Y92993D01*
X-41056Y93485D01*
X-42008Y93740D01*
X-42992D01*
X-43944Y93485D01*
X-44796Y92993D01*
X-45366Y92423D01*
X-45866Y92602D01*
Y94134D01*
X-47500D01*
Y96047D01*
X-46047D01*
Y98936D01*
X-46101Y98927D01*
X-46358Y98858D01*
X-46576Y98770D01*
X-46754Y98661D01*
X-46893Y98533D01*
X-46992Y98386D01*
X-47051Y98219D01*
X-47071Y98032D01*
Y99500D01*
X-50000D01*
Y100500D01*
X-47071D01*
Y101969D01*
X-47051Y101781D01*
X-46992Y101614D01*
X-46893Y101467D01*
X-46754Y101339D01*
X-46576Y101230D01*
X-46358Y101142D01*
X-46101Y101073D01*
X-46047Y101064D01*
Y103953D01*
X-47500D01*
Y105866D01*
X-45866D01*
Y109590D01*
X-45653D01*
X-44808Y109758D01*
X-44092Y110236D01*
X-42939Y111390D01*
X-42460Y112106D01*
X-42292Y112951D01*
Y128085D01*
X-41085Y129292D01*
X-29915D01*
X-27765Y127143D01*
X-27957Y126681D01*
X-28189D01*
Y126535D01*
X-28689Y126249D01*
X-29186Y126455D01*
X-29461Y126491D01*
Y122500D01*
Y118509D01*
X-29186Y118545D01*
X-29040Y118605D01*
X-28664Y118275D01*
X-28740Y117992D01*
Y117008D01*
X-28485Y116056D01*
X-27993Y115203D01*
X-27297Y114507D01*
X-26444Y114015D01*
X-25492Y113760D01*
X-24508D01*
X-23556Y114015D01*
X-22704Y114507D01*
X-22007Y115203D01*
X-21515Y116056D01*
X-21260Y117008D01*
Y117992D01*
X-21515Y118944D01*
X-21890Y119593D01*
Y119596D01*
X-21886Y119642D01*
X-21890Y119655D01*
Y125343D01*
X-21886Y125355D01*
X-21890Y125399D01*
Y125435D01*
X-21879Y125492D01*
X-21890Y125547D01*
Y126681D01*
X-22747D01*
X-22751Y126696D01*
X-22782Y126892D01*
X-22792Y127014D01*
Y127500D01*
X-22960Y128345D01*
X-23439Y129061D01*
X-27439Y133061D01*
X-28155Y133540D01*
X-29000Y133708D01*
X-42000D01*
X-42845Y133540D01*
X-43561Y133061D01*
X-45557Y131065D01*
X-46040Y131194D01*
X-46148Y131596D01*
X-46692Y132538D01*
X-47462Y133308D01*
X-47500Y133330D01*
Y135989D01*
X47500D01*
Y133330D01*
D02*
G37*
G36*
X-24006Y127083D02*
X-23978Y126748D01*
X-23932Y126453D01*
X-23866Y126197D01*
X-23783Y125980D01*
X-23680Y125803D01*
X-23559Y125665D01*
X-23419Y125567D01*
X-23260Y125508D01*
X-23083Y125488D01*
X-26969Y125476D01*
X-26781Y125496D01*
X-26614Y125556D01*
X-26467Y125655D01*
X-26339Y125794D01*
X-26230Y125973D01*
X-26142Y126190D01*
X-26073Y126448D01*
X-26024Y126744D01*
X-25994Y127081D01*
X-25984Y127456D01*
X-24016D01*
X-24006Y127083D01*
D02*
G37*
G36*
X47059Y117059D02*
X46445Y117052D01*
X46352Y116957D01*
X46028Y116578D01*
X45949Y116467D01*
X45885Y116362D01*
X45835Y116265D01*
X45799Y116176D01*
X45778Y116093D01*
X45772Y116018D01*
X44018Y117772D01*
X44093Y117778D01*
X44176Y117799D01*
X44265Y117835D01*
X44363Y117885D01*
X44467Y117949D01*
X44578Y118028D01*
X44823Y118230D01*
X44957Y118352D01*
X45097Y118489D01*
X46031Y117555D01*
Y119016D01*
X47071Y119059D01*
X47059Y117059D01*
D02*
G37*
G36*
X-24033Y119853D02*
X-24006Y119512D01*
X-23083D01*
X-23264Y119492D01*
X-23426Y119433D01*
X-23569Y119335D01*
X-23693Y119197D01*
X-23797Y119020D01*
X-23852Y118883D01*
X-23824Y118837D01*
X-23774Y118779D01*
X-23890Y118778D01*
X-23950Y118547D01*
X-23997Y118252D01*
X-24026Y117918D01*
X-24035Y117543D01*
X-26004D01*
X-26014Y117918D01*
X-26043Y118252D01*
X-26092Y118547D01*
X-26148Y118753D01*
X-26254Y118751D01*
X-26207Y118809D01*
X-26182Y118852D01*
X-26250Y119020D01*
X-26358Y119197D01*
X-26486Y119335D01*
X-26634Y119433D01*
X-26801Y119492D01*
X-26988Y119512D01*
X-26027D01*
X-26014Y119645D01*
X-26006Y119826D01*
X-26004Y120023D01*
X-24035Y120049D01*
X-24033Y119853D01*
D02*
G37*
G36*
X45408Y114914D02*
X45383Y114847D01*
X45360Y114764D01*
X45340Y114664D01*
X45324Y114547D01*
X45299Y114265D01*
X45286Y113718D01*
X43317Y113302D01*
X43314Y113498D01*
X43288Y113841D01*
X43265Y113988D01*
X43236Y114120D01*
X43200Y114236D01*
X43158Y114337D01*
X43110Y114421D01*
X43055Y114490D01*
X42993Y114542D01*
X45437Y114964D01*
X45408Y114914D01*
D02*
G37*
G36*
X-47045Y112910D02*
X-47003Y112883D01*
X-46933Y112860D01*
X-46834Y112839D01*
X-46708Y112821D01*
X-46370Y112796D01*
X-45653Y112782D01*
Y110813D01*
X-45922Y110809D01*
X-46376Y110775D01*
X-46560Y110746D01*
X-46716Y110708D01*
X-46843Y110661D01*
X-46943Y110607D01*
X-47014Y110543D01*
X-47057Y110471D01*
X-47071Y110391D01*
X-47059Y112941D01*
X-47045Y112910D01*
D02*
G37*
G36*
X47071Y109994D02*
X47055Y110112D01*
X47006Y110217D01*
X46925Y110310D01*
X46811Y110391D01*
X46666Y110459D01*
X46488Y110515D01*
X46278Y110559D01*
X46036Y110590D01*
X45761Y110608D01*
X45454Y110615D01*
Y112583D01*
X45759Y112587D01*
X46481Y112640D01*
X46658Y112672D01*
X46802Y112712D01*
X46915Y112758D01*
X46995Y112812D01*
X47043Y112873D01*
X47059Y112941D01*
X47071Y109994D01*
D02*
G37*
G36*
X-43765Y88760D02*
X-43823Y88809D01*
X-43896Y88852D01*
X-43985Y88890D01*
X-44089Y88924D01*
X-44208Y88952D01*
X-44343Y88975D01*
X-44659Y89006D01*
X-44840Y89013D01*
X-45036Y89016D01*
Y90984D01*
X-44840Y90987D01*
X-44343Y91025D01*
X-44208Y91048D01*
X-44089Y91076D01*
X-43985Y91110D01*
X-43896Y91148D01*
X-43823Y91192D01*
X-43765Y91240D01*
Y88760D01*
D02*
G37*
G36*
X44610Y109559D02*
X45454Y109391D01*
X45866D01*
Y105866D01*
X47500D01*
Y103953D01*
X46047D01*
Y100500D01*
X50000D01*
Y99500D01*
X46047D01*
Y96047D01*
X47500D01*
Y93953D01*
X46047D01*
Y91064D01*
X46101Y91073D01*
X46358Y91142D01*
X46576Y91230D01*
X46754Y91339D01*
X46893Y91466D01*
X46992Y91614D01*
X47051Y91782D01*
X47071Y91969D01*
Y90500D01*
X50000D01*
Y89500D01*
X47071D01*
Y88032D01*
X47051Y88218D01*
X46992Y88386D01*
X46893Y88534D01*
X46754Y88661D01*
X46576Y88770D01*
X46358Y88858D01*
X46101Y88927D01*
X46047Y88936D01*
Y86047D01*
X47500D01*
Y84134D01*
X45866D01*
Y82602D01*
X45366Y82423D01*
X44796Y82993D01*
X43944Y83485D01*
X42992Y83740D01*
X42008D01*
X41056Y83485D01*
X40203Y82993D01*
X39507Y82297D01*
X39015Y81444D01*
X38760Y80492D01*
Y79508D01*
X39015Y78556D01*
X39507Y77703D01*
X40203Y77007D01*
X41056Y76515D01*
X42008Y76260D01*
X42992D01*
X43944Y76515D01*
X44796Y77007D01*
X45366Y77577D01*
X45866Y77398D01*
Y75866D01*
X47500D01*
Y74134D01*
X45866D01*
Y72257D01*
X45846Y72251D01*
X45652Y72219D01*
X45522Y72208D01*
X41341D01*
X41240Y72308D01*
Y72992D01*
X40985Y73944D01*
X40493Y74796D01*
X39797Y75493D01*
X38944Y75985D01*
X37992Y76240D01*
X37008D01*
X36056Y75985D01*
X35203Y75493D01*
X34507Y74796D01*
X34015Y73944D01*
X33760Y72992D01*
Y72008D01*
X34015Y71056D01*
X34507Y70204D01*
X35203Y69507D01*
X36056Y69015D01*
X37008Y68760D01*
X37992D01*
X38427Y68876D01*
X38865Y68439D01*
X39581Y67960D01*
X40426Y67792D01*
X45522D01*
X45652Y67781D01*
X45846Y67749D01*
X45866Y67743D01*
Y65866D01*
X47500D01*
Y64134D01*
X45866D01*
Y62602D01*
X45366Y62423D01*
X44796Y62993D01*
X43944Y63485D01*
X42992Y63740D01*
X42008D01*
X41056Y63485D01*
X40203Y62993D01*
X39507Y62296D01*
X39015Y61444D01*
X38760Y60492D01*
Y59508D01*
X39015Y58556D01*
X39507Y57704D01*
X40203Y57007D01*
X41056Y56515D01*
X42008Y56260D01*
X42992D01*
X43944Y56515D01*
X44796Y57007D01*
X45366Y57577D01*
X45866Y57398D01*
Y55866D01*
X47500D01*
Y54134D01*
X45866D01*
Y52602D01*
X45366Y52423D01*
X44796Y52993D01*
X43944Y53485D01*
X42992Y53740D01*
X42008D01*
X41056Y53485D01*
X40203Y52993D01*
X39507Y52297D01*
X39015Y51444D01*
X38760Y50492D01*
Y49508D01*
X39015Y48556D01*
X39507Y47703D01*
X40203Y47007D01*
X41056Y46515D01*
X42008Y46260D01*
X42992D01*
X43944Y46515D01*
X44796Y47007D01*
X45366Y47577D01*
X45866Y47398D01*
Y45866D01*
X47500D01*
Y44134D01*
X45866D01*
Y42602D01*
X45366Y42423D01*
X44796Y42993D01*
X43944Y43485D01*
X42992Y43740D01*
X42008D01*
X41056Y43485D01*
X40203Y42993D01*
X39507Y42296D01*
X39015Y41444D01*
X38760Y40492D01*
Y39508D01*
X39015Y38556D01*
X39507Y37703D01*
X40203Y37007D01*
X41056Y36515D01*
X42008Y36260D01*
X42992D01*
X43944Y36515D01*
X44796Y37007D01*
X45366Y37577D01*
X45866Y37398D01*
Y35866D01*
X47500D01*
Y33953D01*
X46047D01*
Y31064D01*
X46101Y31073D01*
X46358Y31142D01*
X46576Y31230D01*
X46754Y31339D01*
X46893Y31466D01*
X46992Y31614D01*
X47051Y31782D01*
X47071Y31969D01*
Y30500D01*
X50000D01*
Y29500D01*
X47071D01*
Y28032D01*
X47051Y28218D01*
X46992Y28386D01*
X46893Y28534D01*
X46754Y28661D01*
X46576Y28770D01*
X46358Y28858D01*
X46101Y28927D01*
X46047Y28936D01*
Y26047D01*
X47500D01*
Y24134D01*
X45866D01*
Y22602D01*
X45366Y22423D01*
X44796Y22993D01*
X43944Y23485D01*
X42992Y23740D01*
X42008D01*
X41056Y23485D01*
X40203Y22993D01*
X39507Y22297D01*
X39456Y22208D01*
X32915D01*
X28208Y26915D01*
Y28693D01*
Y65000D01*
Y94086D01*
X41561Y107439D01*
X41561Y107439D01*
X44053Y109931D01*
X44610Y109559D01*
D02*
G37*
G36*
X-47051Y91782D02*
X-46992Y91614D01*
X-46893Y91466D01*
X-46754Y91339D01*
X-46576Y91230D01*
X-46358Y91142D01*
X-46101Y91073D01*
X-45804Y91024D01*
X-45467Y90994D01*
X-45091Y90984D01*
Y89016D01*
X-45467Y89006D01*
X-45804Y88976D01*
X-46101Y88927D01*
X-46358Y88858D01*
X-46576Y88770D01*
X-46754Y88661D01*
X-46893Y88534D01*
X-46992Y88386D01*
X-47051Y88218D01*
X-47071Y88032D01*
Y91969D01*
X-47051Y91782D01*
D02*
G37*
G36*
X43823Y81191D02*
X43896Y81148D01*
X43985Y81110D01*
X44089Y81076D01*
X44208Y81048D01*
X44343Y81025D01*
X44659Y80994D01*
X44840Y80987D01*
X45036Y80984D01*
Y79016D01*
X44840Y79013D01*
X44343Y78975D01*
X44208Y78952D01*
X44089Y78924D01*
X43985Y78890D01*
X43896Y78852D01*
X43823Y78808D01*
X43765Y78760D01*
Y81240D01*
X43823Y81191D01*
D02*
G37*
G36*
X-43765Y78760D02*
X-43823Y78808D01*
X-43896Y78852D01*
X-43985Y78890D01*
X-44089Y78924D01*
X-44208Y78952D01*
X-44343Y78975D01*
X-44659Y79005D01*
X-44840Y79013D01*
X-45036Y79016D01*
Y80984D01*
X-44840Y80987D01*
X-44343Y81025D01*
X-44208Y81048D01*
X-44089Y81076D01*
X-43985Y81110D01*
X-43896Y81148D01*
X-43823Y81191D01*
X-43765Y81240D01*
Y78760D01*
D02*
G37*
G36*
X47071Y78031D02*
X47051Y78219D01*
X46992Y78386D01*
X46893Y78534D01*
X46754Y78661D01*
X46576Y78770D01*
X46358Y78858D01*
X46101Y78927D01*
X45804Y78976D01*
X45467Y79006D01*
X45091Y79016D01*
Y80984D01*
X45467Y80994D01*
X45804Y81024D01*
X46101Y81073D01*
X46358Y81142D01*
X46576Y81230D01*
X46754Y81339D01*
X46893Y81467D01*
X46992Y81614D01*
X47051Y81782D01*
X47071Y81968D01*
Y78031D01*
D02*
G37*
G36*
X-47051Y81782D02*
X-46992Y81614D01*
X-46893Y81467D01*
X-46754Y81339D01*
X-46576Y81230D01*
X-46358Y81142D01*
X-46101Y81073D01*
X-45804Y81024D01*
X-45467Y80994D01*
X-45091Y80984D01*
Y79016D01*
X-45467Y79006D01*
X-45804Y78976D01*
X-46101Y78927D01*
X-46358Y78858D01*
X-46576Y78770D01*
X-46754Y78661D01*
X-46893Y78534D01*
X-46992Y78386D01*
X-47051Y78219D01*
X-47071Y78031D01*
Y81968D01*
X-47051Y81782D01*
D02*
G37*
G36*
X39264Y72728D02*
X39293Y72662D01*
X39336Y72587D01*
X39393Y72503D01*
X39463Y72409D01*
X39645Y72192D01*
X40023Y71795D01*
X38925Y70109D01*
X38784Y70245D01*
X38523Y70470D01*
X38403Y70558D01*
X38289Y70631D01*
X38182Y70688D01*
X38081Y70729D01*
X37987Y70754D01*
X37900Y70763D01*
X37819Y70757D01*
X39249Y72784D01*
X39264Y72728D01*
D02*
G37*
G36*
X47071Y68032D02*
X47051Y68218D01*
X46992Y68386D01*
X46893Y68533D01*
X46754Y68661D01*
X46576Y68770D01*
X46358Y68858D01*
X46101Y68927D01*
X45804Y68976D01*
X45467Y69006D01*
X45091Y69016D01*
Y70984D01*
X45467Y70994D01*
X45804Y71024D01*
X46101Y71073D01*
X46358Y71142D01*
X46576Y71230D01*
X46754Y71339D01*
X46893Y71466D01*
X46992Y71614D01*
X47051Y71781D01*
X47071Y71969D01*
Y68032D01*
D02*
G37*
G36*
X18823Y66192D02*
X18896Y66148D01*
X18985Y66110D01*
X19089Y66076D01*
X19208Y66048D01*
X19343Y66025D01*
X19659Y65995D01*
X19840Y65987D01*
X20036Y65984D01*
Y64016D01*
X19840Y64013D01*
X19343Y63975D01*
X19208Y63952D01*
X19089Y63924D01*
X18985Y63890D01*
X18896Y63852D01*
X18823Y63809D01*
X18765Y63760D01*
Y66240D01*
X18823Y66192D01*
D02*
G37*
G36*
X26984Y65000D02*
X25016Y62047D01*
X24996Y62421D01*
X24937Y62756D01*
X24839Y63051D01*
X24701Y63307D01*
X24524Y63524D01*
X24307Y63701D01*
X24051Y63839D01*
X23756Y63937D01*
X23421Y63996D01*
X23047Y64016D01*
Y65984D01*
X23421Y66004D01*
X23756Y66063D01*
X24051Y66161D01*
X24307Y66299D01*
X24524Y66476D01*
X24701Y66693D01*
X24839Y66949D01*
X24937Y67244D01*
X24996Y67579D01*
X25016Y67953D01*
X26984Y65000D01*
D02*
G37*
G36*
X43823Y61191D02*
X43896Y61148D01*
X43985Y61110D01*
X44089Y61076D01*
X44208Y61048D01*
X44343Y61025D01*
X44659Y60994D01*
X44840Y60987D01*
X45036Y60984D01*
Y59016D01*
X44840Y59013D01*
X44343Y58975D01*
X44208Y58952D01*
X44089Y58924D01*
X43985Y58890D01*
X43896Y58852D01*
X43823Y58808D01*
X43765Y58760D01*
Y61240D01*
X43823Y61191D01*
D02*
G37*
G36*
X47071Y58031D02*
X47051Y58218D01*
X46992Y58386D01*
X46893Y58534D01*
X46754Y58661D01*
X46576Y58770D01*
X46358Y58858D01*
X46101Y58927D01*
X45804Y58976D01*
X45467Y59006D01*
X45091Y59016D01*
Y60984D01*
X45467Y60994D01*
X45804Y61024D01*
X46101Y61073D01*
X46358Y61142D01*
X46576Y61230D01*
X46754Y61339D01*
X46893Y61466D01*
X46992Y61614D01*
X47051Y61782D01*
X47071Y61968D01*
Y58031D01*
D02*
G37*
G36*
X-43765Y48760D02*
X-43823Y48809D01*
X-43896Y48852D01*
X-43985Y48890D01*
X-44089Y48924D01*
X-44208Y48952D01*
X-44343Y48975D01*
X-44659Y49005D01*
X-44840Y49013D01*
X-45036Y49016D01*
Y50984D01*
X-44840Y50987D01*
X-44343Y51025D01*
X-44208Y51048D01*
X-44089Y51076D01*
X-43985Y51110D01*
X-43896Y51148D01*
X-43823Y51192D01*
X-43765Y51240D01*
Y48760D01*
D02*
G37*
G36*
X-47051Y51781D02*
X-46992Y51614D01*
X-46893Y51467D01*
X-46754Y51339D01*
X-46576Y51230D01*
X-46358Y51142D01*
X-46101Y51073D01*
X-45804Y51024D01*
X-45467Y50994D01*
X-45091Y50984D01*
Y49016D01*
X-45467Y49006D01*
X-45804Y48976D01*
X-46101Y48927D01*
X-46358Y48858D01*
X-46576Y48770D01*
X-46754Y48661D01*
X-46893Y48533D01*
X-46992Y48386D01*
X-47051Y48219D01*
X-47071Y48031D01*
Y51968D01*
X-47051Y51781D01*
D02*
G37*
G36*
X43823Y41192D02*
X43896Y41148D01*
X43985Y41110D01*
X44089Y41076D01*
X44208Y41048D01*
X44343Y41025D01*
X44659Y40995D01*
X44840Y40987D01*
X45036Y40984D01*
Y39016D01*
X44840Y39013D01*
X44343Y38975D01*
X44208Y38952D01*
X44089Y38924D01*
X43985Y38890D01*
X43896Y38852D01*
X43823Y38809D01*
X43765Y38760D01*
Y41240D01*
X43823Y41192D01*
D02*
G37*
G36*
X-43765Y38760D02*
X-43823Y38809D01*
X-43896Y38852D01*
X-43985Y38890D01*
X-44089Y38924D01*
X-44208Y38952D01*
X-44343Y38975D01*
X-44659Y39006D01*
X-44840Y39013D01*
X-45036Y39016D01*
Y40984D01*
X-44840Y40987D01*
X-44343Y41025D01*
X-44208Y41048D01*
X-44089Y41076D01*
X-43985Y41110D01*
X-43896Y41148D01*
X-43823Y41192D01*
X-43765Y41240D01*
Y38760D01*
D02*
G37*
G36*
X47071Y38032D02*
X47051Y38219D01*
X46992Y38386D01*
X46893Y38533D01*
X46754Y38661D01*
X46576Y38770D01*
X46358Y38858D01*
X46101Y38927D01*
X45804Y38976D01*
X45467Y39006D01*
X45091Y39016D01*
Y40984D01*
X45467Y40994D01*
X45804Y41024D01*
X46101Y41073D01*
X46358Y41142D01*
X46576Y41230D01*
X46754Y41339D01*
X46893Y41467D01*
X46992Y41614D01*
X47051Y41781D01*
X47071Y41969D01*
Y38032D01*
D02*
G37*
G36*
X-47051Y41781D02*
X-46992Y41614D01*
X-46893Y41467D01*
X-46754Y41339D01*
X-46576Y41230D01*
X-46358Y41142D01*
X-46101Y41073D01*
X-45804Y41024D01*
X-45467Y40994D01*
X-45091Y40984D01*
Y39016D01*
X-45467Y39006D01*
X-45804Y38976D01*
X-46101Y38927D01*
X-46358Y38858D01*
X-46576Y38770D01*
X-46754Y38661D01*
X-46893Y38533D01*
X-46992Y38386D01*
X-47051Y38219D01*
X-47071Y38032D01*
Y41969D01*
X-47051Y41781D01*
D02*
G37*
G36*
X-40722Y39907D02*
X-40701Y39824D01*
X-40665Y39735D01*
X-40615Y39638D01*
X-40551Y39533D01*
X-40472Y39422D01*
X-40270Y39177D01*
X-40148Y39043D01*
X-40011Y38903D01*
X-41403Y37511D01*
X-41543Y37648D01*
X-41922Y37972D01*
X-42033Y38051D01*
X-42138Y38115D01*
X-42235Y38165D01*
X-42324Y38201D01*
X-42407Y38222D01*
X-42482Y38228D01*
X-40728Y39982D01*
X-40722Y39907D01*
D02*
G37*
G36*
X9778Y31407D02*
X9799Y31324D01*
X9835Y31235D01*
X9885Y31137D01*
X9949Y31033D01*
X10028Y30922D01*
X10230Y30677D01*
X10352Y30543D01*
X10489Y30403D01*
X9097Y29011D01*
X8957Y29148D01*
X8578Y29472D01*
X8467Y29551D01*
X8362Y29615D01*
X8265Y29665D01*
X8176Y29701D01*
X8093Y29722D01*
X8018Y29728D01*
X9772Y31482D01*
X9778Y31407D01*
D02*
G37*
G36*
X-40956Y30888D02*
X-40921Y30882D01*
X-40865Y30878D01*
X-40433Y30865D01*
X-39889Y30862D01*
X-40053Y28894D01*
X-41108Y28904D01*
X-40970Y30894D01*
X-40956Y30888D01*
D02*
G37*
G36*
X-43765Y28760D02*
X-43823Y28809D01*
X-43896Y28852D01*
X-43985Y28890D01*
X-44089Y28924D01*
X-44208Y28952D01*
X-44343Y28975D01*
X-44659Y29006D01*
X-44840Y29013D01*
X-45036Y29016D01*
Y30984D01*
X-44840Y30987D01*
X-44343Y31025D01*
X-44208Y31048D01*
X-44089Y31076D01*
X-43985Y31110D01*
X-43896Y31148D01*
X-43823Y31192D01*
X-43765Y31240D01*
Y28760D01*
D02*
G37*
G36*
X-47051Y31782D02*
X-46992Y31614D01*
X-46893Y31466D01*
X-46754Y31339D01*
X-46576Y31230D01*
X-46358Y31142D01*
X-46101Y31073D01*
X-45804Y31024D01*
X-45467Y30994D01*
X-45091Y30984D01*
Y29016D01*
X-45467Y29006D01*
X-45804Y28976D01*
X-46101Y28927D01*
X-46358Y28858D01*
X-46576Y28770D01*
X-46754Y28661D01*
X-46893Y28534D01*
X-46992Y28386D01*
X-47051Y28218D01*
X-47071Y28032D01*
Y31969D01*
X-47051Y31782D01*
D02*
G37*
G36*
X26984Y28693D02*
X25016Y26000D01*
X24996Y26325D01*
X24937Y26615D01*
X24839Y26871D01*
X24701Y27093D01*
X24524Y27281D01*
X24307Y27435D01*
X24051Y27555D01*
X23756Y27640D01*
X23421Y27692D01*
X23047Y27709D01*
Y29677D01*
X23421Y29697D01*
X23756Y29756D01*
X24051Y29854D01*
X24307Y29992D01*
X24524Y30169D01*
X24701Y30386D01*
X24839Y30642D01*
X24937Y30937D01*
X24996Y31271D01*
X25016Y31646D01*
X26984Y28693D01*
D02*
G37*
G36*
X43823Y21192D02*
X43896Y21148D01*
X43985Y21110D01*
X44089Y21076D01*
X44208Y21048D01*
X44343Y21025D01*
X44659Y20994D01*
X44840Y20987D01*
X45036Y20984D01*
Y19016D01*
X44840Y19013D01*
X44343Y18975D01*
X44208Y18952D01*
X44089Y18924D01*
X43985Y18890D01*
X43896Y18852D01*
X43823Y18809D01*
X43765Y18760D01*
Y21240D01*
X43823Y21192D01*
D02*
G37*
G36*
X41235Y18760D02*
X41177Y18809D01*
X41104Y18852D01*
X41015Y18890D01*
X40911Y18924D01*
X40792Y18952D01*
X40657Y18975D01*
X40341Y19005D01*
X40160Y19013D01*
X39964Y19016D01*
Y20984D01*
X40160Y20987D01*
X40657Y21025D01*
X40792Y21048D01*
X40911Y21076D01*
X41015Y21110D01*
X41104Y21148D01*
X41177Y21192D01*
X41235Y21240D01*
Y18760D01*
D02*
G37*
G36*
X47071Y18032D02*
X47051Y18218D01*
X46992Y18386D01*
X46893Y18533D01*
X46754Y18661D01*
X46576Y18770D01*
X46358Y18858D01*
X46101Y18927D01*
X45804Y18976D01*
X45467Y19006D01*
X45091Y19016D01*
Y20984D01*
X45467Y20994D01*
X45804Y21024D01*
X46101Y21073D01*
X46358Y21142D01*
X46576Y21230D01*
X46754Y21339D01*
X46893Y21466D01*
X46992Y21614D01*
X47051Y21781D01*
X47071Y21969D01*
Y18032D01*
D02*
G37*
G36*
X-47051Y21781D02*
X-46992Y21614D01*
X-46893Y21466D01*
X-46754Y21339D01*
X-46576Y21230D01*
X-46358Y21142D01*
X-46101Y21073D01*
X-45804Y21024D01*
X-45467Y20994D01*
X-45091Y20984D01*
Y19016D01*
X-45467Y19006D01*
X-45804Y18976D01*
X-46101Y18927D01*
X-46358Y18858D01*
X-46576Y18770D01*
X-46754Y18661D01*
X-46893Y18533D01*
X-46992Y18386D01*
X-47051Y18218D01*
X-47071Y18032D01*
Y21969D01*
X-47051Y21781D01*
D02*
G37*
G36*
X-16392Y16096D02*
X-16530Y14106D01*
X-16544Y14112D01*
X-16579Y14118D01*
X-16635Y14122D01*
X-17067Y14135D01*
X-17611Y14138D01*
X-17447Y16106D01*
X-16392Y16096D01*
D02*
G37*
G36*
X-16328Y8822D02*
X-16386Y8871D01*
X-16459Y8914D01*
X-16547Y8953D01*
X-16651Y8986D01*
X-16771Y9014D01*
X-16906Y9037D01*
X-17221Y9068D01*
X-17402Y9076D01*
X-17598Y9078D01*
Y11047D01*
X-17402Y11049D01*
X-16906Y11088D01*
X-16771Y11111D01*
X-16651Y11139D01*
X-16547Y11172D01*
X-16459Y11210D01*
X-16386Y11254D01*
X-16328Y11303D01*
Y8822D01*
D02*
G37*
G36*
X43823Y11191D02*
X43896Y11148D01*
X43985Y11110D01*
X44089Y11076D01*
X44208Y11048D01*
X44343Y11025D01*
X44659Y10994D01*
X44840Y10987D01*
X45036Y10984D01*
Y9016D01*
X44840Y9013D01*
X44343Y8975D01*
X44208Y8952D01*
X44089Y8924D01*
X43985Y8890D01*
X43896Y8852D01*
X43823Y8809D01*
X43765Y8760D01*
Y11240D01*
X43823Y11191D01*
D02*
G37*
G36*
X-41177D02*
X-41104Y11148D01*
X-41015Y11110D01*
X-40911Y11076D01*
X-40792Y11048D01*
X-40657Y11025D01*
X-40341Y10994D01*
X-40160Y10987D01*
X-39964Y10984D01*
Y9016D01*
X-40160Y9013D01*
X-40657Y8975D01*
X-40792Y8952D01*
X-40911Y8924D01*
X-41015Y8890D01*
X-41104Y8852D01*
X-41177Y8809D01*
X-41235Y8760D01*
Y11240D01*
X-41177Y11191D01*
D02*
G37*
G36*
X-43765Y8760D02*
X-43823Y8809D01*
X-43896Y8852D01*
X-43985Y8890D01*
X-44089Y8924D01*
X-44208Y8952D01*
X-44343Y8975D01*
X-44659Y9005D01*
X-44840Y9013D01*
X-45036Y9016D01*
Y10984D01*
X-44840Y10987D01*
X-44343Y11025D01*
X-44208Y11048D01*
X-44089Y11076D01*
X-43985Y11110D01*
X-43896Y11148D01*
X-43823Y11191D01*
X-43765Y11240D01*
Y8760D01*
D02*
G37*
G36*
X47071Y8032D02*
X47051Y8219D01*
X46992Y8386D01*
X46893Y8534D01*
X46754Y8661D01*
X46576Y8770D01*
X46358Y8858D01*
X46101Y8927D01*
X45804Y8976D01*
X45467Y9006D01*
X45091Y9016D01*
Y10984D01*
X45467Y10994D01*
X45804Y11024D01*
X46101Y11073D01*
X46358Y11142D01*
X46576Y11230D01*
X46754Y11339D01*
X46893Y11467D01*
X46992Y11614D01*
X47051Y11782D01*
X47071Y11969D01*
Y8032D01*
D02*
G37*
G36*
X-47051Y11782D02*
X-46992Y11614D01*
X-46893Y11467D01*
X-46754Y11339D01*
X-46576Y11230D01*
X-46358Y11142D01*
X-46101Y11073D01*
X-45804Y11024D01*
X-45467Y10994D01*
X-45091Y10984D01*
Y9016D01*
X-45467Y9006D01*
X-45804Y8976D01*
X-46101Y8927D01*
X-46358Y8858D01*
X-46576Y8770D01*
X-46754Y8661D01*
X-46893Y8534D01*
X-46992Y8386D01*
X-47051Y8219D01*
X-47071Y8032D01*
Y11969D01*
X-47051Y11782D01*
D02*
G37*
G36*
X-15925Y3831D02*
X-15980Y3866D01*
X-16050Y3898D01*
X-16136Y3925D01*
X-16239Y3949D01*
X-16357Y3969D01*
X-16641Y3999D01*
X-16989Y4014D01*
X-17187Y4016D01*
X-17481Y5984D01*
X-17285Y5987D01*
X-16941Y6012D01*
X-16792Y6034D01*
X-16659Y6061D01*
X-16542Y6095D01*
X-16440Y6135D01*
X-16354Y6182D01*
X-16283Y6234D01*
X-16228Y6293D01*
X-15925Y3831D01*
D02*
G37*
G36*
X43823Y1192D02*
X43896Y1148D01*
X43985Y1110D01*
X44089Y1076D01*
X44208Y1048D01*
X44343Y1025D01*
X44659Y994D01*
X44840Y987D01*
X45036Y984D01*
Y-984D01*
X44840Y-987D01*
X44343Y-1025D01*
X44208Y-1048D01*
X44089Y-1076D01*
X43985Y-1110D01*
X43896Y-1148D01*
X43823Y-1192D01*
X43765Y-1240D01*
Y1240D01*
X43823Y1192D01*
D02*
G37*
G36*
X41235Y-1240D02*
X41177Y-1192D01*
X41104Y-1148D01*
X41015Y-1110D01*
X40911Y-1076D01*
X40792Y-1048D01*
X40657Y-1025D01*
X40341Y-994D01*
X40160Y-987D01*
X39964Y-984D01*
Y984D01*
X40160Y987D01*
X40657Y1025D01*
X40792Y1048D01*
X40911Y1076D01*
X41015Y1110D01*
X41104Y1148D01*
X41177Y1192D01*
X41235Y1240D01*
Y-1240D01*
D02*
G37*
G36*
X-16265D02*
X-16323Y-1192D01*
X-16396Y-1148D01*
X-16485Y-1110D01*
X-16589Y-1076D01*
X-16708Y-1048D01*
X-16843Y-1025D01*
X-17159Y-994D01*
X-17340Y-987D01*
X-17536Y-984D01*
Y984D01*
X-17340Y987D01*
X-16843Y1025D01*
X-16708Y1048D01*
X-16589Y1076D01*
X-16485Y1110D01*
X-16396Y1148D01*
X-16323Y1192D01*
X-16265Y1240D01*
Y-1240D01*
D02*
G37*
G36*
X-41177Y1192D02*
X-41104Y1148D01*
X-41015Y1110D01*
X-40911Y1076D01*
X-40792Y1048D01*
X-40657Y1025D01*
X-40341Y994D01*
X-40160Y987D01*
X-39964Y984D01*
Y-984D01*
X-40160Y-987D01*
X-40657Y-1025D01*
X-40792Y-1048D01*
X-40911Y-1076D01*
X-41015Y-1110D01*
X-41104Y-1148D01*
X-41177Y-1192D01*
X-41235Y-1240D01*
Y1240D01*
X-41177Y1192D01*
D02*
G37*
G36*
X-43765Y-1240D02*
X-43823Y-1192D01*
X-43896Y-1148D01*
X-43985Y-1110D01*
X-44089Y-1076D01*
X-44208Y-1048D01*
X-44343Y-1025D01*
X-44659Y-994D01*
X-44840Y-987D01*
X-45036Y-984D01*
Y984D01*
X-44840Y987D01*
X-44343Y1025D01*
X-44208Y1048D01*
X-44089Y1076D01*
X-43985Y1110D01*
X-43896Y1148D01*
X-43823Y1192D01*
X-43765Y1240D01*
Y-1240D01*
D02*
G37*
G36*
X47071Y-1969D02*
X47052Y-1781D01*
X46992Y-1614D01*
X46893Y-1467D01*
X46754Y-1339D01*
X46576Y-1230D01*
X46358Y-1142D01*
X46101Y-1073D01*
X45804Y-1024D01*
X45467Y-994D01*
X45091Y-984D01*
Y984D01*
X45467Y994D01*
X45804Y1024D01*
X46101Y1073D01*
X46358Y1142D01*
X46576Y1230D01*
X46754Y1339D01*
X46893Y1467D01*
X46992Y1614D01*
X47052Y1781D01*
X47071Y1969D01*
Y-1969D01*
D02*
G37*
G36*
X-47051Y1781D02*
X-46992Y1614D01*
X-46893Y1467D01*
X-46754Y1339D01*
X-46576Y1230D01*
X-46358Y1142D01*
X-46101Y1073D01*
X-45804Y1024D01*
X-45467Y994D01*
X-45091Y984D01*
Y-984D01*
X-45467Y-994D01*
X-45804Y-1024D01*
X-46101Y-1073D01*
X-46358Y-1142D01*
X-46576Y-1230D01*
X-46754Y-1339D01*
X-46893Y-1467D01*
X-46992Y-1614D01*
X-47051Y-1781D01*
X-47071Y-1969D01*
Y1969D01*
X-47051Y1781D01*
D02*
G37*
G36*
X-19061Y-16561D02*
X-18345Y-17040D01*
X-17500Y-17208D01*
X-13598D01*
X-13448Y-17401D01*
X-13448Y-17401D01*
X-13714Y-17816D01*
X-13814Y-17879D01*
X-47500D01*
Y-13953D01*
X-46047D01*
Y-10500D01*
X-46298D01*
X-46434Y-10512D01*
X-46583Y-10536D01*
X-46713Y-10571D01*
X-46822Y-10615D01*
X-46912Y-10669D01*
X-46982Y-10733D01*
X-47031Y-10807D01*
X-47061Y-10891D01*
X-47071Y-10984D01*
Y-10500D01*
X-50000D01*
Y-9500D01*
X-47071D01*
Y-9016D01*
X-47061Y-9109D01*
X-47031Y-9193D01*
X-46982Y-9267D01*
X-46912Y-9331D01*
X-46822Y-9385D01*
X-46713Y-9429D01*
X-46583Y-9464D01*
X-46434Y-9488D01*
X-46298Y-9500D01*
X-46047D01*
Y-6047D01*
X-47500D01*
Y-4134D01*
X-45866D01*
Y-2602D01*
X-45366Y-2423D01*
X-44796Y-2993D01*
X-43944Y-3485D01*
X-42992Y-3740D01*
X-42008D01*
X-41056Y-3485D01*
X-40203Y-2993D01*
X-39507Y-2296D01*
X-39456Y-2208D01*
X-33415D01*
X-19061Y-16561D01*
D02*
G37*
G36*
X16263Y-7532D02*
X16288Y-7876D01*
X16309Y-8025D01*
X16337Y-8158D01*
X16372Y-8275D01*
X16412Y-8377D01*
X16458Y-8463D01*
X16511Y-8533D01*
X16570Y-8588D01*
X14110Y-8902D01*
X14144Y-8848D01*
X14175Y-8778D01*
X14202Y-8692D01*
X14226Y-8590D01*
X14246Y-8472D01*
X14275Y-8188D01*
X14289Y-7840D01*
X14291Y-7642D01*
X16260Y-7337D01*
X16263Y-7532D01*
D02*
G37*
G36*
X5991Y-8932D02*
X6047Y-9543D01*
X6096Y-9808D01*
X6160Y-10047D01*
X6237Y-10260D01*
X6328Y-10446D01*
X6433Y-10606D01*
X6552Y-10739D01*
X6685Y-10846D01*
X3315D01*
X3448Y-10739D01*
X3567Y-10606D01*
X3672Y-10446D01*
X3763Y-10260D01*
X3841Y-10047D01*
X3904Y-9808D01*
X3953Y-9543D01*
X3988Y-9251D01*
X4009Y-8932D01*
X4016Y-8587D01*
X5984D01*
X5991Y-8932D01*
D02*
G37*
G36*
X43823Y-8809D02*
X43896Y-8852D01*
X43985Y-8890D01*
X44089Y-8924D01*
X44208Y-8952D01*
X44343Y-8975D01*
X44659Y-9005D01*
X44840Y-9013D01*
X45036Y-9016D01*
Y-10984D01*
X44840Y-10987D01*
X44343Y-11025D01*
X44208Y-11048D01*
X44089Y-11076D01*
X43985Y-11110D01*
X43896Y-11148D01*
X43823Y-11191D01*
X43765Y-11240D01*
Y-8760D01*
X43823Y-8809D01*
D02*
G37*
G36*
X47071Y-11969D02*
X47052Y-11782D01*
X46992Y-11614D01*
X46893Y-11467D01*
X46754Y-11339D01*
X46576Y-11230D01*
X46358Y-11142D01*
X46101Y-11073D01*
X45804Y-11024D01*
X45467Y-10994D01*
X45091Y-10984D01*
Y-9016D01*
X45467Y-9006D01*
X45804Y-8976D01*
X46101Y-8927D01*
X46358Y-8858D01*
X46576Y-8770D01*
X46754Y-8661D01*
X46893Y-8534D01*
X46992Y-8386D01*
X47052Y-8219D01*
X47071Y-8032D01*
Y-11969D01*
D02*
G37*
G36*
X11983Y-13218D02*
X12043Y-13386D01*
X12142Y-13533D01*
X12280Y-13661D01*
X12459Y-13770D01*
X12676Y-13858D01*
X12934Y-13927D01*
X13231Y-13976D01*
X13568Y-14006D01*
X13944Y-14016D01*
Y-15984D01*
X13568Y-15994D01*
X13231Y-16024D01*
X12934Y-16073D01*
X12676Y-16142D01*
X12459Y-16230D01*
X12280Y-16339D01*
X12142Y-16466D01*
X12043Y-16614D01*
X11983Y-16781D01*
X11964Y-16969D01*
Y-13032D01*
X11983Y-13218D01*
D02*
G37*
G36*
X-11964Y-16969D02*
X-11983Y-16781D01*
X-12043Y-16614D01*
X-12142Y-16466D01*
X-12280Y-16339D01*
X-12459Y-16230D01*
X-12676Y-16142D01*
X-12934Y-16073D01*
X-13231Y-16024D01*
X-13568Y-15994D01*
X-13944Y-15984D01*
Y-14016D01*
X-13568Y-14006D01*
X-13231Y-13976D01*
X-12934Y-13927D01*
X-12676Y-13858D01*
X-12459Y-13770D01*
X-12280Y-13661D01*
X-12142Y-13533D01*
X-12043Y-13386D01*
X-11983Y-13218D01*
X-11964Y-13032D01*
Y-16969D01*
D02*
G37*
G36*
X5658Y-15254D02*
X5623Y-15346D01*
X5592Y-15473D01*
X5566Y-15634D01*
X5525Y-16059D01*
X5494Y-16954D01*
X5492Y-17321D01*
X4508D01*
X4506Y-16954D01*
X4408Y-15473D01*
X4377Y-15346D01*
X4342Y-15254D01*
X4304Y-15195D01*
X5696D01*
X5658Y-15254D01*
D02*
G37*
%LPC*%
G36*
X-12402Y134492D02*
X-13280D01*
Y130598D01*
X-9977D01*
Y132067D01*
X-10162Y132995D01*
X-10687Y133781D01*
X-11474Y134307D01*
X-12402Y134492D01*
D02*
G37*
G36*
X-14279D02*
X-15157D01*
X-16085Y134307D01*
X-16872Y133781D01*
X-17398Y132995D01*
X-17582Y132067D01*
Y130598D01*
X-14279D01*
Y134492D01*
D02*
G37*
G36*
X15157D02*
X14279D01*
Y130598D01*
X17582D01*
Y132067D01*
X17398Y132995D01*
X16872Y133781D01*
X16085Y134307D01*
X15157Y134492D01*
D02*
G37*
G36*
X13280D02*
X12402D01*
X11474Y134307D01*
X10687Y133781D01*
X10162Y132995D01*
X9977Y132067D01*
Y130598D01*
X13280D01*
Y134492D01*
D02*
G37*
G36*
X17582Y129598D02*
X14279D01*
Y125705D01*
X15157D01*
X16085Y125890D01*
X16872Y126416D01*
X17398Y127202D01*
X17582Y128130D01*
Y129598D01*
D02*
G37*
G36*
X13280D02*
X9977D01*
Y128130D01*
X10162Y127202D01*
X10687Y126416D01*
X11474Y125890D01*
X12402Y125705D01*
X13280D01*
Y129598D01*
D02*
G37*
G36*
X-9977Y129598D02*
X-13280D01*
Y125705D01*
X-12402D01*
X-11474Y125890D01*
X-10687Y126416D01*
X-10162Y127202D01*
X-9977Y128130D01*
Y129598D01*
D02*
G37*
G36*
X-14279D02*
X-17582D01*
Y128130D01*
X-17398Y127202D01*
X-16872Y126416D01*
X-16085Y125890D01*
X-15157Y125705D01*
X-14279D01*
Y129598D01*
D02*
G37*
G36*
X-30461Y126491D02*
X-30736Y126455D01*
X-31458Y126156D01*
X-32078Y125680D01*
X-32554Y125060D01*
X-32853Y124338D01*
X-32955Y123563D01*
Y123000D01*
X-30461D01*
Y126491D01*
D02*
G37*
G36*
X-8073Y122874D02*
X-9342D01*
Y119870D01*
X-5799D01*
Y120600D01*
X-5972Y121471D01*
X-6465Y122208D01*
X-7203Y122701D01*
X-8073Y122874D01*
D02*
G37*
G36*
X11612D02*
X10343D01*
Y119870D01*
X13886D01*
Y120600D01*
X13713Y121471D01*
X13220Y122208D01*
X12482Y122701D01*
X11612Y122874D01*
D02*
G37*
G36*
X-10343D02*
X-11612D01*
X-12482Y122701D01*
X-13220Y122208D01*
X-13713Y121471D01*
X-13886Y120600D01*
Y119870D01*
X-10343D01*
Y122874D01*
D02*
G37*
G36*
X9342D02*
X8073D01*
X7203Y122701D01*
X6465Y122208D01*
X5972Y121471D01*
X5799Y120600D01*
Y119870D01*
X9342D01*
Y122874D01*
D02*
G37*
G36*
X-30461Y122000D02*
X-32955D01*
Y121437D01*
X-32853Y120662D01*
X-32554Y119940D01*
X-32078Y119320D01*
X-31458Y118844D01*
X-30736Y118545D01*
X-30461Y118509D01*
Y122000D01*
D02*
G37*
G36*
X13886Y118870D02*
X10343D01*
Y115866D01*
X11612D01*
X12482Y116039D01*
X13220Y116532D01*
X13713Y117270D01*
X13886Y118140D01*
Y118870D01*
D02*
G37*
G36*
X9342D02*
X5799D01*
Y118140D01*
X5972Y117270D01*
X6465Y116532D01*
X7203Y116039D01*
X8073Y115866D01*
X9342D01*
Y118870D01*
D02*
G37*
G36*
X-5799D02*
X-9342D01*
Y115866D01*
X-8073D01*
X-7203Y116039D01*
X-6465Y116532D01*
X-5972Y117270D01*
X-5799Y118140D01*
Y118870D01*
D02*
G37*
G36*
X-10343D02*
X-13886D01*
Y118140D01*
X-13713Y117270D01*
X-13220Y116532D01*
X-12482Y116039D01*
X-11612Y115866D01*
X-10343D01*
Y118870D01*
D02*
G37*
G36*
X30500Y114532D02*
Y112500D01*
X32532D01*
X32399Y112994D01*
X32060Y113581D01*
X31581Y114060D01*
X30994Y114399D01*
X30500Y114532D01*
D02*
G37*
G36*
X29500D02*
X29006Y114399D01*
X28419Y114060D01*
X27940Y113581D01*
X27601Y112994D01*
X27468Y112500D01*
X29500D01*
Y114532D01*
D02*
G37*
G36*
X32532Y111500D02*
X30500D01*
Y109468D01*
X30994Y109601D01*
X31581Y109940D01*
X32060Y110419D01*
X32399Y111006D01*
X32532Y111500D01*
D02*
G37*
G36*
X29500D02*
X27468D01*
X27601Y111006D01*
X27940Y110419D01*
X28419Y109940D01*
X29006Y109601D01*
X29500Y109468D01*
Y111500D01*
D02*
G37*
G36*
X18492Y119740D02*
X17508D01*
X16556Y119485D01*
X15703Y118993D01*
X15007Y118297D01*
X14515Y117444D01*
X14260Y116492D01*
Y115508D01*
X14515Y114556D01*
X15007Y113704D01*
X15703Y113007D01*
X15872Y112910D01*
X15960Y112467D01*
X16218Y112081D01*
X16294Y110932D01*
Y109113D01*
X9100Y101919D01*
X8652Y102178D01*
X8740Y102508D01*
Y103492D01*
X8623Y103929D01*
X8944Y104015D01*
X9797Y104507D01*
X10493Y105203D01*
X10985Y106056D01*
X11240Y107008D01*
Y107992D01*
X10985Y108944D01*
X10493Y109797D01*
X9797Y110493D01*
X8944Y110985D01*
X7992Y111240D01*
X7008D01*
X6632Y111140D01*
X6404Y111292D01*
X5559Y111460D01*
X1752D01*
X907Y111292D01*
X521Y111034D01*
X-627Y110958D01*
X-8231D01*
X-8439Y111268D01*
X-9155Y111747D01*
X-9194Y111755D01*
X-9507Y112296D01*
X-10204Y112993D01*
X-11056Y113485D01*
X-12008Y113740D01*
X-12992D01*
X-13944Y113485D01*
X-14796Y112993D01*
X-15493Y112296D01*
X-15985Y111444D01*
X-16240Y110492D01*
Y109508D01*
X-15985Y108556D01*
X-15493Y107703D01*
X-14796Y107007D01*
X-13944Y106515D01*
X-12992Y106260D01*
X-12008D01*
X-11056Y106515D01*
X-10204Y107007D01*
X-9645Y107566D01*
X-9545Y107546D01*
X-8426D01*
X-8138Y107046D01*
X-8485Y106444D01*
X-8740Y105492D01*
Y104508D01*
X-8972Y104206D01*
X-15247D01*
X-15863Y104227D01*
X-16210Y104261D01*
X-16246Y104266D01*
X-16655Y104540D01*
X-17500Y104708D01*
X-24148D01*
X-24993Y104540D01*
X-25709Y104061D01*
X-26056Y103714D01*
X-26155Y103740D01*
X-27140D01*
X-28091Y103485D01*
X-28944Y102993D01*
X-29641Y102296D01*
X-30133Y101444D01*
X-30388Y100492D01*
Y99508D01*
X-30133Y98556D01*
X-29641Y97703D01*
X-28944Y97007D01*
X-28091Y96515D01*
X-27140Y96260D01*
X-26155D01*
X-25204Y96515D01*
X-24351Y97007D01*
X-23655Y97703D01*
X-23162Y98556D01*
X-22908Y99508D01*
Y100292D01*
X-17500D01*
X-16655Y100460D01*
X-16270Y100718D01*
X-15121Y100794D01*
X-11994D01*
X-11744Y100361D01*
X-11985Y99944D01*
X-12240Y98992D01*
Y98008D01*
X-11985Y97056D01*
X-11493Y96204D01*
X-10796Y95507D01*
X-10104Y95107D01*
X-9760Y94592D01*
X-8607Y93439D01*
X-7890Y92960D01*
X-7046Y92792D01*
X-5000D01*
X-4155Y92960D01*
X-3770Y93218D01*
X-2621Y93294D01*
X-1397D01*
X9701Y82196D01*
X10121Y81746D01*
X10343Y81476D01*
X10364Y81447D01*
X10460Y80965D01*
X10939Y80248D01*
X11260Y79927D01*
Y79508D01*
X11515Y78556D01*
X12007Y77703D01*
X12704Y77007D01*
X13556Y76515D01*
X14508Y76260D01*
X15492D01*
X16444Y76515D01*
X17297Y77007D01*
X17993Y77703D01*
X18485Y78556D01*
X18740Y79508D01*
Y80492D01*
X18485Y81444D01*
X17993Y82297D01*
X17297Y82993D01*
X16444Y83485D01*
X15492Y83740D01*
X14508D01*
X13794Y83549D01*
X13345Y83849D01*
X12890Y83940D01*
X12024Y84698D01*
X516Y96206D01*
X-38Y96576D01*
X-123Y96593D01*
X-74Y97093D01*
X8393D01*
X9046Y97223D01*
X9599Y97593D01*
X19206Y107200D01*
X19576Y107754D01*
X19706Y108407D01*
Y111058D01*
X19727Y111674D01*
X19760Y112022D01*
X19766Y112057D01*
X20040Y112467D01*
X20128Y112910D01*
X20297Y113007D01*
X20993Y113704D01*
X21485Y114556D01*
X21740Y115508D01*
Y116492D01*
X21485Y117444D01*
X20993Y118297D01*
X20297Y118993D01*
X19444Y119485D01*
X18492Y119740D01*
D02*
G37*
G36*
X10492Y6240D02*
X9508D01*
X8556Y5985D01*
X7704Y5493D01*
X7007Y4797D01*
X6515Y3944D01*
X6260Y2992D01*
Y2008D01*
X6515Y1056D01*
X7007Y203D01*
X7704Y-493D01*
X8556Y-985D01*
X9508Y-1240D01*
X10492D01*
X11444Y-985D01*
X12297Y-493D01*
X12993Y203D01*
X13485Y1056D01*
X13740Y2008D01*
Y2992D01*
X13485Y3944D01*
X12993Y4797D01*
X12297Y5493D01*
X11444Y5985D01*
X10492Y6240D01*
D02*
G37*
%LPD*%
G36*
X19054Y114565D02*
X19039Y114522D01*
X19026Y114459D01*
X19015Y114377D01*
X18998Y114152D01*
X18984Y113464D01*
X17016D01*
X17015Y113666D01*
X16961Y114522D01*
X16946Y114565D01*
X16930Y114588D01*
X19070D01*
X19054Y114565D01*
D02*
G37*
G36*
X18658Y112558D02*
X18623Y112465D01*
X18592Y112339D01*
X18566Y112178D01*
X18525Y111752D01*
X18494Y110857D01*
X18492Y110491D01*
X17508D01*
X17506Y110857D01*
X17408Y112339D01*
X17377Y112465D01*
X17342Y112558D01*
X17304Y112616D01*
X18696D01*
X18658Y112558D01*
D02*
G37*
G36*
X1056Y108556D02*
X998Y108594D01*
X906Y108629D01*
X779Y108660D01*
X618Y108686D01*
X193Y108727D01*
X-702Y108758D01*
X-1069Y108760D01*
Y109744D01*
X-702Y109746D01*
X779Y109844D01*
X906Y109875D01*
X998Y109910D01*
X1056Y109948D01*
Y108556D01*
D02*
G37*
G36*
X7025Y109207D02*
X5741Y107713D01*
X4986Y108433D01*
X6255Y109948D01*
X7025Y109207D01*
D02*
G37*
G36*
X-3261Y104582D02*
X-3266Y104395D01*
X-3257Y104216D01*
X-3234Y104047D01*
X-3197Y103886D01*
X-3147Y103734D01*
X-3083Y103591D01*
X-3005Y103457D01*
X-2914Y103332D01*
X-2827Y103235D01*
X-2657Y103064D01*
X-3353Y102368D01*
X-3614Y102626D01*
X-3731Y102729D01*
X-3819Y102796D01*
X-3951Y102879D01*
X-4094Y102955D01*
X-4249Y103022D01*
X-4414Y103082D01*
X-4591Y103133D01*
X-4778Y103176D01*
X-5187Y103238D01*
X-4728Y103602D01*
X-4731Y103604D01*
X-4842Y103672D01*
X-4932Y103713D01*
X-5001Y103726D01*
X-4016Y104711D01*
X-4002Y104643D01*
X-3961Y104553D01*
X-3893Y104442D01*
X-3811Y104327D01*
X-3242Y104778D01*
X-3261Y104582D01*
D02*
G37*
G36*
X-16746Y103158D02*
X-16654Y103123D01*
X-16527Y103092D01*
X-16366Y103066D01*
X-15941Y103025D01*
X-15046Y102994D01*
X-14679Y102992D01*
Y102008D01*
X-15046Y102006D01*
X-16527Y101908D01*
X-16654Y101877D01*
X-16746Y101842D01*
X-16804Y101804D01*
Y103196D01*
X-16746Y103158D01*
D02*
G37*
G36*
X-24158Y101097D02*
X-24295Y100957D01*
X-24620Y100578D01*
X-24699Y100467D01*
X-24763Y100363D01*
X-24813Y100265D01*
X-24849Y100176D01*
X-24870Y100093D01*
X-24876Y100018D01*
X-26630Y101772D01*
X-26555Y101778D01*
X-26472Y101799D01*
X-26382Y101835D01*
X-26285Y101885D01*
X-26181Y101949D01*
X-26069Y102028D01*
X-25824Y102230D01*
X-25691Y102352D01*
X-25550Y102489D01*
X-24158Y101097D01*
D02*
G37*
G36*
X-4246Y95658D02*
X-4154Y95623D01*
X-4027Y95592D01*
X-3866Y95566D01*
X-3441Y95525D01*
X-2546Y95494D01*
X-2179Y95492D01*
Y94508D01*
X-2546Y94506D01*
X-4027Y94408D01*
X-4154Y94377D01*
X-4246Y94342D01*
X-4304Y94304D01*
Y95696D01*
X-4246Y95658D01*
D02*
G37*
G36*
X11114Y83894D02*
X12231Y82916D01*
X12342Y82848D01*
X12432Y82807D01*
X12501Y82794D01*
X11516Y81809D01*
X11502Y81877D01*
X11461Y81967D01*
X11393Y82079D01*
X11298Y82211D01*
X11027Y82541D01*
X10415Y83195D01*
X10157Y83456D01*
X10853Y84152D01*
X11114Y83894D01*
D02*
G37*
G36*
X13537Y82169D02*
X13798Y81948D01*
X13918Y81862D01*
X14031Y81793D01*
X14137Y81741D01*
X14237Y81705D01*
X14330Y81686D01*
X14416Y81684D01*
X14495Y81698D01*
X13292Y79529D01*
X13273Y79567D01*
X13229Y79627D01*
X13161Y79710D01*
X12645Y80264D01*
X12003Y80915D01*
X13396Y82305D01*
X13537Y82169D01*
D02*
G37*
D12*
X4574Y102574D02*
X5000Y103000D01*
X4574Y102500D02*
Y102574D01*
X5000Y-17500D02*
Y-14500D01*
X-691Y95000D02*
X12500Y81810D01*
X-8500Y98500D02*
X-8199Y98199D01*
X-17500Y102500D02*
X-7907D01*
X-9545Y109252D02*
X1752D01*
X-10000Y109707D02*
X-9545Y109252D01*
X-12500Y110000D02*
X-12065Y109565D01*
X18000Y108407D02*
Y113311D01*
X-5000Y95000D02*
X-691D01*
X-7907Y102500D02*
X-4206Y98799D01*
X-5000Y104711D02*
X-1549Y101260D01*
X3334D01*
X4574Y102500D01*
X-50000Y-10000D02*
X-42500D01*
X-4206Y98799D02*
X8393D01*
X18000Y108407D01*
X14310Y80000D02*
X15000D01*
D18*
X30000Y112000D02*
D03*
D32*
X-10000Y-14500D02*
D03*
X-5000D02*
D03*
X0D02*
D03*
X5000D02*
D03*
X10000D02*
D03*
D72*
X26000Y26000D02*
Y28693D01*
Y26000D02*
X32000Y20000D01*
X35000D01*
X26000Y95000D02*
X40000Y109000D01*
X26000Y65000D02*
Y95000D01*
X35000Y20000D02*
X42500D01*
X26000Y28693D02*
Y65000D01*
X10807Y28693D02*
X26000D01*
X17500Y65000D02*
X26000D01*
X-50000Y30000D02*
X-42500D01*
X14122Y-5000D02*
X15276Y-6153D01*
X5000Y-14500D02*
Y-6153D01*
X6153Y-5000D02*
X14122D01*
X15276Y-9776D02*
Y-6153D01*
X5000D02*
X6153Y-5000D01*
X15276Y-9776D02*
X15500Y-10000D01*
X-32500Y10000D02*
X-22500Y0D01*
X-42500Y10000D02*
X-32500D01*
X-37500Y20000D02*
X-22500Y5000D01*
X-42378Y29878D02*
X-39878D01*
X-21304Y11304D02*
X-21304D01*
X-39878Y29878D02*
X-21304Y11304D01*
X-42500Y30000D02*
X-42378Y29878D01*
X-21304Y11304D02*
X-20062Y10062D01*
X40000Y109000D02*
Y109000D01*
X40426Y70000D02*
X50000D01*
X37926Y72500D02*
X40426Y70000D01*
X37500Y72500D02*
X37926D01*
X14310Y80000D02*
Y80264D01*
X-50000Y90000D02*
X-42500D01*
X13522Y80787D02*
X13786D01*
X14310Y80264D01*
X12500Y81810D02*
X13522Y80787D01*
X-7046Y95000D02*
X-5000D01*
X-8199Y96153D02*
X-7046Y95000D01*
X-8199Y96153D02*
Y98199D01*
X-26648Y100000D02*
X-24148Y102500D01*
X-17500D01*
X-12065Y109707D02*
X-10000D01*
X-12065Y109565D02*
Y109707D01*
X7311Y107500D02*
X7500D01*
X1752Y109252D02*
X5559D01*
X7311Y107500D01*
X18000Y113311D02*
Y116000D01*
X-50000Y20000D02*
X-37500D01*
X-50000Y40000D02*
X-42500D01*
X-22500Y0D02*
X-15000D01*
X-22500Y5000D02*
X-15037D01*
X-14821Y5216D01*
X-20062Y10062D02*
X-15063D01*
X-15122Y15122D02*
X-15000Y15000D01*
X-17622Y15122D02*
X-15122D01*
X-42500Y40000D02*
X-17622Y15122D01*
X42500Y40000D02*
X50000D01*
Y-10000D02*
X50000Y-10000D01*
X10000Y-15000D02*
X22500D01*
X42500Y0D02*
X50000D01*
X37500D02*
X42500D01*
X22500Y-15000D02*
X37500Y0D01*
X-17500Y-15000D02*
X-10000D01*
X-42500Y0D02*
X-32500D01*
X-17500Y-15000D01*
X-50000Y0D02*
X-42500D01*
X-50000Y100000D02*
X-44000D01*
X-42000Y131500D02*
X-29000D01*
X-44500Y112951D02*
Y129000D01*
X-42000Y131500D01*
X-29000D02*
X-25000Y127500D01*
X-45653Y111797D02*
X-44500Y112951D01*
X-48203Y111797D02*
X-45653D01*
X-50000Y110000D02*
X-48203Y111797D01*
X-50000Y80000D02*
X-42500D01*
X-50000Y50000D02*
X-42500D01*
X-50000Y10000D02*
X-42500D01*
X42500Y90000D02*
X50000D01*
X42500Y80000D02*
X50000D01*
X42500Y-10000D02*
X50000D01*
X42500Y10000D02*
X50000D01*
X42500Y20000D02*
X50000D01*
X42500Y60000D02*
X50000D01*
X40000Y109000D02*
X44000Y113000D01*
X44301Y112752D02*
Y115699D01*
X48401Y111599D02*
X50000Y110000D01*
X44301Y112752D02*
X45454Y111599D01*
X48401D01*
X46031Y118032D02*
X48031D01*
X44000Y116000D02*
X46031Y118032D01*
X44000Y116000D02*
X44301Y115699D01*
X48031Y118032D02*
X50000Y120000D01*
X-5000Y104711D02*
Y105000D01*
X42500Y30000D02*
X50000D01*
X-25020Y117520D02*
Y122480D01*
Y117520D02*
X-25000Y117500D01*
X-25039Y122500D02*
X-25020Y122480D01*
X-40532Y101969D02*
X-40000Y102500D01*
X-50000Y100000D02*
X-48031Y101969D01*
X-25039Y122500D02*
X-25000Y122539D01*
Y127500D01*
X8000Y31500D02*
X10807Y28693D01*
D73*
X-50000Y130000D02*
D03*
X50000D02*
D03*
D74*
X-50000Y40000D02*
D03*
X50000Y0D02*
D03*
X50000Y80000D02*
D03*
X50000Y-10000D02*
D03*
X-50000Y0D02*
D03*
Y110000D02*
D03*
Y100000D02*
D03*
X50000Y30000D02*
D03*
Y20000D02*
D03*
Y10000D02*
D03*
Y40000D02*
D03*
Y50000D02*
D03*
Y60000D02*
D03*
Y70000D02*
D03*
Y110000D02*
D03*
X-50000Y120000D02*
D03*
X50000Y100000D02*
D03*
X-50000Y10000D02*
D03*
Y20000D02*
D03*
Y30000D02*
D03*
Y50000D02*
D03*
Y60000D02*
D03*
Y70000D02*
D03*
Y80000D02*
D03*
Y90000D02*
D03*
Y-10000D02*
D03*
D75*
X50000Y120000D02*
D03*
Y90000D02*
D03*
D76*
X-29961Y122500D02*
D03*
D77*
X-25039D02*
D03*
D78*
X-13780Y130098D02*
D03*
X13780D02*
D03*
D79*
X-9843Y119370D02*
D03*
X9843D02*
D03*
D80*
X-15000Y75000D02*
D03*
X5000Y103000D02*
D03*
X22500Y22000D02*
D03*
X31500Y84000D02*
D03*
X20000Y92500D02*
D03*
X-32500Y95000D02*
D03*
X-17500Y32500D02*
D03*
X17500Y34752D02*
D03*
X-15000Y15000D02*
D03*
X42500Y40000D02*
D03*
X-22500Y90000D02*
D03*
X0Y130000D02*
D03*
X-8500Y98500D02*
D03*
X-42500Y90000D02*
D03*
Y80000D02*
D03*
Y50000D02*
D03*
Y40000D02*
D03*
Y30000D02*
D03*
Y10000D02*
D03*
Y0D02*
D03*
X42500Y90000D02*
D03*
Y80000D02*
D03*
Y-10000D02*
D03*
Y0D02*
D03*
Y10000D02*
D03*
Y20000D02*
D03*
Y50000D02*
D03*
Y60000D02*
D03*
X22000Y105748D02*
D03*
X0Y105000D02*
D03*
X-5000D02*
D03*
X2500Y32500D02*
D03*
X-15063Y10062D02*
D03*
X-14821Y5216D02*
D03*
X-15000Y0D02*
D03*
X15500Y-10000D02*
D03*
X-5000Y-5000D02*
D03*
X-2500Y32500D02*
D03*
X10000Y2500D02*
D03*
X2500Y25000D02*
D03*
X-5000D02*
D03*
X-12500D02*
D03*
X-30000Y117500D02*
D03*
X-25000D02*
D03*
X-42500Y-10000D02*
D03*
X7500Y107500D02*
D03*
X15000Y87500D02*
D03*
X42500Y30000D02*
D03*
X37500Y72500D02*
D03*
X-40000Y126752D02*
D03*
X30000Y127500D02*
D03*
X-5000Y112500D02*
D03*
X0Y85000D02*
D03*
X-15000Y67500D02*
D03*
X-26648Y100000D02*
D03*
X0Y65000D02*
D03*
X-12500Y110000D02*
D03*
X15000Y80000D02*
D03*
X17500Y65000D02*
D03*
X42500Y125000D02*
D03*
X44000Y116000D02*
D03*
X18000D02*
D03*
X8000Y31500D02*
D03*
X10000Y12500D02*
D03*
X-2362Y47638D02*
D03*
X2362D02*
D03*
Y52362D02*
D03*
X-2362D02*
D03*
M02*
