G04*
G04 #@! TF.GenerationSoftware,Altium Limited,Altium Designer,21.2.2 (38)*
G04*
G04 Layer_Color=8421504*
%FSLAX25Y25*%
%MOIN*%
G70*
G04*
G04 #@! TF.SameCoordinates,0000E620-6A5C-4488-86E2-F855693774CC*
G04*
G04*
G04 #@! TF.FilePolarity,Positive*
G04*
G01*
G75*
G04:AMPARAMS|DCode=16|XSize=31.89mil|YSize=12.6mil|CornerRadius=3.15mil|HoleSize=0mil|Usage=FLASHONLY|Rotation=180.000|XOffset=0mil|YOffset=0mil|HoleType=Round|Shape=RoundedRectangle|*
%AMROUNDEDRECTD16*
21,1,0.03189,0.00630,0,0,180.0*
21,1,0.02559,0.01260,0,0,180.0*
1,1,0.00630,-0.01280,0.00315*
1,1,0.00630,0.01280,0.00315*
1,1,0.00630,0.01280,-0.00315*
1,1,0.00630,-0.01280,-0.00315*
%
%ADD16ROUNDEDRECTD16*%
G04:AMPARAMS|DCode=17|XSize=31.89mil|YSize=12.6mil|CornerRadius=3.15mil|HoleSize=0mil|Usage=FLASHONLY|Rotation=270.000|XOffset=0mil|YOffset=0mil|HoleType=Round|Shape=RoundedRectangle|*
%AMROUNDEDRECTD17*
21,1,0.03189,0.00630,0,0,270.0*
21,1,0.02559,0.01260,0,0,270.0*
1,1,0.00630,-0.00315,-0.01280*
1,1,0.00630,-0.00315,0.01280*
1,1,0.00630,0.00315,0.01280*
1,1,0.00630,0.00315,-0.01280*
%
%ADD17ROUNDEDRECTD17*%
%ADD18C,0.03150*%
%ADD19R,0.02165X0.05709*%
%ADD20R,0.02165X0.05709*%
%ADD21R,0.03937X0.06299*%
%ADD22R,0.01968X0.02362*%
%ADD23R,0.02362X0.01968*%
%ADD24R,0.02362X0.05906*%
G04:AMPARAMS|DCode=25|XSize=23.62mil|YSize=27.56mil|CornerRadius=2.95mil|HoleSize=0mil|Usage=FLASHONLY|Rotation=90.000|XOffset=0mil|YOffset=0mil|HoleType=Round|Shape=RoundedRectangle|*
%AMROUNDEDRECTD25*
21,1,0.02362,0.02165,0,0,90.0*
21,1,0.01772,0.02756,0,0,90.0*
1,1,0.00591,0.01083,0.00886*
1,1,0.00591,0.01083,-0.00886*
1,1,0.00591,-0.01083,-0.00886*
1,1,0.00591,-0.01083,0.00886*
%
%ADD25ROUNDEDRECTD25*%
G04:AMPARAMS|DCode=26|XSize=51.18mil|YSize=51.18mil|CornerRadius=6.4mil|HoleSize=0mil|Usage=FLASHONLY|Rotation=180.000|XOffset=0mil|YOffset=0mil|HoleType=Round|Shape=RoundedRectangle|*
%AMROUNDEDRECTD26*
21,1,0.05118,0.03839,0,0,180.0*
21,1,0.03839,0.05118,0,0,180.0*
1,1,0.01280,-0.01919,0.01919*
1,1,0.01280,0.01919,0.01919*
1,1,0.01280,0.01919,-0.01919*
1,1,0.01280,-0.01919,-0.01919*
%
%ADD26ROUNDEDRECTD26*%
G04:AMPARAMS|DCode=27|XSize=51.18mil|YSize=51.18mil|CornerRadius=12.8mil|HoleSize=0mil|Usage=FLASHONLY|Rotation=180.000|XOffset=0mil|YOffset=0mil|HoleType=Round|Shape=RoundedRectangle|*
%AMROUNDEDRECTD27*
21,1,0.05118,0.02559,0,0,180.0*
21,1,0.02559,0.05118,0,0,180.0*
1,1,0.02559,-0.01280,0.01280*
1,1,0.02559,0.01280,0.01280*
1,1,0.02559,0.01280,-0.01280*
1,1,0.02559,-0.01280,-0.01280*
%
%ADD27ROUNDEDRECTD27*%
G04:AMPARAMS|DCode=28|XSize=78.74mil|YSize=47.24mil|CornerRadius=5.91mil|HoleSize=0mil|Usage=FLASHONLY|Rotation=0.000|XOffset=0mil|YOffset=0mil|HoleType=Round|Shape=RoundedRectangle|*
%AMROUNDEDRECTD28*
21,1,0.07874,0.03543,0,0,0.0*
21,1,0.06693,0.04724,0,0,0.0*
1,1,0.01181,0.03347,-0.01772*
1,1,0.01181,-0.03347,-0.01772*
1,1,0.01181,-0.03347,0.01772*
1,1,0.01181,0.03347,0.01772*
%
%ADD28ROUNDEDRECTD28*%
%ADD29R,0.00984X0.02362*%
G04:AMPARAMS|DCode=30|XSize=31.5mil|YSize=31.5mil|CornerRadius=3.94mil|HoleSize=0mil|Usage=FLASHONLY|Rotation=270.000|XOffset=0mil|YOffset=0mil|HoleType=Round|Shape=RoundedRectangle|*
%AMROUNDEDRECTD30*
21,1,0.03150,0.02362,0,0,270.0*
21,1,0.02362,0.03150,0,0,270.0*
1,1,0.00787,-0.01181,-0.01181*
1,1,0.00787,-0.01181,0.01181*
1,1,0.00787,0.01181,0.01181*
1,1,0.00787,0.01181,-0.01181*
%
%ADD30ROUNDEDRECTD30*%
%ADD31R,0.01575X0.05315*%
G04:AMPARAMS|DCode=32|XSize=39.37mil|YSize=78.74mil|CornerRadius=9.84mil|HoleSize=0mil|Usage=FLASHONLY|Rotation=0.000|XOffset=0mil|YOffset=0mil|HoleType=Round|Shape=RoundedRectangle|*
%AMROUNDEDRECTD32*
21,1,0.03937,0.05906,0,0,0.0*
21,1,0.01968,0.07874,0,0,0.0*
1,1,0.01968,0.00984,-0.02953*
1,1,0.01968,-0.00984,-0.02953*
1,1,0.01968,-0.00984,0.02953*
1,1,0.01968,0.00984,0.02953*
%
%ADD32ROUNDEDRECTD32*%
G04:AMPARAMS|DCode=33|XSize=31.5mil|YSize=31.5mil|CornerRadius=3.94mil|HoleSize=0mil|Usage=FLASHONLY|Rotation=180.000|XOffset=0mil|YOffset=0mil|HoleType=Round|Shape=RoundedRectangle|*
%AMROUNDEDRECTD33*
21,1,0.03150,0.02362,0,0,180.0*
21,1,0.02362,0.03150,0,0,180.0*
1,1,0.00787,-0.01181,0.01181*
1,1,0.00787,0.01181,0.01181*
1,1,0.00787,0.01181,-0.01181*
1,1,0.00787,-0.01181,-0.01181*
%
%ADD33ROUNDEDRECTD33*%
%ADD34R,0.02500X0.01400*%
%ADD35R,0.01400X0.02500*%
%ADD36O,0.02559X0.01181*%
%ADD37O,0.01181X0.02559*%
%ADD38R,0.11024X0.11024*%
G36*
X-3110Y84488D02*
X-512D01*
Y81890D01*
X-3110D01*
Y84488D01*
D02*
G37*
G36*
Y88110D02*
X-512D01*
Y85512D01*
X-3110D01*
Y88110D01*
D02*
G37*
G36*
X512Y84488D02*
X3110D01*
Y81890D01*
X512D01*
Y84488D01*
D02*
G37*
G36*
Y88110D02*
X3110D01*
Y85512D01*
X512D01*
Y88110D01*
D02*
G37*
D16*
X7677Y81161D02*
D03*
Y83720D02*
D03*
Y86279D02*
D03*
Y88839D02*
D03*
X-7677D02*
D03*
Y86279D02*
D03*
Y83720D02*
D03*
Y81161D02*
D03*
D17*
X3839Y92677D02*
D03*
X1280D02*
D03*
X-1280D02*
D03*
X-3839D02*
D03*
Y77323D02*
D03*
X-1280D02*
D03*
X1280D02*
D03*
X3839D02*
D03*
D18*
X20000Y77500D02*
D03*
X6500Y98000D02*
D03*
X10000Y2500D02*
D03*
X-12500Y25000D02*
D03*
X-5000D02*
D03*
X2500D02*
D03*
Y32500D02*
D03*
D19*
X-41240Y103268D02*
D03*
D20*
X-37500Y103268D02*
D03*
X-33760D02*
D03*
Y111732D02*
D03*
X-41240D02*
D03*
D21*
X-22520Y-10098D02*
D03*
X-37480D02*
D03*
Y15098D02*
D03*
X-22520D02*
D03*
X22520Y15098D02*
D03*
X37480D02*
D03*
Y-10098D02*
D03*
X22520D02*
D03*
D22*
X0Y-3032D02*
D03*
Y-6968D02*
D03*
X32500Y98032D02*
D03*
Y101969D02*
D03*
X37500Y101969D02*
D03*
Y98032D02*
D03*
X12500Y108031D02*
D03*
Y111969D02*
D03*
X27500Y98032D02*
D03*
Y101969D02*
D03*
X-40000Y118032D02*
D03*
Y121968D02*
D03*
X40000Y110031D02*
D03*
Y113969D02*
D03*
X42500Y98032D02*
D03*
Y101969D02*
D03*
X40000Y117532D02*
D03*
Y121468D02*
D03*
X22000Y113969D02*
D03*
Y110031D02*
D03*
X22000Y118032D02*
D03*
Y121968D02*
D03*
X4000Y69968D02*
D03*
Y66031D02*
D03*
X-8000Y35969D02*
D03*
Y32032D02*
D03*
X-12000Y32032D02*
D03*
Y35969D02*
D03*
D23*
X-13032Y95000D02*
D03*
X-16969D02*
D03*
X-24468Y75000D02*
D03*
X-20531D02*
D03*
Y67500D02*
D03*
X-24468D02*
D03*
X-20531Y80000D02*
D03*
X-24468D02*
D03*
X-13032Y85000D02*
D03*
X-16969D02*
D03*
X-13032Y90000D02*
D03*
X-16969D02*
D03*
X8032Y65000D02*
D03*
X11969D02*
D03*
X11969Y17500D02*
D03*
X8032D02*
D03*
Y27500D02*
D03*
X11969D02*
D03*
X11969Y22500D02*
D03*
X8032D02*
D03*
X11969Y70000D02*
D03*
X8032D02*
D03*
X11969Y35000D02*
D03*
X8032D02*
D03*
D24*
X-22500Y103760D02*
D03*
X-26240Y111240D02*
D03*
X-18760D02*
D03*
D25*
X12500Y104921D02*
D03*
Y95079D02*
D03*
D26*
X23898Y128000D02*
D03*
D27*
X36102D02*
D03*
D28*
X30000Y112000D02*
D03*
D29*
X26063Y107394D02*
D03*
X28032D02*
D03*
X30000D02*
D03*
X31969D02*
D03*
X33937D02*
D03*
X26063Y116606D02*
D03*
X28032D02*
D03*
X30000D02*
D03*
X31969D02*
D03*
X33937D02*
D03*
D30*
X37500Y90847D02*
D03*
Y84153D02*
D03*
D31*
X0Y119370D02*
D03*
X-2559D02*
D03*
X-5118D02*
D03*
X2559D02*
D03*
X5118D02*
D03*
D32*
X10000Y-14500D02*
D03*
X5000D02*
D03*
X0D02*
D03*
X-5000D02*
D03*
X-10000D02*
D03*
D33*
X-31653Y87500D02*
D03*
X-38346D02*
D03*
Y75000D02*
D03*
X-31653D02*
D03*
X-38346Y67500D02*
D03*
X-31653D02*
D03*
D34*
X-3650Y8032D02*
D03*
Y10000D02*
D03*
Y11969D02*
D03*
X3650D02*
D03*
Y10000D02*
D03*
Y8032D02*
D03*
D35*
X-2953Y14650D02*
D03*
X-984D02*
D03*
X984D02*
D03*
X2953D02*
D03*
Y5350D02*
D03*
X984D02*
D03*
X-984D02*
D03*
X-2953D02*
D03*
D36*
X7776Y45079D02*
D03*
Y47047D02*
D03*
Y49016D02*
D03*
Y50984D02*
D03*
Y52953D02*
D03*
Y54921D02*
D03*
X-7776D02*
D03*
Y52953D02*
D03*
Y50984D02*
D03*
Y49016D02*
D03*
Y47047D02*
D03*
Y45079D02*
D03*
D37*
X4921Y57776D02*
D03*
X2953D02*
D03*
X984D02*
D03*
X-984D02*
D03*
X-2953D02*
D03*
X-4921D02*
D03*
Y42224D02*
D03*
X-2953D02*
D03*
X-984D02*
D03*
X984D02*
D03*
X2953D02*
D03*
X4921D02*
D03*
D38*
X0Y50000D02*
D03*
M02*
