G04*
G04 #@! TF.GenerationSoftware,Altium Limited,Altium Designer,20.1.12 (249)*
G04*
G04 Layer_Color=16711935*
%FSLAX25Y25*%
%MOIN*%
G70*
G04*
G04 #@! TF.SameCoordinates,93090BFA-B333-45B1-ADBD-1567DB3BF8F2*
G04*
G04*
G04 #@! TF.FilePolarity,Positive*
G04*
G01*
G75*
%ADD56C,0.00394*%
D56*
X0Y137795D02*
X393701D01*
X78740Y275590D02*
X78740Y0D01*
X0Y275590D02*
X393701Y275591D01*
X393701Y275590D02*
X393701Y0D01*
X314961Y275590D02*
X314961Y0D01*
X236220Y275590D02*
X236221Y0D01*
X157480Y275590D02*
X157480Y0D01*
X-0Y275590D02*
X0Y0D01*
X0D02*
X393701D01*
X314961Y137795D02*
Y0D01*
X393701D01*
Y137795D02*
Y0D01*
X314961Y137795D02*
X393701D01*
X314961Y137795D02*
X393701D01*
X393701Y275591D02*
X393701Y137795D01*
X314961Y275591D02*
X393701D01*
X314961Y137795D02*
Y275591D01*
X157480Y0D02*
Y137795D01*
Y0D02*
X236221D01*
Y137795D01*
X157480D02*
X236221D01*
X78740Y0D02*
Y137795D01*
Y0D02*
X157480D01*
Y137795D01*
X78740D02*
X157480D01*
X236221Y275591D02*
Y137795D01*
X157480Y275591D02*
X236221D01*
X157480D02*
Y137795D01*
X236221D01*
X157480Y275591D02*
Y137795D01*
X78740Y275591D02*
X157480D01*
X78740D02*
Y137795D01*
X157480D01*
X78740Y275591D02*
Y137795D01*
X0Y275591D02*
X78740D01*
X0D02*
Y137795D01*
X78740D01*
X0Y0D02*
Y137795D01*
Y0D02*
X78740D01*
Y137795D01*
X0D02*
X78740D01*
M02*
