G04*
G04 #@! TF.GenerationSoftware,Altium Limited,Altium Designer,20.1.12 (249)*
G04*
G04 Layer_Color=8421504*
%FSLAX25Y25*%
%MOIN*%
G70*
G04*
G04 #@! TF.SameCoordinates,93090BFA-B333-45B1-ADBD-1567DB3BF8F2*
G04*
G04*
G04 #@! TF.FilePolarity,Positive*
G04*
G01*
G75*
%ADD10O,0.02362X0.07677*%
%ADD11O,0.07677X0.02362*%
%ADD12R,0.03937X0.03937*%
%ADD13R,0.03937X0.03543*%
%ADD15O,0.08268X0.01378*%
G04:AMPARAMS|DCode=16|XSize=31.5mil|YSize=31.5mil|CornerRadius=3.94mil|HoleSize=0mil|Usage=FLASHONLY|Rotation=180.000|XOffset=0mil|YOffset=0mil|HoleType=Round|Shape=RoundedRectangle|*
%AMROUNDEDRECTD16*
21,1,0.03150,0.02362,0,0,180.0*
21,1,0.02362,0.03150,0,0,180.0*
1,1,0.00787,-0.01181,0.01181*
1,1,0.00787,0.01181,0.01181*
1,1,0.00787,0.01181,-0.01181*
1,1,0.00787,-0.01181,-0.01181*
%
%ADD16ROUNDEDRECTD16*%
%ADD17R,0.03543X0.03937*%
%ADD18R,0.03937X0.03937*%
G04:AMPARAMS|DCode=19|XSize=78.74mil|YSize=127.95mil|CornerRadius=0mil|HoleSize=0mil|Usage=FLASHONLY|Rotation=360.000|XOffset=0mil|YOffset=0mil|HoleType=Round|Shape=Octagon|*
%AMOCTAGOND19*
4,1,8,-0.01968,0.06398,0.01968,0.06398,0.03937,0.04429,0.03937,-0.04429,0.01968,-0.06398,-0.01968,-0.06398,-0.03937,-0.04429,-0.03937,0.04429,-0.01968,0.06398,0.0*
%
%ADD19OCTAGOND19*%

G04:AMPARAMS|DCode=20|XSize=35.43mil|YSize=393.7mil|CornerRadius=8.86mil|HoleSize=0mil|Usage=FLASHONLY|Rotation=180.000|XOffset=0mil|YOffset=0mil|HoleType=Round|Shape=RoundedRectangle|*
%AMROUNDEDRECTD20*
21,1,0.03543,0.37598,0,0,180.0*
21,1,0.01772,0.39370,0,0,180.0*
1,1,0.01772,-0.00886,0.18799*
1,1,0.01772,0.00886,0.18799*
1,1,0.01772,0.00886,-0.18799*
1,1,0.01772,-0.00886,-0.18799*
%
%ADD20ROUNDEDRECTD20*%
%ADD22R,0.03937X0.03937*%
%ADD23R,0.06299X0.03937*%
G04:AMPARAMS|DCode=24|XSize=31.5mil|YSize=31.5mil|CornerRadius=3.94mil|HoleSize=0mil|Usage=FLASHONLY|Rotation=270.000|XOffset=0mil|YOffset=0mil|HoleType=Round|Shape=RoundedRectangle|*
%AMROUNDEDRECTD24*
21,1,0.03150,0.02362,0,0,270.0*
21,1,0.02362,0.03150,0,0,270.0*
1,1,0.00787,-0.01181,-0.01181*
1,1,0.00787,-0.01181,0.01181*
1,1,0.00787,0.01181,0.01181*
1,1,0.00787,0.01181,-0.01181*
%
%ADD24ROUNDEDRECTD24*%
%ADD25R,0.00787X0.03150*%
%ADD26R,0.03150X0.00787*%
%ADD27R,0.07087X0.07087*%
%ADD28R,0.02165X0.05709*%
%ADD29R,0.02165X0.05709*%
G04:AMPARAMS|DCode=30|XSize=23.62mil|YSize=27.56mil|CornerRadius=2.95mil|HoleSize=0mil|Usage=FLASHONLY|Rotation=180.000|XOffset=0mil|YOffset=0mil|HoleType=Round|Shape=RoundedRectangle|*
%AMROUNDEDRECTD30*
21,1,0.02362,0.02165,0,0,180.0*
21,1,0.01772,0.02756,0,0,180.0*
1,1,0.00591,-0.00886,0.01083*
1,1,0.00591,0.00886,0.01083*
1,1,0.00591,0.00886,-0.01083*
1,1,0.00591,-0.00886,-0.01083*
%
%ADD30ROUNDEDRECTD30*%
%ADD31R,0.02362X0.00984*%
G04:AMPARAMS|DCode=32|XSize=78.74mil|YSize=47.24mil|CornerRadius=5.91mil|HoleSize=0mil|Usage=FLASHONLY|Rotation=270.000|XOffset=0mil|YOffset=0mil|HoleType=Round|Shape=RoundedRectangle|*
%AMROUNDEDRECTD32*
21,1,0.07874,0.03543,0,0,270.0*
21,1,0.06693,0.04724,0,0,270.0*
1,1,0.01181,-0.01772,-0.03347*
1,1,0.01181,-0.01772,0.03347*
1,1,0.01181,0.01772,0.03347*
1,1,0.01181,0.01772,-0.03347*
%
%ADD32ROUNDEDRECTD32*%
G04:AMPARAMS|DCode=33|XSize=51.18mil|YSize=51.18mil|CornerRadius=6.4mil|HoleSize=0mil|Usage=FLASHONLY|Rotation=270.000|XOffset=0mil|YOffset=0mil|HoleType=Round|Shape=RoundedRectangle|*
%AMROUNDEDRECTD33*
21,1,0.05118,0.03839,0,0,270.0*
21,1,0.03839,0.05118,0,0,270.0*
1,1,0.01280,-0.01919,-0.01919*
1,1,0.01280,-0.01919,0.01919*
1,1,0.01280,0.01919,0.01919*
1,1,0.01280,0.01919,-0.01919*
%
%ADD33ROUNDEDRECTD33*%
G04:AMPARAMS|DCode=34|XSize=51.18mil|YSize=51.18mil|CornerRadius=12.8mil|HoleSize=0mil|Usage=FLASHONLY|Rotation=270.000|XOffset=0mil|YOffset=0mil|HoleType=Round|Shape=RoundedRectangle|*
%AMROUNDEDRECTD34*
21,1,0.05118,0.02559,0,0,270.0*
21,1,0.02559,0.05118,0,0,270.0*
1,1,0.02559,-0.01280,-0.01280*
1,1,0.02559,-0.01280,0.01280*
1,1,0.02559,0.01280,0.01280*
1,1,0.02559,0.01280,-0.01280*
%
%ADD34ROUNDEDRECTD34*%
%ADD35R,0.05906X0.02362*%
%ADD36R,0.01575X0.05315*%
D10*
X365827Y74744D02*
D03*
X362677D02*
D03*
X359528D02*
D03*
X356378D02*
D03*
X353228D02*
D03*
X350079D02*
D03*
X346929D02*
D03*
X343779D02*
D03*
Y41476D02*
D03*
X346929D02*
D03*
X350079D02*
D03*
X353228D02*
D03*
X356378D02*
D03*
X359528D02*
D03*
X362677D02*
D03*
X365827D02*
D03*
D11*
X338169Y69134D02*
D03*
Y65984D02*
D03*
Y62835D02*
D03*
Y59685D02*
D03*
Y56536D02*
D03*
Y53386D02*
D03*
Y50236D02*
D03*
Y47087D02*
D03*
X371437D02*
D03*
Y50236D02*
D03*
Y53386D02*
D03*
Y56536D02*
D03*
Y59685D02*
D03*
Y62835D02*
D03*
Y65984D02*
D03*
Y69134D02*
D03*
D12*
X347303Y108760D02*
D03*
Y102461D02*
D03*
X364803Y108760D02*
D03*
Y102461D02*
D03*
X199350Y184567D02*
D03*
Y190866D02*
D03*
X206850D02*
D03*
Y184567D02*
D03*
Y245866D02*
D03*
Y239567D02*
D03*
X120610Y184567D02*
D03*
Y190866D02*
D03*
X128110D02*
D03*
Y184567D02*
D03*
Y245866D02*
D03*
Y239567D02*
D03*
X41870Y184567D02*
D03*
Y190866D02*
D03*
X49370D02*
D03*
Y184567D02*
D03*
Y245866D02*
D03*
Y239567D02*
D03*
D13*
X374803Y108957D02*
D03*
Y102264D02*
D03*
X224350Y10394D02*
D03*
Y17087D02*
D03*
X145610Y10394D02*
D03*
Y17087D02*
D03*
X184350Y239370D02*
D03*
Y246063D02*
D03*
X191850Y239370D02*
D03*
Y246063D02*
D03*
X199350Y239370D02*
D03*
Y246063D02*
D03*
X105610Y239370D02*
D03*
Y246063D02*
D03*
X113110Y239370D02*
D03*
Y246063D02*
D03*
X120610Y239370D02*
D03*
Y246063D02*
D03*
X26870Y239370D02*
D03*
Y246063D02*
D03*
X34370Y239370D02*
D03*
Y246063D02*
D03*
X41870Y239370D02*
D03*
Y246063D02*
D03*
X66870Y10394D02*
D03*
Y17087D02*
D03*
D15*
X364252Y215335D02*
D03*
Y217894D02*
D03*
Y220453D02*
D03*
Y223012D02*
D03*
Y225571D02*
D03*
Y228130D02*
D03*
Y230689D02*
D03*
Y233248D02*
D03*
Y235807D02*
D03*
Y238366D02*
D03*
X341417Y215335D02*
D03*
Y217894D02*
D03*
Y220453D02*
D03*
Y223012D02*
D03*
Y225571D02*
D03*
Y228130D02*
D03*
Y230689D02*
D03*
Y233248D02*
D03*
Y235807D02*
D03*
Y238366D02*
D03*
D16*
X354488Y206850D02*
D03*
X361181D02*
D03*
X195197Y101240D02*
D03*
X188504D02*
D03*
Y108740D02*
D03*
X195197D02*
D03*
X116457Y101240D02*
D03*
X109764D02*
D03*
Y108740D02*
D03*
X116457D02*
D03*
X222697Y190217D02*
D03*
X216004D02*
D03*
X143957D02*
D03*
X137264D02*
D03*
X65216D02*
D03*
X58524D02*
D03*
X37716Y101240D02*
D03*
X31024D02*
D03*
Y108740D02*
D03*
X37716D02*
D03*
D17*
X348681Y206850D02*
D03*
X341988D02*
D03*
X350335Y261850D02*
D03*
X357028D02*
D03*
X207106Y101240D02*
D03*
X200413D02*
D03*
X207106Y108740D02*
D03*
X200413D02*
D03*
X128366Y101240D02*
D03*
X121673D02*
D03*
X128366Y108740D02*
D03*
X121673D02*
D03*
X216004Y197717D02*
D03*
X222697D02*
D03*
X185197D02*
D03*
X178504D02*
D03*
X185197Y205217D02*
D03*
X178504D02*
D03*
X137264Y197717D02*
D03*
X143957D02*
D03*
X106457D02*
D03*
X99764D02*
D03*
X106457Y205217D02*
D03*
X99764D02*
D03*
X58524Y197717D02*
D03*
X65216D02*
D03*
X27717D02*
D03*
X21024D02*
D03*
X27717Y205217D02*
D03*
X21024D02*
D03*
X49626Y101240D02*
D03*
X42933D02*
D03*
X49626Y108740D02*
D03*
X42933D02*
D03*
D18*
X369685Y256850D02*
D03*
X375984D02*
D03*
X338484D02*
D03*
X332185D02*
D03*
X207500Y200217D02*
D03*
X201201D02*
D03*
X207500Y207717D02*
D03*
X201201D02*
D03*
X216201Y205217D02*
D03*
X222500D02*
D03*
Y235217D02*
D03*
X216201D02*
D03*
X128760Y200217D02*
D03*
X122461D02*
D03*
X128760Y207717D02*
D03*
X122461D02*
D03*
X137461Y205217D02*
D03*
X143760D02*
D03*
Y235217D02*
D03*
X137461D02*
D03*
X50020Y200217D02*
D03*
X43720D02*
D03*
X50020Y207717D02*
D03*
X43720D02*
D03*
X58720Y205217D02*
D03*
X65020D02*
D03*
Y235217D02*
D03*
X58720D02*
D03*
D19*
X289213Y7874D02*
D03*
X299213D02*
D03*
X309213D02*
D03*
X241968D02*
D03*
X251969D02*
D03*
X261968D02*
D03*
X289213Y208661D02*
D03*
X299213D02*
D03*
X309213D02*
D03*
X241968D02*
D03*
X251969D02*
D03*
X261968D02*
D03*
D20*
X301713Y47933D02*
D03*
X291713D02*
D03*
X311713D02*
D03*
X306713D02*
D03*
X296713D02*
D03*
X286713Y49803D02*
D03*
X254468Y47933D02*
D03*
X244468D02*
D03*
X264469D02*
D03*
X259469D02*
D03*
X249468D02*
D03*
X239469Y49803D02*
D03*
X301713Y248721D02*
D03*
X291713D02*
D03*
X311713D02*
D03*
X306713D02*
D03*
X296713D02*
D03*
X286713Y250590D02*
D03*
X254468Y248721D02*
D03*
X244468D02*
D03*
X264469D02*
D03*
X259469D02*
D03*
X249468D02*
D03*
X239469Y250590D02*
D03*
D22*
X212850Y29890D02*
D03*
Y23591D02*
D03*
X134110Y29890D02*
D03*
Y23591D02*
D03*
X55370Y29890D02*
D03*
Y23591D02*
D03*
D23*
X184252Y58720D02*
D03*
Y43760D02*
D03*
X209449D02*
D03*
Y58720D02*
D03*
X184252Y131220D02*
D03*
Y116260D02*
D03*
X209449D02*
D03*
Y131220D02*
D03*
X105512Y58720D02*
D03*
Y43760D02*
D03*
X130709D02*
D03*
Y58720D02*
D03*
X105512Y131220D02*
D03*
Y116260D02*
D03*
X130709D02*
D03*
Y131220D02*
D03*
X26772Y58720D02*
D03*
Y43760D02*
D03*
X51968D02*
D03*
Y58720D02*
D03*
X26772Y131220D02*
D03*
Y116260D02*
D03*
X51968D02*
D03*
Y131220D02*
D03*
D24*
X231850Y17087D02*
D03*
Y10394D02*
D03*
X153110Y17087D02*
D03*
Y10394D02*
D03*
X179350Y184370D02*
D03*
Y191063D02*
D03*
X100610Y184370D02*
D03*
Y191063D02*
D03*
X21870Y184370D02*
D03*
Y191063D02*
D03*
X74370Y17087D02*
D03*
Y10394D02*
D03*
D25*
X193701Y72835D02*
D03*
X195276D02*
D03*
X196850D02*
D03*
X198425D02*
D03*
X200000D02*
D03*
Y84646D02*
D03*
X198425D02*
D03*
X196850D02*
D03*
X195276D02*
D03*
X193701D02*
D03*
X114961Y72835D02*
D03*
X116535D02*
D03*
X118110D02*
D03*
X119685D02*
D03*
X121260D02*
D03*
Y84646D02*
D03*
X119685D02*
D03*
X118110D02*
D03*
X116535D02*
D03*
X114961D02*
D03*
X36220Y72835D02*
D03*
X37795D02*
D03*
X39370D02*
D03*
X40945D02*
D03*
X42520D02*
D03*
Y84646D02*
D03*
X40945D02*
D03*
X39370D02*
D03*
X37795D02*
D03*
X36220D02*
D03*
D26*
X202756Y75590D02*
D03*
Y77165D02*
D03*
Y78740D02*
D03*
Y80315D02*
D03*
Y81890D02*
D03*
X190945D02*
D03*
Y80315D02*
D03*
Y78740D02*
D03*
Y77165D02*
D03*
Y75590D02*
D03*
X124016D02*
D03*
Y77165D02*
D03*
Y78740D02*
D03*
Y80315D02*
D03*
Y81890D02*
D03*
X112205D02*
D03*
Y80315D02*
D03*
Y78740D02*
D03*
Y77165D02*
D03*
Y75590D02*
D03*
X45276D02*
D03*
Y77165D02*
D03*
Y78740D02*
D03*
Y80315D02*
D03*
Y81890D02*
D03*
X33465D02*
D03*
Y80315D02*
D03*
Y78740D02*
D03*
Y77165D02*
D03*
Y75590D02*
D03*
D27*
X196850Y78740D02*
D03*
X118110D02*
D03*
X39370D02*
D03*
D28*
X185610Y191949D02*
D03*
X193091D02*
D03*
Y183484D02*
D03*
X189350D02*
D03*
X106870Y191949D02*
D03*
X114350D02*
D03*
Y183484D02*
D03*
X110610D02*
D03*
X28130Y191949D02*
D03*
X35610D02*
D03*
Y183484D02*
D03*
X31870D02*
D03*
D29*
X185610Y183484D02*
D03*
X106870D02*
D03*
X28130D02*
D03*
D30*
X194272Y227717D02*
D03*
X184429D02*
D03*
X115532D02*
D03*
X105689D02*
D03*
X36791D02*
D03*
X26949D02*
D03*
D31*
X208957Y216280D02*
D03*
Y218248D02*
D03*
Y220217D02*
D03*
Y222185D02*
D03*
Y224154D02*
D03*
X199744Y216280D02*
D03*
Y218248D02*
D03*
Y220217D02*
D03*
Y222185D02*
D03*
Y224154D02*
D03*
X130217Y216280D02*
D03*
Y218248D02*
D03*
Y220217D02*
D03*
Y222185D02*
D03*
Y224154D02*
D03*
X121004Y216280D02*
D03*
Y218248D02*
D03*
Y220217D02*
D03*
Y222185D02*
D03*
Y224154D02*
D03*
X51476Y216280D02*
D03*
Y218248D02*
D03*
Y220217D02*
D03*
Y222185D02*
D03*
Y224154D02*
D03*
X42264Y216280D02*
D03*
Y218248D02*
D03*
Y220217D02*
D03*
Y222185D02*
D03*
Y224154D02*
D03*
D32*
X204350Y220217D02*
D03*
X125610D02*
D03*
X46870D02*
D03*
D33*
X219350Y214114D02*
D03*
X140610D02*
D03*
X61870D02*
D03*
D34*
X219350Y226319D02*
D03*
X140610D02*
D03*
X61870D02*
D03*
D35*
X191850Y217717D02*
D03*
X184370Y213976D02*
D03*
Y221457D02*
D03*
X113110Y217717D02*
D03*
X105630Y213976D02*
D03*
Y221457D02*
D03*
X34370Y217717D02*
D03*
X26890Y213976D02*
D03*
Y221457D02*
D03*
D36*
X196850Y257087D02*
D03*
X194291D02*
D03*
X191732D02*
D03*
X199409D02*
D03*
X201969D02*
D03*
X118110D02*
D03*
X115551D02*
D03*
X112992D02*
D03*
X120669D02*
D03*
X123228D02*
D03*
X39370D02*
D03*
X36811D02*
D03*
X34252D02*
D03*
X41929D02*
D03*
X44488D02*
D03*
M02*
