G04*
G04 #@! TF.GenerationSoftware,Altium Limited,Altium Designer,20.1.12 (249)*
G04*
G04 Layer_Color=8388736*
%FSLAX25Y25*%
%MOIN*%
G70*
G04*
G04 #@! TF.SameCoordinates,93090BFA-B333-45B1-ADBD-1567DB3BF8F2*
G04*
G04*
G04 #@! TF.FilePolarity,Negative*
G04*
G01*
G75*
%ADD60O,0.03162X0.08477*%
%ADD61O,0.08477X0.03162*%
%ADD62R,0.04737X0.04737*%
%ADD63R,0.04737X0.04343*%
%ADD64O,0.09068X0.02178*%
G04:AMPARAMS|DCode=65|XSize=39.5mil|YSize=39.5mil|CornerRadius=7.94mil|HoleSize=0mil|Usage=FLASHONLY|Rotation=180.000|XOffset=0mil|YOffset=0mil|HoleType=Round|Shape=RoundedRectangle|*
%AMROUNDEDRECTD65*
21,1,0.03950,0.02362,0,0,180.0*
21,1,0.02362,0.03950,0,0,180.0*
1,1,0.01587,-0.01181,0.01181*
1,1,0.01587,0.01181,0.01181*
1,1,0.01587,0.01181,-0.01181*
1,1,0.01587,-0.01181,-0.01181*
%
%ADD65ROUNDEDRECTD65*%
%ADD66R,0.04343X0.04737*%
%ADD67R,0.04737X0.04737*%
G04:AMPARAMS|DCode=68|XSize=86.74mil|YSize=135.95mil|CornerRadius=0mil|HoleSize=0mil|Usage=FLASHONLY|Rotation=360.000|XOffset=0mil|YOffset=0mil|HoleType=Round|Shape=Octagon|*
%AMOCTAGOND68*
4,1,8,-0.02169,0.06798,0.02169,0.06798,0.04337,0.04629,0.04337,-0.04629,0.02169,-0.06798,-0.02169,-0.06798,-0.04337,-0.04629,-0.04337,0.04629,-0.02169,0.06798,0.0*
%
%ADD68OCTAGOND68*%

G04:AMPARAMS|DCode=69|XSize=43.43mil|YSize=401.7mil|CornerRadius=12.86mil|HoleSize=0mil|Usage=FLASHONLY|Rotation=180.000|XOffset=0mil|YOffset=0mil|HoleType=Round|Shape=RoundedRectangle|*
%AMROUNDEDRECTD69*
21,1,0.04343,0.37598,0,0,180.0*
21,1,0.01772,0.40170,0,0,180.0*
1,1,0.02572,-0.00886,0.18799*
1,1,0.02572,0.00886,0.18799*
1,1,0.02572,0.00886,-0.18799*
1,1,0.02572,-0.00886,-0.18799*
%
%ADD69ROUNDEDRECTD69*%
%ADD70R,0.04737X0.04737*%
%ADD71R,0.07099X0.04737*%
G04:AMPARAMS|DCode=72|XSize=39.5mil|YSize=39.5mil|CornerRadius=7.94mil|HoleSize=0mil|Usage=FLASHONLY|Rotation=270.000|XOffset=0mil|YOffset=0mil|HoleType=Round|Shape=RoundedRectangle|*
%AMROUNDEDRECTD72*
21,1,0.03950,0.02362,0,0,270.0*
21,1,0.02362,0.03950,0,0,270.0*
1,1,0.01587,-0.01181,-0.01181*
1,1,0.01587,-0.01181,0.01181*
1,1,0.01587,0.01181,0.01181*
1,1,0.01587,0.01181,-0.01181*
%
%ADD72ROUNDEDRECTD72*%
%ADD73R,0.01587X0.03950*%
%ADD74R,0.03950X0.01587*%
%ADD75R,0.07887X0.07887*%
%ADD76R,0.02965X0.06509*%
%ADD77R,0.02965X0.06509*%
G04:AMPARAMS|DCode=78|XSize=31.62mil|YSize=35.56mil|CornerRadius=6.95mil|HoleSize=0mil|Usage=FLASHONLY|Rotation=180.000|XOffset=0mil|YOffset=0mil|HoleType=Round|Shape=RoundedRectangle|*
%AMROUNDEDRECTD78*
21,1,0.03162,0.02165,0,0,180.0*
21,1,0.01772,0.03556,0,0,180.0*
1,1,0.01391,-0.00886,0.01083*
1,1,0.01391,0.00886,0.01083*
1,1,0.01391,0.00886,-0.01083*
1,1,0.01391,-0.00886,-0.01083*
%
%ADD78ROUNDEDRECTD78*%
%ADD79R,0.03162X0.01784*%
G04:AMPARAMS|DCode=80|XSize=86.74mil|YSize=55.24mil|CornerRadius=9.91mil|HoleSize=0mil|Usage=FLASHONLY|Rotation=270.000|XOffset=0mil|YOffset=0mil|HoleType=Round|Shape=RoundedRectangle|*
%AMROUNDEDRECTD80*
21,1,0.08674,0.03543,0,0,270.0*
21,1,0.06693,0.05524,0,0,270.0*
1,1,0.01981,-0.01772,-0.03347*
1,1,0.01981,-0.01772,0.03347*
1,1,0.01981,0.01772,0.03347*
1,1,0.01981,0.01772,-0.03347*
%
%ADD80ROUNDEDRECTD80*%
G04:AMPARAMS|DCode=81|XSize=59.18mil|YSize=59.18mil|CornerRadius=10.4mil|HoleSize=0mil|Usage=FLASHONLY|Rotation=270.000|XOffset=0mil|YOffset=0mil|HoleType=Round|Shape=RoundedRectangle|*
%AMROUNDEDRECTD81*
21,1,0.05918,0.03839,0,0,270.0*
21,1,0.03839,0.05918,0,0,270.0*
1,1,0.02080,-0.01919,-0.01919*
1,1,0.02080,-0.01919,0.01919*
1,1,0.02080,0.01919,0.01919*
1,1,0.02080,0.01919,-0.01919*
%
%ADD81ROUNDEDRECTD81*%
G04:AMPARAMS|DCode=82|XSize=59.18mil|YSize=59.18mil|CornerRadius=16.8mil|HoleSize=0mil|Usage=FLASHONLY|Rotation=270.000|XOffset=0mil|YOffset=0mil|HoleType=Round|Shape=RoundedRectangle|*
%AMROUNDEDRECTD82*
21,1,0.05918,0.02559,0,0,270.0*
21,1,0.02559,0.05918,0,0,270.0*
1,1,0.03359,-0.01280,-0.01280*
1,1,0.03359,-0.01280,0.01280*
1,1,0.03359,0.01280,0.01280*
1,1,0.03359,0.01280,-0.01280*
%
%ADD82ROUNDEDRECTD82*%
%ADD83R,0.06706X0.03162*%
%ADD84R,0.02375X0.06115*%
%ADD85C,0.06706*%
%ADD86R,0.06706X0.06706*%
%ADD87C,0.06800*%
%ADD88R,0.06706X0.06706*%
%ADD89C,0.03162*%
G04:AMPARAMS|DCode=90|XSize=74.93mil|YSize=74.93mil|CornerRadius=20.73mil|HoleSize=0mil|Usage=FLASHONLY|Rotation=0.000|XOffset=0mil|YOffset=0mil|HoleType=Round|Shape=RoundedRectangle|*
%AMROUNDEDRECTD90*
21,1,0.07493,0.03347,0,0,0.0*
21,1,0.03347,0.07493,0,0,0.0*
1,1,0.04146,0.01673,-0.01673*
1,1,0.04146,-0.01673,-0.01673*
1,1,0.04146,-0.01673,0.01673*
1,1,0.04146,0.01673,0.01673*
%
%ADD90ROUNDEDRECTD90*%
%ADD91O,0.04737X0.06863*%
%ADD92R,0.04737X0.06800*%
%ADD93C,0.02769*%
G04:AMPARAMS|DCode=94|XSize=74.93mil|YSize=63.12mil|CornerRadius=17.78mil|HoleSize=0mil|Usage=FLASHONLY|Rotation=270.000|XOffset=0mil|YOffset=0mil|HoleType=Round|Shape=RoundedRectangle|*
%AMROUNDEDRECTD94*
21,1,0.07493,0.02756,0,0,270.0*
21,1,0.03937,0.06312,0,0,270.0*
1,1,0.03556,-0.01378,-0.01968*
1,1,0.03556,-0.01378,0.01968*
1,1,0.03556,0.01378,0.01968*
1,1,0.03556,0.01378,-0.01968*
%
%ADD94ROUNDEDRECTD94*%
G04:AMPARAMS|DCode=95|XSize=68mil|YSize=57.21mil|CornerRadius=16.3mil|HoleSize=0mil|Usage=FLASHONLY|Rotation=180.000|XOffset=0mil|YOffset=0mil|HoleType=Round|Shape=RoundedRectangle|*
%AMROUNDEDRECTD95*
21,1,0.06800,0.02461,0,0,180.0*
21,1,0.03539,0.05721,0,0,180.0*
1,1,0.03261,-0.01770,0.01230*
1,1,0.03261,0.01770,0.01230*
1,1,0.03261,0.01770,-0.01230*
1,1,0.03261,-0.01770,-0.01230*
%
%ADD95ROUNDEDRECTD95*%
%ADD96C,0.12611*%
D60*
X365827Y74744D02*
D03*
X362677D02*
D03*
X359528D02*
D03*
X356378D02*
D03*
X353228D02*
D03*
X350079D02*
D03*
X346929D02*
D03*
X343779D02*
D03*
Y41476D02*
D03*
X346929D02*
D03*
X350079D02*
D03*
X353228D02*
D03*
X356378D02*
D03*
X359528D02*
D03*
X362677D02*
D03*
X365827D02*
D03*
D61*
X338169Y69134D02*
D03*
Y65984D02*
D03*
Y62835D02*
D03*
Y59685D02*
D03*
Y56536D02*
D03*
Y53386D02*
D03*
Y50236D02*
D03*
Y47087D02*
D03*
X371437D02*
D03*
Y50236D02*
D03*
Y53386D02*
D03*
Y56536D02*
D03*
Y59685D02*
D03*
Y62835D02*
D03*
Y65984D02*
D03*
Y69134D02*
D03*
D62*
X347303Y108760D02*
D03*
Y102461D02*
D03*
X364803Y108760D02*
D03*
Y102461D02*
D03*
X199350Y184567D02*
D03*
Y190866D02*
D03*
X206850D02*
D03*
Y184567D02*
D03*
Y245866D02*
D03*
Y239567D02*
D03*
X120610Y184567D02*
D03*
Y190866D02*
D03*
X128110D02*
D03*
Y184567D02*
D03*
Y245866D02*
D03*
Y239567D02*
D03*
X41870Y184567D02*
D03*
Y190866D02*
D03*
X49370D02*
D03*
Y184567D02*
D03*
Y245866D02*
D03*
Y239567D02*
D03*
D63*
X374803Y108957D02*
D03*
Y102264D02*
D03*
X224350Y10394D02*
D03*
Y17087D02*
D03*
X145610Y10394D02*
D03*
Y17087D02*
D03*
X184350Y239370D02*
D03*
Y246063D02*
D03*
X191850Y239370D02*
D03*
Y246063D02*
D03*
X199350Y239370D02*
D03*
Y246063D02*
D03*
X105610Y239370D02*
D03*
Y246063D02*
D03*
X113110Y239370D02*
D03*
Y246063D02*
D03*
X120610Y239370D02*
D03*
Y246063D02*
D03*
X26870Y239370D02*
D03*
Y246063D02*
D03*
X34370Y239370D02*
D03*
Y246063D02*
D03*
X41870Y239370D02*
D03*
Y246063D02*
D03*
X66870Y10394D02*
D03*
Y17087D02*
D03*
D64*
X364252Y215335D02*
D03*
Y217894D02*
D03*
Y220453D02*
D03*
Y223012D02*
D03*
Y225571D02*
D03*
Y228130D02*
D03*
Y230689D02*
D03*
Y233248D02*
D03*
Y235807D02*
D03*
Y238366D02*
D03*
X341417Y215335D02*
D03*
Y217894D02*
D03*
Y220453D02*
D03*
Y223012D02*
D03*
Y225571D02*
D03*
Y228130D02*
D03*
Y230689D02*
D03*
Y233248D02*
D03*
Y235807D02*
D03*
Y238366D02*
D03*
D65*
X354488Y206850D02*
D03*
X361181D02*
D03*
X195197Y101240D02*
D03*
X188504D02*
D03*
Y108740D02*
D03*
X195197D02*
D03*
X116457Y101240D02*
D03*
X109764D02*
D03*
Y108740D02*
D03*
X116457D02*
D03*
X222697Y190217D02*
D03*
X216004D02*
D03*
X143957D02*
D03*
X137264D02*
D03*
X65216D02*
D03*
X58524D02*
D03*
X37716Y101240D02*
D03*
X31024D02*
D03*
Y108740D02*
D03*
X37716D02*
D03*
D66*
X348681Y206850D02*
D03*
X341988D02*
D03*
X350335Y261850D02*
D03*
X357028D02*
D03*
X207106Y101240D02*
D03*
X200413D02*
D03*
X207106Y108740D02*
D03*
X200413D02*
D03*
X128366Y101240D02*
D03*
X121673D02*
D03*
X128366Y108740D02*
D03*
X121673D02*
D03*
X216004Y197717D02*
D03*
X222697D02*
D03*
X185197D02*
D03*
X178504D02*
D03*
X185197Y205217D02*
D03*
X178504D02*
D03*
X137264Y197717D02*
D03*
X143957D02*
D03*
X106457D02*
D03*
X99764D02*
D03*
X106457Y205217D02*
D03*
X99764D02*
D03*
X58524Y197717D02*
D03*
X65216D02*
D03*
X27717D02*
D03*
X21024D02*
D03*
X27717Y205217D02*
D03*
X21024D02*
D03*
X49626Y101240D02*
D03*
X42933D02*
D03*
X49626Y108740D02*
D03*
X42933D02*
D03*
D67*
X369685Y256850D02*
D03*
X375984D02*
D03*
X338484D02*
D03*
X332185D02*
D03*
X207500Y200217D02*
D03*
X201201D02*
D03*
X207500Y207717D02*
D03*
X201201D02*
D03*
X216201Y205217D02*
D03*
X222500D02*
D03*
Y235217D02*
D03*
X216201D02*
D03*
X128760Y200217D02*
D03*
X122461D02*
D03*
X128760Y207717D02*
D03*
X122461D02*
D03*
X137461Y205217D02*
D03*
X143760D02*
D03*
Y235217D02*
D03*
X137461D02*
D03*
X50020Y200217D02*
D03*
X43720D02*
D03*
X50020Y207717D02*
D03*
X43720D02*
D03*
X58720Y205217D02*
D03*
X65020D02*
D03*
Y235217D02*
D03*
X58720D02*
D03*
D68*
X289213Y7874D02*
D03*
X299213D02*
D03*
X309213D02*
D03*
X241968D02*
D03*
X251969D02*
D03*
X261968D02*
D03*
X289213Y208661D02*
D03*
X299213D02*
D03*
X309213D02*
D03*
X241968D02*
D03*
X251969D02*
D03*
X261968D02*
D03*
D69*
X301713Y47933D02*
D03*
X291713D02*
D03*
X311713D02*
D03*
X306713D02*
D03*
X296713D02*
D03*
X286713Y49803D02*
D03*
X254468Y47933D02*
D03*
X244468D02*
D03*
X264469D02*
D03*
X259469D02*
D03*
X249468D02*
D03*
X239469Y49803D02*
D03*
X301713Y248721D02*
D03*
X291713D02*
D03*
X311713D02*
D03*
X306713D02*
D03*
X296713D02*
D03*
X286713Y250590D02*
D03*
X254468Y248721D02*
D03*
X244468D02*
D03*
X264469D02*
D03*
X259469D02*
D03*
X249468D02*
D03*
X239469Y250590D02*
D03*
D70*
X212850Y29890D02*
D03*
Y23591D02*
D03*
X134110Y29890D02*
D03*
Y23591D02*
D03*
X55370Y29890D02*
D03*
Y23591D02*
D03*
D71*
X184252Y58720D02*
D03*
Y43760D02*
D03*
X209449D02*
D03*
Y58720D02*
D03*
X184252Y131220D02*
D03*
Y116260D02*
D03*
X209449D02*
D03*
Y131220D02*
D03*
X105512Y58720D02*
D03*
Y43760D02*
D03*
X130709D02*
D03*
Y58720D02*
D03*
X105512Y131220D02*
D03*
Y116260D02*
D03*
X130709D02*
D03*
Y131220D02*
D03*
X26772Y58720D02*
D03*
Y43760D02*
D03*
X51968D02*
D03*
Y58720D02*
D03*
X26772Y131220D02*
D03*
Y116260D02*
D03*
X51968D02*
D03*
Y131220D02*
D03*
D72*
X231850Y17087D02*
D03*
Y10394D02*
D03*
X153110Y17087D02*
D03*
Y10394D02*
D03*
X179350Y184370D02*
D03*
Y191063D02*
D03*
X100610Y184370D02*
D03*
Y191063D02*
D03*
X21870Y184370D02*
D03*
Y191063D02*
D03*
X74370Y17087D02*
D03*
Y10394D02*
D03*
D73*
X193701Y72835D02*
D03*
X195276D02*
D03*
X196850D02*
D03*
X198425D02*
D03*
X200000D02*
D03*
Y84646D02*
D03*
X198425D02*
D03*
X196850D02*
D03*
X195276D02*
D03*
X193701D02*
D03*
X114961Y72835D02*
D03*
X116535D02*
D03*
X118110D02*
D03*
X119685D02*
D03*
X121260D02*
D03*
Y84646D02*
D03*
X119685D02*
D03*
X118110D02*
D03*
X116535D02*
D03*
X114961D02*
D03*
X36220Y72835D02*
D03*
X37795D02*
D03*
X39370D02*
D03*
X40945D02*
D03*
X42520D02*
D03*
Y84646D02*
D03*
X40945D02*
D03*
X39370D02*
D03*
X37795D02*
D03*
X36220D02*
D03*
D74*
X202756Y75590D02*
D03*
Y77165D02*
D03*
Y78740D02*
D03*
Y80315D02*
D03*
Y81890D02*
D03*
X190945D02*
D03*
Y80315D02*
D03*
Y78740D02*
D03*
Y77165D02*
D03*
Y75590D02*
D03*
X124016D02*
D03*
Y77165D02*
D03*
Y78740D02*
D03*
Y80315D02*
D03*
Y81890D02*
D03*
X112205D02*
D03*
Y80315D02*
D03*
Y78740D02*
D03*
Y77165D02*
D03*
Y75590D02*
D03*
X45276D02*
D03*
Y77165D02*
D03*
Y78740D02*
D03*
Y80315D02*
D03*
Y81890D02*
D03*
X33465D02*
D03*
Y80315D02*
D03*
Y78740D02*
D03*
Y77165D02*
D03*
Y75590D02*
D03*
D75*
X196850Y78740D02*
D03*
X118110D02*
D03*
X39370D02*
D03*
D76*
X185610Y191949D02*
D03*
X193091D02*
D03*
Y183484D02*
D03*
X189350D02*
D03*
X106870Y191949D02*
D03*
X114350D02*
D03*
Y183484D02*
D03*
X110610D02*
D03*
X28130Y191949D02*
D03*
X35610D02*
D03*
Y183484D02*
D03*
X31870D02*
D03*
D77*
X185610Y183484D02*
D03*
X106870D02*
D03*
X28130D02*
D03*
D78*
X194272Y227717D02*
D03*
X184429D02*
D03*
X115532D02*
D03*
X105689D02*
D03*
X36791D02*
D03*
X26949D02*
D03*
D79*
X208957Y216280D02*
D03*
Y218248D02*
D03*
Y220217D02*
D03*
Y222185D02*
D03*
Y224154D02*
D03*
X199744Y216280D02*
D03*
Y218248D02*
D03*
Y220217D02*
D03*
Y222185D02*
D03*
Y224154D02*
D03*
X130217Y216280D02*
D03*
Y218248D02*
D03*
Y220217D02*
D03*
Y222185D02*
D03*
Y224154D02*
D03*
X121004Y216280D02*
D03*
Y218248D02*
D03*
Y220217D02*
D03*
Y222185D02*
D03*
Y224154D02*
D03*
X51476Y216280D02*
D03*
Y218248D02*
D03*
Y220217D02*
D03*
Y222185D02*
D03*
Y224154D02*
D03*
X42264Y216280D02*
D03*
Y218248D02*
D03*
Y220217D02*
D03*
Y222185D02*
D03*
Y224154D02*
D03*
D80*
X204350Y220217D02*
D03*
X125610D02*
D03*
X46870D02*
D03*
D81*
X219350Y214114D02*
D03*
X140610D02*
D03*
X61870D02*
D03*
D82*
X219350Y226319D02*
D03*
X140610D02*
D03*
X61870D02*
D03*
D83*
X191850Y217717D02*
D03*
X184370Y213976D02*
D03*
Y221457D02*
D03*
X113110Y217717D02*
D03*
X105630Y213976D02*
D03*
Y221457D02*
D03*
X34370Y217717D02*
D03*
X26890Y213976D02*
D03*
Y221457D02*
D03*
D84*
X196850Y257087D02*
D03*
X194291D02*
D03*
X191732D02*
D03*
X199409D02*
D03*
X201969D02*
D03*
X118110D02*
D03*
X115551D02*
D03*
X112992D02*
D03*
X120669D02*
D03*
X123228D02*
D03*
X39370D02*
D03*
X36811D02*
D03*
X34252D02*
D03*
X41929D02*
D03*
X44488D02*
D03*
D85*
X242500Y82500D02*
D03*
Y92500D02*
D03*
X252500D02*
D03*
Y82500D02*
D03*
X262500D02*
D03*
Y92500D02*
D03*
X272500D02*
D03*
Y82500D02*
D03*
X282500D02*
D03*
Y92500D02*
D03*
X292500D02*
D03*
Y82500D02*
D03*
X302500D02*
D03*
Y92500D02*
D03*
Y112500D02*
D03*
Y102500D02*
D03*
X292500D02*
D03*
Y112500D02*
D03*
X282500D02*
D03*
Y102500D02*
D03*
X272500D02*
D03*
Y112500D02*
D03*
X262500D02*
D03*
Y102500D02*
D03*
X252500D02*
D03*
Y112500D02*
D03*
X242500D02*
D03*
Y102500D02*
D03*
X302500Y132500D02*
D03*
Y122500D02*
D03*
X292500D02*
D03*
Y132500D02*
D03*
X282500D02*
D03*
Y122500D02*
D03*
X272500D02*
D03*
Y132500D02*
D03*
X262500D02*
D03*
Y122500D02*
D03*
X252500D02*
D03*
Y132500D02*
D03*
X242500D02*
D03*
Y122500D02*
D03*
Y182500D02*
D03*
Y192500D02*
D03*
X252500D02*
D03*
Y182500D02*
D03*
X262500D02*
D03*
Y192500D02*
D03*
X272500D02*
D03*
Y182500D02*
D03*
X282500D02*
D03*
Y192500D02*
D03*
X292500D02*
D03*
Y182500D02*
D03*
X302500D02*
D03*
Y192500D02*
D03*
X242500Y162500D02*
D03*
Y172500D02*
D03*
X252500D02*
D03*
Y162500D02*
D03*
X262500D02*
D03*
Y172500D02*
D03*
X272500D02*
D03*
Y162500D02*
D03*
X282500D02*
D03*
Y172500D02*
D03*
X292500D02*
D03*
Y162500D02*
D03*
X302500D02*
D03*
Y172500D02*
D03*
Y152500D02*
D03*
Y142500D02*
D03*
X292500D02*
D03*
Y152500D02*
D03*
X282500D02*
D03*
Y142500D02*
D03*
X272500D02*
D03*
Y152500D02*
D03*
X262500D02*
D03*
Y142500D02*
D03*
X252500D02*
D03*
Y152500D02*
D03*
X242500D02*
D03*
Y142500D02*
D03*
X324803Y128110D02*
D03*
X334766Y127673D02*
D03*
X344803Y128110D02*
D03*
X354803D02*
D03*
X364803D02*
D03*
X374803D02*
D03*
X384803D02*
D03*
Y108110D02*
D03*
Y118110D02*
D03*
X332835Y146850D02*
D03*
X342835D02*
D03*
Y166850D02*
D03*
Y156850D02*
D03*
X332835D02*
D03*
Y166850D02*
D03*
X342835Y186850D02*
D03*
Y176850D02*
D03*
X332835D02*
D03*
Y186850D02*
D03*
X322835Y176850D02*
D03*
Y186850D02*
D03*
X352835D02*
D03*
Y176850D02*
D03*
X362835D02*
D03*
Y186850D02*
D03*
X372835D02*
D03*
Y176850D02*
D03*
X382835D02*
D03*
Y186850D02*
D03*
X322835Y156850D02*
D03*
Y166850D02*
D03*
X352835D02*
D03*
Y156850D02*
D03*
X362835D02*
D03*
Y166850D02*
D03*
X372835D02*
D03*
Y156850D02*
D03*
X382835D02*
D03*
Y166850D02*
D03*
Y146850D02*
D03*
X372835D02*
D03*
X362835D02*
D03*
X352835D02*
D03*
X322835D02*
D03*
X362835Y266850D02*
D03*
X372835D02*
D03*
X201850Y8740D02*
D03*
X191850D02*
D03*
X201850Y18740D02*
D03*
X191850D02*
D03*
X201850Y28740D02*
D03*
X123110Y8740D02*
D03*
X113110D02*
D03*
X123110Y18740D02*
D03*
X113110D02*
D03*
X123110Y28740D02*
D03*
X161850Y162717D02*
D03*
Y152717D02*
D03*
Y142717D02*
D03*
X171850Y162717D02*
D03*
Y152717D02*
D03*
Y142717D02*
D03*
X181850Y162717D02*
D03*
Y152717D02*
D03*
Y142717D02*
D03*
X191850Y162717D02*
D03*
Y152717D02*
D03*
Y142717D02*
D03*
X201850Y162717D02*
D03*
Y152717D02*
D03*
Y142717D02*
D03*
X211850Y162717D02*
D03*
Y152717D02*
D03*
Y142717D02*
D03*
X221850Y162717D02*
D03*
Y152717D02*
D03*
Y142717D02*
D03*
X231850D02*
D03*
Y152717D02*
D03*
Y162717D02*
D03*
X83110D02*
D03*
Y152717D02*
D03*
Y142717D02*
D03*
X93110Y162717D02*
D03*
Y152717D02*
D03*
Y142717D02*
D03*
X103110Y162717D02*
D03*
Y152717D02*
D03*
Y142717D02*
D03*
X113110Y162717D02*
D03*
Y152717D02*
D03*
Y142717D02*
D03*
X123110Y162717D02*
D03*
Y152717D02*
D03*
Y142717D02*
D03*
X133110Y162717D02*
D03*
Y152717D02*
D03*
Y142717D02*
D03*
X143110Y162717D02*
D03*
Y152717D02*
D03*
Y142717D02*
D03*
X153110D02*
D03*
Y152717D02*
D03*
Y162717D02*
D03*
X4370D02*
D03*
Y152717D02*
D03*
Y142717D02*
D03*
X14370Y162717D02*
D03*
Y152717D02*
D03*
Y142717D02*
D03*
X24370Y162717D02*
D03*
Y152717D02*
D03*
Y142717D02*
D03*
X34370Y162717D02*
D03*
Y152717D02*
D03*
Y142717D02*
D03*
X44370Y162717D02*
D03*
Y152717D02*
D03*
Y142717D02*
D03*
X54370Y162717D02*
D03*
Y152717D02*
D03*
Y142717D02*
D03*
X64370Y162717D02*
D03*
Y152717D02*
D03*
Y142717D02*
D03*
X74370D02*
D03*
Y152717D02*
D03*
Y162717D02*
D03*
X44370Y8740D02*
D03*
X34370D02*
D03*
X44370Y18740D02*
D03*
X34370D02*
D03*
X44370Y28740D02*
D03*
D86*
X384803Y88110D02*
D03*
Y98110D02*
D03*
Y68110D02*
D03*
Y48110D02*
D03*
Y38110D02*
D03*
Y28110D02*
D03*
X324803Y38110D02*
D03*
Y48110D02*
D03*
X384803Y18110D02*
D03*
X344803Y8110D02*
D03*
X334803D02*
D03*
X324803D02*
D03*
Y18110D02*
D03*
Y28110D02*
D03*
Y58110D02*
D03*
Y68110D02*
D03*
Y78110D02*
D03*
Y88110D02*
D03*
Y98110D02*
D03*
Y108110D02*
D03*
X334803Y118110D02*
D03*
X344803D02*
D03*
X342835Y196850D02*
D03*
X191850Y28740D02*
D03*
X226850Y68740D02*
D03*
Y108740D02*
D03*
Y128740D02*
D03*
Y98740D02*
D03*
Y88740D02*
D03*
Y58740D02*
D03*
Y48740D02*
D03*
Y28740D02*
D03*
Y118740D02*
D03*
Y78740D02*
D03*
Y38740D02*
D03*
X166850Y28740D02*
D03*
Y38740D02*
D03*
X113110Y28740D02*
D03*
X148110Y68740D02*
D03*
Y108740D02*
D03*
Y128740D02*
D03*
Y98740D02*
D03*
Y88740D02*
D03*
Y58740D02*
D03*
Y48740D02*
D03*
Y28740D02*
D03*
Y118740D02*
D03*
Y78740D02*
D03*
Y38740D02*
D03*
X88110Y28740D02*
D03*
Y38740D02*
D03*
X221850Y247717D02*
D03*
X166850D02*
D03*
X214350Y175217D02*
D03*
X181850D02*
D03*
X166850Y237717D02*
D03*
Y217717D02*
D03*
Y227717D02*
D03*
X143110Y247717D02*
D03*
X88110D02*
D03*
X135610Y175217D02*
D03*
X103110D02*
D03*
X88110Y237717D02*
D03*
Y217717D02*
D03*
Y227717D02*
D03*
X64370Y247717D02*
D03*
X9370D02*
D03*
X56870Y175217D02*
D03*
X24370D02*
D03*
X9370Y237717D02*
D03*
Y217717D02*
D03*
Y227717D02*
D03*
X34370Y28740D02*
D03*
X69370Y68740D02*
D03*
Y108740D02*
D03*
Y128740D02*
D03*
Y98740D02*
D03*
Y88740D02*
D03*
Y58740D02*
D03*
Y48740D02*
D03*
Y28740D02*
D03*
Y118740D02*
D03*
Y78740D02*
D03*
Y38740D02*
D03*
X9370Y28740D02*
D03*
Y38740D02*
D03*
D87*
X366303Y90610D02*
D03*
X347303D02*
D03*
X362835Y251850D02*
D03*
X343835D02*
D03*
D88*
X324803Y118110D02*
D03*
X384803Y8110D02*
D03*
X374803D02*
D03*
X364803D02*
D03*
X354803D02*
D03*
X364803Y118110D02*
D03*
X384803Y78110D02*
D03*
X354803Y118110D02*
D03*
X374803D02*
D03*
X384803Y58110D02*
D03*
X322835Y226850D02*
D03*
Y216850D02*
D03*
Y206850D02*
D03*
Y196850D02*
D03*
X332835D02*
D03*
X352835D02*
D03*
X362835D02*
D03*
X372835D02*
D03*
X382835Y206850D02*
D03*
Y216850D02*
D03*
Y226850D02*
D03*
Y236850D02*
D03*
Y246850D02*
D03*
X382835Y256850D02*
D03*
X382835Y196850D02*
D03*
X322835Y256850D02*
D03*
Y246850D02*
D03*
Y266850D02*
D03*
Y236850D02*
D03*
X382835Y266850D02*
D03*
X166850Y68740D02*
D03*
Y128740D02*
D03*
Y108740D02*
D03*
Y98740D02*
D03*
Y88740D02*
D03*
Y58740D02*
D03*
Y48740D02*
D03*
Y118740D02*
D03*
Y78740D02*
D03*
X88110Y68740D02*
D03*
Y128740D02*
D03*
Y108740D02*
D03*
Y98740D02*
D03*
Y88740D02*
D03*
Y58740D02*
D03*
Y48740D02*
D03*
Y118740D02*
D03*
Y78740D02*
D03*
X9370Y68740D02*
D03*
Y128740D02*
D03*
Y108740D02*
D03*
Y98740D02*
D03*
Y88740D02*
D03*
Y58740D02*
D03*
Y48740D02*
D03*
Y118740D02*
D03*
Y78740D02*
D03*
D89*
X352803Y97110D02*
D03*
X356803Y91110D02*
D03*
X352303Y83110D02*
D03*
X377303Y75610D02*
D03*
D90*
X176850Y8740D02*
D03*
Y18740D02*
D03*
X166850Y8740D02*
D03*
Y18740D02*
D03*
X98110Y8740D02*
D03*
Y18740D02*
D03*
X88110Y8740D02*
D03*
Y18740D02*
D03*
X19370Y8740D02*
D03*
Y18740D02*
D03*
X9370Y8740D02*
D03*
Y18740D02*
D03*
D91*
X199311Y175217D02*
D03*
X120571D02*
D03*
X41831D02*
D03*
D92*
X194390D02*
D03*
X115650D02*
D03*
X36909D02*
D03*
D93*
X204350Y220217D02*
D03*
Y222717D02*
D03*
Y217717D02*
D03*
X125610Y220217D02*
D03*
Y222717D02*
D03*
Y217717D02*
D03*
X46870Y220217D02*
D03*
Y222717D02*
D03*
Y217717D02*
D03*
D94*
X183071Y267815D02*
D03*
X210630D02*
D03*
X104331D02*
D03*
X131890D02*
D03*
X25591D02*
D03*
X53150D02*
D03*
D95*
X187008Y257087D02*
D03*
X206693D02*
D03*
X108268D02*
D03*
X127953D02*
D03*
X29528D02*
D03*
X49213D02*
D03*
D96*
X165354Y177165D02*
D03*
Y267717D02*
D03*
X228346Y177165D02*
D03*
Y267717D02*
D03*
X86614Y177165D02*
D03*
Y267717D02*
D03*
X149606Y177165D02*
D03*
Y267717D02*
D03*
X7874Y177165D02*
D03*
Y267717D02*
D03*
X70866Y177165D02*
D03*
Y267717D02*
D03*
M02*
