G04*
G04 #@! TF.GenerationSoftware,Altium Limited,Altium Designer,20.1.12 (249)*
G04*
G04 Layer_Physical_Order=1*
G04 Layer_Color=255*
%FSLAX25Y25*%
%MOIN*%
G70*
G04*
G04 #@! TF.SameCoordinates,93090BFA-B333-45B1-ADBD-1567DB3BF8F2*
G04*
G04*
G04 #@! TF.FilePolarity,Positive*
G04*
G01*
G75*
%ADD10O,0.02362X0.07677*%
%ADD11O,0.07677X0.02362*%
%ADD12R,0.03937X0.03937*%
%ADD13R,0.03937X0.03543*%
%ADD14C,0.00984*%
%ADD15O,0.08268X0.01378*%
G04:AMPARAMS|DCode=16|XSize=31.5mil|YSize=31.5mil|CornerRadius=3.94mil|HoleSize=0mil|Usage=FLASHONLY|Rotation=180.000|XOffset=0mil|YOffset=0mil|HoleType=Round|Shape=RoundedRectangle|*
%AMROUNDEDRECTD16*
21,1,0.03150,0.02362,0,0,180.0*
21,1,0.02362,0.03150,0,0,180.0*
1,1,0.00787,-0.01181,0.01181*
1,1,0.00787,0.01181,0.01181*
1,1,0.00787,0.01181,-0.01181*
1,1,0.00787,-0.01181,-0.01181*
%
%ADD16ROUNDEDRECTD16*%
%ADD17R,0.03543X0.03937*%
%ADD18R,0.03937X0.03937*%
G04:AMPARAMS|DCode=19|XSize=78.74mil|YSize=127.95mil|CornerRadius=0mil|HoleSize=0mil|Usage=FLASHONLY|Rotation=360.000|XOffset=0mil|YOffset=0mil|HoleType=Round|Shape=Octagon|*
%AMOCTAGOND19*
4,1,8,-0.01968,0.06398,0.01968,0.06398,0.03937,0.04429,0.03937,-0.04429,0.01968,-0.06398,-0.01968,-0.06398,-0.03937,-0.04429,-0.03937,0.04429,-0.01968,0.06398,0.0*
%
%ADD19OCTAGOND19*%

G04:AMPARAMS|DCode=20|XSize=35.43mil|YSize=393.7mil|CornerRadius=8.86mil|HoleSize=0mil|Usage=FLASHONLY|Rotation=180.000|XOffset=0mil|YOffset=0mil|HoleType=Round|Shape=RoundedRectangle|*
%AMROUNDEDRECTD20*
21,1,0.03543,0.37598,0,0,180.0*
21,1,0.01772,0.39370,0,0,180.0*
1,1,0.01772,-0.00886,0.18799*
1,1,0.01772,0.00886,0.18799*
1,1,0.01772,0.00886,-0.18799*
1,1,0.01772,-0.00886,-0.18799*
%
%ADD20ROUNDEDRECTD20*%
%ADD21C,0.01968*%
%ADD22R,0.03937X0.03937*%
%ADD23R,0.06299X0.03937*%
G04:AMPARAMS|DCode=24|XSize=31.5mil|YSize=31.5mil|CornerRadius=3.94mil|HoleSize=0mil|Usage=FLASHONLY|Rotation=270.000|XOffset=0mil|YOffset=0mil|HoleType=Round|Shape=RoundedRectangle|*
%AMROUNDEDRECTD24*
21,1,0.03150,0.02362,0,0,270.0*
21,1,0.02362,0.03150,0,0,270.0*
1,1,0.00787,-0.01181,-0.01181*
1,1,0.00787,-0.01181,0.01181*
1,1,0.00787,0.01181,0.01181*
1,1,0.00787,0.01181,-0.01181*
%
%ADD24ROUNDEDRECTD24*%
%ADD25R,0.00787X0.03150*%
%ADD26R,0.03150X0.00787*%
%ADD27R,0.07087X0.07087*%
%ADD28R,0.02165X0.05709*%
%ADD29R,0.02165X0.05709*%
G04:AMPARAMS|DCode=30|XSize=23.62mil|YSize=27.56mil|CornerRadius=2.95mil|HoleSize=0mil|Usage=FLASHONLY|Rotation=180.000|XOffset=0mil|YOffset=0mil|HoleType=Round|Shape=RoundedRectangle|*
%AMROUNDEDRECTD30*
21,1,0.02362,0.02165,0,0,180.0*
21,1,0.01772,0.02756,0,0,180.0*
1,1,0.00591,-0.00886,0.01083*
1,1,0.00591,0.00886,0.01083*
1,1,0.00591,0.00886,-0.01083*
1,1,0.00591,-0.00886,-0.01083*
%
%ADD30ROUNDEDRECTD30*%
%ADD31R,0.02362X0.00984*%
G04:AMPARAMS|DCode=32|XSize=78.74mil|YSize=47.24mil|CornerRadius=5.91mil|HoleSize=0mil|Usage=FLASHONLY|Rotation=270.000|XOffset=0mil|YOffset=0mil|HoleType=Round|Shape=RoundedRectangle|*
%AMROUNDEDRECTD32*
21,1,0.07874,0.03543,0,0,270.0*
21,1,0.06693,0.04724,0,0,270.0*
1,1,0.01181,-0.01772,-0.03347*
1,1,0.01181,-0.01772,0.03347*
1,1,0.01181,0.01772,0.03347*
1,1,0.01181,0.01772,-0.03347*
%
%ADD32ROUNDEDRECTD32*%
G04:AMPARAMS|DCode=33|XSize=51.18mil|YSize=51.18mil|CornerRadius=6.4mil|HoleSize=0mil|Usage=FLASHONLY|Rotation=270.000|XOffset=0mil|YOffset=0mil|HoleType=Round|Shape=RoundedRectangle|*
%AMROUNDEDRECTD33*
21,1,0.05118,0.03839,0,0,270.0*
21,1,0.03839,0.05118,0,0,270.0*
1,1,0.01280,-0.01919,-0.01919*
1,1,0.01280,-0.01919,0.01919*
1,1,0.01280,0.01919,0.01919*
1,1,0.01280,0.01919,-0.01919*
%
%ADD33ROUNDEDRECTD33*%
G04:AMPARAMS|DCode=34|XSize=51.18mil|YSize=51.18mil|CornerRadius=12.8mil|HoleSize=0mil|Usage=FLASHONLY|Rotation=270.000|XOffset=0mil|YOffset=0mil|HoleType=Round|Shape=RoundedRectangle|*
%AMROUNDEDRECTD34*
21,1,0.05118,0.02559,0,0,270.0*
21,1,0.02559,0.05118,0,0,270.0*
1,1,0.02559,-0.01280,-0.01280*
1,1,0.02559,-0.01280,0.01280*
1,1,0.02559,0.01280,0.01280*
1,1,0.02559,0.01280,-0.01280*
%
%ADD34ROUNDEDRECTD34*%
%ADD35R,0.05906X0.02362*%
%ADD36R,0.01575X0.05315*%
%ADD37C,0.05906*%
%ADD38R,0.05906X0.05906*%
%ADD39C,0.06000*%
%ADD40R,0.05906X0.05906*%
%ADD41C,0.02362*%
%ADD42C,0.01968*%
G04:AMPARAMS|DCode=43|XSize=66.93mil|YSize=66.93mil|CornerRadius=16.73mil|HoleSize=0mil|Usage=FLASHONLY|Rotation=0.000|XOffset=0mil|YOffset=0mil|HoleType=Round|Shape=RoundedRectangle|*
%AMROUNDEDRECTD43*
21,1,0.06693,0.03347,0,0,0.0*
21,1,0.03347,0.06693,0,0,0.0*
1,1,0.03346,0.01673,-0.01673*
1,1,0.03346,-0.01673,-0.01673*
1,1,0.03346,-0.01673,0.01673*
1,1,0.03346,0.01673,0.01673*
%
%ADD43ROUNDEDRECTD43*%
%ADD44O,0.03937X0.06063*%
%ADD45R,0.03937X0.06000*%
G04:AMPARAMS|DCode=46|XSize=66.93mil|YSize=55.12mil|CornerRadius=13.78mil|HoleSize=0mil|Usage=FLASHONLY|Rotation=270.000|XOffset=0mil|YOffset=0mil|HoleType=Round|Shape=RoundedRectangle|*
%AMROUNDEDRECTD46*
21,1,0.06693,0.02756,0,0,270.0*
21,1,0.03937,0.05512,0,0,270.0*
1,1,0.02756,-0.01378,-0.01968*
1,1,0.02756,-0.01378,0.01968*
1,1,0.02756,0.01378,0.01968*
1,1,0.02756,0.01378,-0.01968*
%
%ADD46ROUNDEDRECTD46*%
G04:AMPARAMS|DCode=47|XSize=60mil|YSize=49.21mil|CornerRadius=12.3mil|HoleSize=0mil|Usage=FLASHONLY|Rotation=180.000|XOffset=0mil|YOffset=0mil|HoleType=Round|Shape=RoundedRectangle|*
%AMROUNDEDRECTD47*
21,1,0.06000,0.02461,0,0,180.0*
21,1,0.03539,0.04921,0,0,180.0*
1,1,0.02461,-0.01770,0.01230*
1,1,0.02461,0.01770,0.01230*
1,1,0.02461,0.01770,-0.01230*
1,1,0.02461,-0.01770,-0.01230*
%
%ADD47ROUNDEDRECTD47*%
%ADD48C,0.11811*%
G36*
X224865Y273686D02*
X224491Y273486D01*
X223440Y272623D01*
X222577Y271572D01*
X221936Y270372D01*
X221541Y269070D01*
X221457Y268217D01*
X228346D01*
Y267717D01*
X228847D01*
Y260827D01*
X229700Y260911D01*
X231002Y261306D01*
X232202Y261947D01*
X233253Y262810D01*
X234116Y263861D01*
X234315Y264235D01*
X234816Y264110D01*
Y180772D01*
X234315Y180647D01*
X234116Y181020D01*
X233253Y182072D01*
X232202Y182935D01*
X231002Y183576D01*
X229700Y183971D01*
X228847Y184055D01*
Y170276D01*
X229700Y170360D01*
X231002Y170755D01*
X232202Y171396D01*
X233253Y172259D01*
X234116Y173310D01*
X234315Y173684D01*
X234816Y173558D01*
Y169291D01*
X158885D01*
Y173558D01*
X159385Y173684D01*
X159585Y173310D01*
X160448Y172259D01*
X161499Y171396D01*
X162699Y170755D01*
X164001Y170360D01*
X164854Y170276D01*
Y184055D01*
X164001Y183971D01*
X162699Y183576D01*
X161499Y182935D01*
X160448Y182072D01*
X159585Y181020D01*
X159385Y180647D01*
X158885Y180772D01*
Y264110D01*
X159385Y264235D01*
X159585Y263861D01*
X160448Y262810D01*
X161499Y261947D01*
X162699Y261306D01*
X164001Y260911D01*
X164854Y260827D01*
Y267717D01*
X165354D01*
Y268217D01*
X172244D01*
X172160Y269070D01*
X171765Y270372D01*
X171124Y271572D01*
X170261Y272623D01*
X169209Y273486D01*
X168836Y273686D01*
X168961Y274186D01*
X224740D01*
X224865Y273686D01*
D02*
G37*
G36*
X146125D02*
X145751Y273486D01*
X144700Y272623D01*
X143837Y271572D01*
X143196Y270372D01*
X142801Y269070D01*
X142717Y268217D01*
X149606D01*
Y267717D01*
X150106D01*
Y260827D01*
X150960Y260911D01*
X152262Y261306D01*
X153461Y261947D01*
X154513Y262810D01*
X155376Y263861D01*
X155575Y264235D01*
X156075Y264110D01*
Y180772D01*
X155575Y180647D01*
X155376Y181020D01*
X154513Y182072D01*
X153461Y182935D01*
X152262Y183576D01*
X150960Y183971D01*
X150106Y184055D01*
Y170276D01*
X150960Y170360D01*
X152262Y170755D01*
X153461Y171396D01*
X154513Y172259D01*
X155376Y173310D01*
X155575Y173684D01*
X156075Y173558D01*
Y169291D01*
X80145D01*
Y173558D01*
X80645Y173684D01*
X80845Y173310D01*
X81708Y172259D01*
X82759Y171396D01*
X83959Y170755D01*
X85260Y170360D01*
X86114Y170276D01*
Y184055D01*
X85260Y183971D01*
X83959Y183576D01*
X82759Y182935D01*
X81708Y182072D01*
X80845Y181020D01*
X80645Y180647D01*
X80145Y180772D01*
Y264110D01*
X80645Y264235D01*
X80845Y263861D01*
X81708Y262810D01*
X82759Y261947D01*
X83959Y261306D01*
X85260Y260911D01*
X86114Y260827D01*
Y267717D01*
X86614D01*
Y268217D01*
X93504D01*
X93420Y269070D01*
X93025Y270372D01*
X92384Y271572D01*
X91521Y272623D01*
X90469Y273486D01*
X90096Y273686D01*
X90221Y274186D01*
X145999D01*
X146125Y273686D01*
D02*
G37*
G36*
X67384D02*
X67011Y273486D01*
X65960Y272623D01*
X65097Y271572D01*
X64455Y270372D01*
X64061Y269070D01*
X63977Y268217D01*
X70866D01*
Y267717D01*
X71366D01*
Y260827D01*
X72220Y260911D01*
X73522Y261306D01*
X74721Y261947D01*
X75773Y262810D01*
X76636Y263861D01*
X76835Y264235D01*
X77335Y264110D01*
Y180772D01*
X76835Y180647D01*
X76636Y181020D01*
X75773Y182072D01*
X74721Y182935D01*
X73522Y183576D01*
X72220Y183971D01*
X71366Y184055D01*
Y170276D01*
X72220Y170360D01*
X73522Y170755D01*
X74721Y171396D01*
X75773Y172259D01*
X76636Y173310D01*
X76835Y173684D01*
X77335Y173558D01*
Y169291D01*
X1405D01*
Y173558D01*
X1905Y173684D01*
X2104Y173310D01*
X2967Y172259D01*
X4019Y171396D01*
X5219Y170755D01*
X6520Y170360D01*
X7374Y170276D01*
Y184055D01*
X6520Y183971D01*
X5219Y183576D01*
X4019Y182935D01*
X2967Y182072D01*
X2104Y181020D01*
X1905Y180647D01*
X1405Y180772D01*
Y264110D01*
X1905Y264235D01*
X2104Y263861D01*
X2967Y262810D01*
X4019Y261947D01*
X5219Y261306D01*
X6520Y260911D01*
X7374Y260827D01*
Y267717D01*
X7874D01*
Y268217D01*
X14764D01*
X14680Y269070D01*
X14285Y270372D01*
X13644Y271572D01*
X12781Y272623D01*
X11729Y273486D01*
X11356Y273686D01*
X11481Y274186D01*
X67259D01*
X67384Y273686D01*
D02*
G37*
G36*
X287409Y231981D02*
X285397Y229970D01*
X285827Y229885D01*
X287598D01*
X288328Y230030D01*
X288492Y230140D01*
X288937Y229835D01*
X289065Y229192D01*
X289430Y228646D01*
X288793Y228010D01*
X288358Y227359D01*
X288206Y226590D01*
Y216043D01*
X286752D01*
X284291Y213583D01*
Y204724D01*
X283465D01*
Y231518D01*
X283965Y231568D01*
X284005Y231362D01*
X286017Y233373D01*
X287409Y231981D01*
D02*
G37*
G36*
X240164D02*
X238153Y229970D01*
X238583Y229885D01*
X240354D01*
X241084Y230030D01*
X241248Y230140D01*
X241693Y229835D01*
X241821Y229192D01*
X242186Y228646D01*
X241549Y228010D01*
X241114Y227359D01*
X240961Y226590D01*
Y216043D01*
X239508D01*
X237047Y213583D01*
Y204724D01*
X236221D01*
Y231518D01*
X236720Y231568D01*
X236761Y231362D01*
X238773Y233373D01*
X240164Y231981D01*
D02*
G37*
G36*
X309705Y228197D02*
Y221122D01*
X309858Y220354D01*
X310293Y219703D01*
X311293Y218703D01*
X311945Y218268D01*
X312713Y218115D01*
X313481Y218268D01*
X314132Y218703D01*
X314461Y219195D01*
X314961Y219043D01*
Y204724D01*
X314134D01*
Y212191D01*
X309909Y207965D01*
X308517Y209357D01*
X313438Y214279D01*
X311673Y216043D01*
X306752D01*
X304534Y213825D01*
X304213Y213630D01*
X303892Y213825D01*
X301673Y216043D01*
X301220D01*
Y219759D01*
X307858Y226398D01*
X308294Y227049D01*
X308446Y227817D01*
Y228239D01*
X308899Y228541D01*
X309069Y228597D01*
X309278D01*
X309705Y228197D01*
D02*
G37*
G36*
X262461D02*
Y221122D01*
X262614Y220354D01*
X263049Y219703D01*
X264049Y218703D01*
X264700Y218268D01*
X265469Y218115D01*
X266237Y218268D01*
X266888Y218703D01*
X267216Y219195D01*
X267717Y219043D01*
Y204724D01*
X266890D01*
Y212191D01*
X262665Y207965D01*
X261273Y209357D01*
X266194Y214279D01*
X264429Y216043D01*
X259508D01*
X257289Y213825D01*
X256968Y213630D01*
X256648Y213825D01*
X254429Y216043D01*
X253976D01*
Y219759D01*
X260614Y226398D01*
X261049Y227049D01*
X261202Y227817D01*
Y228239D01*
X261654Y228541D01*
X261825Y228597D01*
X262034D01*
X262461Y228197D01*
D02*
G37*
G36*
X387835Y191850D02*
X317835D01*
Y271850D01*
X387835D01*
Y191850D01*
D02*
G37*
G36*
X351855Y125162D02*
X352718Y124499D01*
X353724Y124083D01*
X354803Y123941D01*
X355882Y124083D01*
X356888Y124499D01*
X357751Y125162D01*
X358382Y125984D01*
X361224D01*
X361855Y125162D01*
X362718Y124499D01*
X363724Y124083D01*
X364803Y123941D01*
X365882Y124083D01*
X366888Y124499D01*
X367752Y125162D01*
X368382Y125984D01*
X371224D01*
X371855Y125162D01*
X372718Y124499D01*
X373724Y124083D01*
X374803Y123941D01*
X375882Y124083D01*
X376888Y124499D01*
X377751Y125162D01*
X378382Y125984D01*
X381224D01*
X381855Y125162D01*
X382718Y124499D01*
X383724Y124083D01*
X384803Y123941D01*
X385882Y124083D01*
X386888Y124499D01*
X387752Y125162D01*
X388382Y125984D01*
X391417D01*
X391417Y1405D01*
X316929D01*
X316929Y125984D01*
X321224D01*
X321855Y125162D01*
X322718Y124499D01*
X323724Y124083D01*
X324803Y123941D01*
X325882Y124083D01*
X326888Y124499D01*
X327751Y125162D01*
X328382Y125984D01*
X330991D01*
X331155Y125589D01*
X331818Y124725D01*
X332681Y124062D01*
X333687Y123646D01*
X334766Y123504D01*
X335845Y123646D01*
X336851Y124062D01*
X337714Y124725D01*
X338377Y125589D01*
X338541Y125984D01*
X341224D01*
X341855Y125162D01*
X342718Y124499D01*
X343724Y124083D01*
X344803Y123941D01*
X345882Y124083D01*
X346888Y124499D01*
X347751Y125162D01*
X348382Y125984D01*
X351224D01*
X351855Y125162D01*
D02*
G37*
G36*
X287409Y31194D02*
X285397Y29183D01*
X285827Y29097D01*
X287598D01*
X288328Y29242D01*
X288492Y29352D01*
X288937Y29048D01*
X289065Y28404D01*
X289430Y27859D01*
X288793Y27222D01*
X288358Y26571D01*
X288206Y25803D01*
Y15256D01*
X286752D01*
X284291Y12795D01*
Y3937D01*
X283465D01*
Y30731D01*
X283965Y30780D01*
X284005Y30575D01*
X286017Y32586D01*
X287409Y31194D01*
D02*
G37*
G36*
X240164D02*
X238153Y29183D01*
X238583Y29097D01*
X240354D01*
X241084Y29242D01*
X241248Y29352D01*
X241693Y29048D01*
X241821Y28404D01*
X242186Y27859D01*
X241549Y27222D01*
X241114Y26571D01*
X240961Y25803D01*
Y15256D01*
X239508D01*
X237047Y12795D01*
Y3937D01*
X236221D01*
Y30731D01*
X236720Y30780D01*
X236761Y30575D01*
X238773Y32586D01*
X240164Y31194D01*
D02*
G37*
G36*
X309705Y27410D02*
Y20335D01*
X309858Y19567D01*
X310293Y18915D01*
X311293Y17915D01*
X311945Y17480D01*
X312713Y17328D01*
X313481Y17480D01*
X314132Y17915D01*
X314461Y18408D01*
X314961Y18256D01*
Y3937D01*
X314134D01*
Y11403D01*
X309909Y7178D01*
X308517Y8570D01*
X313438Y13491D01*
X311673Y15256D01*
X306752D01*
X304534Y13037D01*
X304213Y12843D01*
X303892Y13037D01*
X301673Y15256D01*
X301220D01*
Y18972D01*
X307858Y25611D01*
X308294Y26262D01*
X308446Y27030D01*
Y27451D01*
X308899Y27753D01*
X309069Y27809D01*
X309278D01*
X309705Y27410D01*
D02*
G37*
G36*
X262461D02*
Y20335D01*
X262614Y19567D01*
X263049Y18915D01*
X264049Y17915D01*
X264700Y17480D01*
X265469Y17328D01*
X266237Y17480D01*
X266888Y17915D01*
X267216Y18408D01*
X267717Y18256D01*
Y3937D01*
X266890D01*
Y11403D01*
X262665Y7178D01*
X261273Y8570D01*
X266194Y13491D01*
X264429Y15256D01*
X259508D01*
X257289Y13037D01*
X256968Y12843D01*
X256648Y13037D01*
X254429Y15256D01*
X253976D01*
Y18972D01*
X260614Y25611D01*
X261049Y26262D01*
X261202Y27030D01*
Y27451D01*
X261654Y27753D01*
X261825Y27809D01*
X262034D01*
X262461Y27410D01*
D02*
G37*
G36*
X235016Y1204D02*
X158685D01*
Y136591D01*
X235016D01*
Y1204D01*
D02*
G37*
G36*
X156276D02*
X79944D01*
Y136591D01*
X156276D01*
Y1204D01*
D02*
G37*
G36*
X77536D02*
X1204D01*
Y136591D01*
X77536D01*
Y1204D01*
D02*
G37*
%LPC*%
G36*
X212008Y272365D02*
X209252D01*
X208584Y272277D01*
X207961Y272019D01*
X207427Y271609D01*
X207017Y271074D01*
X206759Y270451D01*
X206671Y269783D01*
Y265846D01*
X206759Y265178D01*
X207017Y264556D01*
X207427Y264021D01*
X207961Y263611D01*
X208584Y263353D01*
X209252Y263265D01*
X212008D01*
X212676Y263353D01*
X213299Y263611D01*
X213833Y264021D01*
X214243Y264556D01*
X214501Y265178D01*
X214589Y265846D01*
Y269783D01*
X214501Y270451D01*
X214243Y271074D01*
X213833Y271609D01*
X213299Y272019D01*
X212676Y272277D01*
X212008Y272365D01*
D02*
G37*
G36*
X184449D02*
X181693D01*
X181025Y272277D01*
X180402Y272019D01*
X179868Y271609D01*
X179458Y271074D01*
X179200Y270451D01*
X179112Y269783D01*
Y265846D01*
X179200Y265178D01*
X179458Y264556D01*
X179868Y264021D01*
X180402Y263611D01*
X181025Y263353D01*
X181693Y263265D01*
X184449D01*
X185117Y263353D01*
X185739Y263611D01*
X186274Y264021D01*
X186684Y264556D01*
X186942Y265178D01*
X187030Y265846D01*
Y269783D01*
X186942Y270451D01*
X186684Y271074D01*
X186274Y271609D01*
X185739Y272019D01*
X185117Y272277D01*
X184449Y272365D01*
D02*
G37*
G36*
X227847Y267217D02*
X221457D01*
X221541Y266363D01*
X221936Y265061D01*
X222577Y263861D01*
X223440Y262810D01*
X224491Y261947D01*
X225691Y261306D01*
X226993Y260911D01*
X227847Y260827D01*
Y267217D01*
D02*
G37*
G36*
X172244D02*
X165854D01*
Y260827D01*
X166708Y260911D01*
X168010Y261306D01*
X169209Y261947D01*
X170261Y262810D01*
X171124Y263861D01*
X171765Y265061D01*
X172160Y266363D01*
X172244Y267217D01*
D02*
G37*
G36*
X203937Y260925D02*
Y260925D01*
X194882D01*
Y260744D01*
X194791D01*
Y257087D01*
X193791D01*
Y260744D01*
X192232D01*
Y257087D01*
Y253429D01*
X194443D01*
X194650Y252929D01*
X191662Y249941D01*
X191292Y249387D01*
X191218Y249016D01*
X188701D01*
Y243110D01*
X195000D01*
Y248453D01*
X195607Y249061D01*
X195749Y249064D01*
X196201Y248637D01*
X196201Y248544D01*
Y243110D01*
X202500D01*
Y248521D01*
X202500Y248637D01*
X202952Y249064D01*
X203093Y249061D01*
X203701Y248453D01*
Y243217D01*
X203701Y242717D01*
X203701Y242216D01*
Y236417D01*
X205131D01*
X205139Y235917D01*
X203644Y234423D01*
X200717D01*
X200525Y234885D01*
X200557Y234916D01*
X200926Y235469D01*
X201056Y236122D01*
Y236417D01*
X202500D01*
Y242323D01*
X196201D01*
Y236883D01*
X195000D01*
Y242323D01*
X188701D01*
Y241076D01*
X187500D01*
Y242323D01*
X181201D01*
Y241076D01*
X170984D01*
Y241850D01*
X162717D01*
Y233583D01*
X170984D01*
Y237664D01*
X181201D01*
Y236883D01*
X179311D01*
X178658Y236753D01*
X178105Y236384D01*
X171484Y229763D01*
X170984Y229970D01*
Y231850D01*
X162717D01*
Y223583D01*
X170984D01*
Y226011D01*
X171850D01*
X172503Y226140D01*
X173057Y226510D01*
X174727Y228180D01*
X175188Y227934D01*
X175144Y227716D01*
Y219423D01*
X170984D01*
Y220012D01*
X171017Y220177D01*
X170984Y220342D01*
Y221850D01*
X169476D01*
X169311Y221883D01*
X169146Y221850D01*
X162717D01*
Y213583D01*
X170984D01*
Y216011D01*
X175144D01*
Y212717D01*
X175274Y212064D01*
X175644Y211510D01*
X178144Y209010D01*
X178360Y208866D01*
X178208Y208366D01*
X175551D01*
Y206923D01*
X171851D01*
X171198Y206793D01*
X170644Y206423D01*
X168144Y203923D01*
X167774Y203369D01*
X167644Y202716D01*
Y195217D01*
X167774Y194564D01*
X168144Y194010D01*
X172298Y189857D01*
X172851Y189487D01*
X173504Y189357D01*
X176668D01*
X176686Y189268D01*
X177034Y188747D01*
X177382Y188514D01*
Y186919D01*
X177034Y186687D01*
X176686Y186166D01*
X176564Y185551D01*
Y183189D01*
X176686Y182574D01*
X177034Y182054D01*
X177555Y181706D01*
X178169Y181583D01*
X179725D01*
X179798Y181510D01*
X180351Y181140D01*
X181004Y181010D01*
X182993D01*
X183346Y180657D01*
X183346Y179449D01*
X182962Y179169D01*
X182350D01*
Y175717D01*
X185803D01*
Y178949D01*
X185803Y179169D01*
X186187Y179449D01*
X187874D01*
Y179630D01*
X188850D01*
Y183484D01*
Y187339D01*
X188299D01*
X187874Y187839D01*
X187874Y187913D01*
X187874D01*
Y194567D01*
X188150D01*
Y197351D01*
X188612Y197543D01*
X190794Y195360D01*
Y192539D01*
X190827Y192375D01*
Y187913D01*
X190827D01*
Y187839D01*
X190402Y187339D01*
X189850D01*
Y183484D01*
Y179630D01*
X190827D01*
Y179449D01*
X191240Y179398D01*
Y171035D01*
X197539D01*
Y171182D01*
X198039Y171467D01*
X198536Y171262D01*
X198811Y171225D01*
Y175217D01*
Y179208D01*
X198536Y179172D01*
X198039Y178966D01*
X197539Y179251D01*
Y179398D01*
X195833D01*
X195354Y179449D01*
Y183510D01*
X196201D01*
Y181417D01*
X202500D01*
Y183510D01*
X203701D01*
Y181417D01*
X210000D01*
X210362Y181083D01*
X211632Y179812D01*
X211441Y179350D01*
X210217D01*
Y171083D01*
X218484D01*
Y179350D01*
X216606D01*
Y180169D01*
X216438Y181014D01*
X215959Y181730D01*
X214058Y183631D01*
Y187315D01*
X214558Y187667D01*
X214823Y187615D01*
X215504D01*
Y190217D01*
Y192819D01*
X214823D01*
X214558Y192766D01*
X214058Y193119D01*
Y194567D01*
X218957D01*
Y200866D01*
X214058D01*
Y202067D01*
X219107D01*
X219350Y202067D01*
X219775Y202248D01*
X222000D01*
Y208185D01*
X219775D01*
X219350Y208366D01*
X219107Y208366D01*
X214058D01*
Y212686D01*
X214558Y213054D01*
X215089Y212949D01*
X215575D01*
Y212195D01*
X215716Y211484D01*
X216118Y210882D01*
X216721Y210480D01*
X217431Y210338D01*
X221270D01*
X221980Y210480D01*
X222583Y210882D01*
X222985Y211484D01*
X223126Y212195D01*
Y216034D01*
X222985Y216744D01*
X222583Y217346D01*
X221980Y217749D01*
X221270Y217890D01*
X217431D01*
X216721Y217749D01*
X216145Y217364D01*
X216004D01*
X215624Y217744D01*
X214908Y218223D01*
X214719Y218260D01*
X213525Y219454D01*
X212972Y219824D01*
X212319Y219954D01*
X211138D01*
Y220479D01*
X211319D01*
X211972Y220609D01*
X212525Y220979D01*
X213865Y222319D01*
X214111Y222270D01*
X214956Y222438D01*
X215673Y222917D01*
X216046Y223290D01*
X216297Y223265D01*
X217111Y222722D01*
X218071Y222531D01*
X220630D01*
X221590Y222722D01*
X222404Y223265D01*
X222948Y224079D01*
X223139Y225039D01*
Y227598D01*
X222948Y228558D01*
X222404Y229372D01*
X221590Y229916D01*
X220630Y230107D01*
X218071D01*
X217111Y229916D01*
X216297Y229372D01*
X215753Y228558D01*
X215626Y227922D01*
X215348D01*
X214503Y227754D01*
X214113Y227493D01*
X213670Y227693D01*
X213632Y228167D01*
X215931Y230466D01*
X216301Y231019D01*
X216430Y231672D01*
Y232067D01*
X219350Y232067D01*
X219775Y232248D01*
X222000D01*
Y238185D01*
X219775D01*
X219350Y238366D01*
X219107Y238366D01*
X213051D01*
Y233905D01*
X213018Y233740D01*
Y232379D01*
X210641Y230001D01*
X210287Y229472D01*
X198946D01*
X198520Y229756D01*
X197675Y229924D01*
X196131D01*
X195733Y230190D01*
X195158Y230305D01*
X193386D01*
X192810Y230190D01*
X192322Y229864D01*
X191995Y229375D01*
X191881Y228799D01*
Y226634D01*
X191995Y226058D01*
X192322Y225570D01*
X192810Y225243D01*
X193386Y225129D01*
X194643D01*
Y221631D01*
X193133Y220121D01*
X192047D01*
X191834Y220079D01*
X188504D01*
Y223819D01*
X186135D01*
Y225406D01*
X186379Y225570D01*
X186706Y226058D01*
X186820Y226634D01*
Y228799D01*
X186706Y229375D01*
X186379Y229864D01*
X186135Y230027D01*
Y231011D01*
X204350D01*
X205003Y231140D01*
X205557Y231510D01*
X208057Y234010D01*
X208426Y234564D01*
X208556Y235216D01*
Y236417D01*
X210000D01*
Y242216D01*
X210000Y242717D01*
X210000Y243217D01*
Y244160D01*
X217717D01*
Y243583D01*
X225984D01*
Y251850D01*
X217717D01*
Y247572D01*
X210000D01*
Y249016D01*
X207483D01*
X207409Y249387D01*
X207039Y249941D01*
X204162Y252818D01*
X204213Y253089D01*
X204741Y253434D01*
X204923Y253398D01*
X208463D01*
X209403Y253585D01*
X210201Y254118D01*
X210734Y254915D01*
X210921Y255856D01*
Y258317D01*
X210734Y259258D01*
X210201Y260055D01*
X209403Y260589D01*
X208463Y260776D01*
X204923D01*
X204437Y260679D01*
X203937Y260925D01*
D02*
G37*
G36*
X188778Y260776D02*
X185238D01*
X184297Y260589D01*
X183500Y260055D01*
X182967Y259258D01*
X182780Y258317D01*
Y255856D01*
X182967Y254915D01*
X183500Y254118D01*
X184297Y253585D01*
X185238Y253398D01*
X188778D01*
X189445Y253530D01*
X189945Y253429D01*
Y253429D01*
X189945Y253429D01*
X191232D01*
Y255836D01*
X191236Y255856D01*
Y257087D01*
Y258317D01*
X191232Y258338D01*
Y260744D01*
X189945D01*
X189945Y260744D01*
Y260744D01*
X189445Y260643D01*
X188778Y260776D01*
D02*
G37*
G36*
X170803Y251669D02*
X167350D01*
Y248217D01*
X170803D01*
Y251669D01*
D02*
G37*
G36*
X166350D02*
X162898D01*
Y248217D01*
X166350D01*
Y251669D01*
D02*
G37*
G36*
X187319Y248835D02*
X184850D01*
Y246563D01*
X187319D01*
Y248835D01*
D02*
G37*
G36*
X183850D02*
X181382D01*
Y246563D01*
X183850D01*
Y248835D01*
D02*
G37*
G36*
X170803Y247217D02*
X167350D01*
Y243764D01*
X170803D01*
Y247217D01*
D02*
G37*
G36*
X166350D02*
X162898D01*
Y243764D01*
X166350D01*
Y247217D01*
D02*
G37*
G36*
X187319Y245563D02*
X184850D01*
Y243291D01*
X187319D01*
Y245563D01*
D02*
G37*
G36*
X183850D02*
X181382D01*
Y243291D01*
X183850D01*
Y245563D01*
D02*
G37*
G36*
X225468Y238185D02*
X223000D01*
Y235717D01*
X225468D01*
Y238185D01*
D02*
G37*
G36*
Y234717D02*
X223000D01*
Y232248D01*
X225468D01*
Y234717D01*
D02*
G37*
G36*
Y208185D02*
X223000D01*
Y205717D01*
X225468D01*
Y208185D01*
D02*
G37*
G36*
Y204717D02*
X223000D01*
Y202248D01*
X225468D01*
Y204717D01*
D02*
G37*
G36*
X225650Y200866D02*
X219744D01*
Y194567D01*
X220991D01*
Y192899D01*
X220901Y192881D01*
X220380Y192533D01*
X220148Y192185D01*
X218335D01*
X218190Y192402D01*
X217729Y192710D01*
X217185Y192819D01*
X216504D01*
Y190217D01*
Y187615D01*
X217185D01*
X217729Y187723D01*
X218190Y188031D01*
X218335Y188248D01*
X220148D01*
X220380Y187900D01*
X220901Y187552D01*
X221516Y187430D01*
X223878D01*
X224492Y187552D01*
X225013Y187900D01*
X225361Y188421D01*
X225484Y189035D01*
Y191398D01*
X225361Y192012D01*
X225013Y192533D01*
X224492Y192881D01*
X224403Y192899D01*
Y194567D01*
X225650D01*
Y200866D01*
D02*
G37*
G36*
X227847Y184055D02*
X226993Y183971D01*
X225691Y183576D01*
X224491Y182935D01*
X223440Y182072D01*
X222577Y181020D01*
X221936Y179821D01*
X221541Y178519D01*
X221457Y177665D01*
X227847D01*
Y184055D01*
D02*
G37*
G36*
X165854D02*
Y177665D01*
X172244D01*
X172160Y178519D01*
X171765Y179821D01*
X171124Y181020D01*
X170261Y182072D01*
X169209Y182935D01*
X168010Y183576D01*
X166708Y183971D01*
X165854Y184055D01*
D02*
G37*
G36*
X199811Y179208D02*
Y175717D01*
X202305D01*
Y176279D01*
X202203Y177055D01*
X201904Y177777D01*
X201428Y178397D01*
X200808Y178873D01*
X200086Y179172D01*
X199811Y179208D01*
D02*
G37*
G36*
X181350Y179169D02*
X177898D01*
Y175717D01*
X181350D01*
Y179169D01*
D02*
G37*
G36*
X185803Y174717D02*
X182350D01*
Y171264D01*
X185803D01*
Y174717D01*
D02*
G37*
G36*
X181350D02*
X177898D01*
Y171264D01*
X181350D01*
Y174717D01*
D02*
G37*
G36*
X202305Y174717D02*
X199811D01*
Y171225D01*
X200086Y171262D01*
X200808Y171561D01*
X201428Y172036D01*
X201904Y172657D01*
X202203Y173379D01*
X202305Y174154D01*
Y174717D01*
D02*
G37*
G36*
X227847Y176665D02*
X221457D01*
X221541Y175812D01*
X221936Y174510D01*
X222577Y173310D01*
X223440Y172259D01*
X224491Y171396D01*
X225691Y170755D01*
X226993Y170360D01*
X227847Y170276D01*
Y176665D01*
D02*
G37*
G36*
X172244D02*
X165854D01*
Y170276D01*
X166708Y170360D01*
X168010Y170755D01*
X169209Y171396D01*
X170261Y172259D01*
X171124Y173310D01*
X171765Y174510D01*
X172160Y175812D01*
X172244Y176665D01*
D02*
G37*
%LPD*%
G36*
X194643Y215216D02*
Y214217D01*
X194811Y213372D01*
X195289Y212655D01*
X196213Y211732D01*
X196929Y211253D01*
X197774Y211085D01*
X197992D01*
X198232Y210685D01*
X198232Y210585D01*
Y208217D01*
X201201D01*
Y207717D01*
X201701D01*
Y204748D01*
X203925D01*
X204350Y204567D01*
X204594Y204567D01*
X209643D01*
Y203366D01*
X204594D01*
X204350Y203366D01*
X203925Y203185D01*
X201701D01*
Y200217D01*
Y197248D01*
X203925D01*
X204350Y197067D01*
X204594Y197067D01*
X209643D01*
Y193835D01*
X207350D01*
Y190866D01*
X206850D01*
Y190366D01*
X203882D01*
Y188142D01*
X203701Y187716D01*
X203701D01*
X203701Y187716D01*
Y186923D01*
X202500D01*
Y187716D01*
X202500D01*
X202319Y187898D01*
Y190366D01*
X199350D01*
Y190866D01*
X198850D01*
Y193835D01*
X197159D01*
Y196614D01*
X197029Y197267D01*
X196659Y197820D01*
X193556Y200923D01*
Y206496D01*
X193427Y207149D01*
X193057Y207702D01*
X188504Y212255D01*
Y215354D01*
X194529D01*
X194643Y215216D01*
D02*
G37*
G36*
X182244Y207408D02*
Y202067D01*
X187644D01*
Y200866D01*
X182244D01*
Y194567D01*
X183346D01*
Y187913D01*
X183346D01*
X183346Y187520D01*
X183346D01*
Y184423D01*
X182137D01*
Y185551D01*
X182015Y186166D01*
X181667Y186687D01*
X181319Y186919D01*
Y188514D01*
X181667Y188747D01*
X182015Y189268D01*
X182137Y189882D01*
Y192244D01*
X182015Y192859D01*
X181667Y193379D01*
X181146Y193728D01*
X180532Y193850D01*
X178169D01*
X177555Y193728D01*
X177034Y193379D01*
X176686Y192859D01*
X176668Y192769D01*
X174211D01*
X171056Y195923D01*
Y202010D01*
X172557Y203510D01*
X175551D01*
Y202067D01*
X181457D01*
Y207510D01*
X181894Y207697D01*
X182244Y207408D01*
D02*
G37*
%LPC*%
G36*
X200701Y207217D02*
X198232D01*
Y204748D01*
X200701D01*
Y207217D01*
D02*
G37*
G36*
Y203185D02*
X198232D01*
Y200717D01*
X200701D01*
Y203185D01*
D02*
G37*
G36*
Y199717D02*
X198232D01*
Y197248D01*
X200701D01*
Y199717D01*
D02*
G37*
G36*
X206350Y193835D02*
X203882D01*
Y191366D01*
X206350D01*
Y193835D01*
D02*
G37*
G36*
X202319D02*
X199850D01*
Y191366D01*
X202319D01*
Y193835D01*
D02*
G37*
G36*
X181276Y200685D02*
X179004D01*
Y198217D01*
X181276D01*
Y200685D01*
D02*
G37*
G36*
X178004D02*
X175732D01*
Y198217D01*
X178004D01*
Y200685D01*
D02*
G37*
G36*
X181276Y197217D02*
X179004D01*
Y194748D01*
X181276D01*
Y197217D01*
D02*
G37*
G36*
X178004D02*
X175732D01*
Y194748D01*
X178004D01*
Y197217D01*
D02*
G37*
G36*
X133268Y272365D02*
X130512D01*
X129844Y272277D01*
X129221Y272019D01*
X128687Y271609D01*
X128277Y271074D01*
X128019Y270451D01*
X127931Y269783D01*
Y265846D01*
X128019Y265178D01*
X128277Y264556D01*
X128687Y264021D01*
X129221Y263611D01*
X129844Y263353D01*
X130512Y263265D01*
X133268D01*
X133936Y263353D01*
X134558Y263611D01*
X135093Y264021D01*
X135503Y264556D01*
X135761Y265178D01*
X135849Y265846D01*
Y269783D01*
X135761Y270451D01*
X135503Y271074D01*
X135093Y271609D01*
X134558Y272019D01*
X133936Y272277D01*
X133268Y272365D01*
D02*
G37*
G36*
X105709D02*
X102953D01*
X102285Y272277D01*
X101662Y272019D01*
X101128Y271609D01*
X100717Y271074D01*
X100460Y270451D01*
X100372Y269783D01*
Y265846D01*
X100460Y265178D01*
X100717Y264556D01*
X101128Y264021D01*
X101662Y263611D01*
X102285Y263353D01*
X102953Y263265D01*
X105709D01*
X106377Y263353D01*
X106999Y263611D01*
X107534Y264021D01*
X107944Y264556D01*
X108202Y265178D01*
X108290Y265846D01*
Y269783D01*
X108202Y270451D01*
X107944Y271074D01*
X107534Y271609D01*
X106999Y272019D01*
X106377Y272277D01*
X105709Y272365D01*
D02*
G37*
G36*
X149106Y267217D02*
X142717D01*
X142801Y266363D01*
X143196Y265061D01*
X143837Y263861D01*
X144700Y262810D01*
X145751Y261947D01*
X146951Y261306D01*
X148253Y260911D01*
X149106Y260827D01*
Y267217D01*
D02*
G37*
G36*
X93504D02*
X87114D01*
Y260827D01*
X87968Y260911D01*
X89270Y261306D01*
X90469Y261947D01*
X91521Y262810D01*
X92384Y263861D01*
X93025Y265061D01*
X93420Y266363D01*
X93504Y267217D01*
D02*
G37*
G36*
X125197Y260925D02*
Y260925D01*
X116142D01*
Y260744D01*
X116051D01*
Y257087D01*
X115051D01*
Y260744D01*
X113492D01*
Y257087D01*
Y253429D01*
X115703D01*
X115910Y252929D01*
X112922Y249941D01*
X112552Y249387D01*
X112478Y249016D01*
X109961D01*
Y243110D01*
X116260D01*
Y248453D01*
X116867Y249061D01*
X117009Y249064D01*
X117461Y248637D01*
X117461Y248544D01*
Y243110D01*
X123760D01*
Y248521D01*
X123760Y248637D01*
X124212Y249064D01*
X124353Y249061D01*
X124961Y248453D01*
Y243217D01*
X124961Y242717D01*
X124961Y242216D01*
Y236417D01*
X126390D01*
X126399Y235917D01*
X124904Y234423D01*
X121977D01*
X121785Y234885D01*
X121817Y234916D01*
X122186Y235469D01*
X122316Y236122D01*
Y236417D01*
X123760D01*
Y242323D01*
X117461D01*
Y236883D01*
X116260D01*
Y242323D01*
X109961D01*
Y241076D01*
X108760D01*
Y242323D01*
X102461D01*
Y241076D01*
X92244D01*
Y241850D01*
X83976D01*
Y233583D01*
X92244D01*
Y237664D01*
X102461D01*
Y236883D01*
X100571D01*
X99918Y236753D01*
X99365Y236384D01*
X92744Y229763D01*
X92244Y229970D01*
Y231850D01*
X83976D01*
Y223583D01*
X92244D01*
Y226011D01*
X93110D01*
X93763Y226140D01*
X94317Y226510D01*
X95987Y228180D01*
X96447Y227934D01*
X96404Y227716D01*
Y219423D01*
X92244D01*
Y220012D01*
X92277Y220177D01*
X92244Y220342D01*
Y221850D01*
X90736D01*
X90571Y221883D01*
X90406Y221850D01*
X83976D01*
Y213583D01*
X92244D01*
Y216011D01*
X96404D01*
Y212717D01*
X96534Y212064D01*
X96904Y211510D01*
X99404Y209010D01*
X99620Y208866D01*
X99468Y208366D01*
X96811D01*
Y206923D01*
X93110D01*
X92457Y206793D01*
X91904Y206423D01*
X89404Y203923D01*
X89034Y203369D01*
X88904Y202716D01*
Y195217D01*
X89034Y194564D01*
X89404Y194010D01*
X93558Y189857D01*
X94111Y189487D01*
X94764Y189357D01*
X97928D01*
X97946Y189268D01*
X98294Y188747D01*
X98642Y188514D01*
Y186919D01*
X98294Y186687D01*
X97946Y186166D01*
X97824Y185551D01*
Y183189D01*
X97946Y182574D01*
X98294Y182054D01*
X98815Y181706D01*
X99429Y181583D01*
X100984D01*
X101058Y181510D01*
X101611Y181140D01*
X102264Y181010D01*
X104253D01*
X104606Y180657D01*
X104606Y179449D01*
X104222Y179169D01*
X103610D01*
Y175717D01*
X107063D01*
Y178949D01*
X107063Y179169D01*
X107447Y179449D01*
X109134D01*
Y179630D01*
X110110D01*
Y183484D01*
Y187339D01*
X109559D01*
X109134Y187839D01*
X109134Y187913D01*
X109134D01*
Y194567D01*
X109409D01*
Y197351D01*
X109871Y197543D01*
X112054Y195360D01*
Y192539D01*
X112087Y192375D01*
Y187913D01*
X112087D01*
Y187839D01*
X111662Y187339D01*
X111110D01*
Y183484D01*
Y179630D01*
X112087D01*
Y179449D01*
X112500Y179398D01*
Y171035D01*
X118799D01*
Y171182D01*
X119299Y171467D01*
X119796Y171262D01*
X120071Y171225D01*
Y175217D01*
Y179208D01*
X119796Y179172D01*
X119299Y178966D01*
X118799Y179251D01*
Y179398D01*
X117093D01*
X116614Y179449D01*
Y183510D01*
X117461D01*
Y181417D01*
X123760D01*
Y183510D01*
X124961D01*
Y181417D01*
X131260D01*
X131621Y181083D01*
X132892Y179812D01*
X132701Y179350D01*
X131476D01*
Y171083D01*
X139744D01*
Y179350D01*
X137866D01*
Y180169D01*
X137698Y181014D01*
X137219Y181730D01*
X135318Y183631D01*
Y187315D01*
X135818Y187667D01*
X136083Y187615D01*
X136764D01*
Y190217D01*
Y192819D01*
X136083D01*
X135818Y192766D01*
X135318Y193119D01*
Y194567D01*
X140217D01*
Y200866D01*
X135318D01*
Y202067D01*
X140366D01*
X140610Y202067D01*
X141035Y202248D01*
X143260D01*
Y208185D01*
X141035D01*
X140610Y208366D01*
X140366Y208366D01*
X135318D01*
Y212686D01*
X135818Y213054D01*
X136349Y212949D01*
X136834D01*
Y212195D01*
X136976Y211484D01*
X137378Y210882D01*
X137980Y210480D01*
X138691Y210338D01*
X142529D01*
X143240Y210480D01*
X143842Y210882D01*
X144245Y211484D01*
X144386Y212195D01*
Y216034D01*
X144245Y216744D01*
X143842Y217346D01*
X143240Y217749D01*
X142529Y217890D01*
X138691D01*
X137980Y217749D01*
X137405Y217364D01*
X137264D01*
X136884Y217744D01*
X136167Y218223D01*
X135979Y218260D01*
X134785Y219454D01*
X134232Y219824D01*
X133579Y219954D01*
X132398D01*
Y220479D01*
X132579D01*
X133232Y220609D01*
X133785Y220979D01*
X135125Y222319D01*
X135371Y222270D01*
X136216Y222438D01*
X136932Y222917D01*
X137306Y223290D01*
X137557Y223265D01*
X138371Y222722D01*
X139331Y222531D01*
X141890D01*
X142850Y222722D01*
X143664Y223265D01*
X144208Y224079D01*
X144399Y225039D01*
Y227598D01*
X144208Y228558D01*
X143664Y229372D01*
X142850Y229916D01*
X141890Y230107D01*
X139331D01*
X138371Y229916D01*
X137557Y229372D01*
X137013Y228558D01*
X136886Y227922D01*
X136608D01*
X135763Y227754D01*
X135372Y227493D01*
X134930Y227693D01*
X134892Y228167D01*
X137191Y230466D01*
X137560Y231019D01*
X137690Y231672D01*
Y232067D01*
X140610Y232067D01*
X141035Y232248D01*
X143260D01*
Y238185D01*
X141035D01*
X140610Y238366D01*
X140366Y238366D01*
X134311D01*
Y233905D01*
X134278Y233740D01*
Y232379D01*
X131901Y230001D01*
X131547Y229472D01*
X120205D01*
X119779Y229756D01*
X118934Y229924D01*
X117391D01*
X116993Y230190D01*
X116417Y230305D01*
X114646D01*
X114070Y230190D01*
X113581Y229864D01*
X113255Y229375D01*
X113140Y228799D01*
Y226634D01*
X113255Y226058D01*
X113581Y225570D01*
X114070Y225243D01*
X114646Y225129D01*
X115902D01*
Y221631D01*
X114393Y220121D01*
X113307D01*
X113094Y220079D01*
X109764D01*
Y223819D01*
X107395D01*
Y225406D01*
X107639Y225570D01*
X107966Y226058D01*
X108080Y226634D01*
Y228799D01*
X107966Y229375D01*
X107639Y229864D01*
X107395Y230027D01*
Y231011D01*
X125610D01*
X126263Y231140D01*
X126817Y231510D01*
X129317Y234010D01*
X129686Y234564D01*
X129816Y235216D01*
Y236417D01*
X131260D01*
Y242216D01*
X131260Y242717D01*
X131260Y243217D01*
Y244160D01*
X138976D01*
Y243583D01*
X147244D01*
Y251850D01*
X138976D01*
Y247572D01*
X131260D01*
Y249016D01*
X128742D01*
X128668Y249387D01*
X128299Y249941D01*
X125422Y252818D01*
X125472Y253089D01*
X126001Y253434D01*
X126183Y253398D01*
X129722D01*
X130663Y253585D01*
X131461Y254118D01*
X131994Y254915D01*
X132181Y255856D01*
Y258317D01*
X131994Y259258D01*
X131461Y260055D01*
X130663Y260589D01*
X129722Y260776D01*
X126183D01*
X125697Y260679D01*
X125197Y260925D01*
D02*
G37*
G36*
X110037Y260776D02*
X106498D01*
X105557Y260589D01*
X104760Y260055D01*
X104227Y259258D01*
X104039Y258317D01*
Y255856D01*
X104227Y254915D01*
X104760Y254118D01*
X105557Y253585D01*
X106498Y253398D01*
X110037D01*
X110705Y253530D01*
X111205Y253429D01*
Y253429D01*
X111205Y253429D01*
X112492D01*
Y255836D01*
X112496Y255856D01*
Y257087D01*
Y258317D01*
X112492Y258338D01*
Y260744D01*
X111205D01*
X111205Y260744D01*
Y260744D01*
X110705Y260643D01*
X110037Y260776D01*
D02*
G37*
G36*
X92063Y251669D02*
X88610D01*
Y248217D01*
X92063D01*
Y251669D01*
D02*
G37*
G36*
X87610D02*
X84158D01*
Y248217D01*
X87610D01*
Y251669D01*
D02*
G37*
G36*
X108579Y248835D02*
X106110D01*
Y246563D01*
X108579D01*
Y248835D01*
D02*
G37*
G36*
X105110D02*
X102642D01*
Y246563D01*
X105110D01*
Y248835D01*
D02*
G37*
G36*
X92063Y247217D02*
X88610D01*
Y243764D01*
X92063D01*
Y247217D01*
D02*
G37*
G36*
X87610D02*
X84158D01*
Y243764D01*
X87610D01*
Y247217D01*
D02*
G37*
G36*
X108579Y245563D02*
X106110D01*
Y243291D01*
X108579D01*
Y245563D01*
D02*
G37*
G36*
X105110D02*
X102642D01*
Y243291D01*
X105110D01*
Y245563D01*
D02*
G37*
G36*
X146728Y238185D02*
X144260D01*
Y235717D01*
X146728D01*
Y238185D01*
D02*
G37*
G36*
Y234717D02*
X144260D01*
Y232248D01*
X146728D01*
Y234717D01*
D02*
G37*
G36*
Y208185D02*
X144260D01*
Y205717D01*
X146728D01*
Y208185D01*
D02*
G37*
G36*
Y204717D02*
X144260D01*
Y202248D01*
X146728D01*
Y204717D01*
D02*
G37*
G36*
X146909Y200866D02*
X141004D01*
Y194567D01*
X142251D01*
Y192899D01*
X142161Y192881D01*
X141640Y192533D01*
X141408Y192185D01*
X139595D01*
X139450Y192402D01*
X138989Y192710D01*
X138445Y192819D01*
X137764D01*
Y190217D01*
Y187615D01*
X138445D01*
X138989Y187723D01*
X139450Y188031D01*
X139595Y188248D01*
X141408D01*
X141640Y187900D01*
X142161Y187552D01*
X142776Y187430D01*
X145138D01*
X145752Y187552D01*
X146273Y187900D01*
X146621Y188421D01*
X146744Y189035D01*
Y191398D01*
X146621Y192012D01*
X146273Y192533D01*
X145752Y192881D01*
X145663Y192899D01*
Y194567D01*
X146909D01*
Y200866D01*
D02*
G37*
G36*
X149106Y184055D02*
X148253Y183971D01*
X146951Y183576D01*
X145751Y182935D01*
X144700Y182072D01*
X143837Y181020D01*
X143196Y179821D01*
X142801Y178519D01*
X142717Y177665D01*
X149106D01*
Y184055D01*
D02*
G37*
G36*
X87114D02*
Y177665D01*
X93504D01*
X93420Y178519D01*
X93025Y179821D01*
X92384Y181020D01*
X91521Y182072D01*
X90469Y182935D01*
X89270Y183576D01*
X87968Y183971D01*
X87114Y184055D01*
D02*
G37*
G36*
X121071Y179208D02*
Y175717D01*
X123565D01*
Y176279D01*
X123463Y177055D01*
X123164Y177777D01*
X122688Y178397D01*
X122068Y178873D01*
X121346Y179172D01*
X121071Y179208D01*
D02*
G37*
G36*
X102610Y179169D02*
X99158D01*
Y175717D01*
X102610D01*
Y179169D01*
D02*
G37*
G36*
X107063Y174717D02*
X103610D01*
Y171264D01*
X107063D01*
Y174717D01*
D02*
G37*
G36*
X102610D02*
X99158D01*
Y171264D01*
X102610D01*
Y174717D01*
D02*
G37*
G36*
X123565Y174717D02*
X121071D01*
Y171225D01*
X121346Y171262D01*
X122068Y171561D01*
X122688Y172036D01*
X123164Y172657D01*
X123463Y173379D01*
X123565Y174154D01*
Y174717D01*
D02*
G37*
G36*
X149106Y176665D02*
X142717D01*
X142801Y175812D01*
X143196Y174510D01*
X143837Y173310D01*
X144700Y172259D01*
X145751Y171396D01*
X146951Y170755D01*
X148253Y170360D01*
X149106Y170276D01*
Y176665D01*
D02*
G37*
G36*
X93504D02*
X87114D01*
Y170276D01*
X87968Y170360D01*
X89270Y170755D01*
X90469Y171396D01*
X91521Y172259D01*
X92384Y173310D01*
X93025Y174510D01*
X93420Y175812D01*
X93504Y176665D01*
D02*
G37*
%LPD*%
G36*
X115902Y215216D02*
Y214217D01*
X116070Y213372D01*
X116549Y212655D01*
X117473Y211732D01*
X118189Y211253D01*
X119034Y211085D01*
X119251D01*
X119492Y210685D01*
X119492Y210585D01*
Y208217D01*
X122461D01*
Y207717D01*
X122961D01*
Y204748D01*
X125185D01*
X125610Y204567D01*
X125854Y204567D01*
X130903D01*
Y203366D01*
X125854D01*
X125610Y203366D01*
X125185Y203185D01*
X122961D01*
Y200217D01*
Y197248D01*
X125185D01*
X125610Y197067D01*
X125854Y197067D01*
X130903D01*
Y193835D01*
X128610D01*
Y190866D01*
X128110D01*
Y190366D01*
X125142D01*
Y188142D01*
X124961Y187716D01*
X124961D01*
X124961Y187716D01*
Y186923D01*
X123760D01*
Y187716D01*
X123760D01*
X123579Y187898D01*
Y190366D01*
X120610D01*
Y190866D01*
X120110D01*
Y193835D01*
X118419D01*
Y196614D01*
X118289Y197267D01*
X117919Y197820D01*
X114816Y200923D01*
Y206496D01*
X114686Y207149D01*
X114317Y207702D01*
X109764Y212255D01*
Y215354D01*
X115789D01*
X115902Y215216D01*
D02*
G37*
G36*
X103504Y207408D02*
Y202067D01*
X108904D01*
Y200866D01*
X103504D01*
Y194567D01*
X104606D01*
Y187913D01*
X104606D01*
X104606Y187520D01*
X104606D01*
Y184423D01*
X103397D01*
Y185551D01*
X103275Y186166D01*
X102927Y186687D01*
X102579Y186919D01*
Y188514D01*
X102927Y188747D01*
X103275Y189268D01*
X103397Y189882D01*
Y192244D01*
X103275Y192859D01*
X102927Y193379D01*
X102406Y193728D01*
X101791Y193850D01*
X99429D01*
X98815Y193728D01*
X98294Y193379D01*
X97946Y192859D01*
X97928Y192769D01*
X95470D01*
X92316Y195923D01*
Y202010D01*
X93817Y203510D01*
X96811D01*
Y202067D01*
X102717D01*
Y207510D01*
X103153Y207697D01*
X103504Y207408D01*
D02*
G37*
%LPC*%
G36*
X121961Y207217D02*
X119492D01*
Y204748D01*
X121961D01*
Y207217D01*
D02*
G37*
G36*
Y203185D02*
X119492D01*
Y200717D01*
X121961D01*
Y203185D01*
D02*
G37*
G36*
Y199717D02*
X119492D01*
Y197248D01*
X121961D01*
Y199717D01*
D02*
G37*
G36*
X127610Y193835D02*
X125142D01*
Y191366D01*
X127610D01*
Y193835D01*
D02*
G37*
G36*
X123579D02*
X121110D01*
Y191366D01*
X123579D01*
Y193835D01*
D02*
G37*
G36*
X102535Y200685D02*
X100264D01*
Y198217D01*
X102535D01*
Y200685D01*
D02*
G37*
G36*
X99264D02*
X96992D01*
Y198217D01*
X99264D01*
Y200685D01*
D02*
G37*
G36*
X102535Y197217D02*
X100264D01*
Y194748D01*
X102535D01*
Y197217D01*
D02*
G37*
G36*
X99264D02*
X96992D01*
Y194748D01*
X99264D01*
Y197217D01*
D02*
G37*
G36*
X54528Y272365D02*
X51772D01*
X51104Y272277D01*
X50481Y272019D01*
X49946Y271609D01*
X49536Y271074D01*
X49279Y270451D01*
X49191Y269783D01*
Y265846D01*
X49279Y265178D01*
X49536Y264556D01*
X49946Y264021D01*
X50481Y263611D01*
X51104Y263353D01*
X51772Y263265D01*
X54528D01*
X55196Y263353D01*
X55818Y263611D01*
X56353Y264021D01*
X56763Y264556D01*
X57021Y265178D01*
X57109Y265846D01*
Y269783D01*
X57021Y270451D01*
X56763Y271074D01*
X56353Y271609D01*
X55818Y272019D01*
X55196Y272277D01*
X54528Y272365D01*
D02*
G37*
G36*
X26969D02*
X24213D01*
X23545Y272277D01*
X22922Y272019D01*
X22388Y271609D01*
X21977Y271074D01*
X21719Y270451D01*
X21632Y269783D01*
Y265846D01*
X21719Y265178D01*
X21977Y264556D01*
X22388Y264021D01*
X22922Y263611D01*
X23545Y263353D01*
X24213Y263265D01*
X26969D01*
X27637Y263353D01*
X28259Y263611D01*
X28794Y264021D01*
X29204Y264556D01*
X29462Y265178D01*
X29550Y265846D01*
Y269783D01*
X29462Y270451D01*
X29204Y271074D01*
X28794Y271609D01*
X28259Y272019D01*
X27637Y272277D01*
X26969Y272365D01*
D02*
G37*
G36*
X70366Y267217D02*
X63977D01*
X64061Y266363D01*
X64455Y265061D01*
X65097Y263861D01*
X65960Y262810D01*
X67011Y261947D01*
X68211Y261306D01*
X69512Y260911D01*
X70366Y260827D01*
Y267217D01*
D02*
G37*
G36*
X14764D02*
X8374D01*
Y260827D01*
X9228Y260911D01*
X10529Y261306D01*
X11729Y261947D01*
X12781Y262810D01*
X13644Y263861D01*
X14285Y265061D01*
X14680Y266363D01*
X14764Y267217D01*
D02*
G37*
G36*
X46457Y260925D02*
Y260925D01*
X37402D01*
Y260744D01*
X37311D01*
Y257087D01*
X36311D01*
Y260744D01*
X34752D01*
Y257087D01*
Y253429D01*
X36963D01*
X37170Y252929D01*
X34182Y249941D01*
X33812Y249387D01*
X33738Y249016D01*
X31220D01*
Y243110D01*
X37520D01*
Y248453D01*
X38127Y249061D01*
X38269Y249064D01*
X38721Y248637D01*
X38721Y248544D01*
Y243110D01*
X45020D01*
Y248521D01*
X45020Y248637D01*
X45471Y249064D01*
X45613Y249061D01*
X46220Y248453D01*
Y243217D01*
X46220Y242717D01*
X46220Y242216D01*
Y236417D01*
X47650D01*
X47658Y235917D01*
X46163Y234423D01*
X43237D01*
X43045Y234885D01*
X43076Y234916D01*
X43446Y235469D01*
X43576Y236122D01*
Y236417D01*
X45020D01*
Y242323D01*
X38721D01*
Y236883D01*
X37520D01*
Y242323D01*
X31220D01*
Y241076D01*
X30020D01*
Y242323D01*
X23720D01*
Y241076D01*
X13504D01*
Y241850D01*
X5236D01*
Y233583D01*
X13504D01*
Y237664D01*
X23720D01*
Y236883D01*
X21831D01*
X21178Y236753D01*
X20624Y236384D01*
X14004Y229763D01*
X13504Y229970D01*
Y231850D01*
X5236D01*
Y223583D01*
X13504D01*
Y226011D01*
X14370D01*
X15023Y226140D01*
X15576Y226510D01*
X17246Y228180D01*
X17707Y227934D01*
X17664Y227716D01*
Y219423D01*
X13504D01*
Y220012D01*
X13537Y220177D01*
X13504Y220342D01*
Y221850D01*
X11996D01*
X11831Y221883D01*
X11666Y221850D01*
X5236D01*
Y213583D01*
X13504D01*
Y216011D01*
X17664D01*
Y212717D01*
X17794Y212064D01*
X18164Y211510D01*
X20664Y209010D01*
X20879Y208866D01*
X20728Y208366D01*
X18071D01*
Y206923D01*
X14370D01*
X13717Y206793D01*
X13164Y206423D01*
X10664Y203923D01*
X10294Y203369D01*
X10164Y202716D01*
Y195217D01*
X10294Y194564D01*
X10664Y194010D01*
X14817Y189857D01*
X15371Y189487D01*
X16024Y189357D01*
X19188D01*
X19206Y189268D01*
X19554Y188747D01*
X19902Y188514D01*
Y186919D01*
X19554Y186687D01*
X19206Y186166D01*
X19083Y185551D01*
Y183189D01*
X19206Y182574D01*
X19554Y182054D01*
X20075Y181706D01*
X20689Y181583D01*
X22244D01*
X22317Y181510D01*
X22871Y181140D01*
X23524Y181010D01*
X25513D01*
X25866Y180657D01*
X25866Y179449D01*
X25482Y179169D01*
X24870D01*
Y175717D01*
X28323D01*
Y178949D01*
X28323Y179169D01*
X28707Y179449D01*
X30394D01*
Y179630D01*
X31370D01*
Y183484D01*
Y187339D01*
X30819D01*
X30394Y187839D01*
X30394Y187913D01*
X30394D01*
Y194567D01*
X30669D01*
Y197351D01*
X31131Y197543D01*
X33314Y195360D01*
Y192539D01*
X33346Y192375D01*
Y187913D01*
X33346D01*
Y187839D01*
X32921Y187339D01*
X32370D01*
Y183484D01*
Y179630D01*
X33346D01*
Y179449D01*
X33760Y179398D01*
Y171035D01*
X40059D01*
Y171182D01*
X40559Y171467D01*
X41056Y171262D01*
X41331Y171225D01*
Y175217D01*
Y179208D01*
X41056Y179172D01*
X40559Y178966D01*
X40059Y179251D01*
Y179398D01*
X38353D01*
X37874Y179449D01*
Y183510D01*
X38721D01*
Y181417D01*
X45020D01*
Y183510D01*
X46220D01*
Y181417D01*
X52520D01*
X52881Y181083D01*
X54152Y179812D01*
X53961Y179350D01*
X52736D01*
Y171083D01*
X61004D01*
Y179350D01*
X59125D01*
Y180169D01*
X58957Y181014D01*
X58479Y181730D01*
X56578Y183631D01*
Y187315D01*
X57078Y187667D01*
X57342Y187615D01*
X58024D01*
Y190217D01*
Y192819D01*
X57342D01*
X57078Y192766D01*
X56578Y193119D01*
Y194567D01*
X61476D01*
Y200866D01*
X56578D01*
Y202067D01*
X61626D01*
X61870Y202067D01*
X62295Y202248D01*
X64520D01*
Y208185D01*
X62295D01*
X61870Y208366D01*
X61626Y208366D01*
X56578D01*
Y212686D01*
X57078Y213054D01*
X57609Y212949D01*
X58094D01*
Y212195D01*
X58236Y211484D01*
X58638Y210882D01*
X59240Y210480D01*
X59951Y210338D01*
X63789D01*
X64500Y210480D01*
X65102Y210882D01*
X65505Y211484D01*
X65646Y212195D01*
Y216034D01*
X65505Y216744D01*
X65102Y217346D01*
X64500Y217749D01*
X63789Y217890D01*
X59951D01*
X59240Y217749D01*
X58665Y217364D01*
X58524D01*
X58144Y217744D01*
X57427Y218223D01*
X57239Y218260D01*
X56045Y219454D01*
X55492Y219824D01*
X54839Y219954D01*
X53658D01*
Y220479D01*
X53839D01*
X54491Y220609D01*
X55045Y220979D01*
X56385Y222319D01*
X56631Y222270D01*
X57476Y222438D01*
X58192Y222917D01*
X58566Y223290D01*
X58817Y223265D01*
X59631Y222722D01*
X60591Y222531D01*
X63150D01*
X64110Y222722D01*
X64924Y223265D01*
X65468Y224079D01*
X65658Y225039D01*
Y227598D01*
X65468Y228558D01*
X64924Y229372D01*
X64110Y229916D01*
X63150Y230107D01*
X60591D01*
X59631Y229916D01*
X58816Y229372D01*
X58273Y228558D01*
X58146Y227922D01*
X57868D01*
X57023Y227754D01*
X56632Y227493D01*
X56190Y227693D01*
X56152Y228167D01*
X58450Y230466D01*
X58820Y231019D01*
X58950Y231672D01*
Y232067D01*
X61870Y232067D01*
X62295Y232248D01*
X64520D01*
Y238185D01*
X62295D01*
X61870Y238366D01*
X61626Y238366D01*
X55571D01*
Y233905D01*
X55538Y233740D01*
Y232379D01*
X53161Y230001D01*
X52807Y229472D01*
X41465D01*
X41039Y229756D01*
X40194Y229924D01*
X38651D01*
X38253Y230190D01*
X37677Y230305D01*
X35906D01*
X35329Y230190D01*
X34841Y229864D01*
X34515Y229375D01*
X34400Y228799D01*
Y226634D01*
X34515Y226058D01*
X34841Y225570D01*
X35329Y225243D01*
X35906Y225129D01*
X37162D01*
Y221631D01*
X35652Y220121D01*
X34567D01*
X34354Y220079D01*
X31024D01*
Y223819D01*
X28655D01*
Y225406D01*
X28899Y225570D01*
X29225Y226058D01*
X29340Y226634D01*
Y228799D01*
X29225Y229375D01*
X28899Y229864D01*
X28655Y230027D01*
Y231011D01*
X46870D01*
X47523Y231140D01*
X48077Y231510D01*
X50576Y234010D01*
X50946Y234564D01*
X51076Y235216D01*
Y236417D01*
X52520D01*
Y242216D01*
X52520Y242717D01*
X52520Y243217D01*
Y244160D01*
X60236D01*
Y243583D01*
X68504D01*
Y251850D01*
X60236D01*
Y247572D01*
X52520D01*
Y249016D01*
X50002D01*
X49928Y249387D01*
X49558Y249941D01*
X46682Y252818D01*
X46732Y253089D01*
X47261Y253434D01*
X47443Y253398D01*
X50982D01*
X51923Y253585D01*
X52721Y254118D01*
X53254Y254915D01*
X53441Y255856D01*
Y258317D01*
X53254Y259258D01*
X52721Y260055D01*
X51923Y260589D01*
X50982Y260776D01*
X47443D01*
X46957Y260679D01*
X46457Y260925D01*
D02*
G37*
G36*
X31297Y260776D02*
X27758D01*
X26817Y260589D01*
X26019Y260055D01*
X25486Y259258D01*
X25299Y258317D01*
Y255856D01*
X25486Y254915D01*
X26019Y254118D01*
X26817Y253585D01*
X27758Y253398D01*
X31297D01*
X31965Y253530D01*
X32465Y253429D01*
Y253429D01*
X32465Y253429D01*
X33752D01*
Y255836D01*
X33756Y255856D01*
Y257087D01*
Y258317D01*
X33752Y258338D01*
Y260744D01*
X32465D01*
X32465Y260744D01*
Y260744D01*
X31965Y260643D01*
X31297Y260776D01*
D02*
G37*
G36*
X13323Y251669D02*
X9870D01*
Y248217D01*
X13323D01*
Y251669D01*
D02*
G37*
G36*
X8870D02*
X5417D01*
Y248217D01*
X8870D01*
Y251669D01*
D02*
G37*
G36*
X29839Y248835D02*
X27370D01*
Y246563D01*
X29839D01*
Y248835D01*
D02*
G37*
G36*
X26370D02*
X23902D01*
Y246563D01*
X26370D01*
Y248835D01*
D02*
G37*
G36*
X13323Y247217D02*
X9870D01*
Y243764D01*
X13323D01*
Y247217D01*
D02*
G37*
G36*
X8870D02*
X5417D01*
Y243764D01*
X8870D01*
Y247217D01*
D02*
G37*
G36*
X29839Y245563D02*
X27370D01*
Y243291D01*
X29839D01*
Y245563D01*
D02*
G37*
G36*
X26370D02*
X23902D01*
Y243291D01*
X26370D01*
Y245563D01*
D02*
G37*
G36*
X67988Y238185D02*
X65520D01*
Y235717D01*
X67988D01*
Y238185D01*
D02*
G37*
G36*
Y234717D02*
X65520D01*
Y232248D01*
X67988D01*
Y234717D01*
D02*
G37*
G36*
Y208185D02*
X65520D01*
Y205717D01*
X67988D01*
Y208185D01*
D02*
G37*
G36*
Y204717D02*
X65520D01*
Y202248D01*
X67988D01*
Y204717D01*
D02*
G37*
G36*
X68169Y200866D02*
X62264D01*
Y194567D01*
X63511D01*
Y192899D01*
X63421Y192881D01*
X62900Y192533D01*
X62668Y192185D01*
X60855D01*
X60710Y192402D01*
X60249Y192710D01*
X59705Y192819D01*
X59024D01*
Y190217D01*
Y187615D01*
X59705D01*
X60249Y187723D01*
X60710Y188031D01*
X60855Y188248D01*
X62668D01*
X62900Y187900D01*
X63421Y187552D01*
X64035Y187430D01*
X66398D01*
X67012Y187552D01*
X67533Y187900D01*
X67881Y188421D01*
X68003Y189035D01*
Y191398D01*
X67881Y192012D01*
X67533Y192533D01*
X67012Y192881D01*
X66923Y192899D01*
Y194567D01*
X68169D01*
Y200866D01*
D02*
G37*
G36*
X70366Y184055D02*
X69512Y183971D01*
X68211Y183576D01*
X67011Y182935D01*
X65960Y182072D01*
X65097Y181020D01*
X64455Y179821D01*
X64061Y178519D01*
X63977Y177665D01*
X70366D01*
Y184055D01*
D02*
G37*
G36*
X8374D02*
Y177665D01*
X14764D01*
X14680Y178519D01*
X14285Y179821D01*
X13644Y181020D01*
X12781Y182072D01*
X11729Y182935D01*
X10529Y183576D01*
X9228Y183971D01*
X8374Y184055D01*
D02*
G37*
G36*
X42331Y179208D02*
Y175717D01*
X44825D01*
Y176279D01*
X44723Y177055D01*
X44424Y177777D01*
X43948Y178397D01*
X43328Y178873D01*
X42606Y179172D01*
X42331Y179208D01*
D02*
G37*
G36*
X23870Y179169D02*
X20417D01*
Y175717D01*
X23870D01*
Y179169D01*
D02*
G37*
G36*
X28323Y174717D02*
X24870D01*
Y171264D01*
X28323D01*
Y174717D01*
D02*
G37*
G36*
X23870D02*
X20417D01*
Y171264D01*
X23870D01*
Y174717D01*
D02*
G37*
G36*
X44825Y174717D02*
X42331D01*
Y171225D01*
X42606Y171262D01*
X43328Y171561D01*
X43948Y172036D01*
X44424Y172657D01*
X44723Y173379D01*
X44825Y174154D01*
Y174717D01*
D02*
G37*
G36*
X70366Y176665D02*
X63977D01*
X64061Y175812D01*
X64455Y174510D01*
X65097Y173310D01*
X65960Y172259D01*
X67011Y171396D01*
X68211Y170755D01*
X69512Y170360D01*
X70366Y170276D01*
Y176665D01*
D02*
G37*
G36*
X14764D02*
X8374D01*
Y170276D01*
X9228Y170360D01*
X10529Y170755D01*
X11729Y171396D01*
X12781Y172259D01*
X13644Y173310D01*
X14285Y174510D01*
X14680Y175812D01*
X14764Y176665D01*
D02*
G37*
%LPD*%
G36*
X37162Y215216D02*
Y214217D01*
X37330Y213372D01*
X37809Y212655D01*
X38732Y211732D01*
X39449Y211253D01*
X40293Y211085D01*
X40511D01*
X40752Y210685D01*
X40752Y210585D01*
Y208217D01*
X43720D01*
Y207717D01*
X44221D01*
Y204748D01*
X46445D01*
X46870Y204567D01*
X47114Y204567D01*
X52162D01*
Y203366D01*
X47114D01*
X46870Y203366D01*
X46445Y203185D01*
X44221D01*
Y200217D01*
Y197248D01*
X46445D01*
X46870Y197067D01*
X47114Y197067D01*
X52162D01*
Y193835D01*
X49870D01*
Y190866D01*
X49370D01*
Y190366D01*
X46402D01*
Y188142D01*
X46220Y187716D01*
X46220D01*
X46220Y187716D01*
Y186923D01*
X45020D01*
Y187716D01*
X45020D01*
X44839Y187898D01*
Y190366D01*
X41870D01*
Y190866D01*
X41370D01*
Y193835D01*
X39678D01*
Y196614D01*
X39549Y197267D01*
X39179Y197820D01*
X36076Y200923D01*
Y206496D01*
X35946Y207149D01*
X35576Y207702D01*
X31024Y212255D01*
Y215354D01*
X37049D01*
X37162Y215216D01*
D02*
G37*
G36*
X24764Y207408D02*
Y202067D01*
X30164D01*
Y200866D01*
X24764D01*
Y194567D01*
X25866D01*
Y187913D01*
X25866D01*
X25866Y187520D01*
X25866D01*
Y184423D01*
X24657D01*
Y185551D01*
X24535Y186166D01*
X24187Y186687D01*
X23839Y186919D01*
Y188514D01*
X24187Y188747D01*
X24535Y189268D01*
X24657Y189882D01*
Y192244D01*
X24535Y192859D01*
X24187Y193379D01*
X23666Y193728D01*
X23051Y193850D01*
X20689D01*
X20075Y193728D01*
X19554Y193379D01*
X19206Y192859D01*
X19188Y192769D01*
X16730D01*
X13576Y195923D01*
Y202010D01*
X15077Y203510D01*
X18071D01*
Y202067D01*
X23976D01*
Y207510D01*
X24413Y207697D01*
X24764Y207408D01*
D02*
G37*
%LPC*%
G36*
X43220Y207217D02*
X40752D01*
Y204748D01*
X43220D01*
Y207217D01*
D02*
G37*
G36*
Y203185D02*
X40752D01*
Y200717D01*
X43220D01*
Y203185D01*
D02*
G37*
G36*
Y199717D02*
X40752D01*
Y197248D01*
X43220D01*
Y199717D01*
D02*
G37*
G36*
X48870Y193835D02*
X46402D01*
Y191366D01*
X48870D01*
Y193835D01*
D02*
G37*
G36*
X44839D02*
X42370D01*
Y191366D01*
X44839D01*
Y193835D01*
D02*
G37*
G36*
X23795Y200685D02*
X21524D01*
Y198217D01*
X23795D01*
Y200685D01*
D02*
G37*
G36*
X20524D02*
X18252D01*
Y198217D01*
X20524D01*
Y200685D01*
D02*
G37*
G36*
X23795Y197217D02*
X21524D01*
Y194748D01*
X23795D01*
Y197217D01*
D02*
G37*
G36*
X20524D02*
X18252D01*
Y194748D01*
X20524D01*
Y197217D01*
D02*
G37*
G36*
X363335Y270771D02*
Y267350D01*
X366756D01*
X366686Y267882D01*
X366287Y268844D01*
X365654Y269670D01*
X364828Y270303D01*
X363866Y270701D01*
X363335Y270771D01*
D02*
G37*
G36*
X362335D02*
X361803Y270701D01*
X360841Y270303D01*
X360016Y269670D01*
X359382Y268844D01*
X358984Y267882D01*
X358914Y267350D01*
X362335D01*
Y270771D01*
D02*
G37*
G36*
X372835Y271020D02*
X371756Y270878D01*
X370750Y270461D01*
X369886Y269799D01*
X369224Y268935D01*
X368807Y267930D01*
X368752Y267507D01*
X368231Y267159D01*
X367235Y266164D01*
X366857Y266350D01*
X362835D01*
X358914D01*
X358984Y265819D01*
X359151Y265416D01*
X358873Y265000D01*
X355018D01*
X354751Y265500D01*
X355037Y265929D01*
X355221Y266850D01*
X355037Y267772D01*
X354515Y268553D01*
X353734Y269076D01*
X352812Y269259D01*
X351890Y269076D01*
X351109Y268553D01*
X350587Y267772D01*
X350404Y266850D01*
X350587Y265929D01*
X350873Y265500D01*
X350606Y265000D01*
X349795D01*
X346738Y268057D01*
X346184Y268426D01*
X345532Y268556D01*
X326969D01*
Y270984D01*
X318701D01*
Y262717D01*
X326969D01*
Y265144D01*
X344825D01*
X347382Y262587D01*
Y258701D01*
X348629D01*
Y242557D01*
X346144Y240072D01*
X345675D01*
X345592Y240128D01*
X344862Y240273D01*
X337972D01*
X337541Y240187D01*
X337041Y240548D01*
Y242644D01*
X342341Y247944D01*
X342743Y247777D01*
X343835Y247633D01*
X344926Y247777D01*
X345943Y248198D01*
X346817Y248868D01*
X347487Y249742D01*
X347908Y250759D01*
X348052Y251850D01*
X347908Y252942D01*
X347487Y253959D01*
X346817Y254832D01*
X345943Y255503D01*
X344926Y255924D01*
X343835Y256068D01*
X342743Y255924D01*
X342341Y255757D01*
X341634Y256464D01*
Y260000D01*
X340018D01*
X339751Y260500D01*
X340037Y260929D01*
X340221Y261850D01*
X340037Y262772D01*
X339515Y263554D01*
X338734Y264076D01*
X337812Y264259D01*
X336890Y264076D01*
X336109Y263554D01*
X335587Y262772D01*
X335404Y261850D01*
X335587Y260929D01*
X335735Y260708D01*
X335574Y260144D01*
X335335Y260000D01*
D01*
X334903Y259819D01*
X332355D01*
X332130Y260319D01*
X332537Y260929D01*
X332721Y261850D01*
X332537Y262772D01*
X332015Y263554D01*
X331234Y264076D01*
X330312Y264259D01*
X329390Y264076D01*
X328609Y263554D01*
X328087Y262772D01*
X327904Y261850D01*
X328087Y260929D01*
X328609Y260147D01*
X329217Y259741D01*
Y257350D01*
X332185D01*
Y256350D01*
X329217D01*
Y254056D01*
X328041D01*
X326969Y255129D01*
Y260984D01*
X318701D01*
Y252717D01*
X324556D01*
X325788Y251484D01*
X325581Y250984D01*
X318701D01*
Y242717D01*
X323733D01*
X324089Y242183D01*
X324826Y241446D01*
X324635Y240984D01*
X318701D01*
Y232717D01*
X326969D01*
Y235144D01*
X327793D01*
X330752Y232186D01*
X330506Y231725D01*
X330335Y231759D01*
X329413Y231576D01*
X328632Y231053D01*
X328110Y230272D01*
X327926Y229350D01*
X328110Y228429D01*
X328545Y227777D01*
X328355Y227277D01*
X326969D01*
Y230984D01*
X318701D01*
Y222717D01*
X326969D01*
Y223865D01*
X331783D01*
X331975Y223403D01*
X327468Y218897D01*
X326969Y219104D01*
Y220984D01*
X318701D01*
Y212717D01*
X325005D01*
X325196Y212255D01*
X324089Y211147D01*
X323980Y210984D01*
X318701D01*
Y202717D01*
X325635D01*
X325826Y202255D01*
X324556Y200984D01*
X318701D01*
Y192717D01*
X326969D01*
Y198572D01*
X328239Y199842D01*
X328701Y199651D01*
Y192717D01*
X336968D01*
Y200984D01*
X335605D01*
X335414Y201446D01*
X338574Y204606D01*
X339035Y204414D01*
Y203701D01*
X344941D01*
Y210000D01*
X343123D01*
Y213428D01*
X344862D01*
X345592Y213573D01*
X346211Y213986D01*
X346624Y214605D01*
X346769Y215335D01*
X346624Y216064D01*
X346256Y216614D01*
X346624Y217164D01*
X346769Y217894D01*
X346624Y218623D01*
X346256Y219173D01*
X346624Y219723D01*
X346769Y220453D01*
X346624Y221182D01*
X346256Y221732D01*
X346624Y222282D01*
X346769Y223012D01*
X346624Y223742D01*
X346256Y224291D01*
X346624Y224841D01*
X346769Y225571D01*
X346624Y226301D01*
X346256Y226850D01*
X346624Y227400D01*
X346769Y228130D01*
X346624Y228860D01*
X346256Y229410D01*
X346624Y229959D01*
X346769Y230689D01*
X346699Y231042D01*
X346702Y231095D01*
X347053Y231605D01*
X347057Y231607D01*
X347385Y231672D01*
X347939Y232042D01*
X363636Y247739D01*
X363926Y247777D01*
X364943Y248198D01*
X365817Y248868D01*
X366487Y249742D01*
X366908Y250759D01*
X367045Y251798D01*
X368948Y253701D01*
X372835Y253701D01*
X373260Y253882D01*
X375484D01*
Y256850D01*
Y259819D01*
X373260D01*
X372835Y260000D01*
X372591Y260000D01*
X366535D01*
Y256114D01*
X365498Y255077D01*
X364943Y255503D01*
X363926Y255924D01*
X362835Y256068D01*
X361743Y255924D01*
X360726Y255503D01*
X359853Y254832D01*
X359183Y253959D01*
X358761Y252942D01*
X358617Y251850D01*
X358761Y250759D01*
X359183Y249742D01*
X359853Y248868D01*
X359858Y248786D01*
X352458Y241387D01*
X351997Y241633D01*
X352041Y241850D01*
Y258701D01*
X352836D01*
X353129Y258701D01*
X353435Y258266D01*
X353429Y258251D01*
X353427Y258248D01*
X353110Y257772D01*
X352926Y256850D01*
X353110Y255929D01*
X353632Y255147D01*
X354413Y254625D01*
X355335Y254442D01*
X356256Y254625D01*
X357038Y255147D01*
X357560Y255929D01*
X357743Y256850D01*
X357560Y257772D01*
X357273Y258201D01*
X357541Y258701D01*
X359980D01*
Y260144D01*
X365335D01*
X365987Y260274D01*
X366541Y260644D01*
X369804Y263908D01*
X369886Y263902D01*
X370750Y263240D01*
X371756Y262823D01*
X372835Y262681D01*
X373914Y262823D01*
X374919Y263240D01*
X375783Y263902D01*
X376446Y264766D01*
X376862Y265771D01*
X377004Y266850D01*
X376862Y267930D01*
X376446Y268935D01*
X375783Y269799D01*
X374919Y270461D01*
X373914Y270878D01*
X372835Y271020D01*
D02*
G37*
G36*
X386968Y270984D02*
X378701D01*
Y262717D01*
X386968D01*
Y270984D01*
D02*
G37*
G36*
X382335Y260803D02*
X378882D01*
Y259819D01*
X376484D01*
Y256850D01*
Y253882D01*
X378882D01*
Y252898D01*
X382335D01*
Y256850D01*
Y260803D01*
D02*
G37*
G36*
X386787D02*
X383335D01*
Y257350D01*
X386787D01*
Y260803D01*
D02*
G37*
G36*
Y256350D02*
X383335D01*
Y252898D01*
X386787D01*
Y256350D01*
D02*
G37*
G36*
X355335Y251759D02*
X354413Y251576D01*
X353632Y251054D01*
X353110Y250272D01*
X352926Y249350D01*
X353110Y248429D01*
X353632Y247647D01*
X354413Y247125D01*
X355335Y246942D01*
X356256Y247125D01*
X357038Y247647D01*
X357560Y248429D01*
X357743Y249350D01*
X357560Y250272D01*
X357038Y251054D01*
X356256Y251576D01*
X355335Y251759D01*
D02*
G37*
G36*
X386968Y250984D02*
X378701D01*
Y245129D01*
X377684Y244112D01*
X377420Y244253D01*
X377238Y244374D01*
X377060Y245272D01*
X376538Y246054D01*
X375756Y246576D01*
X374835Y246759D01*
X373913Y246576D01*
X373132Y246054D01*
X372609Y245272D01*
X372426Y244350D01*
X372609Y243429D01*
X373132Y242647D01*
X373913Y242125D01*
X374811Y241947D01*
X374932Y241765D01*
X375073Y241501D01*
X373644Y240072D01*
X368510D01*
X368426Y240128D01*
X367697Y240273D01*
X360807D01*
X360077Y240128D01*
X359459Y239714D01*
X359046Y239096D01*
X358900Y238366D01*
X359046Y237636D01*
X359413Y237087D01*
X359046Y236537D01*
X358900Y235807D01*
X359046Y235077D01*
X359413Y234528D01*
X359046Y233978D01*
X358900Y233248D01*
X359046Y232518D01*
X359413Y231968D01*
X359046Y231419D01*
X358900Y230689D01*
X358974Y230321D01*
X358583Y229821D01*
X355911D01*
X355258Y229691D01*
X354705Y229321D01*
X354128Y228744D01*
X353759Y228191D01*
X353629Y227538D01*
Y214350D01*
X353759Y213698D01*
X354128Y213144D01*
X357992Y209281D01*
X357800Y208819D01*
X357037D01*
X356805Y209167D01*
X356284Y209515D01*
X355669Y209637D01*
X353307D01*
X352693Y209515D01*
X352172Y209167D01*
X352134Y209110D01*
X351634Y209262D01*
Y210000D01*
X345728D01*
Y203701D01*
X351634D01*
Y204439D01*
X352134Y204591D01*
X352172Y204534D01*
X352693Y204186D01*
X353307Y204064D01*
X355669D01*
X356284Y204186D01*
X356805Y204534D01*
X357037Y204882D01*
X357746D01*
X357954Y204382D01*
X357101Y203530D01*
X357101Y203530D01*
X354556Y200984D01*
X348701D01*
Y192717D01*
X356968D01*
Y198572D01*
X358239Y199842D01*
X358701Y199651D01*
Y192717D01*
X366968D01*
Y198572D01*
X368239Y199842D01*
X368701Y199651D01*
Y192717D01*
X376969D01*
Y199651D01*
X377430Y199842D01*
X378701Y198572D01*
Y192717D01*
X386968D01*
Y200984D01*
X381114D01*
X379843Y202255D01*
X380034Y202717D01*
X386968D01*
Y210984D01*
X380539D01*
X380434Y211005D01*
X379185Y212255D01*
X379376Y212717D01*
X386968D01*
Y220984D01*
X381113D01*
X379881Y222217D01*
X380088Y222717D01*
X386968D01*
Y230984D01*
X378701D01*
X378701Y230984D01*
Y230984D01*
X378332Y231266D01*
X375959Y233639D01*
X376150Y234101D01*
X378701D01*
Y232717D01*
X386968D01*
Y240984D01*
X380034D01*
X379843Y241446D01*
X381114Y242717D01*
X386968D01*
Y250984D01*
D02*
G37*
G36*
X367812Y246759D02*
X366890Y246576D01*
X366109Y246054D01*
X365587Y245272D01*
X365404Y244350D01*
X365587Y243429D01*
X366109Y242647D01*
X366890Y242125D01*
X367812Y241942D01*
X368734Y242125D01*
X369515Y242647D01*
X370037Y243429D01*
X370221Y244350D01*
X370037Y245272D01*
X369515Y246054D01*
X368734Y246576D01*
X367812Y246759D01*
D02*
G37*
G36*
X346969Y200984D02*
X338701D01*
Y192717D01*
X346969D01*
Y200984D01*
D02*
G37*
G36*
X385303Y122031D02*
Y118610D01*
X388724D01*
X388654Y119142D01*
X388256Y120104D01*
X387622Y120929D01*
X386797Y121563D01*
X385835Y121961D01*
X385303Y122031D01*
D02*
G37*
G36*
X384303D02*
X383771Y121961D01*
X382810Y121563D01*
X381984Y120929D01*
X381350Y120104D01*
X380952Y119142D01*
X380882Y118610D01*
X384303D01*
Y122031D01*
D02*
G37*
G36*
X388724Y117610D02*
X385303D01*
Y114189D01*
X385835Y114259D01*
X386797Y114657D01*
X387622Y115291D01*
X388256Y116117D01*
X388654Y117078D01*
X388724Y117610D01*
D02*
G37*
G36*
X384303D02*
X380882D01*
X380952Y117078D01*
X381350Y116117D01*
X381984Y115291D01*
X382810Y114657D01*
X383771Y114259D01*
X384303Y114189D01*
Y117610D01*
D02*
G37*
G36*
X328937Y122244D02*
X320669D01*
Y113976D01*
X328937D01*
Y122244D01*
D02*
G37*
G36*
X364303Y111728D02*
X361835D01*
Y109260D01*
X364303D01*
Y111728D01*
D02*
G37*
G36*
X350272D02*
X347803D01*
Y109260D01*
X350272D01*
Y111728D01*
D02*
G37*
G36*
X388937Y102244D02*
X380669D01*
Y93976D01*
X388937D01*
Y102244D01*
D02*
G37*
G36*
X344803Y122316D02*
X344440Y122244D01*
X340669D01*
Y118473D01*
X340597Y118110D01*
Y89382D01*
X340135Y89191D01*
X337509Y91817D01*
Y113976D01*
X338937D01*
Y122244D01*
X330669D01*
Y113976D01*
X334097D01*
Y104382D01*
X333635Y104191D01*
X330970Y106856D01*
X330417Y107226D01*
X329764Y107356D01*
X328937D01*
Y112244D01*
X320669D01*
Y103976D01*
X327099D01*
X327264Y103944D01*
X329057D01*
X331825Y101175D01*
Y94406D01*
X331326Y94199D01*
X328937Y96587D01*
Y102244D01*
X320669D01*
Y93976D01*
X326723D01*
X327993Y92706D01*
X327801Y92244D01*
X320669D01*
Y83976D01*
X326035D01*
X326058Y83943D01*
X327295Y82706D01*
X327103Y82244D01*
X320669D01*
Y73976D01*
X327099D01*
X327141Y73968D01*
X328326Y72783D01*
Y72244D01*
X320669D01*
Y63976D01*
X326035D01*
X326058Y63943D01*
X327295Y62706D01*
X327103Y62244D01*
X320669D01*
Y53976D01*
X328103D01*
X328295Y53514D01*
X327024Y52244D01*
X320669D01*
Y43976D01*
X328937D01*
X329097Y43543D01*
Y43317D01*
X328024Y42244D01*
X320669D01*
Y33976D01*
X328937D01*
Y38741D01*
X329219Y38797D01*
X329772Y39166D01*
X332010Y41404D01*
X332379Y41957D01*
X332509Y42610D01*
Y46904D01*
X332848Y47242D01*
X333306Y46994D01*
X333457Y46236D01*
X333939Y45514D01*
X334661Y45032D01*
X335307Y44904D01*
X335351Y44874D01*
X336004Y44744D01*
X336601Y44863D01*
X337669D01*
Y47087D01*
X338169D01*
Y47587D01*
X342951D01*
X342881Y47938D01*
X342498Y48512D01*
X342530Y48533D01*
X343052Y49315D01*
X343235Y50236D01*
X343052Y51158D01*
X342616Y51811D01*
X343052Y52464D01*
X343235Y53386D01*
X343052Y54308D01*
X342616Y54961D01*
X343052Y55614D01*
X343235Y56536D01*
X343052Y57457D01*
X342616Y58110D01*
X343052Y58763D01*
X343235Y59685D01*
X343052Y60607D01*
X342616Y61260D01*
X343052Y61913D01*
X343235Y62835D01*
X343052Y63756D01*
X342616Y64410D01*
X343052Y65063D01*
X343235Y65984D01*
X343052Y66906D01*
X342616Y67559D01*
X343052Y68212D01*
X343235Y69134D01*
X343188Y69372D01*
X343541Y69726D01*
X343779Y69678D01*
X344701Y69862D01*
X345354Y70298D01*
X346007Y69862D01*
X346929Y69678D01*
X347851Y69862D01*
X348504Y70298D01*
X349157Y69862D01*
X350079Y69678D01*
X351000Y69862D01*
X351081Y69916D01*
X351522Y69680D01*
Y67558D01*
X351652Y66905D01*
X352022Y66352D01*
X352456Y65918D01*
X352395Y65610D01*
X352578Y64689D01*
X353100Y63907D01*
X353882Y63385D01*
X354803Y63202D01*
X355725Y63385D01*
X356506Y63907D01*
X357028Y64689D01*
X357212Y65610D01*
X357028Y66532D01*
X356506Y67313D01*
X355725Y67835D01*
X355274Y67925D01*
X354934Y68265D01*
Y69680D01*
X355375Y69916D01*
X355456Y69862D01*
X356378Y69678D01*
X357300Y69862D01*
X357953Y70298D01*
X358606Y69862D01*
X359528Y69678D01*
X360449Y69862D01*
X361102Y70298D01*
X361755Y69862D01*
X362677Y69678D01*
X363599Y69862D01*
X364252Y70298D01*
X364905Y69862D01*
X365827Y69678D01*
X366257Y69764D01*
X366387Y69634D01*
X370937D01*
Y71358D01*
X368779D01*
X368503Y71303D01*
X368150Y71656D01*
X368235Y72087D01*
Y77402D01*
X368052Y78323D01*
X368034Y78350D01*
X368395Y78710D01*
X368882Y78385D01*
X369803Y78202D01*
X370725Y78385D01*
X371506Y78907D01*
X372028Y79689D01*
X372212Y80610D01*
X372028Y81532D01*
X371506Y82313D01*
X370725Y82835D01*
X369803Y83019D01*
X368882Y82835D01*
X368105Y82316D01*
X367303D01*
X366650Y82186D01*
X366097Y81817D01*
X364883Y80603D01*
X364383Y80810D01*
Y82778D01*
X367110Y85504D01*
X367479Y86058D01*
X367591Y86618D01*
X368412Y86958D01*
X369285Y87628D01*
X369955Y88502D01*
X370377Y89519D01*
X370520Y90610D01*
X370377Y91702D01*
X369955Y92719D01*
X369285Y93592D01*
X368412Y94262D01*
X367395Y94684D01*
X366509Y94800D01*
Y99311D01*
X367953D01*
Y101829D01*
X368324Y101902D01*
X368878Y102272D01*
X371009Y104404D01*
X371153Y104620D01*
X371654Y104468D01*
Y99311D01*
X373097D01*
Y88110D01*
X373227Y87457D01*
X373597Y86904D01*
X380669Y79831D01*
Y76389D01*
X378597Y74317D01*
X378227Y73763D01*
X378097Y73110D01*
Y68817D01*
X376971Y67690D01*
X376354D01*
X376087Y68190D01*
X376149Y68283D01*
X376219Y68634D01*
X366655D01*
X366725Y68283D01*
X367109Y67709D01*
X367076Y67687D01*
X366554Y66906D01*
X366371Y65984D01*
X366554Y65063D01*
X366991Y64410D01*
X366554Y63756D01*
X366371Y62835D01*
X366554Y61913D01*
X366991Y61260D01*
X366554Y60607D01*
X366371Y59685D01*
X366554Y58763D01*
X366991Y58110D01*
X366554Y57457D01*
X366371Y56536D01*
X366554Y55614D01*
X366991Y54961D01*
X366554Y54308D01*
X366371Y53386D01*
X366554Y52464D01*
X366991Y51811D01*
X366554Y51158D01*
X366371Y50236D01*
X366554Y49315D01*
X366991Y48661D01*
X366554Y48008D01*
X366371Y47087D01*
X366418Y46849D01*
X366065Y46495D01*
X365827Y46542D01*
X364905Y46359D01*
X364252Y45923D01*
X363599Y46359D01*
X362677Y46542D01*
X361755Y46359D01*
X361102Y45923D01*
X360449Y46359D01*
X359528Y46542D01*
X358606Y46359D01*
X357953Y45923D01*
X357300Y46359D01*
X356378Y46542D01*
X355456Y46359D01*
X354803Y45923D01*
X354150Y46359D01*
X353228Y46542D01*
X352307Y46359D01*
X351654Y45923D01*
X351000Y46359D01*
X350079Y46542D01*
X349157Y46359D01*
X348504Y45923D01*
X347851Y46359D01*
X346929Y46542D01*
X346007Y46359D01*
X345354Y45923D01*
X344701Y46359D01*
X343779Y46542D01*
X343349Y46457D01*
X343219Y46587D01*
X338669D01*
Y44863D01*
X340827D01*
X341103Y44918D01*
X341457Y44564D01*
X341371Y44134D01*
Y41316D01*
X337002D01*
X336225Y41835D01*
X335303Y42019D01*
X334382Y41835D01*
X333600Y41313D01*
X333078Y40532D01*
X332895Y39610D01*
X333078Y38689D01*
X333600Y37907D01*
X334382Y37385D01*
X335303Y37202D01*
X336225Y37385D01*
X337002Y37904D01*
X341553D01*
X341554Y37897D01*
X342076Y37116D01*
X342858Y36594D01*
X343779Y36410D01*
X344701Y36594D01*
X344782Y36648D01*
X345223Y36412D01*
Y35943D01*
X339096Y29816D01*
X328937D01*
Y32244D01*
X320669D01*
Y23976D01*
X328937D01*
Y26404D01*
X339694D01*
X339862Y26141D01*
X339913Y25916D01*
X336313Y22316D01*
X324803D01*
X324440Y22244D01*
X320669D01*
Y13976D01*
X327603D01*
X327795Y13514D01*
X326524Y12244D01*
X320669D01*
Y3976D01*
X328937D01*
Y9831D01*
X330207Y11102D01*
X330669Y10910D01*
Y3976D01*
X338937D01*
Y11331D01*
X357322Y29716D01*
X357822Y29509D01*
Y23541D01*
X346524Y12244D01*
X340669D01*
Y3976D01*
X348937D01*
Y9832D01*
X350207Y11102D01*
X350669Y10910D01*
Y3976D01*
X358937D01*
Y12244D01*
X352003D01*
X351812Y12706D01*
X360471Y21366D01*
X360971Y21159D01*
Y15236D01*
X361101Y14583D01*
X361471Y14030D01*
X362757Y12744D01*
X362549Y12244D01*
X360669D01*
Y3976D01*
X368937D01*
Y12244D01*
X366509D01*
Y13110D01*
X366379Y13763D01*
X366009Y14317D01*
X364383Y15943D01*
Y20411D01*
X364883Y20618D01*
X372757Y12744D01*
X372550Y12244D01*
X370669D01*
Y3976D01*
X378937D01*
Y12244D01*
X376509D01*
Y13110D01*
X376379Y13763D01*
X376009Y14317D01*
X367533Y22793D01*
Y37120D01*
X368052Y37897D01*
X368235Y38819D01*
Y44134D01*
X368188Y44372D01*
X368541Y44725D01*
X368779Y44678D01*
X369731D01*
Y29476D01*
X369861Y28824D01*
X370231Y28270D01*
X379744Y18756D01*
X380298Y18387D01*
X380669Y18313D01*
Y13976D01*
X388937D01*
Y22244D01*
X381082D01*
X373143Y30183D01*
Y44678D01*
X374095D01*
X375016Y44862D01*
X375156Y44955D01*
X375597Y44719D01*
Y31522D01*
X375727Y30869D01*
X376097Y30316D01*
X379509Y26904D01*
X380062Y26534D01*
X380669Y26413D01*
Y23976D01*
X388937D01*
Y32244D01*
X380669D01*
Y31222D01*
X380207Y31031D01*
X379009Y32229D01*
Y40838D01*
X379471Y41030D01*
X380669Y39832D01*
Y33976D01*
X388937D01*
Y42244D01*
X383082D01*
X381850Y43476D01*
X382057Y43976D01*
X388937D01*
Y52244D01*
X383571D01*
X383549Y52277D01*
X382312Y53514D01*
X382503Y53976D01*
X388937D01*
Y62244D01*
X382003D01*
X381812Y62706D01*
X383082Y63976D01*
X388937D01*
Y72244D01*
X382057D01*
X381850Y72744D01*
X383082Y73976D01*
X388937D01*
Y82244D01*
X383082D01*
X381630Y83696D01*
X381822Y84158D01*
X384303D01*
Y87610D01*
X380850D01*
Y85129D01*
X380388Y84938D01*
X376509Y88817D01*
Y99311D01*
X377953D01*
Y105217D01*
X371941D01*
X371531Y105590D01*
X371529Y105596D01*
X371802Y106004D01*
X372009Y106004D01*
X377953D01*
Y106404D01*
X381035D01*
X381192Y106026D01*
X381855Y105162D01*
X382718Y104499D01*
X383724Y104083D01*
X384803Y103941D01*
X385882Y104083D01*
X386888Y104499D01*
X387752Y105162D01*
X388414Y106026D01*
X388831Y107031D01*
X388973Y108110D01*
X388831Y109189D01*
X388414Y110195D01*
X387752Y111058D01*
X386888Y111721D01*
X385882Y112138D01*
X384803Y112280D01*
X383724Y112138D01*
X382718Y111721D01*
X381855Y111058D01*
X381192Y110195D01*
X381035Y109816D01*
X377953D01*
Y111909D01*
X372009D01*
X371654Y111909D01*
X371509Y112350D01*
Y112404D01*
X373082Y113976D01*
X378937D01*
Y122244D01*
X370669D01*
Y116389D01*
X369399Y115119D01*
X368937Y115310D01*
Y122244D01*
X360669D01*
Y113976D01*
X367814D01*
X368170Y113476D01*
X368097Y113110D01*
Y112093D01*
X367772Y111728D01*
X365303D01*
Y108760D01*
X364803D01*
Y108260D01*
X361835D01*
Y105791D01*
X361653Y105610D01*
X361653D01*
Y99311D01*
X363097D01*
Y93467D01*
X363124Y93335D01*
X362651Y92719D01*
X362230Y91702D01*
X362086Y90610D01*
X362230Y89519D01*
X362651Y88502D01*
X363321Y87628D01*
X363636Y87387D01*
X363668Y86888D01*
X361471Y84691D01*
X361101Y84137D01*
X360971Y83484D01*
Y82512D01*
X360471Y82360D01*
X360470Y82361D01*
X351946Y90886D01*
X351439Y91224D01*
X351377Y91702D01*
X350955Y92719D01*
X350285Y93592D01*
X349412Y94262D01*
X349009Y94429D01*
Y99311D01*
X350453D01*
Y101829D01*
X350824Y101902D01*
X351378Y102272D01*
X356010Y106904D01*
X356379Y107457D01*
X356509Y108110D01*
Y113976D01*
X358937D01*
Y122244D01*
X350669D01*
Y113976D01*
X353097D01*
Y108817D01*
X350734Y106453D01*
X350272Y106645D01*
Y108260D01*
X347303D01*
Y108760D01*
X346803D01*
Y111728D01*
X344335D01*
X344009Y112093D01*
Y113976D01*
X348937D01*
Y122244D01*
X345166D01*
X344803Y122316D01*
D02*
G37*
G36*
X352803Y99519D02*
X351882Y99335D01*
X351100Y98813D01*
X350578Y98032D01*
X350395Y97110D01*
X350578Y96189D01*
X351100Y95407D01*
X351882Y94885D01*
X352798Y94703D01*
X354935Y92566D01*
X354578Y92032D01*
X354395Y91110D01*
X354578Y90189D01*
X355100Y89407D01*
X355882Y88885D01*
X356803Y88702D01*
X357725Y88885D01*
X358506Y89407D01*
X359028Y90189D01*
X359212Y91110D01*
X359028Y92032D01*
X358509Y92809D01*
Y93110D01*
X358379Y93763D01*
X358010Y94317D01*
X355211Y97115D01*
X355028Y98032D01*
X354506Y98813D01*
X353725Y99335D01*
X352803Y99519D01*
D02*
G37*
G36*
X388756Y92063D02*
X385303D01*
Y88610D01*
X388756D01*
Y92063D01*
D02*
G37*
G36*
X384303D02*
X380850D01*
Y88610D01*
X384303D01*
Y92063D01*
D02*
G37*
G36*
X388756Y87610D02*
X385303D01*
Y84158D01*
X388756D01*
Y87610D01*
D02*
G37*
G36*
X374095Y71358D02*
X371937D01*
Y69634D01*
X376219D01*
X376149Y69985D01*
X375667Y70706D01*
X374945Y71188D01*
X374095Y71358D01*
D02*
G37*
G36*
X388756Y12063D02*
X385303D01*
Y8610D01*
X388756D01*
Y12063D01*
D02*
G37*
G36*
X384303D02*
X380850D01*
Y8610D01*
X384303D01*
Y12063D01*
D02*
G37*
G36*
X388756Y7610D02*
X385303D01*
Y4157D01*
X388756D01*
Y7610D01*
D02*
G37*
G36*
X384303D02*
X380850D01*
Y4157D01*
X384303D01*
Y7610D01*
D02*
G37*
G36*
X188402Y134189D02*
X184752D01*
Y131720D01*
X188402D01*
Y134189D01*
D02*
G37*
G36*
X213598D02*
X209949D01*
Y131720D01*
X213598D01*
Y134189D01*
D02*
G37*
G36*
X208949D02*
X205299D01*
Y131720D01*
X208949D01*
Y134189D01*
D02*
G37*
G36*
X183752D02*
X180102D01*
Y131720D01*
X183752D01*
Y134189D01*
D02*
G37*
G36*
X213598Y130720D02*
X209949D01*
Y128252D01*
X213598D01*
Y130720D01*
D02*
G37*
G36*
X208949D02*
X205299D01*
Y128252D01*
X208949D01*
Y130720D01*
D02*
G37*
G36*
X188402D02*
X184752D01*
Y128252D01*
X188402D01*
Y130720D01*
D02*
G37*
G36*
X183752D02*
X180102D01*
Y128252D01*
X183752D01*
Y130720D01*
D02*
G37*
G36*
X213583Y119213D02*
X205315D01*
Y113307D01*
X213583D01*
Y119213D01*
D02*
G37*
G36*
X230787Y132677D02*
X222913D01*
Y126932D01*
X214786Y118805D01*
X214460Y118316D01*
X214345Y117740D01*
Y111817D01*
X214353Y111778D01*
X214345Y111740D01*
Y110442D01*
X209862D01*
Y111693D01*
X204350D01*
Y105787D01*
X209862D01*
Y107432D01*
X214345D01*
Y98467D01*
X210523Y94644D01*
X200749D01*
X200173Y94530D01*
X199685Y94204D01*
X195789Y90308D01*
X195302Y90266D01*
X194868Y90701D01*
X194379Y91027D01*
X193803Y91141D01*
X191578D01*
X183356Y99364D01*
Y102740D01*
X183241Y103316D01*
X182915Y103805D01*
X177356Y109364D01*
Y114755D01*
X180118D01*
Y113307D01*
X188386D01*
Y119213D01*
X180118D01*
Y117765D01*
X177356D01*
Y119938D01*
X177241Y120514D01*
X176915Y121003D01*
X170787Y127130D01*
Y132677D01*
X162913D01*
Y124803D01*
X168857D01*
X170483Y123177D01*
X170276Y122677D01*
X162913D01*
Y114803D01*
X170787D01*
Y114803D01*
X171050Y114912D01*
X171845Y114117D01*
Y108740D01*
X171960Y108164D01*
X172286Y107676D01*
X177845Y102117D01*
Y98740D01*
X177960Y98164D01*
X178286Y97676D01*
X188965Y86997D01*
X189453Y86671D01*
X190029Y86556D01*
X191906D01*
X192195Y86266D01*
Y84646D01*
X192310Y84070D01*
X192323Y84051D01*
Y83284D01*
X192307D01*
Y83268D01*
X190789D01*
X190770Y83280D01*
X190194Y83395D01*
X189324D01*
X174856Y97864D01*
Y102240D01*
X174741Y102816D01*
X174415Y103305D01*
X170787Y106932D01*
Y112677D01*
X162913D01*
Y104803D01*
X168659D01*
X170323Y103139D01*
X170131Y102677D01*
X162913D01*
Y94803D01*
X170787D01*
Y94803D01*
X171050Y94912D01*
X185254Y80707D01*
X185063Y80246D01*
X182474D01*
X172915Y89805D01*
X172426Y90131D01*
X171850Y90245D01*
X170787D01*
Y92677D01*
X162913D01*
Y84803D01*
X170787D01*
Y87089D01*
X171287Y87174D01*
X179329Y79133D01*
X179138Y78671D01*
X176549D01*
X175415Y79805D01*
X174926Y80131D01*
X174350Y80246D01*
X170787D01*
Y82677D01*
X162913D01*
Y74803D01*
X170787D01*
Y77235D01*
X173727D01*
X174861Y76101D01*
X175349Y75775D01*
X175516Y75741D01*
X175680Y75199D01*
X172079Y71598D01*
X170787D01*
Y72677D01*
X162913D01*
Y64803D01*
X170787D01*
Y68587D01*
X172703D01*
X173279Y68702D01*
X173767Y69028D01*
X178824Y74085D01*
X190945D01*
X191521Y74200D01*
X191540Y74213D01*
X192307D01*
Y74197D01*
X192323D01*
Y73430D01*
X192310Y73411D01*
X192195Y72835D01*
Y70941D01*
X192000Y70745D01*
X178350D01*
X177774Y70631D01*
X177286Y70305D01*
X169687Y62706D01*
X169311D01*
X169166Y62677D01*
X162913D01*
Y54803D01*
X170199D01*
X170285Y54303D01*
X168659Y52677D01*
X162913D01*
Y44803D01*
X169976D01*
X172504Y42276D01*
Y35081D01*
X172619Y34505D01*
X172945Y34017D01*
X187888Y19073D01*
X187920Y19052D01*
X187879Y18740D01*
X188015Y17712D01*
X188411Y16755D01*
X189042Y15932D01*
X189865Y15301D01*
X190823Y14905D01*
X191850Y14769D01*
X192878Y14905D01*
X193836Y15301D01*
X194658Y15932D01*
X195289Y16755D01*
X195686Y17712D01*
X195821Y18740D01*
X195686Y19768D01*
X195289Y20726D01*
X194658Y21548D01*
X193836Y22179D01*
X192878Y22576D01*
X191850Y22711D01*
X190823Y22576D01*
X189865Y22179D01*
X189398Y21821D01*
X175515Y35705D01*
Y36794D01*
X175977Y36985D01*
X177786Y35176D01*
X178274Y34850D01*
X178850Y34735D01*
X184150D01*
X187913Y30971D01*
Y24803D01*
X195787D01*
Y32677D01*
X190462D01*
X190454Y32688D01*
X185838Y37305D01*
X185350Y37631D01*
X184774Y37745D01*
X179474D01*
X177856Y39364D01*
Y46740D01*
X177741Y47316D01*
X177415Y47805D01*
X175856Y49364D01*
Y51453D01*
X176318Y51644D01*
X178786Y49176D01*
X179274Y48849D01*
X179850Y48735D01*
X188227D01*
X196786Y40176D01*
X197274Y39849D01*
X197850Y39735D01*
X202227D01*
X204845Y37117D01*
Y32035D01*
X204345Y31788D01*
X203836Y32179D01*
X202878Y32576D01*
X201850Y32711D01*
X200823Y32576D01*
X199865Y32179D01*
X199042Y31548D01*
X198411Y30726D01*
X198015Y29768D01*
X197879Y28740D01*
X198015Y27712D01*
X198411Y26755D01*
X199042Y25932D01*
X199865Y25301D01*
X200823Y24904D01*
X201850Y24769D01*
X202878Y24904D01*
X203836Y25301D01*
X204345Y25692D01*
X204845Y25445D01*
Y23364D01*
X203712Y22230D01*
X202878Y22576D01*
X201850Y22711D01*
X200823Y22576D01*
X199865Y22179D01*
X199042Y21548D01*
X198411Y20726D01*
X198015Y19768D01*
X197879Y18740D01*
X198015Y17712D01*
X198411Y16755D01*
X199042Y15932D01*
X199286Y15745D01*
X199116Y15245D01*
X196850D01*
X196274Y15131D01*
X195786Y14805D01*
X193358Y12377D01*
X192878Y12576D01*
X191850Y12711D01*
X190823Y12576D01*
X189865Y12179D01*
X189042Y11548D01*
X188411Y10726D01*
X188015Y9768D01*
X187879Y8740D01*
X188015Y7712D01*
X188411Y6755D01*
X189042Y5932D01*
X189865Y5301D01*
X190823Y4905D01*
X191850Y4769D01*
X192878Y4905D01*
X193836Y5301D01*
X194658Y5932D01*
X195289Y6755D01*
X195686Y7712D01*
X195821Y8740D01*
X195686Y9768D01*
X195487Y10248D01*
X197474Y12235D01*
X199090D01*
X199260Y11735D01*
X199031Y11559D01*
X198398Y10734D01*
X197999Y9772D01*
X197929Y9240D01*
X201850D01*
X205771D01*
X205701Y9772D01*
X205303Y10734D01*
X204669Y11559D01*
X204421Y11750D01*
X204557Y12276D01*
X204926Y12349D01*
X205415Y12676D01*
X209915Y17176D01*
X210241Y17664D01*
X210356Y18240D01*
Y20622D01*
X212350D01*
Y23591D01*
X212850D01*
Y24091D01*
X215819D01*
Y26443D01*
X215819Y26559D01*
X215819D01*
X215803Y26937D01*
X215803D01*
Y32842D01*
X214644D01*
X214376Y33342D01*
X214473Y33487D01*
X214626Y34255D01*
X214473Y35023D01*
X214038Y35674D01*
X213387Y36109D01*
X212618Y36262D01*
X211850Y36109D01*
X211328Y35760D01*
X210356D01*
Y40807D01*
X213583D01*
Y46713D01*
X205315D01*
Y45265D01*
X199454D01*
X190915Y53805D01*
X190426Y54131D01*
X189850Y54246D01*
X181474D01*
X180856Y54864D01*
Y55752D01*
X183752D01*
Y58720D01*
Y61689D01*
X180856D01*
Y62450D01*
X181205Y62972D01*
X181358Y63740D01*
X181205Y64508D01*
X180770Y65159D01*
X180657Y65235D01*
X180808Y65735D01*
X192850D01*
X193426Y65850D01*
X193915Y66176D01*
X196340Y68601D01*
X196434Y68742D01*
X196958Y68625D01*
X197035Y68239D01*
X197361Y67751D01*
X197960Y67151D01*
X197996Y66972D01*
X198431Y66321D01*
X199082Y65886D01*
X199794Y65744D01*
X199863Y65676D01*
X200351Y65350D01*
X200927Y65235D01*
X207455D01*
X210539Y62151D01*
X210348Y61689D01*
X209949D01*
Y58720D01*
Y55752D01*
X213598D01*
Y58438D01*
X214060Y58629D01*
X215345Y57345D01*
Y48740D01*
X215460Y48164D01*
X215786Y47676D01*
X220345Y43117D01*
Y41240D01*
X220460Y40664D01*
X220786Y40176D01*
X221933Y39028D01*
X222422Y38702D01*
X222913Y38604D01*
Y34803D01*
X230787D01*
Y42677D01*
X223356D01*
Y43740D01*
X223244Y44303D01*
X223229Y44393D01*
X223516Y44803D01*
X230787D01*
Y52677D01*
X227194D01*
X226850Y52745D01*
X224474D01*
X222916Y54303D01*
X223123Y54803D01*
X223326Y54803D01*
X230787D01*
Y62677D01*
X222913D01*
Y60392D01*
X222413Y60306D01*
X215946Y66773D01*
X216138Y67235D01*
X222913D01*
Y64803D01*
X230787D01*
Y72677D01*
X222913D01*
Y70245D01*
X215474D01*
X208946Y76773D01*
X209138Y77235D01*
X222913D01*
Y74803D01*
X230787D01*
Y82677D01*
X222913D01*
Y80246D01*
X211638D01*
X211446Y80707D01*
X216621Y85882D01*
X222913D01*
Y84803D01*
X230787D01*
Y92677D01*
X222913D01*
Y88893D01*
X217285D01*
X217094Y89355D01*
X222651Y94912D01*
X222913Y94803D01*
Y94803D01*
X230787D01*
Y102677D01*
X222913D01*
Y98876D01*
X222422Y98778D01*
X222356Y98734D01*
X221856Y99001D01*
Y104117D01*
X222651Y104912D01*
X222913Y104803D01*
Y104803D01*
X230787D01*
Y112677D01*
X223357D01*
X223123Y112677D01*
X222916Y113177D01*
X224542Y114803D01*
X230787D01*
Y122677D01*
X223569D01*
X223378Y123139D01*
X225042Y124803D01*
X230787D01*
Y132677D01*
D02*
G37*
G36*
X203169Y111693D02*
X197658D01*
Y111318D01*
X197158Y111058D01*
X196916Y111219D01*
X196378Y111326D01*
X194016D01*
X193478Y111219D01*
X193022Y110915D01*
X192885Y110709D01*
X190816D01*
X190679Y110915D01*
X190223Y111219D01*
X189685Y111326D01*
X187323D01*
X186785Y111219D01*
X186329Y110915D01*
X186025Y110459D01*
X185918Y109921D01*
Y107559D01*
X186025Y107021D01*
X186329Y106566D01*
X186785Y106261D01*
X186999Y106219D01*
Y103762D01*
X186785Y103719D01*
X186329Y103415D01*
X186025Y102959D01*
X185918Y102421D01*
Y100059D01*
X186025Y99521D01*
X186329Y99066D01*
X186785Y98761D01*
X187323Y98654D01*
X187739D01*
X187806Y98318D01*
X188132Y97830D01*
X190786Y95176D01*
X191274Y94849D01*
X191850Y94735D01*
X195560D01*
X196082Y94386D01*
X196850Y94233D01*
X197618Y94386D01*
X198270Y94821D01*
X198705Y95472D01*
X198857Y96240D01*
X198705Y97008D01*
X198270Y97659D01*
X198078Y97787D01*
X198230Y98287D01*
X203169D01*
Y104193D01*
X197658D01*
Y103818D01*
X197158Y103558D01*
X196916Y103719D01*
X196378Y103826D01*
X194016D01*
X193478Y103719D01*
X193022Y103415D01*
X192885Y103209D01*
X190816D01*
X190679Y103415D01*
X190223Y103719D01*
X190009Y103762D01*
Y106219D01*
X190223Y106261D01*
X190679Y106566D01*
X190816Y106772D01*
X192885D01*
X193022Y106566D01*
X193478Y106261D01*
X194016Y106154D01*
X196378D01*
X196916Y106261D01*
X197158Y106423D01*
X197658Y106162D01*
Y105787D01*
X203169D01*
Y111693D01*
D02*
G37*
G36*
X209862Y104193D02*
X204350D01*
Y98287D01*
X209862D01*
Y99205D01*
X210362Y99472D01*
X210492Y99386D01*
X211260Y99233D01*
X212028Y99386D01*
X212679Y99821D01*
X213114Y100472D01*
X213267Y101240D01*
X213114Y102008D01*
X212679Y102659D01*
X212028Y103094D01*
X211260Y103247D01*
X210492Y103094D01*
X210362Y103008D01*
X209862Y103275D01*
Y104193D01*
D02*
G37*
G36*
X188402Y61689D02*
X184752D01*
Y59220D01*
X188402D01*
Y61689D01*
D02*
G37*
G36*
X208949D02*
X205299D01*
Y59220D01*
X208949D01*
Y61689D01*
D02*
G37*
G36*
Y58220D02*
X205299D01*
Y55752D01*
X208949D01*
Y58220D01*
D02*
G37*
G36*
X188402D02*
X184752D01*
Y55752D01*
X188402D01*
Y58220D01*
D02*
G37*
G36*
X188386Y46713D02*
X180118D01*
Y40807D01*
X188386D01*
Y46713D01*
D02*
G37*
G36*
X170787Y42677D02*
X162913D01*
Y34803D01*
X170787D01*
Y42677D01*
D02*
G37*
G36*
X170803Y32693D02*
X167350D01*
Y29240D01*
X170803D01*
Y32693D01*
D02*
G37*
G36*
X166350D02*
X162898D01*
Y29240D01*
X166350D01*
Y32693D01*
D02*
G37*
G36*
X230803D02*
X227350D01*
Y29240D01*
X230803D01*
Y32693D01*
D02*
G37*
G36*
X226350D02*
X222898D01*
Y29240D01*
X226350D01*
Y32693D01*
D02*
G37*
G36*
X230803Y28240D02*
X227350D01*
Y24787D01*
X230803D01*
Y28240D01*
D02*
G37*
G36*
X226350D02*
X222898D01*
Y24787D01*
X226350D01*
Y28240D01*
D02*
G37*
G36*
X170803Y28240D02*
X167350D01*
Y24787D01*
X170803D01*
Y28240D01*
D02*
G37*
G36*
X166350D02*
X162898D01*
Y24787D01*
X166350D01*
Y28240D01*
D02*
G37*
G36*
X215819Y23090D02*
X213350D01*
Y20622D01*
X215819D01*
Y23090D01*
D02*
G37*
G36*
X227319Y19858D02*
X224850D01*
Y17587D01*
X227319D01*
Y19858D01*
D02*
G37*
G36*
X223850D02*
X221382D01*
Y17587D01*
X223850D01*
Y19858D01*
D02*
G37*
G36*
X227319Y16587D02*
X224850D01*
Y14315D01*
X227319D01*
Y16587D01*
D02*
G37*
G36*
X223850D02*
X221382D01*
Y14315D01*
X223850D01*
Y16587D01*
D02*
G37*
G36*
X231850Y23247D02*
X231082Y23095D01*
X230431Y22659D01*
X229996Y22008D01*
X229843Y21240D01*
X229996Y20472D01*
X230246Y20098D01*
X230146Y19632D01*
X230110Y19551D01*
X229676Y19261D01*
X229371Y18805D01*
X229264Y18268D01*
Y15905D01*
X229371Y15368D01*
X229676Y14912D01*
X229882Y14774D01*
Y12745D01*
X227303D01*
Y13150D01*
X221398D01*
Y7638D01*
X227303D01*
Y9735D01*
X229264D01*
Y9213D01*
X229371Y8675D01*
X229676Y8219D01*
X230132Y7915D01*
X230669Y7808D01*
X233032D01*
X233569Y7915D01*
X234025Y8219D01*
X234330Y8675D01*
X234436Y9213D01*
Y11575D01*
X234330Y12112D01*
X234025Y12568D01*
X233819Y12706D01*
Y14774D01*
X234025Y14912D01*
X234330Y15368D01*
X234436Y15905D01*
Y18268D01*
X234330Y18805D01*
X234025Y19261D01*
X233591Y19551D01*
X233555Y19632D01*
X233455Y20098D01*
X233705Y20472D01*
X233857Y21240D01*
X233705Y22008D01*
X233270Y22659D01*
X232618Y23095D01*
X231850Y23247D01*
D02*
G37*
G36*
X205771Y8240D02*
X202350D01*
Y4819D01*
X202882Y4889D01*
X203844Y5287D01*
X204669Y5921D01*
X205303Y6747D01*
X205701Y7708D01*
X205771Y8240D01*
D02*
G37*
G36*
X201350D02*
X197929D01*
X197999Y7708D01*
X198398Y6747D01*
X199031Y5921D01*
X199857Y5287D01*
X200818Y4889D01*
X201350Y4819D01*
Y8240D01*
D02*
G37*
G36*
X180850Y23740D02*
X162850Y23740D01*
X160850Y21740D01*
Y4740D01*
X162850Y2740D01*
X180850Y2740D01*
X182850Y4740D01*
X182850Y21740D01*
X180850Y23740D01*
D02*
G37*
%LPD*%
G36*
X210828Y87347D02*
X206876Y83395D01*
X202756D01*
X202180Y83280D01*
X202161Y83268D01*
X201394D01*
Y83284D01*
X201378D01*
Y84145D01*
X201391Y84164D01*
X201505Y84740D01*
Y86266D01*
X203048Y87809D01*
X210637D01*
X210828Y87347D01*
D02*
G37*
%LPC*%
G36*
X109661Y134189D02*
X106012D01*
Y131720D01*
X109661D01*
Y134189D01*
D02*
G37*
G36*
X134858D02*
X131209D01*
Y131720D01*
X134858D01*
Y134189D01*
D02*
G37*
G36*
X130209D02*
X126559D01*
Y131720D01*
X130209D01*
Y134189D01*
D02*
G37*
G36*
X105012D02*
X101362D01*
Y131720D01*
X105012D01*
Y134189D01*
D02*
G37*
G36*
X134858Y130720D02*
X131209D01*
Y128252D01*
X134858D01*
Y130720D01*
D02*
G37*
G36*
X130209D02*
X126559D01*
Y128252D01*
X130209D01*
Y130720D01*
D02*
G37*
G36*
X109661D02*
X106012D01*
Y128252D01*
X109661D01*
Y130720D01*
D02*
G37*
G36*
X105012D02*
X101362D01*
Y128252D01*
X105012D01*
Y130720D01*
D02*
G37*
G36*
X134843Y119213D02*
X126575D01*
Y113307D01*
X134843D01*
Y119213D01*
D02*
G37*
G36*
X152047Y132677D02*
X144173D01*
Y126932D01*
X136046Y118805D01*
X135720Y118316D01*
X135605Y117740D01*
Y111817D01*
X135613Y111778D01*
X135605Y111740D01*
Y110442D01*
X131122D01*
Y111693D01*
X125610D01*
Y105787D01*
X131122D01*
Y107432D01*
X135605D01*
Y98467D01*
X131782Y94644D01*
X122009D01*
X121433Y94530D01*
X120945Y94204D01*
X117049Y90308D01*
X116562Y90266D01*
X116127Y90701D01*
X115639Y91027D01*
X115063Y91141D01*
X112838D01*
X104615Y99364D01*
Y102740D01*
X104501Y103316D01*
X104175Y103805D01*
X98615Y109364D01*
Y114755D01*
X101378D01*
Y113307D01*
X109646D01*
Y119213D01*
X101378D01*
Y117765D01*
X98615D01*
Y119938D01*
X98501Y120514D01*
X98175Y121003D01*
X92047Y127130D01*
Y132677D01*
X84173D01*
Y124803D01*
X90117D01*
X91743Y123177D01*
X91536Y122677D01*
X84173D01*
Y114803D01*
X92047D01*
Y114803D01*
X92310Y114912D01*
X93105Y114117D01*
Y108740D01*
X93220Y108164D01*
X93546Y107676D01*
X99105Y102117D01*
Y98740D01*
X99220Y98164D01*
X99546Y97676D01*
X110225Y86997D01*
X110713Y86671D01*
X111289Y86556D01*
X113166D01*
X113455Y86266D01*
Y84646D01*
X113570Y84070D01*
X113583Y84051D01*
Y83284D01*
X113567D01*
Y83268D01*
X112049D01*
X112030Y83280D01*
X111453Y83395D01*
X110584D01*
X96116Y97864D01*
Y102240D01*
X96001Y102816D01*
X95675Y103305D01*
X92047Y106932D01*
Y112677D01*
X84173D01*
Y104803D01*
X89918D01*
X91583Y103139D01*
X91391Y102677D01*
X84173D01*
Y94803D01*
X92047D01*
Y94803D01*
X92310Y94912D01*
X106514Y80707D01*
X106323Y80246D01*
X103734D01*
X94175Y89805D01*
X93686Y90131D01*
X93110Y90245D01*
X92047D01*
Y92677D01*
X84173D01*
Y84803D01*
X92047D01*
Y87089D01*
X92547Y87174D01*
X100589Y79133D01*
X100398Y78671D01*
X97809D01*
X96675Y79805D01*
X96186Y80131D01*
X95610Y80246D01*
X92047D01*
Y82677D01*
X84173D01*
Y74803D01*
X92047D01*
Y77235D01*
X94987D01*
X96121Y76101D01*
X96609Y75775D01*
X96776Y75741D01*
X96940Y75199D01*
X93339Y71598D01*
X92047D01*
Y72677D01*
X84173D01*
Y64803D01*
X92047D01*
Y68587D01*
X93963D01*
X94539Y68702D01*
X95027Y69028D01*
X100084Y74085D01*
X112205D01*
X112781Y74200D01*
X112800Y74213D01*
X113567D01*
Y74197D01*
X113583D01*
Y73430D01*
X113570Y73411D01*
X113455Y72835D01*
Y70941D01*
X113260Y70745D01*
X99610D01*
X99034Y70631D01*
X98546Y70305D01*
X90947Y62706D01*
X90571D01*
X90425Y62677D01*
X84173D01*
Y54803D01*
X91459D01*
X91544Y54303D01*
X89918Y52677D01*
X84173D01*
Y44803D01*
X91236D01*
X93764Y42276D01*
Y35081D01*
X93878Y34505D01*
X94205Y34017D01*
X109148Y19073D01*
X109180Y19052D01*
X109139Y18740D01*
X109275Y17712D01*
X109671Y16755D01*
X110302Y15932D01*
X111125Y15301D01*
X112083Y14905D01*
X113110Y14769D01*
X114138Y14905D01*
X115096Y15301D01*
X115918Y15932D01*
X116549Y16755D01*
X116946Y17712D01*
X117081Y18740D01*
X116946Y19768D01*
X116549Y20726D01*
X115918Y21548D01*
X115096Y22179D01*
X114138Y22576D01*
X113110Y22711D01*
X112083Y22576D01*
X111125Y22179D01*
X110658Y21821D01*
X96774Y35705D01*
Y36794D01*
X97236Y36985D01*
X99046Y35176D01*
X99534Y34850D01*
X100110Y34735D01*
X105410D01*
X109173Y30971D01*
Y24803D01*
X117047D01*
Y32677D01*
X111721D01*
X111714Y32688D01*
X107098Y37305D01*
X106609Y37631D01*
X106033Y37745D01*
X100734D01*
X99116Y39364D01*
Y46740D01*
X99001Y47316D01*
X98675Y47805D01*
X97115Y49364D01*
Y51453D01*
X97578Y51644D01*
X100046Y49176D01*
X100534Y48849D01*
X101110Y48735D01*
X109487D01*
X118046Y40176D01*
X118534Y39849D01*
X119110Y39735D01*
X123487D01*
X126105Y37117D01*
Y32035D01*
X125605Y31788D01*
X125096Y32179D01*
X124138Y32576D01*
X123110Y32711D01*
X122082Y32576D01*
X121125Y32179D01*
X120302Y31548D01*
X119671Y30726D01*
X119275Y29768D01*
X119139Y28740D01*
X119275Y27712D01*
X119671Y26755D01*
X120302Y25932D01*
X121125Y25301D01*
X122082Y24904D01*
X123110Y24769D01*
X124138Y24904D01*
X125096Y25301D01*
X125605Y25692D01*
X126105Y25445D01*
Y23364D01*
X124972Y22230D01*
X124138Y22576D01*
X123110Y22711D01*
X122082Y22576D01*
X121125Y22179D01*
X120302Y21548D01*
X119671Y20726D01*
X119275Y19768D01*
X119139Y18740D01*
X119275Y17712D01*
X119671Y16755D01*
X120302Y15932D01*
X120546Y15745D01*
X120376Y15245D01*
X118110D01*
X117534Y15131D01*
X117046Y14805D01*
X114618Y12377D01*
X114138Y12576D01*
X113110Y12711D01*
X112083Y12576D01*
X111125Y12179D01*
X110302Y11548D01*
X109671Y10726D01*
X109275Y9768D01*
X109139Y8740D01*
X109275Y7712D01*
X109671Y6755D01*
X110302Y5932D01*
X111125Y5301D01*
X112083Y4905D01*
X113110Y4769D01*
X114138Y4905D01*
X115096Y5301D01*
X115918Y5932D01*
X116549Y6755D01*
X116946Y7712D01*
X117081Y8740D01*
X116946Y9768D01*
X116747Y10248D01*
X118734Y12235D01*
X120350D01*
X120520Y11735D01*
X120291Y11559D01*
X119658Y10734D01*
X119259Y9772D01*
X119189Y9240D01*
X123110D01*
X127031D01*
X126961Y9772D01*
X126563Y10734D01*
X125929Y11559D01*
X125681Y11750D01*
X125817Y12276D01*
X126186Y12349D01*
X126675Y12676D01*
X131175Y17176D01*
X131501Y17664D01*
X131615Y18240D01*
Y20622D01*
X133610D01*
Y23591D01*
X134110D01*
Y24091D01*
X137079D01*
Y26443D01*
X137079Y26559D01*
X137079D01*
X137063Y26937D01*
X137063D01*
Y32842D01*
X135904D01*
X135636Y33342D01*
X135733Y33487D01*
X135885Y34255D01*
X135733Y35023D01*
X135298Y35674D01*
X134646Y36109D01*
X133878Y36262D01*
X133110Y36109D01*
X132588Y35760D01*
X131615D01*
Y40807D01*
X134843D01*
Y46713D01*
X126575D01*
Y45265D01*
X120714D01*
X112175Y53805D01*
X111686Y54131D01*
X111110Y54246D01*
X102734D01*
X102115Y54864D01*
Y55752D01*
X105012D01*
Y58720D01*
Y61689D01*
X102115D01*
Y62450D01*
X102464Y62972D01*
X102617Y63740D01*
X102464Y64508D01*
X102029Y65159D01*
X101917Y65235D01*
X102068Y65735D01*
X114110D01*
X114686Y65850D01*
X115175Y66176D01*
X117600Y68601D01*
X117694Y68742D01*
X118218Y68625D01*
X118294Y68239D01*
X118621Y67751D01*
X119220Y67151D01*
X119256Y66972D01*
X119691Y66321D01*
X120342Y65886D01*
X121054Y65744D01*
X121122Y65676D01*
X121611Y65350D01*
X122187Y65235D01*
X128715D01*
X131799Y62151D01*
X131607Y61689D01*
X131209D01*
Y58720D01*
Y55752D01*
X134858D01*
Y58438D01*
X135320Y58629D01*
X136605Y57345D01*
Y48740D01*
X136720Y48164D01*
X137046Y47676D01*
X141605Y43117D01*
Y41240D01*
X141719Y40664D01*
X142046Y40176D01*
X143193Y39028D01*
X143682Y38702D01*
X144173Y38604D01*
Y34803D01*
X152047D01*
Y42677D01*
X144615D01*
Y43740D01*
X144503Y44303D01*
X144489Y44393D01*
X144776Y44803D01*
X152047D01*
Y52677D01*
X148454D01*
X148110Y52745D01*
X145734D01*
X144176Y54303D01*
X144383Y54803D01*
X144586Y54803D01*
X152047D01*
Y62677D01*
X144173D01*
Y60392D01*
X143673Y60306D01*
X137206Y66773D01*
X137398Y67235D01*
X144173D01*
Y64803D01*
X152047D01*
Y72677D01*
X144173D01*
Y70245D01*
X136734D01*
X130206Y76773D01*
X130398Y77235D01*
X144173D01*
Y74803D01*
X152047D01*
Y82677D01*
X144173D01*
Y80246D01*
X132898D01*
X132706Y80707D01*
X137881Y85882D01*
X144173D01*
Y84803D01*
X152047D01*
Y92677D01*
X144173D01*
Y88893D01*
X138545D01*
X138354Y89355D01*
X143911Y94912D01*
X144173Y94803D01*
Y94803D01*
X152047D01*
Y102677D01*
X144173D01*
Y98876D01*
X143682Y98778D01*
X143615Y98734D01*
X143115Y99001D01*
Y104117D01*
X143911Y104912D01*
X144173Y104803D01*
Y104803D01*
X152047D01*
Y112677D01*
X144617D01*
X144383Y112677D01*
X144176Y113177D01*
X145802Y114803D01*
X152047D01*
Y122677D01*
X144829D01*
X144638Y123139D01*
X146302Y124803D01*
X152047D01*
Y132677D01*
D02*
G37*
G36*
X124429Y111693D02*
X118917D01*
Y111318D01*
X118417Y111058D01*
X118175Y111219D01*
X117638Y111326D01*
X115276D01*
X114738Y111219D01*
X114282Y110915D01*
X114145Y110709D01*
X112076D01*
X111938Y110915D01*
X111483Y111219D01*
X110945Y111326D01*
X108583D01*
X108045Y111219D01*
X107589Y110915D01*
X107285Y110459D01*
X107178Y109921D01*
Y107559D01*
X107285Y107021D01*
X107589Y106566D01*
X108045Y106261D01*
X108258Y106219D01*
Y103762D01*
X108045Y103719D01*
X107589Y103415D01*
X107285Y102959D01*
X107178Y102421D01*
Y100059D01*
X107285Y99521D01*
X107589Y99066D01*
X108045Y98761D01*
X108583Y98654D01*
X108999D01*
X109065Y98318D01*
X109392Y97830D01*
X112046Y95176D01*
X112534Y94849D01*
X113110Y94735D01*
X116820D01*
X117342Y94386D01*
X118110Y94233D01*
X118878Y94386D01*
X119529Y94821D01*
X119965Y95472D01*
X120117Y96240D01*
X119965Y97008D01*
X119529Y97659D01*
X119338Y97787D01*
X119490Y98287D01*
X124429D01*
Y104193D01*
X118917D01*
Y103818D01*
X118417Y103558D01*
X118175Y103719D01*
X117638Y103826D01*
X115276D01*
X114738Y103719D01*
X114282Y103415D01*
X114145Y103209D01*
X112076D01*
X111938Y103415D01*
X111483Y103719D01*
X111269Y103762D01*
Y106219D01*
X111483Y106261D01*
X111938Y106566D01*
X112076Y106772D01*
X114145D01*
X114282Y106566D01*
X114738Y106261D01*
X115276Y106154D01*
X117638D01*
X118175Y106261D01*
X118417Y106423D01*
X118917Y106162D01*
Y105787D01*
X124429D01*
Y111693D01*
D02*
G37*
G36*
X131122Y104193D02*
X125610D01*
Y98287D01*
X131122D01*
Y99205D01*
X131622Y99472D01*
X131752Y99386D01*
X132520Y99233D01*
X133288Y99386D01*
X133939Y99821D01*
X134374Y100472D01*
X134527Y101240D01*
X134374Y102008D01*
X133939Y102659D01*
X133288Y103094D01*
X132520Y103247D01*
X131752Y103094D01*
X131622Y103008D01*
X131122Y103275D01*
Y104193D01*
D02*
G37*
G36*
X109661Y61689D02*
X106012D01*
Y59220D01*
X109661D01*
Y61689D01*
D02*
G37*
G36*
X130209D02*
X126559D01*
Y59220D01*
X130209D01*
Y61689D01*
D02*
G37*
G36*
Y58220D02*
X126559D01*
Y55752D01*
X130209D01*
Y58220D01*
D02*
G37*
G36*
X109661D02*
X106012D01*
Y55752D01*
X109661D01*
Y58220D01*
D02*
G37*
G36*
X109646Y46713D02*
X101378D01*
Y40807D01*
X109646D01*
Y46713D01*
D02*
G37*
G36*
X92047Y42677D02*
X84173D01*
Y34803D01*
X92047D01*
Y42677D01*
D02*
G37*
G36*
X92063Y32693D02*
X88610D01*
Y29240D01*
X92063D01*
Y32693D01*
D02*
G37*
G36*
X87610D02*
X84158D01*
Y29240D01*
X87610D01*
Y32693D01*
D02*
G37*
G36*
X152063D02*
X148610D01*
Y29240D01*
X152063D01*
Y32693D01*
D02*
G37*
G36*
X147610D02*
X144158D01*
Y29240D01*
X147610D01*
Y32693D01*
D02*
G37*
G36*
X152063Y28240D02*
X148610D01*
Y24787D01*
X152063D01*
Y28240D01*
D02*
G37*
G36*
X147610D02*
X144158D01*
Y24787D01*
X147610D01*
Y28240D01*
D02*
G37*
G36*
X92063Y28240D02*
X88610D01*
Y24787D01*
X92063D01*
Y28240D01*
D02*
G37*
G36*
X87610D02*
X84158D01*
Y24787D01*
X87610D01*
Y28240D01*
D02*
G37*
G36*
X137079Y23090D02*
X134610D01*
Y20622D01*
X137079D01*
Y23090D01*
D02*
G37*
G36*
X148579Y19858D02*
X146110D01*
Y17587D01*
X148579D01*
Y19858D01*
D02*
G37*
G36*
X145110D02*
X142642D01*
Y17587D01*
X145110D01*
Y19858D01*
D02*
G37*
G36*
X148579Y16587D02*
X146110D01*
Y14315D01*
X148579D01*
Y16587D01*
D02*
G37*
G36*
X145110D02*
X142642D01*
Y14315D01*
X145110D01*
Y16587D01*
D02*
G37*
G36*
X153110Y23247D02*
X152342Y23095D01*
X151691Y22659D01*
X151256Y22008D01*
X151103Y21240D01*
X151256Y20472D01*
X151506Y20098D01*
X151406Y19632D01*
X151370Y19551D01*
X150936Y19261D01*
X150631Y18805D01*
X150524Y18268D01*
Y15905D01*
X150631Y15368D01*
X150936Y14912D01*
X151142Y14774D01*
Y12745D01*
X148563D01*
Y13150D01*
X142657D01*
Y7638D01*
X148563D01*
Y9735D01*
X150524D01*
Y9213D01*
X150631Y8675D01*
X150936Y8219D01*
X151391Y7915D01*
X151929Y7808D01*
X154291D01*
X154829Y7915D01*
X155285Y8219D01*
X155589Y8675D01*
X155696Y9213D01*
Y11575D01*
X155589Y12112D01*
X155285Y12568D01*
X155079Y12706D01*
Y14774D01*
X155285Y14912D01*
X155589Y15368D01*
X155696Y15905D01*
Y18268D01*
X155589Y18805D01*
X155285Y19261D01*
X154851Y19551D01*
X154815Y19632D01*
X154715Y20098D01*
X154964Y20472D01*
X155117Y21240D01*
X154964Y22008D01*
X154529Y22659D01*
X153878Y23095D01*
X153110Y23247D01*
D02*
G37*
G36*
X127031Y8240D02*
X123610D01*
Y4819D01*
X124142Y4889D01*
X125104Y5287D01*
X125929Y5921D01*
X126563Y6747D01*
X126961Y7708D01*
X127031Y8240D01*
D02*
G37*
G36*
X122610D02*
X119189D01*
X119259Y7708D01*
X119658Y6747D01*
X120291Y5921D01*
X121117Y5287D01*
X122078Y4889D01*
X122610Y4819D01*
Y8240D01*
D02*
G37*
G36*
X102110Y23740D02*
X84110Y23740D01*
X82110Y21740D01*
Y4740D01*
X84110Y2740D01*
X102110Y2740D01*
X104110Y4740D01*
X104110Y21740D01*
X102110Y23740D01*
D02*
G37*
%LPD*%
G36*
X132088Y87347D02*
X128136Y83395D01*
X124016D01*
X123440Y83280D01*
X123421Y83268D01*
X122653D01*
Y83284D01*
X122638D01*
Y84145D01*
X122651Y84164D01*
X122765Y84740D01*
Y86266D01*
X124308Y87809D01*
X131897D01*
X132088Y87347D01*
D02*
G37*
%LPC*%
G36*
X30921Y134189D02*
X27272D01*
Y131720D01*
X30921D01*
Y134189D01*
D02*
G37*
G36*
X56118D02*
X52469D01*
Y131720D01*
X56118D01*
Y134189D01*
D02*
G37*
G36*
X51468D02*
X47819D01*
Y131720D01*
X51468D01*
Y134189D01*
D02*
G37*
G36*
X26272D02*
X22622D01*
Y131720D01*
X26272D01*
Y134189D01*
D02*
G37*
G36*
X56118Y130720D02*
X52469D01*
Y128252D01*
X56118D01*
Y130720D01*
D02*
G37*
G36*
X51468D02*
X47819D01*
Y128252D01*
X51468D01*
Y130720D01*
D02*
G37*
G36*
X30921D02*
X27272D01*
Y128252D01*
X30921D01*
Y130720D01*
D02*
G37*
G36*
X26272D02*
X22622D01*
Y128252D01*
X26272D01*
Y130720D01*
D02*
G37*
G36*
X56102Y119213D02*
X47835D01*
Y113307D01*
X56102D01*
Y119213D01*
D02*
G37*
G36*
X73307Y132677D02*
X65433D01*
Y126932D01*
X57306Y118805D01*
X56979Y118316D01*
X56865Y117740D01*
Y111817D01*
X56872Y111778D01*
X56865Y111740D01*
Y110442D01*
X52382D01*
Y111693D01*
X46870D01*
Y105787D01*
X52382D01*
Y107432D01*
X56865D01*
Y98467D01*
X53042Y94644D01*
X43269D01*
X42693Y94530D01*
X42205Y94204D01*
X38309Y90308D01*
X37822Y90266D01*
X37387Y90701D01*
X36899Y91027D01*
X36323Y91141D01*
X34098D01*
X25875Y99364D01*
Y102740D01*
X25761Y103316D01*
X25434Y103805D01*
X19875Y109364D01*
Y114755D01*
X22638D01*
Y113307D01*
X30906D01*
Y119213D01*
X22638D01*
Y117765D01*
X19875D01*
Y119938D01*
X19761Y120514D01*
X19434Y121003D01*
X13307Y127130D01*
Y132677D01*
X5433D01*
Y124803D01*
X11376D01*
X13002Y123177D01*
X12795Y122677D01*
X5433D01*
Y114803D01*
X13307D01*
Y114803D01*
X13570Y114912D01*
X14365Y114117D01*
Y108740D01*
X14479Y108164D01*
X14806Y107676D01*
X20365Y102117D01*
Y98740D01*
X20479Y98164D01*
X20806Y97676D01*
X31485Y86997D01*
X31973Y86671D01*
X32549Y86556D01*
X34426D01*
X34715Y86266D01*
Y84646D01*
X34830Y84070D01*
X34843Y84051D01*
Y83284D01*
X34827D01*
Y83268D01*
X33309D01*
X33289Y83280D01*
X32713Y83395D01*
X31844D01*
X17375Y97864D01*
Y102240D01*
X17261Y102816D01*
X16935Y103305D01*
X13307Y106932D01*
Y112677D01*
X5433D01*
Y104803D01*
X11178D01*
X12842Y103139D01*
X12651Y102677D01*
X5433D01*
Y94803D01*
X13307D01*
Y94803D01*
X13570Y94912D01*
X27774Y80707D01*
X27583Y80246D01*
X24994D01*
X15435Y89805D01*
X14946Y90131D01*
X14370Y90245D01*
X13307D01*
Y92677D01*
X5433D01*
Y84803D01*
X13307D01*
Y87089D01*
X13807Y87174D01*
X21849Y79133D01*
X21657Y78671D01*
X19068D01*
X17934Y79805D01*
X17446Y80131D01*
X16870Y80246D01*
X13307D01*
Y82677D01*
X5433D01*
Y74803D01*
X13307D01*
Y77235D01*
X16247D01*
X17380Y76101D01*
X17869Y75775D01*
X18035Y75741D01*
X18200Y75199D01*
X14599Y71598D01*
X13307D01*
Y72677D01*
X5433D01*
Y64803D01*
X13307D01*
Y68587D01*
X15223D01*
X15799Y68702D01*
X16287Y69028D01*
X21344Y74085D01*
X33465D01*
X34041Y74200D01*
X34060Y74213D01*
X34827D01*
Y74197D01*
X34843D01*
Y73430D01*
X34830Y73411D01*
X34715Y72835D01*
Y70941D01*
X34519Y70745D01*
X20870D01*
X20294Y70631D01*
X19806Y70305D01*
X12207Y62706D01*
X11831D01*
X11685Y62677D01*
X5433D01*
Y54803D01*
X12719D01*
X12804Y54303D01*
X11178Y52677D01*
X5433D01*
Y44803D01*
X12496D01*
X15024Y42276D01*
Y35081D01*
X15138Y34505D01*
X15465Y34017D01*
X30408Y19073D01*
X30440Y19052D01*
X30399Y18740D01*
X30534Y17712D01*
X30931Y16755D01*
X31562Y15932D01*
X32385Y15301D01*
X33342Y14905D01*
X34370Y14769D01*
X35398Y14905D01*
X36356Y15301D01*
X37178Y15932D01*
X37809Y16755D01*
X38206Y17712D01*
X38341Y18740D01*
X38206Y19768D01*
X37809Y20726D01*
X37178Y21548D01*
X36356Y22179D01*
X35398Y22576D01*
X34370Y22711D01*
X33342Y22576D01*
X32385Y22179D01*
X31918Y21821D01*
X18034Y35705D01*
Y36794D01*
X18496Y36985D01*
X20306Y35176D01*
X20794Y34850D01*
X21370Y34735D01*
X26670D01*
X30433Y30971D01*
Y24803D01*
X38307D01*
Y32677D01*
X32981D01*
X32974Y32688D01*
X28358Y37305D01*
X27869Y37631D01*
X27293Y37745D01*
X21994D01*
X20375Y39364D01*
Y46740D01*
X20261Y47316D01*
X19934Y47805D01*
X18375Y49364D01*
Y51453D01*
X18837Y51644D01*
X21306Y49176D01*
X21794Y48849D01*
X22370Y48735D01*
X30747D01*
X39306Y40176D01*
X39794Y39849D01*
X40370Y39735D01*
X44747D01*
X47365Y37117D01*
Y32035D01*
X46865Y31788D01*
X46356Y32179D01*
X45398Y32576D01*
X44370Y32711D01*
X43342Y32576D01*
X42385Y32179D01*
X41562Y31548D01*
X40931Y30726D01*
X40534Y29768D01*
X40399Y28740D01*
X40534Y27712D01*
X40931Y26755D01*
X41562Y25932D01*
X42385Y25301D01*
X43342Y24904D01*
X44370Y24769D01*
X45398Y24904D01*
X46356Y25301D01*
X46865Y25692D01*
X47365Y25445D01*
Y23364D01*
X46232Y22230D01*
X45398Y22576D01*
X44370Y22711D01*
X43342Y22576D01*
X42385Y22179D01*
X41562Y21548D01*
X40931Y20726D01*
X40534Y19768D01*
X40399Y18740D01*
X40534Y17712D01*
X40931Y16755D01*
X41562Y15932D01*
X41806Y15745D01*
X41636Y15245D01*
X39370D01*
X38794Y15131D01*
X38306Y14805D01*
X35878Y12377D01*
X35398Y12576D01*
X34370Y12711D01*
X33342Y12576D01*
X32385Y12179D01*
X31562Y11548D01*
X30931Y10726D01*
X30534Y9768D01*
X30399Y8740D01*
X30534Y7712D01*
X30931Y6755D01*
X31562Y5932D01*
X32385Y5301D01*
X33342Y4905D01*
X34370Y4769D01*
X35398Y4905D01*
X36356Y5301D01*
X37178Y5932D01*
X37809Y6755D01*
X38206Y7712D01*
X38341Y8740D01*
X38206Y9768D01*
X38007Y10248D01*
X39994Y12235D01*
X41610D01*
X41780Y11735D01*
X41551Y11559D01*
X40917Y10734D01*
X40519Y9772D01*
X40449Y9240D01*
X44370D01*
X48291D01*
X48221Y9772D01*
X47823Y10734D01*
X47189Y11559D01*
X46941Y11750D01*
X47077Y12276D01*
X47446Y12349D01*
X47934Y12676D01*
X52434Y17176D01*
X52761Y17664D01*
X52875Y18240D01*
Y20622D01*
X54870D01*
Y23591D01*
X55370D01*
Y24091D01*
X58339D01*
Y26443D01*
X58339Y26559D01*
X58339D01*
X58323Y26937D01*
X58323D01*
Y32842D01*
X57163D01*
X56896Y33342D01*
X56992Y33487D01*
X57145Y34255D01*
X56992Y35023D01*
X56557Y35674D01*
X55906Y36109D01*
X55138Y36262D01*
X54370Y36109D01*
X53848Y35760D01*
X52875D01*
Y40807D01*
X56102D01*
Y46713D01*
X47835D01*
Y45265D01*
X41974D01*
X33435Y53805D01*
X32946Y54131D01*
X32370Y54246D01*
X23994D01*
X23375Y54864D01*
Y55752D01*
X26272D01*
Y58720D01*
Y61689D01*
X23375D01*
Y62450D01*
X23724Y62972D01*
X23877Y63740D01*
X23724Y64508D01*
X23289Y65159D01*
X23176Y65235D01*
X23328Y65735D01*
X35370D01*
X35946Y65850D01*
X36435Y66176D01*
X38860Y68601D01*
X38954Y68742D01*
X39477Y68625D01*
X39554Y68239D01*
X39880Y67751D01*
X40480Y67151D01*
X40516Y66972D01*
X40951Y66321D01*
X41602Y65886D01*
X42314Y65744D01*
X42382Y65676D01*
X42871Y65350D01*
X43447Y65235D01*
X49975D01*
X53058Y62151D01*
X52867Y61689D01*
X52469D01*
Y58720D01*
Y55752D01*
X56118D01*
Y58438D01*
X56580Y58629D01*
X57865Y57345D01*
Y48740D01*
X57979Y48164D01*
X58306Y47676D01*
X62865Y43117D01*
Y41240D01*
X62979Y40664D01*
X63306Y40176D01*
X64453Y39028D01*
X64942Y38702D01*
X65433Y38604D01*
Y34803D01*
X73307D01*
Y42677D01*
X65875D01*
Y43740D01*
X65763Y44303D01*
X65749Y44393D01*
X66036Y44803D01*
X73307D01*
Y52677D01*
X69713D01*
X69370Y52745D01*
X66994D01*
X65436Y54303D01*
X65643Y54803D01*
X65846Y54803D01*
X73307D01*
Y62677D01*
X65433D01*
Y60392D01*
X64933Y60306D01*
X58466Y66773D01*
X58657Y67235D01*
X65433D01*
Y64803D01*
X73307D01*
Y72677D01*
X65433D01*
Y70245D01*
X57994D01*
X51466Y76773D01*
X51657Y77235D01*
X65433D01*
Y74803D01*
X73307D01*
Y82677D01*
X65433D01*
Y80246D01*
X54158D01*
X53966Y80707D01*
X59141Y85882D01*
X65433D01*
Y84803D01*
X73307D01*
Y92677D01*
X65433D01*
Y88893D01*
X59805D01*
X59614Y89355D01*
X65171Y94912D01*
X65433Y94803D01*
Y94803D01*
X73307D01*
Y102677D01*
X65433D01*
Y98876D01*
X64941Y98778D01*
X64875Y98734D01*
X64375Y99001D01*
Y104117D01*
X65171Y104912D01*
X65433Y104803D01*
Y104803D01*
X73307D01*
Y112677D01*
X65876D01*
X65643Y112677D01*
X65436Y113177D01*
X67062Y114803D01*
X73307D01*
Y122677D01*
X66089D01*
X65898Y123139D01*
X67562Y124803D01*
X73307D01*
Y132677D01*
D02*
G37*
G36*
X45689Y111693D02*
X40177D01*
Y111318D01*
X39677Y111058D01*
X39435Y111219D01*
X38898Y111326D01*
X36535D01*
X35998Y111219D01*
X35542Y110915D01*
X35404Y110709D01*
X33336D01*
X33198Y110915D01*
X32742Y111219D01*
X32205Y111326D01*
X29842D01*
X29305Y111219D01*
X28849Y110915D01*
X28545Y110459D01*
X28438Y109921D01*
Y107559D01*
X28545Y107021D01*
X28849Y106566D01*
X29305Y106261D01*
X29518Y106219D01*
Y103762D01*
X29305Y103719D01*
X28849Y103415D01*
X28545Y102959D01*
X28438Y102421D01*
Y100059D01*
X28545Y99521D01*
X28849Y99066D01*
X29305Y98761D01*
X29842Y98654D01*
X30259D01*
X30325Y98318D01*
X30652Y97830D01*
X33306Y95176D01*
X33794Y94849D01*
X34370Y94735D01*
X38080D01*
X38602Y94386D01*
X39370Y94233D01*
X40138Y94386D01*
X40789Y94821D01*
X41224Y95472D01*
X41377Y96240D01*
X41224Y97008D01*
X40789Y97659D01*
X40598Y97787D01*
X40749Y98287D01*
X45689D01*
Y104193D01*
X40177D01*
Y103818D01*
X39677Y103558D01*
X39435Y103719D01*
X38898Y103826D01*
X36535D01*
X35998Y103719D01*
X35542Y103415D01*
X35404Y103209D01*
X33336D01*
X33198Y103415D01*
X32742Y103719D01*
X32529Y103762D01*
Y106219D01*
X32742Y106261D01*
X33198Y106566D01*
X33336Y106772D01*
X35404D01*
X35542Y106566D01*
X35998Y106261D01*
X36535Y106154D01*
X38898D01*
X39435Y106261D01*
X39677Y106423D01*
X40177Y106162D01*
Y105787D01*
X45689D01*
Y111693D01*
D02*
G37*
G36*
X52382Y104193D02*
X46870D01*
Y98287D01*
X52382D01*
Y99205D01*
X52882Y99472D01*
X53012Y99386D01*
X53780Y99233D01*
X54548Y99386D01*
X55199Y99821D01*
X55634Y100472D01*
X55787Y101240D01*
X55634Y102008D01*
X55199Y102659D01*
X54548Y103094D01*
X53780Y103247D01*
X53012Y103094D01*
X52882Y103008D01*
X52382Y103275D01*
Y104193D01*
D02*
G37*
G36*
X30921Y61689D02*
X27272D01*
Y59220D01*
X30921D01*
Y61689D01*
D02*
G37*
G36*
X51468D02*
X47819D01*
Y59220D01*
X51468D01*
Y61689D01*
D02*
G37*
G36*
Y58220D02*
X47819D01*
Y55752D01*
X51468D01*
Y58220D01*
D02*
G37*
G36*
X30921D02*
X27272D01*
Y55752D01*
X30921D01*
Y58220D01*
D02*
G37*
G36*
X30906Y46713D02*
X22638D01*
Y40807D01*
X30906D01*
Y46713D01*
D02*
G37*
G36*
X13307Y42677D02*
X5433D01*
Y34803D01*
X13307D01*
Y42677D01*
D02*
G37*
G36*
X13323Y32693D02*
X9870D01*
Y29240D01*
X13323D01*
Y32693D01*
D02*
G37*
G36*
X8870D02*
X5417D01*
Y29240D01*
X8870D01*
Y32693D01*
D02*
G37*
G36*
X73323D02*
X69870D01*
Y29240D01*
X73323D01*
Y32693D01*
D02*
G37*
G36*
X68870D02*
X65417D01*
Y29240D01*
X68870D01*
Y32693D01*
D02*
G37*
G36*
X73323Y28240D02*
X69870D01*
Y24787D01*
X73323D01*
Y28240D01*
D02*
G37*
G36*
X68870D02*
X65417D01*
Y24787D01*
X68870D01*
Y28240D01*
D02*
G37*
G36*
X13323Y28240D02*
X9870D01*
Y24787D01*
X13323D01*
Y28240D01*
D02*
G37*
G36*
X8870D02*
X5417D01*
Y24787D01*
X8870D01*
Y28240D01*
D02*
G37*
G36*
X58339Y23090D02*
X55870D01*
Y20622D01*
X58339D01*
Y23090D01*
D02*
G37*
G36*
X69839Y19858D02*
X67370D01*
Y17587D01*
X69839D01*
Y19858D01*
D02*
G37*
G36*
X66370D02*
X63902D01*
Y17587D01*
X66370D01*
Y19858D01*
D02*
G37*
G36*
X69839Y16587D02*
X67370D01*
Y14315D01*
X69839D01*
Y16587D01*
D02*
G37*
G36*
X66370D02*
X63902D01*
Y14315D01*
X66370D01*
Y16587D01*
D02*
G37*
G36*
X74370Y23247D02*
X73602Y23095D01*
X72951Y22659D01*
X72516Y22008D01*
X72363Y21240D01*
X72516Y20472D01*
X72766Y20098D01*
X72666Y19632D01*
X72630Y19551D01*
X72196Y19261D01*
X71891Y18805D01*
X71784Y18268D01*
Y15905D01*
X71891Y15368D01*
X72196Y14912D01*
X72402Y14774D01*
Y12745D01*
X69823D01*
Y13150D01*
X63917D01*
Y7638D01*
X69823D01*
Y9735D01*
X71784D01*
Y9213D01*
X71891Y8675D01*
X72196Y8219D01*
X72651Y7915D01*
X73189Y7808D01*
X75551D01*
X76089Y7915D01*
X76545Y8219D01*
X76849Y8675D01*
X76956Y9213D01*
Y11575D01*
X76849Y12112D01*
X76545Y12568D01*
X76339Y12706D01*
Y14774D01*
X76545Y14912D01*
X76849Y15368D01*
X76956Y15905D01*
Y18268D01*
X76849Y18805D01*
X76545Y19261D01*
X76111Y19551D01*
X76075Y19632D01*
X75975Y20098D01*
X76224Y20472D01*
X76377Y21240D01*
X76224Y22008D01*
X75789Y22659D01*
X75138Y23095D01*
X74370Y23247D01*
D02*
G37*
G36*
X48291Y8240D02*
X44870D01*
Y4819D01*
X45402Y4889D01*
X46363Y5287D01*
X47189Y5921D01*
X47823Y6747D01*
X48221Y7708D01*
X48291Y8240D01*
D02*
G37*
G36*
X43870D02*
X40449D01*
X40519Y7708D01*
X40917Y6747D01*
X41551Y5921D01*
X42377Y5287D01*
X43338Y4889D01*
X43870Y4819D01*
Y8240D01*
D02*
G37*
G36*
X23370Y23740D02*
X5370Y23740D01*
X3370Y21740D01*
Y4740D01*
X5370Y2740D01*
X23370Y2740D01*
X25370Y4740D01*
X25370Y21740D01*
X23370Y23740D01*
D02*
G37*
%LPD*%
G36*
X53348Y87347D02*
X49396Y83395D01*
X45276D01*
X44699Y83280D01*
X44680Y83268D01*
X43913D01*
Y83284D01*
X43898D01*
Y84145D01*
X43910Y84164D01*
X44025Y84740D01*
Y86266D01*
X45568Y87809D01*
X53157D01*
X53348Y87347D01*
D02*
G37*
D10*
X365827Y74744D02*
D03*
X362677D02*
D03*
X359528D02*
D03*
X356378D02*
D03*
X353228D02*
D03*
X350079D02*
D03*
X346929D02*
D03*
X343779D02*
D03*
Y41476D02*
D03*
X346929D02*
D03*
X350079D02*
D03*
X353228D02*
D03*
X356378D02*
D03*
X359528D02*
D03*
X362677D02*
D03*
X365827D02*
D03*
D11*
X338169Y69134D02*
D03*
Y65984D02*
D03*
Y62835D02*
D03*
Y59685D02*
D03*
Y56536D02*
D03*
Y53386D02*
D03*
Y50236D02*
D03*
Y47087D02*
D03*
X371437D02*
D03*
Y50236D02*
D03*
Y53386D02*
D03*
Y56536D02*
D03*
Y59685D02*
D03*
Y62835D02*
D03*
Y65984D02*
D03*
Y69134D02*
D03*
D12*
X347303Y108760D02*
D03*
Y102461D02*
D03*
X364803Y108760D02*
D03*
Y102461D02*
D03*
X199350Y184567D02*
D03*
Y190866D02*
D03*
X206850D02*
D03*
Y184567D02*
D03*
Y245866D02*
D03*
Y239567D02*
D03*
X120610Y184567D02*
D03*
Y190866D02*
D03*
X128110D02*
D03*
Y184567D02*
D03*
Y245866D02*
D03*
Y239567D02*
D03*
X41870Y184567D02*
D03*
Y190866D02*
D03*
X49370D02*
D03*
Y184567D02*
D03*
Y245866D02*
D03*
Y239567D02*
D03*
D13*
X374803Y108957D02*
D03*
Y102264D02*
D03*
X224350Y10394D02*
D03*
Y17087D02*
D03*
X145610Y10394D02*
D03*
Y17087D02*
D03*
X184350Y239370D02*
D03*
Y246063D02*
D03*
X191850Y239370D02*
D03*
Y246063D02*
D03*
X199350Y239370D02*
D03*
Y246063D02*
D03*
X105610Y239370D02*
D03*
Y246063D02*
D03*
X113110Y239370D02*
D03*
Y246063D02*
D03*
X120610Y239370D02*
D03*
Y246063D02*
D03*
X26870Y239370D02*
D03*
Y246063D02*
D03*
X34370Y239370D02*
D03*
Y246063D02*
D03*
X41870Y239370D02*
D03*
Y246063D02*
D03*
X66870Y10394D02*
D03*
Y17087D02*
D03*
D14*
X335303Y39610D02*
X343143D01*
X343779Y40247D02*
X343143Y39610D01*
X343779Y41476D02*
Y40247D01*
X367303Y80610D02*
X369803D01*
X365856Y74773D02*
X365827Y74744D01*
X365856Y79163D02*
Y74773D01*
X367303Y80610D02*
X365856Y79163D01*
X353228Y74744D02*
Y67558D01*
X354803Y65983D01*
Y65610D01*
X356803Y93110D02*
Y91110D01*
X352803Y97110D02*
X356803Y93110D01*
X356300Y74822D02*
X356378Y74744D01*
X356300Y79113D02*
Y74822D01*
X352303Y83110D02*
X356300Y79113D01*
X350740Y89679D02*
X359264Y81155D01*
Y75008D01*
X348234Y89679D02*
X350740D01*
X359264Y75008D02*
X359528Y74744D01*
X347303Y90610D02*
X348234Y89679D01*
X347303Y102461D02*
Y90610D01*
X344803Y120610D02*
X342303Y118110D01*
Y88110D01*
X335803Y117110D02*
Y91110D01*
X346929Y79984D01*
X333531Y89882D02*
X343779Y79634D01*
X333531Y101882D02*
Y89882D01*
X350079Y80335D02*
Y74744D01*
X342303Y88110D02*
X350079Y80335D01*
X366303Y91967D02*
Y90610D01*
X364803Y102461D02*
Y93467D01*
X366303Y91967D01*
X348321Y103479D02*
X347303Y102461D01*
X354803Y118110D02*
Y108110D01*
X348321Y103479D02*
X350171D01*
X354803Y108110D02*
X350171Y103479D01*
X365821D02*
X367671D01*
X369803Y105610D02*
X367671Y103479D01*
X365821D02*
X364803Y102461D01*
X374803Y118110D02*
X369803Y113110D01*
Y105610D01*
X362677Y83484D02*
Y74744D01*
X365903Y90210D02*
Y86711D01*
X362677Y83484D01*
X366303Y90610D02*
X365903Y90210D01*
X334803Y118110D02*
X335803Y117110D01*
X343779Y79634D02*
Y74744D01*
X346929Y79984D02*
Y74744D01*
X329764Y105650D02*
X333531Y101882D01*
X374803Y88110D02*
X384803Y78110D01*
X374803Y102264D02*
Y88110D01*
Y108957D02*
X375650Y108110D01*
X384803D01*
X356378Y41476D02*
Y31185D01*
X337066Y10373D02*
X334803Y8110D01*
X337066Y11873D02*
Y10373D01*
X356378Y31185D02*
X337066Y11873D01*
X333803Y17110D02*
X338803D01*
X353228Y31535D02*
X338803Y17110D01*
X353228Y41476D02*
Y31535D01*
X333803Y17110D02*
X324803Y8110D01*
X371437Y47087D02*
Y29476D01*
X382951Y19963D02*
X384803Y18110D01*
X371437Y29476D02*
X380951Y19963D01*
X382951D01*
X380715Y28110D02*
X384803D01*
X377303Y49605D02*
Y31522D01*
X380715Y28110D01*
X371595Y56378D02*
X377035D01*
X382343Y51071D01*
Y50571D01*
X384803Y48110D01*
X371437Y53386D02*
X377022D01*
X379959Y50449D02*
Y42954D01*
X377022Y53386D02*
X379959Y50449D01*
X371437Y50236D02*
X376672D01*
X377303Y49605D01*
X384803Y78110D02*
X379803Y73110D01*
Y68110D01*
X377677Y65984D01*
X384803Y68110D02*
X379528Y62835D01*
X371437D02*
X379528D01*
X383228Y59685D02*
X384803Y58110D01*
X371437Y59685D02*
X383228D01*
X379959Y42954D02*
X384803Y38110D01*
X365827Y41476D02*
Y22087D01*
X374803Y13110D01*
Y8110D01*
X362677Y41476D02*
Y15236D01*
X364803Y13110D02*
Y8110D01*
X362677Y15236D02*
X364803Y13110D01*
X359528Y22835D02*
X344803Y8110D01*
X359528Y41476D02*
Y22835D01*
X324803Y20610D02*
X337019D01*
X350079Y33670D02*
X337019Y20610D01*
X350079Y41476D02*
Y33670D01*
X346929Y41476D02*
Y35236D01*
X324803Y28110D02*
X339803D01*
X346929Y35236D02*
X339803Y28110D01*
X327264Y105650D02*
X329764D01*
X324803Y108110D02*
X327264Y105650D01*
X330803Y47610D02*
Y42610D01*
X327066Y40373D02*
X324803Y38110D01*
X327066Y40373D02*
X328566D01*
X330803Y42610D02*
X328566Y40373D01*
X330303Y86110D02*
X338169Y78244D01*
X330303Y92808D02*
Y86110D01*
X326803Y96308D02*
X330303Y92808D01*
X338169Y78244D02*
Y69134D01*
X331803Y80610D02*
Y67610D01*
X325803Y89110D02*
X327264Y87650D01*
Y85150D02*
X331803Y80610D01*
X327264Y87650D02*
Y85150D01*
X335512Y69134D02*
X338169D01*
X331803Y67610D02*
X333429Y65984D01*
X327872Y75650D02*
X330031Y73490D01*
Y66382D01*
X333429Y65984D02*
X338169D01*
X330031Y66382D02*
X333579Y62835D01*
X334801D02*
X338169D01*
X333579D02*
X334801D01*
X325803Y77110D02*
X327264Y75650D01*
X327872D01*
X332728Y59685D02*
X338169D01*
X327264Y65150D02*
X332728Y59685D01*
X325803Y67110D02*
X327264Y65650D01*
X325303Y67110D02*
X325803D01*
X327264Y65650D02*
Y65150D01*
X326378Y56536D02*
X338169D01*
X325303Y57610D02*
X326378Y56536D01*
X330579Y53386D02*
X338169D01*
X325303Y48610D02*
Y48110D01*
X330579Y53386D02*
X327764Y50571D01*
X327264D02*
X327764D01*
X327264D02*
X325303Y48610D01*
X333429Y50236D02*
X338169D01*
X333429D02*
X330803Y47610D01*
X371437Y65984D02*
X377677D01*
X371437Y56536D02*
X371595Y56378D01*
X371701Y69397D02*
X371437Y69134D01*
X336641Y47087D02*
X336004Y46450D01*
X336641Y47087D02*
X338169D01*
X381791Y235807D02*
X382835Y236850D01*
X364252Y235807D02*
X381791D01*
X336378D02*
X341417D01*
X335335Y236850D02*
Y243350D01*
Y236850D02*
X336378Y235807D01*
X330335Y229350D02*
X330380D01*
X331600Y228130D01*
X341417D01*
Y207421D02*
Y215335D01*
Y207421D02*
X341988Y206850D01*
X348681D02*
X354488D01*
X364237Y228115D02*
X364252Y228130D01*
Y217894D02*
X364327Y217818D01*
X364252Y220453D02*
X369232D01*
X360489Y207543D02*
Y209196D01*
Y207543D02*
X361181Y206850D01*
X362835Y249350D02*
Y251850D01*
X335335Y243350D02*
X343835Y251850D01*
X377835Y221850D02*
Y229350D01*
Y221850D02*
X382835Y216850D01*
X341417Y238366D02*
X346850D01*
X346732Y233248D02*
X362835Y249350D01*
X339311Y255374D02*
X340311D01*
X338159Y256526D02*
X339311Y255374D01*
X346850Y238366D02*
X350335Y241850D01*
Y262047D01*
X364252Y238366D02*
X374350D01*
X382835Y246850D01*
X365645Y252810D02*
X369685Y256850D01*
X363794Y252810D02*
X365645D01*
X362835Y251850D02*
X363794Y252810D01*
X373937Y233248D02*
X377835Y229350D01*
X364252Y233248D02*
X373937D01*
X364252Y230689D02*
X371496D01*
X369069Y228130D02*
X370335Y226864D01*
X364252Y228130D02*
X369069D01*
X370335Y226850D02*
Y226864D01*
X345532Y266850D02*
X350335Y262047D01*
X363675Y203583D02*
X364252Y204159D01*
Y215335D01*
X358308Y202324D02*
X359567Y203583D01*
X358308Y202324D02*
Y202324D01*
X352835Y196850D02*
X355295Y199311D01*
X355295D01*
X358308Y202324D01*
X359567Y203583D02*
X363675D01*
X332835Y196850D02*
Y201279D01*
X338405Y206850D01*
X341988D01*
X322835Y196850D02*
X331535Y205551D01*
X325295Y209311D02*
Y209941D01*
X322835Y206850D02*
X325295Y209311D01*
X335807Y220453D02*
X341417D01*
X325295Y209941D02*
X335807Y220453D01*
X322835Y216850D02*
X327835D01*
X333996Y223012D02*
X341417D01*
X327835Y216850D02*
X333996Y223012D01*
X322835Y226850D02*
X324114Y225571D01*
X341417D01*
X328500Y236850D02*
X334661Y230689D01*
X341417D01*
X322835Y236850D02*
X328500D01*
X322835Y266850D02*
X345532D01*
X340311Y255374D02*
X343335Y252350D01*
X343835Y251850D01*
X327335Y252350D02*
X343335D01*
X322835Y256850D02*
X327335Y252350D01*
X322835Y246850D02*
X325295Y244390D01*
Y243390D02*
Y244390D01*
X335437Y233248D02*
X346732D01*
X325295Y243390D02*
X335437Y233248D01*
X336378Y217894D02*
X341417D01*
X331535Y205551D02*
Y213051D01*
X336378Y217894D01*
X371496Y230689D02*
X375835Y226350D01*
X373835Y205850D02*
X382835Y196850D01*
X371835Y197850D02*
Y217850D01*
Y197850D02*
X372835Y196850D01*
X369232Y220453D02*
X371835Y217850D01*
X369083Y217818D02*
X369866Y217035D01*
X364327Y217818D02*
X369083D01*
X369866Y203882D02*
Y217035D01*
X362835Y196850D02*
X369866Y203882D01*
X371673Y223012D02*
X373835Y220850D01*
X364252Y223012D02*
X371673D01*
X373835Y205850D02*
Y220850D01*
X355335Y214350D02*
X360489Y209196D01*
X355335Y214350D02*
Y227538D01*
X355911Y228115D01*
X364237D01*
X365335Y261850D02*
X369437Y265953D01*
X371937D02*
X372835Y266850D01*
X369437Y265953D02*
X371937D01*
X357028Y261850D02*
X365335D01*
X375984Y256850D02*
X382835D01*
X375835Y213192D02*
X379716Y209311D01*
X380374D01*
X382835Y206850D01*
X375835Y213192D02*
Y226350D01*
X206350Y22740D02*
Y37740D01*
X197850Y41240D02*
X202850D01*
X206350Y37740D01*
X205925Y80315D02*
X208925D01*
X215998Y87388D02*
X225498D01*
X208925Y80315D02*
X215998Y87388D01*
X202756Y77165D02*
X206425D01*
X214850Y68740D02*
X226850D01*
X206425Y77165D02*
X214850Y68740D01*
X199927Y67740D02*
X200927Y66740D01*
X199500Y67740D02*
X199927D01*
X208078Y66740D02*
X216850Y57968D01*
X200927Y66740D02*
X208078D01*
X202350Y68740D02*
X209350D01*
X200000Y71091D02*
Y72835D01*
Y71091D02*
X202350Y68740D01*
X171850Y59740D02*
X179350Y67240D01*
X171850Y53740D02*
Y59740D01*
X179350Y67240D02*
X192850D01*
X167100Y48990D02*
X171850Y53740D01*
X174350Y48740D02*
Y55240D01*
X176350Y38740D02*
Y46740D01*
X174350Y48740D02*
X176350Y46740D01*
X188850Y50240D02*
X197850Y41240D01*
X178350Y69240D02*
X192623D01*
X166850Y58740D02*
X169311Y61201D01*
X170311D01*
X178350Y69240D01*
X209350Y68740D02*
X219350Y58740D01*
X204313Y80315D02*
X205925D01*
X205925Y80315D01*
X222998Y97388D02*
X225498D01*
X202756Y81890D02*
X207500D01*
X225498Y97388D02*
X226850Y98740D01*
X207500Y81890D02*
X222998Y97388D01*
X212424Y89314D02*
X220350Y97240D01*
X202425Y89314D02*
X212424D01*
X220350Y97240D02*
Y104740D01*
X191850Y96240D02*
X196850D01*
X188504Y101240D02*
X189196Y100548D01*
Y98894D02*
Y100548D01*
Y98894D02*
X191850Y96240D01*
X188504Y101240D02*
Y108740D01*
X195197D02*
X195197Y108740D01*
X195197Y108740D02*
X195197D01*
X195197Y108740D02*
X200413D01*
X200413Y108740D01*
X195197Y101240D02*
X200413D01*
X200749Y93139D02*
X211146D01*
X196850Y89240D02*
X200749Y93139D01*
X211146D02*
X215850Y97843D01*
X201350Y91240D02*
X211889D01*
X217850Y97201D01*
Y110240D01*
X207303Y108937D02*
X215850D01*
X207106Y108740D02*
X207303Y108937D01*
X215850D02*
X215850Y108937D01*
Y97843D02*
Y108937D01*
X198425Y88315D02*
X201350Y91240D01*
X200000Y86890D02*
X202425Y89314D01*
X174009Y35081D02*
Y42899D01*
X169204Y46387D02*
X170522D01*
X174009Y42899D01*
X166850Y48740D02*
X169204Y46387D01*
X208850Y34255D02*
X212618D01*
X208850Y18240D02*
Y34255D01*
Y43161D01*
X212618Y30122D02*
X212850Y29890D01*
X212618Y30122D02*
Y34255D01*
X223850Y51240D02*
X226850D01*
X219350Y55740D02*
Y58740D01*
Y55740D02*
X223850Y51240D01*
X190519Y18740D02*
X191850D01*
X189121Y20138D02*
X190519Y18740D01*
X188953Y20138D02*
X189121D01*
X174009Y35081D02*
X188953Y20138D01*
X198831Y43760D02*
X209449D01*
X180850Y52740D02*
X189850D01*
X198831Y43760D01*
X192850Y67240D02*
X195276Y69665D01*
X176350Y38740D02*
X178850Y36240D01*
X179850Y50240D02*
X188850D01*
X176850Y53240D02*
Y58740D01*
Y53240D02*
X179850Y50240D01*
X179350Y54240D02*
X180850Y52740D01*
X221850Y41240D02*
Y43740D01*
X216850Y48740D02*
Y57968D01*
Y48740D02*
X221850Y43740D01*
X178850Y36240D02*
X182895D01*
X184774D01*
X171850Y88740D02*
X181850Y78740D01*
X166850Y88740D02*
X171850D01*
X173350Y108740D02*
Y114740D01*
X179350Y98740D02*
Y102740D01*
X173350Y108740D02*
X179350Y102740D01*
X181850Y98740D02*
Y102740D01*
X175850Y108740D02*
Y116240D01*
Y108740D02*
X181850Y102740D01*
X166850Y118740D02*
X168203Y117388D01*
X170703D01*
X173350Y114740D01*
X198425Y68815D02*
X199500Y67740D01*
X181850Y98740D02*
X190954Y89636D01*
X195276Y84646D02*
Y88164D01*
X190954Y89636D02*
X193803D01*
X195276Y88164D01*
X179350Y98740D02*
X190029Y88061D01*
X225498Y107388D02*
X226850Y108740D01*
X222998Y107388D02*
X225498D01*
X220350Y104740D02*
X222998Y107388D01*
X207106Y101240D02*
X211260D01*
X215850Y108937D02*
Y111740D01*
X196850Y84646D02*
Y89240D01*
X219100Y111490D02*
X223890Y116279D01*
X217850Y110240D02*
X219100Y111490D01*
X190029Y88061D02*
X192529D01*
X193701Y86890D01*
X215850Y111817D02*
Y117740D01*
X224350Y11240D02*
X231004D01*
X231850Y10394D01*
Y17087D02*
Y21240D01*
X200000Y84740D02*
Y86890D01*
X202756Y78740D02*
X226850D01*
X221850Y58740D02*
X226850D01*
X205000Y75590D02*
X221850Y58740D01*
X202756Y75590D02*
X205000D01*
X226850Y128740D02*
X226850D01*
X215850Y117740D02*
X226850Y128740D01*
X204350Y13740D02*
X208850Y18240D01*
Y43161D02*
X209449Y43760D01*
X189390Y31201D02*
Y31624D01*
Y31201D02*
X191850Y28740D01*
Y8740D02*
X196850Y13740D01*
X204350D01*
X201850Y18740D02*
X202350D01*
X206350Y22740D01*
X184774Y36240D02*
X189390Y31624D01*
X179350Y54240D02*
Y63740D01*
X176850Y131240D02*
X176892D01*
X209449Y131220D02*
X209469Y131240D01*
X216850D01*
X176892D02*
X176912Y131220D01*
X184252D01*
X175870Y116260D02*
X184252D01*
X175850Y116240D02*
X175870Y116260D01*
X165850Y129740D02*
X166850Y128740D01*
X175850Y116240D02*
Y119938D01*
X169509Y126279D02*
X175850Y119938D01*
X169311Y126279D02*
X169509D01*
X168350Y127240D02*
X169311Y126279D01*
X178201Y75590D02*
X190945D01*
X169311Y70093D02*
X172703D01*
X178201Y75590D01*
X225498Y40093D02*
X226850Y38740D01*
X222998Y40093D02*
X225498D01*
X221850Y41240D02*
X222998Y40093D01*
X195276Y69665D02*
Y71838D01*
X192623Y69240D02*
X193701Y70318D01*
Y72835D01*
X198425Y68815D02*
Y72835D01*
X196850D02*
Y77740D01*
X173350Y97240D02*
X188701Y81890D01*
X166850Y108740D02*
X173350Y102240D01*
Y97240D02*
Y102240D01*
X188701Y81890D02*
X190194D01*
X181850Y78740D02*
X190945D01*
X198425Y84476D02*
Y88315D01*
X224390Y116279D02*
X226850Y118740D01*
X223890Y116279D02*
X224390D01*
X193701Y84646D02*
Y86890D01*
X168850Y97848D02*
Y98280D01*
Y97848D02*
X169311Y97388D01*
X170703D01*
X187776Y80315D01*
X225498Y87388D02*
X226850Y88740D01*
X168850Y69632D02*
X169311Y70093D01*
X167350Y78740D02*
X174350D01*
X175925Y77165D02*
X190945D01*
X174350Y78740D02*
X175925Y77165D01*
X187776Y80315D02*
X190945D01*
X127610Y22740D02*
Y37740D01*
X119110Y41240D02*
X124110D01*
X127610Y37740D01*
X127185Y80315D02*
X130185D01*
X137258Y87388D02*
X146758D01*
X130185Y80315D02*
X137258Y87388D01*
X124016Y77165D02*
X127685D01*
X136110Y68740D02*
X148110D01*
X127685Y77165D02*
X136110Y68740D01*
X121187Y67740D02*
X122187Y66740D01*
X120760Y67740D02*
X121187D01*
X129338Y66740D02*
X138110Y57968D01*
X122187Y66740D02*
X129338D01*
X123610Y68740D02*
X130610D01*
X121260Y71091D02*
Y72835D01*
Y71091D02*
X123610Y68740D01*
X93110Y59740D02*
X100610Y67240D01*
X93110Y53740D02*
Y59740D01*
X100610Y67240D02*
X114110D01*
X88360Y48990D02*
X93110Y53740D01*
X95610Y48740D02*
Y55240D01*
X97610Y38740D02*
Y46740D01*
X95610Y48740D02*
X97610Y46740D01*
X110110Y50240D02*
X119110Y41240D01*
X99610Y69240D02*
X113883D01*
X88110Y58740D02*
X90571Y61201D01*
X91571D01*
X99610Y69240D01*
X130610Y68740D02*
X140610Y58740D01*
X125573Y80315D02*
X127185D01*
X127185Y80315D01*
X144258Y97388D02*
X146758D01*
X124016Y81890D02*
X128760D01*
X146758Y97388D02*
X148110Y98740D01*
X128760Y81890D02*
X144258Y97388D01*
X133684Y89314D02*
X141610Y97240D01*
X123684Y89314D02*
X133684D01*
X141610Y97240D02*
Y104740D01*
X113110Y96240D02*
X118110D01*
X109764Y101240D02*
X110456Y100548D01*
Y98894D02*
Y100548D01*
Y98894D02*
X113110Y96240D01*
X109764Y101240D02*
Y108740D01*
X116457D02*
X116457Y108740D01*
X116457Y108740D02*
X116457D01*
X116457Y108740D02*
X121673D01*
X121673Y108740D01*
X116457Y101240D02*
X121673D01*
X122009Y93139D02*
X132406D01*
X118110Y89240D02*
X122009Y93139D01*
X132406D02*
X137110Y97843D01*
X122610Y91240D02*
X133149D01*
X139110Y97201D01*
Y110240D01*
X128563Y108937D02*
X137110D01*
X128366Y108740D02*
X128563Y108937D01*
X137110D02*
X137110Y108937D01*
Y97843D02*
Y108937D01*
X119685Y88315D02*
X122610Y91240D01*
X121260Y86890D02*
X123684Y89314D01*
X95269Y35081D02*
Y42899D01*
X90464Y46387D02*
X91782D01*
X95269Y42899D01*
X88110Y48740D02*
X90464Y46387D01*
X130110Y34255D02*
X133878D01*
X130110Y18240D02*
Y34255D01*
Y43161D01*
X133878Y30122D02*
X134110Y29890D01*
X133878Y30122D02*
Y34255D01*
X145110Y51240D02*
X148110D01*
X140610Y55740D02*
Y58740D01*
Y55740D02*
X145110Y51240D01*
X111778Y18740D02*
X113110D01*
X110381Y20138D02*
X111778Y18740D01*
X110213Y20138D02*
X110381D01*
X95269Y35081D02*
X110213Y20138D01*
X120091Y43760D02*
X130709D01*
X102110Y52740D02*
X111110D01*
X120091Y43760D01*
X114110Y67240D02*
X116535Y69665D01*
X97610Y38740D02*
X100110Y36240D01*
X101110Y50240D02*
X110110D01*
X98110Y53240D02*
Y58740D01*
Y53240D02*
X101110Y50240D01*
X100610Y54240D02*
X102110Y52740D01*
X143110Y41240D02*
Y43740D01*
X138110Y48740D02*
Y57968D01*
Y48740D02*
X143110Y43740D01*
X100110Y36240D02*
X104155D01*
X106033D01*
X93110Y88740D02*
X103110Y78740D01*
X88110Y88740D02*
X93110D01*
X94610Y108740D02*
Y114740D01*
X100610Y98740D02*
Y102740D01*
X94610Y108740D02*
X100610Y102740D01*
X103110Y98740D02*
Y102740D01*
X97110Y108740D02*
Y116240D01*
Y108740D02*
X103110Y102740D01*
X88110Y118740D02*
X89463Y117388D01*
X91963D01*
X94610Y114740D01*
X119685Y68815D02*
X120760Y67740D01*
X103110Y98740D02*
X112214Y89636D01*
X116535Y84646D02*
Y88164D01*
X112214Y89636D02*
X115063D01*
X116535Y88164D01*
X100610Y98740D02*
X111289Y88061D01*
X146758Y107388D02*
X148110Y108740D01*
X144258Y107388D02*
X146758D01*
X141610Y104740D02*
X144258Y107388D01*
X128366Y101240D02*
X132520D01*
X137110Y108937D02*
Y111740D01*
X118110Y84646D02*
Y89240D01*
X140360Y111490D02*
X145150Y116279D01*
X139110Y110240D02*
X140360Y111490D01*
X111289Y88061D02*
X113789D01*
X114961Y86890D01*
X137110Y111817D02*
Y117740D01*
X145610Y11240D02*
X152264D01*
X153110Y10394D01*
Y17087D02*
Y21240D01*
X121260Y84740D02*
Y86890D01*
X124016Y78740D02*
X148110D01*
X143110Y58740D02*
X148110D01*
X126260Y75590D02*
X143110Y58740D01*
X124016Y75590D02*
X126260D01*
X148110Y128740D02*
X148110D01*
X137110Y117740D02*
X148110Y128740D01*
X125610Y13740D02*
X130110Y18240D01*
Y43161D02*
X130709Y43760D01*
X110650Y31201D02*
Y31624D01*
Y31201D02*
X113110Y28740D01*
Y8740D02*
X118110Y13740D01*
X125610D01*
X123110Y18740D02*
X123610D01*
X127610Y22740D01*
X106033Y36240D02*
X110650Y31624D01*
X100610Y54240D02*
Y63740D01*
X98110Y131240D02*
X98152D01*
X130709Y131220D02*
X130728Y131240D01*
X138110D01*
X98152D02*
X98172Y131220D01*
X105512D01*
X97130Y116260D02*
X105512D01*
X97110Y116240D02*
X97130Y116260D01*
X87110Y129740D02*
X88110Y128740D01*
X97110Y116240D02*
Y119938D01*
X90769Y126279D02*
X97110Y119938D01*
X90571Y126279D02*
X90769D01*
X89610Y127240D02*
X90571Y126279D01*
X99461Y75590D02*
X112205D01*
X90571Y70093D02*
X93963D01*
X99461Y75590D01*
X146758Y40093D02*
X148110Y38740D01*
X144258Y40093D02*
X146758D01*
X143110Y41240D02*
X144258Y40093D01*
X116535Y69665D02*
Y71838D01*
X113883Y69240D02*
X114961Y70318D01*
Y72835D01*
X119685Y68815D02*
Y72835D01*
X118110D02*
Y77740D01*
X94610Y97240D02*
X109961Y81890D01*
X88110Y108740D02*
X94610Y102240D01*
Y97240D02*
Y102240D01*
X109961Y81890D02*
X111453D01*
X103110Y78740D02*
X112205D01*
X119685Y84476D02*
Y88315D01*
X145650Y116279D02*
X148110Y118740D01*
X145150Y116279D02*
X145650D01*
X114961Y84646D02*
Y86890D01*
X90110Y97848D02*
Y98280D01*
Y97848D02*
X90571Y97388D01*
X91963D01*
X109035Y80315D01*
X146758Y87388D02*
X148110Y88740D01*
X90110Y69632D02*
X90571Y70093D01*
X88610Y78740D02*
X95610D01*
X97185Y77165D02*
X112205D01*
X95610Y78740D02*
X97185Y77165D01*
X109035Y80315D02*
X112205D01*
X226850Y205793D02*
X226274Y205217D01*
X226850Y209567D02*
Y205793D01*
X222500Y205217D02*
X226274D01*
X192500Y196067D02*
Y192539D01*
X189350Y203417D02*
Y199217D01*
X192500Y196067D01*
X187115Y205354D02*
X185197Y205217D01*
X187115Y205354D02*
X189350Y203417D01*
X191850Y206496D02*
Y200217D01*
X184370Y213976D02*
X185762D01*
X186451Y211895D02*
X191850Y206496D01*
X185762Y213976D02*
X186451Y213287D01*
Y211895D01*
X191850Y200217D02*
X195453Y196614D01*
X196850Y220793D02*
X197427Y220217D01*
X211848Y227714D02*
Y225219D01*
Y228795D02*
Y227717D01*
X212319Y218248D02*
X214223Y216344D01*
X208957Y218248D02*
X212319D01*
X214600Y225467D02*
X211319Y222185D01*
X211850Y197717D02*
X216004D01*
X211850Y205217D02*
X216201D01*
X222697Y196050D02*
Y190217D01*
X222697Y196050D02*
X222697Y196050D01*
X222697Y197717D02*
Y196050D01*
X206850Y245866D02*
X220000D01*
X221850Y247717D02*
X220000Y245866D01*
X168504Y239370D02*
X166850Y237717D01*
X168504Y239370D02*
X184350D01*
X179311Y235177D02*
X198406D01*
X179311D02*
X171850Y227717D01*
X166850D02*
X171850D01*
X176850Y217717D02*
Y212717D01*
Y227716D02*
Y217717D01*
X166850D02*
X176850D01*
X181850Y232717D02*
X176850Y227716D01*
X169311Y220177D02*
X166850Y217717D01*
X169311Y220177D02*
X169311D01*
X184350Y239370D02*
X191850D01*
X199350Y236122D02*
X198406Y235177D01*
X199350Y239370D02*
Y236122D01*
X222500Y235217D02*
X229350D01*
X214724Y231672D02*
X211848Y228795D01*
X214724Y233740D02*
Y231672D01*
X216201Y235217D02*
X214724Y233740D01*
X185197Y205217D02*
Y205020D01*
X169350Y202716D02*
Y195217D01*
X171851Y205217D02*
X178504D01*
X171851D02*
X169350Y202716D01*
X173504Y191063D02*
X179350D01*
X169350Y195217D02*
X173504Y191063D01*
X176850Y212717D02*
X179350Y210217D01*
X181850D01*
Y232717D02*
X176850Y227716D01*
X195453Y196614D02*
Y188565D01*
X181850Y210217D02*
X184094Y207973D01*
Y206123D02*
X185197Y205020D01*
X184094Y207973D02*
Y206123D01*
X199350Y185217D02*
X206201D01*
X195453D02*
X199350D01*
X193681D02*
X193091Y184626D01*
X193681Y185217D02*
X195453D01*
X193091Y184626D02*
Y176516D01*
X195453Y188565D02*
Y185217D01*
X206201D02*
X206850Y184567D01*
X195453Y188565D02*
X195453Y188565D01*
X199350Y195217D02*
Y190866D01*
X206850Y195217D02*
Y190866D01*
X184429Y227717D02*
Y221516D01*
Y232717D02*
Y227717D01*
X181850Y232717D02*
X184429D01*
X204350D01*
X216004Y190217D02*
X216696Y189524D01*
Y187871D01*
X219350Y185217D01*
X192500Y192539D02*
X193091Y191949D01*
X206850Y239567D02*
Y235216D01*
X204350Y232717D01*
X211850Y215703D02*
Y214498D01*
X207500Y200217D02*
X211850D01*
X184350Y252717D02*
Y246063D01*
X196850Y200217D02*
X201201D01*
X196850Y207717D02*
X201201D01*
X199744Y218248D02*
X202488D01*
X204350Y220111D02*
X202488Y218248D01*
X204350Y220217D02*
Y220111D01*
X184429Y221516D02*
X184370Y221457D01*
X194272Y227717D02*
X194350Y227638D01*
X179350Y184370D02*
X181004Y182717D01*
X184350D01*
X174350Y197717D02*
X178504D01*
X185197D02*
X185610Y197303D01*
Y191949D01*
X189350Y183484D02*
Y177717D01*
X189350Y177717D01*
X193091Y176516D02*
X194390Y175217D01*
X192868Y247081D02*
X191850Y246063D01*
X192868Y248734D02*
Y247081D01*
X196850Y257087D02*
Y252717D01*
X192868Y248734D01*
X199409Y257087D02*
Y246122D01*
X199350Y246063D01*
X205833Y246884D02*
X206850Y245866D01*
X205833Y248734D02*
Y246884D01*
X201969Y252598D02*
X205833Y248734D01*
X201969Y257087D02*
Y252598D01*
X191732Y262140D02*
Y257087D01*
X192309Y262717D02*
X194350D01*
X192309D02*
X191732Y262140D01*
X207500Y207717D02*
X211850D01*
X208957Y220217D02*
X214350D01*
X204350D02*
X208957D01*
X196850Y222185D02*
X199744D01*
X196850Y222185D02*
X196850Y222185D01*
X196850Y224154D02*
X199744D01*
X197427Y220217D02*
X199744D01*
X208957Y224154D02*
X210782D01*
X211848Y225219D02*
X210782Y224154D01*
X208957Y222185D02*
X211319D01*
X208957Y216280D02*
X211274D01*
X211850Y215703D01*
X197913Y216280D02*
X196850Y215217D01*
X197913Y216280D02*
X199744D01*
X148110Y205793D02*
X147534Y205217D01*
X148110Y209567D02*
Y205793D01*
X143760Y205217D02*
X147534D01*
X113760Y196067D02*
Y192539D01*
X110610Y203417D02*
Y199217D01*
X113760Y196067D01*
X108375Y205354D02*
X106457Y205217D01*
X108375Y205354D02*
X110610Y203417D01*
X113110Y206496D02*
Y200217D01*
X105630Y213976D02*
X107022D01*
X107711Y211895D02*
X113110Y206496D01*
X107022Y213976D02*
X107711Y213287D01*
Y211895D01*
X113110Y200217D02*
X116713Y196614D01*
X118110Y220793D02*
X118687Y220217D01*
X133107Y227714D02*
Y225219D01*
Y228795D02*
Y227717D01*
X133579Y218248D02*
X135483Y216344D01*
X130217Y218248D02*
X133579D01*
X135860Y225467D02*
X132579Y222185D01*
X133110Y197717D02*
X137264D01*
X133110Y205217D02*
X137461D01*
X143957Y196050D02*
Y190217D01*
X143957Y196050D02*
X143957Y196050D01*
X143957Y197717D02*
Y196050D01*
X128110Y245866D02*
X141260D01*
X143110Y247717D02*
X141260Y245866D01*
X89764Y239370D02*
X88110Y237717D01*
X89764Y239370D02*
X105610D01*
X100571Y235177D02*
X119665D01*
X100571D02*
X93110Y227717D01*
X88110D02*
X93110D01*
X98110Y217717D02*
Y212717D01*
Y227716D02*
Y217717D01*
X88110D02*
X98110D01*
X103110Y232717D02*
X98110Y227716D01*
X90571Y220177D02*
X88110Y217717D01*
X90571Y220177D02*
X90571D01*
X105610Y239370D02*
X113110D01*
X120610Y236122D02*
X119665Y235177D01*
X120610Y239370D02*
Y236122D01*
X143760Y235217D02*
X150610D01*
X135984Y231672D02*
X133107Y228795D01*
X135984Y233740D02*
Y231672D01*
X137461Y235217D02*
X135984Y233740D01*
X106457Y205217D02*
Y205020D01*
X90610Y202716D02*
Y195217D01*
X93110Y205217D02*
X99764D01*
X93110D02*
X90610Y202716D01*
X94764Y191063D02*
X100610D01*
X90610Y195217D02*
X94764Y191063D01*
X98110Y212717D02*
X100610Y210217D01*
X103110D01*
Y232717D02*
X98110Y227716D01*
X116713Y196614D02*
Y188565D01*
X103110Y210217D02*
X105354Y207973D01*
Y206123D02*
X106457Y205020D01*
X105354Y207973D02*
Y206123D01*
X120610Y185217D02*
X127461D01*
X116713D02*
X120610D01*
X114941D02*
X114350Y184626D01*
X114941Y185217D02*
X116713D01*
X114350Y184626D02*
Y176516D01*
X116713Y188565D02*
Y185217D01*
X127461D02*
X128110Y184567D01*
X116713Y188565D02*
X116713Y188565D01*
X120610Y195217D02*
Y190866D01*
X128110Y195217D02*
Y190866D01*
X105689Y227717D02*
Y221516D01*
Y232717D02*
Y227717D01*
X103110Y232717D02*
X105689D01*
X125610D01*
X137264Y190217D02*
X137956Y189524D01*
Y187871D01*
X140610Y185217D01*
X113760Y192539D02*
X114350Y191949D01*
X128110Y239567D02*
Y235216D01*
X125610Y232717D01*
X133110Y215703D02*
Y214498D01*
X128760Y200217D02*
X133110D01*
X105610Y252717D02*
Y246063D01*
X118110Y200217D02*
X122461D01*
X118110Y207717D02*
X122461D01*
X121004Y218248D02*
X123748D01*
X125610Y220111D02*
X123748Y218248D01*
X125610Y220217D02*
Y220111D01*
X105689Y221516D02*
X105630Y221457D01*
X115532Y227717D02*
X115610Y227638D01*
X100610Y184370D02*
X102264Y182717D01*
X105610D01*
X95610Y197717D02*
X99764D01*
X106457D02*
X106870Y197303D01*
Y191949D01*
X110610Y183484D02*
Y177717D01*
X110610Y177717D01*
X114350Y176516D02*
X115650Y175217D01*
X114128Y247081D02*
X113110Y246063D01*
X114128Y248734D02*
Y247081D01*
X118110Y257087D02*
Y252717D01*
X114128Y248734D01*
X120669Y257087D02*
Y246122D01*
X120610Y246063D01*
X127092Y246884D02*
X128110Y245866D01*
X127092Y248734D02*
Y246884D01*
X123228Y252598D02*
X127092Y248734D01*
X123228Y257087D02*
Y252598D01*
X112992Y262140D02*
Y257087D01*
X113569Y262717D02*
X115610D01*
X113569D02*
X112992Y262140D01*
X128760Y207717D02*
X133110D01*
X130217Y220217D02*
X135610D01*
X125610D02*
X130217D01*
X118110Y222185D02*
X121004D01*
X118110Y222185D02*
X118110Y222185D01*
X118110Y224154D02*
X121004D01*
X118687Y220217D02*
X121004D01*
X130217Y224154D02*
X132042D01*
X133107Y225219D02*
X132042Y224154D01*
X130217Y222185D02*
X132579D01*
X130217Y216280D02*
X132534D01*
X133110Y215703D01*
X119173Y216280D02*
X118110Y215217D01*
X119173Y216280D02*
X121004D01*
X69370Y205793D02*
X68793Y205217D01*
X69370Y209567D02*
Y205793D01*
X65020Y205217D02*
X68793D01*
X35020Y196067D02*
Y192539D01*
X31870Y203417D02*
Y199217D01*
X35020Y196067D01*
X29635Y205354D02*
X27717Y205217D01*
X29635Y205354D02*
X31870Y203417D01*
X34370Y206496D02*
Y200217D01*
X26890Y213976D02*
X28282D01*
X28971Y211895D02*
X34370Y206496D01*
X28282Y213976D02*
X28971Y213287D01*
Y211895D01*
X34370Y200217D02*
X37973Y196614D01*
X39370Y220793D02*
X39947Y220217D01*
X54367Y227714D02*
Y225219D01*
Y228795D02*
Y227717D01*
X54839Y218248D02*
X56743Y216344D01*
X51476Y218248D02*
X54839D01*
X57120Y225467D02*
X53839Y222185D01*
X54370Y197717D02*
X58524D01*
X54370Y205217D02*
X58720D01*
X65216Y196050D02*
Y190217D01*
X65216Y196050D02*
X65216Y196050D01*
X65216Y197717D02*
Y196050D01*
X49370Y245866D02*
X62520D01*
X64370Y247717D02*
X62520Y245866D01*
X11024Y239370D02*
X9370Y237717D01*
X11024Y239370D02*
X26870D01*
X21831Y235177D02*
X40925D01*
X21831D02*
X14370Y227717D01*
X9370D02*
X14370D01*
X19370Y217717D02*
Y212717D01*
Y227716D02*
Y217717D01*
X9370D02*
X19370D01*
X24370Y232717D02*
X19370Y227716D01*
X11831Y220177D02*
X9370Y217717D01*
X11831Y220177D02*
X11831D01*
X26870Y239370D02*
X34370D01*
X41870Y236122D02*
X40925Y235177D01*
X41870Y239370D02*
Y236122D01*
X65020Y235217D02*
X71870D01*
X57244Y231672D02*
X54367Y228795D01*
X57244Y233740D02*
Y231672D01*
X58720Y235217D02*
X57244Y233740D01*
X27717Y205217D02*
Y205020D01*
X11870Y202716D02*
Y195217D01*
X14370Y205217D02*
X21024D01*
X14370D02*
X11870Y202716D01*
X16024Y191063D02*
X21870D01*
X11870Y195217D02*
X16024Y191063D01*
X19370Y212717D02*
X21870Y210217D01*
X24370D01*
Y232717D02*
X19370Y227716D01*
X37973Y196614D02*
Y188565D01*
X24370Y210217D02*
X26614Y207973D01*
Y206123D02*
X27717Y205020D01*
X26614Y207973D02*
Y206123D01*
X41870Y185217D02*
X48720D01*
X37973D02*
X41870D01*
X36201D02*
X35610Y184626D01*
X36201Y185217D02*
X37973D01*
X35610Y184626D02*
Y176516D01*
X37973Y188565D02*
Y185217D01*
X48720D02*
X49370Y184567D01*
X37973Y188565D02*
X37973Y188565D01*
X41870Y195217D02*
Y190866D01*
X49370Y195217D02*
Y190866D01*
X26949Y227717D02*
Y221516D01*
Y232717D02*
Y227717D01*
X24370Y232717D02*
X26949D01*
X46870D01*
X58524Y190217D02*
X59216Y189524D01*
Y187871D01*
X61870Y185217D01*
X35020Y192539D02*
X35610Y191949D01*
X49370Y239567D02*
Y235216D01*
X46870Y232717D01*
X54370Y215703D02*
Y214498D01*
X50020Y200217D02*
X54370D01*
X26870Y252717D02*
Y246063D01*
X39370Y200217D02*
X43720D01*
X39370Y207717D02*
X43720D01*
X42264Y218248D02*
X45008D01*
X46870Y220111D02*
X45008Y218248D01*
X46870Y220217D02*
Y220111D01*
X26949Y221516D02*
X26890Y221457D01*
X36791Y227717D02*
X36870Y227638D01*
X21870Y184370D02*
X23524Y182717D01*
X26870D01*
X16870Y197717D02*
X21024D01*
X27717D02*
X28130Y197303D01*
Y191949D01*
X31870Y183484D02*
Y177717D01*
X31870Y177717D01*
X35610Y176516D02*
X36909Y175217D01*
X35388Y247081D02*
X34370Y246063D01*
X35388Y248734D02*
Y247081D01*
X39370Y257087D02*
Y252717D01*
X35388Y248734D01*
X41929Y257087D02*
Y246122D01*
X41870Y246063D01*
X48352Y246884D02*
X49370Y245866D01*
X48352Y248734D02*
Y246884D01*
X44488Y252598D02*
X48352Y248734D01*
X44488Y257087D02*
Y252598D01*
X34252Y262140D02*
Y257087D01*
X34829Y262717D02*
X36870D01*
X34829D02*
X34252Y262140D01*
X50020Y207717D02*
X54370D01*
X51476Y220217D02*
X56870D01*
X46870D02*
X51476D01*
X39370Y222185D02*
X42264D01*
X39370Y222185D02*
X39370Y222185D01*
X39370Y224154D02*
X42264D01*
X39947Y220217D02*
X42264D01*
X51476Y224154D02*
X53302D01*
X54367Y225219D02*
X53302Y224154D01*
X51476Y222185D02*
X53839D01*
X51476Y216280D02*
X53794D01*
X54370Y215703D01*
X40433Y216280D02*
X39370Y215217D01*
X40433Y216280D02*
X42264D01*
X48870Y22740D02*
Y37740D01*
X40370Y41240D02*
X45370D01*
X48870Y37740D01*
X48445Y80315D02*
X51445D01*
X58517Y87388D02*
X68018D01*
X51445Y80315D02*
X58517Y87388D01*
X45276Y77165D02*
X48945D01*
X57370Y68740D02*
X69370D01*
X48945Y77165D02*
X57370Y68740D01*
X42447Y67740D02*
X43447Y66740D01*
X42020Y67740D02*
X42447D01*
X50598Y66740D02*
X59370Y57968D01*
X43447Y66740D02*
X50598D01*
X44870Y68740D02*
X51870D01*
X42520Y71091D02*
Y72835D01*
Y71091D02*
X44870Y68740D01*
X14370Y59740D02*
X21870Y67240D01*
X14370Y53740D02*
Y59740D01*
X21870Y67240D02*
X35370D01*
X9620Y48990D02*
X14370Y53740D01*
X16870Y48740D02*
Y55240D01*
X18870Y38740D02*
Y46740D01*
X16870Y48740D02*
X18870Y46740D01*
X31370Y50240D02*
X40370Y41240D01*
X20870Y69240D02*
X35143D01*
X9370Y58740D02*
X11831Y61201D01*
X12831D01*
X20870Y69240D01*
X51870Y68740D02*
X61870Y58740D01*
X46833Y80315D02*
X48445D01*
X48445Y80315D01*
X65517Y97388D02*
X68018D01*
X45276Y81890D02*
X50020D01*
X68018Y97388D02*
X69370Y98740D01*
X50020Y81890D02*
X65517Y97388D01*
X54944Y89314D02*
X62870Y97240D01*
X44944Y89314D02*
X54944D01*
X62870Y97240D02*
Y104740D01*
X34370Y96240D02*
X39370D01*
X31024Y101240D02*
X31716Y100548D01*
Y98894D02*
Y100548D01*
Y98894D02*
X34370Y96240D01*
X31024Y101240D02*
Y108740D01*
X37717D02*
X37717Y108740D01*
X37716Y108740D02*
X37717D01*
X37717Y108740D02*
X42933D01*
X42933Y108740D01*
X37716Y101240D02*
X42933D01*
X43269Y93139D02*
X53666D01*
X39370Y89240D02*
X43269Y93139D01*
X53666D02*
X58370Y97843D01*
X43870Y91240D02*
X54409D01*
X60370Y97201D01*
Y110240D01*
X49823Y108937D02*
X58370D01*
X49626Y108740D02*
X49823Y108937D01*
X58370D02*
X58370Y108937D01*
Y97843D02*
Y108937D01*
X40945Y88315D02*
X43870Y91240D01*
X42520Y86890D02*
X44944Y89314D01*
X16529Y35081D02*
Y42899D01*
X11724Y46387D02*
X13041D01*
X16529Y42899D01*
X9370Y48740D02*
X11724Y46387D01*
X51370Y34255D02*
X55138D01*
X51370Y18240D02*
Y34255D01*
Y43161D01*
X55138Y30122D02*
X55370Y29890D01*
X55138Y30122D02*
Y34255D01*
X66370Y51240D02*
X69370D01*
X61870Y55740D02*
Y58740D01*
Y55740D02*
X66370Y51240D01*
X33038Y18740D02*
X34370D01*
X31641Y20138D02*
X33038Y18740D01*
X31473Y20138D02*
X31641D01*
X16529Y35081D02*
X31473Y20138D01*
X41350Y43760D02*
X51968D01*
X23370Y52740D02*
X32370D01*
X41350Y43760D01*
X35370Y67240D02*
X37795Y69665D01*
X18870Y38740D02*
X21370Y36240D01*
X22370Y50240D02*
X31370D01*
X19370Y53240D02*
Y58740D01*
Y53240D02*
X22370Y50240D01*
X21870Y54240D02*
X23370Y52740D01*
X64370Y41240D02*
Y43740D01*
X59370Y48740D02*
Y57968D01*
Y48740D02*
X64370Y43740D01*
X21370Y36240D02*
X25415D01*
X27293D01*
X14370Y88740D02*
X24370Y78740D01*
X9370Y88740D02*
X14370D01*
X15870Y108740D02*
Y114740D01*
X21870Y98740D02*
Y102740D01*
X15870Y108740D02*
X21870Y102740D01*
X24370Y98740D02*
Y102740D01*
X18370Y108740D02*
Y116240D01*
Y108740D02*
X24370Y102740D01*
X9370Y118740D02*
X10723Y117388D01*
X13223D01*
X15870Y114740D01*
X40945Y68815D02*
X42020Y67740D01*
X24370Y98740D02*
X33474Y89636D01*
X37795Y84646D02*
Y88164D01*
X33474Y89636D02*
X36323D01*
X37795Y88164D01*
X21870Y98740D02*
X32549Y88061D01*
X68018Y107388D02*
X69370Y108740D01*
X65517Y107388D02*
X68018D01*
X62870Y104740D02*
X65517Y107388D01*
X49626Y101240D02*
X53780D01*
X58370Y108937D02*
Y111740D01*
X39370Y84646D02*
Y89240D01*
X61620Y111490D02*
X66409Y116279D01*
X60370Y110240D02*
X61620Y111490D01*
X32549Y88061D02*
X35049D01*
X36220Y86890D01*
X58370Y111817D02*
Y117740D01*
X66870Y11240D02*
X73524D01*
X74370Y10394D01*
Y17087D02*
Y21240D01*
X42520Y84740D02*
Y86890D01*
X45276Y78740D02*
X69370D01*
X64370Y58740D02*
X69370D01*
X47520Y75590D02*
X64370Y58740D01*
X45276Y75590D02*
X47520D01*
X69370Y128740D02*
X69370D01*
X58370Y117740D02*
X69370Y128740D01*
X46870Y13740D02*
X51370Y18240D01*
Y43161D02*
X51968Y43760D01*
X31909Y31201D02*
Y31624D01*
Y31201D02*
X34370Y28740D01*
Y8740D02*
X39370Y13740D01*
X46870D01*
X44370Y18740D02*
X44870D01*
X48870Y22740D01*
X27293Y36240D02*
X31909Y31624D01*
X21870Y54240D02*
Y63740D01*
X19370Y131240D02*
X19412D01*
X51968Y131220D02*
X51988Y131240D01*
X59370D01*
X19412D02*
X19432Y131220D01*
X26772D01*
X18390Y116260D02*
X26772D01*
X18370Y116240D02*
X18390Y116260D01*
X8370Y129740D02*
X9370Y128740D01*
X18370Y116240D02*
Y119938D01*
X12029Y126279D02*
X18370Y119938D01*
X11831Y126279D02*
X12029D01*
X10870Y127240D02*
X11831Y126279D01*
X20720Y75590D02*
X33465D01*
X11831Y70093D02*
X15223D01*
X20720Y75590D01*
X68018Y40093D02*
X69370Y38740D01*
X65517Y40093D02*
X68018D01*
X64370Y41240D02*
X65517Y40093D01*
X37795Y69665D02*
Y71838D01*
X35143Y69240D02*
X36220Y70318D01*
Y72835D01*
X40945Y68815D02*
Y72835D01*
X39370D02*
Y77740D01*
X15870Y97240D02*
X31220Y81890D01*
X9370Y108740D02*
X15870Y102240D01*
Y97240D02*
Y102240D01*
X31220Y81890D02*
X32713D01*
X24370Y78740D02*
X33465D01*
X40945Y84476D02*
Y88315D01*
X66909Y116279D02*
X69370Y118740D01*
X66409Y116279D02*
X66909D01*
X36220Y84646D02*
Y86890D01*
X11370Y97848D02*
Y98280D01*
Y97848D02*
X11831Y97388D01*
X13223D01*
X30295Y80315D01*
X68018Y87388D02*
X69370Y88740D01*
X11370Y69632D02*
X11831Y70093D01*
X9870Y78740D02*
X16870D01*
X18445Y77165D02*
X33465D01*
X16870Y78740D02*
X18445Y77165D01*
X30295Y80315D02*
X33465D01*
D15*
X364252Y215335D02*
D03*
Y217894D02*
D03*
Y220453D02*
D03*
Y223012D02*
D03*
Y225571D02*
D03*
Y228130D02*
D03*
Y230689D02*
D03*
Y233248D02*
D03*
Y235807D02*
D03*
Y238366D02*
D03*
X341417Y215335D02*
D03*
Y217894D02*
D03*
Y220453D02*
D03*
Y223012D02*
D03*
Y225571D02*
D03*
Y228130D02*
D03*
Y230689D02*
D03*
Y233248D02*
D03*
Y235807D02*
D03*
Y238366D02*
D03*
D16*
X354488Y206850D02*
D03*
X361181D02*
D03*
X195197Y101240D02*
D03*
X188504D02*
D03*
Y108740D02*
D03*
X195197D02*
D03*
X116457Y101240D02*
D03*
X109764D02*
D03*
Y108740D02*
D03*
X116457D02*
D03*
X222697Y190217D02*
D03*
X216004D02*
D03*
X143957D02*
D03*
X137264D02*
D03*
X65216D02*
D03*
X58524D02*
D03*
X37716Y101240D02*
D03*
X31024D02*
D03*
Y108740D02*
D03*
X37716D02*
D03*
D17*
X348681Y206850D02*
D03*
X341988D02*
D03*
X350335Y261850D02*
D03*
X357028D02*
D03*
X207106Y101240D02*
D03*
X200413D02*
D03*
X207106Y108740D02*
D03*
X200413D02*
D03*
X128366Y101240D02*
D03*
X121673D02*
D03*
X128366Y108740D02*
D03*
X121673D02*
D03*
X216004Y197717D02*
D03*
X222697D02*
D03*
X185197D02*
D03*
X178504D02*
D03*
X185197Y205217D02*
D03*
X178504D02*
D03*
X137264Y197717D02*
D03*
X143957D02*
D03*
X106457D02*
D03*
X99764D02*
D03*
X106457Y205217D02*
D03*
X99764D02*
D03*
X58524Y197717D02*
D03*
X65216D02*
D03*
X27717D02*
D03*
X21024D02*
D03*
X27717Y205217D02*
D03*
X21024D02*
D03*
X49626Y101240D02*
D03*
X42933D02*
D03*
X49626Y108740D02*
D03*
X42933D02*
D03*
D18*
X369685Y256850D02*
D03*
X375984D02*
D03*
X338484D02*
D03*
X332185D02*
D03*
X207500Y200217D02*
D03*
X201201D02*
D03*
X207500Y207717D02*
D03*
X201201D02*
D03*
X216201Y205217D02*
D03*
X222500D02*
D03*
Y235217D02*
D03*
X216201D02*
D03*
X128760Y200217D02*
D03*
X122461D02*
D03*
X128760Y207717D02*
D03*
X122461D02*
D03*
X137461Y205217D02*
D03*
X143760D02*
D03*
Y235217D02*
D03*
X137461D02*
D03*
X50020Y200217D02*
D03*
X43720D02*
D03*
X50020Y207717D02*
D03*
X43720D02*
D03*
X58720Y205217D02*
D03*
X65020D02*
D03*
Y235217D02*
D03*
X58720D02*
D03*
D19*
X289213Y7874D02*
D03*
X299213D02*
D03*
X309213D02*
D03*
X241968D02*
D03*
X251969D02*
D03*
X261968D02*
D03*
X289213Y208661D02*
D03*
X299213D02*
D03*
X309213D02*
D03*
X241968D02*
D03*
X251969D02*
D03*
X261968D02*
D03*
D20*
X301713Y47933D02*
D03*
X291713D02*
D03*
X311713D02*
D03*
X306713D02*
D03*
X296713D02*
D03*
X286713Y49803D02*
D03*
X254468Y47933D02*
D03*
X244468D02*
D03*
X264469D02*
D03*
X259469D02*
D03*
X249468D02*
D03*
X239469Y49803D02*
D03*
X301713Y248721D02*
D03*
X291713D02*
D03*
X311713D02*
D03*
X306713D02*
D03*
X296713D02*
D03*
X286713Y250590D02*
D03*
X254468Y248721D02*
D03*
X244468D02*
D03*
X264469D02*
D03*
X259469D02*
D03*
X249468D02*
D03*
X239469Y250590D02*
D03*
D21*
X311713Y47933D02*
Y20335D01*
X306439Y27030D02*
X299213Y19803D01*
X311713Y20335D02*
X312713Y19335D01*
X299213Y19803D02*
Y7874D01*
X294213Y19803D02*
Y17835D01*
X301439Y27030D02*
X294213Y19803D01*
X301439Y47660D02*
Y27030D01*
X301713Y47933D02*
X301439Y47660D01*
X290213Y14297D02*
X289213Y13297D01*
X290213Y25803D02*
Y14297D01*
X291439Y27030D02*
X290213Y25803D01*
X291439Y47660D02*
Y27030D01*
X291713Y47933D02*
X291439Y47660D01*
X306439D02*
Y27030D01*
X306713Y47933D02*
X306439Y47660D01*
X309213Y17835D02*
Y8386D01*
X308957Y8130D02*
X309213Y7874D01*
Y8386D02*
X308957Y8130D01*
X286713Y49803D02*
Y27303D01*
Y25689D02*
Y22303D01*
X286457Y25945D02*
X286713Y25689D01*
Y26201D02*
X286457Y25945D01*
X286713Y27303D02*
Y26201D01*
X264469Y47933D02*
Y20335D01*
X259195Y27030D02*
X251969Y19803D01*
X264469Y20335D02*
X265469Y19335D01*
X251969Y19803D02*
Y7874D01*
X246969Y19803D02*
Y17835D01*
X254195Y27030D02*
X246969Y19803D01*
X254195Y47660D02*
Y27030D01*
X254468Y47933D02*
X254195Y47660D01*
X242969Y14297D02*
X241968Y13297D01*
X242969Y25803D02*
Y14297D01*
X244195Y27030D02*
X242969Y25803D01*
X244195Y47660D02*
Y27030D01*
X244468Y47933D02*
X244195Y47660D01*
X259195D02*
Y27030D01*
X259469Y47933D02*
X259195Y47660D01*
X261968Y17835D02*
Y8386D01*
X261713Y8130D02*
X261968Y7874D01*
Y8386D02*
X261713Y8130D01*
X239469Y49803D02*
Y27303D01*
Y25689D02*
Y22303D01*
X239213Y25945D02*
X239469Y25689D01*
Y26201D02*
X239213Y25945D01*
X239469Y27303D02*
Y26201D01*
X311713Y248721D02*
Y221122D01*
X306439Y227817D02*
X299213Y220590D01*
X311713Y221122D02*
X312713Y220122D01*
X299213Y220590D02*
Y208661D01*
X294213Y220590D02*
Y218622D01*
X301439Y227817D02*
X294213Y220590D01*
X301439Y248447D02*
Y227817D01*
X301713Y248721D02*
X301439Y248447D01*
X290213Y215085D02*
X289213Y214085D01*
X290213Y226590D02*
Y215085D01*
X291439Y227817D02*
X290213Y226590D01*
X291439Y248447D02*
Y227817D01*
X291713Y248721D02*
X291439Y248447D01*
X306439D02*
Y227817D01*
X306713Y248721D02*
X306439Y248447D01*
X309213Y218622D02*
Y209173D01*
X308957Y208917D02*
X309213Y208661D01*
Y209173D02*
X308957Y208917D01*
X286713Y250590D02*
Y228091D01*
Y226476D02*
Y223091D01*
X286457Y226732D02*
X286713Y226476D01*
Y226988D02*
X286457Y226732D01*
X286713Y228091D02*
Y226988D01*
X264469Y248721D02*
Y221122D01*
X259195Y227817D02*
X251969Y220590D01*
X264469Y221122D02*
X265469Y220122D01*
X251969Y220590D02*
Y208661D01*
X246969Y220590D02*
Y218622D01*
X254195Y227817D02*
X246969Y220590D01*
X254195Y248447D02*
Y227817D01*
X254468Y248721D02*
X254195Y248447D01*
X242969Y215085D02*
X241968Y214085D01*
X242969Y226590D02*
Y215085D01*
X244195Y227817D02*
X242969Y226590D01*
X244195Y248447D02*
Y227817D01*
X244468Y248721D02*
X244195Y248447D01*
X259195D02*
Y227817D01*
X259469Y248721D02*
X259195Y248447D01*
X261968Y218622D02*
Y209173D01*
X261713Y208917D02*
X261968Y208661D01*
Y209173D02*
X261713Y208917D01*
X239469Y250590D02*
Y228091D01*
Y226476D02*
Y223091D01*
X239213Y226732D02*
X239469Y226476D01*
Y226988D02*
X239213Y226732D01*
X239469Y228091D02*
Y226988D01*
X196850Y227717D02*
X197675D01*
X194272D02*
X196850D01*
Y224154D02*
Y222185D01*
Y227717D02*
Y224154D01*
X192047Y217913D02*
X194047D01*
X192047D02*
X191850Y217717D01*
X196850Y220717D02*
X194047Y217913D01*
X198303Y227264D02*
X211398D01*
X197675Y227717D02*
X198127Y227264D01*
X198303D01*
X198350Y227217D01*
X196850Y222185D02*
Y220793D01*
Y215217D02*
Y214217D01*
X197774Y213293D02*
X211850D01*
X196850Y214217D02*
X197774Y213293D01*
X214063Y216183D02*
X215089Y215156D01*
X218308D01*
X215348Y225714D02*
X214111Y224478D01*
X215348Y225714D02*
X218745D01*
X219350Y226319D02*
X218745Y225714D01*
X218308Y215156D02*
X219350Y214114D01*
X211850Y200217D02*
Y197717D01*
Y182717D01*
Y207717D02*
Y205217D01*
Y200217D01*
X214398Y180169D02*
Y175264D01*
X214350Y175217D01*
X211850Y182717D02*
X214398Y180169D01*
X211850Y213293D02*
Y207717D01*
Y214498D02*
Y213293D01*
X194350Y262717D02*
X194291Y262657D01*
Y257087D01*
X219350Y220217D02*
X224350D01*
X214350D02*
X219350D01*
X118110Y227717D02*
X118934D01*
X115532D02*
X118110D01*
Y224154D02*
Y222185D01*
Y227717D02*
Y224154D01*
X113307Y217913D02*
X115307D01*
X113307D02*
X113110Y217717D01*
X118110Y220717D02*
X115307Y217913D01*
X119563Y227264D02*
X132658D01*
X118934Y227717D02*
X119387Y227264D01*
X119563D01*
X119610Y227217D01*
X118110Y222185D02*
Y220793D01*
Y215217D02*
Y214217D01*
X119034Y213293D02*
X133110D01*
X118110Y214217D02*
X119034Y213293D01*
X135322Y216183D02*
X136349Y215156D01*
X139568D01*
X136608Y225714D02*
X135371Y224478D01*
X136608Y225714D02*
X140005D01*
X140610Y226319D02*
X140005Y225714D01*
X139568Y215156D02*
X140610Y214114D01*
X133110Y200217D02*
Y197717D01*
Y182717D01*
Y207717D02*
Y205217D01*
Y200217D01*
X135658Y180169D02*
Y175264D01*
X135610Y175217D01*
X133110Y182717D02*
X135658Y180169D01*
X133110Y213293D02*
Y207717D01*
Y214498D02*
Y213293D01*
X115610Y262717D02*
X115551Y262657D01*
Y257087D01*
X140610Y220217D02*
X145610D01*
X135610D02*
X140610D01*
X39370Y227717D02*
X40194D01*
X36791D02*
X39370D01*
Y224154D02*
Y222185D01*
Y227717D02*
Y224154D01*
X34567Y217913D02*
X36567D01*
X34567D02*
X34370Y217717D01*
X39370Y220717D02*
X36567Y217913D01*
X40823Y227264D02*
X53917D01*
X40194Y227717D02*
X40647Y227264D01*
X40823D01*
X40870Y227217D01*
X39370Y222185D02*
Y220793D01*
Y215217D02*
Y214217D01*
X40293Y213293D02*
X54370D01*
X39370Y214217D02*
X40293Y213293D01*
X56582Y216183D02*
X57609Y215156D01*
X60828D01*
X57868Y225714D02*
X56631Y224478D01*
X57868Y225714D02*
X61265D01*
X61870Y226319D02*
X61265Y225714D01*
X60828Y215156D02*
X61870Y214114D01*
X54370Y200217D02*
Y197717D01*
Y182717D01*
Y207717D02*
Y205217D01*
Y200217D01*
X56918Y180169D02*
Y175264D01*
X56870Y175217D01*
X54370Y182717D02*
X56918Y180169D01*
X54370Y213293D02*
Y207717D01*
Y214498D02*
Y213293D01*
X36870Y262717D02*
X36811Y262657D01*
Y257087D01*
X61870Y220217D02*
X66870D01*
X56870D02*
X61870D01*
D22*
X212850Y29890D02*
D03*
Y23591D02*
D03*
X134110Y29890D02*
D03*
Y23591D02*
D03*
X55370Y29890D02*
D03*
Y23591D02*
D03*
D23*
X184252Y58720D02*
D03*
Y43760D02*
D03*
X209449D02*
D03*
Y58720D02*
D03*
X184252Y131220D02*
D03*
Y116260D02*
D03*
X209449D02*
D03*
Y131220D02*
D03*
X105512Y58720D02*
D03*
Y43760D02*
D03*
X130709D02*
D03*
Y58720D02*
D03*
X105512Y131220D02*
D03*
Y116260D02*
D03*
X130709D02*
D03*
Y131220D02*
D03*
X26772Y58720D02*
D03*
Y43760D02*
D03*
X51968D02*
D03*
Y58720D02*
D03*
X26772Y131220D02*
D03*
Y116260D02*
D03*
X51968D02*
D03*
Y131220D02*
D03*
D24*
X231850Y17087D02*
D03*
Y10394D02*
D03*
X153110Y17087D02*
D03*
Y10394D02*
D03*
X179350Y184370D02*
D03*
Y191063D02*
D03*
X100610Y184370D02*
D03*
Y191063D02*
D03*
X21870Y184370D02*
D03*
Y191063D02*
D03*
X74370Y17087D02*
D03*
Y10394D02*
D03*
D25*
X193701Y72835D02*
D03*
X195276D02*
D03*
X196850D02*
D03*
X198425D02*
D03*
X200000D02*
D03*
Y84646D02*
D03*
X198425D02*
D03*
X196850D02*
D03*
X195276D02*
D03*
X193701D02*
D03*
X114961Y72835D02*
D03*
X116535D02*
D03*
X118110D02*
D03*
X119685D02*
D03*
X121260D02*
D03*
Y84646D02*
D03*
X119685D02*
D03*
X118110D02*
D03*
X116535D02*
D03*
X114961D02*
D03*
X36220Y72835D02*
D03*
X37795D02*
D03*
X39370D02*
D03*
X40945D02*
D03*
X42520D02*
D03*
Y84646D02*
D03*
X40945D02*
D03*
X39370D02*
D03*
X37795D02*
D03*
X36220D02*
D03*
D26*
X202756Y75590D02*
D03*
Y77165D02*
D03*
Y78740D02*
D03*
Y80315D02*
D03*
Y81890D02*
D03*
X190945D02*
D03*
Y80315D02*
D03*
Y78740D02*
D03*
Y77165D02*
D03*
Y75590D02*
D03*
X124016D02*
D03*
Y77165D02*
D03*
Y78740D02*
D03*
Y80315D02*
D03*
Y81890D02*
D03*
X112205D02*
D03*
Y80315D02*
D03*
Y78740D02*
D03*
Y77165D02*
D03*
Y75590D02*
D03*
X45276D02*
D03*
Y77165D02*
D03*
Y78740D02*
D03*
Y80315D02*
D03*
Y81890D02*
D03*
X33465D02*
D03*
Y80315D02*
D03*
Y78740D02*
D03*
Y77165D02*
D03*
Y75590D02*
D03*
D27*
X196850Y78740D02*
D03*
X118110D02*
D03*
X39370D02*
D03*
D28*
X185610Y191949D02*
D03*
X193091D02*
D03*
Y183484D02*
D03*
X189350D02*
D03*
X106870Y191949D02*
D03*
X114350D02*
D03*
Y183484D02*
D03*
X110610D02*
D03*
X28130Y191949D02*
D03*
X35610D02*
D03*
Y183484D02*
D03*
X31870D02*
D03*
D29*
X185610Y183484D02*
D03*
X106870D02*
D03*
X28130D02*
D03*
D30*
X194272Y227717D02*
D03*
X184429D02*
D03*
X115532D02*
D03*
X105689D02*
D03*
X36791D02*
D03*
X26949D02*
D03*
D31*
X208957Y216280D02*
D03*
Y218248D02*
D03*
Y220217D02*
D03*
Y222185D02*
D03*
Y224154D02*
D03*
X199744Y216280D02*
D03*
Y218248D02*
D03*
Y220217D02*
D03*
Y222185D02*
D03*
Y224154D02*
D03*
X130217Y216280D02*
D03*
Y218248D02*
D03*
Y220217D02*
D03*
Y222185D02*
D03*
Y224154D02*
D03*
X121004Y216280D02*
D03*
Y218248D02*
D03*
Y220217D02*
D03*
Y222185D02*
D03*
Y224154D02*
D03*
X51476Y216280D02*
D03*
Y218248D02*
D03*
Y220217D02*
D03*
Y222185D02*
D03*
Y224154D02*
D03*
X42264Y216280D02*
D03*
Y218248D02*
D03*
Y220217D02*
D03*
Y222185D02*
D03*
Y224154D02*
D03*
D32*
X204350Y220217D02*
D03*
X125610D02*
D03*
X46870D02*
D03*
D33*
X219350Y214114D02*
D03*
X140610D02*
D03*
X61870D02*
D03*
D34*
X219350Y226319D02*
D03*
X140610D02*
D03*
X61870D02*
D03*
D35*
X191850Y217717D02*
D03*
X184370Y213976D02*
D03*
Y221457D02*
D03*
X113110Y217717D02*
D03*
X105630Y213976D02*
D03*
Y221457D02*
D03*
X34370Y217717D02*
D03*
X26890Y213976D02*
D03*
Y221457D02*
D03*
D36*
X196850Y257087D02*
D03*
X194291D02*
D03*
X191732D02*
D03*
X199409D02*
D03*
X201969D02*
D03*
X118110D02*
D03*
X115551D02*
D03*
X112992D02*
D03*
X120669D02*
D03*
X123228D02*
D03*
X39370D02*
D03*
X36811D02*
D03*
X34252D02*
D03*
X41929D02*
D03*
X44488D02*
D03*
D37*
X242500Y82500D02*
D03*
Y92500D02*
D03*
X252500D02*
D03*
Y82500D02*
D03*
X262500D02*
D03*
Y92500D02*
D03*
X272500D02*
D03*
Y82500D02*
D03*
X282500D02*
D03*
Y92500D02*
D03*
X292500D02*
D03*
Y82500D02*
D03*
X302500D02*
D03*
Y92500D02*
D03*
Y112500D02*
D03*
Y102500D02*
D03*
X292500D02*
D03*
Y112500D02*
D03*
X282500D02*
D03*
Y102500D02*
D03*
X272500D02*
D03*
Y112500D02*
D03*
X262500D02*
D03*
Y102500D02*
D03*
X252500D02*
D03*
Y112500D02*
D03*
X242500D02*
D03*
Y102500D02*
D03*
X302500Y132500D02*
D03*
Y122500D02*
D03*
X292500D02*
D03*
Y132500D02*
D03*
X282500D02*
D03*
Y122500D02*
D03*
X272500D02*
D03*
Y132500D02*
D03*
X262500D02*
D03*
Y122500D02*
D03*
X252500D02*
D03*
Y132500D02*
D03*
X242500D02*
D03*
Y122500D02*
D03*
Y182500D02*
D03*
Y192500D02*
D03*
X252500D02*
D03*
Y182500D02*
D03*
X262500D02*
D03*
Y192500D02*
D03*
X272500D02*
D03*
Y182500D02*
D03*
X282500D02*
D03*
Y192500D02*
D03*
X292500D02*
D03*
Y182500D02*
D03*
X302500D02*
D03*
Y192500D02*
D03*
X242500Y162500D02*
D03*
Y172500D02*
D03*
X252500D02*
D03*
Y162500D02*
D03*
X262500D02*
D03*
Y172500D02*
D03*
X272500D02*
D03*
Y162500D02*
D03*
X282500D02*
D03*
Y172500D02*
D03*
X292500D02*
D03*
Y162500D02*
D03*
X302500D02*
D03*
Y172500D02*
D03*
Y152500D02*
D03*
Y142500D02*
D03*
X292500D02*
D03*
Y152500D02*
D03*
X282500D02*
D03*
Y142500D02*
D03*
X272500D02*
D03*
Y152500D02*
D03*
X262500D02*
D03*
Y142500D02*
D03*
X252500D02*
D03*
Y152500D02*
D03*
X242500D02*
D03*
Y142500D02*
D03*
X324803Y128110D02*
D03*
X334766Y127673D02*
D03*
X344803Y128110D02*
D03*
X354803D02*
D03*
X364803D02*
D03*
X374803D02*
D03*
X384803D02*
D03*
Y108110D02*
D03*
Y118110D02*
D03*
X332835Y146850D02*
D03*
X342835D02*
D03*
Y166850D02*
D03*
Y156850D02*
D03*
X332835D02*
D03*
Y166850D02*
D03*
X342835Y186850D02*
D03*
Y176850D02*
D03*
X332835D02*
D03*
Y186850D02*
D03*
X322835Y176850D02*
D03*
Y186850D02*
D03*
X352835D02*
D03*
Y176850D02*
D03*
X362835D02*
D03*
Y186850D02*
D03*
X372835D02*
D03*
Y176850D02*
D03*
X382835D02*
D03*
Y186850D02*
D03*
X322835Y156850D02*
D03*
Y166850D02*
D03*
X352835D02*
D03*
Y156850D02*
D03*
X362835D02*
D03*
Y166850D02*
D03*
X372835D02*
D03*
Y156850D02*
D03*
X382835D02*
D03*
Y166850D02*
D03*
Y146850D02*
D03*
X372835D02*
D03*
X362835D02*
D03*
X352835D02*
D03*
X322835D02*
D03*
X362835Y266850D02*
D03*
X372835D02*
D03*
X201850Y8740D02*
D03*
X191850D02*
D03*
X201850Y18740D02*
D03*
X191850D02*
D03*
X201850Y28740D02*
D03*
X123110Y8740D02*
D03*
X113110D02*
D03*
X123110Y18740D02*
D03*
X113110D02*
D03*
X123110Y28740D02*
D03*
X161850Y162717D02*
D03*
Y152717D02*
D03*
Y142717D02*
D03*
X171850Y162717D02*
D03*
Y152717D02*
D03*
Y142717D02*
D03*
X181850Y162717D02*
D03*
Y152717D02*
D03*
Y142717D02*
D03*
X191850Y162717D02*
D03*
Y152717D02*
D03*
Y142717D02*
D03*
X201850Y162717D02*
D03*
Y152717D02*
D03*
Y142717D02*
D03*
X211850Y162717D02*
D03*
Y152717D02*
D03*
Y142717D02*
D03*
X221850Y162717D02*
D03*
Y152717D02*
D03*
Y142717D02*
D03*
X231850D02*
D03*
Y152717D02*
D03*
Y162717D02*
D03*
X83110D02*
D03*
Y152717D02*
D03*
Y142717D02*
D03*
X93110Y162717D02*
D03*
Y152717D02*
D03*
Y142717D02*
D03*
X103110Y162717D02*
D03*
Y152717D02*
D03*
Y142717D02*
D03*
X113110Y162717D02*
D03*
Y152717D02*
D03*
Y142717D02*
D03*
X123110Y162717D02*
D03*
Y152717D02*
D03*
Y142717D02*
D03*
X133110Y162717D02*
D03*
Y152717D02*
D03*
Y142717D02*
D03*
X143110Y162717D02*
D03*
Y152717D02*
D03*
Y142717D02*
D03*
X153110D02*
D03*
Y152717D02*
D03*
Y162717D02*
D03*
X4370D02*
D03*
Y152717D02*
D03*
Y142717D02*
D03*
X14370Y162717D02*
D03*
Y152717D02*
D03*
Y142717D02*
D03*
X24370Y162717D02*
D03*
Y152717D02*
D03*
Y142717D02*
D03*
X34370Y162717D02*
D03*
Y152717D02*
D03*
Y142717D02*
D03*
X44370Y162717D02*
D03*
Y152717D02*
D03*
Y142717D02*
D03*
X54370Y162717D02*
D03*
Y152717D02*
D03*
Y142717D02*
D03*
X64370Y162717D02*
D03*
Y152717D02*
D03*
Y142717D02*
D03*
X74370D02*
D03*
Y152717D02*
D03*
Y162717D02*
D03*
X44370Y8740D02*
D03*
X34370D02*
D03*
X44370Y18740D02*
D03*
X34370D02*
D03*
X44370Y28740D02*
D03*
D38*
X384803Y88110D02*
D03*
Y98110D02*
D03*
Y68110D02*
D03*
Y48110D02*
D03*
Y38110D02*
D03*
Y28110D02*
D03*
X324803Y38110D02*
D03*
Y48110D02*
D03*
X384803Y18110D02*
D03*
X344803Y8110D02*
D03*
X334803D02*
D03*
X324803D02*
D03*
Y18110D02*
D03*
Y28110D02*
D03*
Y58110D02*
D03*
Y68110D02*
D03*
Y78110D02*
D03*
Y88110D02*
D03*
Y98110D02*
D03*
Y108110D02*
D03*
X334803Y118110D02*
D03*
X344803D02*
D03*
X342835Y196850D02*
D03*
X191850Y28740D02*
D03*
X226850Y68740D02*
D03*
Y108740D02*
D03*
Y128740D02*
D03*
Y98740D02*
D03*
Y88740D02*
D03*
Y58740D02*
D03*
Y48740D02*
D03*
Y28740D02*
D03*
Y118740D02*
D03*
Y78740D02*
D03*
Y38740D02*
D03*
X166850Y28740D02*
D03*
Y38740D02*
D03*
X113110Y28740D02*
D03*
X148110Y68740D02*
D03*
Y108740D02*
D03*
Y128740D02*
D03*
Y98740D02*
D03*
Y88740D02*
D03*
Y58740D02*
D03*
Y48740D02*
D03*
Y28740D02*
D03*
Y118740D02*
D03*
Y78740D02*
D03*
Y38740D02*
D03*
X88110Y28740D02*
D03*
Y38740D02*
D03*
X221850Y247717D02*
D03*
X166850D02*
D03*
X214350Y175217D02*
D03*
X181850D02*
D03*
X166850Y237717D02*
D03*
Y217717D02*
D03*
Y227717D02*
D03*
X143110Y247717D02*
D03*
X88110D02*
D03*
X135610Y175217D02*
D03*
X103110D02*
D03*
X88110Y237717D02*
D03*
Y217717D02*
D03*
Y227717D02*
D03*
X64370Y247717D02*
D03*
X9370D02*
D03*
X56870Y175217D02*
D03*
X24370D02*
D03*
X9370Y237717D02*
D03*
Y217717D02*
D03*
Y227717D02*
D03*
X34370Y28740D02*
D03*
X69370Y68740D02*
D03*
Y108740D02*
D03*
Y128740D02*
D03*
Y98740D02*
D03*
Y88740D02*
D03*
Y58740D02*
D03*
Y48740D02*
D03*
Y28740D02*
D03*
Y118740D02*
D03*
Y78740D02*
D03*
Y38740D02*
D03*
X9370Y28740D02*
D03*
Y38740D02*
D03*
D39*
X366303Y90610D02*
D03*
X347303D02*
D03*
X362835Y251850D02*
D03*
X343835D02*
D03*
D40*
X324803Y118110D02*
D03*
X384803Y8110D02*
D03*
X374803D02*
D03*
X364803D02*
D03*
X354803D02*
D03*
X364803Y118110D02*
D03*
X384803Y78110D02*
D03*
X354803Y118110D02*
D03*
X374803D02*
D03*
X384803Y58110D02*
D03*
X322835Y226850D02*
D03*
Y216850D02*
D03*
Y206850D02*
D03*
Y196850D02*
D03*
X332835D02*
D03*
X352835D02*
D03*
X362835D02*
D03*
X372835D02*
D03*
X382835Y206850D02*
D03*
Y216850D02*
D03*
Y226850D02*
D03*
Y236850D02*
D03*
Y246850D02*
D03*
X382835Y256850D02*
D03*
X382835Y196850D02*
D03*
X322835Y256850D02*
D03*
Y246850D02*
D03*
Y266850D02*
D03*
Y236850D02*
D03*
X382835Y266850D02*
D03*
X166850Y68740D02*
D03*
Y128740D02*
D03*
Y108740D02*
D03*
Y98740D02*
D03*
Y88740D02*
D03*
Y58740D02*
D03*
Y48740D02*
D03*
Y118740D02*
D03*
Y78740D02*
D03*
X88110Y68740D02*
D03*
Y128740D02*
D03*
Y108740D02*
D03*
Y98740D02*
D03*
Y88740D02*
D03*
Y58740D02*
D03*
Y48740D02*
D03*
Y118740D02*
D03*
Y78740D02*
D03*
X9370Y68740D02*
D03*
Y128740D02*
D03*
Y108740D02*
D03*
Y98740D02*
D03*
Y88740D02*
D03*
Y58740D02*
D03*
Y48740D02*
D03*
Y118740D02*
D03*
Y78740D02*
D03*
D41*
X369803Y95610D02*
D03*
X377303Y80610D02*
D03*
X369803D02*
D03*
X352803Y97110D02*
D03*
X356803Y91110D02*
D03*
X352303Y83110D02*
D03*
X377303Y75610D02*
D03*
X335303Y39610D02*
D03*
X369803Y13110D02*
D03*
X359803Y98110D02*
D03*
X347303Y65610D02*
D03*
X354803D02*
D03*
X369803Y85610D02*
D03*
X339803Y43110D02*
D03*
X332303Y35610D02*
D03*
X379803Y3110D02*
D03*
Y123110D02*
D03*
X329803Y3110D02*
D03*
X319803Y113110D02*
D03*
X354803Y58110D02*
D03*
X347303Y53110D02*
D03*
X337303Y35610D02*
D03*
X389803Y123110D02*
D03*
X319803D02*
D03*
Y3110D02*
D03*
X389803D02*
D03*
X359803Y113110D02*
D03*
X374803Y35610D02*
D03*
X362303Y65610D02*
D03*
X389803Y113110D02*
D03*
X379803Y93110D02*
D03*
X339803D02*
D03*
X359803Y85610D02*
D03*
X342303Y35610D02*
D03*
X359803Y50610D02*
D03*
X372303Y20610D02*
D03*
X347303Y15610D02*
D03*
X377303Y18110D02*
D03*
X354803Y25610D02*
D03*
X389803Y13110D02*
D03*
X319803D02*
D03*
X329803Y123110D02*
D03*
X379803Y113110D02*
D03*
X330335Y229350D02*
D03*
X347835Y224350D02*
D03*
X344926Y244386D02*
D03*
X330312Y244350D02*
D03*
X357835Y221850D02*
D03*
X374835Y244350D02*
D03*
X367812D02*
D03*
X355335Y249350D02*
D03*
X352812Y266850D02*
D03*
X330312Y261850D02*
D03*
X337812D02*
D03*
X355335Y256850D02*
D03*
X330312Y249350D02*
D03*
X335335D02*
D03*
X370335Y226850D02*
D03*
X189350Y227717D02*
D03*
Y192717D02*
D03*
X229350Y235217D02*
D03*
X176850Y267717D02*
D03*
X216850D02*
D03*
X231850Y222717D02*
D03*
X166850Y207717D02*
D03*
X161850Y192717D02*
D03*
X206850Y175217D02*
D03*
X199350Y230217D02*
D03*
X194350Y210217D02*
D03*
X209350Y232717D02*
D03*
X196850Y267717D02*
D03*
X199350Y195217D02*
D03*
X206850D02*
D03*
X226850Y209567D02*
D03*
X219350Y185217D02*
D03*
X184350Y252717D02*
D03*
X196850Y200217D02*
D03*
Y207717D02*
D03*
X174350Y197717D02*
D03*
X189350Y177717D02*
D03*
X194350Y262717D02*
D03*
X224350Y220217D02*
D03*
X214350D02*
D03*
X219350D02*
D03*
X110610Y227717D02*
D03*
Y192717D02*
D03*
X150610Y235217D02*
D03*
X98110Y267717D02*
D03*
X138110D02*
D03*
X153110Y222717D02*
D03*
X88110Y207717D02*
D03*
X83110Y192717D02*
D03*
X128110Y175217D02*
D03*
X120610Y230217D02*
D03*
X115610Y210217D02*
D03*
X130610Y232717D02*
D03*
X118110Y267717D02*
D03*
X120610Y195217D02*
D03*
X128110D02*
D03*
X148110Y209567D02*
D03*
X140610Y185217D02*
D03*
X105610Y252717D02*
D03*
X118110Y200217D02*
D03*
Y207717D02*
D03*
X95610Y197717D02*
D03*
X110610Y177717D02*
D03*
X115610Y262717D02*
D03*
X145610Y220217D02*
D03*
X135610D02*
D03*
X140610D02*
D03*
X31870Y227717D02*
D03*
Y192717D02*
D03*
X71870Y235217D02*
D03*
X19370Y267717D02*
D03*
X59370D02*
D03*
X74370Y222717D02*
D03*
X9370Y207717D02*
D03*
X4370Y192717D02*
D03*
X49370Y175217D02*
D03*
X41870Y230217D02*
D03*
X36870Y210217D02*
D03*
X51870Y232717D02*
D03*
X39370Y267717D02*
D03*
X41870Y195217D02*
D03*
X49370D02*
D03*
X69370Y209567D02*
D03*
X61870Y185217D02*
D03*
X26870Y252717D02*
D03*
X39370Y200217D02*
D03*
Y207717D02*
D03*
X16870Y197717D02*
D03*
X31870Y177717D02*
D03*
X36870Y262717D02*
D03*
X66870Y220217D02*
D03*
X56870D02*
D03*
X61870D02*
D03*
D42*
X309213Y17835D02*
D03*
X286713Y67303D02*
D03*
Y49803D02*
D03*
X312713Y19335D02*
D03*
X294213Y17835D02*
D03*
X304213Y19803D02*
D03*
X286713Y22303D02*
D03*
Y27303D02*
D03*
X296713D02*
D03*
X261968Y17835D02*
D03*
X239469Y67303D02*
D03*
Y49803D02*
D03*
X265469Y19335D02*
D03*
X246969Y17835D02*
D03*
X256968Y19803D02*
D03*
X239469Y22303D02*
D03*
Y27303D02*
D03*
X249468D02*
D03*
X309213Y218622D02*
D03*
X286713Y268091D02*
D03*
Y250590D02*
D03*
X312713Y220122D02*
D03*
X294213Y218622D02*
D03*
X304213Y220590D02*
D03*
X286713Y223091D02*
D03*
Y228091D02*
D03*
X296713D02*
D03*
X261968Y218622D02*
D03*
X239469Y268091D02*
D03*
Y250590D02*
D03*
X265469Y220122D02*
D03*
X246969Y218622D02*
D03*
X256968Y220590D02*
D03*
X239469Y223091D02*
D03*
Y228091D02*
D03*
X249468D02*
D03*
X174350Y55240D02*
D03*
X160850Y23740D02*
D03*
X183850Y13740D02*
D03*
X221850Y83740D02*
D03*
X171850D02*
D03*
X187350Y72240D02*
D03*
X206850Y86240D02*
D03*
X207850Y96740D02*
D03*
X187850Y86240D02*
D03*
X196850Y96240D02*
D03*
Y35740D02*
D03*
X183850Y63740D02*
D03*
X204350Y51240D02*
D03*
X219350Y111740D02*
D03*
X199850Y67740D02*
D03*
X196850Y23740D02*
D03*
X191850Y43740D02*
D03*
X201850Y61240D02*
D03*
X212618Y34255D02*
D03*
X196850Y133740D02*
D03*
X161850Y113740D02*
D03*
X182850Y2740D02*
D03*
X176850Y24740D02*
D03*
X231850Y3740D02*
D03*
X193850Y2740D02*
D03*
X211260Y101240D02*
D03*
X231850Y21240D02*
D03*
X179350Y63740D02*
D03*
X176850Y131240D02*
D03*
X216850D02*
D03*
X211850Y123740D02*
D03*
X196850D02*
D03*
X181850Y72240D02*
D03*
X219350Y41240D02*
D03*
X211850Y3740D02*
D03*
X219350Y11240D02*
D03*
Y33740D02*
D03*
X231850Y133740D02*
D03*
X161850D02*
D03*
Y43740D02*
D03*
X219350Y16240D02*
D03*
X211850Y11240D02*
D03*
X216850Y83740D02*
D03*
Y73740D02*
D03*
X176850Y98740D02*
D03*
X196850Y51240D02*
D03*
X219350Y26240D02*
D03*
X160850Y2740D02*
D03*
X219350Y3740D02*
D03*
X184350Y31240D02*
D03*
X181850Y123740D02*
D03*
X179350Y111240D02*
D03*
X196850Y78740D02*
D03*
X176850Y58740D02*
D03*
X95610Y55240D02*
D03*
X82110Y23740D02*
D03*
X105110Y13740D02*
D03*
X143110Y83740D02*
D03*
X93110D02*
D03*
X108610Y72240D02*
D03*
X128110Y86240D02*
D03*
X129110Y96740D02*
D03*
X109110Y86240D02*
D03*
X118110Y96240D02*
D03*
Y35740D02*
D03*
X105110Y63740D02*
D03*
X125610Y51240D02*
D03*
X140610Y111740D02*
D03*
X121110Y67740D02*
D03*
X118110Y23740D02*
D03*
X113110Y43740D02*
D03*
X123110Y61240D02*
D03*
X133878Y34255D02*
D03*
X118110Y133740D02*
D03*
X83110Y113740D02*
D03*
X104110Y2740D02*
D03*
X98110Y24740D02*
D03*
X153110Y3740D02*
D03*
X115110Y2740D02*
D03*
X132520Y101240D02*
D03*
X153110Y21240D02*
D03*
X100610Y63740D02*
D03*
X98110Y131240D02*
D03*
X138110D02*
D03*
X133110Y123740D02*
D03*
X118110D02*
D03*
X103110Y72240D02*
D03*
X140610Y41240D02*
D03*
X133110Y3740D02*
D03*
X140610Y11240D02*
D03*
Y33740D02*
D03*
X153110Y133740D02*
D03*
X83110D02*
D03*
Y43740D02*
D03*
X140610Y16240D02*
D03*
X133110Y11240D02*
D03*
X138110Y83740D02*
D03*
Y73740D02*
D03*
X98110Y98740D02*
D03*
X118110Y51240D02*
D03*
X140610Y26240D02*
D03*
X82110Y2740D02*
D03*
X140610Y3740D02*
D03*
X105610Y31240D02*
D03*
X103110Y123740D02*
D03*
X100610Y111240D02*
D03*
X118110Y78740D02*
D03*
X98110Y58740D02*
D03*
X204350Y220217D02*
D03*
Y222717D02*
D03*
Y217717D02*
D03*
X125610Y220217D02*
D03*
Y222717D02*
D03*
Y217717D02*
D03*
X46870Y220217D02*
D03*
Y222717D02*
D03*
Y217717D02*
D03*
X16870Y55240D02*
D03*
X3370Y23740D02*
D03*
X26370Y13740D02*
D03*
X64370Y83740D02*
D03*
X14370D02*
D03*
X29870Y72240D02*
D03*
X49370Y86240D02*
D03*
X50370Y96740D02*
D03*
X30370Y86240D02*
D03*
X39370Y96240D02*
D03*
Y35740D02*
D03*
X26370Y63740D02*
D03*
X46870Y51240D02*
D03*
X61870Y111740D02*
D03*
X42370Y67740D02*
D03*
X39370Y23740D02*
D03*
X34370Y43740D02*
D03*
X44370Y61240D02*
D03*
X55138Y34255D02*
D03*
X39370Y133740D02*
D03*
X4370Y113740D02*
D03*
X25370Y2740D02*
D03*
X19370Y24740D02*
D03*
X74370Y3740D02*
D03*
X36370Y2740D02*
D03*
X53780Y101240D02*
D03*
X74370Y21240D02*
D03*
X21870Y63740D02*
D03*
X19370Y131240D02*
D03*
X59370D02*
D03*
X54370Y123740D02*
D03*
X39370D02*
D03*
X24370Y72240D02*
D03*
X61870Y41240D02*
D03*
X54370Y3740D02*
D03*
X61870Y11240D02*
D03*
Y33740D02*
D03*
X74370Y133740D02*
D03*
X4370D02*
D03*
Y43740D02*
D03*
X61870Y16240D02*
D03*
X54370Y11240D02*
D03*
X59370Y83740D02*
D03*
Y73740D02*
D03*
X19370Y98740D02*
D03*
X39370Y51240D02*
D03*
X61870Y26240D02*
D03*
X3370Y2740D02*
D03*
X61870Y3740D02*
D03*
X26870Y31240D02*
D03*
X24370Y123740D02*
D03*
X21870Y111240D02*
D03*
X39370Y78740D02*
D03*
X19370Y58740D02*
D03*
D43*
X176850Y8740D02*
D03*
Y18740D02*
D03*
X166850Y8740D02*
D03*
Y18740D02*
D03*
X98110Y8740D02*
D03*
Y18740D02*
D03*
X88110Y8740D02*
D03*
Y18740D02*
D03*
X19370Y8740D02*
D03*
Y18740D02*
D03*
X9370Y8740D02*
D03*
Y18740D02*
D03*
D44*
X199311Y175217D02*
D03*
X120571D02*
D03*
X41831D02*
D03*
D45*
X194390D02*
D03*
X115650D02*
D03*
X36909D02*
D03*
D46*
X183071Y267815D02*
D03*
X210630D02*
D03*
X104331D02*
D03*
X131890D02*
D03*
X25591D02*
D03*
X53150D02*
D03*
D47*
X187008Y257087D02*
D03*
X206693D02*
D03*
X108268D02*
D03*
X127953D02*
D03*
X29528D02*
D03*
X49213D02*
D03*
D48*
X165354Y177165D02*
D03*
Y267717D02*
D03*
X228346Y177165D02*
D03*
Y267717D02*
D03*
X86614Y177165D02*
D03*
Y267717D02*
D03*
X149606Y177165D02*
D03*
Y267717D02*
D03*
X7874Y177165D02*
D03*
Y267717D02*
D03*
X70866Y177165D02*
D03*
Y267717D02*
D03*
M02*
