G04*
G04 #@! TF.GenerationSoftware,Altium Limited,Altium Designer,20.1.12 (249)*
G04*
G04 Layer_Physical_Order=2*
G04 Layer_Color=16711680*
%FSLAX25Y25*%
%MOIN*%
G70*
G04*
G04 #@! TF.SameCoordinates,93090BFA-B333-45B1-ADBD-1567DB3BF8F2*
G04*
G04*
G04 #@! TF.FilePolarity,Positive*
G04*
G01*
G75*
%ADD12R,0.03937X0.03937*%
%ADD13R,0.03937X0.03543*%
%ADD14C,0.00984*%
%ADD17R,0.03543X0.03937*%
%ADD18R,0.03937X0.03937*%
G04:AMPARAMS|DCode=19|XSize=78.74mil|YSize=127.95mil|CornerRadius=0mil|HoleSize=0mil|Usage=FLASHONLY|Rotation=360.000|XOffset=0mil|YOffset=0mil|HoleType=Round|Shape=Octagon|*
%AMOCTAGOND19*
4,1,8,-0.01968,0.06398,0.01968,0.06398,0.03937,0.04429,0.03937,-0.04429,0.01968,-0.06398,-0.01968,-0.06398,-0.03937,-0.04429,-0.03937,0.04429,-0.01968,0.06398,0.0*
%
%ADD19OCTAGOND19*%

%ADD21C,0.01968*%
%ADD22R,0.03937X0.03937*%
G04:AMPARAMS|DCode=24|XSize=31.5mil|YSize=31.5mil|CornerRadius=3.94mil|HoleSize=0mil|Usage=FLASHONLY|Rotation=270.000|XOffset=0mil|YOffset=0mil|HoleType=Round|Shape=RoundedRectangle|*
%AMROUNDEDRECTD24*
21,1,0.03150,0.02362,0,0,270.0*
21,1,0.02362,0.03150,0,0,270.0*
1,1,0.00787,-0.01181,-0.01181*
1,1,0.00787,-0.01181,0.01181*
1,1,0.00787,0.01181,0.01181*
1,1,0.00787,0.01181,-0.01181*
%
%ADD24ROUNDEDRECTD24*%
%ADD37C,0.05906*%
%ADD38R,0.05906X0.05906*%
%ADD39C,0.06000*%
%ADD40R,0.05906X0.05906*%
%ADD41C,0.02362*%
%ADD42C,0.01968*%
G04:AMPARAMS|DCode=43|XSize=66.93mil|YSize=66.93mil|CornerRadius=16.73mil|HoleSize=0mil|Usage=FLASHONLY|Rotation=0.000|XOffset=0mil|YOffset=0mil|HoleType=Round|Shape=RoundedRectangle|*
%AMROUNDEDRECTD43*
21,1,0.06693,0.03347,0,0,0.0*
21,1,0.03347,0.06693,0,0,0.0*
1,1,0.03346,0.01673,-0.01673*
1,1,0.03346,-0.01673,-0.01673*
1,1,0.03346,-0.01673,0.01673*
1,1,0.03346,0.01673,0.01673*
%
%ADD43ROUNDEDRECTD43*%
%ADD44O,0.03937X0.06063*%
%ADD45R,0.03937X0.06000*%
G04:AMPARAMS|DCode=46|XSize=66.93mil|YSize=55.12mil|CornerRadius=13.78mil|HoleSize=0mil|Usage=FLASHONLY|Rotation=270.000|XOffset=0mil|YOffset=0mil|HoleType=Round|Shape=RoundedRectangle|*
%AMROUNDEDRECTD46*
21,1,0.06693,0.02756,0,0,270.0*
21,1,0.03937,0.05512,0,0,270.0*
1,1,0.02756,-0.01378,-0.01968*
1,1,0.02756,-0.01378,0.01968*
1,1,0.02756,0.01378,0.01968*
1,1,0.02756,0.01378,-0.01968*
%
%ADD46ROUNDEDRECTD46*%
G04:AMPARAMS|DCode=47|XSize=60mil|YSize=49.21mil|CornerRadius=12.3mil|HoleSize=0mil|Usage=FLASHONLY|Rotation=180.000|XOffset=0mil|YOffset=0mil|HoleType=Round|Shape=RoundedRectangle|*
%AMROUNDEDRECTD47*
21,1,0.06000,0.02461,0,0,180.0*
21,1,0.03539,0.04921,0,0,180.0*
1,1,0.02461,-0.01770,0.01230*
1,1,0.02461,0.01770,0.01230*
1,1,0.02461,0.01770,-0.01230*
1,1,0.02461,-0.01770,-0.01230*
%
%ADD47ROUNDEDRECTD47*%
%ADD48C,0.11811*%
%ADD49R,0.10630X0.03937*%
%ADD50R,0.10630X0.12992*%
%ADD51R,0.12992X0.10630*%
%ADD52R,0.03937X0.10630*%
%ADD53R,0.07874X0.12795*%
%ADD54R,0.01968X0.02362*%
G36*
X224865Y273686D02*
X224491Y273486D01*
X223440Y272623D01*
X222577Y271572D01*
X221936Y270372D01*
X221541Y269070D01*
X221457Y268217D01*
X228346D01*
Y267717D01*
X228847D01*
Y260827D01*
X229700Y260911D01*
X231002Y261306D01*
X232202Y261947D01*
X233253Y262810D01*
X234116Y263861D01*
X234315Y264235D01*
X234816Y264110D01*
Y180772D01*
X234315Y180647D01*
X234116Y181020D01*
X233253Y182072D01*
X232202Y182935D01*
X231002Y183576D01*
X229700Y183971D01*
X228847Y184055D01*
Y170276D01*
X229700Y170360D01*
X231002Y170755D01*
X232202Y171396D01*
X233253Y172259D01*
X234116Y173310D01*
X234315Y173684D01*
X234816Y173558D01*
Y169291D01*
X158885D01*
Y173558D01*
X159385Y173684D01*
X159585Y173310D01*
X160448Y172259D01*
X161499Y171396D01*
X162699Y170755D01*
X164001Y170360D01*
X164854Y170276D01*
Y184055D01*
X164001Y183971D01*
X162699Y183576D01*
X161499Y182935D01*
X160448Y182072D01*
X159585Y181020D01*
X159385Y180647D01*
X158885Y180772D01*
Y264110D01*
X159385Y264235D01*
X159585Y263861D01*
X160448Y262810D01*
X161499Y261947D01*
X162699Y261306D01*
X164001Y260911D01*
X164854Y260827D01*
Y267717D01*
X165354D01*
Y268217D01*
X172244D01*
X172160Y269070D01*
X171765Y270372D01*
X171124Y271572D01*
X170261Y272623D01*
X169209Y273486D01*
X168836Y273686D01*
X168961Y274186D01*
X224740D01*
X224865Y273686D01*
D02*
G37*
G36*
X146125D02*
X145751Y273486D01*
X144700Y272623D01*
X143837Y271572D01*
X143196Y270372D01*
X142801Y269070D01*
X142717Y268217D01*
X149606D01*
Y267717D01*
X150106D01*
Y260827D01*
X150960Y260911D01*
X152262Y261306D01*
X153461Y261947D01*
X154513Y262810D01*
X155376Y263861D01*
X155575Y264235D01*
X156075Y264110D01*
Y180772D01*
X155575Y180647D01*
X155376Y181020D01*
X154513Y182072D01*
X153461Y182935D01*
X152262Y183576D01*
X150960Y183971D01*
X150106Y184055D01*
Y170276D01*
X150960Y170360D01*
X152262Y170755D01*
X153461Y171396D01*
X154513Y172259D01*
X155376Y173310D01*
X155575Y173684D01*
X156075Y173558D01*
Y169291D01*
X80145D01*
Y173558D01*
X80645Y173684D01*
X80845Y173310D01*
X81708Y172259D01*
X82759Y171396D01*
X83959Y170755D01*
X85260Y170360D01*
X86114Y170276D01*
Y184055D01*
X85260Y183971D01*
X83959Y183576D01*
X82759Y182935D01*
X81708Y182072D01*
X80845Y181020D01*
X80645Y180647D01*
X80145Y180772D01*
Y264110D01*
X80645Y264235D01*
X80845Y263861D01*
X81708Y262810D01*
X82759Y261947D01*
X83959Y261306D01*
X85260Y260911D01*
X86114Y260827D01*
Y267717D01*
X86614D01*
Y268217D01*
X93504D01*
X93420Y269070D01*
X93025Y270372D01*
X92384Y271572D01*
X91521Y272623D01*
X90469Y273486D01*
X90096Y273686D01*
X90221Y274186D01*
X145999D01*
X146125Y273686D01*
D02*
G37*
G36*
X67384D02*
X67011Y273486D01*
X65960Y272623D01*
X65097Y271572D01*
X64455Y270372D01*
X64061Y269070D01*
X63977Y268217D01*
X70866D01*
Y267717D01*
X71366D01*
Y260827D01*
X72220Y260911D01*
X73522Y261306D01*
X74721Y261947D01*
X75773Y262810D01*
X76636Y263861D01*
X76835Y264235D01*
X77335Y264110D01*
Y180772D01*
X76835Y180647D01*
X76636Y181020D01*
X75773Y182072D01*
X74721Y182935D01*
X73522Y183576D01*
X72220Y183971D01*
X71366Y184055D01*
Y170276D01*
X72220Y170360D01*
X73522Y170755D01*
X74721Y171396D01*
X75773Y172259D01*
X76636Y173310D01*
X76835Y173684D01*
X77335Y173558D01*
Y169291D01*
X1405D01*
Y173558D01*
X1905Y173684D01*
X2104Y173310D01*
X2967Y172259D01*
X4019Y171396D01*
X5219Y170755D01*
X6520Y170360D01*
X7374Y170276D01*
Y184055D01*
X6520Y183971D01*
X5219Y183576D01*
X4019Y182935D01*
X2967Y182072D01*
X2104Y181020D01*
X1905Y180647D01*
X1405Y180772D01*
Y264110D01*
X1905Y264235D01*
X2104Y263861D01*
X2967Y262810D01*
X4019Y261947D01*
X5219Y261306D01*
X6520Y260911D01*
X7374Y260827D01*
Y267717D01*
X7874D01*
Y268217D01*
X14764D01*
X14680Y269070D01*
X14285Y270372D01*
X13644Y271572D01*
X12781Y272623D01*
X11729Y273486D01*
X11356Y273686D01*
X11481Y274186D01*
X67259D01*
X67384Y273686D01*
D02*
G37*
G36*
X314961Y221201D02*
X314461Y221049D01*
X314132Y221541D01*
X313481Y221976D01*
X312713Y222129D01*
X311945Y221976D01*
X311293Y221541D01*
X310858Y220890D01*
X310705Y220122D01*
Y218091D01*
X301220D01*
Y225590D01*
X301220Y225591D01*
Y230591D01*
X301147Y230957D01*
X301181Y231457D01*
X301181Y231457D01*
X301181Y231457D01*
Y239724D01*
X300718D01*
Y242222D01*
X300931Y242265D01*
X301387Y242569D01*
X301692Y243025D01*
X301799Y243563D01*
Y245925D01*
X301692Y246463D01*
X301387Y246919D01*
X301181Y247056D01*
Y249125D01*
X301387Y249262D01*
X301692Y249718D01*
X301799Y250256D01*
Y252618D01*
X301797Y252629D01*
X299909Y250741D01*
X299213Y251437D01*
X298517Y250741D01*
X296629Y252629D01*
X296626Y252618D01*
Y250256D01*
X296733Y249718D01*
X297038Y249262D01*
X297244Y249125D01*
Y247056D01*
X297038Y246919D01*
X296733Y246463D01*
X296626Y245925D01*
Y243563D01*
X296733Y243025D01*
X297038Y242569D01*
X297494Y242265D01*
X297707Y242222D01*
Y239724D01*
X297244D01*
Y231457D01*
X297244Y231457D01*
X297244D01*
X297278Y230957D01*
X297205Y230591D01*
Y230098D01*
X296713D01*
X295944Y229945D01*
X295293Y229510D01*
X294858Y228859D01*
X294706Y228091D01*
X294858Y227323D01*
X295293Y226671D01*
X295944Y226236D01*
X296713Y226083D01*
X297205D01*
Y225591D01*
X297205Y225590D01*
Y218091D01*
X296508D01*
X296191Y218477D01*
X296220Y218622D01*
X296067Y219390D01*
X295632Y220041D01*
X294981Y220476D01*
X294213Y220629D01*
X291713D01*
X290945Y220476D01*
X290293Y220041D01*
X288343Y218091D01*
X284213D01*
Y213090D01*
X284291D01*
Y204724D01*
X283465D01*
Y275590D01*
X314961D01*
Y221201D01*
D02*
G37*
G36*
X267717D02*
X267216Y221049D01*
X266888Y221541D01*
X266237Y221976D01*
X265469Y222129D01*
X264700Y221976D01*
X264049Y221541D01*
X263614Y220890D01*
X263461Y220122D01*
Y218091D01*
X253976D01*
Y225590D01*
X253976Y225591D01*
Y230591D01*
X253903Y230957D01*
X253937Y231457D01*
X253937Y231457D01*
X253937Y231457D01*
Y239724D01*
X253474D01*
Y242222D01*
X253687Y242265D01*
X254143Y242569D01*
X254448Y243025D01*
X254555Y243563D01*
Y245925D01*
X254448Y246463D01*
X254143Y246919D01*
X253937Y247056D01*
Y249125D01*
X254143Y249262D01*
X254448Y249718D01*
X254555Y250256D01*
Y252618D01*
X254552Y252629D01*
X252664Y250741D01*
X251969Y251437D01*
X251273Y250741D01*
X249385Y252629D01*
X249382Y252618D01*
Y250256D01*
X249489Y249718D01*
X249794Y249262D01*
X250000Y249125D01*
Y247056D01*
X249794Y246919D01*
X249489Y246463D01*
X249382Y245925D01*
Y243563D01*
X249489Y243025D01*
X249794Y242569D01*
X250250Y242265D01*
X250463Y242222D01*
Y239724D01*
X250000D01*
Y231457D01*
X250000Y231457D01*
X250000D01*
X250034Y230957D01*
X249961Y230591D01*
Y230098D01*
X249468D01*
X248700Y229945D01*
X248049Y229510D01*
X247614Y228859D01*
X247461Y228091D01*
X247614Y227323D01*
X248049Y226671D01*
X248700Y226236D01*
X249468Y226083D01*
X249961D01*
Y225591D01*
X249961Y225590D01*
Y218091D01*
X249264D01*
X248947Y218477D01*
X248976Y218622D01*
X248823Y219390D01*
X248388Y220041D01*
X247737Y220476D01*
X246969Y220629D01*
X244468D01*
X243700Y220476D01*
X243049Y220041D01*
X241099Y218091D01*
X236968D01*
Y213090D01*
X237047D01*
Y204724D01*
X236221D01*
Y275590D01*
X267717D01*
Y221201D01*
D02*
G37*
G36*
X387835Y191850D02*
X317835D01*
Y271850D01*
X387835D01*
Y191850D01*
D02*
G37*
G36*
X351855Y125162D02*
X352718Y124499D01*
X353724Y124083D01*
X354803Y123941D01*
X355882Y124083D01*
X356888Y124499D01*
X357751Y125162D01*
X358382Y125984D01*
X361224D01*
X361855Y125162D01*
X362718Y124499D01*
X363724Y124083D01*
X364803Y123941D01*
X365882Y124083D01*
X366888Y124499D01*
X367752Y125162D01*
X368382Y125984D01*
X371224D01*
X371855Y125162D01*
X372718Y124499D01*
X373724Y124083D01*
X374803Y123941D01*
X375882Y124083D01*
X376888Y124499D01*
X377751Y125162D01*
X378382Y125984D01*
X381224D01*
X381855Y125162D01*
X382718Y124499D01*
X383724Y124083D01*
X384803Y123941D01*
X385882Y124083D01*
X386888Y124499D01*
X387752Y125162D01*
X388382Y125984D01*
X391732D01*
Y1405D01*
X316929D01*
Y125984D01*
X321224D01*
X321855Y125162D01*
X322718Y124499D01*
X323724Y124083D01*
X324803Y123941D01*
X325882Y124083D01*
X326888Y124499D01*
X327751Y125162D01*
X328382Y125984D01*
X330991D01*
X331155Y125589D01*
X331818Y124725D01*
X332681Y124062D01*
X333687Y123646D01*
X334766Y123504D01*
X335845Y123646D01*
X336851Y124062D01*
X337714Y124725D01*
X338377Y125589D01*
X338541Y125984D01*
X341224D01*
X341855Y125162D01*
X342718Y124499D01*
X343724Y124083D01*
X344803Y123941D01*
X345882Y124083D01*
X346888Y124499D01*
X347751Y125162D01*
X348382Y125984D01*
X351224D01*
X351855Y125162D01*
D02*
G37*
G36*
X314961Y20413D02*
X314461Y20262D01*
X314132Y20754D01*
X313481Y21189D01*
X312713Y21342D01*
X311945Y21189D01*
X311293Y20754D01*
X310858Y20103D01*
X310705Y19335D01*
Y17303D01*
X301220D01*
Y24803D01*
X301220Y24803D01*
Y29803D01*
X301147Y30169D01*
X301181Y30669D01*
X301181Y30669D01*
X301181Y30669D01*
Y38937D01*
X300718D01*
Y41435D01*
X300931Y41478D01*
X301387Y41782D01*
X301692Y42238D01*
X301799Y42776D01*
Y45138D01*
X301692Y45676D01*
X301387Y46131D01*
X301181Y46269D01*
Y48337D01*
X301387Y48475D01*
X301692Y48931D01*
X301799Y49468D01*
Y51831D01*
X301797Y51842D01*
X299909Y49954D01*
X299213Y50650D01*
X298517Y49954D01*
X296629Y51841D01*
X296626Y51831D01*
Y49468D01*
X296733Y48931D01*
X297038Y48475D01*
X297244Y48337D01*
Y46269D01*
X297038Y46131D01*
X296733Y45676D01*
X296626Y45138D01*
Y42776D01*
X296733Y42238D01*
X297038Y41782D01*
X297494Y41478D01*
X297707Y41435D01*
Y38937D01*
X297244D01*
Y30669D01*
X297244Y30669D01*
X297244D01*
X297278Y30169D01*
X297205Y29803D01*
Y29310D01*
X296713D01*
X295944Y29157D01*
X295293Y28722D01*
X294858Y28071D01*
X294706Y27303D01*
X294858Y26535D01*
X295293Y25884D01*
X295944Y25449D01*
X296713Y25296D01*
X297205D01*
Y24803D01*
X297205Y24803D01*
Y17303D01*
X296508D01*
X296191Y17690D01*
X296220Y17835D01*
X296067Y18603D01*
X295632Y19254D01*
X294981Y19689D01*
X294213Y19842D01*
X291713D01*
X290945Y19689D01*
X290293Y19254D01*
X288343Y17303D01*
X284213D01*
Y12303D01*
X284291D01*
Y3937D01*
X283465D01*
Y74803D01*
X314961D01*
Y20413D01*
D02*
G37*
G36*
X267717D02*
X267216Y20262D01*
X266888Y20754D01*
X266237Y21189D01*
X265469Y21342D01*
X264700Y21189D01*
X264049Y20754D01*
X263614Y20103D01*
X263461Y19335D01*
Y17303D01*
X253976D01*
Y24803D01*
X253976Y24803D01*
Y29803D01*
X253903Y30169D01*
X253937Y30669D01*
X253937Y30669D01*
X253937Y30669D01*
Y38937D01*
X253474D01*
Y41435D01*
X253687Y41478D01*
X254143Y41782D01*
X254448Y42238D01*
X254555Y42776D01*
Y45138D01*
X254448Y45676D01*
X254143Y46131D01*
X253937Y46269D01*
Y48337D01*
X254143Y48475D01*
X254448Y48931D01*
X254555Y49468D01*
Y51831D01*
X254552Y51842D01*
X252664Y49954D01*
X251969Y50650D01*
X251273Y49954D01*
X249385Y51841D01*
X249382Y51831D01*
Y49468D01*
X249489Y48931D01*
X249794Y48475D01*
X250000Y48337D01*
Y46269D01*
X249794Y46131D01*
X249489Y45676D01*
X249382Y45138D01*
Y42776D01*
X249489Y42238D01*
X249794Y41782D01*
X250250Y41478D01*
X250463Y41435D01*
Y38937D01*
X250000D01*
Y30669D01*
X250000Y30669D01*
X250000D01*
X250034Y30169D01*
X249961Y29803D01*
Y29310D01*
X249468D01*
X248700Y29157D01*
X248049Y28722D01*
X247614Y28071D01*
X247461Y27303D01*
X247614Y26535D01*
X248049Y25884D01*
X248700Y25449D01*
X249468Y25296D01*
X249961D01*
Y24803D01*
X249961Y24803D01*
Y17303D01*
X249264D01*
X248947Y17690D01*
X248976Y17835D01*
X248823Y18603D01*
X248388Y19254D01*
X247737Y19689D01*
X246969Y19842D01*
X244468D01*
X243700Y19689D01*
X243049Y19254D01*
X241099Y17303D01*
X236968D01*
Y12303D01*
X237047D01*
Y3937D01*
X236221D01*
Y74803D01*
X267717D01*
Y20413D01*
D02*
G37*
G36*
X235016Y1204D02*
X158685D01*
Y136591D01*
X235016D01*
Y1204D01*
D02*
G37*
G36*
X156276D02*
X79944D01*
Y136591D01*
X156276D01*
Y1204D01*
D02*
G37*
G36*
X77536D02*
X1204D01*
Y136591D01*
X77536D01*
Y1204D01*
D02*
G37*
%LPC*%
G36*
X212008Y272365D02*
X209252D01*
X208584Y272277D01*
X207961Y272019D01*
X207427Y271609D01*
X207017Y271074D01*
X206759Y270451D01*
X206671Y269783D01*
Y265846D01*
X206759Y265178D01*
X207017Y264556D01*
X207427Y264021D01*
X207961Y263611D01*
X208584Y263353D01*
X209252Y263265D01*
X212008D01*
X212676Y263353D01*
X213299Y263611D01*
X213833Y264021D01*
X214243Y264556D01*
X214501Y265178D01*
X214589Y265846D01*
Y269783D01*
X214501Y270451D01*
X214243Y271074D01*
X213833Y271609D01*
X213299Y272019D01*
X212676Y272277D01*
X212008Y272365D01*
D02*
G37*
G36*
X184449D02*
X181693D01*
X181025Y272277D01*
X180402Y272019D01*
X179868Y271609D01*
X179458Y271074D01*
X179200Y270451D01*
X179112Y269783D01*
Y265846D01*
X179200Y265178D01*
X179458Y264556D01*
X179868Y264021D01*
X180402Y263611D01*
X181025Y263353D01*
X181693Y263265D01*
X184449D01*
X185117Y263353D01*
X185739Y263611D01*
X186274Y264021D01*
X186684Y264556D01*
X186942Y265178D01*
X187030Y265846D01*
Y269783D01*
X186942Y270451D01*
X186684Y271074D01*
X186274Y271609D01*
X185739Y272019D01*
X185117Y272277D01*
X184449Y272365D01*
D02*
G37*
G36*
X227847Y267217D02*
X221457D01*
X221541Y266363D01*
X221936Y265061D01*
X222577Y263861D01*
X223440Y262810D01*
X224491Y261947D01*
X225691Y261306D01*
X226993Y260911D01*
X227847Y260827D01*
Y267217D01*
D02*
G37*
G36*
X172244D02*
X165854D01*
Y260827D01*
X166708Y260911D01*
X168010Y261306D01*
X169209Y261947D01*
X170261Y262810D01*
X171124Y263861D01*
X171765Y265061D01*
X172160Y266363D01*
X172244Y267217D01*
D02*
G37*
G36*
X208463Y260776D02*
X204923D01*
X203982Y260589D01*
X203185Y260055D01*
X202652Y259258D01*
X202465Y258317D01*
Y255856D01*
X202652Y254915D01*
X203185Y254118D01*
X203982Y253585D01*
X204923Y253398D01*
X208463D01*
X209403Y253585D01*
X210201Y254118D01*
X210734Y254915D01*
X210921Y255856D01*
Y258317D01*
X210734Y259258D01*
X210201Y260055D01*
X209403Y260589D01*
X208463Y260776D01*
D02*
G37*
G36*
X188778D02*
X185238D01*
X184297Y260589D01*
X183500Y260055D01*
X182967Y259258D01*
X182780Y258317D01*
Y255856D01*
X182967Y254915D01*
X183500Y254118D01*
X184297Y253585D01*
X185238Y253398D01*
X188778D01*
X189718Y253585D01*
X190516Y254118D01*
X191049Y254915D01*
X191236Y255856D01*
Y258317D01*
X191049Y259258D01*
X190516Y260055D01*
X189718Y260589D01*
X188778Y260776D01*
D02*
G37*
G36*
X170803Y251669D02*
X167350D01*
Y248217D01*
X170803D01*
Y251669D01*
D02*
G37*
G36*
X166350D02*
X162898D01*
Y248217D01*
X166350D01*
Y251669D01*
D02*
G37*
G36*
X170803Y247217D02*
X167350D01*
Y243764D01*
X170803D01*
Y247217D01*
D02*
G37*
G36*
X166350D02*
X162898D01*
Y243764D01*
X166350D01*
Y247217D01*
D02*
G37*
G36*
X225984Y251850D02*
X217717D01*
Y243583D01*
X225984D01*
Y251850D01*
D02*
G37*
G36*
X170984Y241850D02*
X162717D01*
Y233583D01*
X170984D01*
Y241850D01*
D02*
G37*
G36*
Y231850D02*
X162717D01*
Y223583D01*
X170984D01*
Y231850D01*
D02*
G37*
G36*
X204850Y224640D02*
Y223217D01*
X206274D01*
X206220Y223491D01*
X205781Y224147D01*
X205125Y224586D01*
X204850Y224640D01*
D02*
G37*
G36*
X203850D02*
X203576Y224586D01*
X202920Y224147D01*
X202481Y223491D01*
X202427Y223217D01*
X203850D01*
Y224640D01*
D02*
G37*
G36*
X206274Y222217D02*
X202427D01*
X202481Y221942D01*
X202799Y221467D01*
X202481Y220991D01*
X202427Y220717D01*
X206274D01*
X206220Y220991D01*
X205902Y221467D01*
X206220Y221942D01*
X206274Y222217D01*
D02*
G37*
G36*
Y219717D02*
X202427D01*
X202481Y219442D01*
X202799Y218967D01*
X202481Y218491D01*
X202427Y218217D01*
X206274D01*
X206220Y218491D01*
X205902Y218967D01*
X206220Y219442D01*
X206274Y219717D01*
D02*
G37*
G36*
Y217217D02*
X204850D01*
Y215793D01*
X205125Y215847D01*
X205781Y216286D01*
X206220Y216942D01*
X206274Y217217D01*
D02*
G37*
G36*
X203850D02*
X202427D01*
X202481Y216942D01*
X202920Y216286D01*
X203576Y215847D01*
X203850Y215793D01*
Y217217D01*
D02*
G37*
G36*
X170984Y221850D02*
X162717D01*
Y213583D01*
X170984D01*
Y221850D01*
D02*
G37*
G36*
X227847Y184055D02*
X226993Y183971D01*
X225691Y183576D01*
X224491Y182935D01*
X223440Y182072D01*
X222577Y181020D01*
X221936Y179821D01*
X221541Y178519D01*
X221457Y177665D01*
X227847D01*
Y184055D01*
D02*
G37*
G36*
X165854D02*
Y177665D01*
X172244D01*
X172160Y178519D01*
X171765Y179821D01*
X171124Y181020D01*
X170261Y182072D01*
X169209Y182935D01*
X168010Y183576D01*
X166708Y183971D01*
X165854Y184055D01*
D02*
G37*
G36*
X199811Y179208D02*
Y175717D01*
X202305D01*
Y176279D01*
X202203Y177055D01*
X201904Y177777D01*
X201428Y178397D01*
X200808Y178873D01*
X200086Y179172D01*
X199811Y179208D01*
D02*
G37*
G36*
X185803Y179169D02*
X182350D01*
Y175717D01*
X185803D01*
Y179169D01*
D02*
G37*
G36*
X181350D02*
X177898D01*
Y175717D01*
X181350D01*
Y179169D01*
D02*
G37*
G36*
X185803Y174717D02*
X182350D01*
Y171264D01*
X185803D01*
Y174717D01*
D02*
G37*
G36*
X181350D02*
X177898D01*
Y171264D01*
X181350D01*
Y174717D01*
D02*
G37*
G36*
X202305Y174717D02*
X199811D01*
Y171225D01*
X200086Y171262D01*
X200808Y171561D01*
X201428Y172036D01*
X201904Y172657D01*
X202203Y173379D01*
X202305Y174154D01*
Y174717D01*
D02*
G37*
G36*
X197539Y179398D02*
X191240D01*
Y171035D01*
X197539D01*
Y171182D01*
X198039Y171467D01*
X198536Y171262D01*
X198811Y171225D01*
Y175217D01*
Y179208D01*
X198536Y179172D01*
X198039Y178966D01*
X197539Y179251D01*
Y179398D01*
D02*
G37*
G36*
X218484Y179350D02*
X210217D01*
Y171083D01*
X218484D01*
Y179350D01*
D02*
G37*
G36*
X227847Y176665D02*
X221457D01*
X221541Y175812D01*
X221936Y174510D01*
X222577Y173310D01*
X223440Y172259D01*
X224491Y171396D01*
X225691Y170755D01*
X226993Y170360D01*
X227847Y170276D01*
Y176665D01*
D02*
G37*
G36*
X172244D02*
X165854D01*
Y170276D01*
X166708Y170360D01*
X168010Y170755D01*
X169209Y171396D01*
X170261Y172259D01*
X171124Y173310D01*
X171765Y174510D01*
X172160Y175812D01*
X172244Y176665D01*
D02*
G37*
G36*
X133268Y272365D02*
X130512D01*
X129844Y272277D01*
X129221Y272019D01*
X128687Y271609D01*
X128277Y271074D01*
X128019Y270451D01*
X127931Y269783D01*
Y265846D01*
X128019Y265178D01*
X128277Y264556D01*
X128687Y264021D01*
X129221Y263611D01*
X129844Y263353D01*
X130512Y263265D01*
X133268D01*
X133936Y263353D01*
X134558Y263611D01*
X135093Y264021D01*
X135503Y264556D01*
X135761Y265178D01*
X135849Y265846D01*
Y269783D01*
X135761Y270451D01*
X135503Y271074D01*
X135093Y271609D01*
X134558Y272019D01*
X133936Y272277D01*
X133268Y272365D01*
D02*
G37*
G36*
X105709D02*
X102953D01*
X102285Y272277D01*
X101662Y272019D01*
X101128Y271609D01*
X100717Y271074D01*
X100460Y270451D01*
X100372Y269783D01*
Y265846D01*
X100460Y265178D01*
X100717Y264556D01*
X101128Y264021D01*
X101662Y263611D01*
X102285Y263353D01*
X102953Y263265D01*
X105709D01*
X106377Y263353D01*
X106999Y263611D01*
X107534Y264021D01*
X107944Y264556D01*
X108202Y265178D01*
X108290Y265846D01*
Y269783D01*
X108202Y270451D01*
X107944Y271074D01*
X107534Y271609D01*
X106999Y272019D01*
X106377Y272277D01*
X105709Y272365D01*
D02*
G37*
G36*
X149106Y267217D02*
X142717D01*
X142801Y266363D01*
X143196Y265061D01*
X143837Y263861D01*
X144700Y262810D01*
X145751Y261947D01*
X146951Y261306D01*
X148253Y260911D01*
X149106Y260827D01*
Y267217D01*
D02*
G37*
G36*
X93504D02*
X87114D01*
Y260827D01*
X87968Y260911D01*
X89270Y261306D01*
X90469Y261947D01*
X91521Y262810D01*
X92384Y263861D01*
X93025Y265061D01*
X93420Y266363D01*
X93504Y267217D01*
D02*
G37*
G36*
X129722Y260776D02*
X126183D01*
X125242Y260589D01*
X124445Y260055D01*
X123912Y259258D01*
X123724Y258317D01*
Y255856D01*
X123912Y254915D01*
X124445Y254118D01*
X125242Y253585D01*
X126183Y253398D01*
X129722D01*
X130663Y253585D01*
X131461Y254118D01*
X131994Y254915D01*
X132181Y255856D01*
Y258317D01*
X131994Y259258D01*
X131461Y260055D01*
X130663Y260589D01*
X129722Y260776D01*
D02*
G37*
G36*
X110037D02*
X106498D01*
X105557Y260589D01*
X104760Y260055D01*
X104227Y259258D01*
X104039Y258317D01*
Y255856D01*
X104227Y254915D01*
X104760Y254118D01*
X105557Y253585D01*
X106498Y253398D01*
X110037D01*
X110978Y253585D01*
X111776Y254118D01*
X112309Y254915D01*
X112496Y255856D01*
Y258317D01*
X112309Y259258D01*
X111776Y260055D01*
X110978Y260589D01*
X110037Y260776D01*
D02*
G37*
G36*
X92063Y251669D02*
X88610D01*
Y248217D01*
X92063D01*
Y251669D01*
D02*
G37*
G36*
X87610D02*
X84158D01*
Y248217D01*
X87610D01*
Y251669D01*
D02*
G37*
G36*
X92063Y247217D02*
X88610D01*
Y243764D01*
X92063D01*
Y247217D01*
D02*
G37*
G36*
X87610D02*
X84158D01*
Y243764D01*
X87610D01*
Y247217D01*
D02*
G37*
G36*
X147244Y251850D02*
X138976D01*
Y243583D01*
X147244D01*
Y251850D01*
D02*
G37*
G36*
X92244Y241850D02*
X83976D01*
Y233583D01*
X92244D01*
Y241850D01*
D02*
G37*
G36*
Y231850D02*
X83976D01*
Y223583D01*
X92244D01*
Y231850D01*
D02*
G37*
G36*
X126110Y224640D02*
Y223217D01*
X127534D01*
X127479Y223491D01*
X127041Y224147D01*
X126384Y224586D01*
X126110Y224640D01*
D02*
G37*
G36*
X125110D02*
X124836Y224586D01*
X124180Y224147D01*
X123741Y223491D01*
X123687Y223217D01*
X125110D01*
Y224640D01*
D02*
G37*
G36*
X127534Y222217D02*
X123687D01*
X123741Y221942D01*
X124059Y221467D01*
X123741Y220991D01*
X123687Y220717D01*
X127534D01*
X127479Y220991D01*
X127162Y221467D01*
X127479Y221942D01*
X127534Y222217D01*
D02*
G37*
G36*
Y219717D02*
X123687D01*
X123741Y219442D01*
X124059Y218967D01*
X123741Y218491D01*
X123687Y218217D01*
X127534D01*
X127479Y218491D01*
X127162Y218967D01*
X127479Y219442D01*
X127534Y219717D01*
D02*
G37*
G36*
Y217217D02*
X126110D01*
Y215793D01*
X126384Y215847D01*
X127041Y216286D01*
X127479Y216942D01*
X127534Y217217D01*
D02*
G37*
G36*
X125110D02*
X123687D01*
X123741Y216942D01*
X124180Y216286D01*
X124836Y215847D01*
X125110Y215793D01*
Y217217D01*
D02*
G37*
G36*
X92244Y221850D02*
X83976D01*
Y213583D01*
X92244D01*
Y221850D01*
D02*
G37*
G36*
X149106Y184055D02*
X148253Y183971D01*
X146951Y183576D01*
X145751Y182935D01*
X144700Y182072D01*
X143837Y181020D01*
X143196Y179821D01*
X142801Y178519D01*
X142717Y177665D01*
X149106D01*
Y184055D01*
D02*
G37*
G36*
X87114D02*
Y177665D01*
X93504D01*
X93420Y178519D01*
X93025Y179821D01*
X92384Y181020D01*
X91521Y182072D01*
X90469Y182935D01*
X89270Y183576D01*
X87968Y183971D01*
X87114Y184055D01*
D02*
G37*
G36*
X121071Y179208D02*
Y175717D01*
X123565D01*
Y176279D01*
X123463Y177055D01*
X123164Y177777D01*
X122688Y178397D01*
X122068Y178873D01*
X121346Y179172D01*
X121071Y179208D01*
D02*
G37*
G36*
X107063Y179169D02*
X103610D01*
Y175717D01*
X107063D01*
Y179169D01*
D02*
G37*
G36*
X102610D02*
X99158D01*
Y175717D01*
X102610D01*
Y179169D01*
D02*
G37*
G36*
X107063Y174717D02*
X103610D01*
Y171264D01*
X107063D01*
Y174717D01*
D02*
G37*
G36*
X102610D02*
X99158D01*
Y171264D01*
X102610D01*
Y174717D01*
D02*
G37*
G36*
X123565Y174717D02*
X121071D01*
Y171225D01*
X121346Y171262D01*
X122068Y171561D01*
X122688Y172036D01*
X123164Y172657D01*
X123463Y173379D01*
X123565Y174154D01*
Y174717D01*
D02*
G37*
G36*
X118799Y179398D02*
X112500D01*
Y171035D01*
X118799D01*
Y171182D01*
X119299Y171467D01*
X119796Y171262D01*
X120071Y171225D01*
Y175217D01*
Y179208D01*
X119796Y179172D01*
X119299Y178966D01*
X118799Y179251D01*
Y179398D01*
D02*
G37*
G36*
X139744Y179350D02*
X131476D01*
Y171083D01*
X139744D01*
Y179350D01*
D02*
G37*
G36*
X149106Y176665D02*
X142717D01*
X142801Y175812D01*
X143196Y174510D01*
X143837Y173310D01*
X144700Y172259D01*
X145751Y171396D01*
X146951Y170755D01*
X148253Y170360D01*
X149106Y170276D01*
Y176665D01*
D02*
G37*
G36*
X93504D02*
X87114D01*
Y170276D01*
X87968Y170360D01*
X89270Y170755D01*
X90469Y171396D01*
X91521Y172259D01*
X92384Y173310D01*
X93025Y174510D01*
X93420Y175812D01*
X93504Y176665D01*
D02*
G37*
G36*
X54528Y272365D02*
X51772D01*
X51104Y272277D01*
X50481Y272019D01*
X49946Y271609D01*
X49536Y271074D01*
X49279Y270451D01*
X49191Y269783D01*
Y265846D01*
X49279Y265178D01*
X49536Y264556D01*
X49946Y264021D01*
X50481Y263611D01*
X51104Y263353D01*
X51772Y263265D01*
X54528D01*
X55196Y263353D01*
X55818Y263611D01*
X56353Y264021D01*
X56763Y264556D01*
X57021Y265178D01*
X57109Y265846D01*
Y269783D01*
X57021Y270451D01*
X56763Y271074D01*
X56353Y271609D01*
X55818Y272019D01*
X55196Y272277D01*
X54528Y272365D01*
D02*
G37*
G36*
X26969D02*
X24213D01*
X23545Y272277D01*
X22922Y272019D01*
X22388Y271609D01*
X21977Y271074D01*
X21719Y270451D01*
X21632Y269783D01*
Y265846D01*
X21719Y265178D01*
X21977Y264556D01*
X22388Y264021D01*
X22922Y263611D01*
X23545Y263353D01*
X24213Y263265D01*
X26969D01*
X27637Y263353D01*
X28259Y263611D01*
X28794Y264021D01*
X29204Y264556D01*
X29462Y265178D01*
X29550Y265846D01*
Y269783D01*
X29462Y270451D01*
X29204Y271074D01*
X28794Y271609D01*
X28259Y272019D01*
X27637Y272277D01*
X26969Y272365D01*
D02*
G37*
G36*
X70366Y267217D02*
X63977D01*
X64061Y266363D01*
X64455Y265061D01*
X65097Y263861D01*
X65960Y262810D01*
X67011Y261947D01*
X68211Y261306D01*
X69512Y260911D01*
X70366Y260827D01*
Y267217D01*
D02*
G37*
G36*
X14764D02*
X8374D01*
Y260827D01*
X9228Y260911D01*
X10529Y261306D01*
X11729Y261947D01*
X12781Y262810D01*
X13644Y263861D01*
X14285Y265061D01*
X14680Y266363D01*
X14764Y267217D01*
D02*
G37*
G36*
X50982Y260776D02*
X47443D01*
X46502Y260589D01*
X45704Y260055D01*
X45171Y259258D01*
X44984Y258317D01*
Y255856D01*
X45171Y254915D01*
X45704Y254118D01*
X46502Y253585D01*
X47443Y253398D01*
X50982D01*
X51923Y253585D01*
X52721Y254118D01*
X53254Y254915D01*
X53441Y255856D01*
Y258317D01*
X53254Y259258D01*
X52721Y260055D01*
X51923Y260589D01*
X50982Y260776D01*
D02*
G37*
G36*
X31297D02*
X27758D01*
X26817Y260589D01*
X26019Y260055D01*
X25486Y259258D01*
X25299Y258317D01*
Y255856D01*
X25486Y254915D01*
X26019Y254118D01*
X26817Y253585D01*
X27758Y253398D01*
X31297D01*
X32238Y253585D01*
X33036Y254118D01*
X33569Y254915D01*
X33756Y255856D01*
Y258317D01*
X33569Y259258D01*
X33036Y260055D01*
X32238Y260589D01*
X31297Y260776D01*
D02*
G37*
G36*
X13323Y251669D02*
X9870D01*
Y248217D01*
X13323D01*
Y251669D01*
D02*
G37*
G36*
X8870D02*
X5417D01*
Y248217D01*
X8870D01*
Y251669D01*
D02*
G37*
G36*
X13323Y247217D02*
X9870D01*
Y243764D01*
X13323D01*
Y247217D01*
D02*
G37*
G36*
X8870D02*
X5417D01*
Y243764D01*
X8870D01*
Y247217D01*
D02*
G37*
G36*
X68504Y251850D02*
X60236D01*
Y243583D01*
X68504D01*
Y251850D01*
D02*
G37*
G36*
X13504Y241850D02*
X5236D01*
Y233583D01*
X13504D01*
Y241850D01*
D02*
G37*
G36*
Y231850D02*
X5236D01*
Y223583D01*
X13504D01*
Y231850D01*
D02*
G37*
G36*
X47370Y224640D02*
Y223217D01*
X48794D01*
X48739Y223491D01*
X48301Y224147D01*
X47644Y224586D01*
X47370Y224640D01*
D02*
G37*
G36*
X46370D02*
X46096Y224586D01*
X45439Y224147D01*
X45001Y223491D01*
X44946Y223217D01*
X46370D01*
Y224640D01*
D02*
G37*
G36*
X48794Y222217D02*
X44946D01*
X45001Y221942D01*
X45319Y221467D01*
X45001Y220991D01*
X44946Y220717D01*
X48794D01*
X48739Y220991D01*
X48421Y221467D01*
X48739Y221942D01*
X48794Y222217D01*
D02*
G37*
G36*
Y219717D02*
X44946D01*
X45001Y219442D01*
X45319Y218967D01*
X45001Y218491D01*
X44946Y218217D01*
X48794D01*
X48739Y218491D01*
X48421Y218967D01*
X48739Y219442D01*
X48794Y219717D01*
D02*
G37*
G36*
Y217217D02*
X47370D01*
Y215793D01*
X47644Y215847D01*
X48301Y216286D01*
X48739Y216942D01*
X48794Y217217D01*
D02*
G37*
G36*
X46370D02*
X44946D01*
X45001Y216942D01*
X45439Y216286D01*
X46096Y215847D01*
X46370Y215793D01*
Y217217D01*
D02*
G37*
G36*
X13504Y221850D02*
X5236D01*
Y213583D01*
X13504D01*
Y221850D01*
D02*
G37*
G36*
X70366Y184055D02*
X69512Y183971D01*
X68211Y183576D01*
X67011Y182935D01*
X65960Y182072D01*
X65097Y181020D01*
X64455Y179821D01*
X64061Y178519D01*
X63977Y177665D01*
X70366D01*
Y184055D01*
D02*
G37*
G36*
X8374D02*
Y177665D01*
X14764D01*
X14680Y178519D01*
X14285Y179821D01*
X13644Y181020D01*
X12781Y182072D01*
X11729Y182935D01*
X10529Y183576D01*
X9228Y183971D01*
X8374Y184055D01*
D02*
G37*
G36*
X42331Y179208D02*
Y175717D01*
X44825D01*
Y176279D01*
X44723Y177055D01*
X44424Y177777D01*
X43948Y178397D01*
X43328Y178873D01*
X42606Y179172D01*
X42331Y179208D01*
D02*
G37*
G36*
X28323Y179169D02*
X24870D01*
Y175717D01*
X28323D01*
Y179169D01*
D02*
G37*
G36*
X23870D02*
X20417D01*
Y175717D01*
X23870D01*
Y179169D01*
D02*
G37*
G36*
X28323Y174717D02*
X24870D01*
Y171264D01*
X28323D01*
Y174717D01*
D02*
G37*
G36*
X23870D02*
X20417D01*
Y171264D01*
X23870D01*
Y174717D01*
D02*
G37*
G36*
X44825Y174717D02*
X42331D01*
Y171225D01*
X42606Y171262D01*
X43328Y171561D01*
X43948Y172036D01*
X44424Y172657D01*
X44723Y173379D01*
X44825Y174154D01*
Y174717D01*
D02*
G37*
G36*
X40059Y179398D02*
X33760D01*
Y171035D01*
X40059D01*
Y171182D01*
X40559Y171467D01*
X41056Y171262D01*
X41331Y171225D01*
Y175217D01*
Y179208D01*
X41056Y179172D01*
X40559Y178966D01*
X40059Y179251D01*
Y179398D01*
D02*
G37*
G36*
X61004Y179350D02*
X52736D01*
Y171083D01*
X61004D01*
Y179350D01*
D02*
G37*
G36*
X70366Y176665D02*
X63977D01*
X64061Y175812D01*
X64455Y174510D01*
X65097Y173310D01*
X65960Y172259D01*
X67011Y171396D01*
X68211Y170755D01*
X69512Y170360D01*
X70366Y170276D01*
Y176665D01*
D02*
G37*
G36*
X14764D02*
X8374D01*
Y170276D01*
X9228Y170360D01*
X10529Y170755D01*
X11729Y171396D01*
X12781Y172259D01*
X13644Y173310D01*
X14285Y174510D01*
X14680Y175812D01*
X14764Y176665D01*
D02*
G37*
G36*
X300394Y254023D02*
X298031D01*
X298021Y254021D01*
X299213Y252829D01*
X300405Y254021D01*
X300394Y254023D01*
D02*
G37*
G36*
X253150D02*
X250787D01*
X250777Y254021D01*
X251969Y252829D01*
X253160Y254021D01*
X253150Y254023D01*
D02*
G37*
G36*
X363335Y270771D02*
Y267350D01*
X366756D01*
X366686Y267882D01*
X366287Y268844D01*
X365654Y269670D01*
X364828Y270303D01*
X363866Y270701D01*
X363335Y270771D01*
D02*
G37*
G36*
X362335D02*
X361803Y270701D01*
X360841Y270303D01*
X360016Y269670D01*
X359382Y268844D01*
X358984Y267882D01*
X358914Y267350D01*
X362335D01*
Y270771D01*
D02*
G37*
G36*
X352812Y269259D02*
X351890Y269076D01*
X351109Y268553D01*
X350587Y267772D01*
X350404Y266850D01*
X350587Y265929D01*
X351109Y265147D01*
X351890Y264625D01*
X352812Y264442D01*
X353734Y264625D01*
X354515Y265147D01*
X355037Y265929D01*
X355221Y266850D01*
X355037Y267772D01*
X354515Y268553D01*
X353734Y269076D01*
X352812Y269259D01*
D02*
G37*
G36*
X366756Y266350D02*
X363335D01*
Y262929D01*
X363866Y262999D01*
X364828Y263398D01*
X365654Y264031D01*
X366287Y264857D01*
X366686Y265819D01*
X366756Y266350D01*
D02*
G37*
G36*
X362335D02*
X358914D01*
X358984Y265819D01*
X359382Y264857D01*
X360016Y264031D01*
X360841Y263398D01*
X361803Y262999D01*
X362335Y262929D01*
Y266350D01*
D02*
G37*
G36*
X326969Y270984D02*
X318701D01*
Y262717D01*
X326969D01*
Y270984D01*
D02*
G37*
G36*
X372835Y271020D02*
X371756Y270878D01*
X370750Y270461D01*
X369886Y269799D01*
X369224Y268935D01*
X368807Y267930D01*
X368665Y266850D01*
X368807Y265771D01*
X369224Y264766D01*
X369886Y263902D01*
X370750Y263240D01*
X371756Y262823D01*
X372835Y262681D01*
X373914Y262823D01*
X374919Y263240D01*
X375783Y263902D01*
X376446Y264766D01*
X376862Y265771D01*
X377004Y266850D01*
X376862Y267930D01*
X376446Y268935D01*
X375783Y269799D01*
X374919Y270461D01*
X373914Y270878D01*
X372835Y271020D01*
D02*
G37*
G36*
X337812Y264259D02*
X336890Y264076D01*
X336109Y263554D01*
X335587Y262772D01*
X335404Y261850D01*
X335587Y260929D01*
X336109Y260147D01*
X336890Y259625D01*
X337812Y259442D01*
X338734Y259625D01*
X339515Y260147D01*
X340037Y260929D01*
X340221Y261850D01*
X340037Y262772D01*
X339515Y263554D01*
X338734Y264076D01*
X337812Y264259D01*
D02*
G37*
G36*
X330312D02*
X329390Y264076D01*
X328609Y263554D01*
X328087Y262772D01*
X327904Y261850D01*
X328087Y260929D01*
X328609Y260147D01*
X329390Y259625D01*
X330312Y259442D01*
X331234Y259625D01*
X332015Y260147D01*
X332537Y260929D01*
X332721Y261850D01*
X332537Y262772D01*
X332015Y263554D01*
X331234Y264076D01*
X330312Y264259D01*
D02*
G37*
G36*
X386787Y260803D02*
X383335D01*
Y257350D01*
X386787D01*
Y260803D01*
D02*
G37*
G36*
X355335Y259259D02*
X354413Y259076D01*
X353632Y258554D01*
X353110Y257772D01*
X352926Y256850D01*
X353110Y255929D01*
X353632Y255147D01*
X354413Y254625D01*
X355335Y254442D01*
X356256Y254625D01*
X357038Y255147D01*
X357560Y255929D01*
X357743Y256850D01*
X357560Y257772D01*
X357038Y258554D01*
X356256Y259076D01*
X355335Y259259D01*
D02*
G37*
G36*
X386787Y256350D02*
X383335D01*
Y252898D01*
X386787D01*
Y256350D01*
D02*
G37*
G36*
X326969Y260984D02*
X318701D01*
Y252717D01*
X326969D01*
Y260984D01*
D02*
G37*
G36*
X362835Y256068D02*
X361743Y255924D01*
X360726Y255503D01*
X359853Y254832D01*
X359183Y253959D01*
X358761Y252942D01*
X358617Y251850D01*
X358761Y250759D01*
X359183Y249742D01*
X359853Y248868D01*
X360726Y248198D01*
X361743Y247777D01*
X362835Y247633D01*
X363926Y247777D01*
X364943Y248198D01*
X365817Y248868D01*
X366487Y249742D01*
X366908Y250759D01*
X367052Y251850D01*
X366908Y252942D01*
X366487Y253959D01*
X365817Y254832D01*
X364943Y255503D01*
X363926Y255924D01*
X362835Y256068D01*
D02*
G37*
G36*
X343835D02*
X342743Y255924D01*
X341726Y255503D01*
X340853Y254832D01*
X340182Y253959D01*
X339761Y252942D01*
X339617Y251850D01*
X339761Y250759D01*
X340182Y249742D01*
X340853Y248868D01*
X341726Y248198D01*
X342743Y247777D01*
X343835Y247633D01*
X344926Y247777D01*
X345943Y248198D01*
X346817Y248868D01*
X347487Y249742D01*
X347908Y250759D01*
X348052Y251850D01*
X347908Y252942D01*
X347487Y253959D01*
X346817Y254832D01*
X345943Y255503D01*
X344926Y255924D01*
X343835Y256068D01*
D02*
G37*
G36*
X355335Y251759D02*
X354413Y251576D01*
X353632Y251054D01*
X353110Y250272D01*
X352926Y249350D01*
X353110Y248429D01*
X353632Y247647D01*
X354413Y247125D01*
X355335Y246942D01*
X356256Y247125D01*
X357038Y247647D01*
X357560Y248429D01*
X357743Y249350D01*
X357560Y250272D01*
X357038Y251054D01*
X356256Y251576D01*
X355335Y251759D01*
D02*
G37*
G36*
X386968Y270984D02*
X378701D01*
Y265129D01*
X376628Y263057D01*
X376258Y262503D01*
X376129Y261850D01*
Y246882D01*
X375629Y246601D01*
X374835Y246759D01*
X373913Y246576D01*
X373132Y246054D01*
X372609Y245272D01*
X372426Y244350D01*
X372602Y243468D01*
X372591Y243350D01*
X372387Y242969D01*
X371866D01*
Y240500D01*
X374835D01*
Y239500D01*
X371866D01*
Y237032D01*
X371685Y236850D01*
X371685D01*
Y230716D01*
X371471Y230561D01*
X371448Y230552D01*
X371286Y230612D01*
X370984Y230930D01*
X370984Y231023D01*
Y236850D01*
X370984D01*
X370803Y237032D01*
Y239500D01*
X367835D01*
X364866D01*
Y237461D01*
X350157D01*
Y231056D01*
X347041D01*
Y233774D01*
X346911Y234427D01*
X346541Y234980D01*
X345964Y235557D01*
X345411Y235927D01*
X344758Y236056D01*
X344134D01*
Y237500D01*
X343953D01*
Y238221D01*
X344350D01*
X345002Y238351D01*
X345556Y238721D01*
X346132Y239297D01*
X346502Y239851D01*
X346632Y240504D01*
Y244386D01*
X346502Y245039D01*
X346132Y245592D01*
X345579Y245962D01*
X344926Y246092D01*
X344273Y245962D01*
X343720Y245592D01*
X343350Y245039D01*
X343220Y244386D01*
Y242319D01*
X341484D01*
Y239350D01*
X340484D01*
Y242319D01*
X338260D01*
X337835Y242500D01*
X337591Y242500D01*
X332518D01*
X332251Y243000D01*
X332537Y243429D01*
X332721Y244350D01*
X332537Y245272D01*
X332015Y246054D01*
X331234Y246576D01*
X331134Y246596D01*
Y247105D01*
X331234Y247125D01*
X332015Y247647D01*
X332537Y248429D01*
X332569Y248586D01*
X333078D01*
X333109Y248429D01*
X333632Y247647D01*
X334413Y247125D01*
X335335Y246942D01*
X336256Y247125D01*
X337038Y247647D01*
X337560Y248429D01*
X337743Y249350D01*
X337560Y250272D01*
X337038Y251054D01*
X336256Y251576D01*
X335335Y251759D01*
X334413Y251576D01*
X333632Y251054D01*
X333109Y250272D01*
X333078Y250115D01*
X332569D01*
X332537Y250272D01*
X332015Y251054D01*
X331234Y251576D01*
X330312Y251759D01*
X329390Y251576D01*
X328609Y251054D01*
X328087Y250272D01*
X327904Y249350D01*
X328087Y248429D01*
X328609Y247647D01*
X329390Y247125D01*
X329491Y247105D01*
Y246596D01*
X329390Y246576D01*
X328609Y246054D01*
X328087Y245272D01*
X327904Y244350D01*
X328087Y243429D01*
X328609Y242647D01*
X329390Y242125D01*
X330312Y241942D01*
X331035Y242086D01*
X331535Y241771D01*
Y239983D01*
X331164Y239909D01*
X330610Y239539D01*
X329628Y238556D01*
X326969D01*
Y240984D01*
X318701D01*
Y232717D01*
X326969D01*
Y235144D01*
X329628D01*
X330610Y234162D01*
X331164Y233792D01*
X331535Y233718D01*
Y232500D01*
X331535D01*
Y231945D01*
X331035Y231620D01*
X330335Y231759D01*
X329413Y231576D01*
X328632Y231053D01*
X328110Y230272D01*
X327926Y229350D01*
X328110Y228429D01*
X328632Y227647D01*
X328892Y227473D01*
Y226587D01*
X329022Y225934D01*
X329392Y225380D01*
X330610Y224162D01*
X331164Y223792D01*
X331535Y223718D01*
Y221201D01*
X337591D01*
X337835Y221201D01*
X338260Y221382D01*
X340484D01*
Y224350D01*
X341484D01*
Y221382D01*
X343953D01*
Y222644D01*
X347835D01*
X348487Y222774D01*
X349041Y223144D01*
X349411Y223697D01*
X349541Y224350D01*
X349411Y225003D01*
X349041Y225557D01*
X348487Y225926D01*
X347835Y226056D01*
X344574D01*
X344134Y226201D01*
Y227644D01*
X350157D01*
Y224468D01*
X356601D01*
X356753Y223969D01*
X356132Y223553D01*
X355609Y222772D01*
X355426Y221850D01*
X355609Y220929D01*
X356132Y220147D01*
X356913Y219625D01*
X357835Y219442D01*
X358756Y219625D01*
X359538Y220147D01*
X360060Y220929D01*
X360243Y221850D01*
X360060Y222772D01*
X359538Y223553D01*
X358916Y223969D01*
X359068Y224468D01*
X365512D01*
Y227644D01*
X367128D01*
X367927Y226845D01*
X368109Y225929D01*
X368632Y225147D01*
X369413Y224625D01*
X370335Y224442D01*
X371185Y224611D01*
X371565Y224461D01*
X371685Y224396D01*
Y219594D01*
X371685Y219350D01*
X371866Y218925D01*
Y216701D01*
X377803D01*
Y218925D01*
X377984Y219350D01*
X377984Y219594D01*
Y225650D01*
X377041D01*
Y227644D01*
X378701D01*
Y222717D01*
X386968D01*
Y230984D01*
X380697D01*
X380335Y231056D01*
X380041D01*
Y232717D01*
X386968D01*
Y240984D01*
X380041D01*
Y242717D01*
X386968D01*
Y250984D01*
X379541D01*
Y252898D01*
X382335D01*
Y256850D01*
Y260803D01*
X379907D01*
X379700Y261303D01*
X381113Y262717D01*
X386968D01*
Y270984D01*
D02*
G37*
G36*
X326969Y250984D02*
X318701D01*
Y242717D01*
X326969D01*
Y250984D01*
D02*
G37*
G36*
X367812Y246759D02*
X366890Y246576D01*
X366109Y246054D01*
X365587Y245272D01*
X365404Y244350D01*
X365579Y243468D01*
X365568Y243350D01*
X365364Y242969D01*
X364866D01*
Y240500D01*
X367835D01*
X370803D01*
Y242969D01*
X370260D01*
X370056Y243350D01*
X370045Y243468D01*
X370221Y244350D01*
X370037Y245272D01*
X369515Y246054D01*
X368734Y246576D01*
X367812Y246759D01*
D02*
G37*
G36*
X326969Y230984D02*
X318701D01*
Y222717D01*
X326969D01*
Y230984D01*
D02*
G37*
G36*
X377803Y215701D02*
X375335D01*
Y213232D01*
X377803D01*
Y215701D01*
D02*
G37*
G36*
X374335D02*
X371866D01*
Y213232D01*
X374335D01*
Y215701D01*
D02*
G37*
G36*
X386968Y220984D02*
X378701D01*
Y212717D01*
X386968D01*
Y220984D01*
D02*
G37*
G36*
X326969D02*
X318701D01*
Y212717D01*
X326969D01*
Y220984D01*
D02*
G37*
G36*
X369858Y214051D02*
X367390D01*
Y208236D01*
X369858D01*
Y214051D01*
D02*
G37*
G36*
X366390D02*
X363921D01*
Y208236D01*
X366390D01*
Y214051D01*
D02*
G37*
G36*
X386968Y210984D02*
X378701D01*
Y202717D01*
X386968D01*
Y210984D01*
D02*
G37*
G36*
X326969D02*
X318701D01*
Y202717D01*
X326969D01*
Y210984D01*
D02*
G37*
G36*
X360984Y214232D02*
X354685D01*
Y201484D01*
X354685Y201240D01*
X354291Y200984D01*
X352323D01*
X351929Y201240D01*
X351929Y201484D01*
Y214232D01*
X345630D01*
Y213150D01*
X339685D01*
Y211706D01*
X338484D01*
Y213150D01*
X332185D01*
Y207094D01*
X332185Y206850D01*
X332366Y206425D01*
Y204201D01*
X335335D01*
Y203201D01*
X332366D01*
Y200984D01*
X328701D01*
Y192717D01*
X336968D01*
Y200379D01*
X337322Y200732D01*
X338159Y200732D01*
X338159D01*
X338303Y200732D01*
X338701Y200485D01*
X338701Y200484D01*
Y192717D01*
X346969D01*
Y200984D01*
X347362Y201240D01*
X348307D01*
X348701Y200984D01*
X348701Y200740D01*
Y192717D01*
X356968D01*
Y200740D01*
X356968Y200984D01*
X357363Y201240D01*
X358307D01*
X358701Y200984D01*
X358701Y200740D01*
Y192717D01*
X366968D01*
Y200921D01*
X366968Y200984D01*
X367121Y201421D01*
X368549D01*
X368701Y200984D01*
X368701Y200921D01*
Y192717D01*
X376969D01*
Y200984D01*
X370010D01*
X369858Y201421D01*
X369858Y201484D01*
Y207236D01*
X363921D01*
Y201484D01*
X363921Y201421D01*
X363769Y200984D01*
X361378D01*
X360984Y201240D01*
X360984Y201484D01*
Y214232D01*
D02*
G37*
G36*
X386968Y200984D02*
X378701D01*
Y192717D01*
X386968D01*
Y200984D01*
D02*
G37*
G36*
X326969D02*
X318701D01*
Y192717D01*
X326969D01*
Y200984D01*
D02*
G37*
G36*
X385303Y122031D02*
Y118610D01*
X388724D01*
X388654Y119142D01*
X388256Y120104D01*
X387622Y120929D01*
X386797Y121563D01*
X385835Y121961D01*
X385303Y122031D01*
D02*
G37*
G36*
X384303D02*
X383771Y121961D01*
X382810Y121563D01*
X381984Y120929D01*
X381350Y120104D01*
X380952Y119142D01*
X380882Y118610D01*
X384303D01*
Y122031D01*
D02*
G37*
G36*
X338937Y122244D02*
X330669D01*
Y116020D01*
X330207Y115828D01*
X328937Y117099D01*
Y122244D01*
X320669D01*
Y113976D01*
X325815D01*
X327085Y112706D01*
X326894Y112244D01*
X320669D01*
Y103976D01*
X328937D01*
Y110201D01*
X329399Y110392D01*
X331608Y108183D01*
X331653Y108153D01*
X331653Y105610D01*
X331653Y105110D01*
Y99311D01*
X332595D01*
Y63110D01*
X332763Y62265D01*
X333242Y61549D01*
X338203Y56589D01*
X338919Y56110D01*
X339193Y56055D01*
Y54016D01*
X352185D01*
Y60315D01*
X344918D01*
X344705Y60357D01*
X340678D01*
X337011Y64025D01*
Y99311D01*
X337953D01*
Y100253D01*
X339154D01*
Y99311D01*
X345453D01*
Y105366D01*
X345453Y105610D01*
X345272Y106035D01*
Y108260D01*
X339335D01*
Y106035D01*
X339154Y105610D01*
X339154Y105366D01*
Y104668D01*
X338306D01*
X337953Y105022D01*
X337953Y105610D01*
X337953Y106110D01*
Y111909D01*
X334126D01*
X332521Y113514D01*
X332713Y113976D01*
X338937D01*
Y122244D01*
D02*
G37*
G36*
X388724Y117610D02*
X385303D01*
Y114189D01*
X385835Y114259D01*
X386797Y114657D01*
X387622Y115291D01*
X388256Y116117D01*
X388654Y117078D01*
X388724Y117610D01*
D02*
G37*
G36*
X384303D02*
X380882D01*
X380952Y117078D01*
X381350Y116117D01*
X381984Y115291D01*
X382810Y114657D01*
X383771Y114259D01*
X384303Y114189D01*
Y117610D01*
D02*
G37*
G36*
X378937Y122244D02*
X370669D01*
Y113976D01*
X378937D01*
Y122244D01*
D02*
G37*
G36*
X358937D02*
X350669D01*
Y113976D01*
X358937D01*
Y122244D01*
D02*
G37*
G36*
X348937D02*
X340669D01*
Y113976D01*
X348937D01*
Y122244D01*
D02*
G37*
G36*
X368937D02*
X360669D01*
Y113976D01*
X363097D01*
Y111909D01*
X361653D01*
Y110466D01*
X360453D01*
Y111909D01*
X354153D01*
Y110392D01*
X353782Y110318D01*
X353228Y109948D01*
X351597Y108317D01*
X351227Y107763D01*
X351097Y107110D01*
Y98809D01*
X350578Y98032D01*
X350395Y97110D01*
X350578Y96189D01*
X351100Y95407D01*
X351882Y94885D01*
X352803Y94702D01*
X353725Y94885D01*
X354506Y95407D01*
X355028Y96189D01*
X355212Y97110D01*
X355028Y98032D01*
X354509Y98809D01*
Y99492D01*
X356803D01*
Y102461D01*
X357303D01*
Y102961D01*
X360272D01*
Y105185D01*
X360453Y105610D01*
X360453D01*
X360453Y105610D01*
Y107054D01*
X361653D01*
Y106004D01*
X367953D01*
Y111909D01*
X366509D01*
Y113976D01*
X368937D01*
Y122244D01*
D02*
G37*
G36*
X377772Y111728D02*
X375303D01*
Y109260D01*
X377772D01*
Y111728D01*
D02*
G37*
G36*
X374303D02*
X371835D01*
Y109260D01*
X374303D01*
Y111728D01*
D02*
G37*
G36*
X345272Y111728D02*
X342803D01*
Y109260D01*
X345272D01*
Y111728D01*
D02*
G37*
G36*
X341803D02*
X339335D01*
Y109260D01*
X341803D01*
Y111728D01*
D02*
G37*
G36*
X377772Y108260D02*
X371835D01*
Y106035D01*
X371654Y105610D01*
X371654Y105366D01*
Y103970D01*
X367953D01*
Y105217D01*
X361653D01*
Y99311D01*
X367953D01*
Y100558D01*
X371654D01*
Y99311D01*
X372595D01*
Y86525D01*
X368912Y82841D01*
X368882Y82835D01*
X368100Y82313D01*
X367578Y81532D01*
X367395Y80610D01*
X367578Y79689D01*
X368060Y78967D01*
X367927Y78467D01*
X362953D01*
Y79409D01*
X356653D01*
Y73610D01*
X356653Y73110D01*
X356653Y72610D01*
Y71667D01*
X355806D01*
X355453Y72020D01*
X355453Y73110D01*
X355272Y73535D01*
Y75760D01*
X349335D01*
Y73535D01*
X349153Y73110D01*
X349153Y72866D01*
Y66811D01*
X351671D01*
X351745Y66439D01*
X352115Y65886D01*
X352396Y65605D01*
X352578Y64689D01*
X353100Y63907D01*
X353882Y63385D01*
X354803Y63202D01*
X355725Y63385D01*
X356506Y63907D01*
X357028Y64689D01*
X357212Y65610D01*
X357072Y66311D01*
X357397Y66811D01*
X362953D01*
Y72610D01*
X362953Y73110D01*
X362953Y73698D01*
X363306Y74052D01*
X365095D01*
Y55787D01*
X362421D01*
Y40433D01*
X367595D01*
Y34409D01*
X366653D01*
Y32421D01*
X366124Y32315D01*
X365407Y31837D01*
X353242Y19671D01*
X352763Y18955D01*
X352595Y18110D01*
Y12244D01*
X350669D01*
Y3976D01*
X358937D01*
Y12244D01*
X357011D01*
Y17196D01*
X366373Y26558D01*
X366835Y26366D01*
Y25461D01*
X372772D01*
Y27929D01*
X372953Y28110D01*
X372953D01*
Y34409D01*
X372011D01*
Y40433D01*
X375413D01*
Y55787D01*
X369511D01*
Y66992D01*
X371803D01*
Y69961D01*
X372303D01*
Y70461D01*
X375272D01*
Y72685D01*
X375453Y73110D01*
X375453D01*
X375453Y73110D01*
Y79409D01*
X373464D01*
X373359Y79939D01*
X372916Y80601D01*
X376364Y84049D01*
X376843Y84765D01*
X377011Y85610D01*
Y95903D01*
X380669D01*
Y93976D01*
X388937D01*
Y102244D01*
X380669D01*
Y100318D01*
X377953D01*
Y105366D01*
X377953Y105610D01*
X377772Y106035D01*
Y108260D01*
D02*
G37*
G36*
X384803Y112280D02*
X383724Y112138D01*
X382718Y111721D01*
X381855Y111058D01*
X381192Y110195D01*
X380776Y109189D01*
X380634Y108110D01*
X380776Y107031D01*
X381192Y106026D01*
X381855Y105162D01*
X382718Y104499D01*
X383724Y104083D01*
X384803Y103941D01*
X385882Y104083D01*
X386888Y104499D01*
X387752Y105162D01*
X388414Y106026D01*
X388831Y107031D01*
X388973Y108110D01*
X388831Y109189D01*
X388414Y110195D01*
X387752Y111058D01*
X386888Y111721D01*
X385882Y112138D01*
X384803Y112280D01*
D02*
G37*
G36*
X360272Y101961D02*
X357803D01*
Y99492D01*
X360272D01*
Y101961D01*
D02*
G37*
G36*
X328937Y102244D02*
X320669D01*
Y93976D01*
X328937D01*
Y102244D01*
D02*
G37*
G36*
X388756Y92063D02*
X385303D01*
Y88610D01*
X388756D01*
Y92063D01*
D02*
G37*
G36*
X384303D02*
X380850D01*
Y88610D01*
X384303D01*
Y92063D01*
D02*
G37*
G36*
X366303Y94827D02*
X365212Y94684D01*
X364195Y94262D01*
X363321Y93592D01*
X362651Y92719D01*
X362230Y91702D01*
X362086Y90610D01*
X362230Y89519D01*
X362651Y88502D01*
X363321Y87628D01*
X364195Y86958D01*
X365212Y86537D01*
X366303Y86393D01*
X367395Y86537D01*
X368412Y86958D01*
X369285Y87628D01*
X369955Y88502D01*
X370377Y89519D01*
X370520Y90610D01*
X370377Y91702D01*
X369955Y92719D01*
X369285Y93592D01*
X368412Y94262D01*
X367395Y94684D01*
X366303Y94827D01*
D02*
G37*
G36*
X347303D02*
X346212Y94684D01*
X345195Y94262D01*
X344321Y93592D01*
X343651Y92719D01*
X343230Y91702D01*
X343086Y90610D01*
X343230Y89519D01*
X343651Y88502D01*
X344321Y87628D01*
X345195Y86958D01*
X346212Y86537D01*
X347303Y86393D01*
X348395Y86537D01*
X349412Y86958D01*
X350285Y87628D01*
X350955Y88502D01*
X351377Y89519D01*
X351520Y90610D01*
X351377Y91702D01*
X350955Y92719D01*
X350285Y93592D01*
X349412Y94262D01*
X348395Y94684D01*
X347303Y94827D01*
D02*
G37*
G36*
X388756Y87610D02*
X385303D01*
Y84158D01*
X388756D01*
Y87610D01*
D02*
G37*
G36*
X384303D02*
X380850D01*
Y84158D01*
X384303D01*
Y87610D01*
D02*
G37*
G36*
X328937Y92244D02*
X320669D01*
Y83976D01*
X328937D01*
Y92244D01*
D02*
G37*
G36*
X356803Y93519D02*
X355882Y93335D01*
X355100Y92813D01*
X354578Y92032D01*
X354395Y91110D01*
X354578Y90189D01*
X355097Y89412D01*
Y88317D01*
X352298Y85518D01*
X351381Y85335D01*
X350600Y84813D01*
X350078Y84032D01*
X349895Y83110D01*
X350078Y82189D01*
X350600Y81407D01*
X351381Y80885D01*
X352303Y80702D01*
X353225Y80885D01*
X354006Y81407D01*
X354528Y82189D01*
X354711Y83105D01*
X358010Y86404D01*
X358379Y86957D01*
X358509Y87610D01*
Y89412D01*
X359028Y90189D01*
X359212Y91110D01*
X359028Y92032D01*
X358506Y92813D01*
X357725Y93335D01*
X356803Y93519D01*
D02*
G37*
G36*
X355272Y79228D02*
X352803D01*
Y76760D01*
X355272D01*
Y79228D01*
D02*
G37*
G36*
X351803D02*
X349335D01*
Y76760D01*
X351803D01*
Y79228D01*
D02*
G37*
G36*
X388937Y82244D02*
X380669D01*
Y73976D01*
X388937D01*
Y82244D01*
D02*
G37*
G36*
X328937D02*
X320669D01*
Y73976D01*
X328937D01*
Y82244D01*
D02*
G37*
G36*
X375272Y69461D02*
X372803D01*
Y66992D01*
X375272D01*
Y69461D01*
D02*
G37*
G36*
X388937Y72244D02*
X380669D01*
Y63976D01*
X388937D01*
Y72244D01*
D02*
G37*
G36*
X328937D02*
X320669D01*
Y63976D01*
X328937D01*
Y72244D01*
D02*
G37*
G36*
X388937Y62244D02*
X380669D01*
Y53976D01*
X388937D01*
Y62244D01*
D02*
G37*
G36*
X328937D02*
X320669D01*
Y53976D01*
X328937D01*
Y62244D01*
D02*
G37*
G36*
X388937Y52244D02*
X380669D01*
Y43976D01*
X388937D01*
Y52244D01*
D02*
G37*
G36*
X328937D02*
X320669D01*
Y43976D01*
X328937D01*
Y52244D01*
D02*
G37*
G36*
X352004Y42024D02*
X346189D01*
Y39555D01*
X352004D01*
Y42024D01*
D02*
G37*
G36*
X345189D02*
X339374D01*
Y39555D01*
X345189D01*
Y42024D01*
D02*
G37*
G36*
X352004Y38555D02*
X346189D01*
Y36087D01*
X352004D01*
Y38555D01*
D02*
G37*
G36*
X345189D02*
X339374D01*
Y36087D01*
X345189D01*
Y38555D01*
D02*
G37*
G36*
X388937Y42244D02*
X380669D01*
Y33976D01*
X388937D01*
Y42244D01*
D02*
G37*
G36*
X328937D02*
X320669D01*
Y33976D01*
X328937D01*
Y42244D01*
D02*
G37*
G36*
X352185Y51260D02*
X339193D01*
Y49500D01*
X338985D01*
X338140Y49332D01*
X337424Y48853D01*
X333742Y45171D01*
X333263Y44455D01*
X333095Y43610D01*
Y40558D01*
X333078Y40532D01*
X332895Y39610D01*
X333078Y38689D01*
X333145Y38588D01*
X333097Y38345D01*
Y34409D01*
X331653D01*
Y28354D01*
X331653Y28110D01*
X331835Y27685D01*
Y25461D01*
X337772D01*
Y27685D01*
X337953Y28110D01*
X337953Y28354D01*
Y29554D01*
X338800D01*
X339154Y29200D01*
X339154Y28110D01*
X339335Y27685D01*
Y25461D01*
X345272D01*
Y27685D01*
X345453Y28110D01*
X345453Y28354D01*
Y34409D01*
X339154D01*
Y32966D01*
X337953D01*
Y34409D01*
X336509D01*
Y37575D01*
X337006Y37907D01*
X337528Y38689D01*
X337712Y39610D01*
X337528Y40532D01*
X337511Y40558D01*
Y42696D01*
X339776Y44961D01*
X352185D01*
Y51260D01*
D02*
G37*
G36*
X388937Y32244D02*
X380669D01*
Y23976D01*
X388937D01*
Y32244D01*
D02*
G37*
G36*
X328937D02*
X320669D01*
Y23976D01*
X328937D01*
Y32244D01*
D02*
G37*
G36*
X372772Y24461D02*
X370303D01*
Y21992D01*
X372772D01*
Y24461D01*
D02*
G37*
G36*
X369303D02*
X366835D01*
Y21992D01*
X369303D01*
Y24461D01*
D02*
G37*
G36*
X345272D02*
X342803D01*
Y21992D01*
X345272D01*
Y24461D01*
D02*
G37*
G36*
X341803D02*
X339335D01*
Y21992D01*
X341803D01*
Y24461D01*
D02*
G37*
G36*
X337772D02*
X335303D01*
Y21992D01*
X337772D01*
Y24461D01*
D02*
G37*
G36*
X334303D02*
X331835D01*
Y21992D01*
X334303D01*
Y24461D01*
D02*
G37*
G36*
X388937Y22244D02*
X380669D01*
Y13976D01*
X388937D01*
Y22244D01*
D02*
G37*
G36*
X328937D02*
X320669D01*
Y13976D01*
X328937D01*
Y22244D01*
D02*
G37*
G36*
X388756Y12063D02*
X385303D01*
Y8610D01*
X388756D01*
Y12063D01*
D02*
G37*
G36*
X384303D02*
X380850D01*
Y8610D01*
X384303D01*
Y12063D01*
D02*
G37*
G36*
X388756Y7610D02*
X385303D01*
Y4157D01*
X388756D01*
Y7610D01*
D02*
G37*
G36*
X384303D02*
X380850D01*
Y4157D01*
X384303D01*
Y7610D01*
D02*
G37*
G36*
X378937Y12244D02*
X370669D01*
Y3976D01*
X378937D01*
Y12244D01*
D02*
G37*
G36*
X368937D02*
X360669D01*
Y3976D01*
X368937D01*
Y12244D01*
D02*
G37*
G36*
X348937D02*
X340669D01*
Y3976D01*
X348937D01*
Y12244D01*
D02*
G37*
G36*
X338937D02*
X330669D01*
Y3976D01*
X338937D01*
Y12244D01*
D02*
G37*
G36*
X328937D02*
X320669D01*
Y3976D01*
X328937D01*
Y12244D01*
D02*
G37*
G36*
X300394Y53236D02*
X298031D01*
X298021Y53233D01*
X299213Y52042D01*
X300405Y53233D01*
X300394Y53236D01*
D02*
G37*
G36*
X253150D02*
X250787D01*
X250777Y53233D01*
X251969Y52042D01*
X253160Y53233D01*
X253150Y53236D01*
D02*
G37*
G36*
X230787Y132677D02*
X222913D01*
Y124803D01*
X230787D01*
Y132677D01*
D02*
G37*
G36*
X170787D02*
X162913D01*
Y124803D01*
X170787D01*
Y132677D01*
D02*
G37*
G36*
X230787Y122677D02*
X222913D01*
Y114803D01*
X230787D01*
Y122677D01*
D02*
G37*
G36*
X170787D02*
X162913D01*
Y114803D01*
X170787D01*
Y122677D01*
D02*
G37*
G36*
X204819Y107358D02*
X202350D01*
Y104890D01*
X204819D01*
Y107358D01*
D02*
G37*
G36*
X201350D02*
X198882D01*
Y104890D01*
X201350D01*
Y107358D01*
D02*
G37*
G36*
X194819Y107358D02*
X192350D01*
Y104890D01*
X194819D01*
Y107358D01*
D02*
G37*
G36*
X191350D02*
X188882D01*
Y104890D01*
X191350D01*
Y107358D01*
D02*
G37*
G36*
X230787Y112677D02*
X222913D01*
Y104803D01*
X230787D01*
Y112677D01*
D02*
G37*
G36*
X170787D02*
X162913D01*
Y104803D01*
X170787D01*
Y112677D01*
D02*
G37*
G36*
X219350Y113747D02*
X218582Y113594D01*
X217931Y113159D01*
X217496Y112508D01*
X217343Y111740D01*
X217406Y111425D01*
X210786Y104805D01*
X210460Y104316D01*
X210345Y103740D01*
Y102997D01*
X209841Y102659D01*
X209405Y102008D01*
X209253Y101240D01*
X209405Y100472D01*
X209841Y99821D01*
X210492Y99386D01*
X211260Y99233D01*
X212028Y99386D01*
X212679Y99821D01*
X213114Y100472D01*
X213267Y101240D01*
X213218Y101486D01*
X213241Y101521D01*
X213356Y102097D01*
Y103117D01*
X220138Y109899D01*
X220770Y110321D01*
X221205Y110972D01*
X221357Y111740D01*
X221205Y112508D01*
X220770Y113159D01*
X220118Y113594D01*
X219350Y113747D01*
D02*
G37*
G36*
X204819Y103890D02*
X198882D01*
Y101537D01*
X198882Y101421D01*
X198898Y100928D01*
Y97619D01*
X198398Y97468D01*
X198270Y97659D01*
X197618Y98094D01*
X196850Y98247D01*
X196082Y98094D01*
X195431Y97659D01*
X195303Y97468D01*
X194803Y97619D01*
Y100928D01*
X194819Y101421D01*
X194819Y101537D01*
Y103890D01*
X191850D01*
X188882D01*
Y101537D01*
X188882Y101421D01*
X188898Y100928D01*
Y95138D01*
X189843D01*
Y94153D01*
X189370D01*
Y81555D01*
X204331D01*
Y94153D01*
X203857D01*
Y95138D01*
X204803D01*
Y100928D01*
X204819Y101421D01*
X204819Y101537D01*
Y103890D01*
D02*
G37*
G36*
X230787Y102677D02*
X222913D01*
Y94803D01*
X230787D01*
Y102677D01*
D02*
G37*
G36*
X170787D02*
X162913D01*
Y94803D01*
X170787D01*
Y102677D01*
D02*
G37*
G36*
X230787Y92677D02*
X222913D01*
Y84803D01*
X230787D01*
Y92677D01*
D02*
G37*
G36*
X170787D02*
X162913D01*
Y84803D01*
X170787D01*
Y92677D01*
D02*
G37*
G36*
X230787Y82677D02*
X222913D01*
Y74803D01*
X230787D01*
Y82677D01*
D02*
G37*
G36*
X205405Y70941D02*
X202937D01*
Y65126D01*
X205405D01*
Y70941D01*
D02*
G37*
G36*
X230787Y72677D02*
X222913D01*
Y64803D01*
X230787D01*
Y72677D01*
D02*
G37*
G36*
X212350Y64858D02*
Y62390D01*
X214819D01*
Y64858D01*
X212350D01*
D02*
G37*
G36*
X170787Y82677D02*
X162913D01*
Y74803D01*
X170787D01*
Y74803D01*
X171050Y74912D01*
X175345Y70617D01*
Y66240D01*
X175460Y65664D01*
X175786Y65176D01*
X177374Y63588D01*
X177496Y62972D01*
X177931Y62321D01*
X178582Y61886D01*
X179350Y61733D01*
X180119Y61886D01*
X180770Y62321D01*
X181205Y62972D01*
X181358Y63740D01*
X181205Y64508D01*
X180770Y65159D01*
X180119Y65594D01*
X179502Y65717D01*
X178356Y66864D01*
Y71240D01*
X178241Y71816D01*
X177915Y72305D01*
X171767Y78452D01*
X171279Y78778D01*
X170787Y78876D01*
Y82677D01*
D02*
G37*
G36*
X199803Y70925D02*
X193898D01*
Y58327D01*
X199803D01*
Y65733D01*
X199850D01*
X200619Y65886D01*
X201270Y66321D01*
X201705Y66972D01*
X201857Y67740D01*
X201705Y68508D01*
X201270Y69159D01*
X200619Y69594D01*
X199850Y69747D01*
X199803D01*
Y70925D01*
D02*
G37*
G36*
X205405Y64126D02*
X202937D01*
Y58311D01*
X205405D01*
Y64126D01*
D02*
G37*
G36*
X170787Y72677D02*
X162913D01*
Y64803D01*
X169166D01*
X169311Y64774D01*
X169687D01*
X174989Y59473D01*
X174843Y58740D01*
X174996Y57972D01*
X175286Y57538D01*
X174960Y57126D01*
X174350Y57247D01*
X173618Y57102D01*
X171915Y58805D01*
X171426Y59131D01*
X170850Y59246D01*
X170787D01*
Y62677D01*
X162913D01*
Y54803D01*
X170787D01*
Y55021D01*
X171249Y55212D01*
X172286Y54176D01*
X172774Y53850D01*
X172937Y53817D01*
X173582Y53386D01*
X174350Y53233D01*
X175119Y53386D01*
X175770Y53821D01*
X176205Y54472D01*
X176357Y55240D01*
X176205Y56008D01*
X175915Y56442D01*
X176241Y56854D01*
X176850Y56733D01*
X177619Y56886D01*
X178270Y57321D01*
X178705Y57972D01*
X178858Y58740D01*
X178705Y59508D01*
X178270Y60159D01*
X178099Y60274D01*
X178053Y60505D01*
X177726Y60993D01*
X171375Y67344D01*
X170887Y67670D01*
X170787Y67690D01*
Y72677D01*
D02*
G37*
G36*
X230787Y62677D02*
X222913D01*
Y54803D01*
X230787D01*
Y62677D01*
D02*
G37*
G36*
X179819Y52358D02*
X177350D01*
Y49890D01*
X179819D01*
Y52358D01*
D02*
G37*
G36*
X176350D02*
X173882D01*
Y49890D01*
X176350D01*
Y52358D01*
D02*
G37*
G36*
X170787Y52677D02*
X162913D01*
Y44803D01*
X170787D01*
Y52677D01*
D02*
G37*
G36*
X190748Y70925D02*
X184843D01*
Y58327D01*
X185788D01*
Y52516D01*
X181431Y48159D01*
X180996Y47508D01*
X180843Y46740D01*
Y43571D01*
X180265Y42993D01*
X179803Y43185D01*
Y45928D01*
X179819Y46421D01*
X179819Y46537D01*
Y48890D01*
X173882D01*
Y46537D01*
X173882Y46421D01*
X173898Y45928D01*
Y40747D01*
X170787D01*
Y42677D01*
X162913D01*
Y34803D01*
X170787D01*
Y36733D01*
X173898D01*
Y31552D01*
X173882Y31059D01*
X173882Y30944D01*
Y28591D01*
X179819D01*
Y30944D01*
X179819Y31059D01*
X179803Y31552D01*
Y37009D01*
X180270Y37321D01*
X184270Y41321D01*
X184705Y41972D01*
X184857Y42740D01*
Y45909D01*
X189215Y50266D01*
X189650Y50917D01*
X189802Y51685D01*
Y58327D01*
X190748D01*
Y70925D01*
D02*
G37*
G36*
X214819Y40091D02*
X212350D01*
Y37622D01*
X214819D01*
Y40091D01*
D02*
G37*
G36*
X211350D02*
X208882D01*
Y37622D01*
X211350D01*
Y40091D01*
D02*
G37*
G36*
X170803Y32693D02*
X167350D01*
Y29240D01*
X170803D01*
Y32693D01*
D02*
G37*
G36*
X166350D02*
X162898D01*
Y29240D01*
X166350D01*
Y32693D01*
D02*
G37*
G36*
X226350D02*
X222898D01*
Y29240D01*
X226350D01*
Y32693D01*
D02*
G37*
G36*
X212618Y36262D02*
X211850Y36109D01*
X211199Y35674D01*
X210764Y35023D01*
X210611Y34255D01*
Y32857D01*
X209666D01*
Y27345D01*
X215571D01*
Y32857D01*
X214626D01*
Y34255D01*
X214473Y35023D01*
X214038Y35674D01*
X213387Y36109D01*
X212618Y36262D01*
D02*
G37*
G36*
X179819Y27591D02*
X177350D01*
Y25122D01*
X179819D01*
Y27591D01*
D02*
G37*
G36*
X176350D02*
X173882D01*
Y25122D01*
X176350D01*
Y27591D01*
D02*
G37*
G36*
X195787Y32677D02*
X187913D01*
Y24803D01*
X195787D01*
Y32677D01*
D02*
G37*
G36*
X226350Y28240D02*
X222898D01*
Y24787D01*
X226350D01*
Y28240D01*
D02*
G37*
G36*
X170803Y28240D02*
X167350D01*
Y24787D01*
X170803D01*
Y28240D01*
D02*
G37*
G36*
X166350D02*
X162898D01*
Y24787D01*
X166350D01*
Y28240D01*
D02*
G37*
G36*
X208874Y70941D02*
X206405D01*
Y64626D01*
Y58311D01*
X208398D01*
X208874Y58311D01*
X208898Y57821D01*
Y52638D01*
X209843D01*
Y49843D01*
X208898D01*
Y48897D01*
X207500D01*
X206732Y48744D01*
X206081Y48309D01*
X200431Y42659D01*
X199996Y42008D01*
X199843Y41240D01*
Y32162D01*
X199042Y31548D01*
X198411Y30726D01*
X198015Y29768D01*
X197879Y28740D01*
X198015Y27712D01*
X198411Y26755D01*
X199042Y25932D01*
X199865Y25301D01*
X200823Y24904D01*
X201850Y24769D01*
X202851Y24901D01*
X205431Y22321D01*
X205795Y22078D01*
X206399Y21475D01*
X207050Y21039D01*
X207818Y20887D01*
X209666D01*
Y20652D01*
X215571D01*
Y26164D01*
X209666D01*
Y24901D01*
X208649D01*
X208390Y25159D01*
X208026Y25403D01*
X205690Y27739D01*
X205821Y28740D01*
X205686Y29768D01*
X205289Y30726D01*
X204658Y31548D01*
X203857Y32162D01*
Y40409D01*
X208331Y44883D01*
X208898D01*
Y44052D01*
X208882Y43559D01*
X208882Y43444D01*
Y41091D01*
X211850D01*
X214819D01*
Y43444D01*
X214819Y43559D01*
X214813Y43733D01*
X215228Y44233D01*
X218519D01*
X222913Y39839D01*
Y34803D01*
X230345D01*
Y32693D01*
X227350D01*
Y28740D01*
Y24787D01*
X230345D01*
Y22531D01*
X229996Y22008D01*
X229843Y21240D01*
X229996Y20472D01*
X230431Y19821D01*
X231082Y19386D01*
X231850Y19233D01*
X232618Y19386D01*
X233270Y19821D01*
X233705Y20472D01*
X233857Y21240D01*
X233705Y22008D01*
X233356Y22531D01*
Y38164D01*
X233241Y38740D01*
X232915Y39228D01*
X232338Y39805D01*
X231850Y40131D01*
X231274Y40245D01*
X230787D01*
Y42677D01*
X225752D01*
X224088Y44341D01*
X224279Y44803D01*
X230787D01*
Y52677D01*
X222913D01*
Y46169D01*
X222451Y45978D01*
X220770Y47659D01*
X220118Y48094D01*
X219350Y48247D01*
X214803D01*
Y49843D01*
X213858D01*
Y52638D01*
X214803D01*
Y58428D01*
X214819Y58921D01*
X214819Y59037D01*
Y61390D01*
X211850D01*
Y61890D01*
X211350D01*
Y64858D01*
X208882D01*
X208874Y65355D01*
Y70941D01*
D02*
G37*
G36*
X201850Y22711D02*
X200823Y22576D01*
X199865Y22179D01*
X199042Y21548D01*
X198411Y20726D01*
X198015Y19768D01*
X197879Y18740D01*
X198015Y17712D01*
X198411Y16755D01*
X199042Y15932D01*
X199865Y15301D01*
X200823Y14905D01*
X201850Y14769D01*
X202878Y14905D01*
X203836Y15301D01*
X204658Y15932D01*
X205289Y16755D01*
X205686Y17712D01*
X205821Y18740D01*
X205686Y19768D01*
X205289Y20726D01*
X204658Y21548D01*
X203836Y22179D01*
X202878Y22576D01*
X201850Y22711D01*
D02*
G37*
G36*
X191850D02*
X190823Y22576D01*
X189865Y22179D01*
X189042Y21548D01*
X188411Y20726D01*
X188015Y19768D01*
X187879Y18740D01*
X188015Y17712D01*
X188411Y16755D01*
X189042Y15932D01*
X189865Y15301D01*
X190823Y14905D01*
X191850Y14769D01*
X192878Y14905D01*
X193836Y15301D01*
X194658Y15932D01*
X195289Y16755D01*
X195686Y17712D01*
X195821Y18740D01*
X195686Y19768D01*
X195289Y20726D01*
X194658Y21548D01*
X193836Y22179D01*
X192878Y22576D01*
X191850Y22711D01*
D02*
G37*
G36*
X178524Y23094D02*
X175177D01*
X174483Y23002D01*
X173837Y22735D01*
X173282Y22309D01*
X172856Y21754D01*
X172588Y21107D01*
X172497Y20413D01*
Y17067D01*
X172588Y16373D01*
X172856Y15727D01*
X173282Y15172D01*
X173837Y14746D01*
X174483Y14478D01*
X175177Y14387D01*
X178524D01*
X179217Y14478D01*
X179864Y14746D01*
X180419Y15172D01*
X180845Y15727D01*
X181113Y16373D01*
X181204Y17067D01*
Y20413D01*
X181113Y21107D01*
X180845Y21754D01*
X180419Y22309D01*
X179864Y22735D01*
X179217Y23002D01*
X178524Y23094D01*
D02*
G37*
G36*
X168524D02*
X165177D01*
X164483Y23002D01*
X163837Y22735D01*
X163282Y22309D01*
X162856Y21754D01*
X162588Y21107D01*
X162497Y20413D01*
Y17067D01*
X162588Y16373D01*
X162856Y15727D01*
X163282Y15172D01*
X163837Y14746D01*
X164483Y14478D01*
X165177Y14387D01*
X168524D01*
X169217Y14478D01*
X169864Y14746D01*
X170419Y15172D01*
X170845Y15727D01*
X171113Y16373D01*
X171204Y17067D01*
Y20413D01*
X171113Y21107D01*
X170845Y21754D01*
X170419Y22309D01*
X169864Y22735D01*
X169217Y23002D01*
X168524Y23094D01*
D02*
G37*
G36*
X202350Y12661D02*
Y9240D01*
X205771D01*
X205701Y9772D01*
X205303Y10734D01*
X204669Y11559D01*
X203844Y12193D01*
X202882Y12591D01*
X202350Y12661D01*
D02*
G37*
G36*
X201350D02*
X200818Y12591D01*
X199857Y12193D01*
X199031Y11559D01*
X198398Y10734D01*
X197999Y9772D01*
X197929Y9240D01*
X201350D01*
Y12661D01*
D02*
G37*
G36*
X205771Y8240D02*
X202350D01*
Y4819D01*
X202882Y4889D01*
X203844Y5287D01*
X204669Y5921D01*
X205303Y6747D01*
X205701Y7708D01*
X205771Y8240D01*
D02*
G37*
G36*
X201350D02*
X197929D01*
X197999Y7708D01*
X198398Y6747D01*
X199031Y5921D01*
X199857Y5287D01*
X200818Y4889D01*
X201350Y4819D01*
Y8240D01*
D02*
G37*
G36*
X191850Y12711D02*
X190823Y12576D01*
X189865Y12179D01*
X189042Y11548D01*
X188411Y10726D01*
X188015Y9768D01*
X187879Y8740D01*
X188015Y7712D01*
X188411Y6755D01*
X189042Y5932D01*
X189865Y5301D01*
X190823Y4905D01*
X191850Y4769D01*
X192878Y4905D01*
X193836Y5301D01*
X194658Y5932D01*
X195289Y6755D01*
X195686Y7712D01*
X195821Y8740D01*
X195686Y9768D01*
X195289Y10726D01*
X194658Y11548D01*
X193836Y12179D01*
X192878Y12576D01*
X191850Y12711D01*
D02*
G37*
G36*
X178524Y13094D02*
X175177D01*
X174483Y13002D01*
X173837Y12735D01*
X173282Y12309D01*
X172856Y11754D01*
X172588Y11107D01*
X172497Y10413D01*
Y7067D01*
X172588Y6373D01*
X172856Y5727D01*
X173282Y5172D01*
X173837Y4746D01*
X174483Y4478D01*
X175177Y4386D01*
X178524D01*
X179217Y4478D01*
X179864Y4746D01*
X180419Y5172D01*
X180845Y5727D01*
X181113Y6373D01*
X181204Y7067D01*
Y10413D01*
X181113Y11107D01*
X180845Y11754D01*
X180419Y12309D01*
X179864Y12735D01*
X179217Y13002D01*
X178524Y13094D01*
D02*
G37*
G36*
X168524D02*
X165177D01*
X164483Y13002D01*
X163837Y12735D01*
X163282Y12309D01*
X162856Y11754D01*
X162588Y11107D01*
X162497Y10413D01*
Y7067D01*
X162588Y6373D01*
X162856Y5727D01*
X163282Y5172D01*
X163837Y4746D01*
X164483Y4478D01*
X165177Y4386D01*
X168524D01*
X169217Y4478D01*
X169864Y4746D01*
X170419Y5172D01*
X170845Y5727D01*
X171113Y6373D01*
X171204Y7067D01*
Y10413D01*
X171113Y11107D01*
X170845Y11754D01*
X170419Y12309D01*
X169864Y12735D01*
X169217Y13002D01*
X168524Y13094D01*
D02*
G37*
G36*
X152047Y132677D02*
X144173D01*
Y124803D01*
X152047D01*
Y132677D01*
D02*
G37*
G36*
X92047D02*
X84173D01*
Y124803D01*
X92047D01*
Y132677D01*
D02*
G37*
G36*
X152047Y122677D02*
X144173D01*
Y114803D01*
X152047D01*
Y122677D01*
D02*
G37*
G36*
X92047D02*
X84173D01*
Y114803D01*
X92047D01*
Y122677D01*
D02*
G37*
G36*
X126079Y107358D02*
X123610D01*
Y104890D01*
X126079D01*
Y107358D01*
D02*
G37*
G36*
X122610D02*
X120142D01*
Y104890D01*
X122610D01*
Y107358D01*
D02*
G37*
G36*
X116079Y107358D02*
X113610D01*
Y104890D01*
X116079D01*
Y107358D01*
D02*
G37*
G36*
X112610D02*
X110142D01*
Y104890D01*
X112610D01*
Y107358D01*
D02*
G37*
G36*
X152047Y112677D02*
X144173D01*
Y104803D01*
X152047D01*
Y112677D01*
D02*
G37*
G36*
X92047D02*
X84173D01*
Y104803D01*
X92047D01*
Y112677D01*
D02*
G37*
G36*
X140610Y113747D02*
X139842Y113594D01*
X139191Y113159D01*
X138756Y112508D01*
X138603Y111740D01*
X138666Y111425D01*
X132046Y104805D01*
X131720Y104316D01*
X131605Y103740D01*
Y102997D01*
X131100Y102659D01*
X130665Y102008D01*
X130513Y101240D01*
X130665Y100472D01*
X131100Y99821D01*
X131752Y99386D01*
X132520Y99233D01*
X133288Y99386D01*
X133939Y99821D01*
X134374Y100472D01*
X134527Y101240D01*
X134478Y101486D01*
X134501Y101521D01*
X134616Y102097D01*
Y103117D01*
X141398Y109899D01*
X142029Y110321D01*
X142464Y110972D01*
X142617Y111740D01*
X142464Y112508D01*
X142029Y113159D01*
X141378Y113594D01*
X140610Y113747D01*
D02*
G37*
G36*
X126079Y103890D02*
X120142D01*
Y101537D01*
X120142Y101421D01*
X120158Y100928D01*
Y97619D01*
X119658Y97468D01*
X119529Y97659D01*
X118878Y98094D01*
X118110Y98247D01*
X117342Y98094D01*
X116691Y97659D01*
X116563Y97468D01*
X116063Y97619D01*
Y100928D01*
X116079Y101421D01*
X116079Y101537D01*
Y103890D01*
X113110D01*
X110142D01*
Y101537D01*
X110142Y101421D01*
X110158Y100928D01*
Y95138D01*
X111103D01*
Y94153D01*
X110630D01*
Y81555D01*
X125591D01*
Y94153D01*
X125117D01*
Y95138D01*
X126063D01*
Y100928D01*
X126079Y101421D01*
X126079Y101537D01*
Y103890D01*
D02*
G37*
G36*
X152047Y102677D02*
X144173D01*
Y94803D01*
X152047D01*
Y102677D01*
D02*
G37*
G36*
X92047D02*
X84173D01*
Y94803D01*
X92047D01*
Y102677D01*
D02*
G37*
G36*
X152047Y92677D02*
X144173D01*
Y84803D01*
X152047D01*
Y92677D01*
D02*
G37*
G36*
X92047D02*
X84173D01*
Y84803D01*
X92047D01*
Y92677D01*
D02*
G37*
G36*
X152047Y82677D02*
X144173D01*
Y74803D01*
X152047D01*
Y82677D01*
D02*
G37*
G36*
X126665Y70941D02*
X124197D01*
Y65126D01*
X126665D01*
Y70941D01*
D02*
G37*
G36*
X152047Y72677D02*
X144173D01*
Y64803D01*
X152047D01*
Y72677D01*
D02*
G37*
G36*
X133610Y64858D02*
Y62390D01*
X136079D01*
Y64858D01*
X133610D01*
D02*
G37*
G36*
X92047Y82677D02*
X84173D01*
Y74803D01*
X92047D01*
Y74803D01*
X92310Y74912D01*
X96605Y70617D01*
Y66240D01*
X96719Y65664D01*
X97046Y65176D01*
X98633Y63588D01*
X98756Y62972D01*
X99191Y62321D01*
X99842Y61886D01*
X100610Y61733D01*
X101378Y61886D01*
X102029Y62321D01*
X102464Y62972D01*
X102617Y63740D01*
X102464Y64508D01*
X102029Y65159D01*
X101378Y65594D01*
X100762Y65717D01*
X99616Y66864D01*
Y71240D01*
X99501Y71816D01*
X99175Y72305D01*
X93027Y78452D01*
X92539Y78778D01*
X92047Y78876D01*
Y82677D01*
D02*
G37*
G36*
X121063Y70925D02*
X115157D01*
Y58327D01*
X121063D01*
Y65733D01*
X121110D01*
X121878Y65886D01*
X122529Y66321D01*
X122965Y66972D01*
X123117Y67740D01*
X122965Y68508D01*
X122529Y69159D01*
X121878Y69594D01*
X121110Y69747D01*
X121063D01*
Y70925D01*
D02*
G37*
G36*
X126665Y64126D02*
X124197D01*
Y58311D01*
X126665D01*
Y64126D01*
D02*
G37*
G36*
X92047Y72677D02*
X84173D01*
Y64803D01*
X90425D01*
X90571Y64774D01*
X90947D01*
X96249Y59473D01*
X96103Y58740D01*
X96256Y57972D01*
X96546Y57538D01*
X96220Y57126D01*
X95610Y57247D01*
X94878Y57102D01*
X93175Y58805D01*
X92686Y59131D01*
X92110Y59246D01*
X92047D01*
Y62677D01*
X84173D01*
Y54803D01*
X92047D01*
Y55021D01*
X92509Y55212D01*
X93546Y54176D01*
X94034Y53850D01*
X94197Y53817D01*
X94842Y53386D01*
X95610Y53233D01*
X96378Y53386D01*
X97029Y53821D01*
X97465Y54472D01*
X97617Y55240D01*
X97465Y56008D01*
X97175Y56442D01*
X97500Y56854D01*
X98110Y56733D01*
X98878Y56886D01*
X99529Y57321D01*
X99964Y57972D01*
X100117Y58740D01*
X99964Y59508D01*
X99529Y60159D01*
X99359Y60274D01*
X99313Y60505D01*
X98986Y60993D01*
X92635Y67344D01*
X92147Y67670D01*
X92047Y67690D01*
Y72677D01*
D02*
G37*
G36*
X152047Y62677D02*
X144173D01*
Y54803D01*
X152047D01*
Y62677D01*
D02*
G37*
G36*
X101079Y52358D02*
X98610D01*
Y49890D01*
X101079D01*
Y52358D01*
D02*
G37*
G36*
X97610D02*
X95142D01*
Y49890D01*
X97610D01*
Y52358D01*
D02*
G37*
G36*
X92047Y52677D02*
X84173D01*
Y44803D01*
X92047D01*
Y52677D01*
D02*
G37*
G36*
X112008Y70925D02*
X106102D01*
Y58327D01*
X107048D01*
Y52516D01*
X102691Y48159D01*
X102256Y47508D01*
X102103Y46740D01*
Y43571D01*
X101525Y42993D01*
X101063Y43185D01*
Y45928D01*
X101079Y46421D01*
X101079Y46537D01*
Y48890D01*
X95142D01*
Y46537D01*
X95142Y46421D01*
X95157Y45928D01*
Y40747D01*
X92047D01*
Y42677D01*
X84173D01*
Y34803D01*
X92047D01*
Y36733D01*
X95157D01*
Y31552D01*
X95142Y31059D01*
X95142Y30944D01*
Y28591D01*
X101079D01*
Y30944D01*
X101079Y31059D01*
X101063Y31552D01*
Y37009D01*
X101529Y37321D01*
X105529Y41321D01*
X105965Y41972D01*
X106117Y42740D01*
Y45909D01*
X110474Y50266D01*
X110909Y50917D01*
X111062Y51685D01*
Y58327D01*
X112008D01*
Y70925D01*
D02*
G37*
G36*
X136079Y40091D02*
X133610D01*
Y37622D01*
X136079D01*
Y40091D01*
D02*
G37*
G36*
X132610D02*
X130142D01*
Y37622D01*
X132610D01*
Y40091D01*
D02*
G37*
G36*
X92063Y32693D02*
X88610D01*
Y29240D01*
X92063D01*
Y32693D01*
D02*
G37*
G36*
X87610D02*
X84158D01*
Y29240D01*
X87610D01*
Y32693D01*
D02*
G37*
G36*
X147610D02*
X144158D01*
Y29240D01*
X147610D01*
Y32693D01*
D02*
G37*
G36*
X133878Y36262D02*
X133110Y36109D01*
X132459Y35674D01*
X132024Y35023D01*
X131871Y34255D01*
Y32857D01*
X130926D01*
Y27345D01*
X136831D01*
Y32857D01*
X135885D01*
Y34255D01*
X135733Y35023D01*
X135298Y35674D01*
X134646Y36109D01*
X133878Y36262D01*
D02*
G37*
G36*
X101079Y27591D02*
X98610D01*
Y25122D01*
X101079D01*
Y27591D01*
D02*
G37*
G36*
X97610D02*
X95142D01*
Y25122D01*
X97610D01*
Y27591D01*
D02*
G37*
G36*
X117047Y32677D02*
X109173D01*
Y24803D01*
X117047D01*
Y32677D01*
D02*
G37*
G36*
X147610Y28240D02*
X144158D01*
Y24787D01*
X147610D01*
Y28240D01*
D02*
G37*
G36*
X92063Y28240D02*
X88610D01*
Y24787D01*
X92063D01*
Y28240D01*
D02*
G37*
G36*
X87610D02*
X84158D01*
Y24787D01*
X87610D01*
Y28240D01*
D02*
G37*
G36*
X130134Y70941D02*
X127665D01*
Y64626D01*
Y58311D01*
X129657D01*
X130134Y58311D01*
X130157Y57821D01*
Y52638D01*
X131103D01*
Y49843D01*
X130157D01*
Y48897D01*
X128760D01*
X127992Y48744D01*
X127341Y48309D01*
X121691Y42659D01*
X121256Y42008D01*
X121103Y41240D01*
Y32162D01*
X120302Y31548D01*
X119671Y30726D01*
X119275Y29768D01*
X119139Y28740D01*
X119275Y27712D01*
X119671Y26755D01*
X120302Y25932D01*
X121125Y25301D01*
X122082Y24904D01*
X123110Y24769D01*
X124111Y24901D01*
X126691Y22321D01*
X127055Y22078D01*
X127658Y21475D01*
X128309Y21039D01*
X129077Y20887D01*
X130926D01*
Y20652D01*
X136831D01*
Y26164D01*
X130926D01*
Y24901D01*
X129909D01*
X129650Y25159D01*
X129286Y25403D01*
X126950Y27739D01*
X127081Y28740D01*
X126946Y29768D01*
X126549Y30726D01*
X125918Y31548D01*
X125117Y32162D01*
Y40409D01*
X129591Y44883D01*
X130157D01*
Y44052D01*
X130142Y43559D01*
X130142Y43444D01*
Y41091D01*
X133110D01*
X136079D01*
Y43444D01*
X136079Y43559D01*
X136073Y43733D01*
X136488Y44233D01*
X139779D01*
X144173Y39839D01*
Y34803D01*
X151605D01*
Y32693D01*
X148610D01*
Y28740D01*
Y24787D01*
X151605D01*
Y22531D01*
X151256Y22008D01*
X151103Y21240D01*
X151256Y20472D01*
X151691Y19821D01*
X152342Y19386D01*
X153110Y19233D01*
X153878Y19386D01*
X154529Y19821D01*
X154964Y20472D01*
X155117Y21240D01*
X154964Y22008D01*
X154615Y22531D01*
Y38164D01*
X154501Y38740D01*
X154175Y39228D01*
X153598Y39805D01*
X153110Y40131D01*
X152534Y40245D01*
X152047D01*
Y42677D01*
X147012D01*
X145348Y44341D01*
X145539Y44803D01*
X152047D01*
Y52677D01*
X144173D01*
Y46169D01*
X143711Y45978D01*
X142029Y47659D01*
X141378Y48094D01*
X140610Y48247D01*
X136063D01*
Y49843D01*
X135117D01*
Y52638D01*
X136063D01*
Y58428D01*
X136079Y58921D01*
X136079Y59037D01*
Y61390D01*
X133110D01*
Y61890D01*
X132610D01*
Y64858D01*
X130142D01*
X130134Y65355D01*
Y70941D01*
D02*
G37*
G36*
X123110Y22711D02*
X122082Y22576D01*
X121125Y22179D01*
X120302Y21548D01*
X119671Y20726D01*
X119275Y19768D01*
X119139Y18740D01*
X119275Y17712D01*
X119671Y16755D01*
X120302Y15932D01*
X121125Y15301D01*
X122082Y14905D01*
X123110Y14769D01*
X124138Y14905D01*
X125096Y15301D01*
X125918Y15932D01*
X126549Y16755D01*
X126946Y17712D01*
X127081Y18740D01*
X126946Y19768D01*
X126549Y20726D01*
X125918Y21548D01*
X125096Y22179D01*
X124138Y22576D01*
X123110Y22711D01*
D02*
G37*
G36*
X113110D02*
X112083Y22576D01*
X111125Y22179D01*
X110302Y21548D01*
X109671Y20726D01*
X109275Y19768D01*
X109139Y18740D01*
X109275Y17712D01*
X109671Y16755D01*
X110302Y15932D01*
X111125Y15301D01*
X112083Y14905D01*
X113110Y14769D01*
X114138Y14905D01*
X115096Y15301D01*
X115918Y15932D01*
X116549Y16755D01*
X116946Y17712D01*
X117081Y18740D01*
X116946Y19768D01*
X116549Y20726D01*
X115918Y21548D01*
X115096Y22179D01*
X114138Y22576D01*
X113110Y22711D01*
D02*
G37*
G36*
X99783Y23094D02*
X96437D01*
X95743Y23002D01*
X95097Y22735D01*
X94542Y22309D01*
X94116Y21754D01*
X93848Y21107D01*
X93757Y20413D01*
Y17067D01*
X93848Y16373D01*
X94116Y15727D01*
X94542Y15172D01*
X95097Y14746D01*
X95743Y14478D01*
X96437Y14387D01*
X99783D01*
X100477Y14478D01*
X101124Y14746D01*
X101679Y15172D01*
X102105Y15727D01*
X102373Y16373D01*
X102464Y17067D01*
Y20413D01*
X102373Y21107D01*
X102105Y21754D01*
X101679Y22309D01*
X101124Y22735D01*
X100477Y23002D01*
X99783Y23094D01*
D02*
G37*
G36*
X89784D02*
X86437D01*
X85743Y23002D01*
X85097Y22735D01*
X84542Y22309D01*
X84116Y21754D01*
X83848Y21107D01*
X83757Y20413D01*
Y17067D01*
X83848Y16373D01*
X84116Y15727D01*
X84542Y15172D01*
X85097Y14746D01*
X85743Y14478D01*
X86437Y14387D01*
X89784D01*
X90477Y14478D01*
X91124Y14746D01*
X91679Y15172D01*
X92105Y15727D01*
X92373Y16373D01*
X92464Y17067D01*
Y20413D01*
X92373Y21107D01*
X92105Y21754D01*
X91679Y22309D01*
X91124Y22735D01*
X90477Y23002D01*
X89784Y23094D01*
D02*
G37*
G36*
X123610Y12661D02*
Y9240D01*
X127031D01*
X126961Y9772D01*
X126563Y10734D01*
X125929Y11559D01*
X125104Y12193D01*
X124142Y12591D01*
X123610Y12661D01*
D02*
G37*
G36*
X122610D02*
X122078Y12591D01*
X121117Y12193D01*
X120291Y11559D01*
X119658Y10734D01*
X119259Y9772D01*
X119189Y9240D01*
X122610D01*
Y12661D01*
D02*
G37*
G36*
X127031Y8240D02*
X123610D01*
Y4819D01*
X124142Y4889D01*
X125104Y5287D01*
X125929Y5921D01*
X126563Y6747D01*
X126961Y7708D01*
X127031Y8240D01*
D02*
G37*
G36*
X122610D02*
X119189D01*
X119259Y7708D01*
X119658Y6747D01*
X120291Y5921D01*
X121117Y5287D01*
X122078Y4889D01*
X122610Y4819D01*
Y8240D01*
D02*
G37*
G36*
X113110Y12711D02*
X112083Y12576D01*
X111125Y12179D01*
X110302Y11548D01*
X109671Y10726D01*
X109275Y9768D01*
X109139Y8740D01*
X109275Y7712D01*
X109671Y6755D01*
X110302Y5932D01*
X111125Y5301D01*
X112083Y4905D01*
X113110Y4769D01*
X114138Y4905D01*
X115096Y5301D01*
X115918Y5932D01*
X116549Y6755D01*
X116946Y7712D01*
X117081Y8740D01*
X116946Y9768D01*
X116549Y10726D01*
X115918Y11548D01*
X115096Y12179D01*
X114138Y12576D01*
X113110Y12711D01*
D02*
G37*
G36*
X99783Y13094D02*
X96437D01*
X95743Y13002D01*
X95097Y12735D01*
X94542Y12309D01*
X94116Y11754D01*
X93848Y11107D01*
X93757Y10413D01*
Y7067D01*
X93848Y6373D01*
X94116Y5727D01*
X94542Y5172D01*
X95097Y4746D01*
X95743Y4478D01*
X96437Y4386D01*
X99783D01*
X100477Y4478D01*
X101124Y4746D01*
X101679Y5172D01*
X102105Y5727D01*
X102373Y6373D01*
X102464Y7067D01*
Y10413D01*
X102373Y11107D01*
X102105Y11754D01*
X101679Y12309D01*
X101124Y12735D01*
X100477Y13002D01*
X99783Y13094D01*
D02*
G37*
G36*
X89784D02*
X86437D01*
X85743Y13002D01*
X85097Y12735D01*
X84542Y12309D01*
X84116Y11754D01*
X83848Y11107D01*
X83757Y10413D01*
Y7067D01*
X83848Y6373D01*
X84116Y5727D01*
X84542Y5172D01*
X85097Y4746D01*
X85743Y4478D01*
X86437Y4386D01*
X89784D01*
X90477Y4478D01*
X91124Y4746D01*
X91679Y5172D01*
X92105Y5727D01*
X92373Y6373D01*
X92464Y7067D01*
Y10413D01*
X92373Y11107D01*
X92105Y11754D01*
X91679Y12309D01*
X91124Y12735D01*
X90477Y13002D01*
X89784Y13094D01*
D02*
G37*
G36*
X73307Y132677D02*
X65433D01*
Y124803D01*
X73307D01*
Y132677D01*
D02*
G37*
G36*
X13307D02*
X5433D01*
Y124803D01*
X13307D01*
Y132677D01*
D02*
G37*
G36*
X73307Y122677D02*
X65433D01*
Y114803D01*
X73307D01*
Y122677D01*
D02*
G37*
G36*
X13307D02*
X5433D01*
Y114803D01*
X13307D01*
Y122677D01*
D02*
G37*
G36*
X47339Y107358D02*
X44870D01*
Y104890D01*
X47339D01*
Y107358D01*
D02*
G37*
G36*
X43870D02*
X41402D01*
Y104890D01*
X43870D01*
Y107358D01*
D02*
G37*
G36*
X37339Y107358D02*
X34870D01*
Y104890D01*
X37339D01*
Y107358D01*
D02*
G37*
G36*
X33870D02*
X31402D01*
Y104890D01*
X33870D01*
Y107358D01*
D02*
G37*
G36*
X73307Y112677D02*
X65433D01*
Y104803D01*
X73307D01*
Y112677D01*
D02*
G37*
G36*
X13307D02*
X5433D01*
Y104803D01*
X13307D01*
Y112677D01*
D02*
G37*
G36*
X61870Y113747D02*
X61102Y113594D01*
X60451Y113159D01*
X60016Y112508D01*
X59863Y111740D01*
X59926Y111425D01*
X53306Y104805D01*
X52979Y104316D01*
X52865Y103740D01*
Y102997D01*
X52360Y102659D01*
X51925Y102008D01*
X51772Y101240D01*
X51925Y100472D01*
X52360Y99821D01*
X53012Y99386D01*
X53780Y99233D01*
X54548Y99386D01*
X55199Y99821D01*
X55634Y100472D01*
X55787Y101240D01*
X55738Y101486D01*
X55761Y101521D01*
X55875Y102097D01*
Y103117D01*
X62658Y109899D01*
X63289Y110321D01*
X63724Y110972D01*
X63877Y111740D01*
X63724Y112508D01*
X63289Y113159D01*
X62638Y113594D01*
X61870Y113747D01*
D02*
G37*
G36*
X47339Y103890D02*
X41402D01*
Y101537D01*
X41402Y101421D01*
X41417Y100928D01*
Y97619D01*
X40917Y97468D01*
X40789Y97659D01*
X40138Y98094D01*
X39370Y98247D01*
X38602Y98094D01*
X37951Y97659D01*
X37823Y97468D01*
X37323Y97619D01*
Y100928D01*
X37339Y101421D01*
X37339Y101537D01*
Y103890D01*
X34370D01*
X31402D01*
Y101537D01*
X31402Y101421D01*
X31417Y100928D01*
Y95138D01*
X32363D01*
Y94153D01*
X31890D01*
Y81555D01*
X46850D01*
Y94153D01*
X46377D01*
Y95138D01*
X47323D01*
Y100928D01*
X47339Y101421D01*
X47339Y101537D01*
Y103890D01*
D02*
G37*
G36*
X73307Y102677D02*
X65433D01*
Y94803D01*
X73307D01*
Y102677D01*
D02*
G37*
G36*
X13307D02*
X5433D01*
Y94803D01*
X13307D01*
Y102677D01*
D02*
G37*
G36*
X73307Y92677D02*
X65433D01*
Y84803D01*
X73307D01*
Y92677D01*
D02*
G37*
G36*
X13307D02*
X5433D01*
Y84803D01*
X13307D01*
Y92677D01*
D02*
G37*
G36*
X73307Y82677D02*
X65433D01*
Y74803D01*
X73307D01*
Y82677D01*
D02*
G37*
G36*
X47925Y70941D02*
X45457D01*
Y65126D01*
X47925D01*
Y70941D01*
D02*
G37*
G36*
X73307Y72677D02*
X65433D01*
Y64803D01*
X73307D01*
Y72677D01*
D02*
G37*
G36*
X54870Y64858D02*
Y62390D01*
X57339D01*
Y64858D01*
X54870D01*
D02*
G37*
G36*
X13307Y82677D02*
X5433D01*
Y74803D01*
X13307D01*
Y74803D01*
X13570Y74912D01*
X17865Y70617D01*
Y66240D01*
X17979Y65664D01*
X18306Y65176D01*
X19893Y63588D01*
X20016Y62972D01*
X20451Y62321D01*
X21102Y61886D01*
X21870Y61733D01*
X22638Y61886D01*
X23289Y62321D01*
X23724Y62972D01*
X23877Y63740D01*
X23724Y64508D01*
X23289Y65159D01*
X22638Y65594D01*
X22022Y65717D01*
X20875Y66864D01*
Y71240D01*
X20761Y71816D01*
X20435Y72305D01*
X14287Y78452D01*
X13799Y78778D01*
X13307Y78876D01*
Y82677D01*
D02*
G37*
G36*
X42323Y70925D02*
X36417D01*
Y58327D01*
X42323D01*
Y65733D01*
X42370D01*
X43138Y65886D01*
X43789Y66321D01*
X44224Y66972D01*
X44377Y67740D01*
X44224Y68508D01*
X43789Y69159D01*
X43138Y69594D01*
X42370Y69747D01*
X42323D01*
Y70925D01*
D02*
G37*
G36*
X47925Y64126D02*
X45457D01*
Y58311D01*
X47925D01*
Y64126D01*
D02*
G37*
G36*
X13307Y72677D02*
X5433D01*
Y64803D01*
X11685D01*
X11831Y64774D01*
X12207D01*
X17509Y59473D01*
X17363Y58740D01*
X17516Y57972D01*
X17806Y57538D01*
X17480Y57126D01*
X16870Y57247D01*
X16138Y57102D01*
X14435Y58805D01*
X13946Y59131D01*
X13370Y59246D01*
X13307D01*
Y62677D01*
X5433D01*
Y54803D01*
X13307D01*
Y55021D01*
X13769Y55212D01*
X14806Y54176D01*
X15294Y53850D01*
X15457Y53817D01*
X16102Y53386D01*
X16870Y53233D01*
X17638Y53386D01*
X18289Y53821D01*
X18724Y54472D01*
X18877Y55240D01*
X18724Y56008D01*
X18434Y56442D01*
X18760Y56854D01*
X19370Y56733D01*
X20138Y56886D01*
X20789Y57321D01*
X21224Y57972D01*
X21377Y58740D01*
X21224Y59508D01*
X20789Y60159D01*
X20618Y60274D01*
X20572Y60505D01*
X20246Y60993D01*
X13895Y67344D01*
X13407Y67670D01*
X13307Y67690D01*
Y72677D01*
D02*
G37*
G36*
X73307Y62677D02*
X65433D01*
Y54803D01*
X73307D01*
Y62677D01*
D02*
G37*
G36*
X22339Y52358D02*
X19870D01*
Y49890D01*
X22339D01*
Y52358D01*
D02*
G37*
G36*
X18870D02*
X16402D01*
Y49890D01*
X18870D01*
Y52358D01*
D02*
G37*
G36*
X13307Y52677D02*
X5433D01*
Y44803D01*
X13307D01*
Y52677D01*
D02*
G37*
G36*
X33268Y70925D02*
X27362D01*
Y58327D01*
X28308D01*
Y52516D01*
X23951Y48159D01*
X23516Y47508D01*
X23363Y46740D01*
Y43571D01*
X22785Y42993D01*
X22323Y43185D01*
Y45928D01*
X22339Y46421D01*
X22339Y46537D01*
Y48890D01*
X16402D01*
Y46537D01*
X16402Y46421D01*
X16417Y45928D01*
Y40747D01*
X13307D01*
Y42677D01*
X5433D01*
Y34803D01*
X13307D01*
Y36733D01*
X16417D01*
Y31552D01*
X16402Y31059D01*
X16402Y30944D01*
Y28591D01*
X22339D01*
Y30944D01*
X22339Y31059D01*
X22323Y31552D01*
Y37009D01*
X22789Y37321D01*
X26789Y41321D01*
X27224Y41972D01*
X27377Y42740D01*
Y45909D01*
X31734Y50266D01*
X32169Y50917D01*
X32322Y51685D01*
Y58327D01*
X33268D01*
Y70925D01*
D02*
G37*
G36*
X57339Y40091D02*
X54870D01*
Y37622D01*
X57339D01*
Y40091D01*
D02*
G37*
G36*
X53870D02*
X51402D01*
Y37622D01*
X53870D01*
Y40091D01*
D02*
G37*
G36*
X13323Y32693D02*
X9870D01*
Y29240D01*
X13323D01*
Y32693D01*
D02*
G37*
G36*
X8870D02*
X5417D01*
Y29240D01*
X8870D01*
Y32693D01*
D02*
G37*
G36*
X68870D02*
X65417D01*
Y29240D01*
X68870D01*
Y32693D01*
D02*
G37*
G36*
X55138Y36262D02*
X54370Y36109D01*
X53719Y35674D01*
X53284Y35023D01*
X53131Y34255D01*
Y32857D01*
X52185D01*
Y27345D01*
X58091D01*
Y32857D01*
X57145D01*
Y34255D01*
X56992Y35023D01*
X56557Y35674D01*
X55906Y36109D01*
X55138Y36262D01*
D02*
G37*
G36*
X22339Y27591D02*
X19870D01*
Y25122D01*
X22339D01*
Y27591D01*
D02*
G37*
G36*
X18870D02*
X16402D01*
Y25122D01*
X18870D01*
Y27591D01*
D02*
G37*
G36*
X38307Y32677D02*
X30433D01*
Y24803D01*
X38307D01*
Y32677D01*
D02*
G37*
G36*
X68870Y28240D02*
X65417D01*
Y24787D01*
X68870D01*
Y28240D01*
D02*
G37*
G36*
X13323Y28240D02*
X9870D01*
Y24787D01*
X13323D01*
Y28240D01*
D02*
G37*
G36*
X8870D02*
X5417D01*
Y24787D01*
X8870D01*
Y28240D01*
D02*
G37*
G36*
X51394Y70941D02*
X48925D01*
Y64626D01*
Y58311D01*
X50917D01*
X51394Y58311D01*
X51417Y57821D01*
Y52638D01*
X52363D01*
Y49843D01*
X51417D01*
Y48897D01*
X50020D01*
X49252Y48744D01*
X48601Y48309D01*
X42951Y42659D01*
X42516Y42008D01*
X42363Y41240D01*
Y32162D01*
X41562Y31548D01*
X40931Y30726D01*
X40534Y29768D01*
X40399Y28740D01*
X40534Y27712D01*
X40931Y26755D01*
X41562Y25932D01*
X42385Y25301D01*
X43342Y24904D01*
X44370Y24769D01*
X45371Y24901D01*
X47951Y22321D01*
X48315Y22078D01*
X48918Y21475D01*
X49569Y21039D01*
X50337Y20887D01*
X52185D01*
Y20652D01*
X58091D01*
Y26164D01*
X52185D01*
Y24901D01*
X51169D01*
X50910Y25159D01*
X50546Y25403D01*
X48209Y27739D01*
X48341Y28740D01*
X48206Y29768D01*
X47809Y30726D01*
X47178Y31548D01*
X46377Y32162D01*
Y40409D01*
X50851Y44883D01*
X51417D01*
Y44052D01*
X51402Y43559D01*
X51402Y43444D01*
Y41091D01*
X54370D01*
X57339D01*
Y43444D01*
X57339Y43559D01*
X57333Y43733D01*
X57748Y44233D01*
X61039D01*
X65433Y39839D01*
Y34803D01*
X72865D01*
Y32693D01*
X69870D01*
Y28740D01*
Y24787D01*
X72865D01*
Y22531D01*
X72516Y22008D01*
X72363Y21240D01*
X72516Y20472D01*
X72951Y19821D01*
X73602Y19386D01*
X74370Y19233D01*
X75138Y19386D01*
X75789Y19821D01*
X76224Y20472D01*
X76377Y21240D01*
X76224Y22008D01*
X75875Y22531D01*
Y38164D01*
X75761Y38740D01*
X75434Y39228D01*
X74858Y39805D01*
X74370Y40131D01*
X73794Y40245D01*
X73307D01*
Y42677D01*
X68271D01*
X66607Y44341D01*
X66799Y44803D01*
X73307D01*
Y52677D01*
X65433D01*
Y46169D01*
X64971Y45978D01*
X63289Y47659D01*
X62638Y48094D01*
X61870Y48247D01*
X57323D01*
Y49843D01*
X56377D01*
Y52638D01*
X57323D01*
Y58428D01*
X57339Y58921D01*
X57339Y59037D01*
Y61390D01*
X54370D01*
Y61890D01*
X53870D01*
Y64858D01*
X51402D01*
X51394Y65355D01*
Y70941D01*
D02*
G37*
G36*
X44370Y22711D02*
X43342Y22576D01*
X42385Y22179D01*
X41562Y21548D01*
X40931Y20726D01*
X40534Y19768D01*
X40399Y18740D01*
X40534Y17712D01*
X40931Y16755D01*
X41562Y15932D01*
X42385Y15301D01*
X43342Y14905D01*
X44370Y14769D01*
X45398Y14905D01*
X46356Y15301D01*
X47178Y15932D01*
X47809Y16755D01*
X48206Y17712D01*
X48341Y18740D01*
X48206Y19768D01*
X47809Y20726D01*
X47178Y21548D01*
X46356Y22179D01*
X45398Y22576D01*
X44370Y22711D01*
D02*
G37*
G36*
X34370D02*
X33342Y22576D01*
X32385Y22179D01*
X31562Y21548D01*
X30931Y20726D01*
X30534Y19768D01*
X30399Y18740D01*
X30534Y17712D01*
X30931Y16755D01*
X31562Y15932D01*
X32385Y15301D01*
X33342Y14905D01*
X34370Y14769D01*
X35398Y14905D01*
X36356Y15301D01*
X37178Y15932D01*
X37809Y16755D01*
X38206Y17712D01*
X38341Y18740D01*
X38206Y19768D01*
X37809Y20726D01*
X37178Y21548D01*
X36356Y22179D01*
X35398Y22576D01*
X34370Y22711D01*
D02*
G37*
G36*
X21043Y23094D02*
X17697D01*
X17003Y23002D01*
X16357Y22735D01*
X15801Y22309D01*
X15376Y21754D01*
X15108Y21107D01*
X15017Y20413D01*
Y17067D01*
X15108Y16373D01*
X15376Y15727D01*
X15801Y15172D01*
X16357Y14746D01*
X17003Y14478D01*
X17697Y14387D01*
X21043D01*
X21737Y14478D01*
X22384Y14746D01*
X22939Y15172D01*
X23365Y15727D01*
X23632Y16373D01*
X23724Y17067D01*
Y20413D01*
X23632Y21107D01*
X23365Y21754D01*
X22939Y22309D01*
X22384Y22735D01*
X21737Y23002D01*
X21043Y23094D01*
D02*
G37*
G36*
X11043D02*
X7697D01*
X7003Y23002D01*
X6357Y22735D01*
X5802Y22309D01*
X5376Y21754D01*
X5108Y21107D01*
X5016Y20413D01*
Y17067D01*
X5108Y16373D01*
X5376Y15727D01*
X5802Y15172D01*
X6357Y14746D01*
X7003Y14478D01*
X7697Y14387D01*
X11043D01*
X11737Y14478D01*
X12383Y14746D01*
X12939Y15172D01*
X13365Y15727D01*
X13632Y16373D01*
X13724Y17067D01*
Y20413D01*
X13632Y21107D01*
X13365Y21754D01*
X12939Y22309D01*
X12383Y22735D01*
X11737Y23002D01*
X11043Y23094D01*
D02*
G37*
G36*
X44870Y12661D02*
Y9240D01*
X48291D01*
X48221Y9772D01*
X47823Y10734D01*
X47189Y11559D01*
X46363Y12193D01*
X45402Y12591D01*
X44870Y12661D01*
D02*
G37*
G36*
X43870D02*
X43338Y12591D01*
X42377Y12193D01*
X41551Y11559D01*
X40917Y10734D01*
X40519Y9772D01*
X40449Y9240D01*
X43870D01*
Y12661D01*
D02*
G37*
G36*
X48291Y8240D02*
X44870D01*
Y4819D01*
X45402Y4889D01*
X46363Y5287D01*
X47189Y5921D01*
X47823Y6747D01*
X48221Y7708D01*
X48291Y8240D01*
D02*
G37*
G36*
X43870D02*
X40449D01*
X40519Y7708D01*
X40917Y6747D01*
X41551Y5921D01*
X42377Y5287D01*
X43338Y4889D01*
X43870Y4819D01*
Y8240D01*
D02*
G37*
G36*
X34370Y12711D02*
X33342Y12576D01*
X32385Y12179D01*
X31562Y11548D01*
X30931Y10726D01*
X30534Y9768D01*
X30399Y8740D01*
X30534Y7712D01*
X30931Y6755D01*
X31562Y5932D01*
X32385Y5301D01*
X33342Y4905D01*
X34370Y4769D01*
X35398Y4905D01*
X36356Y5301D01*
X37178Y5932D01*
X37809Y6755D01*
X38206Y7712D01*
X38341Y8740D01*
X38206Y9768D01*
X37809Y10726D01*
X37178Y11548D01*
X36356Y12179D01*
X35398Y12576D01*
X34370Y12711D01*
D02*
G37*
G36*
X21043Y13094D02*
X17697D01*
X17003Y13002D01*
X16357Y12735D01*
X15801Y12309D01*
X15376Y11754D01*
X15108Y11107D01*
X15017Y10413D01*
Y7067D01*
X15108Y6373D01*
X15376Y5727D01*
X15801Y5172D01*
X16357Y4746D01*
X17003Y4478D01*
X17697Y4386D01*
X21043D01*
X21737Y4478D01*
X22384Y4746D01*
X22939Y5172D01*
X23365Y5727D01*
X23632Y6373D01*
X23724Y7067D01*
Y10413D01*
X23632Y11107D01*
X23365Y11754D01*
X22939Y12309D01*
X22384Y12735D01*
X21737Y13002D01*
X21043Y13094D01*
D02*
G37*
G36*
X11043D02*
X7697D01*
X7003Y13002D01*
X6357Y12735D01*
X5802Y12309D01*
X5376Y11754D01*
X5108Y11107D01*
X5016Y10413D01*
Y7067D01*
X5108Y6373D01*
X5376Y5727D01*
X5802Y5172D01*
X6357Y4746D01*
X7003Y4478D01*
X7697Y4386D01*
X11043D01*
X11737Y4478D01*
X12383Y4746D01*
X12939Y5172D01*
X13365Y5727D01*
X13632Y6373D01*
X13724Y7067D01*
Y10413D01*
X13632Y11107D01*
X13365Y11754D01*
X12939Y12309D01*
X12383Y12735D01*
X11737Y13002D01*
X11043Y13094D01*
D02*
G37*
%LPD*%
D12*
X357303Y102461D02*
D03*
Y108760D02*
D03*
X334803Y102461D02*
D03*
Y108760D02*
D03*
X342303D02*
D03*
Y102461D02*
D03*
Y24961D02*
D03*
Y31260D02*
D03*
X334803Y24961D02*
D03*
Y31260D02*
D03*
X369803Y24961D02*
D03*
Y31260D02*
D03*
X352303Y76260D02*
D03*
Y69961D02*
D03*
X359803D02*
D03*
Y76260D02*
D03*
X372303Y69961D02*
D03*
Y76260D02*
D03*
X374803Y102461D02*
D03*
Y108760D02*
D03*
X367835Y233701D02*
D03*
Y240000D02*
D03*
X374835Y233701D02*
D03*
Y240000D02*
D03*
X191850Y104390D02*
D03*
Y98090D02*
D03*
X211850Y61890D02*
D03*
Y55590D02*
D03*
Y46890D02*
D03*
Y40591D02*
D03*
X113110Y104390D02*
D03*
Y98090D02*
D03*
X133110Y61890D02*
D03*
Y55590D02*
D03*
Y46890D02*
D03*
Y40591D02*
D03*
X34370Y104390D02*
D03*
Y98090D02*
D03*
X54370Y61890D02*
D03*
Y55590D02*
D03*
Y46890D02*
D03*
Y40591D02*
D03*
D13*
X364803Y108957D02*
D03*
Y102264D02*
D03*
X212618Y23408D02*
D03*
Y30101D02*
D03*
X133878Y23408D02*
D03*
Y30101D02*
D03*
X55138Y23408D02*
D03*
Y30101D02*
D03*
D14*
X334803Y31260D02*
X342303D01*
X334803Y38345D02*
Y31260D01*
X352303Y69961D02*
X359803D01*
X352303D02*
X353321Y68943D01*
Y67092D01*
X354803Y65610D01*
X354435Y108742D02*
X352803Y107110D01*
Y97110D01*
X356803Y87610D02*
X352303Y83110D01*
X356803Y91110D02*
Y87610D01*
X357303Y108760D02*
X357285Y108742D01*
X354435D02*
X357285D01*
X357303Y108760D02*
X364606D01*
X364803Y108957D02*
X364606Y108760D01*
X364803Y118110D02*
Y108957D01*
Y102264D02*
X373957D01*
X335303Y39610D02*
X335039Y39347D01*
Y38581D01*
X334803Y38345D01*
X330335Y229350D02*
X334685D01*
X356221D02*
X357835Y230965D01*
X356949Y208622D02*
X357835Y207736D01*
X345335Y229464D02*
X345448Y229350D01*
X345335Y229464D02*
Y233774D01*
X344758Y234350D02*
X345335Y233774D01*
X341181Y234350D02*
X344758D01*
X340984Y229350D02*
X345448D01*
X356221D01*
X330335Y236850D02*
X331817Y235368D01*
X333470D01*
X334488Y234350D01*
X330335Y236850D02*
X331817Y238333D01*
X333667D01*
X334685Y239350D01*
X347303Y210000D02*
X348780Y208524D01*
Y207736D02*
Y208524D01*
X342835Y210000D02*
X347303D01*
X335335D02*
X342835D01*
X380335Y229350D02*
X382835Y226850D01*
X330335Y229350D02*
X330598Y229087D01*
Y226587D02*
X331817Y225368D01*
X333667D01*
X334685Y224350D01*
X330598Y226587D02*
Y229087D01*
X340984Y224350D02*
X347835D01*
X344350Y239927D02*
X344926Y240504D01*
Y244386D01*
X341561Y239927D02*
X344350D01*
X340984Y239350D02*
X341561Y239927D01*
X377835Y261850D02*
X382835Y266850D01*
X377835Y243247D02*
Y261850D01*
X357835Y230965D02*
X359449Y229350D01*
X367835D02*
Y233701D01*
X359449Y229350D02*
X367835D01*
X370335Y226850D02*
X372835Y229350D01*
X375335D01*
X367835D02*
X370335Y226850D01*
X342835Y196850D02*
Y203701D01*
X322835Y236850D02*
X330335D01*
X374835Y233701D02*
X375335Y233201D01*
Y229350D02*
Y233201D01*
Y229350D02*
X378335D01*
Y242746D01*
X377835Y243247D02*
X378335Y242746D01*
Y229350D02*
X380335D01*
X374835Y222500D02*
X375335Y223000D01*
Y229350D01*
X299213Y32835D02*
Y29803D01*
X299213Y43957D02*
Y36772D01*
X251969Y32835D02*
Y29803D01*
X251969Y43957D02*
Y36772D01*
X299213Y233622D02*
Y230591D01*
X299213Y244744D02*
Y237559D01*
X251969Y233622D02*
Y230591D01*
X251969Y244744D02*
Y237559D01*
X173350Y55240D02*
X174350D01*
X170850Y57740D02*
X173350Y55240D01*
X167850Y57740D02*
X170850D01*
X196850Y91240D02*
Y96240D01*
X211850Y102097D02*
Y103740D01*
X211260Y101506D02*
X211850Y102097D01*
X211260Y101240D02*
Y101506D01*
X219350Y111240D02*
Y111740D01*
X211850Y103740D02*
X219350Y111240D01*
X169311Y66280D02*
X170311D01*
X176662Y59929D01*
Y58929D02*
Y59929D01*
X166850Y68740D02*
X169311Y66280D01*
X176662Y58929D02*
X176850Y58740D01*
X166850D02*
X167850Y57740D01*
X226850Y38740D02*
X231274D01*
X231850Y21240D02*
Y38164D01*
X231274Y38740D02*
X231850Y38164D01*
X211201Y61240D02*
X211850Y61890D01*
X206850Y61240D02*
X211201D01*
X176850Y66240D02*
X179350Y63740D01*
X170703Y77388D02*
X176850Y71240D01*
Y66240D02*
Y71240D01*
X168203Y77388D02*
X170703D01*
X166850Y78740D02*
X168203Y77388D01*
X94610Y55240D02*
X95610D01*
X92110Y57740D02*
X94610Y55240D01*
X89110Y57740D02*
X92110D01*
X118110Y91240D02*
Y96240D01*
X133110Y102097D02*
Y103740D01*
X132520Y101506D02*
X133110Y102097D01*
X132520Y101240D02*
Y101506D01*
X140610Y111240D02*
Y111740D01*
X133110Y103740D02*
X140610Y111240D01*
X90571Y66280D02*
X91571D01*
X97922Y59929D01*
Y58929D02*
Y59929D01*
X88110Y68740D02*
X90571Y66280D01*
X97922Y58929D02*
X98110Y58740D01*
X88110D02*
X89110Y57740D01*
X148110Y38740D02*
X152534D01*
X153110Y21240D02*
Y38164D01*
X152534Y38740D02*
X153110Y38164D01*
X132461Y61240D02*
X133110Y61890D01*
X128110Y61240D02*
X132461D01*
X98110Y66240D02*
X100610Y63740D01*
X91963Y77388D02*
X98110Y71240D01*
Y66240D02*
Y71240D01*
X89463Y77388D02*
X91963D01*
X88110Y78740D02*
X89463Y77388D01*
X15870Y55240D02*
X16870D01*
X13370Y57740D02*
X15870Y55240D01*
X10370Y57740D02*
X13370D01*
X39370Y91240D02*
Y96240D01*
X54370Y102097D02*
Y103740D01*
X53780Y101506D02*
X54370Y102097D01*
X53780Y101240D02*
Y101506D01*
X61870Y111240D02*
Y111740D01*
X54370Y103740D02*
X61870Y111240D01*
X11831Y66280D02*
X12831D01*
X19182Y59929D01*
Y58929D02*
Y59929D01*
X9370Y68740D02*
X11831Y66280D01*
X19182Y58929D02*
X19370Y58740D01*
X9370D02*
X10370Y57740D01*
X69370Y38740D02*
X73794D01*
X74370Y21240D02*
Y38164D01*
X73794Y38740D02*
X74370Y38164D01*
X53720Y61240D02*
X54370Y61890D01*
X49370Y61240D02*
X53720D01*
X19370Y66240D02*
X21870Y63740D01*
X13223Y77388D02*
X19370Y71240D01*
Y66240D02*
Y71240D01*
X10723Y77388D02*
X13223D01*
X9370Y78740D02*
X10723Y77388D01*
D17*
X334488Y234350D02*
D03*
X341181D02*
D03*
D18*
X334685Y224350D02*
D03*
X340984D02*
D03*
Y229350D02*
D03*
X334685D02*
D03*
Y239350D02*
D03*
X340984D02*
D03*
D19*
X309213Y7874D02*
D03*
X299213D02*
D03*
X261968D02*
D03*
X251969D02*
D03*
X309213Y208661D02*
D03*
X299213D02*
D03*
X261968D02*
D03*
X251969D02*
D03*
D21*
X334803Y102461D02*
Y63110D01*
X344705Y58150D02*
X345689Y57165D01*
X339764Y58150D02*
X344705D01*
X334803Y63110D02*
X339764Y58150D01*
X335303Y43610D02*
Y39610D01*
X338985Y47292D02*
X335303Y43610D01*
X345689Y48110D02*
X344871Y47292D01*
X338985D02*
X344871D01*
X359804Y76259D02*
X367303D01*
Y49724D02*
X369803Y47224D01*
X367303Y76259D02*
Y49724D01*
Y76259D02*
X372303D01*
X369803Y31260D02*
X368819Y30276D01*
X366968D02*
X368819D01*
X354803Y18110D02*
Y8110D01*
X366968Y30276D02*
X354803Y18110D01*
X369803Y47224D02*
Y31260D01*
X374803Y98110D02*
Y85610D01*
Y102461D02*
Y98110D01*
X359803Y76260D02*
X359804Y76259D01*
X371319Y79094D02*
Y77244D01*
X369803Y80610D02*
X371319Y79094D01*
Y77244D02*
X372303Y76260D01*
X374803Y85610D02*
X369803Y80610D01*
X375453Y98110D02*
X384803D01*
X334803Y102461D02*
X342303D01*
X333819Y109744D02*
X334803Y108760D01*
X333169Y109744D02*
X333819D01*
X324803Y118110D02*
X333169Y109744D01*
X299213Y27303D02*
Y24803D01*
X299213Y24803D02*
Y12303D01*
X299213Y12303D01*
X304213Y19803D02*
X307244D01*
X309213Y17835D01*
X299213Y24803D02*
X299213Y24803D01*
X312713Y19335D02*
Y15227D01*
X299213Y29803D02*
Y27303D01*
X299008Y8079D02*
X299213Y7874D01*
X296713Y27303D02*
X299213D01*
X312713Y15227D02*
X309213Y11727D01*
Y7874D01*
X291713Y17835D02*
X289213Y15335D01*
X291713Y17835D02*
X294213D01*
X289213Y15335D02*
Y7874D01*
X286713Y27303D02*
Y22303D01*
X251969Y27303D02*
Y24803D01*
X251969Y24803D02*
Y12303D01*
X251969Y12303D01*
X256968Y19803D02*
X260000D01*
X261968Y17835D01*
X251969Y24803D02*
X251969Y24803D01*
X265469Y19335D02*
Y15227D01*
X251969Y29803D02*
Y27303D01*
X251763Y8079D02*
X251969Y7874D01*
X249468Y27303D02*
X251969D01*
X265469Y15227D02*
X261968Y11727D01*
Y7874D01*
X244468Y17835D02*
X241968Y15335D01*
X244468Y17835D02*
X246969D01*
X241968Y15335D02*
Y7874D01*
X239469Y27303D02*
Y22303D01*
X299213Y228091D02*
Y225591D01*
X299213Y225590D02*
Y213091D01*
X299213Y213090D01*
X304213Y220590D02*
X307244D01*
X309213Y218622D01*
X299213Y225591D02*
X299213Y225590D01*
X312713Y220122D02*
Y216014D01*
X299213Y230591D02*
Y228091D01*
X299008Y208867D02*
X299213Y208661D01*
X296713Y228091D02*
X299213D01*
X312713Y216014D02*
X309213Y212514D01*
Y208661D01*
X291713Y218622D02*
X289213Y216122D01*
X291713Y218622D02*
X294213D01*
X289213Y216122D02*
Y208661D01*
X286713Y228091D02*
Y223091D01*
X251969Y228091D02*
Y225591D01*
X251969Y225590D02*
Y213091D01*
X251969Y213090D01*
X256968Y220590D02*
X260000D01*
X261968Y218622D01*
X251969Y225591D02*
X251969Y225590D01*
X265469Y220122D02*
Y216014D01*
X251969Y230591D02*
Y228091D01*
X251763Y208867D02*
X251969Y208661D01*
X249468Y228091D02*
X251969D01*
X265469Y216014D02*
X261968Y212514D01*
Y208661D01*
X244468Y218622D02*
X241968Y216122D01*
X244468Y218622D02*
X246969D01*
X241968Y216122D02*
Y208661D01*
X239469Y228091D02*
Y223091D01*
X207818Y22894D02*
X212104D01*
X212618Y23408D01*
X206971Y23740D02*
X207818Y22894D01*
X206850Y23740D02*
X206971D01*
X201850Y28740D02*
X206850Y23740D01*
X182850Y42740D02*
Y46740D01*
X187795Y51685D02*
Y64626D01*
X182850Y46740D02*
X187795Y51685D01*
X212618Y30755D02*
Y34255D01*
X196850Y64626D02*
Y66756D01*
X197835Y67740D01*
X199850D01*
X207500Y46890D02*
X211850D01*
Y46240D02*
X219350D01*
X224882Y40709D02*
X226850Y38740D01*
X224882Y40709D02*
Y40709D01*
X219350Y46240D02*
X224882Y40709D01*
X201850Y28740D02*
Y41240D01*
X207500Y46890D01*
X196181Y87854D02*
X196850D01*
X191850Y92185D02*
X196181Y87854D01*
X191850Y92185D02*
Y98090D01*
X176850Y38740D02*
X178850D01*
X182850Y42740D01*
X176850Y34390D02*
Y38740D01*
X201850Y91240D02*
Y98091D01*
X211850Y46890D02*
Y55590D01*
X166850Y38740D02*
X176850D01*
Y43091D01*
X129077Y22894D02*
X133364D01*
X133878Y23408D01*
X128231Y23740D02*
X129077Y22894D01*
X128110Y23740D02*
X128231D01*
X123110Y28740D02*
X128110Y23740D01*
X104110Y42740D02*
Y46740D01*
X109055Y51685D02*
Y64626D01*
X104110Y46740D02*
X109055Y51685D01*
X133878Y30755D02*
Y34255D01*
X118110Y64626D02*
Y66756D01*
X119095Y67740D01*
X121110D01*
X128760Y46890D02*
X133110D01*
Y46240D02*
X140610D01*
X146142Y40709D02*
X148110Y38740D01*
X146142Y40709D02*
Y40709D01*
X140610Y46240D02*
X146142Y40709D01*
X123110Y28740D02*
Y41240D01*
X128760Y46890D01*
X117441Y87854D02*
X118110D01*
X113110Y92185D02*
X117441Y87854D01*
X113110Y92185D02*
Y98090D01*
X98110Y38740D02*
X100110D01*
X104110Y42740D01*
X98110Y34390D02*
Y38740D01*
X123110Y91240D02*
Y98091D01*
X133110Y46890D02*
Y55590D01*
X88110Y38740D02*
X98110D01*
Y43091D01*
X50337Y22894D02*
X54624D01*
X55138Y23408D01*
X49491Y23740D02*
X50337Y22894D01*
X49370Y23740D02*
X49491D01*
X44370Y28740D02*
X49370Y23740D01*
X25370Y42740D02*
Y46740D01*
X30315Y51685D02*
Y64626D01*
X25370Y46740D02*
X30315Y51685D01*
X55138Y30755D02*
Y34255D01*
X39370Y64626D02*
Y66756D01*
X40354Y67740D01*
X42370D01*
X50020Y46890D02*
X54370D01*
Y46240D02*
X61870D01*
X67401Y40709D02*
X69370Y38740D01*
X67401Y40709D02*
Y40709D01*
X61870Y46240D02*
X67401Y40709D01*
X44370Y28740D02*
Y41240D01*
X50020Y46890D01*
X38701Y87854D02*
X39370D01*
X34370Y92185D02*
X38701Y87854D01*
X34370Y92185D02*
Y98090D01*
X19370Y38740D02*
X21370D01*
X25370Y42740D01*
X19370Y34390D02*
Y38740D01*
X44370Y91240D02*
Y98091D01*
X54370Y46890D02*
Y55590D01*
X9370Y38740D02*
X19370D01*
Y43091D01*
D22*
X374835Y222500D02*
D03*
Y216201D02*
D03*
X335335Y210000D02*
D03*
Y203701D02*
D03*
X342835D02*
D03*
Y210000D02*
D03*
X201850Y98091D02*
D03*
Y104390D02*
D03*
X176850Y43091D02*
D03*
Y49390D02*
D03*
Y28091D02*
D03*
Y34390D02*
D03*
X123110Y98091D02*
D03*
Y104390D02*
D03*
X98110Y43091D02*
D03*
Y49390D02*
D03*
Y28091D02*
D03*
Y34390D02*
D03*
X44370Y98091D02*
D03*
Y104390D02*
D03*
X19370Y43091D02*
D03*
Y49390D02*
D03*
Y28091D02*
D03*
Y34390D02*
D03*
D24*
X299213Y50650D02*
D03*
Y43957D02*
D03*
X251969Y50650D02*
D03*
Y43957D02*
D03*
X299213Y251437D02*
D03*
Y244744D02*
D03*
X251969Y251437D02*
D03*
Y244744D02*
D03*
D37*
X242500Y82500D02*
D03*
Y92500D02*
D03*
X252500D02*
D03*
Y82500D02*
D03*
X262500D02*
D03*
Y92500D02*
D03*
X272500D02*
D03*
Y82500D02*
D03*
X282500D02*
D03*
Y92500D02*
D03*
X292500D02*
D03*
Y82500D02*
D03*
X302500D02*
D03*
Y92500D02*
D03*
Y112500D02*
D03*
Y102500D02*
D03*
X292500D02*
D03*
Y112500D02*
D03*
X282500D02*
D03*
Y102500D02*
D03*
X272500D02*
D03*
Y112500D02*
D03*
X262500D02*
D03*
Y102500D02*
D03*
X252500D02*
D03*
Y112500D02*
D03*
X242500D02*
D03*
Y102500D02*
D03*
X302500Y132500D02*
D03*
Y122500D02*
D03*
X292500D02*
D03*
Y132500D02*
D03*
X282500D02*
D03*
Y122500D02*
D03*
X272500D02*
D03*
Y132500D02*
D03*
X262500D02*
D03*
Y122500D02*
D03*
X252500D02*
D03*
Y132500D02*
D03*
X242500D02*
D03*
Y122500D02*
D03*
Y182500D02*
D03*
Y192500D02*
D03*
X252500D02*
D03*
Y182500D02*
D03*
X262500D02*
D03*
Y192500D02*
D03*
X272500D02*
D03*
Y182500D02*
D03*
X282500D02*
D03*
Y192500D02*
D03*
X292500D02*
D03*
Y182500D02*
D03*
X302500D02*
D03*
Y192500D02*
D03*
X242500Y162500D02*
D03*
Y172500D02*
D03*
X252500D02*
D03*
Y162500D02*
D03*
X262500D02*
D03*
Y172500D02*
D03*
X272500D02*
D03*
Y162500D02*
D03*
X282500D02*
D03*
Y172500D02*
D03*
X292500D02*
D03*
Y162500D02*
D03*
X302500D02*
D03*
Y172500D02*
D03*
Y152500D02*
D03*
Y142500D02*
D03*
X292500D02*
D03*
Y152500D02*
D03*
X282500D02*
D03*
Y142500D02*
D03*
X272500D02*
D03*
Y152500D02*
D03*
X262500D02*
D03*
Y142500D02*
D03*
X252500D02*
D03*
Y152500D02*
D03*
X242500D02*
D03*
Y142500D02*
D03*
X324803Y128110D02*
D03*
X334766Y127673D02*
D03*
X344803Y128110D02*
D03*
X354803D02*
D03*
X364803D02*
D03*
X374803D02*
D03*
X384803D02*
D03*
Y108110D02*
D03*
Y118110D02*
D03*
X332835Y146850D02*
D03*
X342835D02*
D03*
Y166850D02*
D03*
Y156850D02*
D03*
X332835D02*
D03*
Y166850D02*
D03*
X342835Y186850D02*
D03*
Y176850D02*
D03*
X332835D02*
D03*
Y186850D02*
D03*
X322835Y176850D02*
D03*
Y186850D02*
D03*
X352835D02*
D03*
Y176850D02*
D03*
X362835D02*
D03*
Y186850D02*
D03*
X372835D02*
D03*
Y176850D02*
D03*
X382835D02*
D03*
Y186850D02*
D03*
X322835Y156850D02*
D03*
Y166850D02*
D03*
X352835D02*
D03*
Y156850D02*
D03*
X362835D02*
D03*
Y166850D02*
D03*
X372835D02*
D03*
Y156850D02*
D03*
X382835D02*
D03*
Y166850D02*
D03*
Y146850D02*
D03*
X372835D02*
D03*
X362835D02*
D03*
X352835D02*
D03*
X322835D02*
D03*
X362835Y266850D02*
D03*
X372835D02*
D03*
X201850Y8740D02*
D03*
X191850D02*
D03*
X201850Y18740D02*
D03*
X191850D02*
D03*
X201850Y28740D02*
D03*
X123110Y8740D02*
D03*
X113110D02*
D03*
X123110Y18740D02*
D03*
X113110D02*
D03*
X123110Y28740D02*
D03*
X161850Y162717D02*
D03*
Y152717D02*
D03*
Y142717D02*
D03*
X171850Y162717D02*
D03*
Y152717D02*
D03*
Y142717D02*
D03*
X181850Y162717D02*
D03*
Y152717D02*
D03*
Y142717D02*
D03*
X191850Y162717D02*
D03*
Y152717D02*
D03*
Y142717D02*
D03*
X201850Y162717D02*
D03*
Y152717D02*
D03*
Y142717D02*
D03*
X211850Y162717D02*
D03*
Y152717D02*
D03*
Y142717D02*
D03*
X221850Y162717D02*
D03*
Y152717D02*
D03*
Y142717D02*
D03*
X231850D02*
D03*
Y152717D02*
D03*
Y162717D02*
D03*
X83110D02*
D03*
Y152717D02*
D03*
Y142717D02*
D03*
X93110Y162717D02*
D03*
Y152717D02*
D03*
Y142717D02*
D03*
X103110Y162717D02*
D03*
Y152717D02*
D03*
Y142717D02*
D03*
X113110Y162717D02*
D03*
Y152717D02*
D03*
Y142717D02*
D03*
X123110Y162717D02*
D03*
Y152717D02*
D03*
Y142717D02*
D03*
X133110Y162717D02*
D03*
Y152717D02*
D03*
Y142717D02*
D03*
X143110Y162717D02*
D03*
Y152717D02*
D03*
Y142717D02*
D03*
X153110D02*
D03*
Y152717D02*
D03*
Y162717D02*
D03*
X4370D02*
D03*
Y152717D02*
D03*
Y142717D02*
D03*
X14370Y162717D02*
D03*
Y152717D02*
D03*
Y142717D02*
D03*
X24370Y162717D02*
D03*
Y152717D02*
D03*
Y142717D02*
D03*
X34370Y162717D02*
D03*
Y152717D02*
D03*
Y142717D02*
D03*
X44370Y162717D02*
D03*
Y152717D02*
D03*
Y142717D02*
D03*
X54370Y162717D02*
D03*
Y152717D02*
D03*
Y142717D02*
D03*
X64370Y162717D02*
D03*
Y152717D02*
D03*
Y142717D02*
D03*
X74370D02*
D03*
Y152717D02*
D03*
Y162717D02*
D03*
X44370Y8740D02*
D03*
X34370D02*
D03*
X44370Y18740D02*
D03*
X34370D02*
D03*
X44370Y28740D02*
D03*
D38*
X384803Y88110D02*
D03*
Y98110D02*
D03*
Y68110D02*
D03*
Y48110D02*
D03*
Y38110D02*
D03*
Y28110D02*
D03*
X324803Y38110D02*
D03*
Y48110D02*
D03*
X384803Y18110D02*
D03*
X344803Y8110D02*
D03*
X334803D02*
D03*
X324803D02*
D03*
Y18110D02*
D03*
Y28110D02*
D03*
Y58110D02*
D03*
Y68110D02*
D03*
Y78110D02*
D03*
Y88110D02*
D03*
Y98110D02*
D03*
Y108110D02*
D03*
X334803Y118110D02*
D03*
X344803D02*
D03*
X342835Y196850D02*
D03*
X191850Y28740D02*
D03*
X226850Y68740D02*
D03*
Y108740D02*
D03*
Y128740D02*
D03*
Y98740D02*
D03*
Y88740D02*
D03*
Y58740D02*
D03*
Y48740D02*
D03*
Y28740D02*
D03*
Y118740D02*
D03*
Y78740D02*
D03*
Y38740D02*
D03*
X166850Y28740D02*
D03*
Y38740D02*
D03*
X113110Y28740D02*
D03*
X148110Y68740D02*
D03*
Y108740D02*
D03*
Y128740D02*
D03*
Y98740D02*
D03*
Y88740D02*
D03*
Y58740D02*
D03*
Y48740D02*
D03*
Y28740D02*
D03*
Y118740D02*
D03*
Y78740D02*
D03*
Y38740D02*
D03*
X88110Y28740D02*
D03*
Y38740D02*
D03*
X221850Y247717D02*
D03*
X166850D02*
D03*
X214350Y175217D02*
D03*
X181850D02*
D03*
X166850Y237717D02*
D03*
Y217717D02*
D03*
Y227717D02*
D03*
X143110Y247717D02*
D03*
X88110D02*
D03*
X135610Y175217D02*
D03*
X103110D02*
D03*
X88110Y237717D02*
D03*
Y217717D02*
D03*
Y227717D02*
D03*
X64370Y247717D02*
D03*
X9370D02*
D03*
X56870Y175217D02*
D03*
X24370D02*
D03*
X9370Y237717D02*
D03*
Y217717D02*
D03*
Y227717D02*
D03*
X34370Y28740D02*
D03*
X69370Y68740D02*
D03*
Y108740D02*
D03*
Y128740D02*
D03*
Y98740D02*
D03*
Y88740D02*
D03*
Y58740D02*
D03*
Y48740D02*
D03*
Y28740D02*
D03*
Y118740D02*
D03*
Y78740D02*
D03*
Y38740D02*
D03*
X9370Y28740D02*
D03*
Y38740D02*
D03*
D39*
X366303Y90610D02*
D03*
X347303D02*
D03*
X362835Y251850D02*
D03*
X343835D02*
D03*
D40*
X324803Y118110D02*
D03*
X384803Y8110D02*
D03*
X374803D02*
D03*
X364803D02*
D03*
X354803D02*
D03*
X364803Y118110D02*
D03*
X384803Y78110D02*
D03*
X354803Y118110D02*
D03*
X374803D02*
D03*
X384803Y58110D02*
D03*
X322835Y226850D02*
D03*
Y216850D02*
D03*
Y206850D02*
D03*
Y196850D02*
D03*
X332835D02*
D03*
X352835D02*
D03*
X362835D02*
D03*
X372835D02*
D03*
X382835Y206850D02*
D03*
Y216850D02*
D03*
Y226850D02*
D03*
Y236850D02*
D03*
Y246850D02*
D03*
X382835Y256850D02*
D03*
X382835Y196850D02*
D03*
X322835Y256850D02*
D03*
Y246850D02*
D03*
Y266850D02*
D03*
Y236850D02*
D03*
X382835Y266850D02*
D03*
X166850Y68740D02*
D03*
Y128740D02*
D03*
Y108740D02*
D03*
Y98740D02*
D03*
Y88740D02*
D03*
Y58740D02*
D03*
Y48740D02*
D03*
Y118740D02*
D03*
Y78740D02*
D03*
X88110Y68740D02*
D03*
Y128740D02*
D03*
Y108740D02*
D03*
Y98740D02*
D03*
Y88740D02*
D03*
Y58740D02*
D03*
Y48740D02*
D03*
Y118740D02*
D03*
Y78740D02*
D03*
X9370Y68740D02*
D03*
Y128740D02*
D03*
Y108740D02*
D03*
Y98740D02*
D03*
Y88740D02*
D03*
Y58740D02*
D03*
Y48740D02*
D03*
Y118740D02*
D03*
Y78740D02*
D03*
D41*
X369803Y95610D02*
D03*
X377303Y80610D02*
D03*
X369803D02*
D03*
X352803Y97110D02*
D03*
X356803Y91110D02*
D03*
X352303Y83110D02*
D03*
X377303Y75610D02*
D03*
X335303Y39610D02*
D03*
X369803Y13110D02*
D03*
X359803Y98110D02*
D03*
X347303Y65610D02*
D03*
X354803D02*
D03*
X369803Y85610D02*
D03*
X339803Y43110D02*
D03*
X332303Y35610D02*
D03*
X379803Y3110D02*
D03*
Y123110D02*
D03*
X329803Y3110D02*
D03*
X319803Y113110D02*
D03*
X354803Y58110D02*
D03*
X347303Y53110D02*
D03*
X337303Y35610D02*
D03*
X389803Y123110D02*
D03*
X319803D02*
D03*
Y3110D02*
D03*
X389803D02*
D03*
X359803Y113110D02*
D03*
X374803Y35610D02*
D03*
X362303Y65610D02*
D03*
X389803Y113110D02*
D03*
X379803Y93110D02*
D03*
X339803D02*
D03*
X359803Y85610D02*
D03*
X342303Y35610D02*
D03*
X359803Y50610D02*
D03*
X372303Y20610D02*
D03*
X347303Y15610D02*
D03*
X377303Y18110D02*
D03*
X354803Y25610D02*
D03*
X389803Y13110D02*
D03*
X319803D02*
D03*
X329803Y123110D02*
D03*
X379803Y113110D02*
D03*
X330335Y229350D02*
D03*
X347835Y224350D02*
D03*
X344926Y244386D02*
D03*
X330312Y244350D02*
D03*
X357835Y221850D02*
D03*
X374835Y244350D02*
D03*
X367812D02*
D03*
X355335Y249350D02*
D03*
X352812Y266850D02*
D03*
X330312Y261850D02*
D03*
X337812D02*
D03*
X355335Y256850D02*
D03*
X330312Y249350D02*
D03*
X335335D02*
D03*
X370335Y226850D02*
D03*
X189350Y227717D02*
D03*
Y192717D02*
D03*
X229350Y235217D02*
D03*
X176850Y267717D02*
D03*
X216850D02*
D03*
X231850Y222717D02*
D03*
X166850Y207717D02*
D03*
X161850Y192717D02*
D03*
X206850Y175217D02*
D03*
X199350Y230217D02*
D03*
X194350Y210217D02*
D03*
X209350Y232717D02*
D03*
X196850Y267717D02*
D03*
X199350Y195217D02*
D03*
X206850D02*
D03*
X226850Y209567D02*
D03*
X219350Y185217D02*
D03*
X184350Y252717D02*
D03*
X196850Y200217D02*
D03*
Y207717D02*
D03*
X174350Y197717D02*
D03*
X189350Y177717D02*
D03*
X194350Y262717D02*
D03*
X224350Y220217D02*
D03*
X214350D02*
D03*
X219350D02*
D03*
X110610Y227717D02*
D03*
Y192717D02*
D03*
X150610Y235217D02*
D03*
X98110Y267717D02*
D03*
X138110D02*
D03*
X153110Y222717D02*
D03*
X88110Y207717D02*
D03*
X83110Y192717D02*
D03*
X128110Y175217D02*
D03*
X120610Y230217D02*
D03*
X115610Y210217D02*
D03*
X130610Y232717D02*
D03*
X118110Y267717D02*
D03*
X120610Y195217D02*
D03*
X128110D02*
D03*
X148110Y209567D02*
D03*
X140610Y185217D02*
D03*
X105610Y252717D02*
D03*
X118110Y200217D02*
D03*
Y207717D02*
D03*
X95610Y197717D02*
D03*
X110610Y177717D02*
D03*
X115610Y262717D02*
D03*
X145610Y220217D02*
D03*
X135610D02*
D03*
X140610D02*
D03*
X31870Y227717D02*
D03*
Y192717D02*
D03*
X71870Y235217D02*
D03*
X19370Y267717D02*
D03*
X59370D02*
D03*
X74370Y222717D02*
D03*
X9370Y207717D02*
D03*
X4370Y192717D02*
D03*
X49370Y175217D02*
D03*
X41870Y230217D02*
D03*
X36870Y210217D02*
D03*
X51870Y232717D02*
D03*
X39370Y267717D02*
D03*
X41870Y195217D02*
D03*
X49370D02*
D03*
X69370Y209567D02*
D03*
X61870Y185217D02*
D03*
X26870Y252717D02*
D03*
X39370Y200217D02*
D03*
Y207717D02*
D03*
X16870Y197717D02*
D03*
X31870Y177717D02*
D03*
X36870Y262717D02*
D03*
X66870Y220217D02*
D03*
X56870D02*
D03*
X61870D02*
D03*
D42*
X309213Y17835D02*
D03*
X286713Y67303D02*
D03*
Y49803D02*
D03*
X312713Y19335D02*
D03*
X294213Y17835D02*
D03*
X304213Y19803D02*
D03*
X286713Y22303D02*
D03*
Y27303D02*
D03*
X296713D02*
D03*
X261968Y17835D02*
D03*
X239469Y67303D02*
D03*
Y49803D02*
D03*
X265469Y19335D02*
D03*
X246969Y17835D02*
D03*
X256968Y19803D02*
D03*
X239469Y22303D02*
D03*
Y27303D02*
D03*
X249468D02*
D03*
X309213Y218622D02*
D03*
X286713Y268091D02*
D03*
Y250590D02*
D03*
X312713Y220122D02*
D03*
X294213Y218622D02*
D03*
X304213Y220590D02*
D03*
X286713Y223091D02*
D03*
Y228091D02*
D03*
X296713D02*
D03*
X261968Y218622D02*
D03*
X239469Y268091D02*
D03*
Y250590D02*
D03*
X265469Y220122D02*
D03*
X246969Y218622D02*
D03*
X256968Y220590D02*
D03*
X239469Y223091D02*
D03*
Y228091D02*
D03*
X249468D02*
D03*
X174350Y55240D02*
D03*
X160850Y23740D02*
D03*
X183850Y13740D02*
D03*
X221850Y83740D02*
D03*
X171850D02*
D03*
X187350Y72240D02*
D03*
X206850Y86240D02*
D03*
X207850Y96740D02*
D03*
X187850Y86240D02*
D03*
X196850Y96240D02*
D03*
Y35740D02*
D03*
X183850Y63740D02*
D03*
X204350Y51240D02*
D03*
X219350Y111740D02*
D03*
X199850Y67740D02*
D03*
X196850Y23740D02*
D03*
X191850Y43740D02*
D03*
X201850Y61240D02*
D03*
X212618Y34255D02*
D03*
X196850Y133740D02*
D03*
X161850Y113740D02*
D03*
X182850Y2740D02*
D03*
X176850Y24740D02*
D03*
X231850Y3740D02*
D03*
X193850Y2740D02*
D03*
X211260Y101240D02*
D03*
X231850Y21240D02*
D03*
X179350Y63740D02*
D03*
X176850Y131240D02*
D03*
X216850D02*
D03*
X211850Y123740D02*
D03*
X196850D02*
D03*
X181850Y72240D02*
D03*
X219350Y41240D02*
D03*
X211850Y3740D02*
D03*
X219350Y11240D02*
D03*
Y33740D02*
D03*
X231850Y133740D02*
D03*
X161850D02*
D03*
Y43740D02*
D03*
X219350Y16240D02*
D03*
X211850Y11240D02*
D03*
X216850Y83740D02*
D03*
Y73740D02*
D03*
X176850Y98740D02*
D03*
X196850Y51240D02*
D03*
X219350Y26240D02*
D03*
X160850Y2740D02*
D03*
X219350Y3740D02*
D03*
X184350Y31240D02*
D03*
X181850Y123740D02*
D03*
X179350Y111240D02*
D03*
X196850Y78740D02*
D03*
X176850Y58740D02*
D03*
X95610Y55240D02*
D03*
X82110Y23740D02*
D03*
X105110Y13740D02*
D03*
X143110Y83740D02*
D03*
X93110D02*
D03*
X108610Y72240D02*
D03*
X128110Y86240D02*
D03*
X129110Y96740D02*
D03*
X109110Y86240D02*
D03*
X118110Y96240D02*
D03*
Y35740D02*
D03*
X105110Y63740D02*
D03*
X125610Y51240D02*
D03*
X140610Y111740D02*
D03*
X121110Y67740D02*
D03*
X118110Y23740D02*
D03*
X113110Y43740D02*
D03*
X123110Y61240D02*
D03*
X133878Y34255D02*
D03*
X118110Y133740D02*
D03*
X83110Y113740D02*
D03*
X104110Y2740D02*
D03*
X98110Y24740D02*
D03*
X153110Y3740D02*
D03*
X115110Y2740D02*
D03*
X132520Y101240D02*
D03*
X153110Y21240D02*
D03*
X100610Y63740D02*
D03*
X98110Y131240D02*
D03*
X138110D02*
D03*
X133110Y123740D02*
D03*
X118110D02*
D03*
X103110Y72240D02*
D03*
X140610Y41240D02*
D03*
X133110Y3740D02*
D03*
X140610Y11240D02*
D03*
Y33740D02*
D03*
X153110Y133740D02*
D03*
X83110D02*
D03*
Y43740D02*
D03*
X140610Y16240D02*
D03*
X133110Y11240D02*
D03*
X138110Y83740D02*
D03*
Y73740D02*
D03*
X98110Y98740D02*
D03*
X118110Y51240D02*
D03*
X140610Y26240D02*
D03*
X82110Y2740D02*
D03*
X140610Y3740D02*
D03*
X105610Y31240D02*
D03*
X103110Y123740D02*
D03*
X100610Y111240D02*
D03*
X118110Y78740D02*
D03*
X98110Y58740D02*
D03*
X204350Y220217D02*
D03*
Y222717D02*
D03*
Y217717D02*
D03*
X125610Y220217D02*
D03*
Y222717D02*
D03*
Y217717D02*
D03*
X46870Y220217D02*
D03*
Y222717D02*
D03*
Y217717D02*
D03*
X16870Y55240D02*
D03*
X3370Y23740D02*
D03*
X26370Y13740D02*
D03*
X64370Y83740D02*
D03*
X14370D02*
D03*
X29870Y72240D02*
D03*
X49370Y86240D02*
D03*
X50370Y96740D02*
D03*
X30370Y86240D02*
D03*
X39370Y96240D02*
D03*
Y35740D02*
D03*
X26370Y63740D02*
D03*
X46870Y51240D02*
D03*
X61870Y111740D02*
D03*
X42370Y67740D02*
D03*
X39370Y23740D02*
D03*
X34370Y43740D02*
D03*
X44370Y61240D02*
D03*
X55138Y34255D02*
D03*
X39370Y133740D02*
D03*
X4370Y113740D02*
D03*
X25370Y2740D02*
D03*
X19370Y24740D02*
D03*
X74370Y3740D02*
D03*
X36370Y2740D02*
D03*
X53780Y101240D02*
D03*
X74370Y21240D02*
D03*
X21870Y63740D02*
D03*
X19370Y131240D02*
D03*
X59370D02*
D03*
X54370Y123740D02*
D03*
X39370D02*
D03*
X24370Y72240D02*
D03*
X61870Y41240D02*
D03*
X54370Y3740D02*
D03*
X61870Y11240D02*
D03*
Y33740D02*
D03*
X74370Y133740D02*
D03*
X4370D02*
D03*
Y43740D02*
D03*
X61870Y16240D02*
D03*
X54370Y11240D02*
D03*
X59370Y83740D02*
D03*
Y73740D02*
D03*
X19370Y98740D02*
D03*
X39370Y51240D02*
D03*
X61870Y26240D02*
D03*
X3370Y2740D02*
D03*
X61870Y3740D02*
D03*
X26870Y31240D02*
D03*
X24370Y123740D02*
D03*
X21870Y111240D02*
D03*
X39370Y78740D02*
D03*
X19370Y58740D02*
D03*
D43*
X176850Y8740D02*
D03*
Y18740D02*
D03*
X166850Y8740D02*
D03*
Y18740D02*
D03*
X98110Y8740D02*
D03*
Y18740D02*
D03*
X88110Y8740D02*
D03*
Y18740D02*
D03*
X19370Y8740D02*
D03*
Y18740D02*
D03*
X9370Y8740D02*
D03*
Y18740D02*
D03*
D44*
X199311Y175217D02*
D03*
X120571D02*
D03*
X41831D02*
D03*
D45*
X194390D02*
D03*
X115650D02*
D03*
X36909D02*
D03*
D46*
X183071Y267815D02*
D03*
X210630D02*
D03*
X104331D02*
D03*
X131890D02*
D03*
X25591D02*
D03*
X53150D02*
D03*
D47*
X187008Y257087D02*
D03*
X206693D02*
D03*
X108268D02*
D03*
X127953D02*
D03*
X29528D02*
D03*
X49213D02*
D03*
D48*
X165354Y177165D02*
D03*
Y267717D02*
D03*
X228346Y177165D02*
D03*
Y267717D02*
D03*
X86614Y177165D02*
D03*
Y267717D02*
D03*
X149606Y177165D02*
D03*
Y267717D02*
D03*
X7874Y177165D02*
D03*
Y267717D02*
D03*
X70866Y177165D02*
D03*
Y267717D02*
D03*
D49*
X345689Y39055D02*
D03*
Y48110D02*
D03*
Y57165D02*
D03*
D50*
X368917Y48110D02*
D03*
D51*
X357835Y230965D02*
D03*
X196850Y87854D02*
D03*
X118110D02*
D03*
X39370D02*
D03*
D52*
X348780Y207736D02*
D03*
X357835D02*
D03*
X366890D02*
D03*
X205906Y64626D02*
D03*
X196850D02*
D03*
X187795D02*
D03*
X127165D02*
D03*
X118110D02*
D03*
X109055D02*
D03*
X48425D02*
D03*
X39370D02*
D03*
X30315D02*
D03*
D53*
X289213Y7874D02*
D03*
X241968D02*
D03*
X289213Y208661D02*
D03*
X241968D02*
D03*
D54*
X299213Y32835D02*
D03*
Y36772D02*
D03*
X251969Y32835D02*
D03*
Y36772D02*
D03*
X299213Y233622D02*
D03*
Y237559D02*
D03*
X251969Y233622D02*
D03*
Y237559D02*
D03*
M02*
