G04*
G04 #@! TF.GenerationSoftware,Altium Limited,Altium Designer,20.0.11 (256)*
G04*
G04 Layer_Color=8388736*
%FSLAX25Y25*%
%MOIN*%
G70*
G01*
G75*
%ADD26C,0.06800*%
G04:AMPARAMS|DCode=27|XSize=86.74mil|YSize=67.06mil|CornerRadius=18.76mil|HoleSize=0mil|Usage=FLASHONLY|Rotation=90.000|XOffset=0mil|YOffset=0mil|HoleType=Round|Shape=RoundedRectangle|*
%AMROUNDEDRECTD27*
21,1,0.08674,0.02953,0,0,90.0*
21,1,0.04921,0.06706,0,0,90.0*
1,1,0.03753,0.01476,0.02461*
1,1,0.03753,0.01476,-0.02461*
1,1,0.03753,-0.01476,-0.02461*
1,1,0.03753,-0.01476,0.02461*
%
%ADD27ROUNDEDRECTD27*%
%ADD28O,0.09068X0.01981*%
%ADD29O,0.01981X0.09068*%
%ADD30R,0.06115X0.02375*%
%ADD31R,0.04343X0.04737*%
G04:AMPARAMS|DCode=32|XSize=39.5mil|YSize=39.5mil|CornerRadius=7.94mil|HoleSize=0mil|Usage=FLASHONLY|Rotation=180.000|XOffset=0mil|YOffset=0mil|HoleType=Round|Shape=RoundedRectangle|*
%AMROUNDEDRECTD32*
21,1,0.03950,0.02362,0,0,180.0*
21,1,0.02362,0.03950,0,0,180.0*
1,1,0.01587,-0.01181,0.01181*
1,1,0.01587,0.01181,0.01181*
1,1,0.01587,0.01181,-0.01181*
1,1,0.01587,-0.01181,-0.01181*
%
%ADD32ROUNDEDRECTD32*%
G04:AMPARAMS|DCode=33|XSize=39.5mil|YSize=39.5mil|CornerRadius=7.94mil|HoleSize=0mil|Usage=FLASHONLY|Rotation=270.000|XOffset=0mil|YOffset=0mil|HoleType=Round|Shape=RoundedRectangle|*
%AMROUNDEDRECTD33*
21,1,0.03950,0.02362,0,0,270.0*
21,1,0.02362,0.03950,0,0,270.0*
1,1,0.01587,-0.01181,-0.01181*
1,1,0.01587,-0.01181,0.01181*
1,1,0.01587,0.01181,0.01181*
1,1,0.01587,0.01181,-0.01181*
%
%ADD33ROUNDEDRECTD33*%
%ADD34R,0.04737X0.04343*%
%ADD35C,0.20485*%
%ADD36O,0.06706X0.08674*%
%ADD37C,0.08674*%
G04:AMPARAMS|DCode=38|XSize=67.06mil|YSize=86.74mil|CornerRadius=18.76mil|HoleSize=0mil|Usage=FLASHONLY|Rotation=180.000|XOffset=0mil|YOffset=0mil|HoleType=Round|Shape=RoundedRectangle|*
%AMROUNDEDRECTD38*
21,1,0.06706,0.04921,0,0,180.0*
21,1,0.02953,0.08674,0,0,180.0*
1,1,0.03753,-0.01476,0.02461*
1,1,0.03753,0.01476,0.02461*
1,1,0.03753,0.01476,-0.02461*
1,1,0.03753,-0.01476,-0.02461*
%
%ADD38ROUNDEDRECTD38*%
%ADD39C,0.07296*%
%ADD40R,0.07296X0.07296*%
%ADD41R,0.07296X0.07296*%
G04:AMPARAMS|DCode=42|XSize=74.93mil|YSize=63.12mil|CornerRadius=17.78mil|HoleSize=0mil|Usage=FLASHONLY|Rotation=180.000|XOffset=0mil|YOffset=0mil|HoleType=Round|Shape=RoundedRectangle|*
%AMROUNDEDRECTD42*
21,1,0.07493,0.02756,0,0,180.0*
21,1,0.03937,0.06312,0,0,180.0*
1,1,0.03556,-0.01968,0.01378*
1,1,0.03556,0.01968,0.01378*
1,1,0.03556,0.01968,-0.01378*
1,1,0.03556,-0.01968,-0.01378*
%
%ADD42ROUNDEDRECTD42*%
G04:AMPARAMS|DCode=43|XSize=68mil|YSize=57.21mil|CornerRadius=16.3mil|HoleSize=0mil|Usage=FLASHONLY|Rotation=90.000|XOffset=0mil|YOffset=0mil|HoleType=Round|Shape=RoundedRectangle|*
%AMROUNDEDRECTD43*
21,1,0.06800,0.02461,0,0,90.0*
21,1,0.03539,0.05721,0,0,90.0*
1,1,0.03261,0.01230,0.01770*
1,1,0.03261,0.01230,-0.01770*
1,1,0.03261,-0.01230,-0.01770*
1,1,0.03261,-0.01230,0.01770*
%
%ADD43ROUNDEDRECTD43*%
%ADD44C,0.04737*%
%ADD45R,0.04737X0.04737*%
G04:AMPARAMS|DCode=46|XSize=47.37mil|YSize=67.06mil|CornerRadius=0mil|HoleSize=0mil|Usage=FLASHONLY|Rotation=180.000|XOffset=0mil|YOffset=0mil|HoleType=Round|Shape=Octagon|*
%AMOCTAGOND46*
4,1,8,0.01184,-0.03353,-0.01184,-0.03353,-0.02368,-0.02169,-0.02368,0.02169,-0.01184,0.03353,0.01184,0.03353,0.02368,0.02169,0.02368,-0.02169,0.01184,-0.03353,0.0*
%
%ADD46OCTAGOND46*%

G04:AMPARAMS|DCode=47|XSize=47.37mil|YSize=67.06mil|CornerRadius=0mil|HoleSize=0mil|Usage=FLASHONLY|Rotation=270.000|XOffset=0mil|YOffset=0mil|HoleType=Round|Shape=Octagon|*
%AMOCTAGOND47*
4,1,8,0.03353,0.01184,0.03353,-0.01184,0.02169,-0.02368,-0.02169,-0.02368,-0.03353,-0.01184,-0.03353,0.01184,-0.02169,0.02368,0.02169,0.02368,0.03353,0.01184,0.0*
%
%ADD47OCTAGOND47*%

%ADD48C,0.03162*%
D26*
X-80000Y-60000D02*
D03*
X-90000D02*
D03*
X-100000D02*
D03*
X-80000Y-50000D02*
D03*
X-90000D02*
D03*
X-100000D02*
D03*
X-92000Y-2500D02*
D03*
Y-21500D02*
D03*
X-72000Y-2500D02*
D03*
Y-21500D02*
D03*
D27*
X80000Y-96732D02*
D03*
Y-63268D02*
D03*
X-80000Y63268D02*
D03*
Y96732D02*
D03*
D28*
X-29921Y23622D02*
D03*
Y21654D02*
D03*
Y19685D02*
D03*
Y17717D02*
D03*
Y15748D02*
D03*
Y13780D02*
D03*
Y11811D02*
D03*
Y9843D02*
D03*
Y7874D02*
D03*
Y5906D02*
D03*
Y3937D02*
D03*
X-29921Y1969D02*
D03*
Y0D02*
D03*
Y-1969D02*
D03*
X-29921Y-3937D02*
D03*
Y-5906D02*
D03*
Y-7874D02*
D03*
Y-9843D02*
D03*
Y-11811D02*
D03*
Y-13780D02*
D03*
Y-15748D02*
D03*
Y-17717D02*
D03*
Y-19685D02*
D03*
Y-21654D02*
D03*
Y-23622D02*
D03*
X29921D02*
D03*
Y-21654D02*
D03*
Y-19685D02*
D03*
Y-17717D02*
D03*
Y-15748D02*
D03*
Y-13780D02*
D03*
Y-11811D02*
D03*
Y-9843D02*
D03*
Y-7874D02*
D03*
Y-5906D02*
D03*
Y-3937D02*
D03*
X29921Y-1969D02*
D03*
Y0D02*
D03*
Y1969D02*
D03*
X29921Y3937D02*
D03*
Y5906D02*
D03*
Y7874D02*
D03*
Y9843D02*
D03*
Y11811D02*
D03*
Y13780D02*
D03*
Y15748D02*
D03*
Y17717D02*
D03*
Y19685D02*
D03*
Y21654D02*
D03*
Y23622D02*
D03*
D29*
X-23622Y-29921D02*
D03*
X-21654D02*
D03*
X-19685D02*
D03*
X-17717D02*
D03*
X-15748D02*
D03*
X-13780D02*
D03*
X-11811D02*
D03*
X-9843D02*
D03*
X-7874D02*
D03*
X-5906D02*
D03*
X-3937D02*
D03*
X-1969Y-29921D02*
D03*
X0D02*
D03*
X1969D02*
D03*
X3937Y-29921D02*
D03*
X5906D02*
D03*
X7874D02*
D03*
X9843D02*
D03*
X11811D02*
D03*
X13780D02*
D03*
X15748D02*
D03*
X17717D02*
D03*
X19685D02*
D03*
X21654D02*
D03*
X23622D02*
D03*
Y29921D02*
D03*
X21654D02*
D03*
X19685D02*
D03*
X17717D02*
D03*
X15748D02*
D03*
X13780D02*
D03*
X11811D02*
D03*
X9843D02*
D03*
X7874D02*
D03*
X5906D02*
D03*
X3937D02*
D03*
X1969Y29921D02*
D03*
X0D02*
D03*
X-1969D02*
D03*
X-3937Y29921D02*
D03*
X-5906D02*
D03*
X-7874D02*
D03*
X-9843D02*
D03*
X-11811D02*
D03*
X-13780D02*
D03*
X-15748D02*
D03*
X-17717D02*
D03*
X-19685D02*
D03*
X-21654D02*
D03*
X-23622D02*
D03*
D30*
X114370Y112382D02*
D03*
Y114941D02*
D03*
Y122618D02*
D03*
Y120059D02*
D03*
Y117500D02*
D03*
D31*
X96153Y35000D02*
D03*
X102847D02*
D03*
X96000Y41000D02*
D03*
X102693D02*
D03*
D32*
X85154Y35000D02*
D03*
X91847D02*
D03*
X85154Y41000D02*
D03*
X91847D02*
D03*
D33*
X87500Y71653D02*
D03*
Y78347D02*
D03*
X92500Y71653D02*
D03*
Y78347D02*
D03*
X82500D02*
D03*
Y71653D02*
D03*
X77500Y78347D02*
D03*
Y71653D02*
D03*
X72500Y78347D02*
D03*
Y71653D02*
D03*
X67500Y78347D02*
D03*
Y71653D02*
D03*
X62500Y78347D02*
D03*
Y71653D02*
D03*
X57500D02*
D03*
Y78347D02*
D03*
D34*
X92500Y84153D02*
D03*
Y90847D02*
D03*
X87500Y84153D02*
D03*
Y90847D02*
D03*
X82500Y84153D02*
D03*
Y90847D02*
D03*
X77500Y84153D02*
D03*
Y90847D02*
D03*
X72500Y84153D02*
D03*
Y90847D02*
D03*
X67500Y84153D02*
D03*
Y90847D02*
D03*
X62500Y84153D02*
D03*
Y90847D02*
D03*
X57500Y84153D02*
D03*
Y90847D02*
D03*
D35*
X120000Y-120000D02*
D03*
X-120000D02*
D03*
Y120000D02*
D03*
D36*
X-80000Y-77500D02*
D03*
Y-87500D02*
D03*
X-60000Y-77500D02*
D03*
Y-87500D02*
D03*
X-50000Y-77500D02*
D03*
Y-87500D02*
D03*
X-40000D02*
D03*
D37*
X-70000Y-77500D02*
D03*
Y-87500D02*
D03*
D38*
X-40000Y-77500D02*
D03*
D39*
X40000Y115000D02*
D03*
Y125000D02*
D03*
X0Y115000D02*
D03*
Y125000D02*
D03*
X10000Y115000D02*
D03*
Y125000D02*
D03*
X-20000Y115000D02*
D03*
Y125000D02*
D03*
X-30000Y115000D02*
D03*
Y125000D02*
D03*
X-80000D02*
D03*
X-70000Y115000D02*
D03*
Y125000D02*
D03*
X-60000Y115000D02*
D03*
Y125000D02*
D03*
X-50000Y115000D02*
D03*
Y125000D02*
D03*
X-40000Y115000D02*
D03*
Y125000D02*
D03*
X-10000Y115000D02*
D03*
Y125000D02*
D03*
X20000Y115000D02*
D03*
Y125000D02*
D03*
X30000Y115000D02*
D03*
Y125000D02*
D03*
X60000Y115000D02*
D03*
Y125000D02*
D03*
X50000Y115000D02*
D03*
Y125000D02*
D03*
X80000Y115000D02*
D03*
Y125000D02*
D03*
X70000Y115000D02*
D03*
Y125000D02*
D03*
X-115000Y40000D02*
D03*
X-125000D02*
D03*
X-115000Y0D02*
D03*
X-125000D02*
D03*
X-115000Y10000D02*
D03*
X-125000D02*
D03*
X-115000Y-20000D02*
D03*
X-125000D02*
D03*
X-115000Y-30000D02*
D03*
X-125000D02*
D03*
Y-80000D02*
D03*
X-115000Y-70000D02*
D03*
X-125000D02*
D03*
X-115000Y-60000D02*
D03*
X-125000D02*
D03*
X-115000Y-50000D02*
D03*
X-125000D02*
D03*
X-115000Y-40000D02*
D03*
X-125000D02*
D03*
X-115000Y-10000D02*
D03*
X-125000D02*
D03*
X-115000Y20000D02*
D03*
X-125000D02*
D03*
X-115000Y30000D02*
D03*
X-125000D02*
D03*
X-115000Y60000D02*
D03*
X-125000D02*
D03*
X-115000Y50000D02*
D03*
X-125000D02*
D03*
X-115000Y80000D02*
D03*
X-125000D02*
D03*
X-115000Y70000D02*
D03*
X-125000D02*
D03*
X115000Y-40000D02*
D03*
X125000D02*
D03*
X115000Y0D02*
D03*
X125000D02*
D03*
X115000Y-10000D02*
D03*
X125000D02*
D03*
X115000Y20000D02*
D03*
X125000D02*
D03*
X115000Y30000D02*
D03*
X125000D02*
D03*
Y80000D02*
D03*
X115000Y70000D02*
D03*
X125000D02*
D03*
X115000Y60000D02*
D03*
X125000D02*
D03*
X115000Y50000D02*
D03*
X125000D02*
D03*
X115000Y40000D02*
D03*
X125000D02*
D03*
X115000Y10000D02*
D03*
X125000D02*
D03*
X115000Y-20000D02*
D03*
X125000D02*
D03*
X115000Y-30000D02*
D03*
X125000D02*
D03*
X115000Y-60000D02*
D03*
X125000D02*
D03*
X115000Y-50000D02*
D03*
X125000D02*
D03*
X115000Y-80000D02*
D03*
X125000D02*
D03*
X115000Y-70000D02*
D03*
X125000D02*
D03*
X-40000Y-115000D02*
D03*
Y-125000D02*
D03*
X0Y-115000D02*
D03*
Y-125000D02*
D03*
X-10000Y-115000D02*
D03*
Y-125000D02*
D03*
X20000Y-115000D02*
D03*
Y-125000D02*
D03*
X30000Y-115000D02*
D03*
Y-125000D02*
D03*
X80000D02*
D03*
X70000Y-115000D02*
D03*
Y-125000D02*
D03*
X60000Y-115000D02*
D03*
Y-125000D02*
D03*
X50000Y-115000D02*
D03*
Y-125000D02*
D03*
X40000Y-115000D02*
D03*
Y-125000D02*
D03*
X10000Y-115000D02*
D03*
Y-125000D02*
D03*
X-20000Y-115000D02*
D03*
Y-125000D02*
D03*
X-30000Y-115000D02*
D03*
Y-125000D02*
D03*
X-60000Y-115000D02*
D03*
Y-125000D02*
D03*
X-50000Y-115000D02*
D03*
Y-125000D02*
D03*
X-80000Y-115000D02*
D03*
Y-125000D02*
D03*
X-70000Y-115000D02*
D03*
Y-125000D02*
D03*
D40*
X-80000Y115000D02*
D03*
X80000Y-115000D02*
D03*
D41*
X-115000Y-80000D02*
D03*
X115000Y80000D02*
D03*
D42*
X125098Y103720D02*
D03*
Y131280D02*
D03*
D43*
X114370Y107658D02*
D03*
Y127342D02*
D03*
D44*
X-62500Y-60000D02*
D03*
Y-55000D02*
D03*
Y-50000D02*
D03*
Y-45000D02*
D03*
D45*
Y-40000D02*
D03*
D46*
X-50000Y50000D02*
D03*
X-40000D02*
D03*
X-30000D02*
D03*
X-20000D02*
D03*
X-10000D02*
D03*
X0D02*
D03*
X10000D02*
D03*
X20000D02*
D03*
X30000D02*
D03*
X40000D02*
D03*
X-54997Y-57500D02*
D03*
X-50000Y-50000D02*
D03*
X-45000Y-57500D02*
D03*
X-40000Y-50000D02*
D03*
X45000Y57500D02*
D03*
X-35000Y-57500D02*
D03*
X-30000Y-50000D02*
D03*
X35000Y57500D02*
D03*
X-25000Y-57500D02*
D03*
X-20000Y-50000D02*
D03*
X25000Y57500D02*
D03*
X-15000Y-57500D02*
D03*
X-10000Y-50000D02*
D03*
X15000Y57500D02*
D03*
X-5000Y-57500D02*
D03*
X0Y-50000D02*
D03*
X5000Y57500D02*
D03*
Y-57500D02*
D03*
X10000Y-50000D02*
D03*
X-5000Y57500D02*
D03*
X15000Y-57500D02*
D03*
X20000Y-50000D02*
D03*
X-15000Y57500D02*
D03*
X25000Y-57500D02*
D03*
X30000Y-50000D02*
D03*
X-25000Y57500D02*
D03*
X35000Y-57500D02*
D03*
X40000Y-50000D02*
D03*
X-35000Y57500D02*
D03*
X45000Y-57500D02*
D03*
X-45000Y57500D02*
D03*
X-55000D02*
D03*
D47*
X50000Y45000D02*
D03*
Y-45000D02*
D03*
X-57500Y35000D02*
D03*
X57500Y-40000D02*
D03*
X-50000Y30000D02*
D03*
X50000Y-35000D02*
D03*
X-57500Y25000D02*
D03*
X57500Y-30000D02*
D03*
X-50000Y20000D02*
D03*
X50000Y-25000D02*
D03*
X-57500Y15000D02*
D03*
X57500Y-20000D02*
D03*
X-50000Y10000D02*
D03*
X50000Y-15000D02*
D03*
X-57500Y5000D02*
D03*
X57500Y-10000D02*
D03*
X50000Y-5000D02*
D03*
X-50000Y0D02*
D03*
X57500D02*
D03*
X-57500Y-5000D02*
D03*
X50000Y5000D02*
D03*
X-50000Y-10000D02*
D03*
X57500Y10000D02*
D03*
X-57500Y-15000D02*
D03*
X50000Y15000D02*
D03*
X-50000Y-20000D02*
D03*
X57500Y20000D02*
D03*
X-57500Y-25000D02*
D03*
X50000Y25000D02*
D03*
X-50000Y-30000D02*
D03*
X57500Y30000D02*
D03*
X-57500Y-35000D02*
D03*
X50000Y35000D02*
D03*
X57500Y40000D02*
D03*
Y50000D02*
D03*
Y-50000D02*
D03*
X-50000Y40000D02*
D03*
D48*
X-102500Y51500D02*
D03*
X-91000Y40500D02*
D03*
X-99500Y50000D02*
D03*
M02*
