G04*
G04 #@! TF.GenerationSoftware,Altium Limited,Altium Designer,20.0.11 (256)*
G04*
G04 Layer_Color=255*
%FSLAX25Y25*%
%MOIN*%
G70*
G01*
G75*
%ADD17R,0.03543X0.03937*%
G04:AMPARAMS|DCode=18|XSize=31.5mil|YSize=31.5mil|CornerRadius=3.94mil|HoleSize=0mil|Usage=FLASHONLY|Rotation=180.000|XOffset=0mil|YOffset=0mil|HoleType=Round|Shape=RoundedRectangle|*
%AMROUNDEDRECTD18*
21,1,0.03150,0.02362,0,0,180.0*
21,1,0.02362,0.03150,0,0,180.0*
1,1,0.00787,-0.01181,0.01181*
1,1,0.00787,0.01181,0.01181*
1,1,0.00787,0.01181,-0.01181*
1,1,0.00787,-0.01181,-0.01181*
%
%ADD18ROUNDEDRECTD18*%
%ADD19O,0.01181X0.08268*%
%ADD20O,0.08268X0.01181*%
%ADD21R,0.05315X0.01575*%
G04:AMPARAMS|DCode=43|XSize=78.74mil|YSize=78.74mil|CornerRadius=19.68mil|HoleSize=0mil|Usage=FLASHONLY|Rotation=90.000|XOffset=0mil|YOffset=0mil|HoleType=Round|Shape=RoundedRectangle|*
%AMROUNDEDRECTD43*
21,1,0.07874,0.03937,0,0,90.0*
21,1,0.03937,0.07874,0,0,90.0*
1,1,0.03937,0.01968,0.01968*
1,1,0.03937,0.01968,-0.01968*
1,1,0.03937,-0.01968,-0.01968*
1,1,0.03937,-0.01968,0.01968*
%
%ADD43ROUNDEDRECTD43*%
%ADD44C,0.06000*%
%ADD45R,0.03937X0.03937*%
%ADD46C,0.03937*%
%ADD47C,0.06496*%
%ADD48R,0.06496X0.06496*%
G04:AMPARAMS|DCode=49|XSize=39.37mil|YSize=59.06mil|CornerRadius=0mil|HoleSize=0mil|Usage=FLASHONLY|Rotation=180.000|XOffset=0mil|YOffset=0mil|HoleType=Round|Shape=Octagon|*
%AMOCTAGOND49*
4,1,8,0.00984,-0.02953,-0.00984,-0.02953,-0.01968,-0.01968,-0.01968,0.01968,-0.00984,0.02953,0.00984,0.02953,0.01968,0.01968,0.01968,-0.01968,0.00984,-0.02953,0.0*
%
%ADD49OCTAGOND49*%

G04:AMPARAMS|DCode=50|XSize=39.37mil|YSize=59.06mil|CornerRadius=0mil|HoleSize=0mil|Usage=FLASHONLY|Rotation=270.000|XOffset=0mil|YOffset=0mil|HoleType=Round|Shape=Octagon|*
%AMOCTAGOND50*
4,1,8,0.02953,0.00984,0.02953,-0.00984,0.01968,-0.01968,-0.01968,-0.01968,-0.02953,-0.00984,-0.02953,0.00984,-0.01968,0.01968,0.01968,0.01968,0.02953,0.00984,0.0*
%
%ADD50OCTAGOND50*%

%ADD51R,0.06496X0.06496*%
%ADD52O,0.05906X0.07874*%
G04:AMPARAMS|DCode=53|XSize=59.06mil|YSize=78.74mil|CornerRadius=14.76mil|HoleSize=0mil|Usage=FLASHONLY|Rotation=180.000|XOffset=0mil|YOffset=0mil|HoleType=Round|Shape=RoundedRectangle|*
%AMROUNDEDRECTD53*
21,1,0.05906,0.04921,0,0,180.0*
21,1,0.02953,0.07874,0,0,180.0*
1,1,0.02953,-0.01476,0.02461*
1,1,0.02953,0.01476,0.02461*
1,1,0.02953,0.01476,-0.02461*
1,1,0.02953,-0.01476,-0.02461*
%
%ADD53ROUNDEDRECTD53*%
%ADD54C,0.07874*%
G04:AMPARAMS|DCode=55|XSize=66.93mil|YSize=55.12mil|CornerRadius=13.78mil|HoleSize=0mil|Usage=FLASHONLY|Rotation=180.000|XOffset=0mil|YOffset=0mil|HoleType=Round|Shape=RoundedRectangle|*
%AMROUNDEDRECTD55*
21,1,0.06693,0.02756,0,0,180.0*
21,1,0.03937,0.05512,0,0,180.0*
1,1,0.02756,-0.01968,0.01378*
1,1,0.02756,0.01968,0.01378*
1,1,0.02756,0.01968,-0.01378*
1,1,0.02756,-0.01968,-0.01378*
%
%ADD55ROUNDEDRECTD55*%
G04:AMPARAMS|DCode=56|XSize=60mil|YSize=49.21mil|CornerRadius=12.3mil|HoleSize=0mil|Usage=FLASHONLY|Rotation=90.000|XOffset=0mil|YOffset=0mil|HoleType=Round|Shape=RoundedRectangle|*
%AMROUNDEDRECTD56*
21,1,0.06000,0.02461,0,0,90.0*
21,1,0.03539,0.04921,0,0,90.0*
1,1,0.02461,0.01230,0.01770*
1,1,0.02461,0.01230,-0.01770*
1,1,0.02461,-0.01230,-0.01770*
1,1,0.02461,-0.01230,0.01770*
%
%ADD56ROUNDEDRECTD56*%
D17*
X402693Y341000D02*
D03*
X396000D02*
D03*
X402846Y335000D02*
D03*
X396153D02*
D03*
D18*
X391846Y341000D02*
D03*
X385154D02*
D03*
X391846Y335000D02*
D03*
X385154D02*
D03*
D19*
X276378Y329921D02*
D03*
X278346D02*
D03*
X280315D02*
D03*
X282283D02*
D03*
X284252D02*
D03*
X286221D02*
D03*
X288189D02*
D03*
X290158D02*
D03*
X292126D02*
D03*
X294094D02*
D03*
X296063D02*
D03*
X298031Y329921D02*
D03*
X300000D02*
D03*
X301969D02*
D03*
X303937Y329921D02*
D03*
X305906D02*
D03*
X307874D02*
D03*
X309842D02*
D03*
X311811D02*
D03*
X313779D02*
D03*
X315748D02*
D03*
X317717D02*
D03*
X319685D02*
D03*
X321654D02*
D03*
X323622D02*
D03*
Y270079D02*
D03*
X321654D02*
D03*
X319685D02*
D03*
X317717D02*
D03*
X315748D02*
D03*
X313779D02*
D03*
X311811D02*
D03*
X309842D02*
D03*
X307874D02*
D03*
X305906D02*
D03*
X303937D02*
D03*
X301969Y270079D02*
D03*
X300000D02*
D03*
X298031D02*
D03*
X296063Y270079D02*
D03*
X294094D02*
D03*
X292126D02*
D03*
X290158D02*
D03*
X288189D02*
D03*
X286221D02*
D03*
X284252D02*
D03*
X282283D02*
D03*
X280315D02*
D03*
X278346D02*
D03*
X276378D02*
D03*
D20*
X329921Y323622D02*
D03*
Y321654D02*
D03*
Y319685D02*
D03*
Y317717D02*
D03*
Y315748D02*
D03*
Y313779D02*
D03*
Y311811D02*
D03*
Y309842D02*
D03*
Y307874D02*
D03*
Y305906D02*
D03*
Y303937D02*
D03*
X329921Y301969D02*
D03*
Y300000D02*
D03*
Y298031D02*
D03*
X329921Y296063D02*
D03*
Y294094D02*
D03*
Y292126D02*
D03*
Y290158D02*
D03*
Y288189D02*
D03*
Y286221D02*
D03*
Y284252D02*
D03*
Y282283D02*
D03*
Y280315D02*
D03*
Y278346D02*
D03*
Y276378D02*
D03*
X270079D02*
D03*
Y278346D02*
D03*
Y280315D02*
D03*
Y282283D02*
D03*
Y284252D02*
D03*
Y286221D02*
D03*
Y288189D02*
D03*
Y290158D02*
D03*
Y292126D02*
D03*
Y294094D02*
D03*
Y296063D02*
D03*
X270079Y298031D02*
D03*
Y300000D02*
D03*
Y301969D02*
D03*
X270079Y303937D02*
D03*
Y305906D02*
D03*
Y307874D02*
D03*
Y309842D02*
D03*
Y311811D02*
D03*
Y313779D02*
D03*
Y315748D02*
D03*
Y317717D02*
D03*
Y319685D02*
D03*
Y321654D02*
D03*
Y323622D02*
D03*
D21*
X414370Y417500D02*
D03*
Y420059D02*
D03*
Y422618D02*
D03*
Y414941D02*
D03*
Y412382D02*
D03*
D43*
X220000Y367402D02*
D03*
Y392598D02*
D03*
X380000Y207402D02*
D03*
Y232598D02*
D03*
D44*
X228000Y278500D02*
D03*
Y297500D02*
D03*
X208000Y278500D02*
D03*
Y297500D02*
D03*
D45*
X237500Y260000D02*
D03*
D46*
Y255000D02*
D03*
Y250000D02*
D03*
Y245000D02*
D03*
Y240000D02*
D03*
D47*
X230000Y175000D02*
D03*
Y185000D02*
D03*
X220000Y175000D02*
D03*
Y185000D02*
D03*
X250000Y175000D02*
D03*
Y185000D02*
D03*
X240000Y175000D02*
D03*
Y185000D02*
D03*
X270000Y175000D02*
D03*
Y185000D02*
D03*
X280000Y175000D02*
D03*
Y185000D02*
D03*
X310000Y175000D02*
D03*
Y185000D02*
D03*
X340000Y175000D02*
D03*
Y185000D02*
D03*
X350000Y175000D02*
D03*
Y185000D02*
D03*
X360000Y175000D02*
D03*
Y185000D02*
D03*
X370000Y175000D02*
D03*
Y185000D02*
D03*
X380000Y175000D02*
D03*
X330000D02*
D03*
Y185000D02*
D03*
X320000Y175000D02*
D03*
Y185000D02*
D03*
X290000Y175000D02*
D03*
Y185000D02*
D03*
X300000Y175000D02*
D03*
Y185000D02*
D03*
X260000Y175000D02*
D03*
Y185000D02*
D03*
X370000Y425000D02*
D03*
Y415000D02*
D03*
X380000Y425000D02*
D03*
Y415000D02*
D03*
X350000Y425000D02*
D03*
Y415000D02*
D03*
X360000Y425000D02*
D03*
Y415000D02*
D03*
X330000Y425000D02*
D03*
Y415000D02*
D03*
X320000Y425000D02*
D03*
Y415000D02*
D03*
X290000Y425000D02*
D03*
Y415000D02*
D03*
X260000Y425000D02*
D03*
Y415000D02*
D03*
X250000Y425000D02*
D03*
Y415000D02*
D03*
X240000Y425000D02*
D03*
Y415000D02*
D03*
X230000Y425000D02*
D03*
Y415000D02*
D03*
X220000Y425000D02*
D03*
X270000D02*
D03*
Y415000D02*
D03*
X280000Y425000D02*
D03*
Y415000D02*
D03*
X310000Y425000D02*
D03*
Y415000D02*
D03*
X300000Y425000D02*
D03*
Y415000D02*
D03*
X340000Y425000D02*
D03*
Y415000D02*
D03*
X425000Y230000D02*
D03*
X415000D02*
D03*
X425000Y220000D02*
D03*
X415000D02*
D03*
X425000Y250000D02*
D03*
X415000D02*
D03*
X425000Y240000D02*
D03*
X415000D02*
D03*
X425000Y270000D02*
D03*
X415000D02*
D03*
X425000Y280000D02*
D03*
X415000D02*
D03*
X425000Y310000D02*
D03*
X415000D02*
D03*
X425000Y340000D02*
D03*
X415000D02*
D03*
X425000Y350000D02*
D03*
X415000D02*
D03*
X425000Y360000D02*
D03*
X415000D02*
D03*
X425000Y370000D02*
D03*
X415000D02*
D03*
X425000Y380000D02*
D03*
Y330000D02*
D03*
X415000D02*
D03*
X425000Y320000D02*
D03*
X415000D02*
D03*
X425000Y290000D02*
D03*
X415000D02*
D03*
X425000Y300000D02*
D03*
X415000D02*
D03*
X425000Y260000D02*
D03*
X415000D02*
D03*
X175000Y370000D02*
D03*
X185000D02*
D03*
X175000Y380000D02*
D03*
X185000D02*
D03*
X175000Y350000D02*
D03*
X185000D02*
D03*
X175000Y360000D02*
D03*
X185000D02*
D03*
X175000Y330000D02*
D03*
X185000D02*
D03*
X175000Y320000D02*
D03*
X185000D02*
D03*
X175000Y290000D02*
D03*
X185000D02*
D03*
X175000Y260000D02*
D03*
X185000D02*
D03*
X175000Y250000D02*
D03*
X185000D02*
D03*
X175000Y240000D02*
D03*
X185000D02*
D03*
X175000Y230000D02*
D03*
X185000D02*
D03*
X175000Y220000D02*
D03*
Y270000D02*
D03*
X185000D02*
D03*
X175000Y280000D02*
D03*
X185000D02*
D03*
X175000Y310000D02*
D03*
X185000D02*
D03*
X175000Y300000D02*
D03*
X185000D02*
D03*
X175000Y340000D02*
D03*
X185000D02*
D03*
D48*
X380000Y185000D02*
D03*
X220000Y415000D02*
D03*
D49*
X250000Y350000D02*
D03*
X260000D02*
D03*
X270000D02*
D03*
X280000D02*
D03*
X290000D02*
D03*
X300000D02*
D03*
X310000D02*
D03*
X320000D02*
D03*
X330000D02*
D03*
X340000D02*
D03*
X245003Y242500D02*
D03*
X250000Y250000D02*
D03*
X255000Y242500D02*
D03*
X260000Y250000D02*
D03*
X345000Y357500D02*
D03*
X265000Y242500D02*
D03*
X270000Y250000D02*
D03*
X335000Y357500D02*
D03*
X275000Y242500D02*
D03*
X280000Y250000D02*
D03*
X325000Y357500D02*
D03*
X285000Y242500D02*
D03*
X290000Y250000D02*
D03*
X315000Y357500D02*
D03*
X295000Y242500D02*
D03*
X300000Y250000D02*
D03*
X305000Y357500D02*
D03*
Y242500D02*
D03*
X310000Y250000D02*
D03*
X295000Y357500D02*
D03*
X315000Y242500D02*
D03*
X320000Y250000D02*
D03*
X285000Y357500D02*
D03*
X325000Y242500D02*
D03*
X330000Y250000D02*
D03*
X275000Y357500D02*
D03*
X335000Y242500D02*
D03*
X340000Y250000D02*
D03*
X265000Y357500D02*
D03*
X345000Y242500D02*
D03*
X255000Y357500D02*
D03*
X245000D02*
D03*
D50*
X350000Y345000D02*
D03*
Y255000D02*
D03*
X242500Y335000D02*
D03*
X357500Y260000D02*
D03*
X250000Y330000D02*
D03*
X350000Y265000D02*
D03*
X242500Y325000D02*
D03*
X357500Y270000D02*
D03*
X250000Y320000D02*
D03*
X350000Y275000D02*
D03*
X242500Y315000D02*
D03*
X357500Y280000D02*
D03*
X250000Y310000D02*
D03*
X350000Y285000D02*
D03*
X242500Y305000D02*
D03*
X357500Y290000D02*
D03*
X350000Y295000D02*
D03*
X250000Y300000D02*
D03*
X357500D02*
D03*
X242500Y295000D02*
D03*
X350000Y305000D02*
D03*
X250000Y290000D02*
D03*
X357500Y310000D02*
D03*
X242500Y285000D02*
D03*
X350000Y315000D02*
D03*
X250000Y280000D02*
D03*
X357500Y320000D02*
D03*
X242500Y275000D02*
D03*
X350000Y325000D02*
D03*
X250000Y270000D02*
D03*
X357500Y330000D02*
D03*
X242500Y265000D02*
D03*
X350000Y335000D02*
D03*
X357500Y340000D02*
D03*
Y350000D02*
D03*
Y250000D02*
D03*
X250000Y340000D02*
D03*
D51*
X415000Y380000D02*
D03*
X185000Y220000D02*
D03*
D52*
X260000Y212500D02*
D03*
X250000D02*
D03*
Y222500D02*
D03*
X240000Y212500D02*
D03*
Y222500D02*
D03*
X220000Y212500D02*
D03*
Y222500D02*
D03*
D53*
X260000D02*
D03*
D54*
X230000Y212500D02*
D03*
Y222500D02*
D03*
D55*
X425098Y431280D02*
D03*
Y403721D02*
D03*
D56*
X414370Y427343D02*
D03*
Y407657D02*
D03*
M02*
