G04*
G04 #@! TF.GenerationSoftware,Altium Limited,Altium Designer,20.0.11 (256)*
G04*
G04 Layer_Physical_Order=1*
G04 Layer_Color=255*
%FSLAX25Y25*%
%MOIN*%
G70*
G01*
G75*
%ADD10C,0.00984*%
%ADD17C,0.06000*%
G04:AMPARAMS|DCode=18|XSize=78.74mil|YSize=59.06mil|CornerRadius=14.76mil|HoleSize=0mil|Usage=FLASHONLY|Rotation=90.000|XOffset=0mil|YOffset=0mil|HoleType=Round|Shape=RoundedRectangle|*
%AMROUNDEDRECTD18*
21,1,0.07874,0.02953,0,0,90.0*
21,1,0.04921,0.05906,0,0,90.0*
1,1,0.02953,0.01476,0.02461*
1,1,0.02953,0.01476,-0.02461*
1,1,0.02953,-0.01476,-0.02461*
1,1,0.02953,-0.01476,0.02461*
%
%ADD18ROUNDEDRECTD18*%
%ADD19O,0.08268X0.01181*%
%ADD20O,0.01181X0.08268*%
%ADD21R,0.05315X0.01575*%
%ADD22R,0.03543X0.03937*%
G04:AMPARAMS|DCode=23|XSize=31.5mil|YSize=31.5mil|CornerRadius=3.94mil|HoleSize=0mil|Usage=FLASHONLY|Rotation=180.000|XOffset=0mil|YOffset=0mil|HoleType=Round|Shape=RoundedRectangle|*
%AMROUNDEDRECTD23*
21,1,0.03150,0.02362,0,0,180.0*
21,1,0.02362,0.03150,0,0,180.0*
1,1,0.00787,-0.01181,0.01181*
1,1,0.00787,0.01181,0.01181*
1,1,0.00787,0.01181,-0.01181*
1,1,0.00787,-0.01181,-0.01181*
%
%ADD23ROUNDEDRECTD23*%
G04:AMPARAMS|DCode=24|XSize=31.5mil|YSize=31.5mil|CornerRadius=3.94mil|HoleSize=0mil|Usage=FLASHONLY|Rotation=270.000|XOffset=0mil|YOffset=0mil|HoleType=Round|Shape=RoundedRectangle|*
%AMROUNDEDRECTD24*
21,1,0.03150,0.02362,0,0,270.0*
21,1,0.02362,0.03150,0,0,270.0*
1,1,0.00787,-0.01181,-0.01181*
1,1,0.00787,-0.01181,0.01181*
1,1,0.00787,0.01181,0.01181*
1,1,0.00787,0.01181,-0.01181*
%
%ADD24ROUNDEDRECTD24*%
%ADD25R,0.03937X0.03543*%
%ADD49C,0.01968*%
%ADD50C,0.19685*%
%ADD51O,0.05906X0.07874*%
%ADD52C,0.07874*%
G04:AMPARAMS|DCode=53|XSize=59.06mil|YSize=78.74mil|CornerRadius=14.76mil|HoleSize=0mil|Usage=FLASHONLY|Rotation=180.000|XOffset=0mil|YOffset=0mil|HoleType=Round|Shape=RoundedRectangle|*
%AMROUNDEDRECTD53*
21,1,0.05906,0.04921,0,0,180.0*
21,1,0.02953,0.07874,0,0,180.0*
1,1,0.02953,-0.01476,0.02461*
1,1,0.02953,0.01476,0.02461*
1,1,0.02953,0.01476,-0.02461*
1,1,0.02953,-0.01476,-0.02461*
%
%ADD53ROUNDEDRECTD53*%
%ADD54C,0.06496*%
%ADD55R,0.06496X0.06496*%
%ADD56R,0.06496X0.06496*%
G04:AMPARAMS|DCode=57|XSize=66.93mil|YSize=55.12mil|CornerRadius=13.78mil|HoleSize=0mil|Usage=FLASHONLY|Rotation=180.000|XOffset=0mil|YOffset=0mil|HoleType=Round|Shape=RoundedRectangle|*
%AMROUNDEDRECTD57*
21,1,0.06693,0.02756,0,0,180.0*
21,1,0.03937,0.05512,0,0,180.0*
1,1,0.02756,-0.01968,0.01378*
1,1,0.02756,0.01968,0.01378*
1,1,0.02756,0.01968,-0.01378*
1,1,0.02756,-0.01968,-0.01378*
%
%ADD57ROUNDEDRECTD57*%
G04:AMPARAMS|DCode=58|XSize=60mil|YSize=49.21mil|CornerRadius=12.3mil|HoleSize=0mil|Usage=FLASHONLY|Rotation=90.000|XOffset=0mil|YOffset=0mil|HoleType=Round|Shape=RoundedRectangle|*
%AMROUNDEDRECTD58*
21,1,0.06000,0.02461,0,0,90.0*
21,1,0.03539,0.04921,0,0,90.0*
1,1,0.02461,0.01230,0.01770*
1,1,0.02461,0.01230,-0.01770*
1,1,0.02461,-0.01230,-0.01770*
1,1,0.02461,-0.01230,0.01770*
%
%ADD58ROUNDEDRECTD58*%
%ADD59C,0.03937*%
%ADD60R,0.03937X0.03937*%
G04:AMPARAMS|DCode=61|XSize=39.37mil|YSize=59.06mil|CornerRadius=0mil|HoleSize=0mil|Usage=FLASHONLY|Rotation=180.000|XOffset=0mil|YOffset=0mil|HoleType=Round|Shape=Octagon|*
%AMOCTAGOND61*
4,1,8,0.00984,-0.02953,-0.00984,-0.02953,-0.01968,-0.01968,-0.01968,0.01968,-0.00984,0.02953,0.00984,0.02953,0.01968,0.01968,0.01968,-0.01968,0.00984,-0.02953,0.0*
%
%ADD61OCTAGOND61*%

G04:AMPARAMS|DCode=62|XSize=39.37mil|YSize=59.06mil|CornerRadius=0mil|HoleSize=0mil|Usage=FLASHONLY|Rotation=270.000|XOffset=0mil|YOffset=0mil|HoleType=Round|Shape=Octagon|*
%AMOCTAGOND62*
4,1,8,0.02953,0.00984,0.02953,-0.00984,0.01968,-0.01968,-0.01968,-0.01968,-0.02953,-0.00984,-0.02953,0.00984,-0.01968,0.01968,0.01968,0.01968,0.02953,0.00984,0.0*
%
%ADD62OCTAGOND62*%

%ADD63C,0.02362*%
G36*
X136390Y-137178D02*
X-137178D01*
X-137178Y135603D01*
X121148D01*
X121482Y134619D01*
X121305Y134483D01*
X120895Y133948D01*
X120637Y133326D01*
X120549Y132658D01*
Y129902D01*
X120637Y129234D01*
X120895Y128611D01*
X121305Y128076D01*
X121839Y127666D01*
X122462Y127408D01*
X123130Y127321D01*
X127067D01*
X127735Y127408D01*
X128358Y127666D01*
X128892Y128076D01*
X129302Y128611D01*
X129560Y129234D01*
X129648Y129902D01*
Y132658D01*
X129560Y133326D01*
X129302Y133948D01*
X128892Y134483D01*
X128715Y134619D01*
X129049Y135603D01*
X136390D01*
X136390Y-137178D01*
D02*
G37*
%LPC*%
G36*
X80000Y129269D02*
X78895Y129123D01*
X77866Y128697D01*
X77769Y128623D01*
X80000Y126392D01*
X82231Y128623D01*
X82134Y128697D01*
X81105Y129123D01*
X80000Y129269D01*
D02*
G37*
G36*
X40000D02*
X38895Y129123D01*
X37866Y128697D01*
X37769Y128623D01*
X40000Y126392D01*
X42231Y128623D01*
X42134Y128697D01*
X41105Y129123D01*
X40000Y129269D01*
D02*
G37*
G36*
X0D02*
X-1105Y129123D01*
X-2134Y128697D01*
X-2231Y128623D01*
X0Y126392D01*
X2231Y128623D01*
X2134Y128697D01*
X1105Y129123D01*
X0Y129269D01*
D02*
G37*
G36*
X-40000D02*
X-41105Y129123D01*
X-42134Y128697D01*
X-42231Y128623D01*
X-40000Y126392D01*
X-37769Y128623D01*
X-37866Y128697D01*
X-38895Y129123D01*
X-40000Y129269D01*
D02*
G37*
G36*
X-80000D02*
X-81105Y129123D01*
X-82134Y128697D01*
X-82231Y128623D01*
X-80000Y126392D01*
X-77769Y128623D01*
X-77866Y128697D01*
X-78895Y129123D01*
X-80000Y129269D01*
D02*
G37*
G36*
X115600Y131571D02*
X113140D01*
X112199Y131384D01*
X111401Y130851D01*
X110868Y130053D01*
X110681Y129112D01*
Y125573D01*
X110721Y125371D01*
X110728Y124390D01*
X110728Y124390D01*
X110728Y124390D01*
Y123602D01*
X111748D01*
X112199Y123301D01*
X113140Y123114D01*
X114370D01*
X115600D01*
X116541Y123301D01*
X116992Y123602D01*
X118012D01*
Y124390D01*
X118012Y124390D01*
X118012D01*
X118019Y125371D01*
X118059Y125573D01*
Y129112D01*
X117872Y130053D01*
X117339Y130851D01*
X116541Y131384D01*
X115600Y131571D01*
D02*
G37*
G36*
X83623Y127231D02*
X81392Y125000D01*
X83623Y122769D01*
X83697Y122866D01*
X84123Y123895D01*
X84269Y125000D01*
X84123Y126105D01*
X83697Y127134D01*
X83623Y127231D01*
D02*
G37*
G36*
X43623D02*
X41392Y125000D01*
X43623Y122769D01*
X43697Y122866D01*
X44123Y123895D01*
X44269Y125000D01*
X44123Y126105D01*
X43697Y127134D01*
X43623Y127231D01*
D02*
G37*
G36*
X3623D02*
X1392Y125000D01*
X3623Y122769D01*
X3697Y122866D01*
X4123Y123895D01*
X4269Y125000D01*
X4123Y126105D01*
X3697Y127134D01*
X3623Y127231D01*
D02*
G37*
G36*
X-36377D02*
X-38608Y125000D01*
X-36377Y122769D01*
X-36303Y122866D01*
X-35877Y123895D01*
X-35731Y125000D01*
X-35877Y126105D01*
X-36303Y127134D01*
X-36377Y127231D01*
D02*
G37*
G36*
X-76377D02*
X-78608Y125000D01*
X-76377Y122769D01*
X-76303Y122866D01*
X-75877Y123895D01*
X-75731Y125000D01*
X-75877Y126105D01*
X-76303Y127134D01*
X-76377Y127231D01*
D02*
G37*
G36*
X76377Y127231D02*
X76303Y127134D01*
X75877Y126105D01*
X75731Y125000D01*
X75877Y123895D01*
X76303Y122866D01*
X76377Y122769D01*
X78608Y125000D01*
X76377Y127231D01*
D02*
G37*
G36*
X36377D02*
X36303Y127134D01*
X35877Y126105D01*
X35731Y125000D01*
X35877Y123895D01*
X36303Y122866D01*
X36377Y122769D01*
X38608Y125000D01*
X36377Y127231D01*
D02*
G37*
G36*
X-3623D02*
X-3697Y127134D01*
X-4123Y126105D01*
X-4269Y125000D01*
X-4123Y123895D01*
X-3697Y122866D01*
X-3623Y122769D01*
X-1392Y125000D01*
X-3623Y127231D01*
D02*
G37*
G36*
X-43623D02*
X-43697Y127134D01*
X-44123Y126105D01*
X-44269Y125000D01*
X-44123Y123895D01*
X-43697Y122866D01*
X-43623Y122769D01*
X-41392Y125000D01*
X-43623Y127231D01*
D02*
G37*
G36*
X-83623D02*
X-83697Y127134D01*
X-84123Y126105D01*
X-84269Y125000D01*
X-84123Y123895D01*
X-83697Y122866D01*
X-83623Y122769D01*
X-81392Y125000D01*
X-83623Y127231D01*
D02*
G37*
G36*
X-120000Y130860D02*
X-121699Y130727D01*
X-123356Y130329D01*
X-124930Y129676D01*
X-126383Y128786D01*
X-126929Y128321D01*
X-120000Y121392D01*
X-113071Y128321D01*
X-113617Y128786D01*
X-115070Y129676D01*
X-116644Y130329D01*
X-118301Y130727D01*
X-120000Y130860D01*
D02*
G37*
G36*
X80000Y123608D02*
X77769Y121377D01*
X77866Y121303D01*
X78895Y120877D01*
X80000Y120731D01*
X81105Y120877D01*
X82134Y121303D01*
X82231Y121377D01*
X80000Y123608D01*
D02*
G37*
G36*
X40000D02*
X37769Y121377D01*
X37866Y121303D01*
X38895Y120877D01*
X40000Y120731D01*
X41105Y120877D01*
X42134Y121303D01*
X42231Y121377D01*
X40000Y123608D01*
D02*
G37*
G36*
X0D02*
X-2231Y121377D01*
X-2134Y121303D01*
X-1105Y120877D01*
X0Y120731D01*
X1105Y120877D01*
X2134Y121303D01*
X2231Y121377D01*
X0Y123608D01*
D02*
G37*
G36*
X-40000D02*
X-42231Y121377D01*
X-42134Y121303D01*
X-41105Y120877D01*
X-40000Y120731D01*
X-38895Y120877D01*
X-37866Y121303D01*
X-37769Y121377D01*
X-40000Y123608D01*
D02*
G37*
G36*
X-80000D02*
X-82231Y121377D01*
X-82134Y121303D01*
X-81105Y120877D01*
X-80000Y120731D01*
X-78895Y120877D01*
X-77866Y121303D01*
X-77769Y121377D01*
X-80000Y123608D01*
D02*
G37*
G36*
X70000Y129467D02*
X68844Y129315D01*
X67766Y128869D01*
X66841Y128159D01*
X66131Y127234D01*
X65685Y126156D01*
X65533Y125000D01*
X65685Y123844D01*
X66131Y122766D01*
X66841Y121841D01*
X67766Y121131D01*
X68844Y120685D01*
X70000Y120533D01*
X71156Y120685D01*
X72234Y121131D01*
X73159Y121841D01*
X73869Y122766D01*
X74315Y123844D01*
X74467Y125000D01*
X74315Y126156D01*
X73869Y127234D01*
X73159Y128159D01*
X72234Y128869D01*
X71156Y129315D01*
X70000Y129467D01*
D02*
G37*
G36*
X60000D02*
X58844Y129315D01*
X57766Y128869D01*
X56841Y128159D01*
X56131Y127234D01*
X55685Y126156D01*
X55533Y125000D01*
X55685Y123844D01*
X56131Y122766D01*
X56841Y121841D01*
X57766Y121131D01*
X58844Y120685D01*
X60000Y120533D01*
X61156Y120685D01*
X62234Y121131D01*
X63159Y121841D01*
X63869Y122766D01*
X64315Y123844D01*
X64467Y125000D01*
X64315Y126156D01*
X63869Y127234D01*
X63159Y128159D01*
X62234Y128869D01*
X61156Y129315D01*
X60000Y129467D01*
D02*
G37*
G36*
X50000D02*
X48844Y129315D01*
X47766Y128869D01*
X46841Y128159D01*
X46131Y127234D01*
X45685Y126156D01*
X45533Y125000D01*
X45685Y123844D01*
X45903Y123316D01*
X43794Y121206D01*
X43424Y120653D01*
X43294Y120000D01*
Y119296D01*
X42310Y118810D01*
X42234Y118869D01*
X41156Y119315D01*
X40000Y119467D01*
X38844Y119315D01*
X37766Y118869D01*
X36841Y118159D01*
X36131Y117234D01*
X35685Y116156D01*
X35533Y115000D01*
X35685Y113844D01*
X36131Y112766D01*
X36841Y111841D01*
X37766Y111131D01*
X38844Y110685D01*
X40000Y110533D01*
X41156Y110685D01*
X41812Y110957D01*
X42736Y110484D01*
X42837Y110353D01*
X42906Y109818D01*
X31294Y98206D01*
X30924Y97653D01*
X30794Y97000D01*
Y96699D01*
X30275Y95922D01*
X30092Y95000D01*
X30275Y94078D01*
X30632Y93544D01*
X28794Y91706D01*
X28424Y91153D01*
X28294Y90500D01*
Y61347D01*
X27444Y60983D01*
X26706Y61581D01*
Y93301D01*
X27225Y94078D01*
X27408Y95000D01*
X27225Y95922D01*
X26868Y96456D01*
X31206Y100794D01*
X31576Y101347D01*
X31706Y102000D01*
Y110913D01*
X32234Y111131D01*
X33159Y111841D01*
X33869Y112766D01*
X34315Y113844D01*
X34467Y115000D01*
X34315Y116156D01*
X33869Y117234D01*
X33159Y118159D01*
X32234Y118869D01*
X31156Y119315D01*
X30000Y119467D01*
X28844Y119315D01*
X28427Y119142D01*
X27333Y119721D01*
X27304Y119892D01*
X28316Y120903D01*
X28844Y120685D01*
X30000Y120533D01*
X31156Y120685D01*
X32234Y121131D01*
X33159Y121841D01*
X33869Y122766D01*
X34315Y123844D01*
X34467Y125000D01*
X34315Y126156D01*
X33869Y127234D01*
X33159Y128159D01*
X32234Y128869D01*
X31156Y129315D01*
X30000Y129467D01*
X28844Y129315D01*
X27766Y128869D01*
X26841Y128159D01*
X26131Y127234D01*
X25685Y126156D01*
X25533Y125000D01*
X25685Y123844D01*
X25903Y123316D01*
X24572Y121985D01*
X23700Y122246D01*
X23700D01*
X23700Y122247D01*
X23700Y122247D01*
X23565Y122365D01*
D01*
X23562Y122367D01*
X23563Y122368D01*
X23869Y122766D01*
X24315Y123844D01*
X24467Y125000D01*
X24315Y126156D01*
X23869Y127234D01*
X23159Y128159D01*
X22234Y128869D01*
X21156Y129315D01*
X20000Y129467D01*
X18844Y129315D01*
X17766Y128869D01*
X16841Y128159D01*
X16131Y127234D01*
X15685Y126156D01*
X15533Y125000D01*
X15685Y123844D01*
X15903Y123316D01*
X14572Y121985D01*
X13700Y122246D01*
X13700D01*
X13700Y122247D01*
X13700Y122247D01*
X13565Y122365D01*
D01*
X13563Y122367D01*
X13563Y122368D01*
X13869Y122766D01*
X14315Y123844D01*
X14467Y125000D01*
X14315Y126156D01*
X13869Y127234D01*
X13159Y128159D01*
X12234Y128869D01*
X11156Y129315D01*
X10000Y129467D01*
X8844Y129315D01*
X7766Y128869D01*
X6841Y128159D01*
X6131Y127234D01*
X5685Y126156D01*
X5533Y125000D01*
X5685Y123844D01*
X5903Y123316D01*
X3794Y121206D01*
X3424Y120653D01*
X3294Y120000D01*
Y119296D01*
X2310Y118810D01*
X2234Y118869D01*
X1156Y119315D01*
X0Y119467D01*
X-1156Y119315D01*
X-2234Y118869D01*
X-2310Y118810D01*
X-3294Y119296D01*
Y120000D01*
X-3424Y120653D01*
X-3794Y121206D01*
X-5903Y123316D01*
X-5685Y123844D01*
X-5533Y125000D01*
X-5685Y126156D01*
X-6131Y127234D01*
X-6841Y128159D01*
X-7766Y128869D01*
X-8844Y129315D01*
X-10000Y129467D01*
X-11156Y129315D01*
X-12234Y128869D01*
X-13159Y128159D01*
X-13869Y127234D01*
X-14315Y126156D01*
X-14467Y125000D01*
X-14315Y123844D01*
X-13869Y122766D01*
X-13563Y122368D01*
X-13563Y122367D01*
X-13565Y122364D01*
Y122364D01*
X-13698Y122248D01*
Y122248D01*
X-13699Y122248D01*
X-14569Y121982D01*
X-15903Y123316D01*
X-15685Y123844D01*
X-15533Y125000D01*
X-15685Y126156D01*
X-16131Y127234D01*
X-16841Y128159D01*
X-17766Y128869D01*
X-18844Y129315D01*
X-20000Y129467D01*
X-21156Y129315D01*
X-22234Y128869D01*
X-23159Y128159D01*
X-23869Y127234D01*
X-24315Y126156D01*
X-24467Y125000D01*
X-24315Y123844D01*
X-23869Y122766D01*
X-23563Y122368D01*
X-23562Y122367D01*
X-23565Y122364D01*
Y122364D01*
X-23698Y122248D01*
Y122248D01*
X-23699Y122248D01*
X-24569Y121982D01*
X-25903Y123316D01*
X-25685Y123844D01*
X-25533Y125000D01*
X-25685Y126156D01*
X-26131Y127234D01*
X-26841Y128159D01*
X-27766Y128869D01*
X-28844Y129315D01*
X-30000Y129467D01*
X-31156Y129315D01*
X-32234Y128869D01*
X-33159Y128159D01*
X-33869Y127234D01*
X-34315Y126156D01*
X-34467Y125000D01*
X-34315Y123844D01*
X-33869Y122766D01*
X-33159Y121841D01*
X-32234Y121131D01*
X-31156Y120685D01*
X-30000Y120533D01*
X-28844Y120685D01*
X-28316Y120903D01*
X-27304Y119892D01*
X-27333Y119721D01*
X-28427Y119142D01*
X-28844Y119315D01*
X-30000Y119467D01*
X-31156Y119315D01*
X-32234Y118869D01*
X-33159Y118159D01*
X-33869Y117234D01*
X-34315Y116156D01*
X-34467Y115000D01*
X-34315Y113844D01*
X-33869Y112766D01*
X-33159Y111841D01*
X-32234Y111131D01*
X-31706Y110913D01*
Y61347D01*
X-32556Y60983D01*
X-33294Y61581D01*
Y97500D01*
X-33424Y98153D01*
X-33794Y98706D01*
X-43294Y108207D01*
Y110704D01*
X-42310Y111189D01*
X-42234Y111131D01*
X-41156Y110685D01*
X-40000Y110533D01*
X-38844Y110685D01*
X-37766Y111131D01*
X-36841Y111841D01*
X-36131Y112766D01*
X-35685Y113844D01*
X-35533Y115000D01*
X-35685Y116156D01*
X-36131Y117234D01*
X-36841Y118159D01*
X-37766Y118869D01*
X-38844Y119315D01*
X-40000Y119467D01*
X-41156Y119315D01*
X-42234Y118869D01*
X-42310Y118810D01*
X-43294Y119296D01*
Y120000D01*
X-43424Y120653D01*
X-43794Y121206D01*
X-45903Y123316D01*
X-45685Y123844D01*
X-45533Y125000D01*
X-45685Y126156D01*
X-46131Y127234D01*
X-46841Y128159D01*
X-47766Y128869D01*
X-48844Y129315D01*
X-50000Y129467D01*
X-51156Y129315D01*
X-52234Y128869D01*
X-53159Y128159D01*
X-53869Y127234D01*
X-54315Y126156D01*
X-54467Y125000D01*
X-54315Y123844D01*
X-53869Y122766D01*
X-53563Y122368D01*
X-53562Y122367D01*
X-53565Y122364D01*
Y122364D01*
X-53698Y122248D01*
Y122248D01*
X-53699Y122248D01*
X-54569Y121982D01*
X-55903Y123316D01*
X-55685Y123844D01*
X-55533Y125000D01*
X-55685Y126156D01*
X-56131Y127234D01*
X-56841Y128159D01*
X-57766Y128869D01*
X-58844Y129315D01*
X-60000Y129467D01*
X-61156Y129315D01*
X-62234Y128869D01*
X-63159Y128159D01*
X-63869Y127234D01*
X-64315Y126156D01*
X-64467Y125000D01*
X-64315Y123844D01*
X-63869Y122766D01*
X-63159Y121841D01*
X-62234Y121131D01*
X-61156Y120685D01*
X-60000Y120533D01*
X-58844Y120685D01*
X-58316Y120903D01*
X-57304Y119892D01*
X-57333Y119721D01*
X-58426Y119142D01*
X-58844Y119315D01*
X-60000Y119467D01*
X-61156Y119315D01*
X-62234Y118869D01*
X-63159Y118159D01*
X-63869Y117234D01*
X-64315Y116156D01*
X-64467Y115000D01*
X-64315Y113844D01*
X-63869Y112766D01*
X-63159Y111841D01*
X-62234Y111131D01*
X-61706Y110913D01*
Y97500D01*
X-61609Y97012D01*
X-62034Y96622D01*
X-62421Y96432D01*
X-68294Y102305D01*
Y110913D01*
X-67766Y111131D01*
X-66841Y111841D01*
X-66131Y112766D01*
X-65685Y113844D01*
X-65533Y115000D01*
X-65685Y116156D01*
X-66131Y117234D01*
X-66841Y118159D01*
X-67766Y118869D01*
X-68844Y119315D01*
X-70000Y119467D01*
X-71156Y119315D01*
X-72234Y118869D01*
X-73159Y118159D01*
X-73869Y117234D01*
X-74315Y116156D01*
X-74467Y115000D01*
X-74315Y113844D01*
X-73869Y112766D01*
X-73159Y111841D01*
X-72234Y111131D01*
X-71706Y110913D01*
Y101598D01*
X-71576Y100946D01*
X-71206Y100392D01*
X-56706Y85892D01*
Y61503D01*
X-58150Y60059D01*
Y54941D01*
X-56706Y53497D01*
Y47500D01*
X-56576Y46847D01*
X-56206Y46294D01*
X-53206Y43294D01*
X-53135Y42573D01*
X-54003Y41706D01*
X-65793D01*
X-81305Y57217D01*
X-81297Y57297D01*
X-80775Y58078D01*
X-80765Y58127D01*
X-78524D01*
X-77830Y58218D01*
X-77183Y58486D01*
X-76628Y58912D01*
X-76202Y59467D01*
X-75935Y60113D01*
X-75843Y60807D01*
Y65728D01*
X-75935Y66422D01*
X-76202Y67069D01*
X-76628Y67624D01*
X-77183Y68050D01*
X-77830Y68317D01*
X-78524Y68409D01*
X-81476D01*
X-82170Y68317D01*
X-82817Y68050D01*
X-83372Y67624D01*
X-83798Y67069D01*
X-84065Y66422D01*
X-84157Y65728D01*
Y61461D01*
X-85131Y61044D01*
X-100294Y76206D01*
X-100847Y76576D01*
X-101500Y76706D01*
X-110704D01*
X-111189Y77690D01*
X-111131Y77766D01*
X-110685Y78844D01*
X-110533Y80000D01*
X-110685Y81156D01*
X-111131Y82234D01*
X-111841Y83159D01*
X-112766Y83869D01*
X-113844Y84315D01*
X-115000Y84467D01*
X-116156Y84315D01*
X-117234Y83869D01*
X-118159Y83159D01*
X-118869Y82234D01*
X-119315Y81156D01*
X-119467Y80000D01*
X-119315Y78844D01*
X-118869Y77766D01*
X-118810Y77690D01*
X-119296Y76706D01*
X-120000D01*
X-120653Y76576D01*
X-121206Y76206D01*
X-123316Y74097D01*
X-123844Y74315D01*
X-125000Y74467D01*
X-126156Y74315D01*
X-127234Y73869D01*
X-128159Y73159D01*
X-128869Y72234D01*
X-129315Y71156D01*
X-129467Y70000D01*
X-129315Y68844D01*
X-128869Y67766D01*
X-128159Y66841D01*
X-127234Y66131D01*
X-126156Y65685D01*
X-125000Y65533D01*
X-123844Y65685D01*
X-122766Y66131D01*
X-122368Y66437D01*
X-122367Y66438D01*
X-122364Y66435D01*
X-122364D01*
X-122248Y66302D01*
X-122248D01*
X-122248Y66301D01*
X-121982Y65431D01*
X-123316Y64097D01*
X-123844Y64315D01*
X-125000Y64467D01*
X-126156Y64315D01*
X-127234Y63869D01*
X-128159Y63159D01*
X-128869Y62234D01*
X-129315Y61156D01*
X-129467Y60000D01*
X-129315Y58844D01*
X-128869Y57766D01*
X-128159Y56841D01*
X-127234Y56131D01*
X-126156Y55685D01*
X-125000Y55533D01*
X-123844Y55685D01*
X-122766Y56131D01*
X-122367Y56437D01*
X-121717Y55696D01*
X-121934Y55479D01*
X-123316Y54097D01*
X-123844Y54315D01*
X-125000Y54467D01*
X-126156Y54315D01*
X-127234Y53869D01*
X-128159Y53159D01*
X-128869Y52234D01*
X-129315Y51156D01*
X-129467Y50000D01*
X-129315Y48844D01*
X-128869Y47766D01*
X-128159Y46841D01*
X-127234Y46131D01*
X-126156Y45685D01*
X-125000Y45533D01*
X-123844Y45685D01*
X-122766Y46131D01*
X-121841Y46841D01*
X-121131Y47766D01*
X-120685Y48844D01*
X-120533Y50000D01*
X-120685Y51156D01*
X-120903Y51684D01*
X-120141Y52447D01*
X-119869Y52391D01*
X-119271Y51263D01*
X-119315Y51156D01*
X-119467Y50000D01*
X-119315Y48844D01*
X-118869Y47766D01*
X-118159Y46841D01*
X-117234Y46131D01*
X-116156Y45685D01*
X-115000Y45533D01*
X-113844Y45685D01*
X-112766Y46131D01*
X-111841Y46841D01*
X-111131Y47766D01*
X-110913Y48294D01*
X-106686D01*
X-96083Y37690D01*
X-96490Y36706D01*
X-110704D01*
X-111189Y37690D01*
X-111131Y37766D01*
X-110685Y38844D01*
X-110533Y40000D01*
X-110685Y41156D01*
X-111131Y42234D01*
X-111841Y43159D01*
X-112766Y43869D01*
X-113844Y44315D01*
X-115000Y44467D01*
X-116156Y44315D01*
X-117234Y43869D01*
X-118159Y43159D01*
X-118869Y42234D01*
X-119315Y41156D01*
X-119467Y40000D01*
X-119315Y38844D01*
X-118869Y37766D01*
X-118810Y37690D01*
X-119296Y36706D01*
X-120000D01*
X-120653Y36576D01*
X-121206Y36206D01*
X-123316Y34097D01*
X-123844Y34315D01*
X-125000Y34467D01*
X-126156Y34315D01*
X-127234Y33869D01*
X-128159Y33159D01*
X-128869Y32234D01*
X-129315Y31156D01*
X-129467Y30000D01*
X-129315Y28844D01*
X-128869Y27766D01*
X-128159Y26841D01*
X-127234Y26131D01*
X-126156Y25685D01*
X-125000Y25533D01*
X-123844Y25685D01*
X-122766Y26131D01*
X-122368Y26437D01*
X-122367Y26438D01*
X-122364Y26435D01*
X-122364D01*
X-122248Y26302D01*
X-122248D01*
X-122248Y26301D01*
X-121982Y25431D01*
X-123316Y24097D01*
X-123844Y24315D01*
X-125000Y24467D01*
X-126156Y24315D01*
X-127234Y23869D01*
X-128159Y23159D01*
X-128869Y22234D01*
X-129315Y21156D01*
X-129467Y20000D01*
X-129315Y18844D01*
X-128869Y17766D01*
X-128159Y16841D01*
X-127234Y16131D01*
X-126156Y15685D01*
X-125000Y15533D01*
X-123844Y15685D01*
X-122766Y16131D01*
X-122368Y16437D01*
X-122367Y16438D01*
X-122364Y16435D01*
X-122364D01*
X-122248Y16302D01*
X-122248D01*
X-122248Y16301D01*
X-121982Y15431D01*
X-123316Y14097D01*
X-123844Y14315D01*
X-125000Y14467D01*
X-126156Y14315D01*
X-127234Y13869D01*
X-128159Y13159D01*
X-128869Y12234D01*
X-129315Y11156D01*
X-129467Y10000D01*
X-129315Y8844D01*
X-128869Y7766D01*
X-128159Y6841D01*
X-127234Y6131D01*
X-126156Y5685D01*
X-125000Y5533D01*
X-123844Y5685D01*
X-122766Y6131D01*
X-121841Y6841D01*
X-121131Y7766D01*
X-120685Y8844D01*
X-120533Y10000D01*
X-120685Y11156D01*
X-120903Y11684D01*
X-119892Y12696D01*
X-119721Y12667D01*
X-119142Y11574D01*
X-119315Y11156D01*
X-119467Y10000D01*
X-119315Y8844D01*
X-118869Y7766D01*
X-118159Y6841D01*
X-117234Y6131D01*
X-116156Y5685D01*
X-115000Y5533D01*
X-113844Y5685D01*
X-112766Y6131D01*
X-111841Y6841D01*
X-111131Y7766D01*
X-110913Y8294D01*
X-89207D01*
X-84706Y3793D01*
Y-4000D01*
X-84576Y-4653D01*
X-84206Y-5206D01*
X-76103Y-13310D01*
X-76511Y-14294D01*
X-84793D01*
X-87794Y-11294D01*
X-88347Y-10924D01*
X-89000Y-10794D01*
X-97793D01*
X-104794Y-3794D01*
X-105347Y-3424D01*
X-106000Y-3294D01*
X-110704D01*
X-111189Y-2310D01*
X-111131Y-2234D01*
X-110685Y-1156D01*
X-110533Y0D01*
X-110685Y1156D01*
X-111131Y2234D01*
X-111841Y3159D01*
X-112766Y3869D01*
X-113844Y4315D01*
X-115000Y4467D01*
X-116156Y4315D01*
X-117234Y3869D01*
X-118159Y3159D01*
X-118869Y2234D01*
X-119315Y1156D01*
X-119467Y0D01*
X-119315Y-1156D01*
X-118869Y-2234D01*
X-118810Y-2310D01*
X-119296Y-3294D01*
X-120000D01*
X-120653Y-3424D01*
X-121206Y-3794D01*
X-123316Y-5903D01*
X-123844Y-5685D01*
X-125000Y-5533D01*
X-126156Y-5685D01*
X-127234Y-6131D01*
X-128159Y-6841D01*
X-128869Y-7766D01*
X-129315Y-8844D01*
X-129467Y-10000D01*
X-129315Y-11156D01*
X-128869Y-12234D01*
X-128159Y-13159D01*
X-127234Y-13869D01*
X-126156Y-14315D01*
X-125000Y-14467D01*
X-123844Y-14315D01*
X-122766Y-13869D01*
X-122368Y-13563D01*
X-122367Y-13563D01*
X-122364Y-13565D01*
X-122364D01*
X-122248Y-13698D01*
X-122248D01*
X-122248Y-13699D01*
X-121982Y-14569D01*
X-123316Y-15903D01*
X-123844Y-15685D01*
X-125000Y-15533D01*
X-126156Y-15685D01*
X-127234Y-16131D01*
X-128159Y-16841D01*
X-128869Y-17766D01*
X-129315Y-18844D01*
X-129467Y-20000D01*
X-129315Y-21156D01*
X-128869Y-22234D01*
X-128159Y-23159D01*
X-127234Y-23869D01*
X-126156Y-24315D01*
X-125000Y-24467D01*
X-123844Y-24315D01*
X-122766Y-23869D01*
X-122368Y-23563D01*
X-122367Y-23562D01*
X-122364Y-23565D01*
X-122364D01*
X-122248Y-23698D01*
X-122248D01*
X-122248Y-23699D01*
X-121982Y-24569D01*
X-123316Y-25903D01*
X-123844Y-25685D01*
X-125000Y-25533D01*
X-126156Y-25685D01*
X-127234Y-26131D01*
X-128159Y-26841D01*
X-128869Y-27766D01*
X-129315Y-28844D01*
X-129467Y-30000D01*
X-129315Y-31156D01*
X-128869Y-32234D01*
X-128159Y-33159D01*
X-127234Y-33869D01*
X-126156Y-34315D01*
X-125000Y-34467D01*
X-123844Y-34315D01*
X-122766Y-33869D01*
X-121841Y-33159D01*
X-121131Y-32234D01*
X-120685Y-31156D01*
X-120533Y-30000D01*
X-120685Y-28844D01*
X-120903Y-28316D01*
X-119892Y-27304D01*
X-119721Y-27333D01*
X-119142Y-28427D01*
X-119315Y-28844D01*
X-119467Y-30000D01*
X-119315Y-31156D01*
X-118869Y-32234D01*
X-118159Y-33159D01*
X-117234Y-33869D01*
X-116156Y-34315D01*
X-115000Y-34467D01*
X-113844Y-34315D01*
X-112766Y-33869D01*
X-111841Y-33159D01*
X-111131Y-32234D01*
X-110913Y-31706D01*
X-107500D01*
X-106847Y-31576D01*
X-106294Y-31206D01*
X-105924Y-30653D01*
X-105794Y-30000D01*
X-105924Y-29347D01*
X-106294Y-28794D01*
X-106847Y-28424D01*
X-107500Y-28294D01*
X-110499D01*
X-110878Y-27618D01*
X-110381Y-26706D01*
X-107500D01*
X-106847Y-26576D01*
X-106294Y-26206D01*
X-106217Y-26092D01*
X-105041Y-25876D01*
X-94711Y-36206D01*
X-94157Y-36576D01*
X-93504Y-36706D01*
X-66574D01*
X-65650Y-36850D01*
Y-38423D01*
X-65653Y-38424D01*
X-66206Y-38794D01*
X-71167Y-43754D01*
X-71537Y-44308D01*
X-71667Y-44961D01*
Y-47034D01*
X-72186Y-47811D01*
X-72369Y-48732D01*
X-72186Y-49654D01*
X-71664Y-50435D01*
X-70882Y-50957D01*
X-69961Y-51141D01*
X-69039Y-50957D01*
X-68258Y-50435D01*
X-67735Y-49654D01*
X-67552Y-48732D01*
X-67735Y-47811D01*
X-68255Y-47034D01*
Y-45667D01*
X-66478Y-43891D01*
X-66212Y-43974D01*
X-65598Y-44403D01*
X-65677Y-45000D01*
X-65569Y-45822D01*
X-65251Y-46588D01*
X-64746Y-47246D01*
Y-47754D01*
X-65251Y-48412D01*
X-65569Y-49178D01*
X-65677Y-50000D01*
X-65588Y-50675D01*
X-68706Y-53794D01*
X-69076Y-54347D01*
X-69206Y-55000D01*
Y-58301D01*
X-69725Y-59078D01*
X-69908Y-60000D01*
X-69725Y-60922D01*
X-69203Y-61703D01*
X-68422Y-62225D01*
X-67500Y-62409D01*
X-66578Y-62225D01*
X-66000Y-61839D01*
X-65696Y-61723D01*
X-65629Y-61737D01*
X-63196Y-59304D01*
X-62500Y-60000D01*
X-61804Y-59304D01*
X-59832Y-61276D01*
X-59623Y-60771D01*
X-59522Y-60000D01*
X-59623Y-59229D01*
X-59921Y-58511D01*
X-60394Y-57894D01*
X-60019Y-56941D01*
X-59749Y-56588D01*
X-59431Y-55822D01*
X-59323Y-55000D01*
X-59431Y-54178D01*
X-59749Y-53412D01*
X-60254Y-52754D01*
Y-52246D01*
X-59749Y-51588D01*
X-59431Y-50822D01*
X-59323Y-50000D01*
X-59431Y-49178D01*
X-59749Y-48412D01*
X-60254Y-47754D01*
Y-47246D01*
X-59749Y-46588D01*
X-59431Y-45822D01*
X-59323Y-45000D01*
X-59431Y-44178D01*
X-59450Y-44134D01*
X-59350Y-43150D01*
X-59350D01*
Y-38150D01*
X-54941D01*
X-53497Y-36706D01*
X-49253D01*
X-48601Y-36576D01*
X-48047Y-36206D01*
X-45950Y-34109D01*
X-44703Y-34203D01*
X-43922Y-34725D01*
X-43000Y-34909D01*
X-42078Y-34725D01*
X-41297Y-34203D01*
X-40203D01*
X-39422Y-34725D01*
X-38500Y-34909D01*
X-37578Y-34725D01*
X-36797Y-34203D01*
X-36203D01*
X-35422Y-34725D01*
X-34500Y-34909D01*
X-33578Y-34725D01*
X-32797Y-34203D01*
X-32203D01*
X-31422Y-34725D01*
X-30500Y-34909D01*
X-29578Y-34725D01*
X-28797Y-34203D01*
X-28275Y-33422D01*
X-28091Y-32500D01*
X-28275Y-31578D01*
X-28794Y-30801D01*
Y-29500D01*
X-28924Y-28847D01*
X-29294Y-28294D01*
X-31250Y-26338D01*
X-30873Y-25428D01*
X-26378D01*
X-26186Y-25390D01*
X-25390Y-26186D01*
X-25428Y-26378D01*
Y-33432D01*
X-25917D01*
X-26570Y-33562D01*
X-27124Y-33931D01*
X-29986Y-36794D01*
X-45000D01*
X-45653Y-36924D01*
X-46206Y-37294D01*
X-56204Y-47291D01*
X-56573Y-47844D01*
X-56703Y-48497D01*
Y-53497D01*
X-58147Y-54941D01*
Y-60059D01*
X-56703Y-61503D01*
Y-72594D01*
X-57687Y-73080D01*
X-57915Y-72905D01*
X-58921Y-72488D01*
X-60000Y-72346D01*
X-61079Y-72488D01*
X-62085Y-72905D01*
X-62948Y-73567D01*
X-63611Y-74431D01*
X-64027Y-75437D01*
X-64094Y-75939D01*
X-64377Y-76008D01*
X-65091Y-75977D01*
X-65529Y-74919D01*
X-66350Y-73850D01*
X-67419Y-73029D01*
X-68664Y-72514D01*
X-70000Y-72338D01*
X-71336Y-72514D01*
X-72581Y-73029D01*
X-73650Y-73850D01*
X-74471Y-74919D01*
X-74909Y-75977D01*
X-75623Y-76008D01*
X-75906Y-75939D01*
X-75973Y-75437D01*
X-76389Y-74431D01*
X-77052Y-73567D01*
X-77915Y-72905D01*
X-78921Y-72488D01*
X-80000Y-72346D01*
X-81079Y-72488D01*
X-82085Y-72905D01*
X-82948Y-73567D01*
X-83611Y-74431D01*
X-84027Y-75437D01*
X-84170Y-76516D01*
Y-78484D01*
X-84027Y-79563D01*
X-83611Y-80569D01*
X-82948Y-81433D01*
X-82121Y-82068D01*
X-82036Y-82616D01*
X-82080Y-83044D01*
X-79304Y-85820D01*
X-80696Y-87212D01*
X-83412Y-84495D01*
X-83439Y-84530D01*
X-83836Y-85488D01*
X-83971Y-86516D01*
Y-88484D01*
X-83836Y-89512D01*
X-83439Y-90470D01*
X-83412Y-90505D01*
X-80696Y-87788D01*
X-80000Y-88484D01*
X-79304Y-87788D01*
X-76588Y-90505D01*
X-76561Y-90470D01*
X-76164Y-89512D01*
X-76029Y-88484D01*
Y-88457D01*
X-75045Y-88392D01*
X-74986Y-88836D01*
X-74471Y-90081D01*
X-73650Y-91150D01*
X-72581Y-91971D01*
X-71336Y-92486D01*
X-70000Y-92662D01*
X-68664Y-92486D01*
X-67419Y-91971D01*
X-66350Y-91150D01*
X-65529Y-90081D01*
X-65091Y-89024D01*
X-64377Y-88992D01*
X-64094Y-89061D01*
X-64027Y-89563D01*
X-63611Y-90569D01*
X-62948Y-91433D01*
X-62085Y-92095D01*
X-61079Y-92512D01*
X-60000Y-92654D01*
X-58921Y-92512D01*
X-57915Y-92095D01*
X-57687Y-91920D01*
X-56703Y-92406D01*
Y-96791D01*
X-61206Y-101294D01*
X-61576Y-101847D01*
X-61706Y-102500D01*
Y-110913D01*
X-62234Y-111131D01*
X-63159Y-111841D01*
X-63869Y-112766D01*
X-64315Y-113844D01*
X-64467Y-115000D01*
X-64315Y-116156D01*
X-63869Y-117234D01*
X-63159Y-118159D01*
X-62234Y-118869D01*
X-61156Y-119315D01*
X-60000Y-119467D01*
X-58844Y-119315D01*
X-57766Y-118869D01*
X-57690Y-118810D01*
X-56706Y-119296D01*
Y-120000D01*
X-56576Y-120653D01*
X-56537Y-120712D01*
X-56961Y-121517D01*
X-57093Y-121641D01*
X-57766Y-121131D01*
X-57843Y-121099D01*
X-58844Y-120685D01*
X-60000Y-120533D01*
X-61156Y-120685D01*
X-62234Y-121131D01*
X-63159Y-121841D01*
X-63869Y-122766D01*
X-64315Y-123844D01*
X-64467Y-125000D01*
X-64315Y-126156D01*
X-63869Y-127234D01*
X-63159Y-128159D01*
X-62234Y-128869D01*
X-61156Y-129315D01*
X-60000Y-129467D01*
X-58844Y-129315D01*
X-57766Y-128869D01*
X-56841Y-128159D01*
X-56131Y-127234D01*
X-55685Y-126156D01*
X-55533Y-125000D01*
X-55685Y-123844D01*
X-56131Y-122766D01*
X-56437Y-122368D01*
X-56437Y-122367D01*
X-56435Y-122365D01*
D01*
X-56300Y-122247D01*
X-56300Y-122247D01*
X-56300Y-122246D01*
X-55428Y-121985D01*
X-54097Y-123316D01*
X-54315Y-123844D01*
X-54467Y-125000D01*
X-54315Y-126156D01*
X-53869Y-127234D01*
X-53159Y-128159D01*
X-52234Y-128869D01*
X-51156Y-129315D01*
X-50000Y-129467D01*
X-48844Y-129315D01*
X-47766Y-128869D01*
X-46841Y-128159D01*
X-46131Y-127234D01*
X-45685Y-126156D01*
X-45533Y-125000D01*
X-45685Y-123844D01*
X-46131Y-122766D01*
X-46841Y-121841D01*
X-47766Y-121131D01*
X-48844Y-120685D01*
X-50000Y-120533D01*
X-51156Y-120685D01*
X-51684Y-120903D01*
X-52696Y-119892D01*
X-52667Y-119721D01*
X-51573Y-119142D01*
X-51156Y-119315D01*
X-50000Y-119467D01*
X-48844Y-119315D01*
X-47766Y-118869D01*
X-46841Y-118159D01*
X-46131Y-117234D01*
X-45685Y-116156D01*
X-45533Y-115000D01*
X-45685Y-113844D01*
X-46131Y-112766D01*
X-46841Y-111841D01*
X-47766Y-111131D01*
X-48294Y-110913D01*
Y-108207D01*
X-35115Y-95028D01*
X-34206Y-95405D01*
Y-96799D01*
X-36206Y-98799D01*
X-36576Y-99353D01*
X-36706Y-100005D01*
Y-110704D01*
X-37690Y-111189D01*
X-37766Y-111131D01*
X-38844Y-110685D01*
X-40000Y-110533D01*
X-41156Y-110685D01*
X-42234Y-111131D01*
X-43159Y-111841D01*
X-43869Y-112766D01*
X-44315Y-113844D01*
X-44467Y-115000D01*
X-44315Y-116156D01*
X-43869Y-117234D01*
X-43159Y-118159D01*
X-42234Y-118869D01*
X-41156Y-119315D01*
X-40000Y-119467D01*
X-38844Y-119315D01*
X-37766Y-118869D01*
X-37690Y-118810D01*
X-36706Y-119296D01*
Y-120000D01*
X-36576Y-120653D01*
X-36206Y-121206D01*
X-34097Y-123316D01*
X-34315Y-123844D01*
X-34467Y-125000D01*
X-34315Y-126156D01*
X-33869Y-127234D01*
X-33159Y-128159D01*
X-32234Y-128869D01*
X-31156Y-129315D01*
X-30000Y-129467D01*
X-28844Y-129315D01*
X-27766Y-128869D01*
X-26841Y-128159D01*
X-26131Y-127234D01*
X-25685Y-126156D01*
X-25533Y-125000D01*
X-25685Y-123844D01*
X-26131Y-122766D01*
X-26437Y-122368D01*
X-26438Y-122367D01*
X-26435Y-122365D01*
D01*
X-26300Y-122247D01*
X-26300Y-122247D01*
X-26300Y-122246D01*
X-25428Y-121985D01*
X-24097Y-123316D01*
X-24315Y-123844D01*
X-24467Y-125000D01*
X-24315Y-126156D01*
X-23869Y-127234D01*
X-23159Y-128159D01*
X-22234Y-128869D01*
X-21156Y-129315D01*
X-20000Y-129467D01*
X-18844Y-129315D01*
X-17766Y-128869D01*
X-16841Y-128159D01*
X-16131Y-127234D01*
X-15685Y-126156D01*
X-15533Y-125000D01*
X-15685Y-123844D01*
X-16131Y-122766D01*
X-16437Y-122368D01*
X-16438Y-122367D01*
X-16435Y-122365D01*
D01*
X-16300Y-122247D01*
X-16300Y-122247D01*
X-16300Y-122246D01*
X-15428Y-121985D01*
X-14097Y-123316D01*
X-14315Y-123844D01*
X-14467Y-125000D01*
X-14315Y-126156D01*
X-13869Y-127234D01*
X-13159Y-128159D01*
X-12234Y-128869D01*
X-11156Y-129315D01*
X-10000Y-129467D01*
X-8844Y-129315D01*
X-7766Y-128869D01*
X-6841Y-128159D01*
X-6131Y-127234D01*
X-5685Y-126156D01*
X-5533Y-125000D01*
X-5685Y-123844D01*
X-6131Y-122766D01*
X-6841Y-121841D01*
X-7766Y-121131D01*
X-8844Y-120685D01*
X-10000Y-120533D01*
X-11156Y-120685D01*
X-11684Y-120903D01*
X-12696Y-119892D01*
X-12667Y-119721D01*
X-11574Y-119142D01*
X-11156Y-119315D01*
X-10000Y-119467D01*
X-8844Y-119315D01*
X-7766Y-118869D01*
X-6841Y-118159D01*
X-6131Y-117234D01*
X-5685Y-116156D01*
X-5533Y-115000D01*
X-5685Y-113844D01*
X-6131Y-112766D01*
X-6841Y-111841D01*
X-7766Y-111131D01*
X-8294Y-110913D01*
Y-73011D01*
X-7310Y-72603D01*
X3294Y-83207D01*
Y-110704D01*
X2310Y-111189D01*
X2234Y-111131D01*
X1156Y-110685D01*
X0Y-110533D01*
X-1156Y-110685D01*
X-2234Y-111131D01*
X-3159Y-111841D01*
X-3869Y-112766D01*
X-4315Y-113844D01*
X-4467Y-115000D01*
X-4315Y-116156D01*
X-3869Y-117234D01*
X-3159Y-118159D01*
X-2234Y-118869D01*
X-1156Y-119315D01*
X0Y-119467D01*
X1156Y-119315D01*
X2234Y-118869D01*
X2310Y-118810D01*
X3294Y-119296D01*
Y-120000D01*
X3424Y-120653D01*
X3794Y-121206D01*
X5903Y-123316D01*
X5685Y-123844D01*
X5533Y-125000D01*
X5685Y-126156D01*
X6131Y-127234D01*
X6841Y-128159D01*
X7766Y-128869D01*
X8844Y-129315D01*
X10000Y-129467D01*
X11156Y-129315D01*
X12234Y-128869D01*
X13159Y-128159D01*
X13869Y-127234D01*
X14315Y-126156D01*
X14467Y-125000D01*
X14315Y-123844D01*
X13869Y-122766D01*
X13563Y-122368D01*
X13563Y-122367D01*
X13565Y-122365D01*
D01*
X13700Y-122247D01*
X13700Y-122247D01*
X13700Y-122246D01*
X14572Y-121985D01*
X15903Y-123316D01*
X15685Y-123844D01*
X15533Y-125000D01*
X15685Y-126156D01*
X16131Y-127234D01*
X16841Y-128159D01*
X17766Y-128869D01*
X18844Y-129315D01*
X20000Y-129467D01*
X21156Y-129315D01*
X22234Y-128869D01*
X23159Y-128159D01*
X23869Y-127234D01*
X24315Y-126156D01*
X24467Y-125000D01*
X24315Y-123844D01*
X23869Y-122766D01*
X23563Y-122368D01*
X23562Y-122367D01*
X23565Y-122365D01*
D01*
X23700Y-122247D01*
X23700Y-122247D01*
X23700Y-122246D01*
X24572Y-121985D01*
X25903Y-123316D01*
X25685Y-123844D01*
X25533Y-125000D01*
X25685Y-126156D01*
X26131Y-127234D01*
X26841Y-128159D01*
X27766Y-128869D01*
X28844Y-129315D01*
X30000Y-129467D01*
X31156Y-129315D01*
X32234Y-128869D01*
X33159Y-128159D01*
X33869Y-127234D01*
X34315Y-126156D01*
X34467Y-125000D01*
X34315Y-123844D01*
X33869Y-122766D01*
X33159Y-121841D01*
X32234Y-121131D01*
X31156Y-120685D01*
X30000Y-120533D01*
X28844Y-120685D01*
X28316Y-120903D01*
X27304Y-119892D01*
X27333Y-119721D01*
X28427Y-119142D01*
X28844Y-119315D01*
X30000Y-119467D01*
X31156Y-119315D01*
X32234Y-118869D01*
X33159Y-118159D01*
X33869Y-117234D01*
X34315Y-116156D01*
X34467Y-115000D01*
X34315Y-113844D01*
X33869Y-112766D01*
X33159Y-111841D01*
X32234Y-111131D01*
X31706Y-110913D01*
Y-78011D01*
X32690Y-77603D01*
X43294Y-88207D01*
Y-110704D01*
X42310Y-111189D01*
X42234Y-111131D01*
X41156Y-110685D01*
X40000Y-110533D01*
X38844Y-110685D01*
X37766Y-111131D01*
X36841Y-111841D01*
X36131Y-112766D01*
X35685Y-113844D01*
X35533Y-115000D01*
X35685Y-116156D01*
X36131Y-117234D01*
X36841Y-118159D01*
X37766Y-118869D01*
X38844Y-119315D01*
X40000Y-119467D01*
X41156Y-119315D01*
X42234Y-118869D01*
X42310Y-118810D01*
X43294Y-119296D01*
Y-120000D01*
X43424Y-120653D01*
X43794Y-121206D01*
X45903Y-123316D01*
X45685Y-123844D01*
X45533Y-125000D01*
X45685Y-126156D01*
X46131Y-127234D01*
X46841Y-128159D01*
X47766Y-128869D01*
X48844Y-129315D01*
X50000Y-129467D01*
X51156Y-129315D01*
X52234Y-128869D01*
X53159Y-128159D01*
X53869Y-127234D01*
X54315Y-126156D01*
X54467Y-125000D01*
X54315Y-123844D01*
X53869Y-122766D01*
X53563Y-122368D01*
X53562Y-122367D01*
X53565Y-122365D01*
X53565Y-122365D01*
X53701Y-122245D01*
X53701Y-122245D01*
X53702Y-122245D01*
X54576Y-121988D01*
X55903Y-123316D01*
X55685Y-123844D01*
X55533Y-125000D01*
X55685Y-126156D01*
X56131Y-127234D01*
X56841Y-128159D01*
X57766Y-128869D01*
X58844Y-129315D01*
X60000Y-129467D01*
X61156Y-129315D01*
X62234Y-128869D01*
X63159Y-128159D01*
X63869Y-127234D01*
X64315Y-126156D01*
X64467Y-125000D01*
X64315Y-123844D01*
X63869Y-122766D01*
X63563Y-122368D01*
X63562Y-122367D01*
X63565Y-122365D01*
X63565Y-122365D01*
X63701Y-122245D01*
X63701Y-122245D01*
X63702Y-122245D01*
X64575Y-121988D01*
X65903Y-123316D01*
X65685Y-123844D01*
X65533Y-125000D01*
X65685Y-126156D01*
X66131Y-127234D01*
X66841Y-128159D01*
X67766Y-128869D01*
X68844Y-129315D01*
X70000Y-129467D01*
X71156Y-129315D01*
X72234Y-128869D01*
X73159Y-128159D01*
X73869Y-127234D01*
X74315Y-126156D01*
X74467Y-125000D01*
X74315Y-123844D01*
X73869Y-122766D01*
X73159Y-121841D01*
X72234Y-121131D01*
X71156Y-120685D01*
X70000Y-120533D01*
X68844Y-120685D01*
X68316Y-120903D01*
X67304Y-119892D01*
X67333Y-119721D01*
X68427Y-119142D01*
X68844Y-119315D01*
X70000Y-119467D01*
X71156Y-119315D01*
X72234Y-118869D01*
X73159Y-118159D01*
X73869Y-117234D01*
X74315Y-116156D01*
X74467Y-115000D01*
X74315Y-113844D01*
X73869Y-112766D01*
X73159Y-111841D01*
X72234Y-111131D01*
X71706Y-110913D01*
Y-98706D01*
X72801D01*
X73578Y-99225D01*
X74500Y-99409D01*
X74869Y-99335D01*
X75868Y-99852D01*
X75993Y-100027D01*
X76202Y-100533D01*
X76628Y-101088D01*
X77183Y-101514D01*
X77830Y-101782D01*
X78524Y-101873D01*
X81476D01*
X82170Y-101782D01*
X82817Y-101514D01*
X83372Y-101088D01*
X83798Y-100533D01*
X84065Y-99887D01*
X84157Y-99193D01*
Y-94272D01*
X84065Y-93578D01*
X83798Y-92931D01*
X83372Y-92376D01*
X82817Y-91950D01*
X82170Y-91683D01*
X81476Y-91591D01*
X78524D01*
X77830Y-91683D01*
X77183Y-91950D01*
X76628Y-92376D01*
X76202Y-92931D01*
X75935Y-93578D01*
X75887Y-93940D01*
X75843Y-94018D01*
X75238Y-94512D01*
X74859Y-94663D01*
X74500Y-94591D01*
X73578Y-94775D01*
X72801Y-95294D01*
X71706D01*
Y-83484D01*
X71576Y-82831D01*
X71206Y-82278D01*
X48150Y-59221D01*
Y-54941D01*
X46706Y-53497D01*
Y-52163D01*
X47535Y-51618D01*
X47690Y-51594D01*
X48252Y-51706D01*
X53497D01*
X54941Y-53150D01*
X60059D01*
X61503Y-51706D01*
X79293D01*
X98794Y-71206D01*
X99347Y-71576D01*
X100000Y-71706D01*
X110913D01*
X111131Y-72234D01*
X111841Y-73159D01*
X112766Y-73869D01*
X113844Y-74315D01*
X115000Y-74467D01*
X116156Y-74315D01*
X117234Y-73869D01*
X118159Y-73159D01*
X118869Y-72234D01*
X119315Y-71156D01*
X119449Y-70138D01*
X119843Y-69846D01*
X120409Y-69615D01*
X120568Y-69729D01*
X120533Y-70000D01*
X120685Y-71156D01*
X121131Y-72234D01*
X121841Y-73159D01*
X122766Y-73869D01*
X123844Y-74315D01*
X125000Y-74467D01*
X126156Y-74315D01*
X127234Y-73869D01*
X128159Y-73159D01*
X128869Y-72234D01*
X129315Y-71156D01*
X129467Y-70000D01*
X129315Y-68844D01*
X128869Y-67766D01*
X128159Y-66841D01*
X127234Y-66131D01*
X126156Y-65685D01*
X125000Y-65533D01*
X123844Y-65685D01*
X122766Y-66131D01*
X122609Y-66251D01*
X120152Y-63794D01*
X119598Y-63424D01*
X119249Y-63354D01*
X118854Y-62629D01*
X118810Y-62310D01*
X118869Y-62234D01*
X119315Y-61156D01*
X119467Y-60000D01*
X119315Y-58844D01*
X119142Y-58426D01*
X119721Y-57333D01*
X119892Y-57304D01*
X120903Y-58316D01*
X120685Y-58844D01*
X120533Y-60000D01*
X120685Y-61156D01*
X121131Y-62234D01*
X121841Y-63159D01*
X122766Y-63869D01*
X123844Y-64315D01*
X125000Y-64467D01*
X126156Y-64315D01*
X127234Y-63869D01*
X128159Y-63159D01*
X128869Y-62234D01*
X129315Y-61156D01*
X129467Y-60000D01*
X129315Y-58844D01*
X128869Y-57766D01*
X128159Y-56841D01*
X127234Y-56131D01*
X126156Y-55685D01*
X125000Y-55533D01*
X123844Y-55685D01*
X123316Y-55903D01*
X121985Y-54572D01*
X122246Y-53700D01*
Y-53700D01*
X122247Y-53700D01*
X122247Y-53700D01*
X122365Y-53565D01*
D01*
X122367Y-53562D01*
X122368Y-53563D01*
X122766Y-53869D01*
X123844Y-54315D01*
X125000Y-54467D01*
X126156Y-54315D01*
X127234Y-53869D01*
X128159Y-53159D01*
X128869Y-52234D01*
X129315Y-51156D01*
X129467Y-50000D01*
X129315Y-48844D01*
X128869Y-47766D01*
X128159Y-46841D01*
X127234Y-46131D01*
X126156Y-45685D01*
X125000Y-45533D01*
X123844Y-45685D01*
X123316Y-45903D01*
X121206Y-43794D01*
X120653Y-43424D01*
X120000Y-43294D01*
X119296D01*
X118810Y-42310D01*
X118869Y-42234D01*
X119315Y-41156D01*
X119467Y-40000D01*
X119315Y-38844D01*
X118869Y-37766D01*
X118159Y-36841D01*
X117234Y-36131D01*
X116156Y-35685D01*
X115000Y-35533D01*
X113844Y-35685D01*
X112766Y-36131D01*
X111841Y-36841D01*
X111131Y-37766D01*
X110685Y-38844D01*
X110533Y-40000D01*
X110685Y-41156D01*
X111131Y-42234D01*
X111189Y-42310D01*
X110704Y-43294D01*
X105707D01*
X86206Y-23794D01*
X85653Y-23424D01*
X85000Y-23294D01*
X61347D01*
X60983Y-22444D01*
X61581Y-21706D01*
X86793D01*
X96294Y-31206D01*
X96847Y-31576D01*
X97500Y-31706D01*
X110913D01*
X111131Y-32234D01*
X111841Y-33159D01*
X112766Y-33869D01*
X113844Y-34315D01*
X115000Y-34467D01*
X116156Y-34315D01*
X117234Y-33869D01*
X118159Y-33159D01*
X118869Y-32234D01*
X119315Y-31156D01*
X119467Y-30000D01*
X119315Y-28844D01*
X119142Y-28427D01*
X119721Y-27333D01*
X119892Y-27304D01*
X120903Y-28316D01*
X120685Y-28844D01*
X120533Y-30000D01*
X120685Y-31156D01*
X121131Y-32234D01*
X121841Y-33159D01*
X122766Y-33869D01*
X123844Y-34315D01*
X125000Y-34467D01*
X126156Y-34315D01*
X127234Y-33869D01*
X128159Y-33159D01*
X128869Y-32234D01*
X129315Y-31156D01*
X129467Y-30000D01*
X129315Y-28844D01*
X128869Y-27766D01*
X128159Y-26841D01*
X127234Y-26131D01*
X126156Y-25685D01*
X125000Y-25533D01*
X123844Y-25685D01*
X123316Y-25903D01*
X121985Y-24572D01*
X122246Y-23700D01*
Y-23700D01*
X122247Y-23700D01*
X122247Y-23700D01*
X122365Y-23565D01*
D01*
X122367Y-23562D01*
X122368Y-23563D01*
X122766Y-23869D01*
X123844Y-24315D01*
X125000Y-24467D01*
X126156Y-24315D01*
X127234Y-23869D01*
X128159Y-23159D01*
X128869Y-22234D01*
X129315Y-21156D01*
X129467Y-20000D01*
X129315Y-18844D01*
X128869Y-17766D01*
X128159Y-16841D01*
X127234Y-16131D01*
X126156Y-15685D01*
X125000Y-15533D01*
X123844Y-15685D01*
X123316Y-15903D01*
X121985Y-14572D01*
X122246Y-13700D01*
Y-13700D01*
X122247Y-13700D01*
X122247Y-13700D01*
X122365Y-13565D01*
D01*
X122367Y-13563D01*
X122368Y-13563D01*
X122766Y-13869D01*
X123844Y-14315D01*
X125000Y-14467D01*
X126156Y-14315D01*
X127234Y-13869D01*
X128159Y-13159D01*
X128869Y-12234D01*
X129315Y-11156D01*
X129467Y-10000D01*
X129315Y-8844D01*
X128869Y-7766D01*
X128159Y-6841D01*
X127234Y-6131D01*
X126156Y-5685D01*
X125000Y-5533D01*
X123844Y-5685D01*
X123316Y-5903D01*
X121206Y-3794D01*
X120653Y-3424D01*
X120000Y-3294D01*
X119296D01*
X118810Y-2310D01*
X118869Y-2234D01*
X119315Y-1156D01*
X119467Y0D01*
X119315Y1156D01*
X118869Y2234D01*
X118810Y2310D01*
X119296Y3294D01*
X120000D01*
X120653Y3424D01*
X121206Y3794D01*
X123316Y5903D01*
X123844Y5685D01*
X125000Y5533D01*
X126156Y5685D01*
X127234Y6131D01*
X128159Y6841D01*
X128869Y7766D01*
X129315Y8844D01*
X129467Y10000D01*
X129315Y11156D01*
X128869Y12234D01*
X128159Y13159D01*
X127234Y13869D01*
X126156Y14315D01*
X125000Y14467D01*
X123844Y14315D01*
X122766Y13869D01*
X122368Y13563D01*
X122367Y13563D01*
X122365Y13565D01*
D01*
X122247Y13700D01*
X122247Y13700D01*
X122246Y13700D01*
X121985Y14572D01*
X123316Y15903D01*
X123844Y15685D01*
X125000Y15533D01*
X126156Y15685D01*
X127234Y16131D01*
X128159Y16841D01*
X128869Y17766D01*
X129315Y18844D01*
X129467Y20000D01*
X129315Y21156D01*
X128869Y22234D01*
X128159Y23159D01*
X127234Y23869D01*
X126156Y24315D01*
X125000Y24467D01*
X123844Y24315D01*
X122766Y23869D01*
X122368Y23563D01*
X122367Y23562D01*
X122365Y23565D01*
X122365Y23565D01*
X122245Y23701D01*
X122245Y23701D01*
X122245Y23702D01*
X121988Y24576D01*
X123316Y25903D01*
X123844Y25685D01*
X125000Y25533D01*
X126156Y25685D01*
X127234Y26131D01*
X128159Y26841D01*
X128869Y27766D01*
X129315Y28844D01*
X129467Y30000D01*
X129315Y31156D01*
X128869Y32234D01*
X128159Y33159D01*
X127234Y33869D01*
X126156Y34315D01*
X125000Y34467D01*
X123844Y34315D01*
X122766Y33869D01*
X121841Y33159D01*
X121131Y32234D01*
X120685Y31156D01*
X120533Y30000D01*
X120685Y28844D01*
X120903Y28316D01*
X119892Y27304D01*
X119721Y27333D01*
X119142Y28427D01*
X119315Y28844D01*
X119467Y30000D01*
X119315Y31156D01*
X118869Y32234D01*
X118159Y33159D01*
X117234Y33869D01*
X116156Y34315D01*
X115000Y34467D01*
X113844Y34315D01*
X112766Y33869D01*
X111841Y33159D01*
X111131Y32234D01*
X110913Y31706D01*
X106724D01*
X105799Y31850D01*
Y33292D01*
X106500D01*
X107345Y33460D01*
X108061Y33939D01*
X111017Y36895D01*
X111841Y36841D01*
X112766Y36131D01*
X113844Y35685D01*
X115000Y35533D01*
X116156Y35685D01*
X117234Y36131D01*
X118159Y36841D01*
X118869Y37766D01*
X119315Y38844D01*
X119467Y40000D01*
X119315Y41156D01*
X118869Y42234D01*
X118810Y42310D01*
X119296Y43294D01*
X120000D01*
X120653Y43424D01*
X121206Y43794D01*
X123316Y45903D01*
X123844Y45685D01*
X125000Y45533D01*
X126156Y45685D01*
X127234Y46131D01*
X128159Y46841D01*
X128869Y47766D01*
X129315Y48844D01*
X129467Y50000D01*
X129315Y51156D01*
X128869Y52234D01*
X128159Y53159D01*
X127234Y53869D01*
X126156Y54315D01*
X125000Y54467D01*
X123844Y54315D01*
X122766Y53869D01*
X122368Y53563D01*
X122367Y53562D01*
X122365Y53565D01*
D01*
X122247Y53700D01*
X122247Y53700D01*
X122246Y53700D01*
X121985Y54572D01*
X123316Y55903D01*
X123844Y55685D01*
X125000Y55533D01*
X126156Y55685D01*
X127234Y56131D01*
X128159Y56841D01*
X128869Y57766D01*
X129315Y58844D01*
X129467Y60000D01*
X129315Y61156D01*
X128869Y62234D01*
X128159Y63159D01*
X127234Y63869D01*
X126156Y64315D01*
X125000Y64467D01*
X123844Y64315D01*
X122766Y63869D01*
X122368Y63563D01*
X122367Y63563D01*
X122365Y63565D01*
D01*
X122247Y63700D01*
X122247Y63700D01*
X122246Y63700D01*
X121985Y64572D01*
X123316Y65903D01*
X123844Y65685D01*
X125000Y65533D01*
X126156Y65685D01*
X127234Y66131D01*
X128159Y66841D01*
X128869Y67766D01*
X129315Y68844D01*
X129467Y70000D01*
X129315Y71156D01*
X128869Y72234D01*
X128159Y73159D01*
X127234Y73869D01*
X126156Y74315D01*
X125000Y74467D01*
X123844Y74315D01*
X122766Y73869D01*
X121841Y73159D01*
X121131Y72234D01*
X120685Y71156D01*
X120533Y70000D01*
X120685Y68844D01*
X120903Y68316D01*
X119892Y67304D01*
X119721Y67333D01*
X119142Y68427D01*
X119315Y68844D01*
X119467Y70000D01*
X119315Y71156D01*
X118869Y72234D01*
X118159Y73159D01*
X117234Y73869D01*
X116156Y74315D01*
X115000Y74467D01*
X113844Y74315D01*
X112766Y73869D01*
X111841Y73159D01*
X111131Y72234D01*
X110913Y71706D01*
X107500D01*
X106847Y71576D01*
X106294Y71206D01*
X105924Y70653D01*
X105794Y70000D01*
X105924Y69347D01*
X106294Y68794D01*
X106847Y68424D01*
X107500Y68294D01*
X110499D01*
X110878Y67618D01*
X110381Y66706D01*
X107500D01*
X106847Y66576D01*
X106294Y66206D01*
X105924Y65653D01*
X105794Y65000D01*
X105924Y64347D01*
X106294Y63794D01*
X106847Y63424D01*
X107500Y63294D01*
X110381D01*
X110878Y62382D01*
X110499Y61706D01*
X107500D01*
X106847Y61576D01*
X106294Y61206D01*
X105924Y60653D01*
X105794Y60000D01*
X105924Y59347D01*
X106294Y58794D01*
X106847Y58424D01*
X107500Y58294D01*
X110499D01*
X110878Y57618D01*
X110381Y56706D01*
X67500D01*
X66847Y56576D01*
X66294Y56206D01*
X62284Y52196D01*
X61012D01*
X60059Y53150D01*
X54941D01*
X53497Y51706D01*
X48494D01*
X47842Y51576D01*
X47690Y51475D01*
X46706Y51972D01*
Y53497D01*
X48150Y54941D01*
Y60059D01*
X46706Y61503D01*
Y87793D01*
X51061Y92149D01*
X51431Y92702D01*
X51526Y93179D01*
X51703Y93297D01*
X52225Y94078D01*
X52408Y95000D01*
X52225Y95922D01*
X52069Y96156D01*
X67357Y111445D01*
X67766Y111131D01*
X68844Y110685D01*
X70000Y110533D01*
X71156Y110685D01*
X72234Y111131D01*
X73159Y111841D01*
X73869Y112766D01*
X74315Y113844D01*
X74467Y115000D01*
X74315Y116156D01*
X73869Y117234D01*
X73159Y118159D01*
X72234Y118869D01*
X71156Y119315D01*
X70000Y119467D01*
X68844Y119315D01*
X67766Y118869D01*
X66841Y118159D01*
X66131Y117234D01*
X65685Y116156D01*
X65569Y115275D01*
X65437Y115174D01*
X64405Y115602D01*
X64384Y115636D01*
X64315Y116156D01*
X63869Y117234D01*
X63159Y118159D01*
X62234Y118869D01*
X61156Y119315D01*
X60000Y119467D01*
X58844Y119315D01*
X57766Y118869D01*
X56841Y118159D01*
X56131Y117234D01*
X55685Y116156D01*
X55533Y115000D01*
X55685Y113844D01*
X56131Y112766D01*
X56841Y111841D01*
X56864Y111823D01*
X56929Y110841D01*
X43938Y97851D01*
X43569Y97298D01*
X43474Y96821D01*
X43297Y96703D01*
X42775Y95922D01*
X42592Y95000D01*
X42775Y94078D01*
X43132Y93544D01*
X38794Y89206D01*
X38424Y88653D01*
X38294Y88000D01*
Y61513D01*
X37388Y61117D01*
X36750Y61625D01*
Y88837D01*
X40062Y92149D01*
X40431Y92702D01*
X40526Y93179D01*
X40703Y93297D01*
X41225Y94078D01*
X41409Y95000D01*
X41225Y95922D01*
X40706Y96699D01*
Y96793D01*
X51206Y107294D01*
X51576Y107847D01*
X51706Y108500D01*
Y110913D01*
X52234Y111131D01*
X53159Y111841D01*
X53869Y112766D01*
X54315Y113844D01*
X54467Y115000D01*
X54315Y116156D01*
X53869Y117234D01*
X53159Y118159D01*
X52234Y118869D01*
X51156Y119315D01*
X50000Y119467D01*
X48844Y119315D01*
X48426Y119142D01*
X47333Y119721D01*
X47304Y119892D01*
X48316Y120903D01*
X48844Y120685D01*
X50000Y120533D01*
X51156Y120685D01*
X52234Y121131D01*
X53159Y121841D01*
X53869Y122766D01*
X54315Y123844D01*
X54467Y125000D01*
X54315Y126156D01*
X53869Y127234D01*
X53159Y128159D01*
X52234Y128869D01*
X51156Y129315D01*
X50000Y129467D01*
D02*
G37*
G36*
X-70000D02*
X-71156Y129315D01*
X-72234Y128869D01*
X-73159Y128159D01*
X-73869Y127234D01*
X-74315Y126156D01*
X-74467Y125000D01*
X-74315Y123844D01*
X-73869Y122766D01*
X-73159Y121841D01*
X-72234Y121131D01*
X-71156Y120685D01*
X-70000Y120533D01*
X-68844Y120685D01*
X-67766Y121131D01*
X-66841Y121841D01*
X-66131Y122766D01*
X-65685Y123844D01*
X-65533Y125000D01*
X-65685Y126156D01*
X-66131Y127234D01*
X-66841Y128159D01*
X-67766Y128869D01*
X-68844Y129315D01*
X-70000Y129467D01*
D02*
G37*
G36*
X118012Y122028D02*
X114370D01*
X110728D01*
Y122028D01*
X110531D01*
Y119206D01*
X104699D01*
X103922Y119725D01*
X103000Y119908D01*
X102078Y119725D01*
X101297Y119203D01*
X100775Y118422D01*
X100592Y117500D01*
X100775Y116578D01*
X101297Y115797D01*
X102078Y115275D01*
X103000Y115092D01*
X103624Y114348D01*
X103557Y113603D01*
X103329Y113451D01*
X95109Y105231D01*
X95078Y105225D01*
X94297Y104703D01*
X93775Y103922D01*
X93591Y103000D01*
X93775Y102078D01*
X94297Y101297D01*
X95078Y100775D01*
X96000Y100592D01*
X96922Y100775D01*
X97703Y101297D01*
X98225Y102078D01*
X98231Y102109D01*
X105804Y109682D01*
X106500D01*
X107345Y109850D01*
X108061Y110329D01*
X108293Y110676D01*
X109980D01*
X110601Y109958D01*
X110681Y109429D01*
X110681Y109427D01*
Y105888D01*
X110868Y104947D01*
X111401Y104149D01*
X112199Y103616D01*
X113140Y103429D01*
X115600D01*
X116541Y103616D01*
X117339Y104149D01*
X117872Y104947D01*
X118059Y105888D01*
Y109427D01*
X118059Y109429D01*
X118209Y110413D01*
X118209D01*
X118209Y110413D01*
Y112972D01*
Y115532D01*
Y118091D01*
Y122028D01*
X118012D01*
Y122028D01*
D02*
G37*
G36*
X-111679Y126929D02*
X-118608Y120000D01*
X-111679Y113071D01*
X-111214Y113617D01*
X-110324Y115070D01*
X-109671Y116644D01*
X-109274Y118301D01*
X-109140Y120000D01*
X-109274Y121699D01*
X-109671Y123356D01*
X-110324Y124930D01*
X-111214Y126383D01*
X-111679Y126929D01*
D02*
G37*
G36*
X-128321Y126929D02*
X-128786Y126383D01*
X-129676Y124930D01*
X-130329Y123356D01*
X-130727Y121699D01*
X-130860Y120000D01*
X-130727Y118301D01*
X-130329Y116644D01*
X-129676Y115070D01*
X-128786Y113617D01*
X-128321Y113071D01*
X-121392Y120000D01*
X-128321Y126929D01*
D02*
G37*
G36*
X-75571Y119429D02*
X-84429D01*
Y110571D01*
X-75571D01*
Y119429D01*
D02*
G37*
G36*
X80000Y119467D02*
X78844Y119315D01*
X77766Y118869D01*
X76841Y118159D01*
X76131Y117234D01*
X75685Y116156D01*
X75533Y115000D01*
X75685Y113844D01*
X76131Y112766D01*
X76841Y111841D01*
X77766Y111131D01*
X78844Y110685D01*
X80000Y110533D01*
X81156Y110685D01*
X82234Y111131D01*
X83159Y111841D01*
X83869Y112766D01*
X84315Y113844D01*
X84467Y115000D01*
X84315Y116156D01*
X83869Y117234D01*
X83159Y118159D01*
X82234Y118869D01*
X81156Y119315D01*
X80000Y119467D01*
D02*
G37*
G36*
X-120000Y118608D02*
X-126929Y111679D01*
X-126383Y111214D01*
X-124930Y110324D01*
X-123356Y109671D01*
X-121699Y109274D01*
X-120000Y109140D01*
X-118301Y109274D01*
X-116644Y109671D01*
X-115070Y110324D01*
X-113617Y111214D01*
X-113071Y111679D01*
X-120000Y118608D01*
D02*
G37*
G36*
X127067Y107679D02*
X123130D01*
X122462Y107592D01*
X121839Y107334D01*
X121305Y106924D01*
X120895Y106389D01*
X120637Y105766D01*
X120549Y105098D01*
Y102342D01*
X120637Y101674D01*
X120895Y101052D01*
X121305Y100517D01*
X121839Y100107D01*
X122462Y99849D01*
X123130Y99761D01*
X127067D01*
X127735Y99849D01*
X128358Y100107D01*
X128892Y100517D01*
X129302Y101052D01*
X129560Y101674D01*
X129648Y102342D01*
Y105098D01*
X129560Y105766D01*
X129302Y106389D01*
X128892Y106924D01*
X128358Y107334D01*
X127735Y107592D01*
X127067Y107679D01*
D02*
G37*
G36*
X92500Y97408D02*
X91578Y97225D01*
X90797Y96703D01*
X90566Y96357D01*
X89434D01*
X89203Y96703D01*
X88422Y97225D01*
X87500Y97408D01*
X86578Y97225D01*
X85797Y96703D01*
X85566Y96357D01*
X84434D01*
X84203Y96703D01*
X83422Y97225D01*
X82500Y97408D01*
X81578Y97225D01*
X80797Y96703D01*
X80566Y96357D01*
X79434D01*
X79203Y96703D01*
X78422Y97225D01*
X77500Y97408D01*
X76578Y97225D01*
X75797Y96703D01*
X75566Y96357D01*
X74434D01*
X74203Y96703D01*
X73422Y97225D01*
X72500Y97408D01*
X71578Y97225D01*
X70797Y96703D01*
X70566Y96357D01*
X69434D01*
X69203Y96703D01*
X68422Y97225D01*
X67500Y97408D01*
X66578Y97225D01*
X65797Y96703D01*
X65566Y96357D01*
X64434D01*
X64203Y96703D01*
X63422Y97225D01*
X62500Y97408D01*
X61578Y97225D01*
X60797Y96703D01*
X60566Y96357D01*
X59434D01*
X59203Y96703D01*
X58422Y97225D01*
X57500Y97408D01*
X56578Y97225D01*
X55797Y96703D01*
X55275Y95922D01*
X55092Y95000D01*
X55135Y94784D01*
X54368Y93799D01*
X54350D01*
Y88091D01*
X54350Y87894D01*
Y87106D01*
X54350Y86910D01*
Y81201D01*
X54359D01*
X54885Y80216D01*
X54835Y80142D01*
X54713Y79528D01*
Y77165D01*
X54835Y76551D01*
X55184Y76030D01*
X55532Y75797D01*
Y73966D01*
X55326Y73828D01*
X55021Y73372D01*
X54914Y72835D01*
Y72638D01*
X57500D01*
Y71653D01*
X58484D01*
Y69068D01*
X58681D01*
X59219Y69174D01*
X59675Y69479D01*
X60325Y69479D01*
X60781Y69174D01*
X61319Y69068D01*
X61516D01*
Y71653D01*
X63484D01*
Y69068D01*
X63681D01*
X64219Y69174D01*
X64675Y69479D01*
X65325Y69479D01*
X65781Y69174D01*
X66319Y69068D01*
X66516D01*
Y71653D01*
X68484D01*
Y69068D01*
X68681D01*
X69219Y69174D01*
X69675Y69479D01*
X70325Y69479D01*
X70781Y69174D01*
X71319Y69068D01*
X71516D01*
Y71653D01*
X73484D01*
Y69068D01*
X73681D01*
X74219Y69174D01*
X74675Y69479D01*
X75325Y69479D01*
X75781Y69174D01*
X76319Y69068D01*
X76516D01*
Y71653D01*
X78484D01*
Y69068D01*
X78681D01*
X79219Y69174D01*
X79675Y69479D01*
X80325Y69479D01*
X80781Y69174D01*
X81319Y69068D01*
X81516D01*
Y71653D01*
X83484D01*
Y69068D01*
X83681D01*
X84219Y69174D01*
X84675Y69479D01*
X85325Y69479D01*
X85781Y69174D01*
X86319Y69068D01*
X86516D01*
Y71653D01*
X88484D01*
Y69068D01*
X88681D01*
X89219Y69174D01*
X89675Y69479D01*
X90325Y69479D01*
X90781Y69174D01*
X91319Y69068D01*
X91516D01*
Y71653D01*
X92500D01*
Y72638D01*
X95086D01*
Y72835D01*
X94979Y73372D01*
X94674Y73828D01*
X94468Y73966D01*
Y75797D01*
X94816Y76030D01*
X95165Y76551D01*
X95287Y77165D01*
Y79528D01*
X95165Y80142D01*
X95115Y80216D01*
X95641Y81201D01*
X95650D01*
Y86910D01*
X95650Y87106D01*
Y87894D01*
X95650Y88091D01*
Y93799D01*
X95632D01*
X94865Y94784D01*
X94908Y95000D01*
X94725Y95922D01*
X94203Y96703D01*
X93422Y97225D01*
X92500Y97408D01*
D02*
G37*
G36*
X-80000Y104909D02*
X-80922Y104725D01*
X-81703Y104203D01*
X-82225Y103422D01*
X-82408Y102500D01*
X-82258Y101745D01*
X-82817Y101514D01*
X-83372Y101088D01*
X-83798Y100533D01*
X-84065Y99887D01*
X-84157Y99193D01*
Y94272D01*
X-84065Y93578D01*
X-83798Y92931D01*
X-83372Y92376D01*
X-82817Y91950D01*
X-82170Y91683D01*
X-81476Y91591D01*
X-78524D01*
X-77830Y91683D01*
X-77183Y91950D01*
X-76628Y92376D01*
X-76202Y92931D01*
X-75935Y93578D01*
X-75843Y94272D01*
Y99193D01*
X-75935Y99887D01*
X-76202Y100533D01*
X-76628Y101088D01*
X-77183Y101514D01*
X-77742Y101745D01*
X-77592Y102500D01*
X-77775Y103422D01*
X-78297Y104203D01*
X-79078Y104725D01*
X-80000Y104909D01*
D02*
G37*
G36*
X-125000Y84269D02*
X-126105Y84123D01*
X-127134Y83697D01*
X-127231Y83623D01*
X-125000Y81392D01*
X-122769Y83623D01*
X-122866Y83697D01*
X-123895Y84123D01*
X-125000Y84269D01*
D02*
G37*
G36*
X125000D02*
X123895Y84123D01*
X122866Y83697D01*
X122769Y83623D01*
X125000Y81392D01*
X127231Y83623D01*
X127134Y83697D01*
X126105Y84123D01*
X125000Y84269D01*
D02*
G37*
G36*
X-128623Y82231D02*
X-128697Y82134D01*
X-129123Y81105D01*
X-129269Y80000D01*
X-129123Y78895D01*
X-128697Y77866D01*
X-128623Y77769D01*
X-126392Y80000D01*
X-128623Y82231D01*
D02*
G37*
G36*
X-121377Y82231D02*
X-123608Y80000D01*
X-121377Y77769D01*
X-121303Y77866D01*
X-120877Y78895D01*
X-120731Y80000D01*
X-120877Y81105D01*
X-121303Y82134D01*
X-121377Y82231D01*
D02*
G37*
G36*
X128623Y82231D02*
X126392Y80000D01*
X128623Y77769D01*
X128697Y77866D01*
X129123Y78895D01*
X129269Y80000D01*
X129123Y81105D01*
X128697Y82134D01*
X128623Y82231D01*
D02*
G37*
G36*
X121377D02*
X121303Y82134D01*
X120877Y81105D01*
X120731Y80000D01*
X120877Y78895D01*
X121303Y77866D01*
X121377Y77769D01*
X123608Y80000D01*
X121377Y82231D01*
D02*
G37*
G36*
X125000Y78608D02*
X122769Y76377D01*
X122866Y76303D01*
X123895Y75877D01*
X125000Y75731D01*
X126105Y75877D01*
X127134Y76303D01*
X127231Y76377D01*
X125000Y78608D01*
D02*
G37*
G36*
X-125000D02*
X-127231Y76377D01*
X-127134Y76303D01*
X-126105Y75877D01*
X-125000Y75731D01*
X-123895Y75877D01*
X-122866Y76303D01*
X-122769Y76377D01*
X-125000Y78608D01*
D02*
G37*
G36*
X119429Y84429D02*
X110571D01*
Y75571D01*
X119429D01*
Y84429D01*
D02*
G37*
G36*
X95086Y70669D02*
X93484D01*
Y69068D01*
X93681D01*
X94219Y69174D01*
X94674Y69479D01*
X94979Y69935D01*
X95086Y70472D01*
Y70669D01*
D02*
G37*
G36*
X56516D02*
X54914D01*
Y70472D01*
X55021Y69935D01*
X55326Y69479D01*
X55781Y69174D01*
X56319Y69068D01*
X56516D01*
Y70669D01*
D02*
G37*
G36*
X98500Y62909D02*
X97578Y62725D01*
X96797Y62203D01*
X96465Y61706D01*
X59199D01*
X58422Y62225D01*
X57500Y62409D01*
X56578Y62225D01*
X55797Y61703D01*
X55275Y60922D01*
X55092Y60000D01*
X55275Y59078D01*
X55797Y58297D01*
X56578Y57775D01*
X57500Y57591D01*
X58422Y57775D01*
X59199Y58294D01*
X97550D01*
X97578Y58275D01*
X98500Y58091D01*
X99422Y58275D01*
X100203Y58797D01*
X100725Y59578D01*
X100909Y60500D01*
X100725Y61422D01*
X100203Y62203D01*
X99422Y62725D01*
X98500Y62909D01*
D02*
G37*
G36*
X-125000Y44269D02*
X-126105Y44123D01*
X-127134Y43697D01*
X-127231Y43623D01*
X-125000Y41392D01*
X-122769Y43623D01*
X-122866Y43697D01*
X-123895Y44123D01*
X-125000Y44269D01*
D02*
G37*
G36*
X125000D02*
X123895Y44123D01*
X122866Y43697D01*
X122769Y43623D01*
X125000Y41392D01*
X127231Y43623D01*
X127134Y43697D01*
X126105Y44123D01*
X125000Y44269D01*
D02*
G37*
G36*
X-128623Y42231D02*
X-128697Y42134D01*
X-129123Y41105D01*
X-129269Y40000D01*
X-129123Y38895D01*
X-128697Y37866D01*
X-128623Y37769D01*
X-126392Y40000D01*
X-128623Y42231D01*
D02*
G37*
G36*
X-121377Y42231D02*
X-123608Y40000D01*
X-121377Y37769D01*
X-121303Y37866D01*
X-120877Y38895D01*
X-120731Y40000D01*
X-120877Y41105D01*
X-121303Y42134D01*
X-121377Y42231D01*
D02*
G37*
G36*
X128623Y42231D02*
X126392Y40000D01*
X128623Y37769D01*
X128697Y37866D01*
X129123Y38895D01*
X129269Y40000D01*
X129123Y41105D01*
X128697Y42134D01*
X128623Y42231D01*
D02*
G37*
G36*
X121377D02*
X121303Y42134D01*
X120877Y41105D01*
X120731Y40000D01*
X120877Y38895D01*
X121303Y37866D01*
X121377Y37769D01*
X123608Y40000D01*
X121377Y42231D01*
D02*
G37*
G36*
X125000Y38608D02*
X122769Y36377D01*
X122866Y36303D01*
X123895Y35877D01*
X125000Y35731D01*
X126105Y35877D01*
X127134Y36303D01*
X127231Y36377D01*
X125000Y38608D01*
D02*
G37*
G36*
X-125000D02*
X-127231Y36377D01*
X-127134Y36303D01*
X-126105Y35877D01*
X-125000Y35731D01*
X-123895Y35877D01*
X-122866Y36303D01*
X-122769Y36377D01*
X-125000Y38608D01*
D02*
G37*
G36*
Y4269D02*
X-126105Y4123D01*
X-127134Y3697D01*
X-127231Y3623D01*
X-125000Y1392D01*
X-122769Y3623D01*
X-122866Y3697D01*
X-123895Y4123D01*
X-125000Y4269D01*
D02*
G37*
G36*
X125000D02*
X123895Y4123D01*
X122866Y3697D01*
X122769Y3623D01*
X125000Y1392D01*
X127231Y3623D01*
X127134Y3697D01*
X126105Y4123D01*
X125000Y4269D01*
D02*
G37*
G36*
X-128623Y2231D02*
X-128697Y2134D01*
X-129123Y1105D01*
X-129269Y0D01*
X-129123Y-1105D01*
X-128697Y-2134D01*
X-128623Y-2231D01*
X-126392Y0D01*
X-128623Y2231D01*
D02*
G37*
G36*
X-121377Y2231D02*
X-123608Y0D01*
X-121377Y-2231D01*
X-121303Y-2134D01*
X-120877Y-1105D01*
X-120731Y0D01*
X-120877Y1105D01*
X-121303Y2134D01*
X-121377Y2231D01*
D02*
G37*
G36*
X128623Y2231D02*
X126392Y0D01*
X128623Y-2231D01*
X128697Y-2134D01*
X129123Y-1105D01*
X129269Y0D01*
X129123Y1105D01*
X128697Y2134D01*
X128623Y2231D01*
D02*
G37*
G36*
X121377D02*
X121303Y2134D01*
X120877Y1105D01*
X120731Y0D01*
X120877Y-1105D01*
X121303Y-2134D01*
X121377Y-2231D01*
X123608Y0D01*
X121377Y2231D01*
D02*
G37*
G36*
X125000Y-1392D02*
X122769Y-3623D01*
X122866Y-3697D01*
X123895Y-4123D01*
X125000Y-4269D01*
X126105Y-4123D01*
X127134Y-3697D01*
X127231Y-3623D01*
X125000Y-1392D01*
D02*
G37*
G36*
X-125000D02*
X-127231Y-3623D01*
X-127134Y-3697D01*
X-126105Y-4123D01*
X-125000Y-4269D01*
X-123895Y-4123D01*
X-122866Y-3697D01*
X-122769Y-3623D01*
X-125000Y-1392D01*
D02*
G37*
G36*
X-92000Y1717D02*
X-93091Y1574D01*
X-94109Y1152D01*
X-94982Y482D01*
X-95652Y-391D01*
X-96074Y-1409D01*
X-96217Y-2500D01*
X-96074Y-3591D01*
X-95652Y-4609D01*
X-94982Y-5482D01*
X-94109Y-6152D01*
X-93091Y-6573D01*
X-92000Y-6717D01*
X-90908Y-6573D01*
X-89891Y-6152D01*
X-89018Y-5482D01*
X-88348Y-4609D01*
X-87927Y-3591D01*
X-87783Y-2500D01*
X-87927Y-1409D01*
X-88348Y-391D01*
X-89018Y482D01*
X-89891Y1152D01*
X-90908Y1574D01*
X-92000Y1717D01*
D02*
G37*
G36*
X-125000Y-35731D02*
X-126105Y-35877D01*
X-127134Y-36303D01*
X-127231Y-36377D01*
X-125000Y-38608D01*
X-122769Y-36377D01*
X-122866Y-36303D01*
X-123895Y-35877D01*
X-125000Y-35731D01*
D02*
G37*
G36*
X125000D02*
X123895Y-35877D01*
X122866Y-36303D01*
X122769Y-36377D01*
X125000Y-38608D01*
X127231Y-36377D01*
X127134Y-36303D01*
X126105Y-35877D01*
X125000Y-35731D01*
D02*
G37*
G36*
X-128623Y-37769D02*
X-128697Y-37866D01*
X-129123Y-38895D01*
X-129269Y-40000D01*
X-129123Y-41105D01*
X-128697Y-42134D01*
X-128623Y-42231D01*
X-126392Y-40000D01*
X-128623Y-37769D01*
D02*
G37*
G36*
X-121377Y-37769D02*
X-123608Y-40000D01*
X-121377Y-42231D01*
X-121303Y-42134D01*
X-120877Y-41105D01*
X-120731Y-40000D01*
X-120877Y-38895D01*
X-121303Y-37866D01*
X-121377Y-37769D01*
D02*
G37*
G36*
X128623Y-37769D02*
X126392Y-40000D01*
X128623Y-42231D01*
X128697Y-42134D01*
X129123Y-41105D01*
X129269Y-40000D01*
X129123Y-38895D01*
X128697Y-37866D01*
X128623Y-37769D01*
D02*
G37*
G36*
X121377D02*
X121303Y-37866D01*
X120877Y-38895D01*
X120731Y-40000D01*
X120877Y-41105D01*
X121303Y-42134D01*
X121377Y-42231D01*
X123608Y-40000D01*
X121377Y-37769D01*
D02*
G37*
G36*
X125000Y-41392D02*
X122769Y-43623D01*
X122866Y-43697D01*
X123895Y-44123D01*
X125000Y-44269D01*
X126105Y-44123D01*
X127134Y-43697D01*
X127231Y-43623D01*
X125000Y-41392D01*
D02*
G37*
G36*
X-125000D02*
X-127231Y-43623D01*
X-127134Y-43697D01*
X-126105Y-44123D01*
X-125000Y-44269D01*
X-123895Y-44123D01*
X-122866Y-43697D01*
X-122769Y-43623D01*
X-125000Y-41392D01*
D02*
G37*
G36*
X-115000Y-35533D02*
X-116156Y-35685D01*
X-117234Y-36131D01*
X-118159Y-36841D01*
X-118869Y-37766D01*
X-119315Y-38844D01*
X-119467Y-40000D01*
X-119315Y-41156D01*
X-118869Y-42234D01*
X-118810Y-42310D01*
X-119296Y-43294D01*
X-120000D01*
X-120653Y-43424D01*
X-121206Y-43794D01*
X-123316Y-45903D01*
X-123844Y-45685D01*
X-125000Y-45533D01*
X-126156Y-45685D01*
X-127234Y-46131D01*
X-128159Y-46841D01*
X-128869Y-47766D01*
X-129315Y-48844D01*
X-129467Y-50000D01*
X-129315Y-51156D01*
X-128869Y-52234D01*
X-128159Y-53159D01*
X-127234Y-53869D01*
X-126156Y-54315D01*
X-125000Y-54467D01*
X-123844Y-54315D01*
X-122766Y-53869D01*
X-122368Y-53563D01*
X-122367Y-53562D01*
X-122364Y-53565D01*
X-122364D01*
X-122248Y-53698D01*
X-122248D01*
X-122248Y-53699D01*
X-121982Y-54569D01*
X-123316Y-55903D01*
X-123844Y-55685D01*
X-125000Y-55533D01*
X-126156Y-55685D01*
X-127234Y-56131D01*
X-128159Y-56841D01*
X-128869Y-57766D01*
X-129315Y-58844D01*
X-129467Y-60000D01*
X-129315Y-61156D01*
X-128869Y-62234D01*
X-128159Y-63159D01*
X-127234Y-63869D01*
X-126156Y-64315D01*
X-125000Y-64467D01*
X-123844Y-64315D01*
X-122766Y-63869D01*
X-122368Y-63563D01*
X-122367Y-63563D01*
X-122364Y-63565D01*
X-122364D01*
X-122248Y-63698D01*
X-122248D01*
X-122248Y-63699D01*
X-121982Y-64569D01*
X-123316Y-65903D01*
X-123844Y-65685D01*
X-125000Y-65533D01*
X-126156Y-65685D01*
X-127234Y-66131D01*
X-128159Y-66841D01*
X-128869Y-67766D01*
X-129315Y-68844D01*
X-129467Y-70000D01*
X-129315Y-71156D01*
X-128869Y-72234D01*
X-128159Y-73159D01*
X-127234Y-73869D01*
X-126156Y-74315D01*
X-125000Y-74467D01*
X-123844Y-74315D01*
X-122766Y-73869D01*
X-121841Y-73159D01*
X-121131Y-72234D01*
X-120685Y-71156D01*
X-120533Y-70000D01*
X-120685Y-68844D01*
X-120903Y-68316D01*
X-119892Y-67304D01*
X-119721Y-67333D01*
X-119142Y-68427D01*
X-119315Y-68844D01*
X-119467Y-70000D01*
X-119315Y-71156D01*
X-118869Y-72234D01*
X-118159Y-73159D01*
X-117234Y-73869D01*
X-116156Y-74315D01*
X-115000Y-74467D01*
X-113844Y-74315D01*
X-112766Y-73869D01*
X-111841Y-73159D01*
X-111131Y-72234D01*
X-110913Y-71706D01*
X-107500D01*
X-106847Y-71576D01*
X-106294Y-71206D01*
X-105924Y-70653D01*
X-105794Y-70000D01*
X-105924Y-69347D01*
X-106294Y-68794D01*
X-106847Y-68424D01*
X-107500Y-68294D01*
X-110499D01*
X-110878Y-67618D01*
X-110381Y-66706D01*
X-107500D01*
X-106847Y-66576D01*
X-106294Y-66206D01*
X-105924Y-65653D01*
X-105794Y-65000D01*
X-105924Y-64347D01*
X-106294Y-63794D01*
X-106847Y-63424D01*
X-107500Y-63294D01*
X-110381D01*
X-110878Y-62382D01*
X-110499Y-61706D01*
X-107500D01*
X-106847Y-61576D01*
X-106294Y-61206D01*
X-105924Y-60653D01*
X-105794Y-60000D01*
X-105924Y-59347D01*
X-106294Y-58794D01*
X-106847Y-58424D01*
X-107500Y-58294D01*
X-110499D01*
X-110878Y-57618D01*
X-110381Y-56706D01*
X-107500D01*
X-106847Y-56576D01*
X-106294Y-56206D01*
X-105924Y-55653D01*
X-105794Y-55000D01*
X-105924Y-54347D01*
X-106294Y-53794D01*
X-106847Y-53424D01*
X-107500Y-53294D01*
X-110381D01*
X-110878Y-52382D01*
X-110499Y-51706D01*
X-107500D01*
X-106847Y-51576D01*
X-106294Y-51206D01*
X-105924Y-50653D01*
X-105794Y-50000D01*
X-105924Y-49347D01*
X-106294Y-48794D01*
X-106847Y-48424D01*
X-107500Y-48294D01*
X-110499D01*
X-110878Y-47618D01*
X-110381Y-46706D01*
X-107500D01*
X-106847Y-46576D01*
X-106294Y-46206D01*
X-105924Y-45653D01*
X-105794Y-45000D01*
X-105924Y-44347D01*
X-106294Y-43794D01*
X-106847Y-43424D01*
X-107500Y-43294D01*
X-110704D01*
X-111189Y-42310D01*
X-111131Y-42234D01*
X-110685Y-41156D01*
X-110533Y-40000D01*
X-110685Y-38844D01*
X-111131Y-37766D01*
X-111841Y-36841D01*
X-112766Y-36131D01*
X-113844Y-35685D01*
X-115000Y-35533D01*
D02*
G37*
G36*
X-80000Y-45783D02*
X-81091Y-45926D01*
X-82109Y-46348D01*
X-82982Y-47018D01*
X-83652Y-47891D01*
X-84074Y-48908D01*
X-84217Y-50000D01*
X-84074Y-51091D01*
X-83652Y-52109D01*
X-82982Y-52982D01*
X-82109Y-53652D01*
X-81091Y-54074D01*
X-80000Y-54217D01*
X-78908Y-54074D01*
X-77891Y-53652D01*
X-77018Y-52982D01*
X-76348Y-52109D01*
X-75927Y-51091D01*
X-75783Y-50000D01*
X-75927Y-48908D01*
X-76348Y-47891D01*
X-77018Y-47018D01*
X-77891Y-46348D01*
X-78908Y-45926D01*
X-80000Y-45783D01*
D02*
G37*
G36*
X-90000D02*
X-91092Y-45926D01*
X-92109Y-46348D01*
X-92982Y-47018D01*
X-93652Y-47891D01*
X-94073Y-48908D01*
X-94217Y-50000D01*
X-94073Y-51091D01*
X-93652Y-52109D01*
X-92982Y-52982D01*
X-92109Y-53652D01*
X-91092Y-54074D01*
X-90000Y-54217D01*
X-88908Y-54074D01*
X-87891Y-53652D01*
X-87018Y-52982D01*
X-86348Y-52109D01*
X-85927Y-51091D01*
X-85783Y-50000D01*
X-85927Y-48908D01*
X-86348Y-47891D01*
X-87018Y-47018D01*
X-87891Y-46348D01*
X-88908Y-45926D01*
X-90000Y-45783D01*
D02*
G37*
G36*
X-100000D02*
X-101092Y-45926D01*
X-102109Y-46348D01*
X-102982Y-47018D01*
X-103652Y-47891D01*
X-104074Y-48908D01*
X-104217Y-50000D01*
X-104074Y-51091D01*
X-103652Y-52109D01*
X-102982Y-52982D01*
X-102109Y-53652D01*
X-101092Y-54074D01*
X-100000Y-54217D01*
X-98909Y-54074D01*
X-97891Y-53652D01*
X-97018Y-52982D01*
X-96348Y-52109D01*
X-95926Y-51091D01*
X-95783Y-50000D01*
X-95926Y-48908D01*
X-96348Y-47891D01*
X-97018Y-47018D01*
X-97891Y-46348D01*
X-98909Y-45926D01*
X-100000Y-45783D01*
D02*
G37*
G36*
X-62500Y-61392D02*
X-63776Y-62668D01*
X-63271Y-62877D01*
X-62500Y-62978D01*
X-61729Y-62877D01*
X-61224Y-62668D01*
X-62500Y-61392D01*
D02*
G37*
G36*
X-80000Y-55783D02*
X-81091Y-55927D01*
X-82109Y-56348D01*
X-82982Y-57018D01*
X-83652Y-57891D01*
X-84074Y-58908D01*
X-84217Y-60000D01*
X-84074Y-61092D01*
X-83652Y-62109D01*
X-82982Y-62982D01*
X-82109Y-63652D01*
X-81091Y-64073D01*
X-80000Y-64217D01*
X-78908Y-64073D01*
X-77891Y-63652D01*
X-77018Y-62982D01*
X-76348Y-62109D01*
X-75927Y-61092D01*
X-75783Y-60000D01*
X-75927Y-58908D01*
X-76348Y-57891D01*
X-77018Y-57018D01*
X-77891Y-56348D01*
X-78908Y-55927D01*
X-80000Y-55783D01*
D02*
G37*
G36*
X-90000D02*
X-91092Y-55927D01*
X-92109Y-56348D01*
X-92982Y-57018D01*
X-93652Y-57891D01*
X-94073Y-58908D01*
X-94217Y-60000D01*
X-94073Y-61092D01*
X-93652Y-62109D01*
X-92982Y-62982D01*
X-92109Y-63652D01*
X-91092Y-64073D01*
X-90000Y-64217D01*
X-88908Y-64073D01*
X-87891Y-63652D01*
X-87018Y-62982D01*
X-86348Y-62109D01*
X-85927Y-61092D01*
X-85783Y-60000D01*
X-85927Y-58908D01*
X-86348Y-57891D01*
X-87018Y-57018D01*
X-87891Y-56348D01*
X-88908Y-55927D01*
X-90000Y-55783D01*
D02*
G37*
G36*
X-100000D02*
X-101092Y-55927D01*
X-102109Y-56348D01*
X-102982Y-57018D01*
X-103652Y-57891D01*
X-104074Y-58908D01*
X-104217Y-60000D01*
X-104074Y-61092D01*
X-103652Y-62109D01*
X-102982Y-62982D01*
X-102109Y-63652D01*
X-101092Y-64073D01*
X-100000Y-64217D01*
X-98909Y-64073D01*
X-97891Y-63652D01*
X-97018Y-62982D01*
X-96348Y-62109D01*
X-95926Y-61092D01*
X-95783Y-60000D01*
X-95926Y-58908D01*
X-96348Y-57891D01*
X-97018Y-57018D01*
X-97891Y-56348D01*
X-98909Y-55927D01*
X-100000Y-55783D01*
D02*
G37*
G36*
X81476Y-58127D02*
X78524D01*
X77830Y-58218D01*
X77183Y-58486D01*
X76628Y-58912D01*
X76202Y-59467D01*
X75935Y-60113D01*
X75843Y-60807D01*
Y-65728D01*
X75935Y-66422D01*
X76202Y-67069D01*
X76628Y-67624D01*
X77183Y-68050D01*
X77747Y-68283D01*
X77775Y-68422D01*
X78297Y-69203D01*
X79078Y-69725D01*
X80000Y-69908D01*
X80922Y-69725D01*
X81703Y-69203D01*
X82225Y-68422D01*
X82253Y-68283D01*
X82817Y-68050D01*
X83372Y-67624D01*
X83798Y-67069D01*
X84065Y-66422D01*
X84157Y-65728D01*
Y-60807D01*
X84065Y-60113D01*
X83798Y-59467D01*
X83372Y-58912D01*
X82817Y-58486D01*
X82170Y-58218D01*
X81476Y-58127D01*
D02*
G37*
G36*
X-125000Y-75731D02*
X-126105Y-75877D01*
X-127134Y-76303D01*
X-127231Y-76377D01*
X-125000Y-78608D01*
X-122769Y-76377D01*
X-122866Y-76303D01*
X-123895Y-75877D01*
X-125000Y-75731D01*
D02*
G37*
G36*
X125000D02*
X123895Y-75877D01*
X122866Y-76303D01*
X122769Y-76377D01*
X125000Y-78608D01*
X127231Y-76377D01*
X127134Y-76303D01*
X126105Y-75877D01*
X125000Y-75731D01*
D02*
G37*
G36*
X-128623Y-77769D02*
X-128697Y-77866D01*
X-129123Y-78895D01*
X-129269Y-80000D01*
X-129123Y-81105D01*
X-128697Y-82134D01*
X-128623Y-82231D01*
X-126392Y-80000D01*
X-128623Y-77769D01*
D02*
G37*
G36*
X-121377Y-77769D02*
X-123608Y-80000D01*
X-121377Y-82231D01*
X-121303Y-82134D01*
X-120877Y-81105D01*
X-120731Y-80000D01*
X-120877Y-78895D01*
X-121303Y-77866D01*
X-121377Y-77769D01*
D02*
G37*
G36*
X128623Y-77769D02*
X126392Y-80000D01*
X128623Y-82231D01*
X128697Y-82134D01*
X129123Y-81105D01*
X129269Y-80000D01*
X129123Y-78895D01*
X128697Y-77866D01*
X128623Y-77769D01*
D02*
G37*
G36*
X121377D02*
X121303Y-77866D01*
X120877Y-78895D01*
X120731Y-80000D01*
X120877Y-81105D01*
X121303Y-82134D01*
X121377Y-82231D01*
X123608Y-80000D01*
X121377Y-77769D01*
D02*
G37*
G36*
X125000Y-81392D02*
X122769Y-83623D01*
X122866Y-83697D01*
X123895Y-84123D01*
X125000Y-84269D01*
X126105Y-84123D01*
X127134Y-83697D01*
X127231Y-83623D01*
X125000Y-81392D01*
D02*
G37*
G36*
X-125000D02*
X-127231Y-83623D01*
X-127134Y-83697D01*
X-126105Y-84123D01*
X-125000Y-84269D01*
X-123895Y-84123D01*
X-122866Y-83697D01*
X-122769Y-83623D01*
X-125000Y-81392D01*
D02*
G37*
G36*
X-110571Y-75571D02*
X-119429D01*
Y-84429D01*
X-110571D01*
Y-75571D01*
D02*
G37*
G36*
X115000Y-75533D02*
X113844Y-75685D01*
X112766Y-76131D01*
X111841Y-76841D01*
X111131Y-77766D01*
X110685Y-78844D01*
X110533Y-80000D01*
X110685Y-81156D01*
X111131Y-82234D01*
X111841Y-83159D01*
X112766Y-83869D01*
X113844Y-84315D01*
X115000Y-84467D01*
X116156Y-84315D01*
X117234Y-83869D01*
X118159Y-83159D01*
X118869Y-82234D01*
X119315Y-81156D01*
X119467Y-80000D01*
X119315Y-78844D01*
X118869Y-77766D01*
X118159Y-76841D01*
X117234Y-76131D01*
X116156Y-75685D01*
X115000Y-75533D01*
D02*
G37*
G36*
X100000Y-87591D02*
X99078Y-87775D01*
X98297Y-88297D01*
X97775Y-89078D01*
X97592Y-90000D01*
X97775Y-90922D01*
X98297Y-91703D01*
X99078Y-92225D01*
X100000Y-92409D01*
X100922Y-92225D01*
X101703Y-91703D01*
X102225Y-90922D01*
X102409Y-90000D01*
X102225Y-89078D01*
X101703Y-88297D01*
X100922Y-87775D01*
X100000Y-87591D01*
D02*
G37*
G36*
X-80000Y-89876D02*
X-82020Y-91896D01*
X-81985Y-91923D01*
X-81028Y-92320D01*
X-80000Y-92455D01*
X-78972Y-92320D01*
X-78014Y-91923D01*
X-77980Y-91896D01*
X-80000Y-89876D01*
D02*
G37*
G36*
X120000Y-109140D02*
X118301Y-109274D01*
X116644Y-109671D01*
X115070Y-110324D01*
X113617Y-111214D01*
X113071Y-111679D01*
X120000Y-118608D01*
X126929Y-111679D01*
X126383Y-111214D01*
X124930Y-110324D01*
X123356Y-109671D01*
X121699Y-109274D01*
X120000Y-109140D01*
D02*
G37*
G36*
X-120000D02*
X-121699Y-109274D01*
X-123356Y-109671D01*
X-124930Y-110324D01*
X-126383Y-111214D01*
X-126929Y-111679D01*
X-120000Y-118608D01*
X-113071Y-111679D01*
X-113617Y-111214D01*
X-115070Y-110324D01*
X-116644Y-109671D01*
X-118301Y-109274D01*
X-120000Y-109140D01*
D02*
G37*
G36*
X84429Y-110571D02*
X75571D01*
Y-119429D01*
X84429D01*
Y-110571D01*
D02*
G37*
G36*
X-70000Y-110533D02*
X-71156Y-110685D01*
X-72234Y-111131D01*
X-73159Y-111841D01*
X-73869Y-112766D01*
X-74315Y-113844D01*
X-74467Y-115000D01*
X-74315Y-116156D01*
X-73869Y-117234D01*
X-73159Y-118159D01*
X-72234Y-118869D01*
X-71156Y-119315D01*
X-70000Y-119467D01*
X-68844Y-119315D01*
X-67766Y-118869D01*
X-66841Y-118159D01*
X-66131Y-117234D01*
X-65685Y-116156D01*
X-65533Y-115000D01*
X-65685Y-113844D01*
X-66131Y-112766D01*
X-66841Y-111841D01*
X-67766Y-111131D01*
X-68844Y-110685D01*
X-70000Y-110533D01*
D02*
G37*
G36*
X-80000D02*
X-81156Y-110685D01*
X-82234Y-111131D01*
X-83159Y-111841D01*
X-83869Y-112766D01*
X-84315Y-113844D01*
X-84467Y-115000D01*
X-84315Y-116156D01*
X-83869Y-117234D01*
X-83159Y-118159D01*
X-82234Y-118869D01*
X-81156Y-119315D01*
X-80000Y-119467D01*
X-78844Y-119315D01*
X-77766Y-118869D01*
X-76841Y-118159D01*
X-76131Y-117234D01*
X-75685Y-116156D01*
X-75533Y-115000D01*
X-75685Y-113844D01*
X-76131Y-112766D01*
X-76841Y-111841D01*
X-77766Y-111131D01*
X-78844Y-110685D01*
X-80000Y-110533D01*
D02*
G37*
G36*
X80000Y-120731D02*
X78895Y-120877D01*
X77866Y-121303D01*
X77769Y-121377D01*
X80000Y-123608D01*
X82231Y-121377D01*
X82134Y-121303D01*
X81105Y-120877D01*
X80000Y-120731D01*
D02*
G37*
G36*
X0D02*
X-1105Y-120877D01*
X-2134Y-121303D01*
X-2231Y-121377D01*
X0Y-123608D01*
X2231Y-121377D01*
X2134Y-121303D01*
X1105Y-120877D01*
X0Y-120731D01*
D02*
G37*
G36*
X-40000D02*
X-41105Y-120877D01*
X-42134Y-121303D01*
X-42231Y-121377D01*
X-40000Y-123608D01*
X-37769Y-121377D01*
X-37866Y-121303D01*
X-38895Y-120877D01*
X-40000Y-120731D01*
D02*
G37*
G36*
X-80000D02*
X-81105Y-120877D01*
X-82134Y-121303D01*
X-82231Y-121377D01*
X-80000Y-123608D01*
X-77769Y-121377D01*
X-77866Y-121303D01*
X-78895Y-120877D01*
X-80000Y-120731D01*
D02*
G37*
G36*
X40000D02*
X38895Y-120877D01*
X37866Y-121303D01*
X37769Y-121377D01*
X40000Y-123608D01*
X42231Y-121377D01*
X42134Y-121303D01*
X41105Y-120877D01*
X40000Y-120731D01*
D02*
G37*
G36*
X128321Y-113071D02*
X121392Y-120000D01*
X128321Y-126929D01*
X128786Y-126383D01*
X129676Y-124930D01*
X130329Y-123356D01*
X130727Y-121699D01*
X130860Y-120000D01*
X130727Y-118301D01*
X130329Y-116644D01*
X129676Y-115070D01*
X128786Y-113617D01*
X128321Y-113071D01*
D02*
G37*
G36*
X-111679D02*
X-118608Y-120000D01*
X-111679Y-126929D01*
X-111214Y-126383D01*
X-110324Y-124930D01*
X-109671Y-123356D01*
X-109274Y-121699D01*
X-109140Y-120000D01*
X-109274Y-118301D01*
X-109671Y-116644D01*
X-110324Y-115070D01*
X-111214Y-113617D01*
X-111679Y-113071D01*
D02*
G37*
G36*
X111679Y-113071D02*
X111214Y-113617D01*
X110324Y-115070D01*
X109671Y-116644D01*
X109274Y-118301D01*
X109140Y-120000D01*
X109274Y-121699D01*
X109671Y-123356D01*
X110324Y-124930D01*
X111214Y-126383D01*
X111679Y-126929D01*
X118608Y-120000D01*
X111679Y-113071D01*
D02*
G37*
G36*
X-128321D02*
X-128786Y-113617D01*
X-129676Y-115070D01*
X-130329Y-116644D01*
X-130727Y-118301D01*
X-130860Y-120000D01*
X-130727Y-121699D01*
X-130329Y-123356D01*
X-129676Y-124930D01*
X-128786Y-126383D01*
X-128321Y-126929D01*
X-121392Y-120000D01*
X-128321Y-113071D01*
D02*
G37*
G36*
X-3623Y-122769D02*
X-3697Y-122866D01*
X-4123Y-123895D01*
X-4269Y-125000D01*
X-4123Y-126105D01*
X-3697Y-127134D01*
X-3623Y-127231D01*
X-1392Y-125000D01*
X-3623Y-122769D01*
D02*
G37*
G36*
X-43623D02*
X-43697Y-122866D01*
X-44123Y-123895D01*
X-44269Y-125000D01*
X-44123Y-126105D01*
X-43697Y-127134D01*
X-43623Y-127231D01*
X-41392Y-125000D01*
X-43623Y-122769D01*
D02*
G37*
G36*
X-83623D02*
X-83697Y-122866D01*
X-84123Y-123895D01*
X-84269Y-125000D01*
X-84123Y-126105D01*
X-83697Y-127134D01*
X-83623Y-127231D01*
X-81392Y-125000D01*
X-83623Y-122769D01*
D02*
G37*
G36*
X76377D02*
X76303Y-122866D01*
X75877Y-123895D01*
X75731Y-125000D01*
X75877Y-126105D01*
X76303Y-127134D01*
X76377Y-127231D01*
X78608Y-125000D01*
X76377Y-122769D01*
D02*
G37*
G36*
X36377D02*
X36303Y-122866D01*
X35877Y-123895D01*
X35731Y-125000D01*
X35877Y-126105D01*
X36303Y-127134D01*
X36377Y-127231D01*
X38608Y-125000D01*
X36377Y-122769D01*
D02*
G37*
G36*
X3623D02*
X1392Y-125000D01*
X3623Y-127231D01*
X3697Y-127134D01*
X4123Y-126105D01*
X4269Y-125000D01*
X4123Y-123895D01*
X3697Y-122866D01*
X3623Y-122769D01*
D02*
G37*
G36*
X83623D02*
X81392Y-125000D01*
X83623Y-127231D01*
X83697Y-127134D01*
X84123Y-126105D01*
X84269Y-125000D01*
X84123Y-123895D01*
X83697Y-122866D01*
X83623Y-122769D01*
D02*
G37*
G36*
X43623D02*
X41392Y-125000D01*
X43623Y-127231D01*
X43697Y-127134D01*
X44123Y-126105D01*
X44269Y-125000D01*
X44123Y-123895D01*
X43697Y-122866D01*
X43623Y-122769D01*
D02*
G37*
G36*
X-36377D02*
X-38608Y-125000D01*
X-36377Y-127231D01*
X-36303Y-127134D01*
X-35877Y-126105D01*
X-35731Y-125000D01*
X-35877Y-123895D01*
X-36303Y-122866D01*
X-36377Y-122769D01*
D02*
G37*
G36*
X-76377D02*
X-78608Y-125000D01*
X-76377Y-127231D01*
X-76303Y-127134D01*
X-75877Y-126105D01*
X-75731Y-125000D01*
X-75877Y-123895D01*
X-76303Y-122866D01*
X-76377Y-122769D01*
D02*
G37*
G36*
X80000Y-126392D02*
X77769Y-128623D01*
X77866Y-128697D01*
X78895Y-129123D01*
X80000Y-129269D01*
X81105Y-129123D01*
X82134Y-128697D01*
X82231Y-128623D01*
X80000Y-126392D01*
D02*
G37*
G36*
X40000D02*
X37769Y-128623D01*
X37866Y-128697D01*
X38895Y-129123D01*
X40000Y-129269D01*
X41105Y-129123D01*
X42134Y-128697D01*
X42231Y-128623D01*
X40000Y-126392D01*
D02*
G37*
G36*
X0D02*
X-2231Y-128623D01*
X-2134Y-128697D01*
X-1105Y-129123D01*
X0Y-129269D01*
X1105Y-129123D01*
X2134Y-128697D01*
X2231Y-128623D01*
X0Y-126392D01*
D02*
G37*
G36*
X-40000D02*
X-42231Y-128623D01*
X-42134Y-128697D01*
X-41105Y-129123D01*
X-40000Y-129269D01*
X-38895Y-129123D01*
X-37866Y-128697D01*
X-37769Y-128623D01*
X-40000Y-126392D01*
D02*
G37*
G36*
X-80000D02*
X-82231Y-128623D01*
X-82134Y-128697D01*
X-81105Y-129123D01*
X-80000Y-129269D01*
X-78895Y-129123D01*
X-77866Y-128697D01*
X-77769Y-128623D01*
X-80000Y-126392D01*
D02*
G37*
G36*
X-70000Y-120533D02*
X-71156Y-120685D01*
X-72234Y-121131D01*
X-73159Y-121841D01*
X-73869Y-122766D01*
X-74315Y-123844D01*
X-74467Y-125000D01*
X-74315Y-126156D01*
X-73869Y-127234D01*
X-73159Y-128159D01*
X-72234Y-128869D01*
X-71156Y-129315D01*
X-70000Y-129467D01*
X-68844Y-129315D01*
X-67766Y-128869D01*
X-66841Y-128159D01*
X-66131Y-127234D01*
X-65685Y-126156D01*
X-65533Y-125000D01*
X-65685Y-123844D01*
X-66131Y-122766D01*
X-66841Y-121841D01*
X-67766Y-121131D01*
X-68844Y-120685D01*
X-70000Y-120533D01*
D02*
G37*
G36*
X120000Y-121392D02*
X113071Y-128321D01*
X113617Y-128786D01*
X115070Y-129676D01*
X116644Y-130329D01*
X118301Y-130727D01*
X120000Y-130860D01*
X121699Y-130727D01*
X123356Y-130329D01*
X124930Y-129676D01*
X126383Y-128786D01*
X126929Y-128321D01*
X120000Y-121392D01*
D02*
G37*
G36*
X-120000D02*
X-126929Y-128321D01*
X-126383Y-128786D01*
X-124930Y-129676D01*
X-123356Y-130329D01*
X-121699Y-130727D01*
X-120000Y-130860D01*
X-118301Y-130727D01*
X-116644Y-130329D01*
X-115070Y-129676D01*
X-113617Y-128786D01*
X-113071Y-128321D01*
X-120000Y-121392D01*
D02*
G37*
%LPD*%
G36*
X-97067Y59155D02*
X-97444Y58245D01*
X-109867D01*
X-110087Y58406D01*
X-110634Y59230D01*
X-110533Y60000D01*
X-110685Y61156D01*
X-111131Y62234D01*
X-111189Y62310D01*
X-110704Y63294D01*
X-101207D01*
X-97067Y59155D01*
D02*
G37*
G36*
X85106Y52533D02*
X85092Y52461D01*
X84472Y51706D01*
X72500D01*
X71847Y51576D01*
X71294Y51206D01*
X66793Y46706D01*
X61347D01*
X60983Y47556D01*
X61581Y48294D01*
X62500D01*
X63153Y48424D01*
X63706Y48794D01*
X68207Y53294D01*
X84482D01*
X85106Y52533D01*
D02*
G37*
G36*
X81774Y43226D02*
X82392Y42310D01*
X82367Y42181D01*
Y39819D01*
X82489Y39204D01*
X82837Y38684D01*
X83042Y38547D01*
X83062Y38489D01*
Y37511D01*
X83042Y37453D01*
X82837Y37317D01*
X82489Y36796D01*
X82367Y36181D01*
Y34626D01*
X81201Y33460D01*
X80831Y32906D01*
X80701Y32254D01*
Y31706D01*
X68114D01*
X63613Y36206D01*
X63060Y36576D01*
X62407Y36706D01*
X61347D01*
X60983Y37556D01*
X61581Y38294D01*
X67500D01*
X68153Y38424D01*
X68706Y38794D01*
X73207Y43294D01*
X81661D01*
X81774Y43226D01*
D02*
G37*
G36*
X-40295Y33629D02*
X-39742Y33259D01*
X-39089Y33130D01*
X-25428D01*
Y26378D01*
X-25390Y26186D01*
X-26186Y25390D01*
X-26378Y25428D01*
X-33465D01*
X-33924Y25337D01*
X-45761Y37173D01*
X-45661Y37937D01*
X-44764Y38098D01*
X-40295Y33629D01*
D02*
G37*
G36*
X34936Y36843D02*
Y25854D01*
X34410Y25328D01*
X33969D01*
X33465Y25428D01*
X26378D01*
X26186Y25390D01*
X25390Y26186D01*
X25428Y26378D01*
Y33465D01*
X25328Y33969D01*
Y34415D01*
X27936Y37022D01*
X34717D01*
X34936Y36843D01*
D02*
G37*
G36*
X18994Y24709D02*
X19685Y24572D01*
X20376Y24709D01*
X20669Y24905D01*
X20962Y24709D01*
X21654Y24572D01*
X22345Y24709D01*
X22638Y24905D01*
X22931Y24709D01*
X23622Y24572D01*
X23813Y24610D01*
X24610Y23813D01*
X24572Y23622D01*
X24709Y22931D01*
X24905Y22638D01*
X24709Y22345D01*
X24572Y21654D01*
X24709Y20962D01*
X24905Y20669D01*
X24709Y20376D01*
X24572Y19685D01*
X24709Y18994D01*
X24905Y18701D01*
X24709Y18408D01*
X24572Y17717D01*
X24709Y17025D01*
X24905Y16732D01*
X24709Y16439D01*
X24572Y15748D01*
X24709Y15057D01*
X24905Y14764D01*
X24709Y14471D01*
X24572Y13780D01*
X24709Y13088D01*
X24905Y12795D01*
X24709Y12502D01*
X24572Y11811D01*
X24709Y11120D01*
X24905Y10827D01*
X24709Y10534D01*
X24572Y9843D01*
X24709Y9151D01*
X24905Y8858D01*
X24709Y8565D01*
X24572Y7874D01*
X24709Y7183D01*
X24905Y6890D01*
X24709Y6597D01*
X24572Y5906D01*
X24709Y5214D01*
X25023Y4744D01*
X25023Y4744D01*
X25100Y4628D01*
X25687Y4236D01*
X26378Y4099D01*
X29921D01*
Y3775D01*
X26378D01*
X25687Y3638D01*
X25100Y3246D01*
X25023Y3130D01*
X25023Y3130D01*
X24709Y2660D01*
X24572Y1969D01*
X24356Y1706D01*
X21699D01*
X20922Y2225D01*
X20000Y2409D01*
X19078Y2225D01*
X18297Y1703D01*
X17775Y922D01*
X17592Y0D01*
X17775Y-922D01*
X18297Y-1703D01*
X19078Y-2225D01*
X20000Y-2409D01*
X20922Y-2225D01*
X21699Y-1706D01*
X24356D01*
X24572Y-1969D01*
X24709Y-2660D01*
X24905Y-2953D01*
X24709Y-3246D01*
X24572Y-3937D01*
X24709Y-4628D01*
X25023Y-5098D01*
X24894Y-5291D01*
X24772Y-5906D01*
X24557Y-6168D01*
X22874D01*
X22221Y-6298D01*
X21668Y-6668D01*
X20620Y-7715D01*
X20000Y-7592D01*
X19078Y-7775D01*
X18297Y-8297D01*
X17775Y-9078D01*
X17592Y-10000D01*
X17775Y-10922D01*
X18297Y-11703D01*
X19078Y-12225D01*
X20000Y-12409D01*
X20922Y-12225D01*
X21703Y-11703D01*
X22197Y-10963D01*
X23447Y-9714D01*
X24495Y-9749D01*
X24572Y-9843D01*
X24709Y-10534D01*
X24905Y-10827D01*
X24709Y-11120D01*
X24572Y-11811D01*
X24709Y-12502D01*
X24905Y-12795D01*
X24709Y-13088D01*
X24572Y-13780D01*
X24709Y-14471D01*
X24905Y-14764D01*
X24709Y-15057D01*
X24572Y-15748D01*
X24709Y-16439D01*
X24905Y-16732D01*
X24709Y-17025D01*
X24572Y-17717D01*
X24709Y-18408D01*
X24905Y-18701D01*
X24709Y-18994D01*
X24572Y-19685D01*
X24709Y-20376D01*
X24905Y-20669D01*
X24709Y-20962D01*
X24572Y-21654D01*
X24709Y-22345D01*
X24905Y-22638D01*
X24709Y-22931D01*
X24572Y-23622D01*
X24610Y-23813D01*
X23813Y-24610D01*
X23622Y-24572D01*
X22931Y-24709D01*
X22638Y-24905D01*
X22345Y-24709D01*
X21654Y-24572D01*
X20962Y-24709D01*
X20669Y-24905D01*
X20376Y-24709D01*
X19685Y-24572D01*
X18994Y-24709D01*
X18701Y-24905D01*
X18408Y-24709D01*
X17717Y-24572D01*
X17025Y-24709D01*
X16555Y-25023D01*
X16363Y-24894D01*
X15748Y-24772D01*
X15485Y-24557D01*
Y-23779D01*
X15356Y-23127D01*
X14986Y-22573D01*
X12408Y-19995D01*
X12225Y-19078D01*
X11703Y-18297D01*
X10922Y-17775D01*
X10000Y-17592D01*
X9078Y-17775D01*
X8297Y-18297D01*
X7775Y-19078D01*
X7592Y-20000D01*
X7775Y-20922D01*
X8297Y-21703D01*
X9078Y-22225D01*
X9995Y-22408D01*
X10885Y-23298D01*
X10691Y-24424D01*
X10335Y-24669D01*
X9843Y-24572D01*
X9151Y-24709D01*
X8858Y-24905D01*
X8565Y-24709D01*
X7874Y-24572D01*
X7183Y-24709D01*
X6890Y-24905D01*
X6597Y-24709D01*
X5906Y-24572D01*
X5214Y-24709D01*
X4921Y-24905D01*
X4628Y-24709D01*
X3937Y-24572D01*
X3246Y-24709D01*
X2953Y-24905D01*
X2660Y-24709D01*
X1969Y-24572D01*
X1277Y-24709D01*
X984Y-24905D01*
X691Y-24709D01*
X0Y-24572D01*
X-691Y-24709D01*
X-984Y-24905D01*
X-1277Y-24709D01*
X-1969Y-24572D01*
X-2660Y-24709D01*
X-2953Y-24905D01*
X-3246Y-24709D01*
X-3937Y-24572D01*
X-4628Y-24709D01*
X-4921Y-24905D01*
X-5214Y-24709D01*
X-5906Y-24572D01*
X-6597Y-24709D01*
X-6890Y-24905D01*
X-7183Y-24709D01*
X-7874Y-24572D01*
X-8565Y-24709D01*
X-8858Y-24905D01*
X-9151Y-24709D01*
X-9843Y-24572D01*
X-10534Y-24709D01*
X-11004Y-25023D01*
X-11197Y-24894D01*
X-11811Y-24772D01*
X-12073Y-24557D01*
Y-21593D01*
X-12203Y-20941D01*
X-12573Y-20387D01*
X-12653Y-20308D01*
X-12592Y-20000D01*
X-12775Y-19078D01*
X-13297Y-18297D01*
X-14078Y-17775D01*
X-15000Y-17592D01*
X-15922Y-17775D01*
X-16703Y-18297D01*
X-17225Y-19078D01*
X-17409Y-20000D01*
X-17225Y-20922D01*
X-16703Y-21703D01*
X-15922Y-22225D01*
X-15485Y-22312D01*
Y-24356D01*
X-15748Y-24572D01*
X-16439Y-24709D01*
X-16732Y-24905D01*
X-17025Y-24709D01*
X-17717Y-24572D01*
X-18408Y-24709D01*
X-18701Y-24905D01*
X-18994Y-24709D01*
X-19685Y-24572D01*
X-20376Y-24709D01*
X-20669Y-24905D01*
X-20962Y-24709D01*
X-21654Y-24572D01*
X-22345Y-24709D01*
X-22638Y-24905D01*
X-22931Y-24709D01*
X-23622Y-24572D01*
X-23813Y-24610D01*
X-24610Y-23813D01*
X-24572Y-23622D01*
X-24709Y-22931D01*
X-24905Y-22638D01*
X-24709Y-22345D01*
X-24572Y-21654D01*
X-24709Y-20962D01*
X-24905Y-20669D01*
X-24709Y-20376D01*
X-24572Y-19685D01*
X-24709Y-18994D01*
X-24905Y-18701D01*
X-24709Y-18408D01*
X-24572Y-17717D01*
X-24709Y-17025D01*
X-24905Y-16732D01*
X-24709Y-16439D01*
X-24572Y-15748D01*
X-24709Y-15057D01*
X-24905Y-14764D01*
X-24709Y-14471D01*
X-24572Y-13780D01*
X-24709Y-13088D01*
X-24905Y-12795D01*
X-24709Y-12502D01*
X-24572Y-11811D01*
X-24709Y-11120D01*
X-24905Y-10827D01*
X-24709Y-10534D01*
X-24572Y-9843D01*
X-24709Y-9151D01*
X-24905Y-8858D01*
X-24709Y-8565D01*
X-24572Y-7874D01*
X-24709Y-7183D01*
X-24905Y-6890D01*
X-24709Y-6597D01*
X-24572Y-5906D01*
X-24709Y-5214D01*
X-24905Y-4921D01*
X-24709Y-4628D01*
X-24572Y-3937D01*
X-24709Y-3246D01*
X-24905Y-2953D01*
X-24709Y-2660D01*
X-24572Y-1969D01*
X-24356Y-1706D01*
X-22707D01*
X-22408Y-2005D01*
X-22225Y-2922D01*
X-21703Y-3703D01*
X-20922Y-4225D01*
X-20000Y-4408D01*
X-19078Y-4225D01*
X-18297Y-3703D01*
X-17775Y-2922D01*
X-17592Y-2000D01*
X-17775Y-1078D01*
X-18297Y-297D01*
X-18101Y606D01*
X-17806Y1047D01*
X-17623Y1969D01*
X-17806Y2890D01*
X-18328Y3672D01*
X-19110Y4194D01*
X-20031Y4377D01*
X-20953Y4194D01*
X-21730Y3675D01*
X-24557D01*
X-24772Y3937D01*
X-24894Y4552D01*
X-25142Y4921D01*
X-24894Y5291D01*
X-24772Y5906D01*
X-24557Y6168D01*
X-22126D01*
X-21473Y6298D01*
X-20920Y6668D01*
X-19995Y7593D01*
X-19078Y7775D01*
X-18297Y8297D01*
X-17775Y9078D01*
X-17592Y10000D01*
X-17775Y10922D01*
X-18297Y11703D01*
X-19078Y12225D01*
X-20000Y12409D01*
X-20922Y12225D01*
X-21703Y11703D01*
X-22225Y10922D01*
X-22408Y10005D01*
X-22833Y9580D01*
X-24356D01*
X-24572Y9843D01*
X-24709Y10534D01*
X-24905Y10827D01*
X-24709Y11120D01*
X-24572Y11811D01*
X-24709Y12502D01*
X-24905Y12795D01*
X-24709Y13088D01*
X-24572Y13780D01*
X-24709Y14471D01*
X-24905Y14764D01*
X-24709Y15057D01*
X-24572Y15748D01*
X-24709Y16439D01*
X-24905Y16732D01*
X-24709Y17025D01*
X-24572Y17717D01*
X-24709Y18408D01*
X-24905Y18701D01*
X-24709Y18994D01*
X-24572Y19685D01*
X-24709Y20376D01*
X-24905Y20669D01*
X-24709Y20962D01*
X-24572Y21654D01*
X-24709Y22345D01*
X-24905Y22638D01*
X-24709Y22931D01*
X-24572Y23622D01*
X-24610Y23813D01*
X-23813Y24610D01*
X-23622Y24572D01*
X-22931Y24709D01*
X-22638Y24905D01*
X-22345Y24709D01*
X-21654Y24572D01*
X-20962Y24709D01*
X-20669Y24905D01*
X-20376Y24709D01*
X-19685Y24572D01*
X-18994Y24709D01*
X-18701Y24905D01*
X-18408Y24709D01*
X-17717Y24572D01*
X-17025Y24709D01*
X-16732Y24905D01*
X-16439Y24709D01*
X-15748Y24572D01*
X-15057Y24709D01*
X-14764Y24905D01*
X-14471Y24709D01*
X-13859Y24587D01*
X-13717Y24134D01*
X-13644Y23618D01*
X-14878Y22384D01*
X-15000Y22409D01*
X-15922Y22225D01*
X-16703Y21703D01*
X-17225Y20922D01*
X-17409Y20000D01*
X-17225Y19078D01*
X-16703Y18297D01*
X-15922Y17775D01*
X-15000Y17592D01*
X-14078Y17775D01*
X-13297Y18297D01*
X-12775Y19078D01*
X-12630Y19807D01*
X-10605Y21832D01*
X-10235Y22385D01*
X-10105Y23038D01*
Y24557D01*
X-9843Y24772D01*
X-9228Y24894D01*
X-9035Y25023D01*
X-8565Y24709D01*
X-7874Y24572D01*
X-7183Y24709D01*
X-6890Y24905D01*
X-6597Y24709D01*
X-5906Y24572D01*
X-5214Y24709D01*
X-4921Y24905D01*
X-4628Y24709D01*
X-3937Y24572D01*
X-3246Y24709D01*
X-2953Y24905D01*
X-2660Y24709D01*
X-1969Y24572D01*
X-1277Y24709D01*
X-984Y24905D01*
X-691Y24709D01*
X0Y24572D01*
X691Y24709D01*
X984Y24905D01*
X1277Y24709D01*
X1969Y24572D01*
X2660Y24709D01*
X2953Y24905D01*
X3246Y24709D01*
X3937Y24572D01*
X4628Y24709D01*
X4921Y24905D01*
X5214Y24709D01*
X5906Y24572D01*
X6597Y24709D01*
X6890Y24905D01*
X7183Y24709D01*
X7874Y24572D01*
X8565Y24709D01*
X8858Y24905D01*
X9151Y24709D01*
X9843Y24572D01*
X10534Y24709D01*
X10827Y24905D01*
X11120Y24709D01*
X11811Y24572D01*
X12502Y24709D01*
X12795Y24905D01*
X13088Y24709D01*
X13780Y24572D01*
X14042Y24356D01*
Y22201D01*
X13297Y21703D01*
X12775Y20922D01*
X12592Y20000D01*
X12775Y19078D01*
X13297Y18297D01*
X14078Y17775D01*
X15000Y17592D01*
X15922Y17775D01*
X16703Y18297D01*
X17225Y19078D01*
X17409Y20000D01*
X17317Y20458D01*
X17324Y20468D01*
X17454Y21121D01*
Y24557D01*
X17717Y24772D01*
X18331Y24894D01*
X18524Y25023D01*
X18994Y24709D01*
D02*
G37*
G36*
X-66206Y18794D02*
X-65653Y18424D01*
X-65000Y18294D01*
X-61347D01*
X-60983Y17444D01*
X-61581Y16706D01*
X-66793D01*
X-83794Y33706D01*
X-84347Y34076D01*
X-85000Y34206D01*
X-87773D01*
X-104773Y51206D01*
X-105327Y51576D01*
X-105980Y51706D01*
X-110159D01*
X-110409Y52078D01*
X-109885Y53062D01*
X-100474D01*
X-66206Y18794D01*
D02*
G37*
G36*
X-35271Y7874D02*
X-35133Y7183D01*
X-35000Y6983D01*
Y6259D01*
X-35070Y5906D01*
X-35000Y5553D01*
Y4290D01*
X-35070Y3937D01*
X-35000Y3584D01*
Y2860D01*
X-35133Y2660D01*
X-35271Y1969D01*
X-35133Y1277D01*
X-34938Y984D01*
X-35133Y691D01*
X-35271Y0D01*
X-35517Y-300D01*
X-41787D01*
X-43294Y1206D01*
X-43847Y1576D01*
X-44500Y1706D01*
X-45997D01*
X-46878Y2587D01*
X-46780Y3777D01*
X-46736Y3836D01*
X-42436Y8136D01*
X-35486D01*
X-35271Y7874D01*
D02*
G37*
G36*
X35022Y-25940D02*
Y-35608D01*
X34038Y-35950D01*
X33700Y-35724D01*
X33047Y-35594D01*
X25812D01*
X25328Y-35111D01*
Y-33969D01*
X25428Y-33465D01*
Y-26378D01*
X25390Y-26186D01*
X26186Y-25390D01*
X26378Y-25428D01*
X33465D01*
X33780Y-25366D01*
X34448D01*
X35022Y-25940D01*
D02*
G37*
D10*
X-94545Y56539D02*
X-63506Y25500D01*
X-125000Y50000D02*
X-120232Y54768D01*
X-99768D01*
X-115000Y60000D02*
X-111539Y56539D01*
X-99768Y54768D02*
X-65000Y20000D01*
X-111539Y56539D02*
X-94545D01*
X-63506Y25500D02*
X-63500D01*
X-115000Y50000D02*
X-105980D01*
X-88480Y32500D01*
X-85000D02*
X-67500Y15000D01*
X-57500D01*
X-88480Y32500D02*
X-85000D01*
X80000Y-67500D02*
Y-63268D01*
X-45000Y-57500D02*
Y-48500D01*
X-38724Y-42224D02*
X-27993D01*
X-45000Y-48500D02*
X-38724Y-42224D01*
X-50000Y-49016D02*
X-41437Y-40453D01*
X-50000Y-50000D02*
Y-49016D01*
X-41437Y-40453D02*
X-28727D01*
X-50000Y-67500D02*
Y-50000D01*
X-34284Y-43996D02*
X-27259D01*
X-40000Y-49712D02*
X-34284Y-43996D01*
X-14849Y20000D02*
X-11811Y23038D01*
Y29921D01*
X-15000Y20000D02*
X-14849D01*
X-11811Y-29921D02*
Y-22379D01*
X-9716Y-20284D01*
X-11068Y36926D02*
X-9843Y35700D01*
X-11068Y36926D02*
Y36966D01*
X-9843Y23816D02*
Y35700D01*
X-80000Y96732D02*
Y102500D01*
X106500Y114842D02*
X106658Y115000D01*
X103000Y117500D02*
X114370D01*
X106500Y112382D02*
X114370D01*
X-83116Y58884D02*
X-83000Y59000D01*
X-83116Y58884D02*
Y59142D01*
X-80000Y62258D01*
Y63268D01*
X-84250Y57750D02*
X-83116Y58884D01*
X74500Y-97000D02*
X79732D01*
X70000D02*
X74500D01*
X79732D02*
X80000Y-96732D01*
X70000Y-97000D02*
Y-83484D01*
Y-115000D02*
Y-97000D01*
X-101500Y75000D02*
X-84250Y57750D01*
X-66500Y40000D01*
X40185Y33783D02*
Y36185D01*
X38413Y34517D02*
Y37413D01*
Y24413D02*
Y34517D01*
X35653Y21654D02*
X38413Y24413D01*
X41957Y33049D02*
X43907Y35000D01*
X47000Y30000D02*
X62480D01*
X40185Y23680D02*
Y33783D01*
X36191Y19685D02*
X40185Y23680D01*
X29921Y19685D02*
X36191D01*
X82407Y30000D02*
Y32254D01*
X41957Y22946D02*
Y33049D01*
X29921Y17717D02*
X36727D01*
X82407Y30000D02*
X115000D01*
X64980Y27500D02*
X98000D01*
X82407Y32254D02*
X85154Y35000D01*
X62407D02*
X67407Y30000D01*
X36727Y17717D02*
X41957Y22946D01*
X43907Y35000D02*
X62407D01*
X67407Y30000D02*
X82407D01*
X62480D02*
X64980Y27500D01*
X29921Y21654D02*
X35653D01*
X46472Y24472D02*
X49472D01*
X50000Y25000D02*
X73730D01*
X29921Y15748D02*
X37742D01*
X49472Y24472D02*
X50000Y25000D01*
X29921Y13780D02*
X38280D01*
X45500Y23500D02*
X46472Y24472D01*
X43728Y21734D02*
Y26728D01*
X38280Y13780D02*
X45500Y21000D01*
X43728Y26728D02*
X47000Y30000D01*
X37742Y15748D02*
X43728Y21734D01*
X45500Y21000D02*
Y23500D01*
X30000Y50000D02*
Y90500D01*
X32500Y93000D01*
Y97000D01*
X35044Y57544D02*
Y89544D01*
X38855Y94855D02*
X39000Y95000D01*
X38855Y93355D02*
Y94855D01*
X35044Y89544D02*
X38855Y93355D01*
X39000Y95000D02*
Y97500D01*
X40000Y50000D02*
Y88000D01*
X45000Y93000D02*
Y95000D01*
X40000Y88000D02*
X45000Y93000D01*
Y57500D02*
Y88500D01*
X49855Y94855D02*
X50000Y95000D01*
X49855Y93355D02*
Y94855D01*
X45000Y88500D02*
X49855Y93355D01*
X68508Y115000D02*
X70000D01*
X66902Y113394D02*
X68508Y115000D01*
X66894Y113394D02*
X66902D01*
X50145Y96645D02*
X66894Y113394D01*
X50145Y95145D02*
Y96645D01*
X59394Y114394D02*
X60000Y115000D01*
X59394Y110894D02*
Y114394D01*
X45145Y95145D02*
Y96645D01*
X59394Y110894D01*
X50000Y108500D02*
Y115000D01*
X39000Y97500D02*
X50000Y108500D01*
X45000Y109500D02*
Y120000D01*
X32500Y97000D02*
X45000Y109500D01*
X30000Y102000D02*
Y115000D01*
X25000Y97000D02*
X30000Y102000D01*
X25000Y57500D02*
Y97000D01*
Y102000D02*
Y120000D01*
X20000Y50000D02*
Y97000D01*
X25000Y102000D01*
X15000Y97500D02*
X20000Y102500D01*
Y115000D01*
X15000Y57500D02*
Y97500D01*
X87338Y91009D02*
X87500Y91171D01*
X92500Y90847D02*
Y95000D01*
X10000D02*
Y97500D01*
Y50000D02*
Y95000D01*
X82500Y90847D02*
Y95000D01*
X87500Y91171D02*
Y95000D01*
X87338Y91009D02*
X87500Y90847D01*
X77500D02*
Y95000D01*
X72500Y90847D02*
Y95000D01*
X67500Y90847D02*
Y95000D01*
X62500Y90847D02*
Y95000D01*
X92500Y80000D02*
Y84153D01*
X87500Y78347D02*
Y84153D01*
Y77500D02*
Y78347D01*
X82500D02*
Y84153D01*
Y77500D02*
Y78347D01*
X77500Y77500D02*
Y78347D01*
Y84153D01*
X72500Y78347D02*
Y84153D01*
Y77500D02*
Y78347D01*
X67500Y80000D02*
Y84153D01*
X62500Y78347D02*
Y84153D01*
Y77500D02*
Y78347D01*
X57500Y84153D02*
Y85000D01*
Y78347D02*
Y84153D01*
Y90847D02*
Y95000D01*
X35000Y57500D02*
X35044Y57544D01*
X-120000Y25000D02*
X-101500D01*
X-98000D02*
X-91500D01*
X57500Y60000D02*
X98000D01*
X98500Y60500D01*
X-85500Y-16000D02*
X-66500D01*
X-98500Y-12500D02*
X-89000D01*
X-85500Y-16000D01*
X-100026Y-14974D02*
X-90526D01*
X-77949Y-27551D02*
X-68051D01*
X-90526Y-14974D02*
X-77949Y-27551D01*
X-106000Y-5000D02*
X-98500Y-12500D01*
X-120000Y-5000D02*
X-106000D01*
X-125000Y-10000D02*
X-120000Y-5000D01*
X-115000Y-10000D02*
X-105000D01*
X-100026Y-14974D01*
X-120000Y-15000D02*
X-108000D01*
X-93000Y-30000D02*
X-50000D01*
X-108000Y-15000D02*
X-93000Y-30000D01*
X-68051Y-27551D02*
X-65500Y-25000D01*
X-50000Y-30000D02*
X-49016D01*
X-83000Y-4000D02*
X-74500Y-12500D01*
X-88500Y10000D02*
X-83000Y4500D01*
Y-4000D02*
Y4500D01*
X-125000Y10000D02*
X-120000Y15000D01*
X-89500D02*
X-80500Y6000D01*
X-120000Y15000D02*
X-89500D01*
X-115000Y10000D02*
X-88500D01*
X-80500Y-2994D02*
Y6000D01*
Y-2994D02*
X-73494Y-10000D01*
X-115000Y20000D02*
X-91000D01*
X-77994Y-2994D02*
Y6994D01*
X-91000Y20000D02*
X-77994Y6994D01*
Y-2994D02*
X-74209Y-6780D01*
X-57500Y-25000D02*
X-48000D01*
X-65500D02*
X-57500D01*
X-62500Y-20000D02*
X-50000D01*
X-66500Y-16000D02*
X-62500Y-20000D01*
X87539Y52500D02*
X107500D01*
X87500Y52461D02*
X87539Y52500D01*
X100409Y22500D02*
X107500D01*
X98409Y24500D02*
X100409Y22500D01*
X-120000Y65000D02*
X-100500D01*
X-66059Y30559D02*
X-63441D01*
X-100500Y65000D02*
X-66059Y30559D01*
X-50000Y30000D02*
X-49222Y29222D01*
X-50000Y30000D02*
X-49894Y30106D01*
X-46722Y29222D02*
X-37185Y19685D01*
X-49222Y29222D02*
X-46722D01*
X-47606Y30106D02*
X-37185Y19685D01*
X-49894Y30106D02*
X-47606D01*
X-26000Y-26000D02*
X-24000Y-24000D01*
X-34500Y-32500D02*
Y-30000D01*
X-36289Y-28211D02*
X-34500Y-30000D01*
X-38061Y-32061D02*
Y-21566D01*
X-38500Y-32500D02*
X-38061Y-32061D01*
X-30500Y-32500D02*
Y-29500D01*
X-34517Y-25482D02*
X-30500Y-29500D01*
X24000Y-24000D02*
X26000Y-26000D01*
X24000Y24000D02*
X26000Y26000D01*
X-27500Y27500D02*
X-23000Y23000D01*
X106658Y115000D02*
X114311D01*
X-120000Y75000D02*
X-101500D01*
X-57500Y35000D02*
X-49000D01*
X-115000Y70000D02*
X-101347D01*
X-66347Y35000D02*
X-57500D01*
X-101347Y70000D02*
X-66347Y35000D01*
X-66500Y40000D02*
X-50000D01*
X-55000Y57500D02*
Y86598D01*
X-70000Y101598D02*
Y115000D01*
Y101598D02*
X-55000Y86598D01*
X-57500Y-5000D02*
X-46060D01*
X-73494Y-10000D02*
X-50000D01*
X-74209Y-6780D02*
X-63221D01*
X-61441Y-5000D02*
X-57500D01*
X-74500Y-12500D02*
X-65357D01*
X-62857Y-15000D02*
X-57500D01*
X-65357Y-12500D02*
X-62857Y-15000D01*
X-57500D02*
X-48197D01*
X-50000Y-20000D02*
X-49712D01*
X-50000Y-10000D02*
X-45703D01*
X-63221Y-6780D02*
X-61441Y-5000D01*
X-93504Y-35000D02*
X-57500D01*
X-115000Y-20000D02*
X-108504D01*
X-93504Y-35000D01*
X-45703Y-10000D02*
X-41608Y-5906D01*
X-50000Y0D02*
X-44500D01*
X-66500D02*
X-50000D01*
X-91500Y25000D02*
X-66500Y0D01*
X-93006Y30000D02*
X-68006Y5000D01*
X-47985D01*
X-115000Y30000D02*
X-93006D01*
X-67500Y-60000D02*
Y-55000D01*
X114311Y115000D02*
X114370Y114941D01*
X-95500Y35000D02*
X-70500Y10000D01*
X-120000Y35000D02*
X-95500D01*
X-70500Y10000D02*
X-50000D01*
X-43000Y-32500D02*
X-39832Y-29333D01*
X-49253Y-35000D02*
X-45768Y-31514D01*
Y-31288D01*
X-41604Y-27124D01*
Y-19121D01*
X-34517Y-25482D02*
Y-24297D01*
X-39832Y-29333D02*
Y-20832D01*
X-36289Y-28211D02*
Y-22789D01*
X-57500Y-35000D02*
X-49253D01*
X-51000Y-98000D02*
X-50000Y-97000D01*
Y-87500D01*
X-60000Y-102500D02*
X-54997Y-97497D01*
Y-57500D01*
Y-48497D01*
X-55000Y-107500D02*
X-45000Y-97500D01*
X-55000Y-120000D02*
Y-107500D01*
X-45000Y-97500D02*
Y-72500D01*
X100421Y19579D02*
X114579D01*
X97961Y22039D02*
X100421Y19579D01*
X114579D02*
X115000Y20000D01*
X93500Y24500D02*
X98409D01*
X120000Y25000D02*
X125000Y30000D01*
X98000Y27500D02*
X100500Y25000D01*
X125000Y30000D02*
X125000D01*
X100500Y25000D02*
X120000D01*
X73730D02*
X76691Y22039D01*
X97961D01*
X72500Y50000D02*
X115000D01*
X67500Y45000D02*
X72500Y50000D01*
X-55000Y47500D02*
X-52000Y44500D01*
X-48753D02*
X-45768Y41514D01*
X-52000Y44500D02*
X-48753D01*
X-39089Y34835D02*
X-24297D01*
X-45768Y41514D02*
Y41514D01*
Y41514D02*
X-39089Y34835D01*
X67500Y55000D02*
X120000D01*
X125000Y60000D01*
X62500Y50000D02*
X67500Y55000D01*
X84500Y45000D02*
X120000D01*
X72500D02*
X84500D01*
X84583Y42000D02*
X85000D01*
X84500Y42083D02*
X84583Y42000D01*
X84500Y42083D02*
Y45000D01*
X-69961Y-48732D02*
Y-44961D01*
X-65000Y-40000D01*
X38191Y3445D02*
X38563D01*
X37699Y3937D02*
X38191Y3445D01*
X29921Y1969D02*
X35531D01*
X37500Y0D01*
X57500D01*
X-49000Y35000D02*
X-35653Y21654D01*
X-29921D01*
X-47972Y36972D02*
X-34622Y23622D01*
X-29921D01*
X-47972Y36972D02*
Y38260D01*
X-49712Y40000D02*
X-47972Y38260D01*
X-43142Y9843D02*
X-29921D01*
X-47985Y5000D02*
X-43142Y9843D01*
X-39832Y-20832D02*
X-36716Y-17717D01*
X-29921D01*
X-36180Y-19685D02*
X-29921D01*
X-38061Y-21566D02*
X-36180Y-19685D01*
X-47972Y-17972D02*
X-39843Y-9843D01*
X-29921D01*
X-38232Y-15748D02*
X-29921D01*
X-47972Y-18260D02*
Y-17972D01*
X-38769Y-13780D02*
X-29921D01*
X-41604Y-19121D02*
X-38232Y-15748D01*
X-43391Y-18402D02*
X-38769Y-13780D01*
X-39305Y-11811D02*
X-29921D01*
X-45597Y-18103D02*
X-39305Y-11811D01*
X-45597Y-22598D02*
Y-18103D01*
X-43391Y-24376D02*
Y-18402D01*
X-48197Y-15000D02*
X-41071Y-7874D01*
X-41608Y-5906D02*
X-29921D01*
X-41071Y-7874D02*
X-29921D01*
X-49712Y-20000D02*
X-47972Y-18260D01*
X-44997Y-3937D02*
X-29921D01*
X-46060Y-5000D02*
X-44997Y-3937D01*
X-42494Y-2006D02*
X-29959D01*
X-44500Y0D02*
X-42494Y-2006D01*
X-43698Y13780D02*
X-29921D01*
X-44918Y15000D02*
X-43698Y13780D01*
X-40000Y15748D02*
X-29921D01*
X-44176Y19924D02*
X-40000Y15748D01*
X-44176Y19924D02*
Y20000D01*
X-41721Y20051D02*
Y20051D01*
X-39387Y17717D02*
X-29921D01*
X-41721Y20051D02*
X-39387Y17717D01*
X-57500Y25000D02*
X-46670D01*
X-41721Y20051D01*
X-50000Y20000D02*
X-44176D01*
X-65000D02*
X-50000D01*
X-125000Y70000D02*
X-120000Y75000D01*
X-125000Y60000D02*
X-120000Y65000D01*
X-125000Y30000D02*
X-120000Y35000D01*
X-125000Y20000D02*
X-120000Y25000D01*
X-125000Y-20000D02*
X-120000Y-15000D01*
Y-25000D02*
X-107500D01*
X-125000Y-30000D02*
X-120000Y-25000D01*
X-115000Y-30000D02*
X-107500D01*
X-115000Y-50000D02*
X-107500D01*
X-120000Y-45000D02*
X-107500D01*
X-125000Y-50000D02*
X-120000Y-45000D01*
Y-55000D02*
X-107500D01*
X-125000Y-60000D02*
X-120000Y-55000D01*
X-115000Y-60000D02*
X-107500D01*
X-120000Y-65000D02*
X-107500D01*
X-125000Y-70000D02*
X-120000Y-65000D01*
X-115000Y-70000D02*
X-107500D01*
X-30000Y-115000D02*
Y-72500D01*
X-35000Y-67500D02*
Y-57500D01*
Y-67500D02*
X-30000Y-72500D01*
Y-67500D02*
X-25000Y-72500D01*
X-30000Y-67500D02*
Y-49779D01*
X-25000Y-120000D02*
Y-72500D01*
X-32500Y-97505D02*
Y-73736D01*
X-40000Y-66236D02*
X-32500Y-73736D01*
X-40325Y-69341D02*
X-35000Y-74665D01*
Y-92500D02*
Y-74665D01*
X-40000Y-66236D02*
Y-49712D01*
X-25000Y-57500D02*
Y-49253D01*
X-20000Y-115000D02*
Y-72500D01*
X-25000Y-67500D02*
X-20000Y-72500D01*
X-25000Y-67500D02*
Y-57500D01*
X-15000Y-120000D02*
Y-72500D01*
X-20000Y-67500D02*
Y-50000D01*
Y-67500D02*
X-15000Y-72500D01*
X-50000Y-115000D02*
Y-107500D01*
X-35000Y-92500D01*
X-40443Y-69341D02*
X-40325D01*
X-35000Y-100005D02*
X-32500Y-97505D01*
X-45000Y-64784D02*
X-40443Y-69341D01*
X-35000Y-120000D02*
Y-100005D01*
X-60000Y-115000D02*
Y-102500D01*
X-15000Y-67500D02*
X-10000Y-72500D01*
Y-115000D02*
Y-72500D01*
X5000Y-120000D02*
Y-82500D01*
X-10000Y-67500D02*
X5000Y-82500D01*
X10000Y-115000D02*
Y-82500D01*
X-5000Y-67500D02*
X10000Y-82500D01*
X15000Y-120000D02*
Y-82500D01*
X25000Y-120000D02*
Y-80000D01*
X15000Y-62500D02*
X30000Y-77500D01*
Y-115000D02*
Y-77500D01*
X10000Y-65000D02*
X25000Y-80000D01*
X5000Y-67500D02*
Y-57500D01*
Y-67500D02*
X20000Y-82500D01*
Y-97862D02*
Y-82500D01*
X0Y-67500D02*
X15000Y-82500D01*
X-50000Y-67500D02*
X-45000Y-72500D01*
X-35000Y-57500D02*
Y-49253D01*
X-45000Y-64784D02*
Y-57500D01*
X-25000Y-120000D02*
X-20000Y-125000D01*
X-10000Y-67500D02*
Y-50000D01*
X-5000Y-67500D02*
Y-57500D01*
X10000Y-65000D02*
Y-50000D01*
X65000Y-120000D02*
X70000Y-125000D01*
Y-125000D02*
Y-125000D01*
X60000Y-125000D02*
Y-125000D01*
X55000Y-120000D02*
X60000Y-125000D01*
X45000Y-120000D02*
X50000Y-125000D01*
X25000Y-120000D02*
X30000Y-125000D01*
X-55000Y-120000D02*
X-50000Y-125000D01*
X-15000Y-120000D02*
X-10000Y-125000D01*
X45000Y-120000D02*
Y-87500D01*
X20000Y-62500D02*
X45000Y-87500D01*
X50000Y-115000D02*
Y-87500D01*
X25000Y-62500D02*
X50000Y-87500D01*
X55000Y-120000D02*
Y-87500D01*
X30000Y-62500D02*
X55000Y-87500D01*
X60000Y-115000D02*
Y-87500D01*
X35000Y-62500D02*
X60000Y-87500D01*
X65000Y-120000D02*
Y-87500D01*
X40000Y-62500D02*
X65000Y-87500D01*
X-35000Y-120000D02*
X-30000Y-125000D01*
X5000Y-120000D02*
X10000Y-125000D01*
X15000Y-120000D02*
X20000Y-125000D01*
Y-115000D02*
Y-97862D01*
X30000Y-125000D02*
X31055Y-123945D01*
X45000Y-58484D02*
Y-57500D01*
Y-58484D02*
X70000Y-83484D01*
X57500Y10000D02*
X92500D01*
X97500Y5000D02*
X120000D01*
X92500Y10000D02*
X97500Y5000D01*
X57500Y50000D02*
X62500D01*
X50000Y45000D02*
X67500D01*
X107500Y70000D02*
X115000D01*
X57500Y40000D02*
X67500D01*
X72500Y45000D01*
X47500Y20000D02*
X57500D01*
X100000Y15000D02*
X120000D01*
X57500Y20000D02*
X95000D01*
X100000Y15000D01*
X45500D02*
X92506D01*
X97505Y10000D02*
X115000D01*
X92506Y15000D02*
X97505Y10000D01*
X120000Y15000D02*
X125000Y20000D01*
X50000Y5000D02*
X90000D01*
X100000Y-5000D01*
X120000D01*
X90000Y0D02*
X100000Y-10000D01*
X57500Y0D02*
X90000D01*
X100000Y-10000D02*
X115000D01*
X97500Y-15000D02*
X120000D01*
X87500Y-5000D02*
X97500Y-15000D01*
X50000Y-5000D02*
X87500D01*
Y-10000D02*
X97500Y-20000D01*
X115000D01*
X57500Y-10000D02*
X87500D01*
X97500Y-25000D02*
X120000D01*
X87500Y-15000D02*
X97500Y-25000D01*
Y-30000D02*
X115000D01*
X87500Y-20000D02*
X97500Y-30000D01*
X85000Y-25000D02*
X105000Y-45000D01*
X120000D01*
X50000Y-25000D02*
X85000D01*
X102500Y-50000D02*
X115000D01*
X57500Y-30000D02*
X82500D01*
X102500Y-50000D01*
X83753Y-35000D02*
X103753Y-55000D01*
X120000D01*
X50000Y-35000D02*
X83753D01*
X45500D02*
X50000D01*
X80000Y-40000D02*
X100000Y-60000D01*
X57500Y-40000D02*
X80000D01*
Y-45000D02*
X100000Y-65000D01*
X118945D01*
X100000Y-70000D02*
X115000D01*
X57500Y-50000D02*
X80000D01*
X100000Y-70000D01*
X-45000Y107500D02*
Y120000D01*
X-35000Y60000D02*
Y97500D01*
X-45000Y107500D02*
X-35000Y97500D01*
X15000Y102500D02*
Y120000D01*
X10000Y97500D02*
X15000Y102500D01*
X45000Y49011D02*
Y57500D01*
Y120000D02*
X50000Y125000D01*
X25000Y120000D02*
X30000Y125000D01*
X15000Y120000D02*
X20000Y125000D01*
X5000Y97500D02*
X10000Y102500D01*
Y115000D01*
X5000Y57500D02*
Y97500D01*
X0Y50000D02*
Y100000D01*
X5000Y105000D02*
Y120000D01*
X0Y100000D02*
X5000Y105000D01*
Y120000D02*
X10000Y125000D01*
X-5000Y57500D02*
Y120000D01*
X-10000Y125000D02*
X-5000Y120000D01*
X-10000Y50000D02*
Y115000D01*
X-15000Y57500D02*
Y120000D01*
X-20000Y125000D02*
X-15000Y120000D01*
X-20000Y50000D02*
Y115000D01*
Y49712D02*
Y50000D01*
X-30000D02*
Y115000D01*
X-45000Y48000D02*
Y57500D01*
X-55000Y100000D02*
X-45000Y90000D01*
Y57500D02*
Y90000D01*
X-40000Y50000D02*
Y93125D01*
X-50000Y103125D02*
X-40000Y93125D01*
X-60000Y97500D02*
X-50000Y87500D01*
X-40000Y49000D02*
Y50000D01*
X-50000D02*
Y87500D01*
Y49016D02*
Y50000D01*
Y103125D02*
Y115000D01*
X-55000Y100000D02*
Y120000D01*
X-60000Y97500D02*
Y115000D01*
X-25000Y57500D02*
Y120000D01*
X-30000Y125000D02*
X-25000Y120000D01*
X-50000Y125000D02*
X-45000Y120000D01*
X-60000Y125000D02*
X-55000Y120000D01*
X-67500Y-55000D02*
X-62500Y-50000D01*
X-65000Y-40000D02*
X-62500D01*
X-39500Y7000D02*
X-38500D01*
X-37405Y5906D01*
X-29921D02*
X-20095D01*
X-20000Y6000D01*
X-29921Y0D02*
X-22000D01*
X-20000Y-2000D01*
X-29921Y1969D02*
X-20031D01*
X-39500Y1500D02*
X-38500D01*
X-36063Y3937D01*
X-37405Y5906D02*
X-29921D01*
X-44689Y11811D02*
X-29921D01*
X-37185Y19685D02*
X-29921D01*
X-50000Y10000D02*
X-49722Y10278D01*
X-46222D01*
X-44689Y11811D01*
X48494Y50000D02*
X57500D01*
X36642Y25147D02*
Y38147D01*
X48494Y50000D01*
X-27259Y-43996D02*
X-23716Y-40453D01*
X-22248Y-43996D02*
X-19090D01*
X-26555Y-48303D02*
X-22248Y-43996D01*
X-45000Y-38500D02*
X-29280D01*
X-26525Y-45768D02*
X-22982Y-42224D01*
X-25000Y-49253D02*
X-21514Y-45768D01*
X-25183Y-36909D02*
X-22268D01*
X-25917Y-35138D02*
X-24236D01*
X-29280Y-38500D02*
X-25917Y-35138D01*
X-21514Y-45768D02*
X-18356D01*
X-24450Y-38681D02*
X-21534D01*
X-22982Y-42224D02*
X-20066D01*
X-27993D02*
X-24450Y-38681D01*
X-28727Y-40453D02*
X-25183Y-36909D01*
X-23716Y-40453D02*
X-20800D01*
X-23660Y-34561D02*
Y-29959D01*
X-24236Y-35138D02*
X-23660Y-34561D01*
X-54997Y-48497D02*
X-45000Y-38500D01*
X-31514Y-45768D02*
X-26525D01*
X-35000Y-49253D02*
X-31514Y-45768D01*
X-29959Y-23660D02*
X-29921Y-23622D01*
X-34517Y-24297D02*
X-33880Y-23660D01*
X-36289Y-22789D02*
X-35191Y-21691D01*
X-29959D01*
X-33880Y-23660D02*
X-29959D01*
Y-21691D02*
X-29921Y-21654D01*
X-48000Y-25000D02*
X-45597Y-22598D01*
X-49016Y-30000D02*
X-43391Y-24376D01*
X20489Y-5116D02*
Y-4921D01*
Y-5116D02*
X21278Y-5906D01*
X-9843Y23816D02*
X-9352Y23326D01*
Y22953D02*
Y23326D01*
X17717Y22284D02*
X20000Y20000D01*
X-15000Y-67500D02*
Y-57500D01*
X0Y-50000D02*
Y-48730D01*
Y-67500D02*
Y-50000D01*
Y-48730D02*
X2239Y-46491D01*
X5000Y-57500D02*
X5020Y-57520D01*
Y-62500D02*
Y-57520D01*
X-11811Y-35891D02*
Y-29921D01*
X-13287Y-37740D02*
Y-37367D01*
X-11811Y-35891D01*
X-20066Y-42224D02*
X-15748Y-37906D01*
Y-29921D01*
X-17717Y-37369D02*
Y-29921D01*
X-20800Y-40453D02*
X-17717Y-37369D01*
X-21534Y-38681D02*
X-19587Y-36734D01*
Y-31000D01*
X-20000Y-49712D02*
X-17828Y-47539D01*
X-18356Y-45768D02*
X-14560Y-41972D01*
X-17015Y-47539D02*
X-13220Y-43744D01*
X-15294Y-40200D02*
X-12136D01*
X-17828Y-47539D02*
X-17015D01*
X-22268Y-36909D02*
X-21691Y-36333D01*
X-19090Y-43996D02*
X-15294Y-40200D01*
X-14560Y-41972D02*
X-11402D01*
X-21691Y-36333D02*
Y-29959D01*
X-20000Y-50000D02*
Y-49712D01*
X-23660Y-29959D02*
X-23622Y-29921D01*
X-21691Y-29959D02*
X-21654Y-29921D01*
X-28524Y-48303D02*
X-26555D01*
X-30000Y-49779D02*
X-28524Y-48303D01*
X-8756Y-45515D02*
X-3937Y-40696D01*
X-15000Y-48030D02*
X-12486Y-45515D01*
X-8756D01*
X-13220Y-43744D02*
X-9490D01*
X-6000Y-40253D01*
X-9880Y-29959D02*
X-9843Y-29921D01*
X-12136Y-40200D02*
X-9941Y-38006D01*
Y-33702D02*
X-9880Y-33641D01*
Y-29959D01*
X-9941Y-38006D02*
Y-33702D01*
X-11402Y-41972D02*
X-7874Y-38444D01*
X-15000Y-57500D02*
Y-48030D01*
X-3937Y-40696D02*
Y-31563D01*
X-7874Y-38444D02*
Y-29921D01*
X-10000Y-50000D02*
Y-49712D01*
X-7975Y-47969D02*
X-1969Y-41963D01*
X-10000Y-49712D02*
X-8257Y-47969D01*
X-7975D01*
X-5000Y-55000D02*
Y-47500D01*
X-1969Y-41963D02*
Y-32032D01*
X0Y-42500D02*
Y-29921D01*
X-5000Y-47500D02*
X0Y-42500D01*
X1969Y-39990D02*
X2239Y-40261D01*
X1969Y-39990D02*
Y-29921D01*
X2239Y-46491D02*
Y-40261D01*
X15000Y-62500D02*
Y-57500D01*
X20000Y-62500D02*
Y-50000D01*
X25000Y-62500D02*
Y-57500D01*
X30000Y-62500D02*
Y-50000D01*
X35000Y-62500D02*
Y-57500D01*
X40000Y-62500D02*
Y-50000D01*
X50000Y-45000D02*
X80000D01*
X57500Y-20000D02*
X87500D01*
X50000Y-15000D02*
X87500D01*
X120000Y65000D02*
X125000Y70000D01*
X107500Y65000D02*
X120000D01*
Y45000D02*
X125000Y50000D01*
X120000Y-5000D02*
X125000Y-10000D01*
X120000Y-15000D02*
X125000Y-20000D01*
X120000Y-45000D02*
X125000Y-50000D01*
X123945Y-70000D02*
X125000D01*
X118945Y-65000D02*
X123945Y-70000D01*
X100000Y-60000D02*
X115000D01*
X120000Y-55000D02*
X125000Y-60000D01*
X120000Y-25000D02*
X125000Y-30000D01*
X120000Y5000D02*
X125000Y10000D01*
X107500Y60000D02*
X115000D01*
X49022Y-25000D02*
X50000D01*
X41272Y-34772D02*
X46500Y-40000D01*
X36727Y-17717D02*
X43043Y-24032D01*
X35691Y-21691D02*
X39500Y-25500D01*
X37264Y-15748D02*
X44815Y-23299D01*
Y-28315D02*
Y-23299D01*
X39500Y-38300D02*
X46147Y-44948D01*
X39500Y-38300D02*
Y-25500D01*
X43043Y-32543D02*
Y-24032D01*
X36191Y-19685D02*
X41272Y-24766D01*
X44815Y-28315D02*
X46500Y-30000D01*
X41272Y-34772D02*
Y-24766D01*
X43043Y-32543D02*
X45500Y-35000D01*
X37802Y-13780D02*
X49022Y-25000D01*
X36728Y-38476D02*
Y-25234D01*
Y-38476D02*
X48252Y-50000D01*
X29921Y-23622D02*
X29959Y-23660D01*
X35154D01*
X36728Y-25234D01*
X46500Y-40000D02*
X57500D01*
X46500Y-30000D02*
X57500D01*
X45000Y-57500D02*
Y-49253D01*
X48252Y-50000D02*
X57500D01*
X33047Y-37300D02*
X45000Y-49253D01*
X25105Y-37300D02*
X33047D01*
X29959Y-21691D02*
X35691D01*
X20000Y-50000D02*
Y-48320D01*
X5020Y-57480D02*
Y-40536D01*
X15000Y-57500D02*
Y-45505D01*
X4000Y-39516D02*
X5020Y-40536D01*
X9843Y-37843D02*
Y-29921D01*
X18972Y-47292D02*
Y-46972D01*
Y-47292D02*
X20000Y-48320D01*
X7874Y-38379D02*
X15000Y-45505D01*
X4000Y-39516D02*
Y-33667D01*
X5906Y-38917D02*
X10000Y-43011D01*
X5906Y-38917D02*
Y-29921D01*
X7874Y-38379D02*
Y-29921D01*
X10000Y-50000D02*
Y-43011D01*
X9843Y-37843D02*
X18972Y-46972D01*
X15710Y-29959D02*
X15748Y-29921D01*
Y-21121D01*
X15256Y-35688D02*
Y-35315D01*
X15710Y-34861D02*
Y-29959D01*
X15256Y-35315D02*
X15710Y-34861D01*
X11811Y-35723D02*
Y-29921D01*
X25000Y-57500D02*
Y-48912D01*
X11811Y-35723D02*
X25000Y-48912D01*
X17717Y-37428D02*
Y-29921D01*
Y-37428D02*
X28116Y-47828D01*
X35000Y-57500D02*
Y-48411D01*
X24717Y-41923D02*
X28512D01*
X35000Y-48411D01*
X23622Y-35817D02*
Y-29921D01*
X19685Y-36891D02*
X24717Y-41923D01*
X21654Y-36354D02*
X24889Y-39589D01*
X31589D01*
X21654Y-36354D02*
Y-29921D01*
X19685Y-36891D02*
Y-29921D01*
X28116Y-47828D02*
X30000Y-49712D01*
X28116Y-47828D02*
X28116D01*
X23622Y-35817D02*
X25105Y-37300D01*
X30000Y-50000D02*
Y-49712D01*
X40000Y-50000D02*
Y-48320D01*
X38972Y-47292D02*
X40000Y-48320D01*
X38972Y-47292D02*
Y-46972D01*
X31589Y-39589D02*
X38972Y-46972D01*
X3937Y-29921D02*
X3975Y-29959D01*
Y-33641D02*
Y-29959D01*
Y-33641D02*
X4000Y-33667D01*
X-6000Y-40253D02*
Y-31500D01*
X-57500Y15000D02*
X-44918D01*
X-23720Y33702D02*
X-23660Y33641D01*
Y29959D02*
X-23622Y29921D01*
X-21290Y45543D02*
X-19972D01*
X-24756Y43772D02*
X-20706D01*
X-23720Y33702D02*
Y34259D01*
X-25000Y49253D02*
X-21290Y45543D01*
X-15748Y30091D02*
Y36308D01*
X-17717Y29921D02*
Y35771D01*
X-23563Y36607D02*
X-21691Y34735D01*
X-31228Y40228D02*
X-22173D01*
X-14657D02*
X-10851D01*
X-37591Y36607D02*
X-23563D01*
X-21440Y42000D02*
X-15748Y36308D01*
X-35379Y38379D02*
X-22829D01*
X-13780Y29921D02*
Y36845D01*
X-19972Y45543D02*
X-14657Y40228D01*
X-21691Y29959D02*
Y34735D01*
X-24297Y34835D02*
X-23720Y34259D01*
X-29000Y42000D02*
X-21440D01*
X-23660Y29959D02*
Y33641D01*
X-19723Y29959D02*
Y35272D01*
X-25000Y49253D02*
Y57500D01*
X-22173Y40228D02*
X-17717Y35771D01*
X-22829Y38379D02*
X-19723Y35272D01*
X-20706Y43772D02*
X-13780Y36845D01*
X-35000Y48000D02*
X-29000Y42000D01*
X-40000Y49000D02*
X-31228Y40228D01*
X-30000Y49016D02*
X-24756Y43772D01*
X-55000Y47500D02*
Y57500D01*
X-40000Y39016D02*
X-40000D01*
X-37591Y36607D01*
X-50000Y49016D02*
X-40000Y39016D01*
X-45000Y48000D02*
X-35379Y38379D01*
X-35000Y48000D02*
Y57500D01*
X-30000Y49016D02*
Y50000D01*
X-7874Y29921D02*
Y37251D01*
X-10851Y40228D02*
X-7874Y37251D01*
X-12288Y42000D02*
X-9413D01*
X-20000Y49712D02*
X-18116Y47828D01*
X-18116D01*
X-12288Y42000D01*
X-9049Y44141D02*
X-3937Y39029D01*
X-9888Y44141D02*
X-9049D01*
X-9413Y42000D02*
X-5906Y38492D01*
Y29921D02*
Y38492D01*
X-3937Y29921D02*
Y39029D01*
X-15000Y49253D02*
Y57500D01*
Y49253D02*
X-9888Y44141D01*
X-10000Y48492D02*
Y50000D01*
Y48492D02*
X-1969Y40461D01*
Y29921D02*
Y40461D01*
X-5000Y45998D02*
Y57500D01*
X0Y29921D02*
Y40998D01*
X-5000Y45998D02*
X0Y40998D01*
Y45968D02*
Y50000D01*
Y45968D02*
X1969Y44000D01*
X5000Y43770D02*
Y57500D01*
X3937Y42707D02*
X5000Y43770D01*
X5906Y29921D02*
Y40998D01*
X10000Y45092D02*
Y50000D01*
X5906Y40998D02*
X10000Y45092D01*
X18154Y48235D02*
X18524D01*
X11909Y33702D02*
Y39485D01*
X18524Y48235D02*
X20000Y49712D01*
X9843Y29921D02*
Y39924D01*
X18154Y48235D01*
X20000Y49712D02*
Y50000D01*
X15131Y42707D02*
X20201D01*
X15000Y47587D02*
Y57500D01*
X7874Y29921D02*
Y40461D01*
X15000Y47587D01*
X11909Y39485D02*
X15131Y42707D01*
X21654Y29921D02*
Y35658D01*
X26495Y40500D02*
X31500D01*
X26490Y43000D02*
X30500D01*
X23622Y35121D02*
X27229Y38728D01*
X19685Y29921D02*
Y36195D01*
X15500Y40500D02*
X21484D01*
X19685Y36195D02*
X26490Y43000D01*
X23622Y29921D02*
Y35121D01*
X21654Y35658D02*
X26495Y40500D01*
X27229Y38728D02*
X34717D01*
X21484Y40500D02*
X30000Y49016D01*
Y50000D01*
X20201Y42707D02*
X25000Y47506D01*
Y57500D01*
X13780Y38780D02*
X15500Y40500D01*
X11811Y29921D02*
X11849Y29959D01*
Y33641D01*
X11909Y33702D01*
X30500Y43000D02*
X35000Y47500D01*
Y57500D01*
X31500Y40500D02*
X36000Y45000D01*
X36000D02*
X40000Y49000D01*
Y50000D01*
X36000Y45000D02*
X36000D01*
X34717Y38728D02*
X45000Y49011D01*
X46147Y-44948D02*
X49948D01*
X50000Y-45000D01*
X46527Y-20000D02*
X57500D01*
X29921Y-19685D02*
X36191D01*
X29921Y-17717D02*
X36727D01*
X38339Y-11811D02*
X46527Y-20000D01*
X29921Y-13780D02*
X37802D01*
X29921Y-15748D02*
X37264D01*
X29921Y-11811D02*
X38339D01*
X39862Y-9843D02*
X45020Y-15000D01*
X29921Y-9843D02*
X39862D01*
X45020Y-15000D02*
X50000D01*
X29921Y-21654D02*
X29959Y-21691D01*
X29921Y-3937D02*
X40937D01*
X47000Y-10000D01*
X57500D01*
X42469Y-1969D02*
X45500Y-5000D01*
X29921Y-1969D02*
X42469D01*
X37405Y-5906D02*
X38500Y-7000D01*
X29921Y-5906D02*
X37405D01*
X21278D02*
X29921D01*
X45500Y-5000D02*
X50000D01*
X43595Y5906D02*
X44500Y5000D01*
X50000D01*
X29921Y3937D02*
X37699D01*
X29921Y5906D02*
X43595D01*
X29921Y7874D02*
X41374D01*
X43500Y10000D02*
X57500D01*
X41374Y7874D02*
X43500Y10000D01*
X29921Y9843D02*
X40343D01*
X45500Y15000D01*
X29921Y11811D02*
X39311D01*
X47500Y20000D01*
X38413Y37413D02*
X43500Y42500D01*
X35117Y23622D02*
X36642Y25147D01*
X40185Y36185D02*
X44000Y40000D01*
X57500D01*
X43500Y42500D02*
X43500D01*
X46000Y45000D02*
X50000D01*
X43500Y42500D02*
X46000Y45000D01*
X29921Y23622D02*
X35117D01*
X3937Y29921D02*
Y42707D01*
X1969Y29921D02*
Y44000D01*
X-21691Y29959D02*
X-21654Y29921D01*
X-19723Y29959D02*
X-19685Y29921D01*
X-29959Y-2006D02*
X-29921Y-1969D01*
X17679Y29959D02*
Y36821D01*
X13780Y29921D02*
Y38780D01*
X17679Y29959D02*
X17717Y29921D01*
Y22284D02*
Y29921D01*
X15000Y-20373D02*
X15748Y-21121D01*
X15000Y-20373D02*
Y-20000D01*
X-36063Y3937D02*
X-29921D01*
Y7874D02*
X-22126D01*
X-20000Y10000D01*
X-13780Y-29921D02*
Y-21593D01*
X-15000Y-20373D02*
X-13780Y-21593D01*
X-15000Y-20373D02*
Y-20000D01*
X13780Y-29921D02*
Y-23779D01*
X10000Y-20000D02*
X13780Y-23779D01*
X20000Y-10000D02*
X20748D01*
X22874Y-7874D01*
X29921D01*
X20000Y0D02*
X29921D01*
X15748Y21121D02*
Y29921D01*
D17*
X-80000Y-60000D02*
D03*
X-90000D02*
D03*
X-100000D02*
D03*
X-80000Y-50000D02*
D03*
X-90000D02*
D03*
X-100000D02*
D03*
X-92000Y-2500D02*
D03*
Y-21500D02*
D03*
X-72000Y-2500D02*
D03*
Y-21500D02*
D03*
D18*
X80000Y-96732D02*
D03*
Y-63268D02*
D03*
X-80000Y63268D02*
D03*
Y96732D02*
D03*
D19*
X-29921Y23622D02*
D03*
Y21654D02*
D03*
Y19685D02*
D03*
Y17717D02*
D03*
Y15748D02*
D03*
Y13780D02*
D03*
Y11811D02*
D03*
Y9843D02*
D03*
Y7874D02*
D03*
Y5906D02*
D03*
Y3937D02*
D03*
X-29921Y1969D02*
D03*
Y0D02*
D03*
Y-1969D02*
D03*
X-29921Y-3937D02*
D03*
Y-5906D02*
D03*
Y-7874D02*
D03*
Y-9843D02*
D03*
Y-11811D02*
D03*
Y-13780D02*
D03*
Y-15748D02*
D03*
Y-17717D02*
D03*
Y-19685D02*
D03*
Y-21654D02*
D03*
Y-23622D02*
D03*
X29921D02*
D03*
Y-21654D02*
D03*
Y-19685D02*
D03*
Y-17717D02*
D03*
Y-15748D02*
D03*
Y-13780D02*
D03*
Y-11811D02*
D03*
Y-9843D02*
D03*
Y-7874D02*
D03*
Y-5906D02*
D03*
Y-3937D02*
D03*
X29921Y-1969D02*
D03*
Y0D02*
D03*
Y1969D02*
D03*
X29921Y3937D02*
D03*
Y5906D02*
D03*
Y7874D02*
D03*
Y9843D02*
D03*
Y11811D02*
D03*
Y13780D02*
D03*
Y15748D02*
D03*
Y17717D02*
D03*
Y19685D02*
D03*
Y21654D02*
D03*
Y23622D02*
D03*
D20*
X-23622Y-29921D02*
D03*
X-21654D02*
D03*
X-19685D02*
D03*
X-17717D02*
D03*
X-15748D02*
D03*
X-13780D02*
D03*
X-11811D02*
D03*
X-9843D02*
D03*
X-7874D02*
D03*
X-5906D02*
D03*
X-3937D02*
D03*
X-1969Y-29921D02*
D03*
X0D02*
D03*
X1969D02*
D03*
X3937Y-29921D02*
D03*
X5906D02*
D03*
X7874D02*
D03*
X9843D02*
D03*
X11811D02*
D03*
X13780D02*
D03*
X15748D02*
D03*
X17717D02*
D03*
X19685D02*
D03*
X21654D02*
D03*
X23622D02*
D03*
Y29921D02*
D03*
X21654D02*
D03*
X19685D02*
D03*
X17717D02*
D03*
X15748D02*
D03*
X13780D02*
D03*
X11811D02*
D03*
X9843D02*
D03*
X7874D02*
D03*
X5906D02*
D03*
X3937D02*
D03*
X1969Y29921D02*
D03*
X0D02*
D03*
X-1969D02*
D03*
X-3937Y29921D02*
D03*
X-5906D02*
D03*
X-7874D02*
D03*
X-9843D02*
D03*
X-11811D02*
D03*
X-13780D02*
D03*
X-15748D02*
D03*
X-17717D02*
D03*
X-19685D02*
D03*
X-21654D02*
D03*
X-23622D02*
D03*
D21*
X114370Y112382D02*
D03*
Y114941D02*
D03*
Y122618D02*
D03*
Y120059D02*
D03*
Y117500D02*
D03*
D22*
X96153Y35000D02*
D03*
X102847D02*
D03*
X96000Y41000D02*
D03*
X102693D02*
D03*
D23*
X85154Y35000D02*
D03*
X91847D02*
D03*
X85154Y41000D02*
D03*
X91847D02*
D03*
D24*
X87500Y71653D02*
D03*
Y78347D02*
D03*
X92500Y71653D02*
D03*
Y78347D02*
D03*
X82500D02*
D03*
Y71653D02*
D03*
X77500Y78347D02*
D03*
Y71653D02*
D03*
X72500Y78347D02*
D03*
Y71653D02*
D03*
X67500Y78347D02*
D03*
Y71653D02*
D03*
X62500Y78347D02*
D03*
Y71653D02*
D03*
X57500D02*
D03*
Y78347D02*
D03*
D25*
X92500Y84153D02*
D03*
Y90847D02*
D03*
X87500Y84153D02*
D03*
Y90847D02*
D03*
X82500Y84153D02*
D03*
Y90847D02*
D03*
X77500Y84153D02*
D03*
Y90847D02*
D03*
X72500Y84153D02*
D03*
Y90847D02*
D03*
X67500Y84153D02*
D03*
Y90847D02*
D03*
X62500Y84153D02*
D03*
Y90847D02*
D03*
X57500Y84153D02*
D03*
Y90847D02*
D03*
D49*
X96000Y103000D02*
X104890Y111890D01*
X106500D01*
X-101500Y25000D02*
X-99500D01*
X-98000D01*
X91847Y35000D02*
X96153D01*
X106500Y35500D02*
X110000Y39000D01*
X102847Y35500D02*
X106500D01*
X110000Y39000D02*
Y41000D01*
X113500D01*
X102693D02*
X110000D01*
X114750Y39750D02*
X115000Y40000D01*
X85000Y41153D02*
X85154Y41000D01*
X91847D02*
X96000D01*
D50*
X120000Y-120000D02*
D03*
X-120000D02*
D03*
Y120000D02*
D03*
D51*
X-80000Y-77500D02*
D03*
Y-87500D02*
D03*
X-60000Y-77500D02*
D03*
Y-87500D02*
D03*
X-50000Y-77500D02*
D03*
Y-87500D02*
D03*
X-40000D02*
D03*
D52*
X-70000Y-77500D02*
D03*
Y-87500D02*
D03*
D53*
X-40000Y-77500D02*
D03*
D54*
X40000Y115000D02*
D03*
Y125000D02*
D03*
X0Y115000D02*
D03*
Y125000D02*
D03*
X10000Y115000D02*
D03*
Y125000D02*
D03*
X-20000Y115000D02*
D03*
Y125000D02*
D03*
X-30000Y115000D02*
D03*
Y125000D02*
D03*
X-80000D02*
D03*
X-70000Y115000D02*
D03*
Y125000D02*
D03*
X-60000Y115000D02*
D03*
Y125000D02*
D03*
X-50000Y115000D02*
D03*
Y125000D02*
D03*
X-40000Y115000D02*
D03*
Y125000D02*
D03*
X-10000Y115000D02*
D03*
Y125000D02*
D03*
X20000Y115000D02*
D03*
Y125000D02*
D03*
X30000Y115000D02*
D03*
Y125000D02*
D03*
X60000Y115000D02*
D03*
Y125000D02*
D03*
X50000Y115000D02*
D03*
Y125000D02*
D03*
X80000Y115000D02*
D03*
Y125000D02*
D03*
X70000Y115000D02*
D03*
Y125000D02*
D03*
X-115000Y40000D02*
D03*
X-125000D02*
D03*
X-115000Y0D02*
D03*
X-125000D02*
D03*
X-115000Y10000D02*
D03*
X-125000D02*
D03*
X-115000Y-20000D02*
D03*
X-125000D02*
D03*
X-115000Y-30000D02*
D03*
X-125000D02*
D03*
Y-80000D02*
D03*
X-115000Y-70000D02*
D03*
X-125000D02*
D03*
X-115000Y-60000D02*
D03*
X-125000D02*
D03*
X-115000Y-50000D02*
D03*
X-125000D02*
D03*
X-115000Y-40000D02*
D03*
X-125000D02*
D03*
X-115000Y-10000D02*
D03*
X-125000D02*
D03*
X-115000Y20000D02*
D03*
X-125000D02*
D03*
X-115000Y30000D02*
D03*
X-125000D02*
D03*
X-115000Y60000D02*
D03*
X-125000D02*
D03*
X-115000Y50000D02*
D03*
X-125000D02*
D03*
X-115000Y80000D02*
D03*
X-125000D02*
D03*
X-115000Y70000D02*
D03*
X-125000D02*
D03*
X115000Y-40000D02*
D03*
X125000D02*
D03*
X115000Y0D02*
D03*
X125000D02*
D03*
X115000Y-10000D02*
D03*
X125000D02*
D03*
X115000Y20000D02*
D03*
X125000D02*
D03*
X115000Y30000D02*
D03*
X125000D02*
D03*
Y80000D02*
D03*
X115000Y70000D02*
D03*
X125000D02*
D03*
X115000Y60000D02*
D03*
X125000D02*
D03*
X115000Y50000D02*
D03*
X125000D02*
D03*
X115000Y40000D02*
D03*
X125000D02*
D03*
X115000Y10000D02*
D03*
X125000D02*
D03*
X115000Y-20000D02*
D03*
X125000D02*
D03*
X115000Y-30000D02*
D03*
X125000D02*
D03*
X115000Y-60000D02*
D03*
X125000D02*
D03*
X115000Y-50000D02*
D03*
X125000D02*
D03*
X115000Y-80000D02*
D03*
X125000D02*
D03*
X115000Y-70000D02*
D03*
X125000D02*
D03*
X-40000Y-115000D02*
D03*
Y-125000D02*
D03*
X0Y-115000D02*
D03*
Y-125000D02*
D03*
X-10000Y-115000D02*
D03*
Y-125000D02*
D03*
X20000Y-115000D02*
D03*
Y-125000D02*
D03*
X30000Y-115000D02*
D03*
Y-125000D02*
D03*
X80000D02*
D03*
X70000Y-115000D02*
D03*
Y-125000D02*
D03*
X60000Y-115000D02*
D03*
Y-125000D02*
D03*
X50000Y-115000D02*
D03*
Y-125000D02*
D03*
X40000Y-115000D02*
D03*
Y-125000D02*
D03*
X10000Y-115000D02*
D03*
Y-125000D02*
D03*
X-20000Y-115000D02*
D03*
Y-125000D02*
D03*
X-30000Y-115000D02*
D03*
Y-125000D02*
D03*
X-60000Y-115000D02*
D03*
Y-125000D02*
D03*
X-50000Y-115000D02*
D03*
Y-125000D02*
D03*
X-80000Y-115000D02*
D03*
Y-125000D02*
D03*
X-70000Y-115000D02*
D03*
Y-125000D02*
D03*
D55*
X-80000Y115000D02*
D03*
X80000Y-115000D02*
D03*
D56*
X-115000Y-80000D02*
D03*
X115000Y80000D02*
D03*
D57*
X125098Y103720D02*
D03*
Y131280D02*
D03*
D58*
X114370Y107658D02*
D03*
Y127342D02*
D03*
D59*
X-62500Y-60000D02*
D03*
Y-55000D02*
D03*
Y-50000D02*
D03*
Y-45000D02*
D03*
D60*
Y-40000D02*
D03*
D61*
X-50000Y50000D02*
D03*
X-40000D02*
D03*
X-30000D02*
D03*
X-20000D02*
D03*
X-10000D02*
D03*
X0D02*
D03*
X10000D02*
D03*
X20000D02*
D03*
X30000D02*
D03*
X40000D02*
D03*
X-54997Y-57500D02*
D03*
X-50000Y-50000D02*
D03*
X-45000Y-57500D02*
D03*
X-40000Y-50000D02*
D03*
X45000Y57500D02*
D03*
X-35000Y-57500D02*
D03*
X-30000Y-50000D02*
D03*
X35000Y57500D02*
D03*
X-25000Y-57500D02*
D03*
X-20000Y-50000D02*
D03*
X25000Y57500D02*
D03*
X-15000Y-57500D02*
D03*
X-10000Y-50000D02*
D03*
X15000Y57500D02*
D03*
X-5000Y-57500D02*
D03*
X0Y-50000D02*
D03*
X5000Y57500D02*
D03*
Y-57500D02*
D03*
X10000Y-50000D02*
D03*
X-5000Y57500D02*
D03*
X15000Y-57500D02*
D03*
X20000Y-50000D02*
D03*
X-15000Y57500D02*
D03*
X25000Y-57500D02*
D03*
X30000Y-50000D02*
D03*
X-25000Y57500D02*
D03*
X35000Y-57500D02*
D03*
X40000Y-50000D02*
D03*
X-35000Y57500D02*
D03*
X45000Y-57500D02*
D03*
X-45000Y57500D02*
D03*
X-55000D02*
D03*
D62*
X50000Y45000D02*
D03*
Y-45000D02*
D03*
X-57500Y35000D02*
D03*
X57500Y-40000D02*
D03*
X-50000Y30000D02*
D03*
X50000Y-35000D02*
D03*
X-57500Y25000D02*
D03*
X57500Y-30000D02*
D03*
X-50000Y20000D02*
D03*
X50000Y-25000D02*
D03*
X-57500Y15000D02*
D03*
X57500Y-20000D02*
D03*
X-50000Y10000D02*
D03*
X50000Y-15000D02*
D03*
X-57500Y5000D02*
D03*
X57500Y-10000D02*
D03*
X50000Y-5000D02*
D03*
X-50000Y0D02*
D03*
X57500D02*
D03*
X-57500Y-5000D02*
D03*
X50000Y5000D02*
D03*
X-50000Y-10000D02*
D03*
X57500Y10000D02*
D03*
X-57500Y-15000D02*
D03*
X50000Y15000D02*
D03*
X-50000Y-20000D02*
D03*
X57500Y20000D02*
D03*
X-57500Y-25000D02*
D03*
X50000Y25000D02*
D03*
X-50000Y-30000D02*
D03*
X57500Y30000D02*
D03*
X-57500Y-35000D02*
D03*
X50000Y35000D02*
D03*
X57500Y40000D02*
D03*
Y50000D02*
D03*
Y-50000D02*
D03*
X-50000Y40000D02*
D03*
D63*
X-19000Y15000D02*
D03*
X-102500Y51500D02*
D03*
X-91000Y40500D02*
D03*
X-99500Y50000D02*
D03*
X-12047Y5000D02*
D03*
X125000Y117500D02*
D03*
X-80000Y80000D02*
D03*
X80000Y-67500D02*
D03*
X-80000Y102500D02*
D03*
X106500Y114842D02*
D03*
X103000Y117500D02*
D03*
X-83000Y59000D02*
D03*
X74500Y-97000D02*
D03*
X100000Y-90000D02*
D03*
X120000Y-100000D02*
D03*
X110000Y-130000D02*
D03*
Y-110000D02*
D03*
X130000D02*
D03*
X-110000Y130000D02*
D03*
X-130000D02*
D03*
Y110000D02*
D03*
X-102362Y102362D02*
D03*
X80921Y37413D02*
D03*
Y42138D02*
D03*
X76197Y37413D02*
D03*
Y42138D02*
D03*
X130000Y125000D02*
D03*
Y110000D02*
D03*
X100000Y65000D02*
D03*
X65000D02*
D03*
X50000Y70000D02*
D03*
X60000Y100000D02*
D03*
X70000D02*
D03*
X80000D02*
D03*
X90000D02*
D03*
X82017Y67032D02*
D03*
X96000Y103000D02*
D03*
X92500Y95000D02*
D03*
X10000D02*
D03*
X15000D02*
D03*
X20000D02*
D03*
X25000D02*
D03*
X32500D02*
D03*
X39000D02*
D03*
X45000D02*
D03*
X87500D02*
D03*
X82500D02*
D03*
X77500D02*
D03*
X72500D02*
D03*
X67500D02*
D03*
X62500D02*
D03*
X50000D02*
D03*
X57500D02*
D03*
Y60000D02*
D03*
X98500Y60500D02*
D03*
X75000Y-120000D02*
D03*
X35000D02*
D03*
X-5000D02*
D03*
X-45000D02*
D03*
X-65000D02*
D03*
X-75000D02*
D03*
X-120000Y-75000D02*
D03*
Y-35000D02*
D03*
Y5000D02*
D03*
Y45000D02*
D03*
X-75000Y120000D02*
D03*
X-65000D02*
D03*
X-35000D02*
D03*
X35000D02*
D03*
X55000D02*
D03*
X65000D02*
D03*
X75000D02*
D03*
X120000Y-75000D02*
D03*
Y-35000D02*
D03*
Y35000D02*
D03*
X107500Y52500D02*
D03*
Y22500D02*
D03*
X-63441Y30559D02*
D03*
X-63500Y25500D02*
D03*
X-34500Y-32500D02*
D03*
X-38500D02*
D03*
X-30500D02*
D03*
X28000Y27500D02*
D03*
X-99500Y25000D02*
D03*
X-62500Y-64500D02*
D03*
X-67500Y-60000D02*
D03*
X-80000Y-100000D02*
D03*
X-65000D02*
D03*
X35000D02*
D03*
X-5000D02*
D03*
X35000Y-85000D02*
D03*
X-5000Y-80000D02*
D03*
Y-90000D02*
D03*
X0Y-100000D02*
D03*
Y-90000D02*
D03*
X40000Y-100000D02*
D03*
Y-90000D02*
D03*
X-90000D02*
D03*
X-110000Y110000D02*
D03*
X-90000Y90000D02*
D03*
X-70000Y70000D02*
D03*
X102362Y84646D02*
D03*
X100394Y80709D02*
D03*
X112205Y98425D02*
D03*
X130000Y-130000D02*
D03*
X100000Y-100000D02*
D03*
X90000Y-90000D02*
D03*
X80000Y-80000D02*
D03*
X70000Y-70000D02*
D03*
X-43000Y-32500D02*
D03*
X-51000Y-98000D02*
D03*
X75000Y132500D02*
D03*
X65000D02*
D03*
X55000D02*
D03*
X45000D02*
D03*
X35000D02*
D03*
X25000D02*
D03*
X15000D02*
D03*
X5000D02*
D03*
X-5000D02*
D03*
X-15000D02*
D03*
X-25000D02*
D03*
X-35000D02*
D03*
X-45000D02*
D03*
X-55000D02*
D03*
X-65000D02*
D03*
X-75000D02*
D03*
X-85000D02*
D03*
X85000D02*
D03*
X-135000Y75000D02*
D03*
Y65000D02*
D03*
Y55000D02*
D03*
Y45000D02*
D03*
Y35000D02*
D03*
Y25000D02*
D03*
Y15000D02*
D03*
Y5000D02*
D03*
Y-5000D02*
D03*
Y-15000D02*
D03*
Y-25000D02*
D03*
Y-35000D02*
D03*
Y-45000D02*
D03*
Y-55000D02*
D03*
Y-65000D02*
D03*
Y-75000D02*
D03*
Y-85000D02*
D03*
Y85000D02*
D03*
X-75000Y-135000D02*
D03*
X-65000D02*
D03*
X-55000D02*
D03*
X-45000D02*
D03*
X-35000D02*
D03*
X-25000D02*
D03*
X-15000D02*
D03*
X-5000D02*
D03*
X5000D02*
D03*
X15000D02*
D03*
X25000D02*
D03*
X35000D02*
D03*
X45000D02*
D03*
X55000D02*
D03*
X65000D02*
D03*
X75000D02*
D03*
X85000D02*
D03*
X-85000D02*
D03*
X132500Y-85000D02*
D03*
Y85000D02*
D03*
Y75000D02*
D03*
Y65000D02*
D03*
Y55000D02*
D03*
Y45000D02*
D03*
Y35000D02*
D03*
Y25000D02*
D03*
Y15000D02*
D03*
Y5000D02*
D03*
Y-5000D02*
D03*
Y-15000D02*
D03*
Y-25000D02*
D03*
Y-35000D02*
D03*
Y-45000D02*
D03*
Y-55000D02*
D03*
Y-65000D02*
D03*
Y-75000D02*
D03*
X93500Y24500D02*
D03*
X87500Y52461D02*
D03*
X-35000Y30000D02*
D03*
X-27500Y27500D02*
D03*
X-130000Y-105000D02*
D03*
X-120000D02*
D03*
X-110000D02*
D03*
X-100000D02*
D03*
X-105000Y-115000D02*
D03*
X-110000Y-110000D02*
D03*
X-130000D02*
D03*
X-135000Y-115000D02*
D03*
X-130000Y-130000D02*
D03*
X-90000Y-100000D02*
D03*
X-110000Y-130000D02*
D03*
X-100000Y-125000D02*
D03*
X-90000D02*
D03*
X70587Y52539D02*
D03*
X27000Y-27000D02*
D03*
X23000Y-23000D02*
D03*
X-21360Y-22954D02*
D03*
X-23000Y23000D02*
D03*
X23000D02*
D03*
X28000Y35000D02*
D03*
X-7500Y5000D02*
D03*
X15000Y0D02*
D03*
X-10000Y15000D02*
D03*
X30000Y-30000D02*
D03*
X20000Y-20000D02*
D03*
X15000Y-15000D02*
D03*
X0D02*
D03*
X5000Y-20000D02*
D03*
X-5000D02*
D03*
X5000Y-10000D02*
D03*
X-5000Y0D02*
D03*
X-12500Y-2500D02*
D03*
X0Y5000D02*
D03*
X-69961Y-48732D02*
D03*
X38563Y3445D02*
D03*
X87500Y67500D02*
D03*
X-21500Y-16000D02*
D03*
X-39500Y7000D02*
D03*
X-20000Y6000D02*
D03*
X-20031Y1969D02*
D03*
X-20748Y21000D02*
D03*
X-39500Y1500D02*
D03*
X93500Y67500D02*
D03*
X-20000Y-2000D02*
D03*
X20489Y-4921D02*
D03*
X-9716Y-20284D02*
D03*
X20000Y20000D02*
D03*
X-9352Y22953D02*
D03*
X17000Y37500D02*
D03*
X-13287Y-37740D02*
D03*
X15256Y-35688D02*
D03*
X-11068Y36966D02*
D03*
X38500Y-7000D02*
D03*
X15000Y-20000D02*
D03*
X-20000Y10000D02*
D03*
X-15000Y-20000D02*
D03*
X10000D02*
D03*
X20000Y-10000D02*
D03*
Y0D02*
D03*
X15000Y20000D02*
D03*
X-15000D02*
D03*
M02*
