G04*
G04 #@! TF.GenerationSoftware,Altium Limited,Altium Designer,20.0.11 (256)*
G04*
G04 Layer_Color=128*
%FSLAX25Y25*%
%MOIN*%
G70*
G01*
G75*
%ADD22R,0.03543X0.03937*%
%ADD25R,0.03937X0.03543*%
%ADD59C,0.03937*%
%ADD60R,0.03937X0.03937*%
%ADD64R,0.03937X0.03937*%
%ADD65R,0.12992X0.10630*%
%ADD66R,0.03937X0.10630*%
%ADD67R,0.07874X0.07087*%
G04:AMPARAMS|DCode=68|XSize=78.74mil|YSize=70.87mil|CornerRadius=17.72mil|HoleSize=0mil|Usage=FLASHONLY|Rotation=180.000|XOffset=0mil|YOffset=0mil|HoleType=Round|Shape=RoundedRectangle|*
%AMROUNDEDRECTD68*
21,1,0.07874,0.03543,0,0,180.0*
21,1,0.04331,0.07087,0,0,180.0*
1,1,0.03543,-0.02165,0.01772*
1,1,0.03543,0.02165,0.01772*
1,1,0.03543,0.02165,-0.01772*
1,1,0.03543,-0.02165,-0.01772*
%
%ADD68ROUNDEDRECTD68*%
%ADD69R,0.06496X0.01181*%
%ADD70R,0.11024X0.11024*%
%ADD71O,0.02953X0.01181*%
%ADD72O,0.01181X0.02953*%
D22*
X63153Y-97000D02*
D03*
X69846D02*
D03*
X-26654Y4000D02*
D03*
X-33346D02*
D03*
X-94846Y59000D02*
D03*
X-88153D02*
D03*
D25*
X93500Y35346D02*
D03*
Y28654D02*
D03*
X-99500Y18846D02*
D03*
Y12154D02*
D03*
X-92000Y5153D02*
D03*
Y11846D02*
D03*
X-72000Y5153D02*
D03*
Y11846D02*
D03*
X-43500Y-19654D02*
D03*
Y-26346D02*
D03*
X-37500Y-19654D02*
D03*
Y-26346D02*
D03*
X-31500Y-19654D02*
D03*
Y-26346D02*
D03*
X-25500Y-19654D02*
D03*
Y-26346D02*
D03*
X-99500Y30154D02*
D03*
Y36847D02*
D03*
D59*
X-63500Y40000D02*
D03*
D60*
X-90000Y-123150D02*
D03*
Y-116850D02*
D03*
X57500Y70650D02*
D03*
Y64350D02*
D03*
X-60000Y44850D02*
D03*
Y51150D02*
D03*
X15000Y33150D02*
D03*
Y26850D02*
D03*
X7000Y15350D02*
D03*
Y21650D02*
D03*
X-90000Y123150D02*
D03*
Y116850D02*
D03*
X90000Y123150D02*
D03*
Y116850D02*
D03*
Y-123150D02*
D03*
Y-116850D02*
D03*
X77559Y19126D02*
D03*
Y25425D02*
D03*
X93500Y62650D02*
D03*
Y56350D02*
D03*
X87500Y62650D02*
D03*
Y56350D02*
D03*
X81550Y62650D02*
D03*
Y56350D02*
D03*
X-79500Y-15850D02*
D03*
Y-22150D02*
D03*
X-99500Y-15850D02*
D03*
Y-22150D02*
D03*
Y-4650D02*
D03*
Y1650D02*
D03*
X-65500Y11650D02*
D03*
Y5350D02*
D03*
X-79500Y-4650D02*
D03*
Y1650D02*
D03*
X-15000Y-33150D02*
D03*
Y-26850D02*
D03*
X10000Y-33150D02*
D03*
Y-26850D02*
D03*
X-15000Y33150D02*
D03*
Y26850D02*
D03*
D64*
X29350Y43055D02*
D03*
X35650D02*
D03*
X123150Y90000D02*
D03*
X116850D02*
D03*
X123150Y-90000D02*
D03*
X116850D02*
D03*
X59850Y55500D02*
D03*
X66150D02*
D03*
X-123150Y87500D02*
D03*
X-116850D02*
D03*
X-123150Y-90000D02*
D03*
X-116850D02*
D03*
X33150Y-21000D02*
D03*
X26850D02*
D03*
X33150Y-10000D02*
D03*
X26850D02*
D03*
X33150Y0D02*
D03*
X26850D02*
D03*
X-33150Y-2000D02*
D03*
X-26850D02*
D03*
X-33150Y10000D02*
D03*
X-26850D02*
D03*
D65*
X32500Y10886D02*
D03*
D66*
X41555Y34114D02*
D03*
X32500D02*
D03*
X23445D02*
D03*
D67*
X-24500Y36185D02*
D03*
D68*
X-40248D02*
D03*
X-24500Y16500D02*
D03*
X-40248D02*
D03*
D69*
X-69575Y35677D02*
D03*
Y33118D02*
D03*
Y30559D02*
D03*
Y28000D02*
D03*
Y25441D02*
D03*
Y22882D02*
D03*
Y20323D02*
D03*
X-91425Y35677D02*
D03*
Y33118D02*
D03*
Y30559D02*
D03*
Y28000D02*
D03*
Y25441D02*
D03*
Y22882D02*
D03*
Y20323D02*
D03*
D70*
X78559Y39776D02*
D03*
D71*
X70587Y44697D02*
D03*
Y42728D02*
D03*
Y40760D02*
D03*
Y38791D02*
D03*
Y36823D02*
D03*
Y34854D02*
D03*
X86532D02*
D03*
Y36823D02*
D03*
Y38791D02*
D03*
Y40760D02*
D03*
Y42728D02*
D03*
Y44697D02*
D03*
D72*
X73638Y31803D02*
D03*
X75606D02*
D03*
X77575D02*
D03*
X79543D02*
D03*
X81512D02*
D03*
X83480D02*
D03*
Y47748D02*
D03*
X81512D02*
D03*
X79543D02*
D03*
X77575D02*
D03*
X75606D02*
D03*
X73638D02*
D03*
M02*
