G04*
G04 #@! TF.GenerationSoftware,Altium Limited,Altium Designer,20.0.11 (256)*
G04*
G04 Layer_Color=8421504*
%FSLAX25Y25*%
%MOIN*%
G70*
G01*
G75*
%ADD17C,0.06000*%
G04:AMPARAMS|DCode=18|XSize=78.74mil|YSize=59.06mil|CornerRadius=14.76mil|HoleSize=0mil|Usage=FLASHONLY|Rotation=90.000|XOffset=0mil|YOffset=0mil|HoleType=Round|Shape=RoundedRectangle|*
%AMROUNDEDRECTD18*
21,1,0.07874,0.02953,0,0,90.0*
21,1,0.04921,0.05906,0,0,90.0*
1,1,0.02953,0.01476,0.02461*
1,1,0.02953,0.01476,-0.02461*
1,1,0.02953,-0.01476,-0.02461*
1,1,0.02953,-0.01476,0.02461*
%
%ADD18ROUNDEDRECTD18*%
%ADD19O,0.08268X0.01181*%
%ADD20O,0.01181X0.08268*%
%ADD21R,0.05315X0.01575*%
%ADD22R,0.03543X0.03937*%
G04:AMPARAMS|DCode=23|XSize=31.5mil|YSize=31.5mil|CornerRadius=3.94mil|HoleSize=0mil|Usage=FLASHONLY|Rotation=180.000|XOffset=0mil|YOffset=0mil|HoleType=Round|Shape=RoundedRectangle|*
%AMROUNDEDRECTD23*
21,1,0.03150,0.02362,0,0,180.0*
21,1,0.02362,0.03150,0,0,180.0*
1,1,0.00787,-0.01181,0.01181*
1,1,0.00787,0.01181,0.01181*
1,1,0.00787,0.01181,-0.01181*
1,1,0.00787,-0.01181,-0.01181*
%
%ADD23ROUNDEDRECTD23*%
G04:AMPARAMS|DCode=24|XSize=31.5mil|YSize=31.5mil|CornerRadius=3.94mil|HoleSize=0mil|Usage=FLASHONLY|Rotation=270.000|XOffset=0mil|YOffset=0mil|HoleType=Round|Shape=RoundedRectangle|*
%AMROUNDEDRECTD24*
21,1,0.03150,0.02362,0,0,270.0*
21,1,0.02362,0.03150,0,0,270.0*
1,1,0.00787,-0.01181,-0.01181*
1,1,0.00787,-0.01181,0.01181*
1,1,0.00787,0.01181,0.01181*
1,1,0.00787,0.01181,-0.01181*
%
%ADD24ROUNDEDRECTD24*%
%ADD25R,0.03937X0.03543*%
D17*
X-80000Y-60000D02*
D03*
X-90000D02*
D03*
X-100000D02*
D03*
X-80000Y-50000D02*
D03*
X-90000D02*
D03*
X-100000D02*
D03*
D18*
X80000Y-96732D02*
D03*
Y-63268D02*
D03*
X-80000Y63268D02*
D03*
Y96732D02*
D03*
D19*
X-29921Y23622D02*
D03*
Y21654D02*
D03*
Y19685D02*
D03*
Y17717D02*
D03*
Y15748D02*
D03*
Y13780D02*
D03*
Y11811D02*
D03*
Y9843D02*
D03*
Y7874D02*
D03*
Y5906D02*
D03*
Y3937D02*
D03*
X-29921Y1969D02*
D03*
Y0D02*
D03*
Y-1969D02*
D03*
X-29921Y-3937D02*
D03*
Y-5906D02*
D03*
Y-7874D02*
D03*
Y-9843D02*
D03*
Y-11811D02*
D03*
Y-13780D02*
D03*
Y-15748D02*
D03*
Y-17717D02*
D03*
Y-19685D02*
D03*
Y-21654D02*
D03*
Y-23622D02*
D03*
X29921D02*
D03*
Y-21654D02*
D03*
Y-19685D02*
D03*
Y-17717D02*
D03*
Y-15748D02*
D03*
Y-13780D02*
D03*
Y-11811D02*
D03*
Y-9843D02*
D03*
Y-7874D02*
D03*
Y-5906D02*
D03*
Y-3937D02*
D03*
X29921Y-1969D02*
D03*
Y0D02*
D03*
Y1969D02*
D03*
X29921Y3937D02*
D03*
Y5906D02*
D03*
Y7874D02*
D03*
Y9843D02*
D03*
Y11811D02*
D03*
Y13780D02*
D03*
Y15748D02*
D03*
Y17717D02*
D03*
Y19685D02*
D03*
Y21654D02*
D03*
Y23622D02*
D03*
D20*
X-23622Y-29921D02*
D03*
X-21654D02*
D03*
X-19685D02*
D03*
X-17717D02*
D03*
X-15748D02*
D03*
X-13780D02*
D03*
X-11811D02*
D03*
X-9843D02*
D03*
X-7874D02*
D03*
X-5906D02*
D03*
X-3937D02*
D03*
X-1969Y-29921D02*
D03*
X0D02*
D03*
X1969D02*
D03*
X3937Y-29921D02*
D03*
X5906D02*
D03*
X7874D02*
D03*
X9843D02*
D03*
X11811D02*
D03*
X13780D02*
D03*
X15748D02*
D03*
X17717D02*
D03*
X19685D02*
D03*
X21654D02*
D03*
X23622D02*
D03*
Y29921D02*
D03*
X21654D02*
D03*
X19685D02*
D03*
X17717D02*
D03*
X15748D02*
D03*
X13780D02*
D03*
X11811D02*
D03*
X9843D02*
D03*
X7874D02*
D03*
X5906D02*
D03*
X3937D02*
D03*
X1969Y29921D02*
D03*
X0D02*
D03*
X-1969D02*
D03*
X-3937Y29921D02*
D03*
X-5906D02*
D03*
X-7874D02*
D03*
X-9843D02*
D03*
X-11811D02*
D03*
X-13780D02*
D03*
X-15748D02*
D03*
X-17717D02*
D03*
X-19685D02*
D03*
X-21654D02*
D03*
X-23622D02*
D03*
D21*
X114370Y112382D02*
D03*
Y114941D02*
D03*
Y122618D02*
D03*
Y120059D02*
D03*
Y117500D02*
D03*
D22*
X96153Y35000D02*
D03*
X102847D02*
D03*
X96000Y41000D02*
D03*
X102693D02*
D03*
D23*
X85154Y35000D02*
D03*
X91847D02*
D03*
X85154Y41000D02*
D03*
X91847D02*
D03*
D24*
X87500Y71653D02*
D03*
Y78347D02*
D03*
X92500Y71653D02*
D03*
Y78347D02*
D03*
X82500D02*
D03*
Y71653D02*
D03*
X77500Y78347D02*
D03*
Y71653D02*
D03*
X72500Y78347D02*
D03*
Y71653D02*
D03*
X67500Y78347D02*
D03*
Y71653D02*
D03*
X62500Y78347D02*
D03*
Y71653D02*
D03*
X57500D02*
D03*
Y78347D02*
D03*
D25*
X92500Y84153D02*
D03*
Y90847D02*
D03*
X87500Y84153D02*
D03*
Y90847D02*
D03*
X82500Y84153D02*
D03*
Y90847D02*
D03*
X77500Y84153D02*
D03*
Y90847D02*
D03*
X72500Y84153D02*
D03*
Y90847D02*
D03*
X67500Y84153D02*
D03*
Y90847D02*
D03*
X62500Y84153D02*
D03*
Y90847D02*
D03*
X57500Y84153D02*
D03*
Y90847D02*
D03*
M02*
