G04*
G04 #@! TF.GenerationSoftware,Altium Limited,Altium Designer,20.0.11 (256)*
G04*
G04 Layer_Physical_Order=2*
G04 Layer_Color=16711680*
%FSLAX25Y25*%
%MOIN*%
G70*
G01*
G75*
%ADD10C,0.00984*%
%ADD17C,0.06000*%
%ADD22R,0.03543X0.03937*%
%ADD25R,0.03937X0.03543*%
%ADD49C,0.01968*%
%ADD50C,0.19685*%
%ADD51O,0.05906X0.07874*%
%ADD52C,0.07874*%
G04:AMPARAMS|DCode=53|XSize=59.06mil|YSize=78.74mil|CornerRadius=14.76mil|HoleSize=0mil|Usage=FLASHONLY|Rotation=180.000|XOffset=0mil|YOffset=0mil|HoleType=Round|Shape=RoundedRectangle|*
%AMROUNDEDRECTD53*
21,1,0.05906,0.04921,0,0,180.0*
21,1,0.02953,0.07874,0,0,180.0*
1,1,0.02953,-0.01476,0.02461*
1,1,0.02953,0.01476,0.02461*
1,1,0.02953,0.01476,-0.02461*
1,1,0.02953,-0.01476,-0.02461*
%
%ADD53ROUNDEDRECTD53*%
%ADD54C,0.06496*%
%ADD55R,0.06496X0.06496*%
%ADD56R,0.06496X0.06496*%
G04:AMPARAMS|DCode=57|XSize=66.93mil|YSize=55.12mil|CornerRadius=13.78mil|HoleSize=0mil|Usage=FLASHONLY|Rotation=180.000|XOffset=0mil|YOffset=0mil|HoleType=Round|Shape=RoundedRectangle|*
%AMROUNDEDRECTD57*
21,1,0.06693,0.02756,0,0,180.0*
21,1,0.03937,0.05512,0,0,180.0*
1,1,0.02756,-0.01968,0.01378*
1,1,0.02756,0.01968,0.01378*
1,1,0.02756,0.01968,-0.01378*
1,1,0.02756,-0.01968,-0.01378*
%
%ADD57ROUNDEDRECTD57*%
G04:AMPARAMS|DCode=58|XSize=60mil|YSize=49.21mil|CornerRadius=12.3mil|HoleSize=0mil|Usage=FLASHONLY|Rotation=90.000|XOffset=0mil|YOffset=0mil|HoleType=Round|Shape=RoundedRectangle|*
%AMROUNDEDRECTD58*
21,1,0.06000,0.02461,0,0,90.0*
21,1,0.03539,0.04921,0,0,90.0*
1,1,0.02461,0.01230,0.01770*
1,1,0.02461,0.01230,-0.01770*
1,1,0.02461,-0.01230,-0.01770*
1,1,0.02461,-0.01230,0.01770*
%
%ADD58ROUNDEDRECTD58*%
%ADD59C,0.03937*%
%ADD60R,0.03937X0.03937*%
G04:AMPARAMS|DCode=61|XSize=39.37mil|YSize=59.06mil|CornerRadius=0mil|HoleSize=0mil|Usage=FLASHONLY|Rotation=180.000|XOffset=0mil|YOffset=0mil|HoleType=Round|Shape=Octagon|*
%AMOCTAGOND61*
4,1,8,0.00984,-0.02953,-0.00984,-0.02953,-0.01968,-0.01968,-0.01968,0.01968,-0.00984,0.02953,0.00984,0.02953,0.01968,0.01968,0.01968,-0.01968,0.00984,-0.02953,0.0*
%
%ADD61OCTAGOND61*%

G04:AMPARAMS|DCode=62|XSize=39.37mil|YSize=59.06mil|CornerRadius=0mil|HoleSize=0mil|Usage=FLASHONLY|Rotation=270.000|XOffset=0mil|YOffset=0mil|HoleType=Round|Shape=Octagon|*
%AMOCTAGOND62*
4,1,8,0.02953,0.00984,0.02953,-0.00984,0.01968,-0.01968,-0.01968,-0.01968,-0.02953,-0.00984,-0.02953,0.00984,-0.01968,0.01968,0.01968,0.01968,0.02953,0.00984,0.0*
%
%ADD62OCTAGOND62*%

%ADD63C,0.02362*%
%ADD64R,0.03937X0.03937*%
%ADD65R,0.12992X0.10630*%
%ADD66R,0.03937X0.10630*%
%ADD67R,0.07874X0.07087*%
G04:AMPARAMS|DCode=68|XSize=78.74mil|YSize=70.87mil|CornerRadius=17.72mil|HoleSize=0mil|Usage=FLASHONLY|Rotation=180.000|XOffset=0mil|YOffset=0mil|HoleType=Round|Shape=RoundedRectangle|*
%AMROUNDEDRECTD68*
21,1,0.07874,0.03543,0,0,180.0*
21,1,0.04331,0.07087,0,0,180.0*
1,1,0.03543,-0.02165,0.01772*
1,1,0.03543,0.02165,0.01772*
1,1,0.03543,0.02165,-0.01772*
1,1,0.03543,-0.02165,-0.01772*
%
%ADD68ROUNDEDRECTD68*%
%ADD69R,0.06496X0.01181*%
%ADD70R,0.11024X0.11024*%
%ADD71O,0.02953X0.01181*%
%ADD72O,0.01181X0.02953*%
%ADD73C,0.03937*%
G36*
X136390Y-137178D02*
X-137178D01*
X-137178Y135603D01*
X121148D01*
X121482Y134619D01*
X121305Y134483D01*
X120895Y133948D01*
X120637Y133326D01*
X120549Y132658D01*
Y129902D01*
X120637Y129234D01*
X120895Y128611D01*
X121305Y128076D01*
X121839Y127666D01*
X122462Y127408D01*
X123130Y127321D01*
X127067D01*
X127735Y127408D01*
X128358Y127666D01*
X128892Y128076D01*
X129302Y128611D01*
X129560Y129234D01*
X129648Y129902D01*
Y132658D01*
X129560Y133326D01*
X129302Y133948D01*
X128892Y134483D01*
X128715Y134619D01*
X129049Y135603D01*
X136390D01*
X136390Y-137178D01*
D02*
G37*
%LPC*%
G36*
X80000Y129269D02*
X78895Y129123D01*
X77866Y128697D01*
X77769Y128623D01*
X80000Y126392D01*
X82231Y128623D01*
X82134Y128697D01*
X81105Y129123D01*
X80000Y129269D01*
D02*
G37*
G36*
X40000D02*
X38895Y129123D01*
X37866Y128697D01*
X37769Y128623D01*
X40000Y126392D01*
X42231Y128623D01*
X42134Y128697D01*
X41105Y129123D01*
X40000Y129269D01*
D02*
G37*
G36*
X0D02*
X-1105Y129123D01*
X-2134Y128697D01*
X-2231Y128623D01*
X0Y126392D01*
X2231Y128623D01*
X2134Y128697D01*
X1105Y129123D01*
X0Y129269D01*
D02*
G37*
G36*
X-40000D02*
X-41105Y129123D01*
X-42134Y128697D01*
X-42231Y128623D01*
X-40000Y126392D01*
X-37769Y128623D01*
X-37866Y128697D01*
X-38895Y129123D01*
X-40000Y129269D01*
D02*
G37*
G36*
X-80000D02*
X-81105Y129123D01*
X-82134Y128697D01*
X-82231Y128623D01*
X-80000Y126392D01*
X-77769Y128623D01*
X-77866Y128697D01*
X-78895Y129123D01*
X-80000Y129269D01*
D02*
G37*
G36*
X92953Y126102D02*
X90984D01*
Y124134D01*
X92953D01*
Y126102D01*
D02*
G37*
G36*
X-87047D02*
X-89016D01*
Y124134D01*
X-87047D01*
Y126102D01*
D02*
G37*
G36*
X89016D02*
X87047D01*
Y124134D01*
X89016D01*
Y126102D01*
D02*
G37*
G36*
X-90984D02*
X-92953D01*
Y124134D01*
X-90984D01*
Y126102D01*
D02*
G37*
G36*
X115600Y131571D02*
X113140D01*
X112199Y131384D01*
X111401Y130851D01*
X110868Y130053D01*
X110681Y129112D01*
Y125573D01*
X110868Y124632D01*
X111401Y123834D01*
X112199Y123301D01*
X113140Y123114D01*
X115600D01*
X116541Y123301D01*
X117339Y123834D01*
X117872Y124632D01*
X118059Y125573D01*
Y129112D01*
X117872Y130053D01*
X117339Y130851D01*
X116541Y131384D01*
X115600Y131571D01*
D02*
G37*
G36*
X83623Y127231D02*
X81392Y125000D01*
X83623Y122769D01*
X83697Y122866D01*
X84123Y123895D01*
X84269Y125000D01*
X84123Y126105D01*
X83697Y127134D01*
X83623Y127231D01*
D02*
G37*
G36*
X43623D02*
X41392Y125000D01*
X43623Y122769D01*
X43697Y122866D01*
X44123Y123895D01*
X44269Y125000D01*
X44123Y126105D01*
X43697Y127134D01*
X43623Y127231D01*
D02*
G37*
G36*
X3623D02*
X1392Y125000D01*
X3623Y122769D01*
X3697Y122866D01*
X4123Y123895D01*
X4269Y125000D01*
X4123Y126105D01*
X3697Y127134D01*
X3623Y127231D01*
D02*
G37*
G36*
X-36377D02*
X-38608Y125000D01*
X-36377Y122769D01*
X-36303Y122866D01*
X-35877Y123895D01*
X-35731Y125000D01*
X-35877Y126105D01*
X-36303Y127134D01*
X-36377Y127231D01*
D02*
G37*
G36*
X-76377D02*
X-78608Y125000D01*
X-76377Y122769D01*
X-76303Y122866D01*
X-75877Y123895D01*
X-75731Y125000D01*
X-75877Y126105D01*
X-76303Y127134D01*
X-76377Y127231D01*
D02*
G37*
G36*
X76377Y127231D02*
X76303Y127134D01*
X75877Y126105D01*
X75731Y125000D01*
X75877Y123895D01*
X76303Y122866D01*
X76377Y122769D01*
X78608Y125000D01*
X76377Y127231D01*
D02*
G37*
G36*
X36377D02*
X36303Y127134D01*
X35877Y126105D01*
X35731Y125000D01*
X35877Y123895D01*
X36303Y122866D01*
X36377Y122769D01*
X38608Y125000D01*
X36377Y127231D01*
D02*
G37*
G36*
X-3623D02*
X-3697Y127134D01*
X-4123Y126105D01*
X-4269Y125000D01*
X-4123Y123895D01*
X-3697Y122866D01*
X-3623Y122769D01*
X-1392Y125000D01*
X-3623Y127231D01*
D02*
G37*
G36*
X-43623D02*
X-43697Y127134D01*
X-44123Y126105D01*
X-44269Y125000D01*
X-44123Y123895D01*
X-43697Y122866D01*
X-43623Y122769D01*
X-41392Y125000D01*
X-43623Y127231D01*
D02*
G37*
G36*
X-83623D02*
X-83697Y127134D01*
X-84123Y126105D01*
X-84269Y125000D01*
X-84123Y123895D01*
X-83697Y122866D01*
X-83623Y122769D01*
X-81392Y125000D01*
X-83623Y127231D01*
D02*
G37*
G36*
X-120000Y130860D02*
X-121699Y130727D01*
X-123356Y130329D01*
X-124930Y129676D01*
X-126383Y128786D01*
X-126929Y128321D01*
X-120000Y121392D01*
X-113071Y128321D01*
X-113617Y128786D01*
X-115070Y129676D01*
X-116644Y130329D01*
X-118301Y130727D01*
X-120000Y130860D01*
D02*
G37*
G36*
X80000Y123608D02*
X77769Y121377D01*
X77866Y121303D01*
X78895Y120877D01*
X80000Y120731D01*
X81105Y120877D01*
X82134Y121303D01*
X82231Y121377D01*
X80000Y123608D01*
D02*
G37*
G36*
X40000D02*
X37769Y121377D01*
X37866Y121303D01*
X38895Y120877D01*
X40000Y120731D01*
X41105Y120877D01*
X42134Y121303D01*
X42231Y121377D01*
X40000Y123608D01*
D02*
G37*
G36*
X0D02*
X-2231Y121377D01*
X-2134Y121303D01*
X-1105Y120877D01*
X0Y120731D01*
X1105Y120877D01*
X2134Y121303D01*
X2231Y121377D01*
X0Y123608D01*
D02*
G37*
G36*
X-40000D02*
X-42231Y121377D01*
X-42134Y121303D01*
X-41105Y120877D01*
X-40000Y120731D01*
X-38895Y120877D01*
X-37866Y121303D01*
X-37769Y121377D01*
X-40000Y123608D01*
D02*
G37*
G36*
X-80000D02*
X-82231Y121377D01*
X-82134Y121303D01*
X-81105Y120877D01*
X-80000Y120731D01*
X-78895Y120877D01*
X-77866Y121303D01*
X-77769Y121377D01*
X-80000Y123608D01*
D02*
G37*
G36*
X70000Y129467D02*
X68844Y129315D01*
X67766Y128869D01*
X66841Y128159D01*
X66131Y127234D01*
X65685Y126156D01*
X65533Y125000D01*
X65685Y123844D01*
X66131Y122766D01*
X66841Y121841D01*
X67766Y121131D01*
X68844Y120685D01*
X70000Y120533D01*
X71156Y120685D01*
X72234Y121131D01*
X73159Y121841D01*
X73869Y122766D01*
X74315Y123844D01*
X74467Y125000D01*
X74315Y126156D01*
X73869Y127234D01*
X73159Y128159D01*
X72234Y128869D01*
X71156Y129315D01*
X70000Y129467D01*
D02*
G37*
G36*
X60000D02*
X58844Y129315D01*
X57766Y128869D01*
X56841Y128159D01*
X56131Y127234D01*
X55685Y126156D01*
X55533Y125000D01*
X55685Y123844D01*
X56131Y122766D01*
X56841Y121841D01*
X57766Y121131D01*
X58844Y120685D01*
X60000Y120533D01*
X61156Y120685D01*
X62234Y121131D01*
X63159Y121841D01*
X63869Y122766D01*
X64315Y123844D01*
X64467Y125000D01*
X64315Y126156D01*
X63869Y127234D01*
X63159Y128159D01*
X62234Y128869D01*
X61156Y129315D01*
X60000Y129467D01*
D02*
G37*
G36*
X50000D02*
X48844Y129315D01*
X47766Y128869D01*
X46841Y128159D01*
X46131Y127234D01*
X45685Y126156D01*
X45533Y125000D01*
X45685Y123844D01*
X46131Y122766D01*
X46841Y121841D01*
X47766Y121131D01*
X48844Y120685D01*
X50000Y120533D01*
X51156Y120685D01*
X52234Y121131D01*
X53159Y121841D01*
X53869Y122766D01*
X54315Y123844D01*
X54467Y125000D01*
X54315Y126156D01*
X53869Y127234D01*
X53159Y128159D01*
X52234Y128869D01*
X51156Y129315D01*
X50000Y129467D01*
D02*
G37*
G36*
X30000D02*
X28844Y129315D01*
X27766Y128869D01*
X26841Y128159D01*
X26131Y127234D01*
X25685Y126156D01*
X25533Y125000D01*
X25685Y123844D01*
X26131Y122766D01*
X26841Y121841D01*
X27766Y121131D01*
X28844Y120685D01*
X30000Y120533D01*
X31156Y120685D01*
X32234Y121131D01*
X33159Y121841D01*
X33869Y122766D01*
X34315Y123844D01*
X34467Y125000D01*
X34315Y126156D01*
X33869Y127234D01*
X33159Y128159D01*
X32234Y128869D01*
X31156Y129315D01*
X30000Y129467D01*
D02*
G37*
G36*
X20000D02*
X18844Y129315D01*
X17766Y128869D01*
X16841Y128159D01*
X16131Y127234D01*
X15685Y126156D01*
X15533Y125000D01*
X15685Y123844D01*
X16131Y122766D01*
X16841Y121841D01*
X17766Y121131D01*
X18844Y120685D01*
X20000Y120533D01*
X21156Y120685D01*
X22234Y121131D01*
X23159Y121841D01*
X23869Y122766D01*
X24315Y123844D01*
X24467Y125000D01*
X24315Y126156D01*
X23869Y127234D01*
X23159Y128159D01*
X22234Y128869D01*
X21156Y129315D01*
X20000Y129467D01*
D02*
G37*
G36*
X10000D02*
X8844Y129315D01*
X7766Y128869D01*
X6841Y128159D01*
X6131Y127234D01*
X5685Y126156D01*
X5533Y125000D01*
X5685Y123844D01*
X6131Y122766D01*
X6841Y121841D01*
X7766Y121131D01*
X8844Y120685D01*
X10000Y120533D01*
X11156Y120685D01*
X12234Y121131D01*
X13159Y121841D01*
X13869Y122766D01*
X14315Y123844D01*
X14467Y125000D01*
X14315Y126156D01*
X13869Y127234D01*
X13159Y128159D01*
X12234Y128869D01*
X11156Y129315D01*
X10000Y129467D01*
D02*
G37*
G36*
X-10000D02*
X-11156Y129315D01*
X-12234Y128869D01*
X-13159Y128159D01*
X-13869Y127234D01*
X-14315Y126156D01*
X-14467Y125000D01*
X-14315Y123844D01*
X-13869Y122766D01*
X-13159Y121841D01*
X-12234Y121131D01*
X-11156Y120685D01*
X-10000Y120533D01*
X-8844Y120685D01*
X-7766Y121131D01*
X-6841Y121841D01*
X-6131Y122766D01*
X-5685Y123844D01*
X-5533Y125000D01*
X-5685Y126156D01*
X-6131Y127234D01*
X-6841Y128159D01*
X-7766Y128869D01*
X-8844Y129315D01*
X-10000Y129467D01*
D02*
G37*
G36*
X-20000D02*
X-21156Y129315D01*
X-22234Y128869D01*
X-23159Y128159D01*
X-23869Y127234D01*
X-24315Y126156D01*
X-24467Y125000D01*
X-24315Y123844D01*
X-23869Y122766D01*
X-23159Y121841D01*
X-22234Y121131D01*
X-21156Y120685D01*
X-20000Y120533D01*
X-18844Y120685D01*
X-17766Y121131D01*
X-16841Y121841D01*
X-16131Y122766D01*
X-15685Y123844D01*
X-15533Y125000D01*
X-15685Y126156D01*
X-16131Y127234D01*
X-16841Y128159D01*
X-17766Y128869D01*
X-18844Y129315D01*
X-20000Y129467D01*
D02*
G37*
G36*
X-30000D02*
X-31156Y129315D01*
X-32234Y128869D01*
X-33159Y128159D01*
X-33869Y127234D01*
X-34315Y126156D01*
X-34467Y125000D01*
X-34315Y123844D01*
X-33869Y122766D01*
X-33159Y121841D01*
X-32234Y121131D01*
X-31156Y120685D01*
X-30000Y120533D01*
X-28844Y120685D01*
X-27766Y121131D01*
X-26841Y121841D01*
X-26131Y122766D01*
X-25685Y123844D01*
X-25533Y125000D01*
X-25685Y126156D01*
X-26131Y127234D01*
X-26841Y128159D01*
X-27766Y128869D01*
X-28844Y129315D01*
X-30000Y129467D01*
D02*
G37*
G36*
X-50000D02*
X-51156Y129315D01*
X-52234Y128869D01*
X-53159Y128159D01*
X-53869Y127234D01*
X-54315Y126156D01*
X-54467Y125000D01*
X-54315Y123844D01*
X-53869Y122766D01*
X-53159Y121841D01*
X-52234Y121131D01*
X-51156Y120685D01*
X-50000Y120533D01*
X-48844Y120685D01*
X-47766Y121131D01*
X-46841Y121841D01*
X-46131Y122766D01*
X-45685Y123844D01*
X-45533Y125000D01*
X-45685Y126156D01*
X-46131Y127234D01*
X-46841Y128159D01*
X-47766Y128869D01*
X-48844Y129315D01*
X-50000Y129467D01*
D02*
G37*
G36*
X-60000D02*
X-61156Y129315D01*
X-62234Y128869D01*
X-63159Y128159D01*
X-63869Y127234D01*
X-64315Y126156D01*
X-64467Y125000D01*
X-64315Y123844D01*
X-63869Y122766D01*
X-63159Y121841D01*
X-62234Y121131D01*
X-61156Y120685D01*
X-60000Y120533D01*
X-58844Y120685D01*
X-57766Y121131D01*
X-56841Y121841D01*
X-56131Y122766D01*
X-55685Y123844D01*
X-55533Y125000D01*
X-55685Y126156D01*
X-56131Y127234D01*
X-56841Y128159D01*
X-57766Y128869D01*
X-58844Y129315D01*
X-60000Y129467D01*
D02*
G37*
G36*
X-70000D02*
X-71156Y129315D01*
X-72234Y128869D01*
X-73159Y128159D01*
X-73869Y127234D01*
X-74315Y126156D01*
X-74467Y125000D01*
X-74315Y123844D01*
X-73869Y122766D01*
X-73159Y121841D01*
X-72234Y121131D01*
X-71156Y120685D01*
X-70000Y120533D01*
X-68844Y120685D01*
X-67766Y121131D01*
X-66841Y121841D01*
X-66131Y122766D01*
X-65685Y123844D01*
X-65533Y125000D01*
X-65685Y126156D01*
X-66131Y127234D01*
X-66841Y128159D01*
X-67766Y128869D01*
X-68844Y129315D01*
X-70000Y129467D01*
D02*
G37*
G36*
X-111679Y126929D02*
X-118608Y120000D01*
X-111679Y113071D01*
X-111214Y113617D01*
X-110324Y115070D01*
X-109671Y116644D01*
X-109274Y118301D01*
X-109140Y120000D01*
X-109274Y121699D01*
X-109671Y123356D01*
X-110324Y124930D01*
X-111214Y126383D01*
X-111679Y126929D01*
D02*
G37*
G36*
X-128321Y126929D02*
X-128786Y126383D01*
X-129676Y124930D01*
X-130329Y123356D01*
X-130727Y121699D01*
X-130860Y120000D01*
X-130727Y118301D01*
X-130329Y116644D01*
X-129676Y115070D01*
X-128786Y113617D01*
X-128321Y113071D01*
X-121392Y120000D01*
X-128321Y126929D01*
D02*
G37*
G36*
X-120000Y118608D02*
X-126929Y111679D01*
X-126383Y111214D01*
X-124930Y110324D01*
X-123356Y109671D01*
X-121699Y109274D01*
X-120000Y109140D01*
X-118301Y109274D01*
X-116644Y109671D01*
X-115070Y110324D01*
X-113617Y111214D01*
X-113071Y111679D01*
X-120000Y118608D01*
D02*
G37*
G36*
X115600Y111886D02*
X113140D01*
X112199Y111699D01*
X111401Y111166D01*
X110868Y110368D01*
X110681Y109427D01*
Y105888D01*
X110868Y104947D01*
X111401Y104149D01*
X112199Y103616D01*
X113140Y103429D01*
X115600D01*
X116541Y103616D01*
X117339Y104149D01*
X117872Y104947D01*
X118059Y105888D01*
Y109427D01*
X117872Y110368D01*
X117339Y111166D01*
X116541Y111699D01*
X115600Y111886D01*
D02*
G37*
G36*
X127067Y107679D02*
X123130D01*
X122462Y107592D01*
X121839Y107334D01*
X121305Y106924D01*
X120895Y106389D01*
X120637Y105766D01*
X120549Y105098D01*
Y102342D01*
X120637Y101674D01*
X120895Y101052D01*
X121305Y100517D01*
X121839Y100107D01*
X122462Y99849D01*
X123130Y99761D01*
X127067D01*
X127735Y99849D01*
X128358Y100107D01*
X128892Y100517D01*
X129302Y101052D01*
X129560Y101674D01*
X129648Y102342D01*
Y105098D01*
X129560Y105766D01*
X129302Y106389D01*
X128892Y106924D01*
X128358Y107334D01*
X127735Y107592D01*
X127067Y107679D01*
D02*
G37*
G36*
X124134Y92953D02*
Y90984D01*
X126102D01*
Y92953D01*
X124134D01*
D02*
G37*
G36*
X-124134Y90453D02*
X-126102D01*
Y88484D01*
X-124134D01*
Y90453D01*
D02*
G37*
G36*
X126102Y89016D02*
X124134D01*
Y87047D01*
X126102D01*
Y89016D01*
D02*
G37*
G36*
X125000Y84269D02*
X123895Y84123D01*
X122866Y83697D01*
X122769Y83623D01*
X125000Y81392D01*
X127231Y83623D01*
X127134Y83697D01*
X126105Y84123D01*
X125000Y84269D01*
D02*
G37*
G36*
X-128623Y82231D02*
X-128697Y82134D01*
X-129123Y81105D01*
X-129269Y80000D01*
X-129123Y78895D01*
X-128697Y77866D01*
X-128623Y77769D01*
X-126392Y80000D01*
X-128623Y82231D01*
D02*
G37*
G36*
X-121377Y82231D02*
X-123608Y80000D01*
X-121377Y77769D01*
X-121303Y77866D01*
X-120877Y78895D01*
X-120731Y80000D01*
X-120877Y81105D01*
X-121303Y82134D01*
X-121377Y82231D01*
D02*
G37*
G36*
X128623Y82231D02*
X126392Y80000D01*
X128623Y77769D01*
X128697Y77866D01*
X129123Y78895D01*
X129269Y80000D01*
X129123Y81105D01*
X128697Y82134D01*
X128623Y82231D01*
D02*
G37*
G36*
X121377D02*
X121303Y82134D01*
X120877Y81105D01*
X120731Y80000D01*
X120877Y78895D01*
X121303Y77866D01*
X121377Y77769D01*
X123608Y80000D01*
X121377Y82231D01*
D02*
G37*
G36*
X125000Y78608D02*
X122769Y76377D01*
X122866Y76303D01*
X123895Y75877D01*
X125000Y75731D01*
X126105Y75877D01*
X127134Y76303D01*
X127231Y76377D01*
X125000Y78608D01*
D02*
G37*
G36*
X-125000D02*
X-127231Y76377D01*
X-127134Y76303D01*
X-126105Y75877D01*
X-125000Y75731D01*
X-123895Y75877D01*
X-122866Y76303D01*
X-122769Y76377D01*
X-125000Y78608D01*
D02*
G37*
G36*
X125000Y74467D02*
X123844Y74315D01*
X122766Y73869D01*
X121841Y73159D01*
X121131Y72234D01*
X120685Y71156D01*
X120533Y70000D01*
X120685Y68844D01*
X121131Y67766D01*
X121841Y66841D01*
X122766Y66131D01*
X123844Y65685D01*
X125000Y65533D01*
X126156Y65685D01*
X127234Y66131D01*
X128159Y66841D01*
X128869Y67766D01*
X129315Y68844D01*
X129467Y70000D01*
X129315Y71156D01*
X128869Y72234D01*
X128159Y73159D01*
X127234Y73869D01*
X126156Y74315D01*
X125000Y74467D01*
D02*
G37*
G36*
X-125000D02*
X-126156Y74315D01*
X-127234Y73869D01*
X-128159Y73159D01*
X-128869Y72234D01*
X-129315Y71156D01*
X-129467Y70000D01*
X-129315Y68844D01*
X-128869Y67766D01*
X-128159Y66841D01*
X-127234Y66131D01*
X-126156Y65685D01*
X-125000Y65533D01*
X-123844Y65685D01*
X-122766Y66131D01*
X-121841Y66841D01*
X-121131Y67766D01*
X-120685Y68844D01*
X-120533Y70000D01*
X-120685Y71156D01*
X-121131Y72234D01*
X-121841Y73159D01*
X-122766Y73869D01*
X-123844Y74315D01*
X-125000Y74467D01*
D02*
G37*
G36*
X-92091Y61953D02*
X-93862D01*
Y59984D01*
X-92091D01*
Y61953D01*
D02*
G37*
G36*
X-95831D02*
X-97602D01*
Y59984D01*
X-95831D01*
Y61953D01*
D02*
G37*
G36*
X-85201Y62150D02*
X-91106D01*
Y55850D01*
X-85201D01*
Y56531D01*
X-84216Y56972D01*
X-83922Y56775D01*
X-83000Y56591D01*
X-82078Y56775D01*
X-81297Y57297D01*
X-80775Y58078D01*
X-80591Y59000D01*
X-80775Y59922D01*
X-81297Y60703D01*
X-82078Y61225D01*
X-83000Y61409D01*
X-83922Y61225D01*
X-84216Y61028D01*
X-85201Y61554D01*
Y62150D01*
D02*
G37*
G36*
X67134Y58453D02*
Y56484D01*
X69102D01*
Y58453D01*
X67134D01*
D02*
G37*
G36*
X-92091Y58016D02*
X-93862D01*
Y56047D01*
X-92091D01*
Y58016D01*
D02*
G37*
G36*
X-95831D02*
X-97602D01*
Y56047D01*
X-95831D01*
Y58016D01*
D02*
G37*
G36*
X125000Y64467D02*
X123844Y64315D01*
X122766Y63869D01*
X121841Y63159D01*
X121131Y62234D01*
X120685Y61156D01*
X120533Y60000D01*
X120685Y58844D01*
X121131Y57766D01*
X121841Y56841D01*
X122766Y56131D01*
X123844Y55685D01*
X125000Y55533D01*
X126156Y55685D01*
X127234Y56131D01*
X128159Y56841D01*
X128869Y57766D01*
X129315Y58844D01*
X129467Y60000D01*
X129315Y61156D01*
X128869Y62234D01*
X128159Y63159D01*
X127234Y63869D01*
X126156Y64315D01*
X125000Y64467D01*
D02*
G37*
G36*
X-125000D02*
X-126156Y64315D01*
X-127234Y63869D01*
X-128159Y63159D01*
X-128869Y62234D01*
X-129315Y61156D01*
X-129467Y60000D01*
X-129315Y58844D01*
X-128869Y57766D01*
X-128159Y56841D01*
X-127234Y56131D01*
X-126156Y55685D01*
X-125000Y55533D01*
X-123844Y55685D01*
X-122766Y56131D01*
X-121841Y56841D01*
X-121131Y57766D01*
X-120685Y58844D01*
X-120533Y60000D01*
X-120685Y61156D01*
X-121131Y62234D01*
X-121841Y63159D01*
X-122766Y63869D01*
X-123844Y64315D01*
X-125000Y64467D01*
D02*
G37*
G36*
X-87047Y122165D02*
X-90000D01*
X-92953D01*
Y120903D01*
X-93150Y120000D01*
X-93150Y119294D01*
Y117057D01*
X-93177Y116850D01*
Y109806D01*
X-93068Y108984D01*
X-92751Y108218D01*
X-92246Y107560D01*
X-89940Y105254D01*
X-89282Y104749D01*
X-88516Y104431D01*
X-87694Y104323D01*
X-82806D01*
X-82257Y103471D01*
X-82242Y103339D01*
X-82408Y102500D01*
X-82225Y101578D01*
X-81703Y100797D01*
X-80922Y100275D01*
X-80000Y100092D01*
X-79078Y100275D01*
X-78297Y100797D01*
X-77775Y101578D01*
X-77592Y102500D01*
X-77758Y103339D01*
X-77743Y103471D01*
X-77193Y104323D01*
X-3177D01*
Y76316D01*
X-12246Y67246D01*
X-12751Y66588D01*
X-13069Y65822D01*
X-13177Y65000D01*
Y61737D01*
X-13425Y61634D01*
X-16575D01*
X-18150Y60059D01*
Y55004D01*
X-18185Y54892D01*
X-18734Y54134D01*
X-21265D01*
X-21815Y54892D01*
X-21850Y55004D01*
Y60059D01*
X-23425Y61634D01*
X-26575D01*
X-28150Y60059D01*
Y55004D01*
X-28185Y54892D01*
X-28734Y54134D01*
X-31266D01*
X-31815Y54892D01*
X-31850Y55004D01*
Y60059D01*
X-33425Y61634D01*
X-36575D01*
X-38150Y60059D01*
Y55004D01*
X-38185Y54892D01*
X-38734Y54134D01*
X-41266D01*
X-41815Y54892D01*
X-41850Y55004D01*
Y60059D01*
X-43425Y61634D01*
X-46575D01*
X-48150Y60059D01*
Y55004D01*
X-48185Y54892D01*
X-48734Y54134D01*
X-51266D01*
X-51815Y54892D01*
X-51850Y55004D01*
Y60059D01*
X-53425Y61634D01*
X-56575D01*
X-58150Y60059D01*
Y54941D01*
X-58497Y54102D01*
X-59016D01*
Y51150D01*
X-60000D01*
Y50165D01*
X-62953D01*
X-62953Y48197D01*
X-63929Y48177D01*
X-104323D01*
Y80000D01*
Y85194D01*
X-104431Y86016D01*
X-104749Y86782D01*
X-105254Y87440D01*
X-107560Y89746D01*
X-108218Y90251D01*
X-108984Y90569D01*
X-109806Y90677D01*
X-116850D01*
X-117057Y90650D01*
X-120000Y90650D01*
X-120903Y90453D01*
X-122165D01*
Y87500D01*
X-123150D01*
Y86516D01*
X-126102D01*
Y85031D01*
X-126104Y84546D01*
X-126780Y83844D01*
X-127134Y83697D01*
X-127231Y83623D01*
X-125000Y81392D01*
X-122663Y83729D01*
X-122573Y84269D01*
X-122430Y84547D01*
X-120903D01*
X-120000Y84350D01*
X-119294Y84350D01*
X-118223D01*
X-117889Y83366D01*
X-118159Y83159D01*
X-118869Y82234D01*
X-119315Y81156D01*
X-119467Y80000D01*
X-119315Y78844D01*
X-118869Y77766D01*
X-118159Y76841D01*
X-117234Y76131D01*
X-116156Y75685D01*
X-115000Y75533D01*
X-113844Y75685D01*
X-112766Y76131D01*
X-111864Y76823D01*
X-110677D01*
Y73258D01*
X-111661Y72924D01*
X-111841Y73159D01*
X-112766Y73869D01*
X-113844Y74315D01*
X-115000Y74467D01*
X-116156Y74315D01*
X-117234Y73869D01*
X-118159Y73159D01*
X-118869Y72234D01*
X-119315Y71156D01*
X-119467Y70000D01*
X-119315Y68844D01*
X-118869Y67766D01*
X-118159Y66841D01*
X-117234Y66131D01*
X-116156Y65685D01*
X-115000Y65533D01*
X-113844Y65685D01*
X-112766Y66131D01*
X-111841Y66841D01*
X-111661Y67076D01*
X-110677Y66742D01*
Y63258D01*
X-111661Y62924D01*
X-111841Y63159D01*
X-112766Y63869D01*
X-113844Y64315D01*
X-115000Y64467D01*
X-116156Y64315D01*
X-117234Y63869D01*
X-118159Y63159D01*
X-118869Y62234D01*
X-119315Y61156D01*
X-119467Y60000D01*
X-119315Y58844D01*
X-118869Y57766D01*
X-118159Y56841D01*
X-117234Y56131D01*
X-116156Y55685D01*
X-115000Y55533D01*
X-113844Y55685D01*
X-112766Y56131D01*
X-111841Y56841D01*
X-111661Y57076D01*
X-110677Y56742D01*
Y53258D01*
X-111661Y52924D01*
X-111841Y53159D01*
X-112766Y53869D01*
X-113844Y54315D01*
X-115000Y54467D01*
X-116156Y54315D01*
X-117234Y53869D01*
X-118159Y53159D01*
X-118869Y52234D01*
X-119315Y51156D01*
X-119467Y50000D01*
X-119315Y48844D01*
X-118869Y47766D01*
X-118159Y46841D01*
X-117234Y46131D01*
X-116156Y45685D01*
X-115000Y45533D01*
X-113844Y45685D01*
X-112766Y46131D01*
X-111841Y46841D01*
X-111661Y47076D01*
X-110677Y46742D01*
Y43177D01*
X-111864D01*
X-112766Y43869D01*
X-113844Y44315D01*
X-115000Y44467D01*
X-116156Y44315D01*
X-117234Y43869D01*
X-118159Y43159D01*
X-118869Y42234D01*
X-119315Y41156D01*
X-119467Y40000D01*
X-119315Y38844D01*
X-118869Y37766D01*
X-118159Y36841D01*
X-117234Y36131D01*
X-116156Y35685D01*
X-115000Y35533D01*
X-113844Y35685D01*
X-112766Y36131D01*
X-111864Y36823D01*
X-110677D01*
Y33258D01*
X-111661Y32924D01*
X-111841Y33159D01*
X-112766Y33869D01*
X-113844Y34315D01*
X-115000Y34467D01*
X-116156Y34315D01*
X-117234Y33869D01*
X-118159Y33159D01*
X-118869Y32234D01*
X-119315Y31156D01*
X-119467Y30000D01*
X-119315Y28844D01*
X-118869Y27766D01*
X-118159Y26841D01*
X-117234Y26131D01*
X-116156Y25685D01*
X-115000Y25533D01*
X-113844Y25685D01*
X-112766Y26131D01*
X-111841Y26841D01*
X-111661Y27076D01*
X-110677Y26742D01*
Y23258D01*
X-111661Y22924D01*
X-111841Y23159D01*
X-112766Y23869D01*
X-113844Y24315D01*
X-115000Y24467D01*
X-116156Y24315D01*
X-117234Y23869D01*
X-118159Y23159D01*
X-118869Y22234D01*
X-119315Y21156D01*
X-119467Y20000D01*
X-119315Y18844D01*
X-118869Y17766D01*
X-118159Y16841D01*
X-117234Y16131D01*
X-116156Y15685D01*
X-115000Y15533D01*
X-113844Y15685D01*
X-112766Y16131D01*
X-111841Y16841D01*
X-111661Y17076D01*
X-110677Y16742D01*
Y13258D01*
X-111661Y12924D01*
X-111841Y13159D01*
X-112766Y13869D01*
X-113844Y14315D01*
X-115000Y14467D01*
X-116156Y14315D01*
X-117234Y13869D01*
X-118159Y13159D01*
X-118869Y12234D01*
X-119315Y11156D01*
X-119467Y10000D01*
X-119315Y8844D01*
X-118869Y7766D01*
X-118159Y6841D01*
X-117234Y6131D01*
X-116156Y5685D01*
X-115000Y5533D01*
X-113844Y5685D01*
X-112766Y6131D01*
X-111841Y6841D01*
X-111661Y7076D01*
X-110677Y6742D01*
Y3177D01*
X-111864D01*
X-112766Y3869D01*
X-113844Y4315D01*
X-115000Y4467D01*
X-116156Y4315D01*
X-117234Y3869D01*
X-118159Y3159D01*
X-118869Y2234D01*
X-119315Y1156D01*
X-119467Y0D01*
X-119315Y-1156D01*
X-118869Y-2234D01*
X-118159Y-3159D01*
X-117234Y-3869D01*
X-116156Y-4315D01*
X-115000Y-4467D01*
X-113844Y-4315D01*
X-112766Y-3869D01*
X-111864Y-3177D01*
X-110677D01*
Y-6742D01*
X-111661Y-7076D01*
X-111841Y-6841D01*
X-112766Y-6131D01*
X-113844Y-5685D01*
X-115000Y-5533D01*
X-116156Y-5685D01*
X-117234Y-6131D01*
X-118159Y-6841D01*
X-118869Y-7766D01*
X-119315Y-8844D01*
X-119467Y-10000D01*
X-119315Y-11156D01*
X-118869Y-12234D01*
X-118159Y-13159D01*
X-117234Y-13869D01*
X-116156Y-14315D01*
X-115000Y-14467D01*
X-113844Y-14315D01*
X-112766Y-13869D01*
X-111841Y-13159D01*
X-111661Y-12924D01*
X-110677Y-13258D01*
Y-16742D01*
X-111661Y-17076D01*
X-111841Y-16841D01*
X-112766Y-16131D01*
X-113844Y-15685D01*
X-115000Y-15533D01*
X-116156Y-15685D01*
X-117234Y-16131D01*
X-118159Y-16841D01*
X-118869Y-17766D01*
X-119315Y-18844D01*
X-119467Y-20000D01*
X-119315Y-21156D01*
X-118869Y-22234D01*
X-118159Y-23159D01*
X-117234Y-23869D01*
X-116156Y-24315D01*
X-115000Y-24467D01*
X-113844Y-24315D01*
X-112766Y-23869D01*
X-111841Y-23159D01*
X-111661Y-22924D01*
X-110677Y-23258D01*
Y-26742D01*
X-111661Y-27076D01*
X-111841Y-26841D01*
X-112766Y-26131D01*
X-113844Y-25685D01*
X-115000Y-25533D01*
X-116156Y-25685D01*
X-117234Y-26131D01*
X-118159Y-26841D01*
X-118869Y-27766D01*
X-119315Y-28844D01*
X-119467Y-30000D01*
X-119315Y-31156D01*
X-118869Y-32234D01*
X-118159Y-33159D01*
X-117234Y-33869D01*
X-116156Y-34315D01*
X-115000Y-34467D01*
X-113844Y-34315D01*
X-112766Y-33869D01*
X-111841Y-33159D01*
X-111661Y-32924D01*
X-110677Y-33258D01*
Y-36823D01*
X-111864D01*
X-112766Y-36131D01*
X-113844Y-35685D01*
X-115000Y-35533D01*
X-116156Y-35685D01*
X-117234Y-36131D01*
X-118159Y-36841D01*
X-118869Y-37766D01*
X-119315Y-38844D01*
X-119467Y-40000D01*
X-119315Y-41156D01*
X-118869Y-42234D01*
X-118159Y-43159D01*
X-117234Y-43869D01*
X-116156Y-44315D01*
X-115000Y-44467D01*
X-113844Y-44315D01*
X-112766Y-43869D01*
X-111864Y-43177D01*
X-110677D01*
Y-46742D01*
X-111661Y-47076D01*
X-111841Y-46841D01*
X-112766Y-46131D01*
X-113844Y-45685D01*
X-115000Y-45533D01*
X-116156Y-45685D01*
X-117234Y-46131D01*
X-118159Y-46841D01*
X-118869Y-47766D01*
X-119315Y-48844D01*
X-119467Y-50000D01*
X-119315Y-51156D01*
X-118869Y-52234D01*
X-118159Y-53159D01*
X-117234Y-53869D01*
X-116156Y-54315D01*
X-115000Y-54467D01*
X-113844Y-54315D01*
X-112766Y-53869D01*
X-111841Y-53159D01*
X-111661Y-52924D01*
X-110677Y-53258D01*
Y-56742D01*
X-111661Y-57076D01*
X-111841Y-56841D01*
X-112766Y-56131D01*
X-113844Y-55685D01*
X-115000Y-55533D01*
X-116156Y-55685D01*
X-117234Y-56131D01*
X-118159Y-56841D01*
X-118869Y-57766D01*
X-119315Y-58844D01*
X-119467Y-60000D01*
X-119315Y-61156D01*
X-118869Y-62234D01*
X-118159Y-63159D01*
X-117234Y-63869D01*
X-116156Y-64315D01*
X-115000Y-64467D01*
X-113844Y-64315D01*
X-112766Y-63869D01*
X-111841Y-63159D01*
X-111661Y-62924D01*
X-110677Y-63258D01*
Y-66742D01*
X-111661Y-67076D01*
X-111841Y-66841D01*
X-112766Y-66131D01*
X-113844Y-65685D01*
X-115000Y-65533D01*
X-116156Y-65685D01*
X-117234Y-66131D01*
X-118159Y-66841D01*
X-118869Y-67766D01*
X-119315Y-68844D01*
X-119467Y-70000D01*
X-119315Y-71156D01*
X-118869Y-72234D01*
X-118159Y-73159D01*
X-117234Y-73869D01*
X-116156Y-74315D01*
X-115000Y-74467D01*
X-113844Y-74315D01*
X-112766Y-73869D01*
X-111841Y-73159D01*
X-111661Y-72924D01*
X-110677Y-73258D01*
Y-75571D01*
X-119429D01*
Y-84429D01*
X-110677D01*
Y-86378D01*
X-111122Y-86823D01*
X-116850D01*
X-117057Y-86850D01*
X-120000Y-86850D01*
X-120903Y-87047D01*
X-122165D01*
Y-90000D01*
Y-92953D01*
X-120903D01*
X-120000Y-93150D01*
X-119294Y-93150D01*
X-117057D01*
X-116850Y-93177D01*
X-109806D01*
X-108984Y-93068D01*
X-108218Y-92751D01*
X-107560Y-92246D01*
X-105254Y-89940D01*
X-104749Y-89282D01*
X-104431Y-88516D01*
X-104323Y-87694D01*
Y-80000D01*
Y-40000D01*
Y-23598D01*
X-103420Y-23224D01*
X-103395Y-23241D01*
X-103279Y-23356D01*
X-102726Y-23726D01*
X-102654Y-23740D01*
X-102650Y-23743D01*
Y-25299D01*
X-96350D01*
Y-24316D01*
X-95366Y-23981D01*
X-94982Y-24482D01*
X-94109Y-25152D01*
X-93091Y-25574D01*
X-92000Y-25717D01*
X-90908Y-25574D01*
X-89891Y-25152D01*
X-89018Y-24482D01*
X-88348Y-23609D01*
X-87927Y-22591D01*
X-87783Y-21500D01*
X-87927Y-20409D01*
X-88348Y-19391D01*
X-89018Y-18518D01*
X-89891Y-17848D01*
X-90908Y-17426D01*
X-92000Y-17283D01*
X-93091Y-17426D01*
X-94109Y-17848D01*
X-94982Y-18518D01*
X-95366Y-19019D01*
X-96350Y-19000D01*
X-96547Y-18803D01*
Y-16835D01*
X-99500D01*
Y-15850D01*
X-100484D01*
Y-12898D01*
X-102294D01*
Y-7602D01*
X-100484D01*
Y-4650D01*
X-98516D01*
Y-7602D01*
X-96547D01*
Y-5000D01*
X-95972Y-4748D01*
X-95563Y-4725D01*
X-94982Y-5482D01*
X-94109Y-6152D01*
X-93091Y-6573D01*
X-92000Y-6717D01*
X-90908Y-6573D01*
X-89891Y-6152D01*
X-89018Y-5482D01*
X-88690Y-5055D01*
X-87706Y-5389D01*
Y-13500D01*
X-87576Y-14153D01*
X-87206Y-14706D01*
X-85206Y-16707D01*
Y-21000D01*
X-85076Y-21653D01*
X-84706Y-22206D01*
X-83706Y-23206D01*
X-83153Y-23576D01*
X-82650Y-23676D01*
Y-25299D01*
X-76350D01*
Y-24316D01*
X-75366Y-23981D01*
X-74982Y-24482D01*
X-74109Y-25152D01*
X-73092Y-25574D01*
X-72000Y-25717D01*
X-70908Y-25574D01*
X-69891Y-25152D01*
X-69018Y-24482D01*
X-68348Y-23609D01*
X-67927Y-22591D01*
X-67783Y-21500D01*
X-67927Y-20409D01*
X-68348Y-19391D01*
X-69018Y-18518D01*
X-69891Y-17848D01*
X-70908Y-17426D01*
X-72000Y-17283D01*
X-73092Y-17426D01*
X-74109Y-17848D01*
X-74982Y-18518D01*
X-75366Y-19019D01*
X-76314Y-19001D01*
X-76547Y-18803D01*
Y-16835D01*
X-79500D01*
Y-15850D01*
X-80484D01*
Y-12898D01*
X-82453D01*
Y-13349D01*
X-83362Y-13725D01*
X-84294Y-12793D01*
Y15293D01*
X-82794Y16794D01*
X-82424Y17347D01*
X-82294Y18000D01*
Y27500D01*
X-82424Y28153D01*
X-82794Y28706D01*
X-84590Y30503D01*
X-84214Y31412D01*
X-78706D01*
Y13500D01*
X-78576Y12847D01*
X-78206Y12294D01*
X-76553Y10640D01*
X-75999Y10270D01*
X-75346Y10141D01*
X-75150D01*
Y9091D01*
X-75150Y8894D01*
Y8106D01*
X-75150Y7909D01*
Y3356D01*
X-76350D01*
Y4799D01*
X-82650D01*
Y-794D01*
X-82650Y-1500D01*
X-82453Y-2403D01*
Y-3665D01*
X-79500D01*
Y-4650D01*
X-78516D01*
Y-7602D01*
X-76547D01*
Y-5000D01*
X-75972Y-4748D01*
X-75563Y-4725D01*
X-74982Y-5482D01*
X-74109Y-6152D01*
X-73092Y-6573D01*
X-72000Y-6717D01*
X-70908Y-6573D01*
X-69891Y-6152D01*
X-69018Y-5482D01*
X-68348Y-4609D01*
X-67927Y-3591D01*
X-67783Y-2500D01*
X-67927Y-1409D01*
X-68348Y-391D01*
X-69018Y482D01*
X-69891Y1152D01*
X-70047Y1216D01*
X-69851Y2201D01*
X-68850Y2201D01*
X-67948Y2398D01*
X-66484D01*
Y5350D01*
X-64516D01*
Y2398D01*
X-63686D01*
X-63576Y1847D01*
X-63206Y1294D01*
X-60706Y-1206D01*
X-60619Y-2410D01*
X-61634Y-3425D01*
Y-6575D01*
X-60059Y-8150D01*
X-55004D01*
X-54892Y-8185D01*
X-54134Y-8734D01*
Y-11266D01*
X-54892Y-11815D01*
X-55004Y-11850D01*
X-60059D01*
X-61634Y-13425D01*
Y-16575D01*
X-60059Y-18150D01*
X-55004D01*
X-54892Y-18185D01*
X-54134Y-18734D01*
Y-21265D01*
X-54892Y-21815D01*
X-55004Y-21850D01*
X-60059D01*
X-61634Y-23425D01*
Y-26575D01*
X-60059Y-28150D01*
X-55004D01*
X-54892Y-28185D01*
X-54134Y-28734D01*
Y-31266D01*
X-54892Y-31815D01*
X-55004Y-31850D01*
X-60059D01*
X-61634Y-33425D01*
Y-36575D01*
X-61748Y-36850D01*
X-65650D01*
Y-43150D01*
X-66574Y-43294D01*
X-69922D01*
X-70575Y-43424D01*
X-71128Y-43794D01*
X-75784Y-48450D01*
X-76154Y-49003D01*
X-76284Y-49656D01*
Y-66757D01*
X-80983Y-71457D01*
X-81353Y-72010D01*
X-81481Y-72655D01*
X-82085Y-72905D01*
X-82948Y-73567D01*
X-83611Y-74431D01*
X-84027Y-75437D01*
X-84170Y-76516D01*
Y-78484D01*
X-84027Y-79563D01*
X-83611Y-80569D01*
X-82948Y-81433D01*
X-82121Y-82068D01*
X-82036Y-82616D01*
X-82080Y-83044D01*
X-79304Y-85820D01*
X-80696Y-87212D01*
X-83412Y-84495D01*
X-83439Y-84530D01*
X-83836Y-85488D01*
X-83971Y-86516D01*
Y-88484D01*
X-83836Y-89512D01*
X-83439Y-90470D01*
X-83412Y-90505D01*
X-80696Y-87788D01*
X-80000Y-88484D01*
X-79304Y-87788D01*
X-76588Y-90505D01*
X-76561Y-90470D01*
X-76164Y-89512D01*
X-76029Y-88484D01*
Y-88457D01*
X-75045Y-88392D01*
X-74986Y-88836D01*
X-74471Y-90081D01*
X-73650Y-91150D01*
X-72581Y-91971D01*
X-71336Y-92486D01*
X-70000Y-92662D01*
X-68664Y-92486D01*
X-67419Y-91971D01*
X-66350Y-91150D01*
X-65529Y-90081D01*
X-65091Y-89024D01*
X-64377Y-88992D01*
X-64094Y-89061D01*
X-64027Y-89563D01*
X-63611Y-90569D01*
X-62948Y-91433D01*
X-62085Y-92095D01*
X-61079Y-92512D01*
X-60000Y-92654D01*
X-58921Y-92512D01*
X-57915Y-92095D01*
X-57052Y-91433D01*
X-56389Y-90569D01*
X-55973Y-89563D01*
X-55831Y-88484D01*
Y-86516D01*
X-55973Y-85437D01*
X-56389Y-84431D01*
X-57052Y-83567D01*
X-57699Y-83071D01*
X-57788Y-82669D01*
Y-82331D01*
X-57699Y-81929D01*
X-57052Y-81433D01*
X-56389Y-80569D01*
X-55973Y-79563D01*
X-55831Y-78484D01*
Y-76516D01*
X-55973Y-75437D01*
X-56389Y-74431D01*
X-57052Y-73567D01*
X-57915Y-72905D01*
X-58921Y-72488D01*
X-59528Y-72408D01*
X-59682Y-72190D01*
X-59173Y-71206D01*
X-56207D01*
X-53338Y-74075D01*
X-53611Y-74431D01*
X-54027Y-75437D01*
X-54169Y-76516D01*
Y-78484D01*
X-54027Y-79563D01*
X-53611Y-80569D01*
X-52948Y-81433D01*
X-52301Y-81929D01*
X-52212Y-82331D01*
Y-82669D01*
X-52301Y-83071D01*
X-52948Y-83567D01*
X-53611Y-84431D01*
X-54027Y-85437D01*
X-54169Y-86516D01*
Y-88484D01*
X-54027Y-89563D01*
X-53611Y-90569D01*
X-52948Y-91433D01*
X-52085Y-92095D01*
X-51079Y-92512D01*
X-50000Y-92654D01*
X-48921Y-92512D01*
X-47915Y-92095D01*
X-47052Y-91433D01*
X-46389Y-90569D01*
X-45973Y-89563D01*
X-45831Y-88484D01*
Y-86516D01*
X-45973Y-85437D01*
X-46389Y-84431D01*
X-47052Y-83567D01*
X-47699Y-83071D01*
X-47788Y-82669D01*
Y-82331D01*
X-47699Y-81929D01*
X-47052Y-81433D01*
X-46389Y-80569D01*
X-45973Y-79563D01*
X-45831Y-78484D01*
Y-76516D01*
X-45973Y-75437D01*
X-46389Y-74431D01*
X-47052Y-73567D01*
X-47915Y-72905D01*
X-48921Y-72488D01*
X-50000Y-72346D01*
X-50213Y-72374D01*
X-52244Y-70344D01*
X-51867Y-69434D01*
X-48978D01*
X-44066Y-74347D01*
X-44157Y-75039D01*
Y-79961D01*
X-44065Y-80654D01*
X-43798Y-81301D01*
X-43372Y-81856D01*
X-42817Y-82282D01*
X-42654Y-82349D01*
X-42632Y-82491D01*
X-40000Y-85124D01*
X-37368Y-82491D01*
X-37346Y-82349D01*
X-37183Y-82282D01*
X-36628Y-81856D01*
X-36202Y-81301D01*
X-35935Y-80654D01*
X-35843Y-79961D01*
Y-75039D01*
X-35935Y-74346D01*
X-36202Y-73699D01*
X-36628Y-73144D01*
X-37183Y-72718D01*
X-37830Y-72450D01*
X-38524Y-72359D01*
X-41228D01*
X-47065Y-66522D01*
X-47619Y-66152D01*
X-48272Y-66022D01*
X-63624D01*
X-65794Y-63852D01*
Y-62174D01*
X-64922Y-61879D01*
X-64754Y-61913D01*
X-64606Y-62106D01*
X-63989Y-62579D01*
X-63271Y-62877D01*
X-62500Y-62978D01*
X-61729Y-62877D01*
X-61224Y-62668D01*
X-63196Y-60696D01*
X-61804Y-59304D01*
X-59832Y-61276D01*
X-59623Y-60771D01*
X-59522Y-60000D01*
X-59623Y-59229D01*
X-59921Y-58511D01*
X-60394Y-57894D01*
X-60027Y-56959D01*
X-59115Y-56642D01*
X-58350Y-57085D01*
X-58147Y-57292D01*
Y-60059D01*
X-56572Y-61634D01*
X-53422D01*
X-51848Y-60059D01*
Y-55005D01*
X-51812Y-54892D01*
X-51263Y-54134D01*
X-48734D01*
X-48185Y-54892D01*
X-48150Y-55004D01*
Y-60059D01*
X-46575Y-61634D01*
X-43425D01*
X-41850Y-60059D01*
Y-55004D01*
X-41815Y-54892D01*
X-41266Y-54134D01*
X-38734D01*
X-38185Y-54892D01*
X-38150Y-55004D01*
Y-60059D01*
X-36575Y-61634D01*
X-33425D01*
X-31850Y-60059D01*
Y-55004D01*
X-31815Y-54892D01*
X-31266Y-54134D01*
X-28734D01*
X-28185Y-54892D01*
X-28150Y-55004D01*
Y-60059D01*
X-26575Y-61634D01*
X-23425D01*
X-21850Y-60059D01*
Y-55004D01*
X-21815Y-54892D01*
X-21265Y-54134D01*
X-18734D01*
X-18185Y-54892D01*
X-18150Y-55004D01*
Y-60059D01*
X-16575Y-61634D01*
X-13425D01*
X-11850Y-60059D01*
Y-55004D01*
X-11815Y-54892D01*
X-11266Y-54134D01*
X-8734D01*
X-8185Y-54892D01*
X-8150Y-55004D01*
Y-60059D01*
X-6575Y-61634D01*
X-3425D01*
X-1850Y-60059D01*
Y-55004D01*
X-1815Y-54892D01*
X-1266Y-54134D01*
X1266D01*
X1815Y-54892D01*
X1850Y-55004D01*
Y-60059D01*
X3425Y-61634D01*
X6575D01*
X8150Y-60059D01*
Y-55004D01*
X8185Y-54892D01*
X8734Y-54134D01*
X11266D01*
X11815Y-54892D01*
X11850Y-55004D01*
Y-60059D01*
X13425Y-61634D01*
X16575D01*
X18150Y-60059D01*
Y-55004D01*
X18185Y-54892D01*
X18734Y-54134D01*
X21265D01*
X21815Y-54892D01*
X21850Y-55004D01*
Y-60059D01*
X23425Y-61634D01*
X26575D01*
X28150Y-60059D01*
Y-55004D01*
X28185Y-54892D01*
X28734Y-54134D01*
X31266D01*
X31815Y-54892D01*
X31850Y-55004D01*
Y-60059D01*
X33425Y-61634D01*
X36575D01*
X38150Y-60059D01*
Y-55004D01*
X38185Y-54892D01*
X38734Y-54134D01*
X41266D01*
X41815Y-54892D01*
X41850Y-55004D01*
Y-60059D01*
X43425Y-61634D01*
X46575D01*
X48150Y-60059D01*
Y-56428D01*
X49059Y-56052D01*
X54323Y-61316D01*
Y-101823D01*
X-49294D01*
Y-99699D01*
X-48775Y-98922D01*
X-48592Y-98000D01*
X-48775Y-97078D01*
X-49297Y-96297D01*
X-50078Y-95775D01*
X-51000Y-95591D01*
X-51922Y-95775D01*
X-52703Y-96297D01*
X-53225Y-97078D01*
X-53408Y-98000D01*
X-53225Y-98922D01*
X-52706Y-99699D01*
Y-101823D01*
X-87694D01*
X-88516Y-101932D01*
X-89282Y-102249D01*
X-89940Y-102754D01*
X-92246Y-105060D01*
X-92751Y-105718D01*
X-93068Y-106484D01*
X-93177Y-107306D01*
Y-116850D01*
X-93150Y-117057D01*
X-93150Y-120000D01*
X-92953Y-120903D01*
Y-122165D01*
X-87047D01*
Y-120903D01*
X-86850Y-120000D01*
X-86850Y-119294D01*
Y-117057D01*
X-86823Y-116850D01*
Y-108622D01*
X-86378Y-108177D01*
X-83177D01*
Y-111864D01*
X-83869Y-112766D01*
X-84315Y-113844D01*
X-84467Y-115000D01*
X-84315Y-116156D01*
X-83869Y-117234D01*
X-83159Y-118159D01*
X-82234Y-118869D01*
X-81156Y-119315D01*
X-80000Y-119467D01*
X-78844Y-119315D01*
X-77766Y-118869D01*
X-76841Y-118159D01*
X-76131Y-117234D01*
X-75685Y-116156D01*
X-75533Y-115000D01*
X-75685Y-113844D01*
X-76131Y-112766D01*
X-76823Y-111864D01*
Y-108622D01*
X-76378Y-108177D01*
X-43177D01*
Y-111864D01*
X-43869Y-112766D01*
X-44315Y-113844D01*
X-44467Y-115000D01*
X-44315Y-116156D01*
X-43869Y-117234D01*
X-43159Y-118159D01*
X-42234Y-118869D01*
X-41156Y-119315D01*
X-40000Y-119467D01*
X-38844Y-119315D01*
X-37766Y-118869D01*
X-36841Y-118159D01*
X-36131Y-117234D01*
X-35685Y-116156D01*
X-35533Y-115000D01*
X-35685Y-113844D01*
X-36131Y-112766D01*
X-36823Y-111864D01*
Y-108177D01*
X-3177D01*
Y-111864D01*
X-3869Y-112766D01*
X-4315Y-113844D01*
X-4467Y-115000D01*
X-4315Y-116156D01*
X-3869Y-117234D01*
X-3159Y-118159D01*
X-2234Y-118869D01*
X-1156Y-119315D01*
X0Y-119467D01*
X1156Y-119315D01*
X2234Y-118869D01*
X3159Y-118159D01*
X3869Y-117234D01*
X4315Y-116156D01*
X4467Y-115000D01*
X4315Y-113844D01*
X3869Y-112766D01*
X3177Y-111864D01*
Y-108177D01*
X36823D01*
Y-111864D01*
X36131Y-112766D01*
X35685Y-113844D01*
X35533Y-115000D01*
X35685Y-116156D01*
X36131Y-117234D01*
X36841Y-118159D01*
X37766Y-118869D01*
X38844Y-119315D01*
X40000Y-119467D01*
X41156Y-119315D01*
X42234Y-118869D01*
X43159Y-118159D01*
X43869Y-117234D01*
X44315Y-116156D01*
X44467Y-115000D01*
X44315Y-113844D01*
X43869Y-112766D01*
X43177Y-111864D01*
Y-108177D01*
X76823D01*
Y-110571D01*
X75571D01*
Y-119429D01*
X84429D01*
Y-110571D01*
X83177D01*
Y-108177D01*
X86378D01*
X86823Y-108622D01*
Y-116850D01*
X86850Y-117057D01*
X86850Y-120000D01*
X87047Y-120903D01*
Y-122165D01*
X92953D01*
Y-120903D01*
X93150Y-120000D01*
X93150Y-119294D01*
Y-117057D01*
X93177Y-116850D01*
Y-107306D01*
X93068Y-106484D01*
X92751Y-105718D01*
X92246Y-105060D01*
X89940Y-102754D01*
X89282Y-102249D01*
X88516Y-101932D01*
X87694Y-101823D01*
X60677D01*
Y-99953D01*
X62169D01*
Y-97000D01*
Y-94047D01*
X60677D01*
Y-62677D01*
X78294D01*
Y-65801D01*
X77775Y-66578D01*
X77592Y-67500D01*
X77775Y-68422D01*
X78297Y-69203D01*
X79078Y-69725D01*
X80000Y-69908D01*
X80922Y-69725D01*
X81703Y-69203D01*
X82225Y-68422D01*
X82408Y-67500D01*
X82225Y-66578D01*
X81706Y-65801D01*
Y-62677D01*
X104323D01*
Y-80000D01*
Y-87071D01*
X104431Y-87893D01*
X104749Y-88660D01*
X105254Y-89317D01*
X108183Y-92246D01*
X108841Y-92751D01*
X109607Y-93068D01*
X110429Y-93177D01*
X116850D01*
X117057Y-93150D01*
X120000Y-93150D01*
X120903Y-92953D01*
X122165D01*
Y-90000D01*
Y-87047D01*
X120903D01*
X120000Y-86850D01*
X119294Y-86850D01*
X117057D01*
X116850Y-86823D01*
X111745D01*
X110677Y-85755D01*
Y-83177D01*
X111864D01*
X112766Y-83869D01*
X113844Y-84315D01*
X115000Y-84467D01*
X116156Y-84315D01*
X117234Y-83869D01*
X118159Y-83159D01*
X118869Y-82234D01*
X119315Y-81156D01*
X119467Y-80000D01*
X119315Y-78844D01*
X118869Y-77766D01*
X118159Y-76841D01*
X117234Y-76131D01*
X116156Y-75685D01*
X115000Y-75533D01*
X113844Y-75685D01*
X112766Y-76131D01*
X111864Y-76823D01*
X110677D01*
Y-73258D01*
X111661Y-72924D01*
X111841Y-73159D01*
X112766Y-73869D01*
X113844Y-74315D01*
X115000Y-74467D01*
X116156Y-74315D01*
X117234Y-73869D01*
X118159Y-73159D01*
X118869Y-72234D01*
X119315Y-71156D01*
X119467Y-70000D01*
X119315Y-68844D01*
X118869Y-67766D01*
X118159Y-66841D01*
X117234Y-66131D01*
X116156Y-65685D01*
X115000Y-65533D01*
X113844Y-65685D01*
X112766Y-66131D01*
X111841Y-66841D01*
X111661Y-67076D01*
X110677Y-66742D01*
Y-63258D01*
X111661Y-62924D01*
X111841Y-63159D01*
X112766Y-63869D01*
X113844Y-64315D01*
X115000Y-64467D01*
X116156Y-64315D01*
X117234Y-63869D01*
X118159Y-63159D01*
X118869Y-62234D01*
X119315Y-61156D01*
X119467Y-60000D01*
X119315Y-58844D01*
X118869Y-57766D01*
X118159Y-56841D01*
X117234Y-56131D01*
X116156Y-55685D01*
X115000Y-55533D01*
X113844Y-55685D01*
X112766Y-56131D01*
X111841Y-56841D01*
X111661Y-57076D01*
X110677Y-56742D01*
Y-53258D01*
X111661Y-52924D01*
X111841Y-53159D01*
X112766Y-53869D01*
X113844Y-54315D01*
X115000Y-54467D01*
X116156Y-54315D01*
X117234Y-53869D01*
X118159Y-53159D01*
X118869Y-52234D01*
X119315Y-51156D01*
X119467Y-50000D01*
X119315Y-48844D01*
X118869Y-47766D01*
X118159Y-46841D01*
X117234Y-46131D01*
X116156Y-45685D01*
X115000Y-45533D01*
X113844Y-45685D01*
X112766Y-46131D01*
X111841Y-46841D01*
X111661Y-47076D01*
X110677Y-46742D01*
Y-43177D01*
X111864D01*
X112766Y-43869D01*
X113844Y-44315D01*
X115000Y-44467D01*
X116156Y-44315D01*
X117234Y-43869D01*
X118159Y-43159D01*
X118869Y-42234D01*
X119315Y-41156D01*
X119467Y-40000D01*
X119315Y-38844D01*
X118869Y-37766D01*
X118159Y-36841D01*
X117234Y-36131D01*
X116156Y-35685D01*
X115000Y-35533D01*
X113844Y-35685D01*
X112766Y-36131D01*
X111864Y-36823D01*
X110677D01*
Y-33258D01*
X111661Y-32924D01*
X111841Y-33159D01*
X112766Y-33869D01*
X113844Y-34315D01*
X115000Y-34467D01*
X116156Y-34315D01*
X117234Y-33869D01*
X118159Y-33159D01*
X118869Y-32234D01*
X119315Y-31156D01*
X119467Y-30000D01*
X119315Y-28844D01*
X118869Y-27766D01*
X118159Y-26841D01*
X117234Y-26131D01*
X116156Y-25685D01*
X115000Y-25533D01*
X113844Y-25685D01*
X112766Y-26131D01*
X111841Y-26841D01*
X111661Y-27076D01*
X110677Y-26742D01*
Y-23258D01*
X111661Y-22924D01*
X111841Y-23159D01*
X112766Y-23869D01*
X113844Y-24315D01*
X115000Y-24467D01*
X116156Y-24315D01*
X117234Y-23869D01*
X118159Y-23159D01*
X118869Y-22234D01*
X119315Y-21156D01*
X119467Y-20000D01*
X119315Y-18844D01*
X118869Y-17766D01*
X118159Y-16841D01*
X117234Y-16131D01*
X116156Y-15685D01*
X115000Y-15533D01*
X113844Y-15685D01*
X112766Y-16131D01*
X111841Y-16841D01*
X111661Y-17076D01*
X110677Y-16742D01*
Y-13258D01*
X111661Y-12924D01*
X111841Y-13159D01*
X112766Y-13869D01*
X113844Y-14315D01*
X115000Y-14467D01*
X116156Y-14315D01*
X117234Y-13869D01*
X118159Y-13159D01*
X118869Y-12234D01*
X119315Y-11156D01*
X119467Y-10000D01*
X119315Y-8844D01*
X118869Y-7766D01*
X118159Y-6841D01*
X117234Y-6131D01*
X116156Y-5685D01*
X115000Y-5533D01*
X113844Y-5685D01*
X112766Y-6131D01*
X111841Y-6841D01*
X111661Y-7076D01*
X110677Y-6742D01*
Y-3177D01*
X111864D01*
X112766Y-3869D01*
X113844Y-4315D01*
X115000Y-4467D01*
X116156Y-4315D01*
X117234Y-3869D01*
X118159Y-3159D01*
X118869Y-2234D01*
X119315Y-1156D01*
X119467Y0D01*
X119315Y1156D01*
X118869Y2234D01*
X118159Y3159D01*
X117234Y3869D01*
X116156Y4315D01*
X115000Y4467D01*
X113844Y4315D01*
X112766Y3869D01*
X111864Y3177D01*
X110677D01*
Y6742D01*
X111661Y7076D01*
X111841Y6841D01*
X112766Y6131D01*
X113844Y5685D01*
X115000Y5533D01*
X116156Y5685D01*
X117234Y6131D01*
X118159Y6841D01*
X118869Y7766D01*
X119315Y8844D01*
X119467Y10000D01*
X119315Y11156D01*
X118869Y12234D01*
X118159Y13159D01*
X117234Y13869D01*
X116156Y14315D01*
X115000Y14467D01*
X113844Y14315D01*
X112766Y13869D01*
X111841Y13159D01*
X111661Y12924D01*
X110677Y13258D01*
Y16742D01*
X111661Y17076D01*
X111841Y16841D01*
X112766Y16131D01*
X113844Y15685D01*
X115000Y15533D01*
X116156Y15685D01*
X117234Y16131D01*
X118159Y16841D01*
X118869Y17766D01*
X119315Y18844D01*
X119467Y20000D01*
X119315Y21156D01*
X118869Y22234D01*
X118159Y23159D01*
X117234Y23869D01*
X116156Y24315D01*
X115000Y24467D01*
X113844Y24315D01*
X112766Y23869D01*
X111841Y23159D01*
X111661Y22924D01*
X110677Y23258D01*
Y26742D01*
X111661Y27076D01*
X111841Y26841D01*
X112766Y26131D01*
X113844Y25685D01*
X115000Y25533D01*
X116156Y25685D01*
X117234Y26131D01*
X118159Y26841D01*
X118869Y27766D01*
X119315Y28844D01*
X119467Y30000D01*
X119315Y31156D01*
X118869Y32234D01*
X118159Y33159D01*
X117234Y33869D01*
X116156Y34315D01*
X115000Y34467D01*
X113844Y34315D01*
X112766Y33869D01*
X111841Y33159D01*
X111661Y32924D01*
X110677Y33258D01*
Y36823D01*
X111864D01*
X112766Y36131D01*
X113844Y35685D01*
X115000Y35533D01*
X116156Y35685D01*
X117234Y36131D01*
X118159Y36841D01*
X118869Y37766D01*
X119315Y38844D01*
X119467Y40000D01*
X119315Y41156D01*
X118869Y42234D01*
X118159Y43159D01*
X117234Y43869D01*
X116156Y44315D01*
X115000Y44467D01*
X113844Y44315D01*
X112766Y43869D01*
X111864Y43177D01*
X110677D01*
Y46742D01*
X111661Y47076D01*
X111841Y46841D01*
X112766Y46131D01*
X113844Y45685D01*
X115000Y45533D01*
X116156Y45685D01*
X117234Y46131D01*
X118159Y46841D01*
X118869Y47766D01*
X119315Y48844D01*
X119467Y50000D01*
X119315Y51156D01*
X118869Y52234D01*
X118159Y53159D01*
X117234Y53869D01*
X116156Y54315D01*
X115000Y54467D01*
X113844Y54315D01*
X112766Y53869D01*
X111841Y53159D01*
X111661Y52924D01*
X110677Y53258D01*
Y56742D01*
X111661Y57076D01*
X111841Y56841D01*
X112766Y56131D01*
X113844Y55685D01*
X115000Y55533D01*
X116156Y55685D01*
X117234Y56131D01*
X118159Y56841D01*
X118869Y57766D01*
X119315Y58844D01*
X119467Y60000D01*
X119315Y61156D01*
X118869Y62234D01*
X118159Y63159D01*
X117234Y63869D01*
X116156Y64315D01*
X115000Y64467D01*
X113844Y64315D01*
X112766Y63869D01*
X111841Y63159D01*
X111661Y62924D01*
X110677Y63258D01*
Y66742D01*
X111661Y67076D01*
X111841Y66841D01*
X112766Y66131D01*
X113844Y65685D01*
X115000Y65533D01*
X116156Y65685D01*
X117234Y66131D01*
X118159Y66841D01*
X118869Y67766D01*
X119315Y68844D01*
X119467Y70000D01*
X119315Y71156D01*
X118869Y72234D01*
X118159Y73159D01*
X117234Y73869D01*
X116156Y74315D01*
X115000Y74467D01*
X113844Y74315D01*
X112766Y73869D01*
X111841Y73159D01*
X111661Y72924D01*
X110677Y73258D01*
Y75571D01*
X119429D01*
Y84429D01*
X110677D01*
Y86184D01*
X111316Y86823D01*
X116850D01*
X117057Y86850D01*
X120000Y86850D01*
X120903Y87047D01*
X122165D01*
Y90000D01*
Y92953D01*
X120903D01*
X120000Y93150D01*
X119294Y93150D01*
X117057D01*
X116850Y93177D01*
X110000D01*
X109178Y93068D01*
X108412Y92751D01*
X107754Y92246D01*
X105254Y89746D01*
X104749Y89088D01*
X104431Y88322D01*
X104323Y87500D01*
Y80000D01*
Y52500D01*
Y40000D01*
Y22604D01*
X104330Y22552D01*
X104323Y22500D01*
Y0D01*
Y-40000D01*
Y-56323D01*
X58316D01*
X56052Y-54059D01*
X56428Y-53150D01*
X60059D01*
X61634Y-51575D01*
Y-48425D01*
X60059Y-46850D01*
X55004D01*
X54892Y-46815D01*
X54134Y-46266D01*
Y-43734D01*
X54892Y-43185D01*
X55004Y-43150D01*
X60059D01*
X61634Y-41575D01*
Y-38425D01*
X60059Y-36850D01*
X55004D01*
X54892Y-36815D01*
X54134Y-36266D01*
Y-33734D01*
X54892Y-33185D01*
X55004Y-33150D01*
X60059D01*
X61634Y-31575D01*
Y-28425D01*
X60059Y-26850D01*
X55004D01*
X54892Y-26815D01*
X54134Y-26266D01*
Y-23734D01*
X54892Y-23185D01*
X55004Y-23150D01*
X60059D01*
X61634Y-21575D01*
Y-18425D01*
X60059Y-16850D01*
X55004D01*
X54892Y-16815D01*
X54134Y-16265D01*
Y-13735D01*
X54892Y-13185D01*
X55004Y-13150D01*
X60059D01*
X61634Y-11575D01*
Y-8425D01*
X60059Y-6850D01*
X55004D01*
X54892Y-6815D01*
X54134Y-6266D01*
Y-3734D01*
X54892Y-3185D01*
X55004Y-3150D01*
X60059D01*
X61634Y-1575D01*
Y1575D01*
X60059Y3150D01*
X55004D01*
X54892Y3185D01*
X54134Y3734D01*
Y6266D01*
X54892Y6815D01*
X55004Y6850D01*
X60059D01*
X61634Y8425D01*
Y11575D01*
X60059Y13150D01*
X55004D01*
X54892Y13185D01*
X54134Y13735D01*
Y16265D01*
X54892Y16815D01*
X55004Y16850D01*
X60059D01*
X61634Y18425D01*
Y21575D01*
X60059Y23150D01*
X55004D01*
X54892Y23185D01*
X54134Y23734D01*
Y26266D01*
X54892Y26815D01*
X55004Y26850D01*
X60059D01*
X61634Y28425D01*
Y31575D01*
X60899Y32310D01*
X60901Y32561D01*
X61240Y33360D01*
X61560Y33424D01*
X62113Y33794D01*
X63437Y35117D01*
X65724D01*
X65940Y34854D01*
X66070Y34201D01*
X66439Y33648D01*
X66993Y33278D01*
X67646Y33148D01*
X69196D01*
X69701Y33048D01*
X70899D01*
X71572Y32789D01*
X71831Y32116D01*
Y30917D01*
X71932Y30413D01*
Y29051D01*
X72062Y28399D01*
X72431Y27845D01*
X72985Y27475D01*
X73638Y27345D01*
X74410Y26495D01*
Y22982D01*
X74410Y22276D01*
X74606Y21373D01*
Y20110D01*
X80512D01*
Y21373D01*
X80709Y22276D01*
X80709Y22982D01*
Y26462D01*
X81512Y27306D01*
X82165Y27436D01*
X82502Y27661D01*
X82828Y27444D01*
X83480Y27314D01*
X84133Y27444D01*
X84687Y27813D01*
X85057Y28367D01*
X85186Y29020D01*
Y30413D01*
X85287Y30917D01*
Y32116D01*
X85546Y32789D01*
X86219Y33048D01*
X87417D01*
X87922Y33148D01*
X89535D01*
X90350Y32394D01*
Y31606D01*
X90350Y31409D01*
Y25701D01*
X90368D01*
X91135Y24716D01*
X91092Y24500D01*
X91275Y23578D01*
X91797Y22797D01*
X92578Y22275D01*
X93500Y22092D01*
X94422Y22275D01*
X95203Y22797D01*
X95725Y23578D01*
X95908Y24500D01*
X95865Y24716D01*
X96632Y25701D01*
X96650D01*
Y31409D01*
X96650Y31606D01*
Y32394D01*
X96650Y32591D01*
Y38299D01*
X95206D01*
Y39000D01*
X95076Y39653D01*
X94706Y40206D01*
X93540Y41373D01*
X93497Y42722D01*
X94265Y43490D01*
X94635Y44044D01*
X94765Y44697D01*
Y53201D01*
X96650D01*
Y54205D01*
X97293Y54333D01*
X97846Y54703D01*
X99706Y56563D01*
X100076Y57117D01*
X100206Y57770D01*
Y58801D01*
X100725Y59578D01*
X100909Y60500D01*
X100725Y61422D01*
X100203Y62203D01*
X99422Y62725D01*
X98500Y62909D01*
X97578Y62725D01*
X97437Y62631D01*
X96453Y63157D01*
Y65602D01*
X94484D01*
Y62650D01*
X92516D01*
Y65602D01*
X91437D01*
X90547Y65602D01*
X89563Y65602D01*
X88484D01*
Y62650D01*
X86516D01*
Y65602D01*
X85487D01*
X84547Y65602D01*
X83563Y65602D01*
X82534D01*
Y62650D01*
X80565D01*
Y66185D01*
X80430Y66512D01*
X107706Y93788D01*
X108076Y94342D01*
X108206Y94994D01*
Y113144D01*
X108725Y113921D01*
X108908Y114842D01*
X108725Y115764D01*
X108203Y116546D01*
X107422Y117068D01*
X106500Y117251D01*
X106357Y117222D01*
X105455Y117486D01*
X105320Y117944D01*
X105225Y118422D01*
X104703Y119203D01*
X103922Y119725D01*
X103000Y119908D01*
X102078Y119725D01*
X101297Y119203D01*
X100775Y118422D01*
X100592Y117500D01*
X100775Y116578D01*
X101294Y115801D01*
Y94707D01*
X74022Y67435D01*
X73652Y66881D01*
X73522Y66228D01*
Y52902D01*
X73652Y52249D01*
X73773Y52067D01*
X73723Y51788D01*
X73369Y51105D01*
X73306Y51047D01*
X72947Y50976D01*
X72394Y50606D01*
X72024Y50053D01*
X71894Y49400D01*
Y48949D01*
X71831Y48634D01*
Y47435D01*
X71572Y46762D01*
X70899Y46503D01*
X69701D01*
X69196Y46403D01*
X67770D01*
X62966Y51206D01*
X62727Y51366D01*
X63000Y52350D01*
X63903Y52547D01*
X65165D01*
Y55500D01*
Y58453D01*
X63903D01*
X63000Y58650D01*
X62294Y58650D01*
X61314D01*
X60629Y59634D01*
X60677Y60000D01*
Y62115D01*
X60650Y62321D01*
Y66516D01*
X60650Y67500D01*
X60752Y68442D01*
X72650D01*
X73494Y68610D01*
X74211Y69089D01*
X97561Y92439D01*
X98040Y93155D01*
X98208Y94000D01*
Y102052D01*
X98225Y102078D01*
X98409Y103000D01*
X98225Y103922D01*
X97703Y104703D01*
X96922Y105225D01*
X96000Y105409D01*
X95078Y105225D01*
X94297Y104703D01*
X93775Y103922D01*
X93591Y103000D01*
X93775Y102078D01*
X93792Y102052D01*
Y98071D01*
X92808Y97347D01*
X92500Y97408D01*
X91578Y97225D01*
X90797Y96703D01*
X90566Y96357D01*
X89434D01*
X89203Y96703D01*
X88422Y97225D01*
X87500Y97408D01*
X86578Y97225D01*
X85797Y96703D01*
X85566Y96357D01*
X84434D01*
X84203Y96703D01*
X83422Y97225D01*
X82500Y97408D01*
X81578Y97225D01*
X80797Y96703D01*
X80566Y96357D01*
X79434D01*
X79203Y96703D01*
X78422Y97225D01*
X77500Y97408D01*
X76578Y97225D01*
X75797Y96703D01*
X75566Y96357D01*
X74434D01*
X74203Y96703D01*
X73422Y97225D01*
X72500Y97408D01*
X71578Y97225D01*
X70797Y96703D01*
X70566Y96357D01*
X69434D01*
X69203Y96703D01*
X68422Y97225D01*
X67500Y97408D01*
X66578Y97225D01*
X65797Y96703D01*
X65566Y96357D01*
X64434D01*
X64203Y96703D01*
X63422Y97225D01*
X62500Y97408D01*
X61578Y97225D01*
X60797Y96703D01*
X60566Y96357D01*
X59434D01*
X59203Y96703D01*
X58422Y97225D01*
X57500Y97408D01*
X56578Y97225D01*
X55801Y96706D01*
X51699D01*
X50922Y97225D01*
X50000Y97408D01*
X49078Y97225D01*
X48297Y96703D01*
X48066Y96357D01*
X46934D01*
X46703Y96703D01*
X45922Y97225D01*
X45000Y97408D01*
X44078Y97225D01*
X43297Y96703D01*
X42775Y95922D01*
X42592Y95000D01*
X42775Y94078D01*
X43297Y93297D01*
X43409Y93222D01*
X43182Y92318D01*
X43090Y92206D01*
X41707D01*
X40863Y93049D01*
Y93537D01*
X41225Y94078D01*
X41409Y95000D01*
X41225Y95922D01*
X40703Y96703D01*
X39922Y97225D01*
X39000Y97408D01*
X38078Y97225D01*
X37297Y96703D01*
X36775Y95922D01*
X36592Y95000D01*
X36775Y94078D01*
X37297Y93297D01*
X37451Y93194D01*
Y92343D01*
X37581Y91690D01*
X37951Y91136D01*
X38391Y90696D01*
X38038Y89811D01*
X37186Y89727D01*
X34206Y92707D01*
Y93301D01*
X34725Y94078D01*
X34909Y95000D01*
X34725Y95922D01*
X34203Y96703D01*
X33422Y97225D01*
X32500Y97408D01*
X31578Y97225D01*
X30797Y96703D01*
X30275Y95922D01*
X30092Y95000D01*
X30275Y94078D01*
X30794Y93301D01*
Y92000D01*
X30924Y91347D01*
X31294Y90794D01*
X33891Y88196D01*
X33538Y87311D01*
X32686Y87227D01*
X26706Y93207D01*
Y93301D01*
X27225Y94078D01*
X27408Y95000D01*
X27225Y95922D01*
X26703Y96703D01*
X25922Y97225D01*
X25000Y97408D01*
X24078Y97225D01*
X23297Y96703D01*
X23066Y96357D01*
X21934D01*
X21703Y96703D01*
X20922Y97225D01*
X20000Y97408D01*
X19078Y97225D01*
X18297Y96703D01*
X18066Y96357D01*
X16934D01*
X16703Y96703D01*
X15922Y97225D01*
X15000Y97408D01*
X14078Y97225D01*
X13297Y96703D01*
X13066Y96357D01*
X11934D01*
X11703Y96703D01*
X10922Y97225D01*
X10000Y97408D01*
X9078Y97225D01*
X8297Y96703D01*
X7775Y95922D01*
X7592Y95000D01*
X7775Y94078D01*
X8294Y93301D01*
Y91500D01*
X8424Y90847D01*
X8794Y90294D01*
X21294Y77794D01*
X21847Y77424D01*
X22500Y77294D01*
X74886D01*
X75262Y76385D01*
X71735Y72857D01*
X60650D01*
Y73799D01*
X54350D01*
Y68484D01*
X54350Y67500D01*
X54350Y66516D01*
Y62321D01*
X54323Y62115D01*
Y61316D01*
X50754Y57746D01*
X49059Y56052D01*
X48150Y56428D01*
Y60059D01*
X46575Y61634D01*
X43425D01*
X41850Y60059D01*
Y55004D01*
X41815Y54892D01*
X41266Y54134D01*
X38734D01*
X38185Y54892D01*
X38150Y55004D01*
Y60059D01*
X36575Y61634D01*
X33425D01*
X31850Y60059D01*
Y55004D01*
X31815Y54892D01*
X31266Y54134D01*
X28734D01*
X28185Y54892D01*
X28150Y55004D01*
Y60059D01*
X26575Y61634D01*
X23425D01*
X21850Y60059D01*
Y55004D01*
X21815Y54892D01*
X21265Y54134D01*
X18734D01*
X18185Y54892D01*
X18150Y55004D01*
Y60059D01*
X16575Y61634D01*
X13425D01*
X11850Y60059D01*
Y55004D01*
X11815Y54892D01*
X11266Y54134D01*
X8734D01*
X8185Y54892D01*
X8150Y55004D01*
Y60059D01*
X6575Y61634D01*
X3425D01*
X3177Y61737D01*
Y75000D01*
Y104323D01*
X87694D01*
X88516Y104431D01*
X89282Y104749D01*
X89940Y105254D01*
X92246Y107560D01*
X92751Y108218D01*
X93068Y108984D01*
X93177Y109806D01*
Y116850D01*
X93150Y117057D01*
X93150Y120000D01*
X92953Y120903D01*
Y120984D01*
Y122165D01*
X90000D01*
X87047D01*
Y120903D01*
X86850Y120000D01*
X86850Y119294D01*
Y117057D01*
X86823Y116850D01*
Y111122D01*
X86378Y110677D01*
X83177D01*
Y111864D01*
X83869Y112766D01*
X84315Y113844D01*
X84467Y115000D01*
X84315Y116156D01*
X83869Y117234D01*
X83159Y118159D01*
X82234Y118869D01*
X81156Y119315D01*
X80000Y119467D01*
X78844Y119315D01*
X77766Y118869D01*
X76841Y118159D01*
X76131Y117234D01*
X75685Y116156D01*
X75533Y115000D01*
X75685Y113844D01*
X76131Y112766D01*
X76823Y111864D01*
Y110677D01*
X73258D01*
X72924Y111661D01*
X73159Y111841D01*
X73869Y112766D01*
X74315Y113844D01*
X74467Y115000D01*
X74315Y116156D01*
X73869Y117234D01*
X73159Y118159D01*
X72234Y118869D01*
X71156Y119315D01*
X70000Y119467D01*
X68844Y119315D01*
X67766Y118869D01*
X66841Y118159D01*
X66131Y117234D01*
X65685Y116156D01*
X65533Y115000D01*
X65685Y113844D01*
X66131Y112766D01*
X66841Y111841D01*
X67076Y111661D01*
X66742Y110677D01*
X63258D01*
X62924Y111661D01*
X63159Y111841D01*
X63869Y112766D01*
X64315Y113844D01*
X64467Y115000D01*
X64315Y116156D01*
X63869Y117234D01*
X63159Y118159D01*
X62234Y118869D01*
X61156Y119315D01*
X60000Y119467D01*
X58844Y119315D01*
X57766Y118869D01*
X56841Y118159D01*
X56131Y117234D01*
X55685Y116156D01*
X55533Y115000D01*
X55685Y113844D01*
X56131Y112766D01*
X56841Y111841D01*
X57076Y111661D01*
X56742Y110677D01*
X53258D01*
X52924Y111661D01*
X53159Y111841D01*
X53869Y112766D01*
X54315Y113844D01*
X54467Y115000D01*
X54315Y116156D01*
X53869Y117234D01*
X53159Y118159D01*
X52234Y118869D01*
X51156Y119315D01*
X50000Y119467D01*
X48844Y119315D01*
X47766Y118869D01*
X46841Y118159D01*
X46131Y117234D01*
X45685Y116156D01*
X45533Y115000D01*
X45685Y113844D01*
X46131Y112766D01*
X46841Y111841D01*
X47076Y111661D01*
X46742Y110677D01*
X43177D01*
Y111864D01*
X43869Y112766D01*
X44315Y113844D01*
X44467Y115000D01*
X44315Y116156D01*
X43869Y117234D01*
X43159Y118159D01*
X42234Y118869D01*
X41156Y119315D01*
X40000Y119467D01*
X38844Y119315D01*
X37766Y118869D01*
X36841Y118159D01*
X36131Y117234D01*
X35685Y116156D01*
X35533Y115000D01*
X35685Y113844D01*
X36131Y112766D01*
X36823Y111864D01*
Y110677D01*
X33258D01*
X32924Y111661D01*
X33159Y111841D01*
X33869Y112766D01*
X34315Y113844D01*
X34467Y115000D01*
X34315Y116156D01*
X33869Y117234D01*
X33159Y118159D01*
X32234Y118869D01*
X31156Y119315D01*
X30000Y119467D01*
X28844Y119315D01*
X27766Y118869D01*
X26841Y118159D01*
X26131Y117234D01*
X25685Y116156D01*
X25533Y115000D01*
X25685Y113844D01*
X26131Y112766D01*
X26841Y111841D01*
X27076Y111661D01*
X26742Y110677D01*
X23258D01*
X22924Y111661D01*
X23159Y111841D01*
X23869Y112766D01*
X24315Y113844D01*
X24467Y115000D01*
X24315Y116156D01*
X23869Y117234D01*
X23159Y118159D01*
X22234Y118869D01*
X21156Y119315D01*
X20000Y119467D01*
X18844Y119315D01*
X17766Y118869D01*
X16841Y118159D01*
X16131Y117234D01*
X15685Y116156D01*
X15533Y115000D01*
X15685Y113844D01*
X16131Y112766D01*
X16841Y111841D01*
X17076Y111661D01*
X16742Y110677D01*
X13258D01*
X12924Y111661D01*
X13159Y111841D01*
X13869Y112766D01*
X14315Y113844D01*
X14467Y115000D01*
X14315Y116156D01*
X13869Y117234D01*
X13159Y118159D01*
X12234Y118869D01*
X11156Y119315D01*
X10000Y119467D01*
X8844Y119315D01*
X7766Y118869D01*
X6841Y118159D01*
X6131Y117234D01*
X5685Y116156D01*
X5533Y115000D01*
X5685Y113844D01*
X6131Y112766D01*
X6841Y111841D01*
X7076Y111661D01*
X6742Y110677D01*
X3177D01*
Y111864D01*
X3869Y112766D01*
X4315Y113844D01*
X4467Y115000D01*
X4315Y116156D01*
X3869Y117234D01*
X3159Y118159D01*
X2234Y118869D01*
X1156Y119315D01*
X0Y119467D01*
X-1156Y119315D01*
X-2234Y118869D01*
X-3159Y118159D01*
X-3869Y117234D01*
X-4315Y116156D01*
X-4467Y115000D01*
X-4315Y113844D01*
X-3869Y112766D01*
X-3177Y111864D01*
Y110677D01*
X-6742D01*
X-7076Y111661D01*
X-6841Y111841D01*
X-6131Y112766D01*
X-5685Y113844D01*
X-5533Y115000D01*
X-5685Y116156D01*
X-6131Y117234D01*
X-6841Y118159D01*
X-7766Y118869D01*
X-8844Y119315D01*
X-10000Y119467D01*
X-11156Y119315D01*
X-12234Y118869D01*
X-13159Y118159D01*
X-13869Y117234D01*
X-14315Y116156D01*
X-14467Y115000D01*
X-14315Y113844D01*
X-13869Y112766D01*
X-13159Y111841D01*
X-12924Y111661D01*
X-13258Y110677D01*
X-16742D01*
X-17076Y111661D01*
X-16841Y111841D01*
X-16131Y112766D01*
X-15685Y113844D01*
X-15533Y115000D01*
X-15685Y116156D01*
X-16131Y117234D01*
X-16841Y118159D01*
X-17766Y118869D01*
X-18844Y119315D01*
X-20000Y119467D01*
X-21156Y119315D01*
X-22234Y118869D01*
X-23159Y118159D01*
X-23869Y117234D01*
X-24315Y116156D01*
X-24467Y115000D01*
X-24315Y113844D01*
X-23869Y112766D01*
X-23159Y111841D01*
X-22924Y111661D01*
X-23258Y110677D01*
X-26742D01*
X-27076Y111661D01*
X-26841Y111841D01*
X-26131Y112766D01*
X-25685Y113844D01*
X-25533Y115000D01*
X-25685Y116156D01*
X-26131Y117234D01*
X-26841Y118159D01*
X-27766Y118869D01*
X-28844Y119315D01*
X-30000Y119467D01*
X-31156Y119315D01*
X-32234Y118869D01*
X-33159Y118159D01*
X-33869Y117234D01*
X-34315Y116156D01*
X-34467Y115000D01*
X-34315Y113844D01*
X-33869Y112766D01*
X-33159Y111841D01*
X-32924Y111661D01*
X-33258Y110677D01*
X-36823D01*
Y111864D01*
X-36131Y112766D01*
X-35685Y113844D01*
X-35533Y115000D01*
X-35685Y116156D01*
X-36131Y117234D01*
X-36841Y118159D01*
X-37766Y118869D01*
X-38844Y119315D01*
X-40000Y119467D01*
X-41156Y119315D01*
X-42234Y118869D01*
X-43159Y118159D01*
X-43869Y117234D01*
X-44315Y116156D01*
X-44467Y115000D01*
X-44315Y113844D01*
X-43869Y112766D01*
X-43177Y111864D01*
Y110677D01*
X-46742D01*
X-47076Y111661D01*
X-46841Y111841D01*
X-46131Y112766D01*
X-45685Y113844D01*
X-45533Y115000D01*
X-45685Y116156D01*
X-46131Y117234D01*
X-46841Y118159D01*
X-47766Y118869D01*
X-48844Y119315D01*
X-50000Y119467D01*
X-51156Y119315D01*
X-52234Y118869D01*
X-53159Y118159D01*
X-53869Y117234D01*
X-54315Y116156D01*
X-54467Y115000D01*
X-54315Y113844D01*
X-53869Y112766D01*
X-53159Y111841D01*
X-52924Y111661D01*
X-53258Y110677D01*
X-56742D01*
X-57076Y111661D01*
X-56841Y111841D01*
X-56131Y112766D01*
X-55685Y113844D01*
X-55533Y115000D01*
X-55685Y116156D01*
X-56131Y117234D01*
X-56841Y118159D01*
X-57766Y118869D01*
X-58844Y119315D01*
X-60000Y119467D01*
X-61156Y119315D01*
X-62234Y118869D01*
X-63159Y118159D01*
X-63869Y117234D01*
X-64315Y116156D01*
X-64467Y115000D01*
X-64315Y113844D01*
X-63869Y112766D01*
X-63159Y111841D01*
X-62924Y111661D01*
X-63258Y110677D01*
X-66742D01*
X-67076Y111661D01*
X-66841Y111841D01*
X-66131Y112766D01*
X-65685Y113844D01*
X-65533Y115000D01*
X-65685Y116156D01*
X-66131Y117234D01*
X-66841Y118159D01*
X-67766Y118869D01*
X-68844Y119315D01*
X-70000Y119467D01*
X-71156Y119315D01*
X-72234Y118869D01*
X-73159Y118159D01*
X-73869Y117234D01*
X-74315Y116156D01*
X-74467Y115000D01*
X-74315Y113844D01*
X-73869Y112766D01*
X-73159Y111841D01*
X-72924Y111661D01*
X-73258Y110677D01*
X-75571D01*
Y119429D01*
X-84429D01*
Y110677D01*
X-86378D01*
X-86823Y111122D01*
Y116850D01*
X-86850Y117057D01*
X-86850Y120000D01*
X-87047Y120903D01*
Y122165D01*
D02*
G37*
G36*
X69102Y54516D02*
X67134D01*
Y52547D01*
X69102D01*
Y54516D01*
D02*
G37*
G36*
X-60984Y54102D02*
X-62953D01*
Y52134D01*
X-60984D01*
Y54102D01*
D02*
G37*
G36*
X125000Y54467D02*
X123844Y54315D01*
X122766Y53869D01*
X121841Y53159D01*
X121131Y52234D01*
X120685Y51156D01*
X120533Y50000D01*
X120685Y48844D01*
X121131Y47766D01*
X121841Y46841D01*
X122766Y46131D01*
X123844Y45685D01*
X125000Y45533D01*
X126156Y45685D01*
X127234Y46131D01*
X128159Y46841D01*
X128869Y47766D01*
X129315Y48844D01*
X129467Y50000D01*
X129315Y51156D01*
X128869Y52234D01*
X128159Y53159D01*
X127234Y53869D01*
X126156Y54315D01*
X125000Y54467D01*
D02*
G37*
G36*
X-125000D02*
X-126156Y54315D01*
X-127234Y53869D01*
X-128159Y53159D01*
X-128869Y52234D01*
X-129315Y51156D01*
X-129467Y50000D01*
X-129315Y48844D01*
X-128869Y47766D01*
X-128159Y46841D01*
X-127234Y46131D01*
X-126156Y45685D01*
X-125000Y45533D01*
X-123844Y45685D01*
X-122766Y46131D01*
X-121841Y46841D01*
X-121131Y47766D01*
X-120685Y48844D01*
X-120533Y50000D01*
X-120685Y51156D01*
X-121131Y52234D01*
X-121841Y53159D01*
X-122766Y53869D01*
X-123844Y54315D01*
X-125000Y54467D01*
D02*
G37*
G36*
Y44269D02*
X-126105Y44123D01*
X-127134Y43697D01*
X-127231Y43623D01*
X-125000Y41392D01*
X-122769Y43623D01*
X-122866Y43697D01*
X-123895Y44123D01*
X-125000Y44269D01*
D02*
G37*
G36*
X125000D02*
X123895Y44123D01*
X122866Y43697D01*
X122769Y43623D01*
X125000Y41392D01*
X127231Y43623D01*
X127134Y43697D01*
X126105Y44123D01*
X125000Y44269D01*
D02*
G37*
G36*
X-128623Y42231D02*
X-128697Y42134D01*
X-129123Y41105D01*
X-129269Y40000D01*
X-129123Y38895D01*
X-128697Y37866D01*
X-128623Y37769D01*
X-126392Y40000D01*
X-128623Y42231D01*
D02*
G37*
G36*
X-121377Y42231D02*
X-123608Y40000D01*
X-121377Y37769D01*
X-121303Y37866D01*
X-120877Y38895D01*
X-120731Y40000D01*
X-120877Y41105D01*
X-121303Y42134D01*
X-121377Y42231D01*
D02*
G37*
G36*
X128623Y42231D02*
X126392Y40000D01*
X128623Y37769D01*
X128697Y37866D01*
X129123Y38895D01*
X129269Y40000D01*
X129123Y41105D01*
X128697Y42134D01*
X128623Y42231D01*
D02*
G37*
G36*
X121377D02*
X121303Y42134D01*
X120877Y41105D01*
X120731Y40000D01*
X120877Y38895D01*
X121303Y37866D01*
X121377Y37769D01*
X123608Y40000D01*
X121377Y42231D01*
D02*
G37*
G36*
X125000Y38608D02*
X122769Y36377D01*
X122866Y36303D01*
X123895Y35877D01*
X125000Y35731D01*
X126105Y35877D01*
X127134Y36303D01*
X127231Y36377D01*
X125000Y38608D01*
D02*
G37*
G36*
X-125000D02*
X-127231Y36377D01*
X-127134Y36303D01*
X-126105Y35877D01*
X-125000Y35731D01*
X-123895Y35877D01*
X-122866Y36303D01*
X-122769Y36377D01*
X-125000Y38608D01*
D02*
G37*
G36*
X125000Y34467D02*
X123844Y34315D01*
X122766Y33869D01*
X121841Y33159D01*
X121131Y32234D01*
X120685Y31156D01*
X120533Y30000D01*
X120685Y28844D01*
X121131Y27766D01*
X121841Y26841D01*
X122766Y26131D01*
X123844Y25685D01*
X125000Y25533D01*
X126156Y25685D01*
X127234Y26131D01*
X128159Y26841D01*
X128869Y27766D01*
X129315Y28844D01*
X129467Y30000D01*
X129315Y31156D01*
X128869Y32234D01*
X128159Y33159D01*
X127234Y33869D01*
X126156Y34315D01*
X125000Y34467D01*
D02*
G37*
G36*
X-125000D02*
X-126156Y34315D01*
X-127234Y33869D01*
X-128159Y33159D01*
X-128869Y32234D01*
X-129315Y31156D01*
X-129467Y30000D01*
X-129315Y28844D01*
X-128869Y27766D01*
X-128159Y26841D01*
X-127234Y26131D01*
X-126156Y25685D01*
X-125000Y25533D01*
X-123844Y25685D01*
X-122766Y26131D01*
X-121841Y26841D01*
X-121131Y27766D01*
X-120685Y28844D01*
X-120533Y30000D01*
X-120685Y31156D01*
X-121131Y32234D01*
X-121841Y33159D01*
X-122766Y33869D01*
X-123844Y34315D01*
X-125000Y34467D01*
D02*
G37*
G36*
X80512Y18142D02*
X78543D01*
Y16173D01*
X80512D01*
Y18142D01*
D02*
G37*
G36*
X76575D02*
X74606D01*
Y16173D01*
X76575D01*
Y18142D01*
D02*
G37*
G36*
X125000Y24467D02*
X123844Y24315D01*
X122766Y23869D01*
X121841Y23159D01*
X121131Y22234D01*
X120685Y21156D01*
X120533Y20000D01*
X120685Y18844D01*
X121131Y17766D01*
X121841Y16841D01*
X122766Y16131D01*
X123844Y15685D01*
X125000Y15533D01*
X126156Y15685D01*
X127234Y16131D01*
X128159Y16841D01*
X128869Y17766D01*
X129315Y18844D01*
X129467Y20000D01*
X129315Y21156D01*
X128869Y22234D01*
X128159Y23159D01*
X127234Y23869D01*
X126156Y24315D01*
X125000Y24467D01*
D02*
G37*
G36*
X-125000D02*
X-126156Y24315D01*
X-127234Y23869D01*
X-128159Y23159D01*
X-128869Y22234D01*
X-129315Y21156D01*
X-129467Y20000D01*
X-129315Y18844D01*
X-128869Y17766D01*
X-128159Y16841D01*
X-127234Y16131D01*
X-126156Y15685D01*
X-125000Y15533D01*
X-123844Y15685D01*
X-122766Y16131D01*
X-121841Y16841D01*
X-121131Y17766D01*
X-120685Y18844D01*
X-120533Y20000D01*
X-120685Y21156D01*
X-121131Y22234D01*
X-121841Y23159D01*
X-122766Y23869D01*
X-123844Y24315D01*
X-125000Y24467D01*
D02*
G37*
G36*
X125000Y14467D02*
X123844Y14315D01*
X122766Y13869D01*
X121841Y13159D01*
X121131Y12234D01*
X120685Y11156D01*
X120533Y10000D01*
X120685Y8844D01*
X121131Y7766D01*
X121841Y6841D01*
X122766Y6131D01*
X123844Y5685D01*
X125000Y5533D01*
X126156Y5685D01*
X127234Y6131D01*
X128159Y6841D01*
X128869Y7766D01*
X129315Y8844D01*
X129467Y10000D01*
X129315Y11156D01*
X128869Y12234D01*
X128159Y13159D01*
X127234Y13869D01*
X126156Y14315D01*
X125000Y14467D01*
D02*
G37*
G36*
X-125000D02*
X-126156Y14315D01*
X-127234Y13869D01*
X-128159Y13159D01*
X-128869Y12234D01*
X-129315Y11156D01*
X-129467Y10000D01*
X-129315Y8844D01*
X-128869Y7766D01*
X-128159Y6841D01*
X-127234Y6131D01*
X-126156Y5685D01*
X-125000Y5533D01*
X-123844Y5685D01*
X-122766Y6131D01*
X-121841Y6841D01*
X-121131Y7766D01*
X-120685Y8844D01*
X-120533Y10000D01*
X-120685Y11156D01*
X-121131Y12234D01*
X-121841Y13159D01*
X-122766Y13869D01*
X-123844Y14315D01*
X-125000Y14467D01*
D02*
G37*
G36*
Y4269D02*
X-126105Y4123D01*
X-127134Y3697D01*
X-127231Y3623D01*
X-125000Y1392D01*
X-122769Y3623D01*
X-122866Y3697D01*
X-123895Y4123D01*
X-125000Y4269D01*
D02*
G37*
G36*
X125000D02*
X123895Y4123D01*
X122866Y3697D01*
X122769Y3623D01*
X125000Y1392D01*
X127231Y3623D01*
X127134Y3697D01*
X126105Y4123D01*
X125000Y4269D01*
D02*
G37*
G36*
X-128623Y2231D02*
X-128697Y2134D01*
X-129123Y1105D01*
X-129269Y0D01*
X-129123Y-1105D01*
X-128697Y-2134D01*
X-128623Y-2231D01*
X-126392Y0D01*
X-128623Y2231D01*
D02*
G37*
G36*
X-121377Y2231D02*
X-123608Y0D01*
X-121377Y-2231D01*
X-121303Y-2134D01*
X-120877Y-1105D01*
X-120731Y0D01*
X-120877Y1105D01*
X-121303Y2134D01*
X-121377Y2231D01*
D02*
G37*
G36*
X128623Y2231D02*
X126392Y0D01*
X128623Y-2231D01*
X128697Y-2134D01*
X129123Y-1105D01*
X129269Y0D01*
X129123Y1105D01*
X128697Y2134D01*
X128623Y2231D01*
D02*
G37*
G36*
X121377D02*
X121303Y2134D01*
X120877Y1105D01*
X120731Y0D01*
X120877Y-1105D01*
X121303Y-2134D01*
X121377Y-2231D01*
X123608Y0D01*
X121377Y2231D01*
D02*
G37*
G36*
X125000Y-1392D02*
X122769Y-3623D01*
X122866Y-3697D01*
X123895Y-4123D01*
X125000Y-4269D01*
X126105Y-4123D01*
X127134Y-3697D01*
X127231Y-3623D01*
X125000Y-1392D01*
D02*
G37*
G36*
X-125000D02*
X-127231Y-3623D01*
X-127134Y-3697D01*
X-126105Y-4123D01*
X-125000Y-4269D01*
X-123895Y-4123D01*
X-122866Y-3697D01*
X-122769Y-3623D01*
X-125000Y-1392D01*
D02*
G37*
G36*
X-80484Y-5634D02*
X-82453D01*
Y-7602D01*
X-80484D01*
Y-5634D01*
D02*
G37*
G36*
X125000Y-5533D02*
X123844Y-5685D01*
X122766Y-6131D01*
X121841Y-6841D01*
X121131Y-7766D01*
X120685Y-8844D01*
X120533Y-10000D01*
X120685Y-11156D01*
X121131Y-12234D01*
X121841Y-13159D01*
X122766Y-13869D01*
X123844Y-14315D01*
X125000Y-14467D01*
X126156Y-14315D01*
X127234Y-13869D01*
X128159Y-13159D01*
X128869Y-12234D01*
X129315Y-11156D01*
X129467Y-10000D01*
X129315Y-8844D01*
X128869Y-7766D01*
X128159Y-6841D01*
X127234Y-6131D01*
X126156Y-5685D01*
X125000Y-5533D01*
D02*
G37*
G36*
X-125000D02*
X-126156Y-5685D01*
X-127234Y-6131D01*
X-128159Y-6841D01*
X-128869Y-7766D01*
X-129315Y-8844D01*
X-129467Y-10000D01*
X-129315Y-11156D01*
X-128869Y-12234D01*
X-128159Y-13159D01*
X-127234Y-13869D01*
X-126156Y-14315D01*
X-125000Y-14467D01*
X-123844Y-14315D01*
X-122766Y-13869D01*
X-121841Y-13159D01*
X-121131Y-12234D01*
X-120685Y-11156D01*
X-120533Y-10000D01*
X-120685Y-8844D01*
X-121131Y-7766D01*
X-121841Y-6841D01*
X-122766Y-6131D01*
X-123844Y-5685D01*
X-125000Y-5533D01*
D02*
G37*
G36*
X-96547Y-12898D02*
X-98516D01*
Y-14866D01*
X-96547D01*
Y-12898D01*
D02*
G37*
G36*
X-76547D02*
X-78516D01*
Y-14866D01*
X-76547D01*
Y-12898D01*
D02*
G37*
G36*
X125000Y-15533D02*
X123844Y-15685D01*
X122766Y-16131D01*
X121841Y-16841D01*
X121131Y-17766D01*
X120685Y-18844D01*
X120533Y-20000D01*
X120685Y-21156D01*
X121131Y-22234D01*
X121841Y-23159D01*
X122766Y-23869D01*
X123844Y-24315D01*
X125000Y-24467D01*
X126156Y-24315D01*
X127234Y-23869D01*
X128159Y-23159D01*
X128869Y-22234D01*
X129315Y-21156D01*
X129467Y-20000D01*
X129315Y-18844D01*
X128869Y-17766D01*
X128159Y-16841D01*
X127234Y-16131D01*
X126156Y-15685D01*
X125000Y-15533D01*
D02*
G37*
G36*
X-125000D02*
X-126156Y-15685D01*
X-127234Y-16131D01*
X-128159Y-16841D01*
X-128869Y-17766D01*
X-129315Y-18844D01*
X-129467Y-20000D01*
X-129315Y-21156D01*
X-128869Y-22234D01*
X-128159Y-23159D01*
X-127234Y-23869D01*
X-126156Y-24315D01*
X-125000Y-24467D01*
X-123844Y-24315D01*
X-122766Y-23869D01*
X-121841Y-23159D01*
X-121131Y-22234D01*
X-120685Y-21156D01*
X-120533Y-20000D01*
X-120685Y-18844D01*
X-121131Y-17766D01*
X-121841Y-16841D01*
X-122766Y-16131D01*
X-123844Y-15685D01*
X-125000Y-15533D01*
D02*
G37*
G36*
X125000Y-25533D02*
X123844Y-25685D01*
X122766Y-26131D01*
X121841Y-26841D01*
X121131Y-27766D01*
X120685Y-28844D01*
X120533Y-30000D01*
X120685Y-31156D01*
X121131Y-32234D01*
X121841Y-33159D01*
X122766Y-33869D01*
X123844Y-34315D01*
X125000Y-34467D01*
X126156Y-34315D01*
X127234Y-33869D01*
X128159Y-33159D01*
X128869Y-32234D01*
X129315Y-31156D01*
X129467Y-30000D01*
X129315Y-28844D01*
X128869Y-27766D01*
X128159Y-26841D01*
X127234Y-26131D01*
X126156Y-25685D01*
X125000Y-25533D01*
D02*
G37*
G36*
X-125000D02*
X-126156Y-25685D01*
X-127234Y-26131D01*
X-128159Y-26841D01*
X-128869Y-27766D01*
X-129315Y-28844D01*
X-129467Y-30000D01*
X-129315Y-31156D01*
X-128869Y-32234D01*
X-128159Y-33159D01*
X-127234Y-33869D01*
X-126156Y-34315D01*
X-125000Y-34467D01*
X-123844Y-34315D01*
X-122766Y-33869D01*
X-121841Y-33159D01*
X-121131Y-32234D01*
X-120685Y-31156D01*
X-120533Y-30000D01*
X-120685Y-28844D01*
X-121131Y-27766D01*
X-121841Y-26841D01*
X-122766Y-26131D01*
X-123844Y-25685D01*
X-125000Y-25533D01*
D02*
G37*
G36*
Y-35731D02*
X-126105Y-35877D01*
X-127134Y-36303D01*
X-127231Y-36377D01*
X-125000Y-38608D01*
X-122769Y-36377D01*
X-122866Y-36303D01*
X-123895Y-35877D01*
X-125000Y-35731D01*
D02*
G37*
G36*
X125000D02*
X123895Y-35877D01*
X122866Y-36303D01*
X122769Y-36377D01*
X125000Y-38608D01*
X127231Y-36377D01*
X127134Y-36303D01*
X126105Y-35877D01*
X125000Y-35731D01*
D02*
G37*
G36*
X-128623Y-37769D02*
X-128697Y-37866D01*
X-129123Y-38895D01*
X-129269Y-40000D01*
X-129123Y-41105D01*
X-128697Y-42134D01*
X-128623Y-42231D01*
X-126392Y-40000D01*
X-128623Y-37769D01*
D02*
G37*
G36*
X-121377Y-37769D02*
X-123608Y-40000D01*
X-121377Y-42231D01*
X-121303Y-42134D01*
X-120877Y-41105D01*
X-120731Y-40000D01*
X-120877Y-38895D01*
X-121303Y-37866D01*
X-121377Y-37769D01*
D02*
G37*
G36*
X128623Y-37769D02*
X126392Y-40000D01*
X128623Y-42231D01*
X128697Y-42134D01*
X129123Y-41105D01*
X129269Y-40000D01*
X129123Y-38895D01*
X128697Y-37866D01*
X128623Y-37769D01*
D02*
G37*
G36*
X121377D02*
X121303Y-37866D01*
X120877Y-38895D01*
X120731Y-40000D01*
X120877Y-41105D01*
X121303Y-42134D01*
X121377Y-42231D01*
X123608Y-40000D01*
X121377Y-37769D01*
D02*
G37*
G36*
X125000Y-41392D02*
X122769Y-43623D01*
X122866Y-43697D01*
X123895Y-44123D01*
X125000Y-44269D01*
X126105Y-44123D01*
X127134Y-43697D01*
X127231Y-43623D01*
X125000Y-41392D01*
D02*
G37*
G36*
X-125000D02*
X-127231Y-43623D01*
X-127134Y-43697D01*
X-126105Y-44123D01*
X-125000Y-44269D01*
X-123895Y-44123D01*
X-122866Y-43697D01*
X-122769Y-43623D01*
X-125000Y-41392D01*
D02*
G37*
G36*
X125000Y-45533D02*
X123844Y-45685D01*
X122766Y-46131D01*
X121841Y-46841D01*
X121131Y-47766D01*
X120685Y-48844D01*
X120533Y-50000D01*
X120685Y-51156D01*
X121131Y-52234D01*
X121841Y-53159D01*
X122766Y-53869D01*
X123844Y-54315D01*
X125000Y-54467D01*
X126156Y-54315D01*
X127234Y-53869D01*
X128159Y-53159D01*
X128869Y-52234D01*
X129315Y-51156D01*
X129467Y-50000D01*
X129315Y-48844D01*
X128869Y-47766D01*
X128159Y-46841D01*
X127234Y-46131D01*
X126156Y-45685D01*
X125000Y-45533D01*
D02*
G37*
G36*
X-125000D02*
X-126156Y-45685D01*
X-127234Y-46131D01*
X-128159Y-46841D01*
X-128869Y-47766D01*
X-129315Y-48844D01*
X-129467Y-50000D01*
X-129315Y-51156D01*
X-128869Y-52234D01*
X-128159Y-53159D01*
X-127234Y-53869D01*
X-126156Y-54315D01*
X-125000Y-54467D01*
X-123844Y-54315D01*
X-122766Y-53869D01*
X-121841Y-53159D01*
X-121131Y-52234D01*
X-120685Y-51156D01*
X-120533Y-50000D01*
X-120685Y-48844D01*
X-121131Y-47766D01*
X-121841Y-46841D01*
X-122766Y-46131D01*
X-123844Y-45685D01*
X-125000Y-45533D01*
D02*
G37*
G36*
X125000Y-55533D02*
X123844Y-55685D01*
X122766Y-56131D01*
X121841Y-56841D01*
X121131Y-57766D01*
X120685Y-58844D01*
X120533Y-60000D01*
X120685Y-61156D01*
X121131Y-62234D01*
X121841Y-63159D01*
X122766Y-63869D01*
X123844Y-64315D01*
X125000Y-64467D01*
X126156Y-64315D01*
X127234Y-63869D01*
X128159Y-63159D01*
X128869Y-62234D01*
X129315Y-61156D01*
X129467Y-60000D01*
X129315Y-58844D01*
X128869Y-57766D01*
X128159Y-56841D01*
X127234Y-56131D01*
X126156Y-55685D01*
X125000Y-55533D01*
D02*
G37*
G36*
X-125000D02*
X-126156Y-55685D01*
X-127234Y-56131D01*
X-128159Y-56841D01*
X-128869Y-57766D01*
X-129315Y-58844D01*
X-129467Y-60000D01*
X-129315Y-61156D01*
X-128869Y-62234D01*
X-128159Y-63159D01*
X-127234Y-63869D01*
X-126156Y-64315D01*
X-125000Y-64467D01*
X-123844Y-64315D01*
X-122766Y-63869D01*
X-121841Y-63159D01*
X-121131Y-62234D01*
X-120685Y-61156D01*
X-120533Y-60000D01*
X-120685Y-58844D01*
X-121131Y-57766D01*
X-121841Y-56841D01*
X-122766Y-56131D01*
X-123844Y-55685D01*
X-125000Y-55533D01*
D02*
G37*
G36*
X125000Y-65533D02*
X123844Y-65685D01*
X122766Y-66131D01*
X121841Y-66841D01*
X121131Y-67766D01*
X120685Y-68844D01*
X120533Y-70000D01*
X120685Y-71156D01*
X121131Y-72234D01*
X121841Y-73159D01*
X122766Y-73869D01*
X123844Y-74315D01*
X125000Y-74467D01*
X126156Y-74315D01*
X127234Y-73869D01*
X128159Y-73159D01*
X128869Y-72234D01*
X129315Y-71156D01*
X129467Y-70000D01*
X129315Y-68844D01*
X128869Y-67766D01*
X128159Y-66841D01*
X127234Y-66131D01*
X126156Y-65685D01*
X125000Y-65533D01*
D02*
G37*
G36*
X-125000D02*
X-126156Y-65685D01*
X-127234Y-66131D01*
X-128159Y-66841D01*
X-128869Y-67766D01*
X-129315Y-68844D01*
X-129467Y-70000D01*
X-129315Y-71156D01*
X-128869Y-72234D01*
X-128159Y-73159D01*
X-127234Y-73869D01*
X-126156Y-74315D01*
X-125000Y-74467D01*
X-123844Y-74315D01*
X-122766Y-73869D01*
X-121841Y-73159D01*
X-121131Y-72234D01*
X-120685Y-71156D01*
X-120533Y-70000D01*
X-120685Y-68844D01*
X-121131Y-67766D01*
X-121841Y-66841D01*
X-122766Y-66131D01*
X-123844Y-65685D01*
X-125000Y-65533D01*
D02*
G37*
G36*
Y-75731D02*
X-126105Y-75877D01*
X-127134Y-76303D01*
X-127231Y-76377D01*
X-125000Y-78608D01*
X-122769Y-76377D01*
X-122866Y-76303D01*
X-123895Y-75877D01*
X-125000Y-75731D01*
D02*
G37*
G36*
X125000D02*
X123895Y-75877D01*
X122866Y-76303D01*
X122769Y-76377D01*
X125000Y-78608D01*
X127231Y-76377D01*
X127134Y-76303D01*
X126105Y-75877D01*
X125000Y-75731D01*
D02*
G37*
G36*
X-128623Y-77769D02*
X-128697Y-77866D01*
X-129123Y-78895D01*
X-129269Y-80000D01*
X-129123Y-81105D01*
X-128697Y-82134D01*
X-128623Y-82231D01*
X-126392Y-80000D01*
X-128623Y-77769D01*
D02*
G37*
G36*
X-121377Y-77769D02*
X-123608Y-80000D01*
X-121377Y-82231D01*
X-121303Y-82134D01*
X-120877Y-81105D01*
X-120731Y-80000D01*
X-120877Y-78895D01*
X-121303Y-77866D01*
X-121377Y-77769D01*
D02*
G37*
G36*
X128623Y-77769D02*
X126392Y-80000D01*
X128623Y-82231D01*
X128697Y-82134D01*
X129123Y-81105D01*
X129269Y-80000D01*
X129123Y-78895D01*
X128697Y-77866D01*
X128623Y-77769D01*
D02*
G37*
G36*
X121377D02*
X121303Y-77866D01*
X120877Y-78895D01*
X120731Y-80000D01*
X120877Y-81105D01*
X121303Y-82134D01*
X121377Y-82231D01*
X123608Y-80000D01*
X121377Y-77769D01*
D02*
G37*
G36*
X125000Y-81392D02*
X122769Y-83623D01*
X122866Y-83697D01*
X123895Y-84123D01*
X125000Y-84269D01*
X126105Y-84123D01*
X127134Y-83697D01*
X127231Y-83623D01*
X125000Y-81392D01*
D02*
G37*
G36*
X-125000D02*
X-127231Y-83623D01*
X-127134Y-83697D01*
X-126105Y-84123D01*
X-125000Y-84269D01*
X-123895Y-84123D01*
X-122866Y-83697D01*
X-122769Y-83623D01*
X-125000Y-81392D01*
D02*
G37*
G36*
X-36588Y-84495D02*
X-39304Y-87212D01*
X-40000Y-86516D01*
X-40696Y-87212D01*
X-43412Y-84495D01*
X-43439Y-84530D01*
X-43836Y-85488D01*
X-43971Y-86516D01*
Y-88484D01*
X-43836Y-89512D01*
X-43439Y-90470D01*
X-43412Y-90505D01*
X-40696Y-87788D01*
X-40000Y-88484D01*
X-39304Y-87788D01*
X-36588Y-90505D01*
X-36561Y-90470D01*
X-36164Y-89512D01*
X-36029Y-88484D01*
Y-86516D01*
X-36164Y-85488D01*
X-36561Y-84530D01*
X-36588Y-84495D01*
D02*
G37*
G36*
X124134Y-87047D02*
Y-89016D01*
X126102D01*
Y-87047D01*
X124134D01*
D02*
G37*
G36*
X-124134D02*
X-126102D01*
Y-89016D01*
X-124134D01*
Y-87047D01*
D02*
G37*
G36*
X100000Y-87591D02*
X99078Y-87775D01*
X98297Y-88297D01*
X97775Y-89078D01*
X97592Y-90000D01*
X97775Y-90922D01*
X98297Y-91703D01*
X99078Y-92225D01*
X100000Y-92409D01*
X100922Y-92225D01*
X101703Y-91703D01*
X102225Y-90922D01*
X102409Y-90000D01*
X102225Y-89078D01*
X101703Y-88297D01*
X100922Y-87775D01*
X100000Y-87591D01*
D02*
G37*
G36*
X-40000Y-89876D02*
X-42020Y-91896D01*
X-41985Y-91923D01*
X-41028Y-92320D01*
X-40000Y-92455D01*
X-38972Y-92320D01*
X-38015Y-91923D01*
X-37980Y-91896D01*
X-40000Y-89876D01*
D02*
G37*
G36*
X-80000D02*
X-82020Y-91896D01*
X-81985Y-91923D01*
X-81028Y-92320D01*
X-80000Y-92455D01*
X-78972Y-92320D01*
X-78014Y-91923D01*
X-77980Y-91896D01*
X-80000Y-89876D01*
D02*
G37*
G36*
X126102Y-90984D02*
X124134D01*
Y-92953D01*
X126102D01*
Y-90984D01*
D02*
G37*
G36*
X-124134D02*
X-126102D01*
Y-92953D01*
X-124134D01*
Y-90984D01*
D02*
G37*
G36*
X65909Y-94047D02*
X64138D01*
Y-96016D01*
X65909D01*
Y-94047D01*
D02*
G37*
G36*
X72799Y-93850D02*
X66894D01*
Y-100150D01*
X72799D01*
Y-99888D01*
X73089Y-99641D01*
X73783Y-99266D01*
X74500Y-99409D01*
X75422Y-99225D01*
X76203Y-98703D01*
X76725Y-97922D01*
X76908Y-97000D01*
X76725Y-96078D01*
X76203Y-95297D01*
X75422Y-94775D01*
X74500Y-94591D01*
X73783Y-94734D01*
X72799Y-94202D01*
Y-93850D01*
D02*
G37*
G36*
X65909Y-97984D02*
X64138D01*
Y-99953D01*
X65909D01*
Y-97984D01*
D02*
G37*
G36*
X120000Y-109140D02*
X118301Y-109274D01*
X116644Y-109671D01*
X115070Y-110324D01*
X113617Y-111214D01*
X113071Y-111679D01*
X120000Y-118608D01*
X126929Y-111679D01*
X126383Y-111214D01*
X124930Y-110324D01*
X123356Y-109671D01*
X121699Y-109274D01*
X120000Y-109140D01*
D02*
G37*
G36*
X-120000D02*
X-121699Y-109274D01*
X-123356Y-109671D01*
X-124930Y-110324D01*
X-126383Y-111214D01*
X-126929Y-111679D01*
X-120000Y-118608D01*
X-113071Y-111679D01*
X-113617Y-111214D01*
X-115070Y-110324D01*
X-116644Y-109671D01*
X-118301Y-109274D01*
X-120000Y-109140D01*
D02*
G37*
G36*
X70000Y-110533D02*
X68844Y-110685D01*
X67766Y-111131D01*
X66841Y-111841D01*
X66131Y-112766D01*
X65685Y-113844D01*
X65533Y-115000D01*
X65685Y-116156D01*
X66131Y-117234D01*
X66841Y-118159D01*
X67766Y-118869D01*
X68844Y-119315D01*
X70000Y-119467D01*
X71156Y-119315D01*
X72234Y-118869D01*
X73159Y-118159D01*
X73869Y-117234D01*
X74315Y-116156D01*
X74467Y-115000D01*
X74315Y-113844D01*
X73869Y-112766D01*
X73159Y-111841D01*
X72234Y-111131D01*
X71156Y-110685D01*
X70000Y-110533D01*
D02*
G37*
G36*
X60000D02*
X58844Y-110685D01*
X57766Y-111131D01*
X56841Y-111841D01*
X56131Y-112766D01*
X55685Y-113844D01*
X55533Y-115000D01*
X55685Y-116156D01*
X56131Y-117234D01*
X56841Y-118159D01*
X57766Y-118869D01*
X58844Y-119315D01*
X60000Y-119467D01*
X61156Y-119315D01*
X62234Y-118869D01*
X63159Y-118159D01*
X63869Y-117234D01*
X64315Y-116156D01*
X64467Y-115000D01*
X64315Y-113844D01*
X63869Y-112766D01*
X63159Y-111841D01*
X62234Y-111131D01*
X61156Y-110685D01*
X60000Y-110533D01*
D02*
G37*
G36*
X50000D02*
X48844Y-110685D01*
X47766Y-111131D01*
X46841Y-111841D01*
X46131Y-112766D01*
X45685Y-113844D01*
X45533Y-115000D01*
X45685Y-116156D01*
X46131Y-117234D01*
X46841Y-118159D01*
X47766Y-118869D01*
X48844Y-119315D01*
X50000Y-119467D01*
X51156Y-119315D01*
X52234Y-118869D01*
X53159Y-118159D01*
X53869Y-117234D01*
X54315Y-116156D01*
X54467Y-115000D01*
X54315Y-113844D01*
X53869Y-112766D01*
X53159Y-111841D01*
X52234Y-111131D01*
X51156Y-110685D01*
X50000Y-110533D01*
D02*
G37*
G36*
X30000D02*
X28844Y-110685D01*
X27766Y-111131D01*
X26841Y-111841D01*
X26131Y-112766D01*
X25685Y-113844D01*
X25533Y-115000D01*
X25685Y-116156D01*
X26131Y-117234D01*
X26841Y-118159D01*
X27766Y-118869D01*
X28844Y-119315D01*
X30000Y-119467D01*
X31156Y-119315D01*
X32234Y-118869D01*
X33159Y-118159D01*
X33869Y-117234D01*
X34315Y-116156D01*
X34467Y-115000D01*
X34315Y-113844D01*
X33869Y-112766D01*
X33159Y-111841D01*
X32234Y-111131D01*
X31156Y-110685D01*
X30000Y-110533D01*
D02*
G37*
G36*
X20000D02*
X18844Y-110685D01*
X17766Y-111131D01*
X16841Y-111841D01*
X16131Y-112766D01*
X15685Y-113844D01*
X15533Y-115000D01*
X15685Y-116156D01*
X16131Y-117234D01*
X16841Y-118159D01*
X17766Y-118869D01*
X18844Y-119315D01*
X20000Y-119467D01*
X21156Y-119315D01*
X22234Y-118869D01*
X23159Y-118159D01*
X23869Y-117234D01*
X24315Y-116156D01*
X24467Y-115000D01*
X24315Y-113844D01*
X23869Y-112766D01*
X23159Y-111841D01*
X22234Y-111131D01*
X21156Y-110685D01*
X20000Y-110533D01*
D02*
G37*
G36*
X10000D02*
X8844Y-110685D01*
X7766Y-111131D01*
X6841Y-111841D01*
X6131Y-112766D01*
X5685Y-113844D01*
X5533Y-115000D01*
X5685Y-116156D01*
X6131Y-117234D01*
X6841Y-118159D01*
X7766Y-118869D01*
X8844Y-119315D01*
X10000Y-119467D01*
X11156Y-119315D01*
X12234Y-118869D01*
X13159Y-118159D01*
X13869Y-117234D01*
X14315Y-116156D01*
X14467Y-115000D01*
X14315Y-113844D01*
X13869Y-112766D01*
X13159Y-111841D01*
X12234Y-111131D01*
X11156Y-110685D01*
X10000Y-110533D01*
D02*
G37*
G36*
X-10000D02*
X-11156Y-110685D01*
X-12234Y-111131D01*
X-13159Y-111841D01*
X-13869Y-112766D01*
X-14315Y-113844D01*
X-14467Y-115000D01*
X-14315Y-116156D01*
X-13869Y-117234D01*
X-13159Y-118159D01*
X-12234Y-118869D01*
X-11156Y-119315D01*
X-10000Y-119467D01*
X-8844Y-119315D01*
X-7766Y-118869D01*
X-6841Y-118159D01*
X-6131Y-117234D01*
X-5685Y-116156D01*
X-5533Y-115000D01*
X-5685Y-113844D01*
X-6131Y-112766D01*
X-6841Y-111841D01*
X-7766Y-111131D01*
X-8844Y-110685D01*
X-10000Y-110533D01*
D02*
G37*
G36*
X-20000D02*
X-21156Y-110685D01*
X-22234Y-111131D01*
X-23159Y-111841D01*
X-23869Y-112766D01*
X-24315Y-113844D01*
X-24467Y-115000D01*
X-24315Y-116156D01*
X-23869Y-117234D01*
X-23159Y-118159D01*
X-22234Y-118869D01*
X-21156Y-119315D01*
X-20000Y-119467D01*
X-18844Y-119315D01*
X-17766Y-118869D01*
X-16841Y-118159D01*
X-16131Y-117234D01*
X-15685Y-116156D01*
X-15533Y-115000D01*
X-15685Y-113844D01*
X-16131Y-112766D01*
X-16841Y-111841D01*
X-17766Y-111131D01*
X-18844Y-110685D01*
X-20000Y-110533D01*
D02*
G37*
G36*
X-30000D02*
X-31156Y-110685D01*
X-32234Y-111131D01*
X-33159Y-111841D01*
X-33869Y-112766D01*
X-34315Y-113844D01*
X-34467Y-115000D01*
X-34315Y-116156D01*
X-33869Y-117234D01*
X-33159Y-118159D01*
X-32234Y-118869D01*
X-31156Y-119315D01*
X-30000Y-119467D01*
X-28844Y-119315D01*
X-27766Y-118869D01*
X-26841Y-118159D01*
X-26131Y-117234D01*
X-25685Y-116156D01*
X-25533Y-115000D01*
X-25685Y-113844D01*
X-26131Y-112766D01*
X-26841Y-111841D01*
X-27766Y-111131D01*
X-28844Y-110685D01*
X-30000Y-110533D01*
D02*
G37*
G36*
X-50000D02*
X-51156Y-110685D01*
X-52234Y-111131D01*
X-53159Y-111841D01*
X-53869Y-112766D01*
X-54315Y-113844D01*
X-54467Y-115000D01*
X-54315Y-116156D01*
X-53869Y-117234D01*
X-53159Y-118159D01*
X-52234Y-118869D01*
X-51156Y-119315D01*
X-50000Y-119467D01*
X-48844Y-119315D01*
X-47766Y-118869D01*
X-46841Y-118159D01*
X-46131Y-117234D01*
X-45685Y-116156D01*
X-45533Y-115000D01*
X-45685Y-113844D01*
X-46131Y-112766D01*
X-46841Y-111841D01*
X-47766Y-111131D01*
X-48844Y-110685D01*
X-50000Y-110533D01*
D02*
G37*
G36*
X-60000D02*
X-61156Y-110685D01*
X-62234Y-111131D01*
X-63159Y-111841D01*
X-63869Y-112766D01*
X-64315Y-113844D01*
X-64467Y-115000D01*
X-64315Y-116156D01*
X-63869Y-117234D01*
X-63159Y-118159D01*
X-62234Y-118869D01*
X-61156Y-119315D01*
X-60000Y-119467D01*
X-58844Y-119315D01*
X-57766Y-118869D01*
X-56841Y-118159D01*
X-56131Y-117234D01*
X-55685Y-116156D01*
X-55533Y-115000D01*
X-55685Y-113844D01*
X-56131Y-112766D01*
X-56841Y-111841D01*
X-57766Y-111131D01*
X-58844Y-110685D01*
X-60000Y-110533D01*
D02*
G37*
G36*
X-70000D02*
X-71156Y-110685D01*
X-72234Y-111131D01*
X-73159Y-111841D01*
X-73869Y-112766D01*
X-74315Y-113844D01*
X-74467Y-115000D01*
X-74315Y-116156D01*
X-73869Y-117234D01*
X-73159Y-118159D01*
X-72234Y-118869D01*
X-71156Y-119315D01*
X-70000Y-119467D01*
X-68844Y-119315D01*
X-67766Y-118869D01*
X-66841Y-118159D01*
X-66131Y-117234D01*
X-65685Y-116156D01*
X-65533Y-115000D01*
X-65685Y-113844D01*
X-66131Y-112766D01*
X-66841Y-111841D01*
X-67766Y-111131D01*
X-68844Y-110685D01*
X-70000Y-110533D01*
D02*
G37*
G36*
X80000Y-120731D02*
X78895Y-120877D01*
X77866Y-121303D01*
X77769Y-121377D01*
X80000Y-123608D01*
X82231Y-121377D01*
X82134Y-121303D01*
X81105Y-120877D01*
X80000Y-120731D01*
D02*
G37*
G36*
X0D02*
X-1105Y-120877D01*
X-2134Y-121303D01*
X-2231Y-121377D01*
X0Y-123608D01*
X2231Y-121377D01*
X2134Y-121303D01*
X1105Y-120877D01*
X0Y-120731D01*
D02*
G37*
G36*
X-40000D02*
X-41105Y-120877D01*
X-42134Y-121303D01*
X-42231Y-121377D01*
X-40000Y-123608D01*
X-37769Y-121377D01*
X-37866Y-121303D01*
X-38895Y-120877D01*
X-40000Y-120731D01*
D02*
G37*
G36*
X-80000D02*
X-81105Y-120877D01*
X-82134Y-121303D01*
X-82231Y-121377D01*
X-80000Y-123608D01*
X-77769Y-121377D01*
X-77866Y-121303D01*
X-78895Y-120877D01*
X-80000Y-120731D01*
D02*
G37*
G36*
X40000D02*
X38895Y-120877D01*
X37866Y-121303D01*
X37769Y-121377D01*
X40000Y-123608D01*
X42231Y-121377D01*
X42134Y-121303D01*
X41105Y-120877D01*
X40000Y-120731D01*
D02*
G37*
G36*
X92953Y-124134D02*
X90984D01*
Y-126102D01*
X92953D01*
Y-124134D01*
D02*
G37*
G36*
X89016D02*
X87047D01*
Y-126102D01*
X89016D01*
Y-124134D01*
D02*
G37*
G36*
X-87047D02*
X-89016D01*
Y-126102D01*
X-87047D01*
Y-124134D01*
D02*
G37*
G36*
X-90984D02*
X-92953D01*
Y-126102D01*
X-90984D01*
Y-124134D01*
D02*
G37*
G36*
X128321Y-113071D02*
X121392Y-120000D01*
X128321Y-126929D01*
X128786Y-126383D01*
X129676Y-124930D01*
X130329Y-123356D01*
X130727Y-121699D01*
X130860Y-120000D01*
X130727Y-118301D01*
X130329Y-116644D01*
X129676Y-115070D01*
X128786Y-113617D01*
X128321Y-113071D01*
D02*
G37*
G36*
X-111679D02*
X-118608Y-120000D01*
X-111679Y-126929D01*
X-111214Y-126383D01*
X-110324Y-124930D01*
X-109671Y-123356D01*
X-109274Y-121699D01*
X-109140Y-120000D01*
X-109274Y-118301D01*
X-109671Y-116644D01*
X-110324Y-115070D01*
X-111214Y-113617D01*
X-111679Y-113071D01*
D02*
G37*
G36*
X111679Y-113071D02*
X111214Y-113617D01*
X110324Y-115070D01*
X109671Y-116644D01*
X109274Y-118301D01*
X109140Y-120000D01*
X109274Y-121699D01*
X109671Y-123356D01*
X110324Y-124930D01*
X111214Y-126383D01*
X111679Y-126929D01*
X118608Y-120000D01*
X111679Y-113071D01*
D02*
G37*
G36*
X-128321D02*
X-128786Y-113617D01*
X-129676Y-115070D01*
X-130329Y-116644D01*
X-130727Y-118301D01*
X-130860Y-120000D01*
X-130727Y-121699D01*
X-130329Y-123356D01*
X-129676Y-124930D01*
X-128786Y-126383D01*
X-128321Y-126929D01*
X-121392Y-120000D01*
X-128321Y-113071D01*
D02*
G37*
G36*
X-3623Y-122769D02*
X-3697Y-122866D01*
X-4123Y-123895D01*
X-4269Y-125000D01*
X-4123Y-126105D01*
X-3697Y-127134D01*
X-3623Y-127231D01*
X-1392Y-125000D01*
X-3623Y-122769D01*
D02*
G37*
G36*
X-43623D02*
X-43697Y-122866D01*
X-44123Y-123895D01*
X-44269Y-125000D01*
X-44123Y-126105D01*
X-43697Y-127134D01*
X-43623Y-127231D01*
X-41392Y-125000D01*
X-43623Y-122769D01*
D02*
G37*
G36*
X-83623D02*
X-83697Y-122866D01*
X-84123Y-123895D01*
X-84269Y-125000D01*
X-84123Y-126105D01*
X-83697Y-127134D01*
X-83623Y-127231D01*
X-81392Y-125000D01*
X-83623Y-122769D01*
D02*
G37*
G36*
X76377D02*
X76303Y-122866D01*
X75877Y-123895D01*
X75731Y-125000D01*
X75877Y-126105D01*
X76303Y-127134D01*
X76377Y-127231D01*
X78608Y-125000D01*
X76377Y-122769D01*
D02*
G37*
G36*
X36377D02*
X36303Y-122866D01*
X35877Y-123895D01*
X35731Y-125000D01*
X35877Y-126105D01*
X36303Y-127134D01*
X36377Y-127231D01*
X38608Y-125000D01*
X36377Y-122769D01*
D02*
G37*
G36*
X3623D02*
X1392Y-125000D01*
X3623Y-127231D01*
X3697Y-127134D01*
X4123Y-126105D01*
X4269Y-125000D01*
X4123Y-123895D01*
X3697Y-122866D01*
X3623Y-122769D01*
D02*
G37*
G36*
X83623D02*
X81392Y-125000D01*
X83623Y-127231D01*
X83697Y-127134D01*
X84123Y-126105D01*
X84269Y-125000D01*
X84123Y-123895D01*
X83697Y-122866D01*
X83623Y-122769D01*
D02*
G37*
G36*
X43623D02*
X41392Y-125000D01*
X43623Y-127231D01*
X43697Y-127134D01*
X44123Y-126105D01*
X44269Y-125000D01*
X44123Y-123895D01*
X43697Y-122866D01*
X43623Y-122769D01*
D02*
G37*
G36*
X-36377D02*
X-38608Y-125000D01*
X-36377Y-127231D01*
X-36303Y-127134D01*
X-35877Y-126105D01*
X-35731Y-125000D01*
X-35877Y-123895D01*
X-36303Y-122866D01*
X-36377Y-122769D01*
D02*
G37*
G36*
X-76377D02*
X-78608Y-125000D01*
X-76377Y-127231D01*
X-76303Y-127134D01*
X-75877Y-126105D01*
X-75731Y-125000D01*
X-75877Y-123895D01*
X-76303Y-122866D01*
X-76377Y-122769D01*
D02*
G37*
G36*
X80000Y-126392D02*
X77769Y-128623D01*
X77866Y-128697D01*
X78895Y-129123D01*
X80000Y-129269D01*
X81105Y-129123D01*
X82134Y-128697D01*
X82231Y-128623D01*
X80000Y-126392D01*
D02*
G37*
G36*
X40000D02*
X37769Y-128623D01*
X37866Y-128697D01*
X38895Y-129123D01*
X40000Y-129269D01*
X41105Y-129123D01*
X42134Y-128697D01*
X42231Y-128623D01*
X40000Y-126392D01*
D02*
G37*
G36*
X0D02*
X-2231Y-128623D01*
X-2134Y-128697D01*
X-1105Y-129123D01*
X0Y-129269D01*
X1105Y-129123D01*
X2134Y-128697D01*
X2231Y-128623D01*
X0Y-126392D01*
D02*
G37*
G36*
X-40000D02*
X-42231Y-128623D01*
X-42134Y-128697D01*
X-41105Y-129123D01*
X-40000Y-129269D01*
X-38895Y-129123D01*
X-37866Y-128697D01*
X-37769Y-128623D01*
X-40000Y-126392D01*
D02*
G37*
G36*
X-80000D02*
X-82231Y-128623D01*
X-82134Y-128697D01*
X-81105Y-129123D01*
X-80000Y-129269D01*
X-78895Y-129123D01*
X-77866Y-128697D01*
X-77769Y-128623D01*
X-80000Y-126392D01*
D02*
G37*
G36*
X70000Y-120533D02*
X68844Y-120685D01*
X67766Y-121131D01*
X66841Y-121841D01*
X66131Y-122766D01*
X65685Y-123844D01*
X65533Y-125000D01*
X65685Y-126156D01*
X66131Y-127234D01*
X66841Y-128159D01*
X67766Y-128869D01*
X68844Y-129315D01*
X70000Y-129467D01*
X71156Y-129315D01*
X72234Y-128869D01*
X73159Y-128159D01*
X73869Y-127234D01*
X74315Y-126156D01*
X74467Y-125000D01*
X74315Y-123844D01*
X73869Y-122766D01*
X73159Y-121841D01*
X72234Y-121131D01*
X71156Y-120685D01*
X70000Y-120533D01*
D02*
G37*
G36*
X60000D02*
X58844Y-120685D01*
X57766Y-121131D01*
X56841Y-121841D01*
X56131Y-122766D01*
X55685Y-123844D01*
X55533Y-125000D01*
X55685Y-126156D01*
X56131Y-127234D01*
X56841Y-128159D01*
X57766Y-128869D01*
X58844Y-129315D01*
X60000Y-129467D01*
X61156Y-129315D01*
X62234Y-128869D01*
X63159Y-128159D01*
X63869Y-127234D01*
X64315Y-126156D01*
X64467Y-125000D01*
X64315Y-123844D01*
X63869Y-122766D01*
X63159Y-121841D01*
X62234Y-121131D01*
X61156Y-120685D01*
X60000Y-120533D01*
D02*
G37*
G36*
X50000D02*
X48844Y-120685D01*
X47766Y-121131D01*
X46841Y-121841D01*
X46131Y-122766D01*
X45685Y-123844D01*
X45533Y-125000D01*
X45685Y-126156D01*
X46131Y-127234D01*
X46841Y-128159D01*
X47766Y-128869D01*
X48844Y-129315D01*
X50000Y-129467D01*
X51156Y-129315D01*
X52234Y-128869D01*
X53159Y-128159D01*
X53869Y-127234D01*
X54315Y-126156D01*
X54467Y-125000D01*
X54315Y-123844D01*
X53869Y-122766D01*
X53159Y-121841D01*
X52234Y-121131D01*
X51156Y-120685D01*
X50000Y-120533D01*
D02*
G37*
G36*
X30000D02*
X28844Y-120685D01*
X27766Y-121131D01*
X26841Y-121841D01*
X26131Y-122766D01*
X25685Y-123844D01*
X25533Y-125000D01*
X25685Y-126156D01*
X26131Y-127234D01*
X26841Y-128159D01*
X27766Y-128869D01*
X28844Y-129315D01*
X30000Y-129467D01*
X31156Y-129315D01*
X32234Y-128869D01*
X33159Y-128159D01*
X33869Y-127234D01*
X34315Y-126156D01*
X34467Y-125000D01*
X34315Y-123844D01*
X33869Y-122766D01*
X33159Y-121841D01*
X32234Y-121131D01*
X31156Y-120685D01*
X30000Y-120533D01*
D02*
G37*
G36*
X20000D02*
X18844Y-120685D01*
X17766Y-121131D01*
X16841Y-121841D01*
X16131Y-122766D01*
X15685Y-123844D01*
X15533Y-125000D01*
X15685Y-126156D01*
X16131Y-127234D01*
X16841Y-128159D01*
X17766Y-128869D01*
X18844Y-129315D01*
X20000Y-129467D01*
X21156Y-129315D01*
X22234Y-128869D01*
X23159Y-128159D01*
X23869Y-127234D01*
X24315Y-126156D01*
X24467Y-125000D01*
X24315Y-123844D01*
X23869Y-122766D01*
X23159Y-121841D01*
X22234Y-121131D01*
X21156Y-120685D01*
X20000Y-120533D01*
D02*
G37*
G36*
X10000D02*
X8844Y-120685D01*
X7766Y-121131D01*
X6841Y-121841D01*
X6131Y-122766D01*
X5685Y-123844D01*
X5533Y-125000D01*
X5685Y-126156D01*
X6131Y-127234D01*
X6841Y-128159D01*
X7766Y-128869D01*
X8844Y-129315D01*
X10000Y-129467D01*
X11156Y-129315D01*
X12234Y-128869D01*
X13159Y-128159D01*
X13869Y-127234D01*
X14315Y-126156D01*
X14467Y-125000D01*
X14315Y-123844D01*
X13869Y-122766D01*
X13159Y-121841D01*
X12234Y-121131D01*
X11156Y-120685D01*
X10000Y-120533D01*
D02*
G37*
G36*
X-10000D02*
X-11156Y-120685D01*
X-12234Y-121131D01*
X-13159Y-121841D01*
X-13869Y-122766D01*
X-14315Y-123844D01*
X-14467Y-125000D01*
X-14315Y-126156D01*
X-13869Y-127234D01*
X-13159Y-128159D01*
X-12234Y-128869D01*
X-11156Y-129315D01*
X-10000Y-129467D01*
X-8844Y-129315D01*
X-7766Y-128869D01*
X-6841Y-128159D01*
X-6131Y-127234D01*
X-5685Y-126156D01*
X-5533Y-125000D01*
X-5685Y-123844D01*
X-6131Y-122766D01*
X-6841Y-121841D01*
X-7766Y-121131D01*
X-8844Y-120685D01*
X-10000Y-120533D01*
D02*
G37*
G36*
X-20000D02*
X-21156Y-120685D01*
X-22234Y-121131D01*
X-23159Y-121841D01*
X-23869Y-122766D01*
X-24315Y-123844D01*
X-24467Y-125000D01*
X-24315Y-126156D01*
X-23869Y-127234D01*
X-23159Y-128159D01*
X-22234Y-128869D01*
X-21156Y-129315D01*
X-20000Y-129467D01*
X-18844Y-129315D01*
X-17766Y-128869D01*
X-16841Y-128159D01*
X-16131Y-127234D01*
X-15685Y-126156D01*
X-15533Y-125000D01*
X-15685Y-123844D01*
X-16131Y-122766D01*
X-16841Y-121841D01*
X-17766Y-121131D01*
X-18844Y-120685D01*
X-20000Y-120533D01*
D02*
G37*
G36*
X-30000D02*
X-31156Y-120685D01*
X-32234Y-121131D01*
X-33159Y-121841D01*
X-33869Y-122766D01*
X-34315Y-123844D01*
X-34467Y-125000D01*
X-34315Y-126156D01*
X-33869Y-127234D01*
X-33159Y-128159D01*
X-32234Y-128869D01*
X-31156Y-129315D01*
X-30000Y-129467D01*
X-28844Y-129315D01*
X-27766Y-128869D01*
X-26841Y-128159D01*
X-26131Y-127234D01*
X-25685Y-126156D01*
X-25533Y-125000D01*
X-25685Y-123844D01*
X-26131Y-122766D01*
X-26841Y-121841D01*
X-27766Y-121131D01*
X-28844Y-120685D01*
X-30000Y-120533D01*
D02*
G37*
G36*
X-50000D02*
X-51156Y-120685D01*
X-52234Y-121131D01*
X-53159Y-121841D01*
X-53869Y-122766D01*
X-54315Y-123844D01*
X-54467Y-125000D01*
X-54315Y-126156D01*
X-53869Y-127234D01*
X-53159Y-128159D01*
X-52234Y-128869D01*
X-51156Y-129315D01*
X-50000Y-129467D01*
X-48844Y-129315D01*
X-47766Y-128869D01*
X-46841Y-128159D01*
X-46131Y-127234D01*
X-45685Y-126156D01*
X-45533Y-125000D01*
X-45685Y-123844D01*
X-46131Y-122766D01*
X-46841Y-121841D01*
X-47766Y-121131D01*
X-48844Y-120685D01*
X-50000Y-120533D01*
D02*
G37*
G36*
X-60000D02*
X-61156Y-120685D01*
X-62234Y-121131D01*
X-63159Y-121841D01*
X-63869Y-122766D01*
X-64315Y-123844D01*
X-64467Y-125000D01*
X-64315Y-126156D01*
X-63869Y-127234D01*
X-63159Y-128159D01*
X-62234Y-128869D01*
X-61156Y-129315D01*
X-60000Y-129467D01*
X-58844Y-129315D01*
X-57766Y-128869D01*
X-56841Y-128159D01*
X-56131Y-127234D01*
X-55685Y-126156D01*
X-55533Y-125000D01*
X-55685Y-123844D01*
X-56131Y-122766D01*
X-56841Y-121841D01*
X-57766Y-121131D01*
X-58844Y-120685D01*
X-60000Y-120533D01*
D02*
G37*
G36*
X-70000D02*
X-71156Y-120685D01*
X-72234Y-121131D01*
X-73159Y-121841D01*
X-73869Y-122766D01*
X-74315Y-123844D01*
X-74467Y-125000D01*
X-74315Y-126156D01*
X-73869Y-127234D01*
X-73159Y-128159D01*
X-72234Y-128869D01*
X-71156Y-129315D01*
X-70000Y-129467D01*
X-68844Y-129315D01*
X-67766Y-128869D01*
X-66841Y-128159D01*
X-66131Y-127234D01*
X-65685Y-126156D01*
X-65533Y-125000D01*
X-65685Y-123844D01*
X-66131Y-122766D01*
X-66841Y-121841D01*
X-67766Y-121131D01*
X-68844Y-120685D01*
X-70000Y-120533D01*
D02*
G37*
G36*
X120000Y-121392D02*
X113071Y-128321D01*
X113617Y-128786D01*
X115070Y-129676D01*
X116644Y-130329D01*
X118301Y-130727D01*
X120000Y-130860D01*
X121699Y-130727D01*
X123356Y-130329D01*
X124930Y-129676D01*
X126383Y-128786D01*
X126929Y-128321D01*
X120000Y-121392D01*
D02*
G37*
G36*
X-120000D02*
X-126929Y-128321D01*
X-126383Y-128786D01*
X-124930Y-129676D01*
X-123356Y-130329D01*
X-121699Y-130727D01*
X-120000Y-130860D01*
X-118301Y-130727D01*
X-116644Y-130329D01*
X-115070Y-129676D01*
X-113617Y-128786D01*
X-113071Y-128321D01*
X-120000Y-121392D01*
D02*
G37*
%LPD*%
G36*
X26815Y52608D02*
X26850Y52496D01*
Y47441D01*
X27374Y46917D01*
X26998Y46008D01*
X26398D01*
Y44039D01*
X29350D01*
Y42071D01*
X26398D01*
Y41398D01*
X26398Y40986D01*
X25676Y40413D01*
X25542Y40413D01*
X24429D01*
Y35098D01*
X26398D01*
Y39118D01*
X26398Y39530D01*
X27119Y40102D01*
X27253Y40102D01*
X29350D01*
Y34321D01*
X29323Y34114D01*
Y17382D01*
X24823D01*
Y13216D01*
X24539D01*
X23870Y13128D01*
X23500Y13177D01*
X18177D01*
Y20000D01*
X18068Y20822D01*
X17751Y21588D01*
X17246Y22246D01*
X17208Y22276D01*
Y23701D01*
X18150D01*
Y29294D01*
X18150Y30000D01*
X17953Y30903D01*
Y32165D01*
X15000D01*
X12047D01*
Y30903D01*
X11850Y30000D01*
X11850Y29294D01*
Y23701D01*
X12792D01*
Y22276D01*
X12754Y22246D01*
X12249Y21588D01*
X11931Y20822D01*
X11823Y20000D01*
Y13177D01*
X10150D01*
Y17794D01*
X10150Y18500D01*
X9953Y19403D01*
Y20665D01*
X7000D01*
X4047D01*
Y19403D01*
X3850Y18500D01*
X3850Y17794D01*
Y13177D01*
X677D01*
Y29646D01*
X569Y30468D01*
X251Y31234D01*
X-254Y31892D01*
X-1823Y33461D01*
Y43500D01*
Y45763D01*
X-1575Y45866D01*
X1575D01*
X3150Y47441D01*
Y52496D01*
X3185Y52608D01*
X3734Y53366D01*
X6266D01*
X6815Y52608D01*
X6850Y52496D01*
Y47441D01*
X8425Y45866D01*
X11575D01*
X13150Y47441D01*
Y52496D01*
X13185Y52608D01*
X13735Y53366D01*
X16265D01*
X16815Y52608D01*
X16850Y52496D01*
Y47441D01*
X18425Y45866D01*
X21575D01*
X23150Y47441D01*
Y52496D01*
X23185Y52608D01*
X23734Y53366D01*
X26266D01*
X26815Y52608D01*
D02*
G37*
G36*
X-66562Y40839D02*
X-66568Y40822D01*
X-66677Y40000D01*
X-66568Y39178D01*
X-66251Y38412D01*
X-66753Y37449D01*
X-74004D01*
Y34824D01*
X-86996D01*
Y34890D01*
X-87193D01*
Y37252D01*
X-90441D01*
Y35677D01*
X-92409D01*
Y37252D01*
X-95657D01*
X-96350Y37949D01*
Y39799D01*
X-102650D01*
Y34091D01*
X-102650Y33894D01*
X-102650D01*
Y33106D01*
X-102650D01*
Y27201D01*
X-102054D01*
X-101528Y26217D01*
X-101725Y25922D01*
X-101909Y25000D01*
X-101725Y24078D01*
X-101203Y23297D01*
X-100422Y22775D01*
X-100562Y21799D01*
X-102650D01*
Y20994D01*
X-103460Y20636D01*
X-104323Y21153D01*
Y40000D01*
Y41823D01*
X-67219D01*
X-66562Y40839D01*
D02*
G37*
G36*
X-8177Y32146D02*
X-8068Y31324D01*
X-7751Y30557D01*
X-7246Y29899D01*
X-5677Y28330D01*
Y13177D01*
X-11823D01*
Y20000D01*
X-11931Y20822D01*
X-12249Y21588D01*
X-12754Y22246D01*
X-12792Y22276D01*
Y23701D01*
X-11850D01*
Y29294D01*
X-11850Y30000D01*
X-12047Y30903D01*
Y32165D01*
X-15000D01*
X-17953D01*
Y30903D01*
X-18150Y30000D01*
X-18150Y29294D01*
Y23701D01*
X-17208D01*
Y22276D01*
X-17246Y22246D01*
X-17751Y21588D01*
X-18068Y20822D01*
X-18177Y20000D01*
Y13796D01*
X-18950Y13520D01*
X-19617Y14259D01*
X-19555Y14728D01*
Y15516D01*
X-24500D01*
X-29445D01*
Y14728D01*
X-29367Y14134D01*
X-29438Y13893D01*
X-30000Y13150D01*
X-30197Y12953D01*
X-32165D01*
Y10000D01*
X-34134D01*
Y12953D01*
X-34557D01*
X-35214Y13937D01*
X-35206Y13958D01*
X-35104Y14728D01*
Y18272D01*
X-35206Y19042D01*
X-35503Y19761D01*
X-35977Y20378D01*
X-36594Y20851D01*
X-37312Y21148D01*
X-38083Y21250D01*
X-42413D01*
X-43184Y21148D01*
X-43903Y20851D01*
X-44519Y20378D01*
X-44882Y19905D01*
X-45426Y19965D01*
X-45866Y20173D01*
Y21575D01*
X-47441Y23150D01*
X-52496D01*
X-52608Y23185D01*
X-53366Y23734D01*
Y26266D01*
X-52608Y26815D01*
X-52496Y26850D01*
X-47441D01*
X-45866Y28425D01*
Y31575D01*
X-47441Y33150D01*
X-52496D01*
X-52608Y33185D01*
X-53366Y33734D01*
Y36266D01*
X-52608Y36815D01*
X-52496Y36850D01*
X-47441D01*
X-46376Y37916D01*
X-45392Y37508D01*
Y34413D01*
X-45290Y33643D01*
X-44993Y32924D01*
X-44519Y32307D01*
X-43903Y31834D01*
X-43184Y31537D01*
X-42413Y31435D01*
X-38083D01*
X-37312Y31537D01*
X-36594Y31834D01*
X-35977Y32307D01*
X-35503Y32924D01*
X-35206Y33643D01*
X-35104Y34413D01*
Y34479D01*
X-29618D01*
Y31461D01*
X-19382D01*
Y40323D01*
X-8177D01*
Y32146D01*
D02*
G37*
G36*
X24823Y6039D02*
Y4390D01*
X39323D01*
Y-17823D01*
X33150D01*
X32943Y-17850D01*
X30000Y-17850D01*
X29097Y-18047D01*
X27835D01*
Y-21000D01*
Y-23953D01*
X29097D01*
X30000Y-24150D01*
X30706Y-24150D01*
X32943D01*
X33150Y-24177D01*
X39323D01*
Y-41787D01*
X39432Y-42609D01*
X39749Y-43375D01*
X40254Y-44033D01*
X40745Y-44524D01*
Y-45866D01*
X38425D01*
X36850Y-47441D01*
Y-52496D01*
X36815Y-52608D01*
X36266Y-53366D01*
X33734D01*
X33185Y-52608D01*
X33150Y-52496D01*
Y-47441D01*
X31575Y-45866D01*
X28425D01*
X26850Y-47441D01*
Y-52496D01*
X26815Y-52608D01*
X26266Y-53366D01*
X23734D01*
X23185Y-52608D01*
X23150Y-52496D01*
Y-47441D01*
X21575Y-45866D01*
X18425D01*
X16850Y-47441D01*
Y-52496D01*
X16815Y-52608D01*
X16265Y-53366D01*
X13735D01*
X13185Y-52608D01*
X13150Y-52496D01*
Y-47441D01*
X11575Y-45866D01*
X8425D01*
X6850Y-47441D01*
Y-52496D01*
X6815Y-52608D01*
X6266Y-53366D01*
X3734D01*
X3185Y-52608D01*
X3150Y-52496D01*
Y-47441D01*
X1575Y-45866D01*
X-1575D01*
X-3150Y-47441D01*
Y-52496D01*
X-3185Y-52608D01*
X-3734Y-53366D01*
X-6266D01*
X-6815Y-52608D01*
X-6850Y-52496D01*
Y-47441D01*
X-8425Y-45866D01*
X-11575D01*
X-13150Y-47441D01*
Y-52496D01*
X-13185Y-52608D01*
X-13735Y-53366D01*
X-16265D01*
X-16815Y-52608D01*
X-16850Y-52496D01*
Y-47441D01*
X-18425Y-45866D01*
X-21575D01*
X-23150Y-47441D01*
Y-52496D01*
X-23185Y-52608D01*
X-23734Y-53366D01*
X-26266D01*
X-26815Y-52608D01*
X-26850Y-52496D01*
Y-47441D01*
X-28425Y-45866D01*
X-31575D01*
X-33150Y-47441D01*
Y-52496D01*
X-33185Y-52608D01*
X-33734Y-53366D01*
X-36266D01*
X-36815Y-52608D01*
X-36850Y-52496D01*
Y-47441D01*
X-38425Y-45866D01*
X-40062D01*
X-40469Y-44882D01*
X-30495Y-34907D01*
X-29578Y-34725D01*
X-28797Y-34203D01*
X-28275Y-33422D01*
X-28185Y-32971D01*
X-27745Y-32531D01*
X-27192Y-32421D01*
X-26638Y-32051D01*
X-24812Y-30224D01*
X-24442Y-29671D01*
X-24368Y-29299D01*
X-22350D01*
Y-23591D01*
X-22350Y-23394D01*
Y-22606D01*
X-21672Y-21706D01*
X-17661D01*
X-17246Y-22246D01*
X-17208Y-22276D01*
Y-23701D01*
X-18150D01*
Y-29294D01*
X-18150Y-30000D01*
X-17953Y-30903D01*
Y-32165D01*
X-12047D01*
Y-30903D01*
X-11850Y-30000D01*
X-11850Y-29294D01*
Y-23701D01*
X-12792D01*
Y-22276D01*
X-12754Y-22246D01*
X-12249Y-21588D01*
X-11931Y-20822D01*
X-11823Y-20000D01*
Y-19816D01*
X-10684Y-18677D01*
X-10500D01*
X-9678Y-18568D01*
X-8912Y-18251D01*
X-8254Y-17746D01*
X-254Y-9746D01*
X5914Y-3579D01*
X6823Y-3955D01*
Y-20000D01*
X6932Y-20822D01*
X7249Y-21588D01*
X7754Y-22246D01*
X7792Y-22276D01*
Y-23701D01*
X6850D01*
Y-29294D01*
X6850Y-30000D01*
X7047Y-30903D01*
Y-32165D01*
X12953D01*
Y-30903D01*
X13150Y-30000D01*
X13150Y-29294D01*
Y-23701D01*
X12208D01*
Y-22276D01*
X12246Y-22246D01*
X12751Y-21588D01*
X13069Y-20822D01*
X13177Y-20000D01*
Y-11455D01*
X14086Y-11079D01*
X15254Y-12246D01*
X15912Y-12751D01*
X16678Y-13069D01*
X17500Y-13177D01*
X20000D01*
X20822Y-13069D01*
X21588Y-12751D01*
X22246Y-12246D01*
X22276Y-12208D01*
X23701D01*
Y-13150D01*
X29294D01*
X30000Y-13150D01*
X30903Y-12953D01*
X32165D01*
Y-10000D01*
Y-7047D01*
X30903D01*
X30000Y-6850D01*
X29294Y-6850D01*
X23701D01*
Y-7792D01*
X22276D01*
X22246Y-7754D01*
X21588Y-7249D01*
X20822Y-6932D01*
X20000Y-6823D01*
X18816D01*
X13177Y-1184D01*
Y3684D01*
X15839Y6346D01*
X16823Y5939D01*
Y0D01*
X16931Y-822D01*
X17249Y-1588D01*
X17754Y-2246D01*
X18412Y-2751D01*
X19178Y-3069D01*
X20000Y-3177D01*
X20822Y-3069D01*
X21588Y-2751D01*
X22246Y-2246D01*
X22276Y-2208D01*
X23701D01*
Y-3150D01*
X29294D01*
X30000Y-3150D01*
X30903Y-2953D01*
X32165D01*
Y0D01*
Y2953D01*
X30903D01*
X30000Y3150D01*
X29294Y3150D01*
X23701D01*
X23177Y3917D01*
Y6230D01*
X23982Y6584D01*
X24823Y6039D01*
D02*
G37*
G36*
X6421Y5914D02*
X-3816Y-4323D01*
X-14845D01*
X-15094Y-3922D01*
X-15217Y-3339D01*
X-13439Y-1561D01*
X-12960Y-845D01*
X-12792Y0D01*
Y6823D01*
X6045D01*
X6421Y5914D01*
D02*
G37*
G36*
X-45392Y17508D02*
Y14728D01*
X-45290Y13958D01*
X-44993Y13239D01*
X-44519Y12622D01*
X-44167Y12352D01*
Y5961D01*
X-44037Y5308D01*
X-43667Y4754D01*
X-41706Y2794D01*
X-41153Y2424D01*
X-40500Y2294D01*
X-37020D01*
X-36299Y1640D01*
Y850D01*
X-36102D01*
Y-1016D01*
X-33150D01*
Y-2984D01*
X-36102D01*
Y-4323D01*
X-41184D01*
X-42754Y-2754D01*
X-43412Y-2249D01*
X-44178Y-1932D01*
X-44986Y-1825D01*
X-45866Y-1575D01*
Y1575D01*
X-47441Y3150D01*
X-52496D01*
X-52608Y3185D01*
X-53366Y3734D01*
Y6266D01*
X-52608Y6815D01*
X-52496Y6850D01*
X-47441D01*
X-45866Y8425D01*
Y11575D01*
X-47441Y13150D01*
X-52496D01*
X-52608Y13185D01*
X-53366Y13735D01*
Y16265D01*
X-52608Y16815D01*
X-52496Y16850D01*
X-47441D01*
X-46376Y17916D01*
X-45392Y17508D01*
D02*
G37*
G36*
X-16608Y-15615D02*
X-17246Y-16254D01*
X-17751Y-16912D01*
X-18068Y-17678D01*
X-18150Y-18294D01*
X-22350D01*
Y-16701D01*
X-28650D01*
Y-16898D01*
X-30516D01*
Y-19654D01*
X-32484D01*
Y-16898D01*
X-34350D01*
Y-16701D01*
X-35794D01*
Y-14706D01*
X-16985D01*
X-16608Y-15615D01*
D02*
G37*
%LPC*%
G36*
X22461Y40413D02*
X20492D01*
Y35098D01*
X22461D01*
Y40413D01*
D02*
G37*
G36*
X17953Y36102D02*
X15984D01*
Y34134D01*
X17953D01*
Y36102D01*
D02*
G37*
G36*
X14016D02*
X12047D01*
Y34134D01*
X14016D01*
Y36102D01*
D02*
G37*
G36*
X26398Y33130D02*
X24429D01*
Y27815D01*
X26398D01*
Y33130D01*
D02*
G37*
G36*
X22461D02*
X20492D01*
Y27815D01*
X22461D01*
Y33130D01*
D02*
G37*
G36*
X9953Y24602D02*
X7984D01*
Y22634D01*
X9953D01*
Y24602D01*
D02*
G37*
G36*
X6016D02*
X4047D01*
Y22634D01*
X6016D01*
Y24602D01*
D02*
G37*
G36*
X-12047Y36102D02*
X-14016D01*
Y34134D01*
X-12047D01*
Y36102D01*
D02*
G37*
G36*
X-15984D02*
X-17953D01*
Y34134D01*
X-15984D01*
Y36102D01*
D02*
G37*
G36*
X-22335Y21051D02*
X-23516D01*
Y17484D01*
X-19555D01*
Y18272D01*
X-19650Y18991D01*
X-19927Y19661D01*
X-20369Y20237D01*
X-20945Y20679D01*
X-21615Y20957D01*
X-22335Y21051D01*
D02*
G37*
G36*
X-25484D02*
X-26665D01*
X-27385Y20957D01*
X-28055Y20679D01*
X-28631Y20237D01*
X-29073Y19661D01*
X-29350Y18991D01*
X-29445Y18272D01*
Y17484D01*
X-25484D01*
Y21051D01*
D02*
G37*
G36*
X34134Y2953D02*
Y984D01*
X36102D01*
Y2953D01*
X34134D01*
D02*
G37*
G36*
X36102Y-984D02*
X34134D01*
Y-2953D01*
X36102D01*
Y-984D01*
D02*
G37*
G36*
X34134Y-7047D02*
Y-9016D01*
X36102D01*
Y-7047D01*
X34134D01*
D02*
G37*
G36*
X36102Y-10984D02*
X34134D01*
Y-12953D01*
X36102D01*
Y-10984D01*
D02*
G37*
G36*
X25866Y-18047D02*
X23898D01*
Y-20016D01*
X25866D01*
Y-18047D01*
D02*
G37*
G36*
Y-21984D02*
X23898D01*
Y-23953D01*
X25866D01*
Y-21984D01*
D02*
G37*
G36*
X12953Y-34134D02*
X10984D01*
Y-36102D01*
X12953D01*
Y-34134D01*
D02*
G37*
G36*
X9016D02*
X7047D01*
Y-36102D01*
X9016D01*
Y-34134D01*
D02*
G37*
G36*
X-12047D02*
X-14016D01*
Y-36102D01*
X-12047D01*
Y-34134D01*
D02*
G37*
G36*
X-15984D02*
X-17953D01*
Y-36102D01*
X-15984D01*
Y-34134D01*
D02*
G37*
%LPD*%
D10*
X-91000Y36102D02*
Y40500D01*
X-91425Y35677D02*
X-91000Y36102D01*
X-99500Y59000D02*
X-94846D01*
X-5769Y51516D02*
X-5000D01*
X-8486Y54232D02*
X-5769Y51516D01*
X-8524Y54232D02*
X-8486D01*
X-10000Y55709D02*
X-8524Y54232D01*
X-15000Y51516D02*
X-10807Y55709D01*
X-10000D01*
X-65679Y-71821D02*
X-63179D01*
X-60000Y-77500D02*
Y-75184D01*
X-61390Y-73794D02*
X-60000Y-75184D01*
X-61390Y-73794D02*
Y-73610D01*
X-63179Y-71821D02*
X-61390Y-73610D01*
X-65064Y-69500D02*
X-55500D01*
X-50000Y-77500D02*
Y-75184D01*
X-51390Y-73794D02*
X-50000Y-75184D01*
X-51390Y-73794D02*
Y-73610D01*
X-55500Y-69500D02*
X-51390Y-73610D01*
X-64330Y-67728D02*
X-48272D01*
X-40000Y-76000D01*
X-34500Y-32500D02*
X-31500Y-29500D01*
Y-26346D01*
X-43500Y-31627D02*
Y-26346D01*
Y-31627D02*
X-43000Y-32127D01*
Y-32500D02*
Y-32127D01*
X-38500D02*
X-37500Y-31127D01*
Y-26346D01*
X-38500Y-32500D02*
Y-32127D01*
X-28471Y-30844D02*
X-27844D01*
X-42043Y-44043D02*
X-30750Y-32750D01*
X-31000Y-32500D02*
X-30127D01*
X-26018Y-26864D02*
X-25500Y-26346D01*
X-26018Y-29018D02*
Y-26864D01*
X-27844Y-30844D02*
X-26018Y-29018D01*
X-30127Y-32500D02*
X-28471Y-30844D01*
X80000Y-67500D02*
Y-59500D01*
X-25153Y-20000D02*
X-15000D01*
X-25500Y-19654D02*
X-25153Y-20000D01*
X-65500Y11650D02*
Y11976D01*
X-80000Y102500D02*
Y107500D01*
X106500Y94994D02*
Y114842D01*
X103000Y94000D02*
Y117500D01*
X77000Y65495D02*
X106500Y94994D01*
X69945Y-97098D02*
X74500D01*
X-88055Y58902D02*
X-83232D01*
X50000Y35000D02*
X60907D01*
X62730Y36823D02*
X70587D01*
X60907Y35000D02*
X62730Y36823D01*
X46461Y92539D02*
X61039D01*
X62236Y94736D02*
X62500Y95000D01*
X62236Y93736D02*
Y94736D01*
X61039Y92539D02*
X62236Y93736D01*
X45000Y95000D02*
X45264Y94736D01*
Y93736D02*
Y94736D01*
Y93736D02*
X46461Y92539D01*
X76873Y79000D02*
X92500Y94627D01*
X10000Y91500D02*
X22500Y79000D01*
X76873D01*
X75500Y81500D02*
X87355Y93355D01*
X15000Y92500D02*
X26000Y81500D01*
X75500D01*
X25000Y92500D02*
X32000Y85500D01*
X29000Y83500D02*
X73000D01*
X70500Y85500D02*
X77500Y92500D01*
X32000Y85500D02*
X70500D01*
X20000Y92500D02*
X29000Y83500D01*
X73000D02*
X82500Y93000D01*
X68000Y88000D02*
X72500Y92500D01*
X32500Y92000D02*
X36500Y88000D01*
X68000D01*
X87355Y94855D02*
X87500Y95000D01*
X87355Y93355D02*
Y94855D01*
X77500Y92500D02*
Y95000D01*
X72500Y92500D02*
Y95000D01*
X67500Y93000D02*
Y95000D01*
X41000Y90500D02*
X65000D01*
X67500Y93000D01*
X82017Y63117D02*
Y67032D01*
X75228Y66228D02*
X103000Y94000D01*
X77000Y61500D02*
Y65495D01*
X81550Y62650D02*
X82017Y63117D01*
X75228Y52902D02*
Y66228D01*
X10000Y91500D02*
Y95000D01*
X15000Y92500D02*
Y95000D01*
X20000Y92500D02*
Y95000D01*
X25000Y92500D02*
Y95000D01*
X32500Y92000D02*
Y95000D01*
X39158Y92343D02*
X41000Y90500D01*
X39000Y95000D02*
X39158Y94842D01*
Y92343D02*
Y94842D01*
X82500Y93000D02*
Y95000D01*
X92500Y94627D02*
Y95000D01*
X50000D02*
X57500D01*
X-50543Y-44043D02*
X-42043D01*
X-46000Y-40000D02*
X-38500Y-32500D01*
X98500Y57770D02*
Y60500D01*
X96640Y55910D02*
X98500Y57770D01*
X-64882Y22882D02*
X-64000Y22000D01*
X-61500D01*
X-58500Y25000D01*
X-69575Y22882D02*
X-64882D01*
X-86000Y-13500D02*
Y16000D01*
X-84000Y18000D01*
X-86000Y-13500D02*
X-83500Y-16000D01*
Y-21000D02*
X-82500Y-22000D01*
X-83500Y-21000D02*
Y-16000D01*
X-104000Y-20223D02*
X-102073Y-22150D01*
X-104000Y17500D02*
X-102654Y18846D01*
X-104000Y-20223D02*
Y17500D01*
X-102654Y18846D02*
X-99500D01*
X-102073Y-22150D02*
X-99500D01*
X-62000Y2500D02*
Y10500D01*
X-59500Y0D02*
X-56000D01*
X-62000Y2500D02*
X-59500Y0D01*
X-56000D02*
X-51000Y-5000D01*
X-65500Y11976D02*
X-64024Y10500D01*
X-65500Y11976D02*
Y18905D01*
X-64024Y10500D02*
X-62000D01*
X-38815Y36185D02*
X-24500D01*
X-88153Y59000D02*
X-88055Y58902D01*
X69846Y-97000D02*
X69945Y-97098D01*
X-82500Y-22000D02*
X-80000D01*
X-79500Y-22500D01*
X-84000Y18000D02*
Y27500D01*
X-91425Y30559D02*
X-87059D01*
X-84000Y27500D01*
X-91425Y22882D02*
X-86577D01*
X-91482Y14518D02*
X-86000Y20000D01*
Y22305D01*
X-86577Y22882D02*
X-86000Y22305D01*
X-95165Y22882D02*
X-91425D01*
X-69575Y30559D02*
X-63441D01*
X-69575Y28000D02*
X-61500D01*
X-59500Y30000D02*
X-50000D01*
X-61500Y28000D02*
X-59500Y30000D01*
X-69575Y25441D02*
X-64559D01*
X-63529Y25471D02*
X-63500Y25500D01*
X-69545Y25471D02*
X-63529D01*
X-58500Y25000D02*
X-57500D01*
X-69575Y25441D02*
X-69545Y25471D01*
X-65323Y35677D02*
X-63702Y37298D01*
X-69575Y35677D02*
X-65323D01*
X-63702Y37298D02*
Y39798D01*
X-63500Y40000D01*
X-44000Y-42000D02*
X-34500Y-32500D01*
X-51500Y-42000D02*
X-44000D01*
X-52500Y-40000D02*
X-46000D01*
X-95165Y25343D02*
X-93158D01*
X-93000Y25500D01*
X-95165Y22882D02*
Y25343D01*
X-99500Y25000D02*
X-98500D01*
X-95500Y28000D02*
X-91425D01*
X-98500Y25000D02*
X-95500Y28000D01*
X-97827Y20323D02*
X-91425D01*
X-99000Y19150D02*
X-97827Y20323D01*
X-66917D02*
X-65500Y18905D01*
X-69575Y20323D02*
X-66917D01*
X-99193Y11846D02*
X-92000D01*
X-99500Y12154D02*
X-99193Y11846D01*
X-92000D02*
X-91482Y12364D01*
Y14518D01*
X-77000Y33118D02*
X-75500D01*
X-69575D01*
X-75500D02*
X-69575D01*
X-77000Y13500D02*
Y33118D01*
Y13500D02*
X-75346Y11846D01*
X-72000D01*
X-90598Y20323D02*
X-90500Y20224D01*
X-91425Y20323D02*
X-90598D01*
X-74577Y-67464D02*
Y-49656D01*
X-69922Y-45000D02*
X-62500D01*
X-74577Y-49656D02*
X-69922Y-45000D01*
X-71732Y-65768D02*
X-65679Y-71821D01*
X-69961Y-64603D02*
Y-57461D01*
X-71732Y-65768D02*
Y-50504D01*
X-67500Y-64559D02*
Y-60000D01*
Y-64559D02*
X-64330Y-67728D01*
X-69961Y-64603D02*
X-65064Y-69500D01*
X-60500Y-77000D02*
Y-77000D01*
X-62500Y-64500D02*
Y-60000D01*
X-80000Y-77500D02*
X-79777Y-77277D01*
Y-72663D01*
X-74577Y-67464D01*
X-100500Y36847D02*
X-100303D01*
X-96673Y33217D01*
X-93024D01*
X-92925Y33118D01*
X-100094Y30559D02*
X-92925D01*
X-100500Y30154D02*
X-100094Y30559D01*
X-91382Y33118D02*
X-77000D01*
X-69575Y28000D02*
X-69575Y28000D01*
X-72000Y1327D02*
Y5153D01*
Y-2500D02*
Y1327D01*
X-79500Y1650D02*
X-72323D01*
X-72000Y1327D01*
X-98850Y-21500D02*
X-92000D01*
X-99500Y-22150D02*
X-98850Y-21500D01*
X-72374Y-21126D02*
X-72000Y-21500D01*
X-78024Y-21126D02*
X-72374D01*
X-92000Y1327D02*
Y5153D01*
Y-2500D02*
Y1327D01*
X-99500Y1650D02*
X-92323D01*
X-92000Y1327D01*
X81512Y48012D02*
Y51307D01*
X81500Y48000D02*
X81512Y48012D01*
X73600Y47786D02*
Y49400D01*
Y47786D02*
X73638Y47748D01*
X67659Y40797D02*
X70549D01*
X70587Y40760D01*
X67646Y34854D02*
X70587D01*
X73638Y29051D02*
Y31803D01*
X75606Y29106D02*
Y31803D01*
X83480Y29020D02*
Y31803D01*
X81512Y29012D02*
Y31803D01*
X79543Y29043D02*
Y31803D01*
X86532Y34854D02*
X89854D01*
X86532Y36823D02*
X89823D01*
X86532Y38791D02*
X89709D01*
X-47728Y-38228D02*
X-43264Y-33764D01*
X-53728Y-38228D02*
X-47728D01*
X-43264Y-32764D02*
X-43000Y-32500D01*
X-43264Y-33764D02*
Y-32764D01*
X-51000Y-104000D02*
Y-98000D01*
X-51500Y-104500D02*
X-51000Y-104000D01*
X93500Y24500D02*
Y28654D01*
X93059Y55910D02*
X96640D01*
X81512Y51307D02*
Y56313D01*
X81962Y51758D02*
X83931D01*
X86424D01*
X87500Y55850D02*
X88000Y56350D01*
X87500Y52461D02*
Y55850D01*
X70587Y52539D02*
X71817Y53770D01*
X70587Y52539D02*
X70587D01*
X-59500Y-55000D02*
X-56000Y-51500D01*
X-62500Y-55000D02*
X-59500D01*
X-56000Y-51500D02*
Y-49500D01*
X-71732Y-50504D02*
X-69961Y-48732D01*
X-5000Y51516D02*
X0Y56516D01*
X71817Y53770D02*
X75569Y50018D01*
X70587Y55000D02*
X71817Y53770D01*
X87500Y62650D02*
Y67500D01*
X-67500Y-55000D02*
X-63299D01*
X-69961Y-57461D02*
X-67500Y-55000D01*
X-63299D02*
X-63000Y-54701D01*
X-62500Y-45000D02*
X-57500D01*
X-62500Y-50000D02*
X-62055Y-49555D01*
X-59055D02*
X-51500Y-42000D01*
X-62055Y-49555D02*
X-59055D01*
X-57500Y-45000D02*
X-52500Y-40000D01*
X-55500D02*
X-53728Y-38228D01*
X-62500Y-40000D02*
X-55500D01*
X-56000Y-49500D02*
X-50543Y-44043D01*
X-14500Y-13000D02*
X-12000Y-15500D01*
X-37500Y-13000D02*
X-14500D01*
X-12000Y-15500D02*
X-12000D01*
X-37500Y-19654D02*
Y-13000D01*
X-42923D02*
X-37500D01*
X-43500Y-19654D02*
Y-13577D01*
X-42923Y-13000D01*
X-31500Y-16000D02*
X-21500D01*
X-31500Y-19654D02*
Y-16000D01*
Y-19654D02*
X-31303D01*
X-36500Y10000D02*
X-33150D01*
X-39500Y7000D02*
X-36500Y10000D01*
X-40500Y4000D02*
X-37020D01*
X-42461Y5961D02*
Y15046D01*
Y5961D02*
X-40500Y4000D01*
X-40007Y17500D02*
X-39500D01*
X-42461Y15046D02*
X-40007Y17500D01*
X-26654Y4000D02*
X-23500D01*
X-21645Y2145D01*
X-20208D01*
X-20031Y1969D01*
X-20748Y20055D02*
Y21000D01*
X-24303Y16500D02*
X-20748Y20055D01*
X-24500Y16500D02*
X-24303D01*
X-37020Y4000D02*
X-37002Y4018D01*
X-33364D01*
X-33346Y4000D01*
X93500Y62650D02*
Y67500D01*
X93059Y44697D02*
Y55910D01*
X75228Y52902D02*
X77575Y50555D01*
X65650Y55000D02*
X70587D01*
X76197Y42138D02*
X78559Y39776D01*
X75606Y42728D02*
X76197Y42138D01*
X75606Y42728D02*
Y47748D01*
X75569Y47786D02*
X75606Y47748D01*
X75569Y47786D02*
Y50018D01*
X77559Y14516D02*
Y19126D01*
X81512Y51307D02*
X81962Y51758D01*
X77000Y53635D02*
Y61500D01*
Y53635D02*
X79543Y51092D01*
Y47748D02*
Y51092D01*
X77575Y47748D02*
Y50555D01*
X81512Y56313D02*
X81550Y56350D01*
X83480Y51307D02*
X83931Y51758D01*
X57500Y40000D02*
X62543D01*
X63654Y38890D02*
X69463D01*
X62543Y40000D02*
X63654Y38890D01*
X70549Y38829D02*
X70587Y38791D01*
X69524Y38829D02*
X70549D01*
X69463Y38890D02*
X69524Y38829D01*
X62543Y45000D02*
X64815Y42728D01*
X50000Y45000D02*
X62543D01*
X64815Y42728D02*
X70587D01*
X61760Y50000D02*
X67063Y44697D01*
X57500Y50000D02*
X61760D01*
X77000Y61500D02*
X77000Y61500D01*
X91740Y40760D02*
X93500Y39000D01*
Y35346D02*
Y39000D01*
X86532Y40760D02*
X91740D01*
X77575Y31154D02*
Y31803D01*
Y26075D02*
Y31154D01*
X83480Y47748D02*
Y51307D01*
X86532Y44697D02*
X93059D01*
X86532Y42728D02*
X91091D01*
X93059Y44697D01*
X67063D02*
X70587D01*
D17*
X-92000Y-2500D02*
D03*
Y-21500D02*
D03*
X-72000Y-2500D02*
D03*
Y-21500D02*
D03*
D22*
X63153Y-97000D02*
D03*
X69846D02*
D03*
X-26654Y4000D02*
D03*
X-33346D02*
D03*
X-94846Y59000D02*
D03*
X-88153D02*
D03*
D25*
X93500Y35346D02*
D03*
Y28654D02*
D03*
X-99500Y18846D02*
D03*
Y12154D02*
D03*
X-92000Y5153D02*
D03*
Y11846D02*
D03*
X-72000Y5153D02*
D03*
Y11846D02*
D03*
X-43500Y-19654D02*
D03*
Y-26346D02*
D03*
X-37500Y-19654D02*
D03*
Y-26346D02*
D03*
X-31500Y-19654D02*
D03*
Y-26346D02*
D03*
X-25500Y-19654D02*
D03*
Y-26346D02*
D03*
X-99500Y30154D02*
D03*
Y36847D02*
D03*
D49*
X-16925Y-1925D02*
X-15000Y0D01*
Y10000D01*
X-20000Y-2000D02*
X-19925Y-1925D01*
X-16925D01*
X-54672Y44671D02*
X-47494D01*
X-55000Y45000D02*
X-54672Y44671D01*
X-40500Y36437D02*
Y43500D01*
X-52829Y44000D02*
X-46165D01*
X58484Y70650D02*
X72650D01*
X96000Y94000D02*
Y103000D01*
X72650Y70650D02*
X96000Y94000D01*
X58150Y70000D02*
Y70315D01*
X58484Y70650D01*
X57500D02*
X58150Y70000D01*
X53000Y55500D02*
X59850D01*
X7000Y10000D02*
Y15350D01*
X10000Y-26850D02*
Y-20000D01*
X-15000Y-26850D02*
Y-20000D01*
X-26850Y-2000D02*
X-20000D01*
X20000Y-10000D02*
X26850D01*
X20000Y0D02*
X26850D01*
X41555Y44055D02*
X50000Y52500D01*
X41555Y43055D02*
Y44055D01*
X35650Y43055D02*
X41555D01*
X-26850Y-2000D02*
X-26358Y-2492D01*
X-26850Y10000D02*
X-20000D01*
X15000Y20000D02*
Y26850D01*
X-15000Y20000D02*
Y26850D01*
D50*
X120000Y-120000D02*
D03*
X-120000D02*
D03*
Y120000D02*
D03*
D51*
X-80000Y-77500D02*
D03*
Y-87500D02*
D03*
X-60000Y-77500D02*
D03*
Y-87500D02*
D03*
X-50000Y-77500D02*
D03*
Y-87500D02*
D03*
X-40000D02*
D03*
D52*
X-70000Y-77500D02*
D03*
Y-87500D02*
D03*
D53*
X-40000Y-77500D02*
D03*
D54*
X40000Y115000D02*
D03*
Y125000D02*
D03*
X0Y115000D02*
D03*
Y125000D02*
D03*
X10000Y115000D02*
D03*
Y125000D02*
D03*
X-20000Y115000D02*
D03*
Y125000D02*
D03*
X-30000Y115000D02*
D03*
Y125000D02*
D03*
X-80000D02*
D03*
X-70000Y115000D02*
D03*
Y125000D02*
D03*
X-60000Y115000D02*
D03*
Y125000D02*
D03*
X-50000Y115000D02*
D03*
Y125000D02*
D03*
X-40000Y115000D02*
D03*
Y125000D02*
D03*
X-10000Y115000D02*
D03*
Y125000D02*
D03*
X20000Y115000D02*
D03*
Y125000D02*
D03*
X30000Y115000D02*
D03*
Y125000D02*
D03*
X60000Y115000D02*
D03*
Y125000D02*
D03*
X50000Y115000D02*
D03*
Y125000D02*
D03*
X80000Y115000D02*
D03*
Y125000D02*
D03*
X70000Y115000D02*
D03*
Y125000D02*
D03*
X-115000Y40000D02*
D03*
X-125000D02*
D03*
X-115000Y0D02*
D03*
X-125000D02*
D03*
X-115000Y10000D02*
D03*
X-125000D02*
D03*
X-115000Y-20000D02*
D03*
X-125000D02*
D03*
X-115000Y-30000D02*
D03*
X-125000D02*
D03*
Y-80000D02*
D03*
X-115000Y-70000D02*
D03*
X-125000D02*
D03*
X-115000Y-60000D02*
D03*
X-125000D02*
D03*
X-115000Y-50000D02*
D03*
X-125000D02*
D03*
X-115000Y-40000D02*
D03*
X-125000D02*
D03*
X-115000Y-10000D02*
D03*
X-125000D02*
D03*
X-115000Y20000D02*
D03*
X-125000D02*
D03*
X-115000Y30000D02*
D03*
X-125000D02*
D03*
X-115000Y60000D02*
D03*
X-125000D02*
D03*
X-115000Y50000D02*
D03*
X-125000D02*
D03*
X-115000Y80000D02*
D03*
X-125000D02*
D03*
X-115000Y70000D02*
D03*
X-125000D02*
D03*
X115000Y-40000D02*
D03*
X125000D02*
D03*
X115000Y0D02*
D03*
X125000D02*
D03*
X115000Y-10000D02*
D03*
X125000D02*
D03*
X115000Y20000D02*
D03*
X125000D02*
D03*
X115000Y30000D02*
D03*
X125000D02*
D03*
Y80000D02*
D03*
X115000Y70000D02*
D03*
X125000D02*
D03*
X115000Y60000D02*
D03*
X125000D02*
D03*
X115000Y50000D02*
D03*
X125000D02*
D03*
X115000Y40000D02*
D03*
X125000D02*
D03*
X115000Y10000D02*
D03*
X125000D02*
D03*
X115000Y-20000D02*
D03*
X125000D02*
D03*
X115000Y-30000D02*
D03*
X125000D02*
D03*
X115000Y-60000D02*
D03*
X125000D02*
D03*
X115000Y-50000D02*
D03*
X125000D02*
D03*
X115000Y-80000D02*
D03*
X125000D02*
D03*
X115000Y-70000D02*
D03*
X125000D02*
D03*
X-40000Y-115000D02*
D03*
Y-125000D02*
D03*
X0Y-115000D02*
D03*
Y-125000D02*
D03*
X-10000Y-115000D02*
D03*
Y-125000D02*
D03*
X20000Y-115000D02*
D03*
Y-125000D02*
D03*
X30000Y-115000D02*
D03*
Y-125000D02*
D03*
X80000D02*
D03*
X70000Y-115000D02*
D03*
Y-125000D02*
D03*
X60000Y-115000D02*
D03*
Y-125000D02*
D03*
X50000Y-115000D02*
D03*
Y-125000D02*
D03*
X40000Y-115000D02*
D03*
Y-125000D02*
D03*
X10000Y-115000D02*
D03*
Y-125000D02*
D03*
X-20000Y-115000D02*
D03*
Y-125000D02*
D03*
X-30000Y-115000D02*
D03*
Y-125000D02*
D03*
X-60000Y-115000D02*
D03*
Y-125000D02*
D03*
X-50000Y-115000D02*
D03*
Y-125000D02*
D03*
X-80000Y-115000D02*
D03*
Y-125000D02*
D03*
X-70000Y-115000D02*
D03*
Y-125000D02*
D03*
D55*
X-80000Y115000D02*
D03*
X80000Y-115000D02*
D03*
D56*
X-115000Y-80000D02*
D03*
X115000Y80000D02*
D03*
D57*
X125098Y103720D02*
D03*
Y131280D02*
D03*
D58*
X114370Y107658D02*
D03*
Y127342D02*
D03*
D59*
X-63500Y40000D02*
D03*
X-62500Y-60000D02*
D03*
Y-55000D02*
D03*
Y-50000D02*
D03*
Y-45000D02*
D03*
D60*
X-90000Y-123150D02*
D03*
Y-116850D02*
D03*
X57500Y70650D02*
D03*
Y64350D02*
D03*
X-60000Y44850D02*
D03*
Y51150D02*
D03*
X15000Y33150D02*
D03*
Y26850D02*
D03*
X7000Y15350D02*
D03*
Y21650D02*
D03*
X-90000Y123150D02*
D03*
Y116850D02*
D03*
X90000Y123150D02*
D03*
Y116850D02*
D03*
Y-123150D02*
D03*
Y-116850D02*
D03*
X77559Y19126D02*
D03*
Y25425D02*
D03*
X93500Y62650D02*
D03*
Y56350D02*
D03*
X87500Y62650D02*
D03*
Y56350D02*
D03*
X81550Y62650D02*
D03*
Y56350D02*
D03*
X-79500Y-15850D02*
D03*
Y-22150D02*
D03*
X-99500Y-15850D02*
D03*
Y-22150D02*
D03*
Y-4650D02*
D03*
Y1650D02*
D03*
X-65500Y11650D02*
D03*
Y5350D02*
D03*
X-79500Y-4650D02*
D03*
Y1650D02*
D03*
X-15000Y-33150D02*
D03*
Y-26850D02*
D03*
X10000Y-33150D02*
D03*
Y-26850D02*
D03*
X-15000Y33150D02*
D03*
Y26850D02*
D03*
X-62500Y-40000D02*
D03*
D61*
X-50000Y50000D02*
D03*
X-40000D02*
D03*
X-30000D02*
D03*
X-20000D02*
D03*
X-10000D02*
D03*
X0D02*
D03*
X10000D02*
D03*
X20000D02*
D03*
X30000D02*
D03*
X40000D02*
D03*
X-54997Y-57500D02*
D03*
X-50000Y-50000D02*
D03*
X-45000Y-57500D02*
D03*
X-40000Y-50000D02*
D03*
X45000Y57500D02*
D03*
X-35000Y-57500D02*
D03*
X-30000Y-50000D02*
D03*
X35000Y57500D02*
D03*
X-25000Y-57500D02*
D03*
X-20000Y-50000D02*
D03*
X25000Y57500D02*
D03*
X-15000Y-57500D02*
D03*
X-10000Y-50000D02*
D03*
X15000Y57500D02*
D03*
X-5000Y-57500D02*
D03*
X0Y-50000D02*
D03*
X5000Y57500D02*
D03*
Y-57500D02*
D03*
X10000Y-50000D02*
D03*
X-5000Y57500D02*
D03*
X15000Y-57500D02*
D03*
X20000Y-50000D02*
D03*
X-15000Y57500D02*
D03*
X25000Y-57500D02*
D03*
X30000Y-50000D02*
D03*
X-25000Y57500D02*
D03*
X35000Y-57500D02*
D03*
X40000Y-50000D02*
D03*
X-35000Y57500D02*
D03*
X45000Y-57500D02*
D03*
X-45000Y57500D02*
D03*
X-55000D02*
D03*
D62*
X50000Y45000D02*
D03*
Y-45000D02*
D03*
X-57500Y35000D02*
D03*
X57500Y-40000D02*
D03*
X-50000Y30000D02*
D03*
X50000Y-35000D02*
D03*
X-57500Y25000D02*
D03*
X57500Y-30000D02*
D03*
X-50000Y20000D02*
D03*
X50000Y-25000D02*
D03*
X-57500Y15000D02*
D03*
X57500Y-20000D02*
D03*
X-50000Y10000D02*
D03*
X50000Y-15000D02*
D03*
X-57500Y5000D02*
D03*
X57500Y-10000D02*
D03*
X50000Y-5000D02*
D03*
X-50000Y0D02*
D03*
X57500D02*
D03*
X-57500Y-5000D02*
D03*
X50000Y5000D02*
D03*
X-50000Y-10000D02*
D03*
X57500Y10000D02*
D03*
X-57500Y-15000D02*
D03*
X50000Y15000D02*
D03*
X-50000Y-20000D02*
D03*
X57500Y20000D02*
D03*
X-57500Y-25000D02*
D03*
X50000Y25000D02*
D03*
X-50000Y-30000D02*
D03*
X57500Y30000D02*
D03*
X-57500Y-35000D02*
D03*
X50000Y35000D02*
D03*
X57500Y40000D02*
D03*
Y50000D02*
D03*
Y-50000D02*
D03*
X-50000Y40000D02*
D03*
D63*
X-19000Y15000D02*
D03*
X-102500Y51500D02*
D03*
X-91000Y40500D02*
D03*
X-99500Y50000D02*
D03*
X-12047Y5000D02*
D03*
X125000Y117500D02*
D03*
X-80000Y80000D02*
D03*
X80000Y-67500D02*
D03*
X-80000Y102500D02*
D03*
X106500Y114842D02*
D03*
X103000Y117500D02*
D03*
X-83000Y59000D02*
D03*
X74500Y-97000D02*
D03*
X100000Y-90000D02*
D03*
X120000Y-100000D02*
D03*
X110000Y-130000D02*
D03*
Y-110000D02*
D03*
X130000D02*
D03*
X-110000Y130000D02*
D03*
X-130000D02*
D03*
Y110000D02*
D03*
X-102362Y102362D02*
D03*
X80921Y37413D02*
D03*
Y42138D02*
D03*
X76197Y37413D02*
D03*
Y42138D02*
D03*
X130000Y125000D02*
D03*
Y110000D02*
D03*
X100000Y65000D02*
D03*
X65000D02*
D03*
X50000Y70000D02*
D03*
X60000Y100000D02*
D03*
X70000D02*
D03*
X80000D02*
D03*
X90000D02*
D03*
X82017Y67032D02*
D03*
X96000Y103000D02*
D03*
X92500Y95000D02*
D03*
X10000D02*
D03*
X15000D02*
D03*
X20000D02*
D03*
X25000D02*
D03*
X32500D02*
D03*
X39000D02*
D03*
X45000D02*
D03*
X87500D02*
D03*
X82500D02*
D03*
X77500D02*
D03*
X72500D02*
D03*
X67500D02*
D03*
X62500D02*
D03*
X50000D02*
D03*
X57500D02*
D03*
Y60000D02*
D03*
X98500Y60500D02*
D03*
X75000Y-120000D02*
D03*
X35000D02*
D03*
X-5000D02*
D03*
X-45000D02*
D03*
X-65000D02*
D03*
X-75000D02*
D03*
X-120000Y-75000D02*
D03*
Y-35000D02*
D03*
Y5000D02*
D03*
Y45000D02*
D03*
X-75000Y120000D02*
D03*
X-65000D02*
D03*
X-35000D02*
D03*
X35000D02*
D03*
X55000D02*
D03*
X65000D02*
D03*
X75000D02*
D03*
X120000Y-75000D02*
D03*
Y-35000D02*
D03*
Y35000D02*
D03*
X107500Y52500D02*
D03*
Y22500D02*
D03*
X-63441Y30559D02*
D03*
X-63500Y25500D02*
D03*
X-34500Y-32500D02*
D03*
X-38500D02*
D03*
X-30500D02*
D03*
X28000Y27500D02*
D03*
X-99500Y25000D02*
D03*
X-62500Y-64500D02*
D03*
X-67500Y-60000D02*
D03*
X-80000Y-100000D02*
D03*
X-65000D02*
D03*
X35000D02*
D03*
X-5000D02*
D03*
X35000Y-85000D02*
D03*
X-5000Y-80000D02*
D03*
Y-90000D02*
D03*
X0Y-100000D02*
D03*
Y-90000D02*
D03*
X40000Y-100000D02*
D03*
Y-90000D02*
D03*
X-90000D02*
D03*
X-110000Y110000D02*
D03*
X-90000Y90000D02*
D03*
X-70000Y70000D02*
D03*
X102362Y84646D02*
D03*
X100394Y80709D02*
D03*
X112205Y98425D02*
D03*
X130000Y-130000D02*
D03*
X100000Y-100000D02*
D03*
X90000Y-90000D02*
D03*
X80000Y-80000D02*
D03*
X70000Y-70000D02*
D03*
X-43000Y-32500D02*
D03*
X-51000Y-98000D02*
D03*
X75000Y132500D02*
D03*
X65000D02*
D03*
X55000D02*
D03*
X45000D02*
D03*
X35000D02*
D03*
X25000D02*
D03*
X15000D02*
D03*
X5000D02*
D03*
X-5000D02*
D03*
X-15000D02*
D03*
X-25000D02*
D03*
X-35000D02*
D03*
X-45000D02*
D03*
X-55000D02*
D03*
X-65000D02*
D03*
X-75000D02*
D03*
X-85000D02*
D03*
X85000D02*
D03*
X-135000Y75000D02*
D03*
Y65000D02*
D03*
Y55000D02*
D03*
Y45000D02*
D03*
Y35000D02*
D03*
Y25000D02*
D03*
Y15000D02*
D03*
Y5000D02*
D03*
Y-5000D02*
D03*
Y-15000D02*
D03*
Y-25000D02*
D03*
Y-35000D02*
D03*
Y-45000D02*
D03*
Y-55000D02*
D03*
Y-65000D02*
D03*
Y-75000D02*
D03*
Y-85000D02*
D03*
Y85000D02*
D03*
X-75000Y-135000D02*
D03*
X-65000D02*
D03*
X-55000D02*
D03*
X-45000D02*
D03*
X-35000D02*
D03*
X-25000D02*
D03*
X-15000D02*
D03*
X-5000D02*
D03*
X5000D02*
D03*
X15000D02*
D03*
X25000D02*
D03*
X35000D02*
D03*
X45000D02*
D03*
X55000D02*
D03*
X65000D02*
D03*
X75000D02*
D03*
X85000D02*
D03*
X-85000D02*
D03*
X132500Y-85000D02*
D03*
Y85000D02*
D03*
Y75000D02*
D03*
Y65000D02*
D03*
Y55000D02*
D03*
Y45000D02*
D03*
Y35000D02*
D03*
Y25000D02*
D03*
Y15000D02*
D03*
Y5000D02*
D03*
Y-5000D02*
D03*
Y-15000D02*
D03*
Y-25000D02*
D03*
Y-35000D02*
D03*
Y-45000D02*
D03*
Y-55000D02*
D03*
Y-65000D02*
D03*
Y-75000D02*
D03*
X93500Y24500D02*
D03*
X87500Y52461D02*
D03*
X-35000Y30000D02*
D03*
X-27500Y27500D02*
D03*
X-130000Y-105000D02*
D03*
X-120000D02*
D03*
X-110000D02*
D03*
X-100000D02*
D03*
X-105000Y-115000D02*
D03*
X-110000Y-110000D02*
D03*
X-130000D02*
D03*
X-135000Y-115000D02*
D03*
X-130000Y-130000D02*
D03*
X-90000Y-100000D02*
D03*
X-110000Y-130000D02*
D03*
X-100000Y-125000D02*
D03*
X-90000D02*
D03*
X70587Y52539D02*
D03*
X27000Y-27000D02*
D03*
X23000Y-23000D02*
D03*
X-21360Y-22954D02*
D03*
X-23000Y23000D02*
D03*
X23000D02*
D03*
X28000Y35000D02*
D03*
X-7500Y5000D02*
D03*
X15000Y0D02*
D03*
X-10000Y15000D02*
D03*
X30000Y-30000D02*
D03*
X20000Y-20000D02*
D03*
X15000Y-15000D02*
D03*
X0D02*
D03*
X5000Y-20000D02*
D03*
X-5000D02*
D03*
X5000Y-10000D02*
D03*
X-5000Y0D02*
D03*
X-12500Y-2500D02*
D03*
X0Y5000D02*
D03*
X-69961Y-48732D02*
D03*
X38563Y3445D02*
D03*
X87500Y67500D02*
D03*
X-21500Y-16000D02*
D03*
X-39500Y7000D02*
D03*
X-20000Y6000D02*
D03*
X-20031Y1969D02*
D03*
X-20748Y21000D02*
D03*
X-39500Y1500D02*
D03*
X93500Y67500D02*
D03*
X-20000Y-2000D02*
D03*
X20489Y-4921D02*
D03*
X-9716Y-20284D02*
D03*
X20000Y20000D02*
D03*
X-9352Y22953D02*
D03*
X17000Y37500D02*
D03*
X-13287Y-37740D02*
D03*
X15256Y-35688D02*
D03*
X-11068Y36966D02*
D03*
X38500Y-7000D02*
D03*
X15000Y-20000D02*
D03*
X-20000Y10000D02*
D03*
X-15000Y-20000D02*
D03*
X10000D02*
D03*
X20000Y-10000D02*
D03*
Y0D02*
D03*
X15000Y20000D02*
D03*
X-15000D02*
D03*
D64*
X29350Y43055D02*
D03*
X35650D02*
D03*
X123150Y90000D02*
D03*
X116850D02*
D03*
X123150Y-90000D02*
D03*
X116850D02*
D03*
X59850Y55500D02*
D03*
X66150D02*
D03*
X-123150Y87500D02*
D03*
X-116850D02*
D03*
X-123150Y-90000D02*
D03*
X-116850D02*
D03*
X33150Y-21000D02*
D03*
X26850D02*
D03*
X33150Y-10000D02*
D03*
X26850D02*
D03*
X33150Y0D02*
D03*
X26850D02*
D03*
X-33150Y-2000D02*
D03*
X-26850D02*
D03*
X-33150Y10000D02*
D03*
X-26850D02*
D03*
D65*
X32500Y10886D02*
D03*
D66*
X41555Y34114D02*
D03*
X32500D02*
D03*
X23445D02*
D03*
D67*
X-24500Y36185D02*
D03*
D68*
X-40248D02*
D03*
X-24500Y16500D02*
D03*
X-40248D02*
D03*
D69*
X-69575Y35677D02*
D03*
Y33118D02*
D03*
Y30559D02*
D03*
Y28000D02*
D03*
Y25441D02*
D03*
Y22882D02*
D03*
Y20323D02*
D03*
X-91425Y35677D02*
D03*
Y33118D02*
D03*
Y30559D02*
D03*
Y28000D02*
D03*
Y25441D02*
D03*
Y22882D02*
D03*
Y20323D02*
D03*
D70*
X78559Y39776D02*
D03*
D71*
X70587Y44697D02*
D03*
Y42728D02*
D03*
Y40760D02*
D03*
Y38791D02*
D03*
Y36823D02*
D03*
Y34854D02*
D03*
X86532D02*
D03*
Y36823D02*
D03*
Y38791D02*
D03*
Y40760D02*
D03*
Y42728D02*
D03*
Y44697D02*
D03*
D72*
X73638Y31803D02*
D03*
X75606D02*
D03*
X77575D02*
D03*
X79543D02*
D03*
X81512D02*
D03*
X83480D02*
D03*
Y47748D02*
D03*
X81512D02*
D03*
X79543D02*
D03*
X77575D02*
D03*
X75606D02*
D03*
X73638D02*
D03*
D73*
X0Y-105000D02*
X40000D01*
X-40000D02*
X0D01*
Y-115000D02*
Y-105000D01*
X-44000Y43500D02*
X-40500D01*
X-15000D01*
X-107500Y45000D02*
X-55000D01*
X-52829D01*
X29154Y10039D02*
X32500Y13386D01*
X-77694Y-105000D02*
X-40000D01*
X-47441Y44724D02*
X-45224D01*
X-44000Y43500D01*
X-47494Y44671D02*
X-47441Y44724D01*
X0Y75000D02*
Y107500D01*
Y56516D02*
Y75000D01*
X-10000Y65000D02*
X0Y75000D01*
X-15000Y43500D02*
X-5000D01*
Y32146D02*
Y43500D01*
X-10000Y55709D02*
Y65000D01*
X-15000Y43500D02*
Y51516D01*
X33150Y-21000D02*
X42500D01*
X57500Y60000D02*
Y62115D01*
X53000Y55500D02*
X57500Y60000D01*
X107500Y40000D02*
Y52500D01*
Y80000D02*
X115000D01*
X107500D02*
Y87500D01*
Y52500D02*
Y80000D01*
X110000Y90000D02*
X116850D01*
X107500Y87500D02*
X110000Y90000D01*
X107500Y22604D02*
Y40000D01*
X115000D01*
X107500Y0D02*
Y22500D01*
X80000Y-59500D02*
X107500D01*
Y-40000D01*
Y-80000D02*
Y-59500D01*
X110429Y-90000D02*
X116850D01*
X107500Y-87071D02*
X110429Y-90000D01*
X107500Y-87071D02*
Y-80000D01*
Y-40000D02*
Y0D01*
Y-80000D02*
X115000D01*
X107500Y-40000D02*
X115000D01*
X107500Y0D02*
X115000D01*
X-115000Y80000D02*
X-107500D01*
Y45000D02*
Y80000D01*
Y85194D01*
X-116850Y87500D02*
X-109806D01*
X-107500Y85194D01*
Y40000D02*
Y45000D01*
Y0D02*
Y40000D01*
X-115000D02*
X-107500D01*
Y-40000D02*
Y0D01*
X-115000D02*
X-107500D01*
X-115000Y-80000D02*
X-107500D01*
Y-40000D01*
Y-87694D02*
Y-80000D01*
X-116850Y-90000D02*
X-109806D01*
X-107500Y-87694D01*
X-115000Y-40000D02*
X-107500D01*
X80000Y107500D02*
Y115000D01*
X40000Y107500D02*
X80000D01*
X87694D01*
X90000Y109806D01*
Y116850D01*
X-90000Y109806D02*
Y116850D01*
Y109806D02*
X-87694Y107500D01*
X-80000D01*
Y115000D01*
Y107500D02*
X-40000D01*
X0D01*
X-40000D02*
Y115000D01*
X0Y107500D02*
X40000D01*
X0D02*
Y115000D01*
X40000Y107500D02*
Y115000D01*
X50000Y52500D02*
X53000Y55500D01*
X-51000Y-5000D02*
X-45000D01*
X-5000Y43500D02*
Y51516D01*
X-40500Y36437D02*
X-40248Y36185D01*
X58000Y-59500D02*
X80000D01*
X42500Y-21000D02*
Y10886D01*
Y-41787D02*
Y-21000D01*
X57500Y-60000D02*
X58000Y-59500D01*
X43922Y-46087D02*
Y-43209D01*
X42500Y-41787D02*
X43922Y-43209D01*
X44674Y-47509D02*
X46745Y-49580D01*
X47080D01*
X57500Y-60000D01*
Y-105000D02*
Y-60000D01*
X-2500Y10000D02*
X7000D01*
X-15000D02*
X-2500D01*
Y29646D01*
X-5000Y32146D02*
X-2500Y29646D01*
Y-7500D02*
X10000Y5000D01*
X-10500Y-15500D02*
X-2500Y-7500D01*
X-45000Y-5000D02*
X-42500Y-7500D01*
X-2500D01*
X80000Y-105000D02*
X87694D01*
X80000Y-115000D02*
Y-105000D01*
X57500D02*
X80000D01*
X40000D02*
X57500D01*
X32500Y10886D02*
X42500D01*
X-90000Y123150D02*
Y130000D01*
X90000Y123150D02*
Y130000D01*
X123150Y90000D02*
X130000D01*
X123150Y-90000D02*
X130000D01*
X-90000Y-130000D02*
Y-123150D01*
Y-116850D02*
Y-107306D01*
X-87694Y-105000D01*
X-77694D01*
X90000Y-127500D02*
Y-123150D01*
Y-116850D02*
Y-107306D01*
X87694Y-105000D02*
X90000Y-107306D01*
X-130000Y-90000D02*
X-123150D01*
X-130000Y87500D02*
X-123150D01*
X-15000Y-18500D02*
X-12000Y-15500D01*
X32500Y13386D02*
Y34114D01*
X-80000Y-107306D02*
X-77694Y-105000D01*
X-80000Y-115000D02*
Y-107306D01*
X40000Y-115000D02*
Y-105000D01*
X-40000Y-115000D02*
Y-105000D01*
X7000Y10000D02*
X15000D01*
X10000Y5000D02*
X15000Y10000D01*
X25751Y43055D02*
X29350D01*
X23445Y34114D02*
Y40749D01*
X25751Y43055D01*
X41555Y36614D02*
Y43055D01*
X-15000Y-20000D02*
Y-18500D01*
X-12000Y-15500D02*
X-10500D01*
X17500Y-10000D02*
X20000D01*
X10000Y-2500D02*
X17500Y-10000D01*
X10000Y-2500D02*
Y5000D01*
Y-20000D02*
Y-2500D01*
X-20000Y10000D02*
X-15000D01*
Y20000D01*
X15000Y10000D02*
Y20000D01*
X20000Y0D02*
Y10000D01*
X23500D01*
X15000D02*
X20000D01*
X24539Y10039D02*
X29154D01*
M02*
