G04*
G04 #@! TF.GenerationSoftware,Altium Limited,Altium Designer,20.0.11 (256)*
G04*
G04 Layer_Color=255*
%FSLAX25Y25*%
%MOIN*%
G70*
G01*
G75*
%ADD17R,0.03543X0.03937*%
G04:AMPARAMS|DCode=43|XSize=78.74mil|YSize=78.74mil|CornerRadius=19.68mil|HoleSize=0mil|Usage=FLASHONLY|Rotation=90.000|XOffset=0mil|YOffset=0mil|HoleType=Round|Shape=RoundedRectangle|*
%AMROUNDEDRECTD43*
21,1,0.07874,0.03937,0,0,90.0*
21,1,0.03937,0.07874,0,0,90.0*
1,1,0.03937,0.01968,0.01968*
1,1,0.03937,0.01968,-0.01968*
1,1,0.03937,-0.01968,-0.01968*
1,1,0.03937,-0.01968,0.01968*
%
%ADD43ROUNDEDRECTD43*%
%ADD44C,0.06000*%
%ADD45R,0.03937X0.03937*%
%ADD46C,0.03937*%
%ADD47C,0.06496*%
%ADD48R,0.06496X0.06496*%
G04:AMPARAMS|DCode=49|XSize=39.37mil|YSize=59.06mil|CornerRadius=0mil|HoleSize=0mil|Usage=FLASHONLY|Rotation=180.000|XOffset=0mil|YOffset=0mil|HoleType=Round|Shape=Octagon|*
%AMOCTAGOND49*
4,1,8,0.00984,-0.02953,-0.00984,-0.02953,-0.01968,-0.01968,-0.01968,0.01968,-0.00984,0.02953,0.00984,0.02953,0.01968,0.01968,0.01968,-0.01968,0.00984,-0.02953,0.0*
%
%ADD49OCTAGOND49*%

G04:AMPARAMS|DCode=50|XSize=39.37mil|YSize=59.06mil|CornerRadius=0mil|HoleSize=0mil|Usage=FLASHONLY|Rotation=270.000|XOffset=0mil|YOffset=0mil|HoleType=Round|Shape=Octagon|*
%AMOCTAGOND50*
4,1,8,0.02953,0.00984,0.02953,-0.00984,0.01968,-0.01968,-0.01968,-0.01968,-0.02953,-0.00984,-0.02953,0.00984,-0.01968,0.01968,0.01968,0.01968,0.02953,0.00984,0.0*
%
%ADD50OCTAGOND50*%

%ADD51R,0.06496X0.06496*%
%ADD52O,0.05906X0.07874*%
G04:AMPARAMS|DCode=53|XSize=59.06mil|YSize=78.74mil|CornerRadius=14.76mil|HoleSize=0mil|Usage=FLASHONLY|Rotation=180.000|XOffset=0mil|YOffset=0mil|HoleType=Round|Shape=RoundedRectangle|*
%AMROUNDEDRECTD53*
21,1,0.05906,0.04921,0,0,180.0*
21,1,0.02953,0.07874,0,0,180.0*
1,1,0.02953,-0.01476,0.02461*
1,1,0.02953,0.01476,0.02461*
1,1,0.02953,0.01476,-0.02461*
1,1,0.02953,-0.01476,-0.02461*
%
%ADD53ROUNDEDRECTD53*%
%ADD54C,0.07874*%
G04:AMPARAMS|DCode=55|XSize=66.93mil|YSize=55.12mil|CornerRadius=13.78mil|HoleSize=0mil|Usage=FLASHONLY|Rotation=180.000|XOffset=0mil|YOffset=0mil|HoleType=Round|Shape=RoundedRectangle|*
%AMROUNDEDRECTD55*
21,1,0.06693,0.02756,0,0,180.0*
21,1,0.03937,0.05512,0,0,180.0*
1,1,0.02756,-0.01968,0.01378*
1,1,0.02756,0.01968,0.01378*
1,1,0.02756,0.01968,-0.01378*
1,1,0.02756,-0.01968,-0.01378*
%
%ADD55ROUNDEDRECTD55*%
G04:AMPARAMS|DCode=56|XSize=60mil|YSize=49.21mil|CornerRadius=12.3mil|HoleSize=0mil|Usage=FLASHONLY|Rotation=90.000|XOffset=0mil|YOffset=0mil|HoleType=Round|Shape=RoundedRectangle|*
%AMROUNDEDRECTD56*
21,1,0.06000,0.02461,0,0,90.0*
21,1,0.03539,0.04921,0,0,90.0*
1,1,0.02461,0.01230,0.01770*
1,1,0.02461,0.01230,-0.01770*
1,1,0.02461,-0.01230,-0.01770*
1,1,0.02461,-0.01230,0.01770*
%
%ADD56ROUNDEDRECTD56*%
%ADD59R,0.06496X0.01181*%
%ADD60R,0.03937X0.03543*%
%ADD61R,0.03937X0.03937*%
G04:AMPARAMS|DCode=62|XSize=78.74mil|YSize=70.87mil|CornerRadius=17.72mil|HoleSize=0mil|Usage=FLASHONLY|Rotation=180.000|XOffset=0mil|YOffset=0mil|HoleType=Round|Shape=RoundedRectangle|*
%AMROUNDEDRECTD62*
21,1,0.07874,0.03543,0,0,180.0*
21,1,0.04331,0.07087,0,0,180.0*
1,1,0.03543,-0.02165,0.01772*
1,1,0.03543,0.02165,0.01772*
1,1,0.03543,0.02165,-0.01772*
1,1,0.03543,-0.02165,-0.01772*
%
%ADD62ROUNDEDRECTD62*%
%ADD63R,0.07874X0.07087*%
%ADD64O,0.01181X0.02953*%
%ADD65O,0.02953X0.01181*%
%ADD66R,0.11024X0.11024*%
%ADD67R,0.03937X0.10630*%
%ADD68R,0.12992X0.10630*%
D17*
X210846Y367500D02*
D03*
X204153D02*
D03*
X370847Y207500D02*
D03*
X364154D02*
D03*
X266653Y304000D02*
D03*
X273346D02*
D03*
D43*
X220000Y367402D02*
D03*
Y392598D02*
D03*
X380000Y207402D02*
D03*
Y232598D02*
D03*
D44*
X228000Y278500D02*
D03*
Y297500D02*
D03*
X208000Y278500D02*
D03*
Y297500D02*
D03*
D45*
X234500Y305350D02*
D03*
Y311650D02*
D03*
X220500Y301650D02*
D03*
Y295350D02*
D03*
Y277850D02*
D03*
Y284150D02*
D03*
X200500Y277850D02*
D03*
Y284150D02*
D03*
Y301650D02*
D03*
Y295350D02*
D03*
X210000Y183150D02*
D03*
Y176850D02*
D03*
X390000Y183150D02*
D03*
Y176850D02*
D03*
X210000Y416850D02*
D03*
Y423150D02*
D03*
X390000Y416850D02*
D03*
Y423150D02*
D03*
X243000Y350150D02*
D03*
Y343850D02*
D03*
X383500Y387850D02*
D03*
Y394150D02*
D03*
X377559Y325425D02*
D03*
Y319126D02*
D03*
X393500Y356350D02*
D03*
Y362650D02*
D03*
X381550Y356350D02*
D03*
Y362650D02*
D03*
X387500Y356350D02*
D03*
Y362650D02*
D03*
X307000Y321650D02*
D03*
Y315350D02*
D03*
X310000Y273150D02*
D03*
Y266850D02*
D03*
X285000Y273150D02*
D03*
Y266850D02*
D03*
Y326850D02*
D03*
Y333150D02*
D03*
X315000Y326850D02*
D03*
Y333150D02*
D03*
X237500Y260000D02*
D03*
D46*
X236500Y340000D02*
D03*
X237500Y255000D02*
D03*
Y250000D02*
D03*
Y245000D02*
D03*
Y240000D02*
D03*
D47*
X230000Y175000D02*
D03*
Y185000D02*
D03*
X220000Y175000D02*
D03*
Y185000D02*
D03*
X250000Y175000D02*
D03*
Y185000D02*
D03*
X240000Y175000D02*
D03*
Y185000D02*
D03*
X270000Y175000D02*
D03*
Y185000D02*
D03*
X280000Y175000D02*
D03*
Y185000D02*
D03*
X310000Y175000D02*
D03*
Y185000D02*
D03*
X340000Y175000D02*
D03*
Y185000D02*
D03*
X350000Y175000D02*
D03*
Y185000D02*
D03*
X360000Y175000D02*
D03*
Y185000D02*
D03*
X370000Y175000D02*
D03*
Y185000D02*
D03*
X380000Y175000D02*
D03*
X330000D02*
D03*
Y185000D02*
D03*
X320000Y175000D02*
D03*
Y185000D02*
D03*
X290000Y175000D02*
D03*
Y185000D02*
D03*
X300000Y175000D02*
D03*
Y185000D02*
D03*
X260000Y175000D02*
D03*
Y185000D02*
D03*
X370000Y425000D02*
D03*
Y415000D02*
D03*
X380000Y425000D02*
D03*
Y415000D02*
D03*
X350000Y425000D02*
D03*
Y415000D02*
D03*
X360000Y425000D02*
D03*
Y415000D02*
D03*
X330000Y425000D02*
D03*
Y415000D02*
D03*
X320000Y425000D02*
D03*
Y415000D02*
D03*
X290000Y425000D02*
D03*
Y415000D02*
D03*
X260000Y425000D02*
D03*
Y415000D02*
D03*
X250000Y425000D02*
D03*
Y415000D02*
D03*
X240000Y425000D02*
D03*
Y415000D02*
D03*
X230000Y425000D02*
D03*
Y415000D02*
D03*
X220000Y425000D02*
D03*
X270000D02*
D03*
Y415000D02*
D03*
X280000Y425000D02*
D03*
Y415000D02*
D03*
X310000Y425000D02*
D03*
Y415000D02*
D03*
X300000Y425000D02*
D03*
Y415000D02*
D03*
X340000Y425000D02*
D03*
Y415000D02*
D03*
X425000Y230000D02*
D03*
X415000D02*
D03*
X425000Y220000D02*
D03*
X415000D02*
D03*
X425000Y250000D02*
D03*
X415000D02*
D03*
X425000Y240000D02*
D03*
X415000D02*
D03*
X425000Y270000D02*
D03*
X415000D02*
D03*
X425000Y280000D02*
D03*
X415000D02*
D03*
X425000Y310000D02*
D03*
X415000D02*
D03*
X425000Y340000D02*
D03*
X415000D02*
D03*
X425000Y350000D02*
D03*
X415000D02*
D03*
X425000Y360000D02*
D03*
X415000D02*
D03*
X425000Y370000D02*
D03*
X415000D02*
D03*
X425000Y380000D02*
D03*
Y330000D02*
D03*
X415000D02*
D03*
X425000Y320000D02*
D03*
X415000D02*
D03*
X425000Y290000D02*
D03*
X415000D02*
D03*
X425000Y300000D02*
D03*
X415000D02*
D03*
X425000Y260000D02*
D03*
X415000D02*
D03*
X175000Y370000D02*
D03*
X185000D02*
D03*
X175000Y380000D02*
D03*
X185000D02*
D03*
X175000Y350000D02*
D03*
X185000D02*
D03*
X175000Y360000D02*
D03*
X185000D02*
D03*
X175000Y330000D02*
D03*
X185000D02*
D03*
X175000Y320000D02*
D03*
X185000D02*
D03*
X175000Y290000D02*
D03*
X185000D02*
D03*
X175000Y260000D02*
D03*
X185000D02*
D03*
X175000Y250000D02*
D03*
X185000D02*
D03*
X175000Y240000D02*
D03*
X185000D02*
D03*
X175000Y230000D02*
D03*
X185000D02*
D03*
X175000Y220000D02*
D03*
Y270000D02*
D03*
X185000D02*
D03*
X175000Y280000D02*
D03*
X185000D02*
D03*
X175000Y310000D02*
D03*
X185000D02*
D03*
X175000Y300000D02*
D03*
X185000D02*
D03*
X175000Y340000D02*
D03*
X185000D02*
D03*
D48*
X380000Y185000D02*
D03*
X220000Y415000D02*
D03*
D49*
X250000Y350000D02*
D03*
X260000D02*
D03*
X270000D02*
D03*
X280000D02*
D03*
X290000D02*
D03*
X300000D02*
D03*
X310000D02*
D03*
X320000D02*
D03*
X330000D02*
D03*
X340000D02*
D03*
X245003Y242500D02*
D03*
X250000Y250000D02*
D03*
X255000Y242500D02*
D03*
X260000Y250000D02*
D03*
X345000Y357500D02*
D03*
X265000Y242500D02*
D03*
X270000Y250000D02*
D03*
X335000Y357500D02*
D03*
X275000Y242500D02*
D03*
X280000Y250000D02*
D03*
X325000Y357500D02*
D03*
X285000Y242500D02*
D03*
X290000Y250000D02*
D03*
X315000Y357500D02*
D03*
X295000Y242500D02*
D03*
X300000Y250000D02*
D03*
X305000Y357500D02*
D03*
Y242500D02*
D03*
X310000Y250000D02*
D03*
X295000Y357500D02*
D03*
X315000Y242500D02*
D03*
X320000Y250000D02*
D03*
X285000Y357500D02*
D03*
X325000Y242500D02*
D03*
X330000Y250000D02*
D03*
X275000Y357500D02*
D03*
X335000Y242500D02*
D03*
X340000Y250000D02*
D03*
X265000Y357500D02*
D03*
X345000Y242500D02*
D03*
X255000Y357500D02*
D03*
X245000D02*
D03*
D50*
X350000Y345000D02*
D03*
Y255000D02*
D03*
X242500Y335000D02*
D03*
X357500Y260000D02*
D03*
X250000Y330000D02*
D03*
X350000Y265000D02*
D03*
X242500Y325000D02*
D03*
X357500Y270000D02*
D03*
X250000Y320000D02*
D03*
X350000Y275000D02*
D03*
X242500Y315000D02*
D03*
X357500Y280000D02*
D03*
X250000Y310000D02*
D03*
X350000Y285000D02*
D03*
X242500Y305000D02*
D03*
X357500Y290000D02*
D03*
X350000Y295000D02*
D03*
X250000Y300000D02*
D03*
X357500D02*
D03*
X242500Y295000D02*
D03*
X350000Y305000D02*
D03*
X250000Y290000D02*
D03*
X357500Y310000D02*
D03*
X242500Y285000D02*
D03*
X350000Y315000D02*
D03*
X250000Y280000D02*
D03*
X357500Y320000D02*
D03*
X242500Y275000D02*
D03*
X350000Y325000D02*
D03*
X250000Y270000D02*
D03*
X357500Y330000D02*
D03*
X242500Y265000D02*
D03*
X350000Y335000D02*
D03*
X357500Y340000D02*
D03*
Y350000D02*
D03*
Y250000D02*
D03*
X250000Y340000D02*
D03*
D51*
X415000Y380000D02*
D03*
X185000Y220000D02*
D03*
D52*
X260000Y212500D02*
D03*
X250000D02*
D03*
Y222500D02*
D03*
X240000Y212500D02*
D03*
Y222500D02*
D03*
X220000Y212500D02*
D03*
Y222500D02*
D03*
D53*
X260000D02*
D03*
D54*
X230000Y212500D02*
D03*
Y222500D02*
D03*
D55*
X425098Y431280D02*
D03*
Y403721D02*
D03*
D56*
X414370Y427343D02*
D03*
Y407657D02*
D03*
D59*
X208575Y320323D02*
D03*
Y322882D02*
D03*
Y325441D02*
D03*
Y328000D02*
D03*
Y330559D02*
D03*
Y333118D02*
D03*
Y335677D02*
D03*
X230425Y320323D02*
D03*
Y322882D02*
D03*
Y325441D02*
D03*
Y328000D02*
D03*
Y330559D02*
D03*
Y333118D02*
D03*
Y335677D02*
D03*
D60*
X200500Y312154D02*
D03*
Y318847D02*
D03*
Y336846D02*
D03*
Y330153D02*
D03*
X228000Y311846D02*
D03*
Y305153D02*
D03*
X208000Y311846D02*
D03*
Y305153D02*
D03*
X274500Y273654D02*
D03*
Y280346D02*
D03*
X256500Y273654D02*
D03*
Y280346D02*
D03*
X262500Y273654D02*
D03*
Y280346D02*
D03*
X268500Y273654D02*
D03*
Y280346D02*
D03*
X393500Y328654D02*
D03*
Y335347D02*
D03*
D61*
X330350Y279000D02*
D03*
X336650D02*
D03*
X416850Y390000D02*
D03*
X423150D02*
D03*
X416850Y210000D02*
D03*
X423150D02*
D03*
X183150D02*
D03*
X176850D02*
D03*
X183150Y387500D02*
D03*
X176850D02*
D03*
X335650Y343055D02*
D03*
X329350D02*
D03*
X366150Y355500D02*
D03*
X359850D02*
D03*
X326850Y300000D02*
D03*
X333150D02*
D03*
X326850Y290000D02*
D03*
X333150D02*
D03*
X273150Y298000D02*
D03*
X266850D02*
D03*
X273150Y310000D02*
D03*
X266850D02*
D03*
D62*
X259752Y316500D02*
D03*
X275500D02*
D03*
X259752Y336185D02*
D03*
D63*
X275500D02*
D03*
D64*
X373638Y347748D02*
D03*
X375606D02*
D03*
X377575D02*
D03*
X379543D02*
D03*
X381512D02*
D03*
X383480D02*
D03*
Y331803D02*
D03*
X381512D02*
D03*
X379543D02*
D03*
X377575D02*
D03*
X375606D02*
D03*
X373638D02*
D03*
D65*
X386531Y344697D02*
D03*
Y342728D02*
D03*
Y340760D02*
D03*
Y338791D02*
D03*
Y336823D02*
D03*
Y334854D02*
D03*
X370587D02*
D03*
Y336823D02*
D03*
Y338791D02*
D03*
Y340760D02*
D03*
Y342728D02*
D03*
Y344697D02*
D03*
D66*
X378559Y339776D02*
D03*
D67*
X323445Y334114D02*
D03*
X332500D02*
D03*
X341555D02*
D03*
D68*
X332500Y310886D02*
D03*
M02*
