M48
;Layer_Color=9474304
;FILE_FORMAT=2:5
INCH,TZ
;TYPE=PLATED
T1F00S00C0.01181
T2F00S00C0.02953
T3F00S00C0.03937
T4F00S00C0.13780
%
T01
X265987Y50991
X265878Y61251
X265984Y71772
Y81772
Y91772
Y101772
X265878Y111349
X265441Y121500
X265984Y131772
X216734Y132772
X204500Y128500
X195984Y129272
X190984Y133272
X186484Y133772
Y137272
X170984Y137772
Y129772
X169984Y119272
X170116Y115272
X168484Y104272
X160984Y101772
X153984
X150484
X151984Y110272
X148484Y111772
X143484Y121508
X136984Y116272
X123484
X118484Y111772
Y121508
X128484
X123484Y134772
X100984Y136772
Y129772
Y126272
Y116272
Y112772
X103484Y104272
X113484Y101772
X117484
X120984
X133984
X138484
X155484Y88772
X175984Y91772
X175000Y97500
X183484Y89272
X185984Y117272
X157484Y130772
X151984Y133772
X116984Y88272
X121984Y79272
X119484Y74272
X112689Y69500
X103484Y64272
X100984Y6772
X110562Y6878
X120712Y7314
X130984Y6772
X140984
X150984
X160984
X170984
X180984
X190984
X200984
X210984
X220984
X223484Y34272
X225984Y36772
X235984Y46772
X237984Y48772
X210984Y44272
X92984Y59272
X80484Y54272
X70984Y49272
X65984Y44272
X58484
X58760Y49449
Y54272
X58484Y59272
X58760Y64272
Y69272
Y74272
Y79272
X80984Y84272
X85984Y89272
X93484Y94272
X85857Y114772
X85000Y125500
X76676Y126080
X80500Y133500
X5984Y131772
Y121772
Y111772
Y101772
Y91772
Y81772
Y71772
Y61772
Y51772
X20984Y34272
X15984Y23772
Y10272
X43799Y9429
X50204Y6769
X60464Y6878
X70984Y6772
X80984
X90984
X43799Y23150
X38484Y34272
X60502Y141440
X83484Y144272
X81500Y148000
X82500Y151500
X83484Y189272
X78484Y194272
X88484Y184272
X93484Y179272
X62984Y203772
Y219772
X53484Y224272
X48484
X43484
X45984Y226772
X50984
X55984
X40984
X30484Y219272
X29984Y204272
X5984Y201772
Y191772
Y181772
Y171772
X6090Y162194
X6527Y152043
X5984Y141772
X6090Y212292
X5981Y222552
X20984Y236772
X26178Y239465
X50984Y266772
X60984
X70984
X80984
X90984
X85984Y281772
X76484
X77484Y276772
X43984Y294272
X100492Y274825
X110984Y266772
X120984
X130984
X140984
X151256Y266229
X161407Y266666
X170984Y266772
X180984
X190984
X200984
X211505Y266666
X208984Y275772
X243484
X248984Y275272
X249984Y261772
X246484
X247484Y258272
Y254772
X247500Y250500
X243856
X234484Y252772
X234646Y255772
X235984Y283366
Y287303
X237953Y289272
X235984Y291240
X234016Y289272
X230079
X235984Y295177
X241890Y289272
X238484Y224772
X219748Y226143
X214484Y226272
X217000Y222000
X222500Y220500
X209484Y215272
X193484Y194272
X188484Y189272
X183484Y184272
X178484Y179272
X168484Y169272
X160984Y171772
X157484
X153984
X150484
X148484Y164272
X145984Y158772
X148484Y151772
X160984
X168484
X170984Y157272
Y161272
X160484Y158772
X153984Y144272
X170984Y143772
X186000Y144500
X186484Y158772
X211984Y141772
X218484Y140272
X128484Y139272
X118484
X116484Y144272
X115984Y151772
X120984Y164272
X121484Y171772
X117984
X114484Y171708
X110984Y171772
Y164772
X103484Y169272
X100984Y158772
Y154772
Y144272
Y140272
X135984Y151772
X134484Y171772
X137984
X127984Y167772
X135984Y185272
X116984
X155984
X175000Y285000
X250984Y280772
X265484
X264984Y286772
Y293772
X263984Y261772
X260484
X260984Y251504
X264996
X265984Y221772
Y211772
Y201772
Y191772
Y181772
Y171772
Y161772
Y151772
Y141772
X264984Y300772
X249408Y300848
X248984Y306772
X44484Y312772
T02
X255354Y246929
Y266614
T03
X250984Y56772
X260984
Y66772
Y76772
X250984
Y86772
Y96772
X260984
Y106772
Y116772
Y126772
Y136772
X250984
Y126772
Y116772
Y106772
X260984Y86772
X250984Y66772
X218484Y57772
Y76772
X195984
Y57772
Y21772
X205984
X215984
Y11772
X205984
X195984
X185984
Y21772
X175984
X165984
X155984
Y11772
X165984
X175984
X145984
X135984
Y21772
X125984
Y11772
X115984
Y21772
X105984
X95984
Y11772
X105984
X145984Y21772
X85984
X75984
Y11772
X85984
X65984
X55984
Y21772
X65984
X20984Y56772
X10984
Y66772
X20984
Y76772
X10984
Y86772
X20984
Y96772
Y106772
Y116772
X10984
Y106772
Y96772
Y126772
Y136772
X20984
Y126772
Y146772
X10984
Y156772
X20984
Y166772
Y176772
X10984
Y166772
Y186772
Y196772
X20984
Y186772
Y206772
Y216772
X10984
Y206772
X55984Y251772
X65984
X75984
X85984
Y261772
X75984
X65984
X55984
X95984
Y251772
X105984
Y261772
X115984
X125984
Y251772
X115984
X135984
X145984
X155984
X165984
Y261772
X155984
X145984
X135984
X175984
X185984
Y251772
X195984
X205984
Y261772
X215984
Y251772
X195984Y261772
X175984Y251772
X266083Y242992
Y270551
X260984Y216772
X250984
Y206772
X260984
Y196772
X250984
Y186772
X260984
Y176772
Y166772
Y156772
X250984
Y166772
Y176772
Y146772
X260984
X215984Y304272
X205984
X195984
X185984
X175984
Y314272
X185984
X195984
X205984
X215984
X95984
Y304272
X85984
X75984
X65984
X55984
Y314272
X65984
X75984
X85984
T04
X255984Y16772
Y316772
X15984
M30
