M48
;Layer_Color=9474304
;FILE_FORMAT=2:5
INCH,TZ
;TYPE=PLATED
T1F00S00C0.01968
T2F00S00C0.02362
T3F00S00C0.02953
T4F00S00C0.03543
T5F00S00C0.03937
;TYPE=NON_PLATED
T6F00S00C0.05906
%
T01
X-42500Y-10000
Y0
Y10000
Y30000
Y40000
Y50000
Y80000
Y90000
X-32500Y95000
X-26648Y100000
X-22500Y90000
X-15000Y75000
Y67500
X0Y65000
X2362Y52362
Y47638
X-2362
Y52362
X-2500Y32500
X2500
X8000Y31500
X2500Y25000
X-5000
X-12500
X-17500Y32500
X-15000Y15000
X-15063Y10062
X-14821Y5216
X-15000Y0
X-5000Y-5000
X10000Y2500
Y12500
X22500Y22000
X17500Y34752
X42500Y30000
Y40000
Y50000
Y60000
X37500Y72500
X42500Y80000
Y90000
X31500Y84000
X20000Y92500
X15000Y87500
Y80000
X17500Y65000
X0Y85000
Y105000
X-5000
X-8500Y98500
X-12500Y110000
X7500Y107500
X5000Y103000
X22000Y105748
X30000Y112000
X42500Y20000
Y10000
Y0
Y-10000
X15500
X18000Y116000
X30000Y127500
X42500Y125000
X44000Y116000
X-5000Y112500
X0Y130000
X-25000Y117500
X-30000
X-40000Y126752
T02
X-29961Y122500
X-25039
T03
X-9843Y119370
X9843
T04
X-50000Y-10000
Y0
Y10000
Y20000
Y30000
Y40000
Y50000
Y60000
Y70000
Y80000
Y90000
Y100000
Y110000
X50000
Y100000
Y90000
Y80000
Y70000
Y60000
Y50000
Y40000
Y30000
Y20000
Y10000
X50000Y0
Y-10000
X50000Y120000
X-50000
T05
X-13780Y130098
X13780
T06
X-50000Y130000
X50000
M30
