M48
;Layer_Color=9474304
;FILE_FORMAT=2:5
INCH,TZ
;TYPE=PLATED
T1F00S00C0.01181
T2F00S00C0.02362
T3F00S00C0.02953
T4F00S00C0.03500
T5F00S00C0.03937
T6F00S00C0.13780
%
T01
X15000Y-135000
X25000
X35000
X45000
X55000
X65000
X75000
X85000
X75000Y-120000
X74500Y-97000
X90000Y-90000
X100000
Y-100000
X120000
X110000Y-110000
Y-130000
X130000
Y-110000
X132500Y-85000
Y-75000
Y-65000
Y-55000
Y-45000
Y-35000
Y-25000
Y-15000
Y-5000
Y5000
X120000Y-35000
Y-75000
X80000Y-80000
Y-67500
X70000Y-70000
X35000Y-85000
X40000Y-90000
Y-100000
X35000
Y-120000
X30000Y-30000
X27000Y-27000
X23000Y-23000
X20000Y-20000
X15000
Y-15000
X20000Y-10000
X20489Y-4921
X20000Y0
X15000
X38563Y3445
X38500Y-7000
X15256Y-35688
X10000Y-20000
X5000
X0Y-15000
X-5000Y-20000
X-9716Y-20284
X-15000Y-20000
X-21360Y-22954
X-21500Y-16000
X-20000Y-2000
X-20031Y1969
X-20000Y6000
Y10000
X-12047Y5000
X-7500
X-5000Y0
X-12500Y-2500
X0Y5000
X5000Y-10000
X-13287Y-37740
X-30500Y-32500
X-34500
X-38500
X-43000
X-39500Y1500
Y7000
X-120000Y5000
X-135000
Y-5000
Y-15000
Y-25000
Y-35000
Y-45000
Y-55000
Y-65000
Y-75000
Y-85000
X-120000Y-75000
Y-105000
X-130000
Y-110000
X-135000Y-115000
X-130000Y-130000
X-110000
X-100000Y-125000
X-90000
X-85000Y-135000
X-75000
X-65000
X-55000
X-45000
X-35000
X-25000
X-15000
X-5000
X5000
X-5000Y-120000
Y-100000
X0
Y-90000
X-5000
Y-80000
X-51000Y-98000
X-65000Y-100000
X-80000
X-90000
Y-90000
X-100000Y-105000
X-110000
Y-110000
X-105000Y-115000
X-75000Y-120000
X-65000
X-45000
X-62500Y-64500
X-67500Y-60000
X-69961Y-48732
X-120000Y-35000
X-135000Y15000
Y25000
Y35000
Y45000
Y55000
Y65000
Y75000
Y85000
X-130000Y110000
Y130000
X-110000
Y110000
X-102362Y102362
X-80000Y102500
Y80000
X-90000Y90000
X-83000Y59000
X-70000Y70000
X-63441Y30559
X-63500Y25500
X-35000Y30000
X-27500Y27500
X-23000Y23000
X-20748Y21000
X-15000Y20000
X-9352Y22953
X-10000Y15000
X-19000
X-11068Y36966
X10000Y95000
X5000Y132500
X-5000
X-15000
X-25000
X-35000
X-45000
X-55000
X-65000
X-75000
X-85000
X-75000Y120000
X-65000
X-35000
X-99500Y50000
X-102500Y51500
X-91000Y40500
X-99500Y25000
X-120000Y45000
X17000Y37500
X28000Y35000
Y27500
X23000Y23000
X20000Y20000
X15000
Y95000
X20000
X25000
X32500
X39000
X45000
X50000
X57500
X62500
X67500
X72500
X77500
X82500
X87500
X92500
X90000Y100000
X96000Y103000
X80000Y100000
X70000
X60000
X55000Y120000
X65000
X75000
Y132500
X65000
X55000
X45000
X35000
X25000
X15000
X35000Y120000
X85000Y132500
X103000Y117500
X106500Y114842
X125000Y117500
X130000Y125000
Y110000
X132500Y85000
Y75000
Y65000
Y55000
Y45000
Y35000
Y25000
Y15000
X120000Y35000
X107500Y22500
X93500Y24500
X80921Y37413
Y42138
X76197
Y37413
X70587Y52539
X87500Y52461
Y67500
X82017Y67032
X93500Y67500
X100000Y65000
X98500Y60500
X107500Y52500
X100394Y80709
X102362Y84646
X112205Y98425
X65000Y65000
X57500Y60000
X50000Y70000
T02
X15000Y-57500
X25000
X35000
X45000
X40000Y-50000
X30000
X20000
X50000Y-45000
Y-35000
Y-25000
Y-15000
Y-5000
Y5000
X57500Y0
Y-10000
Y-20000
Y-30000
Y-40000
Y-50000
Y10000
X-50000
Y0
Y-10000
Y-20000
Y-30000
X-57500Y-25000
Y-15000
Y-5000
Y5000
Y-35000
X-62500Y-40000
Y-45000
Y-50000
Y-55000
Y-60000
X-54997Y-57500
X-45000
X-35000
X-25000
X-15000
X-5000
X5000
X0Y-50000
X-10000
X-20000
X-30000
X-40000
X-50000
X10000
Y50000
X0
X-10000
X-20000
X-30000
X-40000
X-50000
Y40000
Y30000
Y20000
X-57500Y25000
Y35000
Y15000
X-55000Y57500
X-45000
X-35000
X-25000
X-15000
X-5000
X5000
X15000
X25000
X35000
X45000
X40000Y50000
X30000
X20000
X50000Y45000
Y35000
Y25000
Y15000
X57500Y20000
Y30000
Y40000
Y50000
T03
X114370Y107658
Y127342
T04
X-92000Y-21500
Y-2500
X-72000
Y-21500
T05
X20000Y-125000
Y-115000
X30000
Y-125000
X40000
X50000
X60000
X70000
X80000
Y-115000
X70000
X60000
X50000
X40000
X115000Y-80000
X125000
Y-70000
Y-60000
X115000
Y-50000
Y-40000
X125000
Y-30000
Y-20000
Y-10000
Y0
X115000
Y-10000
Y-20000
Y-30000
X125000Y-50000
X115000Y-70000
Y10000
X125000
X-115000
Y0
X-125000
Y10000
Y-10000
Y-20000
X-115000
Y-30000
X-125000
Y-40000
Y-50000
Y-60000
Y-70000
Y-80000
X-115000
Y-70000
Y-60000
Y-50000
Y-40000
Y-10000
X-80000Y-77500
Y-87500
X-70000
Y-77500
X-60000
Y-87500
X-50000
Y-77500
X-40000
Y-87500
Y-115000
Y-125000
X-30000
X-20000
X-10000
X0
Y-115000
X-10000
X-20000
X-30000
X-50000
X-60000
Y-125000
X-50000
X-70000
X-80000
Y-115000
X-70000
X10000
Y-125000
Y115000
X0
Y125000
X10000
X-10000
X-20000
Y115000
X-30000
Y125000
X-40000
X-50000
X-60000
X-70000
X-80000
Y115000
X-70000
X-60000
X-50000
X-40000
X-10000
X-115000Y80000
X-125000
Y70000
Y60000
X-115000
Y50000
Y40000
X-125000
Y30000
Y20000
X-115000
Y30000
X-125000Y50000
X-115000Y70000
X20000Y115000
Y125000
X30000
X40000
Y115000
X30000
X50000
X60000
Y125000
X50000
X70000
X80000
Y115000
X70000
X125098Y103720
X125000Y80000
X115000
Y70000
X125000
Y60000
X115000
Y50000
X125000
Y40000
Y30000
Y20000
X115000
Y30000
Y40000
X125098Y131280
T06
X120000Y-120000
X-120000
Y120000
M30
