M48
;Layer_Color=9474304
;FILE_FORMAT=2:5
INCH,TZ
;TYPE=PLATED
T1F00S00C0.01181
T2F00S00C0.01968
T3F00S00C0.03150
T4F00S00C0.03500
T5F00S00C0.03543
%
T01
X73000Y26000
X78500Y58500
T02
X48500Y14000
X52500Y10000
X58500Y8500
Y29000
X43500Y26500
X37000Y19000
X34000Y15000
X20000Y18500
X22583Y33815
X32500Y42500
X32000Y48000
X31500Y54000
X35000Y58000
X24000Y63000
X18500Y63500
Y89500
Y94000
X12500Y90000
X7000Y94000
X7500Y80000
X29500Y82000
X53000Y94000
X55500Y65500
X64500Y61500
X47500Y57500
Y52500
Y47500
Y42500
X40000
Y50000
X40500Y56000
X56000Y33500
X82500Y49000
X76000Y83500
T03
X50417Y78685
X60417
X70417
Y88685
X50417
T04
X42000Y15500
X61000
T05
X40000Y0
X50000
X60000
X70000
X80000
X90000
Y10000
Y20000
Y30000
X30000Y0
X20000
X10000
X0
Y10000
Y20000
Y30000
Y40000
Y50000
Y60000
Y70000
Y80000
Y90000
Y100000
Y110000
X10000
X20000
X30000
X40000
X50000
X60000
X70000
X80000
X90000
Y100000
Y90000
Y80000
Y70000
Y60000
Y50000
Y40000
X60417Y88685
M30
