M48
;Layer_Color=9474304
;FILE_FORMAT=2:5
INCH,TZ
;TYPE=PLATED
T1F00S00C0.01181
T2F00S00C0.02362
T3F00S00C0.02953
T4F00S00C0.03150
T5F00S00C0.03500
T6F00S00C0.03543
T7F00S00C0.03937
T8F00S00C0.09843
%
T01
X3370Y2740
X25370
X36370
X26370Y13740
X54370Y11240
Y3740
X61870
Y11240
Y16240
X74370Y3740
X82110Y2740
X104110
X115110
X133110Y3740
Y11240
X140610
Y16240
Y3740
X153110
X160850Y2740
X182850
X193850
X183850Y13740
X105110
X211850Y11240
Y3740
X219350
Y11240
Y16240
X231850Y3740
X246969Y17835
X261968
X294213
X309213
X319803Y13110
Y3110
X329803
X347303Y15610
X369803Y13110
X377303Y18110
X379803Y3110
X389803
Y13110
X372303Y20610
X374803Y35610
X359803Y50610
X354803Y58110
Y65610
X362303
X369803Y80610
Y85610
Y95610
X359803Y98110
X352803Y97110
X356803Y91110
X359803Y85610
X352303Y83110
X377303Y80610
Y75610
X379803Y93110
Y113110
Y123110
X389803
Y113110
X359803
X354803Y25610
X342303Y35610
X337303
X332303
X335303Y39610
X339803Y43110
X347303Y53110
Y65610
X339803Y93110
X319803Y113110
Y123110
X329803
X286713Y67303
Y49803
Y27303
Y22303
X296713Y27303
X304213Y19803
X312713Y19335
X265469
X256968Y19803
X249468Y27303
X239469
Y22303
X231850Y21240
X219350Y26240
Y33740
X212618Y34255
X219350Y41240
X204350Y51240
X196850
X201850Y61240
X199850Y67740
X196850Y78740
X206850Y86240
X207850Y96740
X211260Y101240
X219350Y111740
X211850Y123740
X216850Y131240
X231850Y133740
X196850
Y123740
Y96240
X216850Y83740
X221850
X216850Y73740
X239469Y67303
Y49803
X196850Y35740
Y23740
X184350Y31240
X176850Y24740
X160850Y23740
X153110Y21240
X140610Y26240
Y33740
X133878Y34255
X140610Y41240
X161850Y43740
X174350Y55240
X176850Y58740
X179350Y63740
X183850
X181850Y72240
X187350
X187850Y86240
X171850Y83740
X176850Y98740
X179350Y111240
X181850Y123740
X176850Y131240
X161850Y133740
X153110
X138110Y131240
X133110Y123740
X118110
Y133740
X98110Y131240
X103110Y123740
X100610Y111240
X98110Y98740
X93110Y83740
X109110Y86240
X108610Y72240
X103110
X105110Y63740
X100610
X98110Y58740
X95610Y55240
X83110Y43740
X82110Y23740
X74370Y21240
X61870Y26240
Y33740
X55138Y34255
X61870Y41240
X46870Y51240
X39370
X44370Y61240
X42370Y67740
X39370Y78740
X49370Y86240
X50370Y96740
X53780Y101240
X61870Y111740
X54370Y123740
X59370Y131240
X74370Y133740
X83110
Y113740
X64370Y83740
X59370
Y73740
X39370Y96240
Y123740
Y133740
Y35740
Y23740
X98110Y24740
X105610Y31240
X118110Y35740
Y23740
X113110Y43740
X118110Y51240
X125610
X123110Y61240
X121110Y67740
X118110Y78740
X128110Y86240
X129110Y96740
X132520Y101240
X140610Y111740
X161850Y113740
X143110Y83740
X138110
Y73740
X118110Y96240
X191850Y43740
X34370
X26870Y31240
X19370Y24740
X3370Y23740
X4370Y43740
X16870Y55240
X19370Y58740
X21870Y63740
X26370
X24370Y72240
X29870
X30370Y86240
X14370Y83740
X19370Y98740
X21870Y111240
X24370Y123740
X19370Y131240
X4370Y133740
Y113740
X4370Y192717
X16870Y197717
X9370Y207717
X36870Y210217
X31870Y227717
X26870Y252717
X36870Y262717
X19370Y267717
X31870Y192717
Y177717
X49370Y175217
Y195217
X41870
X39370Y200217
Y207717
X46870Y217717
Y220217
Y222717
X41870Y230217
X51870Y232717
X56870Y220217
X61870
X66870
X74370Y222717
X71870Y235217
X69370Y209567
X88110Y207717
X95610Y197717
X83110Y192717
X110610
X120610Y195217
X128110
X118110Y200217
Y207717
X115610Y210217
X125610Y217717
Y220217
Y222717
X120610Y230217
X110610Y227717
X130610Y232717
X135610Y220217
X140610
X145610
X153110Y222717
X150610Y235217
X148110Y209567
X166850Y207717
X174350Y197717
X161850Y192717
X189350
Y177717
X194350Y210217
X189350Y227717
X184350Y252717
X194350Y262717
X176850Y267717
X138110
X118110
X115610Y262717
X105610Y252717
X98110Y267717
X59370
X39370
X61870Y185217
X110610Y177717
X128110Y175217
X140610Y185217
X199350Y195217
X206850
X196850Y200217
Y207717
X204350Y217717
Y220217
Y222717
X199350Y230217
X209350Y232717
X214350Y220217
X219350
X224350
X231850Y222717
X239469Y223091
Y228091
X249468
X246969Y218622
X256968Y220590
X261968Y218622
X265469Y220122
X286713Y223091
Y228091
X296713
X294213Y218622
X304213Y220590
X309213Y218622
X312713Y220122
X330335Y229350
X330312Y244350
Y249350
X335335
X344926Y244386
X347835Y224350
X337812Y261850
X330312
X286713Y268091
Y250590
X239469
Y268091
X216850Y267717
X196850
X229350Y235217
X226850Y209567
X219350Y185217
X206850Y175217
X357835Y221850
X370335Y226850
X367812Y244350
X374835
X355335Y249350
Y256850
X352812Y266850
T02
X36909Y175217
X41831
X115650
X120571
X194390
X199311
T03
X29528Y257087
X49213
X108268
X127953
X187008
X206693
T04
X354803Y128110
X364803
X374803
X384803
X382835Y146850
Y156850
X372835
X362835
X352835
Y166850
X362835
X372835
X382835
X372835Y146850
X362835
X352835
X342835
X332835
Y156850
X342835
Y166850
X332835
X322835
Y156850
Y146850
X324803Y128110
X334766Y127673
X344803Y128110
X302500Y132500
Y122500
Y112500
Y102500
Y92500
X292500
X282500
X272500
X262500
X252500
X242500
Y82500
X252500
X262500
X272500
X282500
X292500
X302500
X292500Y102500
Y112500
X282500
Y102500
X272500
Y112500
X262500
Y102500
X252500
Y112500
X242500
Y102500
Y122500
X252500
X262500
X272500
X282500
X292500
Y132500
X282500
X272500
X262500
X252500
X242500
Y142500
X252500
X262500
X272500
X282500
X292500
X302500
Y152500
Y162500
X292500
X282500
X272500
X262500
X252500
X242500
Y172500
X252500
X262500
X272500
X282500
X292500
X302500
X292500Y152500
X282500
X272500
X262500
X252500
X242500
X231850Y152717
X221850
X211850
X201850
Y162717
X211850
X221850
X231850
Y142717
X221850
X211850
X201850
X191850
X181850
X171850
X161850
X153110
X143110
X133110
X123110
X113110
X103110
X93110
X83110
X74370
X64370
X54370
X44370
Y152717
Y162717
X54370
Y152717
X64370
Y162717
X74370
X83110
Y152717
X74370
X93110
Y162717
X103110
Y152717
X113110
Y162717
X123110
Y152717
X133110
Y162717
X143110
Y152717
X153110
X161850
Y162717
X153110
X171850
Y152717
X181850
Y162717
X191850
Y152717
X34370
X24370
X14370
X4370
Y162717
X14370
X24370
X34370
Y142717
X24370
X14370
X4370
X242500Y182500
Y192500
X252500
Y182500
X262500
Y192500
X272500
Y182500
X282500
Y192500
X292500
Y182500
X302500
Y192500
X322835Y186850
X332835
X342835
Y176850
X332835
X322835
X352835
Y186850
X362835
Y176850
X372835
Y186850
X382835
Y176850
T05
X366303Y90610
X347303
X343835Y251850
X362835
T06
X9370Y8740
X19370
X34370
X44370
X88110
X98110
X113110
X123110
X166850
X176850
X191850
X201850
X324803Y8110
X334803
X344803
X324803Y18110
X354803Y8110
X364803
X374803
X384803
Y18110
Y28110
Y38110
Y48110
Y58110
Y68110
Y78110
Y88110
Y98110
Y108110
Y118110
X374803
X364803
X354803
X344803
X334803
X324803
Y108110
Y98110
Y88110
Y78110
Y68110
Y58110
Y48110
Y38110
Y28110
X226850Y28740
Y38740
Y48740
Y58740
Y68740
Y78740
Y88740
Y98740
Y108740
Y118740
Y128740
X201850Y28740
Y18740
X191850
Y28740
X176850Y18740
X166850
X166850Y28740
Y38740
Y48740
Y58740
Y68740
Y78740
Y88740
Y98740
Y108740
Y118740
Y128740
X148110
Y118740
Y108740
Y98740
Y88740
Y78740
Y68740
Y58740
Y48740
Y38740
Y28740
X123110
Y18740
X113110
Y28740
X98110Y18740
X88110
X88110Y28740
Y38740
Y48740
Y58740
Y68740
Y78740
Y88740
Y98740
Y108740
Y118740
Y128740
X69370
Y118740
Y108740
Y98740
Y88740
Y78740
Y68740
Y58740
Y48740
Y38740
Y28740
X44370
Y18740
X34370
Y28740
X19370Y18740
X9370
X9370Y28740
Y38740
Y48740
Y58740
Y68740
Y78740
Y88740
Y98740
Y108740
Y118740
Y128740
X24370Y175217
X9370Y217717
Y227717
Y237717
Y247717
X64370
X88110
Y237717
Y227717
Y217717
X103110Y175217
X135610
X181850
X166850Y217717
Y227717
Y237717
Y247717
X143110
X56870Y175217
X214350
X221850Y247717
X322835Y246850
Y256850
Y266850
Y236850
Y226850
Y216850
Y206850
Y196850
X332835
X342835
X352835
X362835
X372835
X382835
Y206850
Y216850
Y226850
Y236850
Y246850
X382835Y256850
X382835Y266850
X372835
X362835
T07
X25591Y267815
X53150
X104331
X131890
X183071
X210630
T08
X7874Y177165
Y267717
X70866
X86614
X149606
X165354
Y177165
X149606
X86614
X70866
X228346
Y267717
M30
