G04*
G04 #@! TF.GenerationSoftware,Altium Limited,Altium Designer,20.0.11 (256)*
G04*
G04 Layer_Physical_Order=1*
G04 Layer_Color=255*
%FSLAX25Y25*%
%MOIN*%
G70*
G01*
G75*
%ADD11C,0.00984*%
%ADD16R,0.05315X0.01575*%
%ADD17O,0.01181X0.07087*%
%ADD18O,0.07087X0.01181*%
%ADD19R,0.03543X0.03937*%
G04:AMPARAMS|DCode=20|XSize=31.5mil|YSize=31.5mil|CornerRadius=3.94mil|HoleSize=0mil|Usage=FLASHONLY|Rotation=270.000|XOffset=0mil|YOffset=0mil|HoleType=Round|Shape=RoundedRectangle|*
%AMROUNDEDRECTD20*
21,1,0.03150,0.02362,0,0,270.0*
21,1,0.02362,0.03150,0,0,270.0*
1,1,0.00787,-0.01181,-0.01181*
1,1,0.00787,-0.01181,0.01181*
1,1,0.00787,0.01181,0.01181*
1,1,0.00787,0.01181,-0.01181*
%
%ADD20ROUNDEDRECTD20*%
G04:AMPARAMS|DCode=21|XSize=31.5mil|YSize=31.5mil|CornerRadius=3.94mil|HoleSize=0mil|Usage=FLASHONLY|Rotation=180.000|XOffset=0mil|YOffset=0mil|HoleType=Round|Shape=RoundedRectangle|*
%AMROUNDEDRECTD21*
21,1,0.03150,0.02362,0,0,180.0*
21,1,0.02362,0.03150,0,0,180.0*
1,1,0.00787,-0.01181,0.01181*
1,1,0.00787,0.01181,0.01181*
1,1,0.00787,0.01181,-0.01181*
1,1,0.00787,-0.01181,-0.01181*
%
%ADD21ROUNDEDRECTD21*%
G04:AMPARAMS|DCode=22|XSize=78.74mil|YSize=59.06mil|CornerRadius=14.76mil|HoleSize=0mil|Usage=FLASHONLY|Rotation=0.000|XOffset=0mil|YOffset=0mil|HoleType=Round|Shape=RoundedRectangle|*
%AMROUNDEDRECTD22*
21,1,0.07874,0.02953,0,0,0.0*
21,1,0.04921,0.05906,0,0,0.0*
1,1,0.02953,0.02461,-0.01476*
1,1,0.02953,-0.02461,-0.01476*
1,1,0.02953,-0.02461,0.01476*
1,1,0.02953,0.02461,0.01476*
%
%ADD22ROUNDEDRECTD22*%
G04:AMPARAMS|DCode=23|XSize=39.37mil|YSize=59.06mil|CornerRadius=9.84mil|HoleSize=0mil|Usage=FLASHONLY|Rotation=90.000|XOffset=0mil|YOffset=0mil|HoleType=Round|Shape=RoundedRectangle|*
%AMROUNDEDRECTD23*
21,1,0.03937,0.03937,0,0,90.0*
21,1,0.01968,0.05906,0,0,90.0*
1,1,0.01968,0.01968,0.00984*
1,1,0.01968,0.01968,-0.00984*
1,1,0.01968,-0.01968,-0.00984*
1,1,0.01968,-0.01968,0.00984*
%
%ADD23ROUNDEDRECTD23*%
%ADD43C,0.03937*%
%ADD44C,0.01968*%
G04:AMPARAMS|DCode=45|XSize=66.93mil|YSize=55.12mil|CornerRadius=13.78mil|HoleSize=0mil|Usage=FLASHONLY|Rotation=180.000|XOffset=0mil|YOffset=0mil|HoleType=Round|Shape=RoundedRectangle|*
%AMROUNDEDRECTD45*
21,1,0.06693,0.02756,0,0,180.0*
21,1,0.03937,0.05512,0,0,180.0*
1,1,0.02756,-0.01968,0.01378*
1,1,0.02756,0.01968,0.01378*
1,1,0.02756,0.01968,-0.01378*
1,1,0.02756,-0.01968,-0.01378*
%
%ADD45ROUNDEDRECTD45*%
G04:AMPARAMS|DCode=46|XSize=60mil|YSize=49.21mil|CornerRadius=12.3mil|HoleSize=0mil|Usage=FLASHONLY|Rotation=90.000|XOffset=0mil|YOffset=0mil|HoleType=Round|Shape=RoundedRectangle|*
%AMROUNDEDRECTD46*
21,1,0.06000,0.02461,0,0,90.0*
21,1,0.03539,0.04921,0,0,90.0*
1,1,0.02461,0.01230,0.01770*
1,1,0.02461,0.01230,-0.01770*
1,1,0.02461,-0.01230,-0.01770*
1,1,0.02461,-0.01230,0.01770*
%
%ADD46ROUNDEDRECTD46*%
%ADD47C,0.06496*%
%ADD48R,0.06496X0.06496*%
%ADD49O,0.05906X0.07874*%
G04:AMPARAMS|DCode=50|XSize=59.06mil|YSize=78.74mil|CornerRadius=14.76mil|HoleSize=0mil|Usage=FLASHONLY|Rotation=0.000|XOffset=0mil|YOffset=0mil|HoleType=Round|Shape=RoundedRectangle|*
%AMROUNDEDRECTD50*
21,1,0.05906,0.04921,0,0,0.0*
21,1,0.02953,0.07874,0,0,0.0*
1,1,0.02953,0.01476,-0.02461*
1,1,0.02953,-0.01476,-0.02461*
1,1,0.02953,-0.01476,0.02461*
1,1,0.02953,0.01476,0.02461*
%
%ADD50ROUNDEDRECTD50*%
%ADD51C,0.07874*%
G04:AMPARAMS|DCode=52|XSize=78.74mil|YSize=78.74mil|CornerRadius=19.68mil|HoleSize=0mil|Usage=FLASHONLY|Rotation=0.000|XOffset=0mil|YOffset=0mil|HoleType=Round|Shape=RoundedRectangle|*
%AMROUNDEDRECTD52*
21,1,0.07874,0.03937,0,0,0.0*
21,1,0.03937,0.07874,0,0,0.0*
1,1,0.03937,0.01968,-0.01968*
1,1,0.03937,-0.01968,-0.01968*
1,1,0.03937,-0.01968,0.01968*
1,1,0.03937,0.01968,0.01968*
%
%ADD52ROUNDEDRECTD52*%
%ADD53R,0.06496X0.06496*%
%ADD54C,0.06000*%
%ADD55C,0.11811*%
%ADD56C,0.02362*%
%ADD57C,0.02756*%
G36*
X270162Y274677D02*
X269178Y274019D01*
X268051Y274486D01*
X267067D01*
Y270551D01*
Y266616D01*
X268051D01*
X269178Y267083D01*
X270162Y266425D01*
Y247118D01*
X269178Y246460D01*
X268051Y246927D01*
X267067D01*
Y242992D01*
Y239057D01*
X268051D01*
X269178Y239524D01*
X270162Y238866D01*
Y1491D01*
X1491D01*
Y3013D01*
X2310Y3560D01*
X3307Y3147D01*
X8228D01*
X10262Y3990D01*
X11105Y6024D01*
Y8976D01*
X10262Y11010D01*
X8228Y11853D01*
X6142D01*
Y16461D01*
X37810D01*
X38187Y15551D01*
X37952Y15316D01*
X37421Y14035D01*
Y11853D01*
X36772D01*
X34738Y11010D01*
X33895Y8976D01*
Y6024D01*
X34738Y3990D01*
X36772Y3147D01*
X41693D01*
X43727Y3990D01*
X44569Y6024D01*
Y6978D01*
X45758Y7470D01*
X46569Y9429D01*
X45758Y11388D01*
X43799Y12199D01*
X42770Y11773D01*
X41886D01*
X41693Y11853D01*
X41043D01*
Y13285D01*
X42219Y14461D01*
X51631D01*
X52178Y13642D01*
X51811Y12756D01*
X55984D01*
Y11772D01*
X56968D01*
Y7598D01*
X59224Y8532D01*
X60345Y11240D01*
X61410D01*
X62594Y8382D01*
X65984Y6978D01*
X69374Y8382D01*
X70452Y10983D01*
X71517D01*
X72594Y8382D01*
X75984Y6978D01*
X79374Y8382D01*
X80452Y10983D01*
X81517D01*
X82594Y8382D01*
X85984Y6978D01*
X89374Y8382D01*
X90558Y11240D01*
X91624D01*
X92745Y8532D01*
X95000Y7598D01*
Y11772D01*
X96969D01*
Y7598D01*
X99224Y8532D01*
X100345Y11240D01*
X101410D01*
X102594Y8382D01*
X105984Y6978D01*
X109374Y8382D01*
X110452Y10983D01*
X111517D01*
X112594Y8382D01*
X115984Y6978D01*
X119374Y8382D01*
X120452Y10983D01*
X121517D01*
X122594Y8382D01*
X125984Y6978D01*
X129374Y8382D01*
X130558Y11240D01*
X131623D01*
X132745Y8532D01*
X135000Y7598D01*
Y11772D01*
X136969D01*
Y7598D01*
X139224Y8532D01*
X140345Y11240D01*
X141410D01*
X142594Y8382D01*
X145984Y6978D01*
X149374Y8382D01*
X150452Y10983D01*
X151517D01*
X152594Y8382D01*
X155984Y6978D01*
X159374Y8382D01*
X160452Y10983D01*
X161517D01*
X162594Y8382D01*
X165984Y6978D01*
X169374Y8382D01*
X170558Y11240D01*
X171624D01*
X172745Y8532D01*
X175000Y7598D01*
Y11772D01*
X176969D01*
Y7598D01*
X179224Y8532D01*
X180345Y11240D01*
X181410D01*
X182594Y8382D01*
X185984Y6978D01*
X189374Y8382D01*
X190452Y10983D01*
X191517D01*
X192594Y8382D01*
X195984Y6978D01*
X199374Y8382D01*
X200452Y10983D01*
X201517D01*
X202594Y8382D01*
X205984Y6978D01*
X209374Y8382D01*
X210558Y11240D01*
X211624D01*
X212745Y8532D01*
X215000Y7598D01*
Y11772D01*
Y15945D01*
X212745Y15011D01*
X211624Y12303D01*
X210558D01*
X209374Y15162D01*
X206773Y16239D01*
Y17304D01*
X209374Y18382D01*
X210571Y21271D01*
X211555Y21075D01*
Y17343D01*
X220413D01*
Y26201D01*
X211555D01*
Y22468D01*
X210571Y22273D01*
X209374Y25162D01*
X207795Y25815D01*
X207265Y27096D01*
X207125Y27362D01*
X207374Y28215D01*
X207795Y29232D01*
X207795Y29232D01*
Y31594D01*
X207795Y31594D01*
X207265Y32875D01*
X207054Y33366D01*
X207265Y33857D01*
X207795Y35138D01*
X207795Y35138D01*
Y39272D01*
X207265Y40552D01*
X207265Y40552D01*
X195355Y52462D01*
X195902Y53280D01*
X195984Y53246D01*
X199184Y54572D01*
X200510Y57772D01*
X199184Y60972D01*
X195984Y62297D01*
X192784Y60972D01*
X191459Y57772D01*
X191493Y57690D01*
X190674Y57143D01*
X175549Y72268D01*
X175956Y73253D01*
X177165D01*
X178220Y73689D01*
X178657Y74744D01*
Y74941D01*
X175984D01*
Y76909D01*
X178657D01*
Y77106D01*
X178220Y78161D01*
X177953Y78272D01*
Y80059D01*
X178371Y80232D01*
X178870Y81437D01*
Y83799D01*
X178371Y85005D01*
X178343Y85016D01*
X178216Y85404D01*
X178758Y86225D01*
X178953Y86242D01*
X180832Y84363D01*
X180599Y83799D01*
Y81437D01*
X181098Y80232D01*
X181516Y80059D01*
Y78272D01*
X181248Y78161D01*
X180812Y77106D01*
Y76909D01*
X183484D01*
X186157D01*
Y77106D01*
X185720Y78161D01*
X185453Y78272D01*
Y80059D01*
X185871Y80232D01*
X186370Y81437D01*
Y83799D01*
X185871Y85005D01*
X184810Y85444D01*
X184765Y85552D01*
X184765Y85552D01*
X180765Y89552D01*
X179484Y90083D01*
X172734D01*
X172244Y90573D01*
Y92026D01*
X172351Y92283D01*
Y98189D01*
X171789Y99545D01*
X170433Y100107D01*
X169449Y99699D01*
X168465Y100107D01*
X167480Y99699D01*
X166496Y100107D01*
X165512Y99699D01*
X164528Y100107D01*
X164047Y99908D01*
X163294Y100661D01*
X163754Y101772D01*
X162943Y103730D01*
X160984Y104542D01*
X159026Y103730D01*
X158214Y101772D01*
X158275Y101624D01*
X157442Y100791D01*
X157412Y100788D01*
X156625Y101459D01*
X156754Y101772D01*
X155943Y103730D01*
X153984Y104542D01*
X152026Y103730D01*
X151214Y101772D01*
X151611Y100815D01*
X150857Y100061D01*
X150748Y100107D01*
X149764Y99699D01*
X148779Y100107D01*
X147795Y99699D01*
X146811Y100107D01*
X145827Y99699D01*
X144843Y100107D01*
X143858Y99699D01*
X142874Y100107D01*
X141890Y99699D01*
X140905Y100107D01*
X140664Y100348D01*
X141254Y101772D01*
X140443Y103730D01*
X138484Y104542D01*
X136526Y103730D01*
X135714Y101772D01*
X135885Y101360D01*
X135725Y101201D01*
X135534Y100738D01*
X135000Y99893D01*
X134273Y99592D01*
X133031Y100107D01*
X132047Y99699D01*
X131063Y100107D01*
X130079Y99699D01*
X129095Y100107D01*
X128110Y99699D01*
X127126Y100107D01*
X126142Y99699D01*
X125157Y100107D01*
X124173Y99699D01*
X123189Y100107D01*
X123101Y100195D01*
X123754Y101772D01*
X122943Y103730D01*
X120984Y104542D01*
X119026Y103730D01*
X118214Y101772D01*
X118384Y101363D01*
X118009Y100989D01*
X117892Y100707D01*
X117792Y100572D01*
X116771D01*
X116558Y101087D01*
X116143Y101502D01*
X116254Y101772D01*
X115443Y103730D01*
X113484Y104542D01*
X111526Y103730D01*
X110714Y101772D01*
X111396Y100125D01*
X111378Y100107D01*
X110394Y99699D01*
X109409Y100107D01*
X108425Y99699D01*
X107441Y100107D01*
X106457Y99699D01*
X105472Y100107D01*
X104488Y99699D01*
X103504Y100107D01*
X102520Y99699D01*
X101535Y100107D01*
X100180Y99545D01*
X99618Y98189D01*
Y92283D01*
X99724Y92026D01*
Y85573D01*
X64704Y50552D01*
X64173Y49272D01*
Y46291D01*
X64026Y46230D01*
X63214Y44272D01*
X64026Y42313D01*
X64173Y42252D01*
Y42185D01*
X64704Y40904D01*
X64915Y40413D01*
X64704Y39922D01*
X64173Y38642D01*
Y36280D01*
X64704Y34999D01*
X64915Y34508D01*
X64704Y34017D01*
X64173Y32736D01*
Y31083D01*
X45885D01*
X44604Y30552D01*
X40905Y26853D01*
X36772D01*
X34738Y26010D01*
X33895Y23976D01*
Y21024D01*
X33946Y20901D01*
X33399Y20083D01*
X11601D01*
X11054Y20901D01*
X11105Y21024D01*
Y23976D01*
X10262Y26010D01*
X8228Y26853D01*
X3307D01*
X2310Y26440D01*
X1491Y26987D01*
Y337091D01*
X270162D01*
Y274677D01*
D02*
G37*
G36*
X117334Y92283D02*
X117896Y90927D01*
X118010Y90880D01*
X118010Y90880D01*
X119252Y90366D01*
X119409Y90261D01*
Y84550D01*
X118204Y83345D01*
X117673Y82064D01*
Y76291D01*
X117526Y76230D01*
X116714Y74272D01*
X117526Y72313D01*
X117673Y72252D01*
Y71022D01*
X116368Y69717D01*
X115254Y69995D01*
X114648Y71459D01*
X113189Y72063D01*
Y90474D01*
X113211Y90489D01*
X114076Y90879D01*
X115315Y90366D01*
X116556Y90880D01*
X116557Y90880D01*
X116671Y90927D01*
X117233Y92283D01*
Y95236D01*
X117334D01*
Y92283D01*
D02*
G37*
G36*
X156704D02*
X157266Y90927D01*
X157380Y90880D01*
X157381Y90880D01*
X158622Y90366D01*
X158780Y90261D01*
Y70430D01*
X157795Y70022D01*
X152559Y75258D01*
Y90474D01*
X152582Y90489D01*
X153446Y90879D01*
X154685Y90366D01*
X155927Y90880D01*
X155927Y90880D01*
X156041Y90927D01*
X156603Y92283D01*
Y95236D01*
X156704D01*
Y92283D01*
D02*
G37*
%LPC*%
G36*
X256968Y324604D02*
Y317756D01*
X263817D01*
X263401Y319844D01*
X261661Y322448D01*
X259056Y324189D01*
X256968Y324604D01*
D02*
G37*
G36*
X16969D02*
Y317756D01*
X23817D01*
X23401Y319844D01*
X21661Y322448D01*
X19057Y324189D01*
X16969Y324604D01*
D02*
G37*
G36*
X255000D02*
X252912Y324189D01*
X250307Y322448D01*
X248567Y319844D01*
X248152Y317756D01*
X255000D01*
Y324604D01*
D02*
G37*
G36*
X15000D02*
X12912Y324189D01*
X10307Y322448D01*
X8567Y319844D01*
X8152Y317756D01*
X15000D01*
Y324604D01*
D02*
G37*
G36*
X205984Y319490D02*
X203987Y319093D01*
X202294Y317962D01*
X201576Y316887D01*
X200392D01*
X199674Y317962D01*
X197981Y319093D01*
X195984Y319490D01*
X193987Y319093D01*
X192294Y317962D01*
X191576Y316887D01*
X190392D01*
X189674Y317962D01*
X187981Y319093D01*
X185984Y319490D01*
X183987Y319093D01*
X182294Y317962D01*
X181447Y316694D01*
X180312Y316652D01*
X179532Y317820D01*
X177904Y318907D01*
X176969Y319093D01*
Y314272D01*
X175984D01*
Y313287D01*
X171162D01*
X171349Y312351D01*
X172436Y310724D01*
X173049Y310314D01*
X172940Y309204D01*
X171605Y308651D01*
X170607Y306240D01*
Y302303D01*
X171605Y299892D01*
X174016Y298894D01*
X175356D01*
X175663Y298154D01*
X185097Y288719D01*
X186378Y288189D01*
X186378Y288189D01*
X199506D01*
X223673Y264021D01*
Y240022D01*
X213204Y229552D01*
X212683Y228295D01*
X212526Y228230D01*
X211714Y226272D01*
X212526Y224313D01*
X214484Y223502D01*
X214744Y223242D01*
X214230Y222000D01*
X215041Y220041D01*
X217000Y219230D01*
X218959Y220041D01*
X219972Y219916D01*
X220541Y218541D01*
X220205Y217615D01*
X210513D01*
X209484Y218042D01*
X207526Y217230D01*
X206714Y215272D01*
X207487Y213405D01*
X207131Y212421D01*
X205685D01*
Y211083D01*
X204638D01*
X203357Y210552D01*
X201704Y208899D01*
X201236Y207769D01*
X200598Y207505D01*
X200099Y206299D01*
Y203937D01*
X200598Y202732D01*
X201016Y202559D01*
Y200772D01*
X200748Y200661D01*
X200312Y199606D01*
Y199409D01*
X202984D01*
X205657D01*
Y199606D01*
X205220Y200661D01*
X204953Y200772D01*
Y202559D01*
X205371Y202732D01*
X205870Y203937D01*
Y206122D01*
X211394D01*
X211591Y206122D01*
X212378D01*
X212575Y206122D01*
X218284D01*
Y212421D01*
X219058Y212928D01*
X231889D01*
X233546Y213614D01*
X240066Y220134D01*
X240753Y221792D01*
Y223561D01*
X241254Y224772D01*
X240443Y226730D01*
X238484Y227542D01*
X236526Y226730D01*
X235714Y224772D01*
X236065Y223925D01*
Y222762D01*
X230918Y217615D01*
X224795D01*
X224459Y218541D01*
X225270Y220500D01*
X225209Y220648D01*
X231989Y227428D01*
X231989Y227428D01*
X232520Y228709D01*
Y267728D01*
X232520Y267728D01*
X231989Y269009D01*
X231989Y269009D01*
X217795Y283203D01*
Y299413D01*
X217981Y299450D01*
X219674Y300582D01*
X220805Y302275D01*
X221203Y304272D01*
X220805Y306269D01*
X219674Y307962D01*
X218407Y308809D01*
X218365Y309944D01*
X219532Y310724D01*
X220620Y312351D01*
X220806Y313287D01*
X215984D01*
Y314272D01*
X215000D01*
Y319093D01*
X214064Y318907D01*
X212436Y317820D01*
X211656Y316652D01*
X210521Y316694D01*
X209674Y317962D01*
X207981Y319093D01*
X205984Y319490D01*
D02*
G37*
G36*
X216968Y319093D02*
Y315256D01*
X220806D01*
X220620Y316192D01*
X219532Y317820D01*
X217904Y318907D01*
X216968Y319093D01*
D02*
G37*
G36*
X175000D02*
X174064Y318907D01*
X172436Y317820D01*
X171349Y316192D01*
X171162Y315256D01*
X175000D01*
Y319093D01*
D02*
G37*
G36*
X96969Y319110D02*
Y315256D01*
X100246D01*
Y315256D01*
X98997Y318269D01*
X96969Y319110D01*
D02*
G37*
G36*
X95000D02*
X92971Y318269D01*
X91723Y315256D01*
Y315256D01*
X95000D01*
Y319110D01*
D02*
G37*
G36*
X56968D02*
Y315256D01*
X60246D01*
Y315256D01*
X58997Y318269D01*
X56968Y319110D01*
D02*
G37*
G36*
X55000D02*
X52971Y318269D01*
X51723Y315256D01*
Y315256D01*
X55000D01*
Y319110D01*
D02*
G37*
G36*
X85984Y319730D02*
X82820Y318420D01*
X81510Y315256D01*
Y313287D01*
X82070Y311935D01*
X80181Y310046D01*
X79347Y310603D01*
X80459Y313287D01*
Y315256D01*
X79148Y318420D01*
X75984Y319730D01*
X72820Y318420D01*
X71510Y315256D01*
Y313287D01*
X72070Y311935D01*
X70181Y310046D01*
X69347Y310603D01*
X70459Y313287D01*
Y315256D01*
X69148Y318420D01*
X65984Y319730D01*
X62820Y318420D01*
X61510Y315256D01*
Y313287D01*
X62820Y310123D01*
X63689Y309764D01*
Y308780D01*
X62820Y308420D01*
X61510Y305256D01*
Y303287D01*
X62820Y300124D01*
X62865Y300105D01*
X63095Y298944D01*
X58705Y294553D01*
X57795Y294930D01*
Y299073D01*
X59495Y299777D01*
X60337Y301811D01*
Y306732D01*
X59495Y308766D01*
X58712Y309090D01*
Y310156D01*
X58997Y310274D01*
X60246Y313287D01*
Y313287D01*
X51723D01*
Y313287D01*
X52971Y310274D01*
X53257Y310156D01*
Y309090D01*
X52474Y308766D01*
X51631Y306732D01*
Y301811D01*
X52474Y299777D01*
X54173Y299073D01*
Y292249D01*
X35704Y273779D01*
X35173Y272499D01*
Y234669D01*
X35704Y233389D01*
X39173Y229919D01*
Y228791D01*
X39026Y228730D01*
X38214Y226772D01*
X39026Y224813D01*
X40793Y224081D01*
X41526Y222313D01*
X43484Y221502D01*
X45443Y222313D01*
X45492Y222432D01*
X46476D01*
X46526Y222313D01*
X48484Y221502D01*
X50443Y222313D01*
X50492Y222432D01*
X51476D01*
X51526Y222313D01*
X53484Y221502D01*
X55443Y222313D01*
X56175Y224081D01*
X57943Y224813D01*
X58754Y226772D01*
X57943Y228730D01*
X57795Y228791D01*
Y235354D01*
X57795Y235354D01*
X57265Y236635D01*
X48295Y245604D01*
Y267522D01*
X68234Y287461D01*
X86484D01*
X87765Y287991D01*
X97265Y297491D01*
X97795Y298772D01*
X98080Y299681D01*
X99148Y300124D01*
X100459Y303287D01*
Y305256D01*
X99148Y308420D01*
X98023Y308886D01*
Y309870D01*
X98997Y310274D01*
X100246Y313287D01*
Y313287D01*
X91723D01*
Y313287D01*
X92971Y310274D01*
X93946Y309870D01*
Y308886D01*
X92820Y308420D01*
X91510Y305256D01*
Y303287D01*
X92820Y300124D01*
X93218Y299959D01*
X93449Y298798D01*
X85734Y291083D01*
X81143D01*
X80766Y291992D01*
X86928Y298154D01*
X87453Y299421D01*
X89148Y300124D01*
X90459Y303287D01*
Y305256D01*
X89148Y308420D01*
X88280Y308780D01*
Y309764D01*
X89148Y310123D01*
X90459Y313287D01*
Y315256D01*
X89148Y318420D01*
X85984Y319730D01*
D02*
G37*
G36*
X263817Y315787D02*
X256968D01*
Y308939D01*
X259056Y309354D01*
X261661Y311095D01*
X263401Y313699D01*
X263817Y315787D01*
D02*
G37*
G36*
X23817D02*
X16969D01*
Y308939D01*
X19057Y309354D01*
X21661Y311095D01*
X23401Y313699D01*
X23817Y315787D01*
D02*
G37*
G36*
X255000D02*
X248152D01*
X248567Y313699D01*
X250307Y311095D01*
X252912Y309354D01*
X255000Y308939D01*
Y315787D01*
D02*
G37*
G36*
X15000D02*
X8152D01*
X8567Y313699D01*
X10307Y311095D01*
X12912Y309354D01*
X15000Y308939D01*
Y315787D01*
D02*
G37*
G36*
X261512Y303657D02*
X259150D01*
X257944Y303158D01*
X257771Y302740D01*
X256197D01*
X256024Y303158D01*
X254819Y303657D01*
X252457D01*
X251251Y303158D01*
X251144Y302899D01*
X249408Y303618D01*
X247449Y302807D01*
X246638Y300848D01*
X247449Y298889D01*
X249408Y298078D01*
X251090Y298775D01*
X251251Y298385D01*
X252457Y297886D01*
X254819D01*
X256024Y298385D01*
X256197Y298803D01*
X257771D01*
X257944Y298385D01*
X259150Y297886D01*
X261512D01*
X262717Y298385D01*
X262717Y298385D01*
X263026Y298813D01*
X264984Y298002D01*
X266943Y298813D01*
X267754Y300772D01*
X266943Y302730D01*
X264984Y303542D01*
X263026Y302730D01*
X262717Y303158D01*
X262717Y303158D01*
X262328Y303319D01*
X261512Y303657D01*
D02*
G37*
G36*
X44484Y315542D02*
X42526Y314730D01*
X41714Y312772D01*
X42173Y311664D01*
Y296291D01*
X42026Y296230D01*
X41214Y294272D01*
X42026Y292313D01*
X43984Y291502D01*
X45943Y292313D01*
X46754Y294272D01*
X45943Y296230D01*
X45795Y296291D01*
Y310545D01*
X46443Y310813D01*
X47254Y312772D01*
X46443Y314730D01*
X44484Y315542D01*
D02*
G37*
G36*
X235984Y297947D02*
X234026Y297136D01*
X233214Y295177D01*
X233656Y294111D01*
X234022Y293209D01*
X233656Y292306D01*
X233449Y291807D01*
X232950Y291600D01*
X232047Y291234D01*
X231145Y291600D01*
X230079Y292042D01*
X228120Y291230D01*
X227309Y289272D01*
X228120Y287313D01*
X230079Y286502D01*
X231145Y286943D01*
X232047Y287309D01*
X232950Y286943D01*
X233449Y286736D01*
X233656Y286237D01*
X234022Y285335D01*
X233656Y284432D01*
X233214Y283366D01*
X234026Y281407D01*
X235984Y280596D01*
X236079Y280635D01*
X236832Y279882D01*
X236673Y279499D01*
Y241772D01*
X237204Y240491D01*
X242173Y235522D01*
Y208583D01*
X225984D01*
X225984Y208583D01*
X224704Y208052D01*
X224704Y208052D01*
X189683Y173032D01*
X180730D01*
X180472Y173138D01*
X174567D01*
X173211Y172576D01*
X172649Y171221D01*
X173057Y170236D01*
X172649Y169252D01*
X173057Y168268D01*
X172649Y167283D01*
X173057Y166299D01*
X172649Y165315D01*
X173057Y164331D01*
X172651Y163351D01*
X170984Y164042D01*
X169026Y163230D01*
X168214Y161272D01*
X169026Y159313D01*
X170984Y158502D01*
X171209Y158595D01*
X171637Y158167D01*
X171637Y158167D01*
X172030Y158004D01*
X172862Y157441D01*
X173164Y156714D01*
X172649Y155472D01*
X173057Y154488D01*
X172649Y153504D01*
X173057Y152520D01*
X172649Y151535D01*
X173057Y150551D01*
X172649Y149567D01*
X173057Y148583D01*
X172649Y147598D01*
X172990Y146776D01*
X172451Y145934D01*
X170984Y146542D01*
X169026Y145730D01*
X168214Y143772D01*
X169026Y141813D01*
X170984Y141002D01*
X172650Y141692D01*
X173057Y140709D01*
X172649Y139724D01*
X173164Y138483D01*
X173163Y138483D01*
X173211Y138368D01*
X174567Y137807D01*
X177520D01*
Y137705D01*
X174567D01*
X173211Y137144D01*
X173163Y137029D01*
X173164Y137029D01*
X172649Y135787D01*
X173057Y134803D01*
X172649Y133819D01*
X173057Y132835D01*
X172650Y131852D01*
X170984Y132542D01*
X169026Y131730D01*
X168214Y129772D01*
X169026Y127813D01*
X170984Y127002D01*
X172451Y127609D01*
X172990Y126767D01*
X172649Y125945D01*
X173057Y124961D01*
X172649Y123976D01*
X173057Y122992D01*
X172649Y122008D01*
X172789Y121670D01*
X171898Y121249D01*
X169984Y122042D01*
X169837Y121980D01*
X159765Y132052D01*
X159715Y132073D01*
X159443Y132730D01*
X157484Y133542D01*
X155526Y132730D01*
X154679Y133170D01*
X154585Y133363D01*
X154754Y133772D01*
X153943Y135730D01*
X151984Y136542D01*
X150026Y135730D01*
X149214Y133772D01*
X149641Y132743D01*
Y111301D01*
X149214Y110272D01*
X150026Y108313D01*
X151984Y107502D01*
X153943Y108313D01*
X154754Y110272D01*
X154328Y111301D01*
Y129132D01*
X155312Y129328D01*
X155526Y128813D01*
X157484Y128002D01*
X158339Y128356D01*
X167276Y119419D01*
X167214Y119272D01*
X168026Y117313D01*
X169984Y116502D01*
X170319Y116640D01*
X171147Y116297D01*
X172732D01*
X172862Y116102D01*
X173164Y115375D01*
X172649Y114134D01*
X173057Y113150D01*
X172649Y112165D01*
X173057Y111181D01*
X172649Y110197D01*
X173057Y109213D01*
X172649Y108228D01*
X173057Y107244D01*
X172649Y106260D01*
X173057Y105276D01*
X172649Y104291D01*
X173057Y103307D01*
X172649Y102323D01*
X173211Y100967D01*
X174567Y100405D01*
X180472D01*
X180730Y100512D01*
X199683D01*
X202284Y97910D01*
X204163Y96031D01*
X204163Y96031D01*
X204739Y95793D01*
X205444Y95501D01*
X205444Y95500D01*
X206138Y94807D01*
X206138Y94806D01*
X206396Y94185D01*
X206669Y93526D01*
X206669Y93526D01*
X206669Y93526D01*
X208339Y91855D01*
X208339Y91855D01*
X209620Y91325D01*
X210116Y91127D01*
X210314Y90631D01*
X210845Y89350D01*
X212515Y87680D01*
X212515Y87680D01*
X213796Y87149D01*
X214292Y86951D01*
X214490Y86455D01*
X215020Y85174D01*
X216691Y83504D01*
X216691Y83504D01*
X217971Y82973D01*
X218123Y82913D01*
X218522Y81867D01*
X218163Y81164D01*
X215284Y79972D01*
X213959Y76772D01*
X215284Y73572D01*
X218484Y72246D01*
X221684Y73572D01*
X222723Y76079D01*
X223884Y76310D01*
X228454Y71741D01*
X234704Y65491D01*
X234704Y65491D01*
X235984Y64961D01*
X246940D01*
X247594Y63382D01*
X250195Y62304D01*
Y61239D01*
X247594Y60162D01*
X246190Y56772D01*
X247594Y53382D01*
X250984Y51978D01*
X254374Y53382D01*
X255558Y56240D01*
X256624D01*
X257745Y53532D01*
X260000Y52598D01*
Y56772D01*
X260984D01*
Y57756D01*
X265158D01*
X264224Y60011D01*
X261516Y61132D01*
Y62198D01*
X264374Y63382D01*
X265778Y66772D01*
X264374Y70162D01*
X261773Y71239D01*
Y72304D01*
X264374Y73382D01*
X265778Y76772D01*
X264374Y80162D01*
X261773Y81239D01*
Y82304D01*
X264374Y83382D01*
X265778Y86772D01*
X264374Y90162D01*
X261516Y91346D01*
Y92411D01*
X264224Y93532D01*
X265158Y95787D01*
X260984D01*
Y97756D01*
X265158D01*
X264224Y100011D01*
X261516Y101132D01*
Y102198D01*
X264374Y103382D01*
X265778Y106772D01*
X264374Y110162D01*
X261773Y111239D01*
Y112304D01*
X264374Y113382D01*
X265778Y116772D01*
X264374Y120162D01*
X261773Y121239D01*
Y122304D01*
X264374Y123382D01*
X265778Y126772D01*
X264374Y130162D01*
X261516Y131345D01*
Y132411D01*
X264224Y133532D01*
X265158Y135787D01*
X260984D01*
Y137756D01*
X265158D01*
X264224Y140011D01*
X261516Y141132D01*
Y142198D01*
X264374Y143382D01*
X265778Y146772D01*
X264374Y150162D01*
X261773Y151239D01*
Y152304D01*
X264374Y153382D01*
X265778Y156772D01*
X264374Y160162D01*
X261773Y161239D01*
Y162304D01*
X264374Y163382D01*
X265778Y166772D01*
X264374Y170162D01*
X261516Y171345D01*
Y172411D01*
X264224Y173532D01*
X265158Y175787D01*
X260984D01*
Y177756D01*
X265158D01*
X264224Y180011D01*
X261516Y181132D01*
Y182198D01*
X264374Y183382D01*
X265778Y186772D01*
X264374Y190162D01*
X261773Y191239D01*
Y192304D01*
X264374Y193382D01*
X265778Y196772D01*
X264374Y200162D01*
X261773Y201239D01*
Y202304D01*
X264374Y203382D01*
X265778Y206772D01*
X264374Y210162D01*
X261516Y211346D01*
Y212411D01*
X264224Y213532D01*
X265158Y215787D01*
X260984D01*
X256811D01*
X257552Y213999D01*
X256799Y213246D01*
X255984Y213583D01*
X255413D01*
Y221201D01*
X247795D01*
Y237272D01*
X247265Y238552D01*
X247265Y238552D01*
X242295Y243522D01*
Y247491D01*
X243114Y248038D01*
X243856Y247730D01*
X245678Y248485D01*
X247500Y247730D01*
X249459Y248541D01*
X249997Y249843D01*
X251135D01*
X251850Y248997D01*
X251727Y248699D01*
Y247913D01*
X255354D01*
X258982D01*
Y248498D01*
X259487Y249002D01*
X259835Y249210D01*
X260984Y248734D01*
X262114Y249202D01*
X262990Y249528D01*
X263866Y249202D01*
X264996Y248734D01*
X266955Y249545D01*
X267766Y251504D01*
X266955Y253463D01*
X264996Y254274D01*
X263866Y253806D01*
X262990Y253480D01*
X262114Y253806D01*
X260984Y254274D01*
X260011Y253871D01*
X259193Y254418D01*
Y257362D01*
Y261299D01*
X258996D01*
Y261299D01*
X255354D01*
X251713D01*
Y261299D01*
X251516D01*
Y259693D01*
X250532Y259286D01*
X250265Y259552D01*
X249612Y259823D01*
X249443Y260230D01*
X247484Y261042D01*
X245526Y260230D01*
X244714Y258272D01*
X245439Y256522D01*
X244714Y254772D01*
X245110Y253816D01*
X244357Y253063D01*
X243856Y253270D01*
X243114Y252962D01*
X242295Y253509D01*
Y278521D01*
X248734Y284961D01*
X262965D01*
X263026Y284813D01*
X263499Y284617D01*
X263608Y283506D01*
X263520Y283447D01*
X263012Y283657D01*
X260650D01*
X259444Y283158D01*
X259271Y282740D01*
X257697D01*
X257524Y283158D01*
X256319Y283657D01*
X253957D01*
X252751Y283158D01*
X252628Y282861D01*
X250984Y283542D01*
X249026Y282730D01*
X248214Y280772D01*
X249026Y278813D01*
X250984Y278002D01*
X252628Y278683D01*
X252751Y278385D01*
X253957Y277886D01*
X256319D01*
X257524Y278385D01*
X257697Y278803D01*
X259271D01*
X259444Y278385D01*
X260650Y277886D01*
X263012D01*
X264217Y278385D01*
X264267Y278506D01*
X265484Y278002D01*
X267443Y278813D01*
X268254Y280772D01*
X267443Y282730D01*
X265965Y283343D01*
Y284408D01*
X266943Y284813D01*
X267754Y286772D01*
X266943Y288730D01*
X264984Y289542D01*
X263026Y288730D01*
X262965Y288583D01*
X251415D01*
X251039Y289492D01*
X253507Y291961D01*
X262965D01*
X263026Y291813D01*
X264984Y291002D01*
X266943Y291813D01*
X267754Y293772D01*
X266943Y295730D01*
X264984Y296542D01*
X263026Y295730D01*
X262965Y295583D01*
X252757D01*
X252757Y295583D01*
X251477Y295052D01*
X245569Y289145D01*
X244555Y289523D01*
X243848Y291230D01*
X241890Y292042D01*
X240824Y291600D01*
X239921Y291234D01*
X239019Y291600D01*
X238519Y291807D01*
X238313Y292306D01*
X237947Y293209D01*
X238313Y294111D01*
X238754Y295177D01*
X237943Y297136D01*
X235984Y297947D01*
D02*
G37*
G36*
X76484Y284542D02*
X74526Y283730D01*
X73714Y281772D01*
X74526Y279813D01*
X76484Y279002D01*
X78046Y279649D01*
X84150Y273545D01*
X85431Y273014D01*
X98472D01*
X98533Y272867D01*
X100492Y272056D01*
X102450Y272867D01*
X103262Y274825D01*
X102450Y276784D01*
X100492Y277595D01*
X98533Y276784D01*
X98472Y276636D01*
X86181D01*
X79765Y283052D01*
X78508Y283573D01*
X78443Y283730D01*
X76484Y284542D01*
D02*
G37*
G36*
X265099Y274486D02*
X264114D01*
X262306Y273737D01*
X261557Y271929D01*
Y271535D01*
X265099D01*
Y274486D01*
D02*
G37*
G36*
X256585Y270781D02*
X256339D01*
Y267598D01*
X258982D01*
Y268384D01*
X258280Y270079D01*
X256585Y270781D01*
D02*
G37*
G36*
X254370D02*
X254124D01*
X252429Y270079D01*
X251727Y268384D01*
Y267598D01*
X254370D01*
Y270781D01*
D02*
G37*
G36*
X265099Y269567D02*
X261557D01*
Y269173D01*
X262306Y267365D01*
X264114Y266616D01*
X265099D01*
Y269567D01*
D02*
G37*
G36*
X258982Y265630D02*
X255354D01*
X251727D01*
Y264844D01*
X252024Y264127D01*
X251713Y263661D01*
X251713D01*
Y262874D01*
X255354D01*
X258996D01*
Y263661D01*
X258996D01*
X258685Y264127D01*
X258982Y264844D01*
Y265630D01*
D02*
G37*
G36*
X216968Y265945D02*
Y262756D01*
X220158D01*
X219223Y265011D01*
X216968Y265945D01*
D02*
G37*
G36*
X55000D02*
X52745Y265011D01*
X51811Y262756D01*
X55000D01*
Y265945D01*
D02*
G37*
G36*
X205984Y266566D02*
X202594Y265162D01*
X201517Y262561D01*
X200452D01*
X199374Y265162D01*
X195984Y266566D01*
X192594Y265162D01*
X191517Y262561D01*
X190452D01*
X189374Y265162D01*
X185984Y266566D01*
X182594Y265162D01*
X181410Y262303D01*
X180345D01*
X179224Y265011D01*
X176969Y265945D01*
Y261772D01*
X175000D01*
Y265945D01*
X172745Y265011D01*
X171624Y262303D01*
X170558D01*
X169374Y265162D01*
X165984Y266566D01*
X162594Y265162D01*
X161517Y262561D01*
X160452D01*
X159374Y265162D01*
X155984Y266566D01*
X152594Y265162D01*
X151517Y262561D01*
X150452D01*
X149374Y265162D01*
X145984Y266566D01*
X142594Y265162D01*
X141410Y262303D01*
X140345D01*
X139224Y265011D01*
X136969Y265945D01*
Y261772D01*
X135000D01*
Y265945D01*
X132745Y265011D01*
X131623Y262303D01*
X130558D01*
X129374Y265162D01*
X125984Y266566D01*
X122594Y265162D01*
X121517Y262561D01*
X120452D01*
X119374Y265162D01*
X115984Y266566D01*
X112594Y265162D01*
X111517Y262561D01*
X110452D01*
X109374Y265162D01*
X105984Y266566D01*
X102594Y265162D01*
X101410Y262303D01*
X100345D01*
X99224Y265011D01*
X96969Y265945D01*
Y261772D01*
X95000D01*
Y265945D01*
X92745Y265011D01*
X91624Y262303D01*
X90558D01*
X89374Y265162D01*
X85984Y266566D01*
X82594Y265162D01*
X81517Y262561D01*
X80452D01*
X79374Y265162D01*
X75984Y266566D01*
X72594Y265162D01*
X71517Y262561D01*
X70452D01*
X69374Y265162D01*
X65984Y266566D01*
X62594Y265162D01*
X61410Y262303D01*
X60345D01*
X59224Y265011D01*
X56968Y265945D01*
Y261772D01*
Y257598D01*
X59224Y258532D01*
X60345Y261240D01*
X61410D01*
X62594Y258382D01*
X65195Y257304D01*
Y256239D01*
X62594Y255162D01*
X61398Y252273D01*
X60413Y252468D01*
Y256201D01*
X51555D01*
Y247342D01*
X60413D01*
Y251075D01*
X61398Y251271D01*
X62594Y248382D01*
X64173Y247728D01*
Y242854D01*
X64704Y241574D01*
X64915Y241083D01*
X64704Y240592D01*
X64173Y239311D01*
Y236949D01*
X64704Y235668D01*
X64915Y235177D01*
X64704Y234686D01*
X64173Y233405D01*
Y229272D01*
X64704Y227991D01*
X68161Y224534D01*
X67784Y223624D01*
X65256D01*
X63222Y222782D01*
X63102Y222493D01*
X62984Y222542D01*
X61026Y221730D01*
X60214Y219772D01*
X61026Y217813D01*
X62651Y217140D01*
X63222Y215761D01*
X65256Y214919D01*
X70177D01*
X72015Y215680D01*
X80654Y207041D01*
X80220Y206083D01*
X72915D01*
X72211Y207782D01*
X70177Y208625D01*
X65256D01*
X63222Y207782D01*
X62651Y206403D01*
X61026Y205730D01*
X60214Y203772D01*
X61026Y201813D01*
X62984Y201002D01*
X63102Y201051D01*
X63222Y200761D01*
X65256Y199919D01*
X70177D01*
X72211Y200761D01*
X72915Y202461D01*
X79840D01*
X99724Y182577D01*
Y181517D01*
X99618Y181260D01*
Y175354D01*
X100180Y173998D01*
X101535Y173437D01*
X102520Y173844D01*
X103504Y173437D01*
X104488Y173844D01*
X105472Y173437D01*
X106457Y173844D01*
X107441Y173437D01*
X108425Y173844D01*
X109409Y173437D01*
X110394Y173844D01*
X111378Y173437D01*
X112116Y172677D01*
X111714Y171708D01*
X112526Y169749D01*
X114484Y168938D01*
X116443Y169749D01*
X117254Y171708D01*
X117392Y171910D01*
X118666Y172029D01*
X118775Y171919D01*
X118714Y171772D01*
X119526Y169813D01*
X120554Y169387D01*
X123752Y166190D01*
X125409Y165503D01*
X125409Y165503D01*
X126774D01*
X127984Y165002D01*
X129943Y165813D01*
X130754Y167772D01*
X129943Y169730D01*
X127984Y170542D01*
X127137Y170191D01*
X126380D01*
X124343Y172228D01*
X124331Y172714D01*
X125157Y173437D01*
X126142Y173844D01*
X127126Y173437D01*
X128110Y173844D01*
X129095Y173437D01*
X130079Y173844D01*
X131063Y173437D01*
X132047Y173844D01*
X133031Y173437D01*
X134114Y173885D01*
X135069Y173462D01*
X135157Y173218D01*
Y173160D01*
X135474Y172397D01*
X135214Y171772D01*
X136026Y169813D01*
X137984Y169002D01*
X139943Y169813D01*
X140754Y171772D01*
X140423Y172571D01*
X140905Y173437D01*
X141890Y173844D01*
X142874Y173437D01*
X143858Y173844D01*
X144843Y173437D01*
X145827Y173844D01*
X146811Y173437D01*
X147795Y173844D01*
X148779Y173437D01*
X149764Y173844D01*
X150748Y173437D01*
X150857Y173482D01*
X151611Y172729D01*
X151214Y171772D01*
X152026Y169813D01*
X153984Y169002D01*
X155943Y169813D01*
X156754Y171772D01*
X156625Y172084D01*
X157412Y172756D01*
X157442Y172753D01*
X158275Y171919D01*
X158214Y171772D01*
X159026Y169813D01*
X160984Y169002D01*
X162943Y169813D01*
X163754Y171772D01*
X163294Y172882D01*
X164047Y173636D01*
X164528Y173437D01*
X165512Y173844D01*
X166496Y173437D01*
X167480Y173844D01*
X168465Y173437D01*
X169449Y173844D01*
X170433Y173437D01*
X171789Y173998D01*
X172351Y175354D01*
Y181260D01*
X172244Y181517D01*
Y184285D01*
X207265Y219306D01*
X207795Y220587D01*
Y224272D01*
Y233189D01*
X207795Y233189D01*
X207265Y234470D01*
X207054Y234961D01*
X207265Y235452D01*
X207795Y236732D01*
X207795Y236732D01*
Y239094D01*
X207795Y239094D01*
X207265Y240375D01*
X207054Y240866D01*
X207265Y241357D01*
X207795Y242638D01*
X207795Y242638D01*
Y245295D01*
Y247728D01*
X209374Y248382D01*
X210452Y250983D01*
X211517D01*
X212594Y248382D01*
X215984Y246978D01*
X219374Y248382D01*
X220778Y251772D01*
X219374Y255162D01*
X216516Y256346D01*
Y257411D01*
X219223Y258532D01*
X220158Y260787D01*
X215984D01*
Y261772D01*
X215000D01*
Y265945D01*
X212745Y265011D01*
X211624Y262303D01*
X210558D01*
X209374Y265162D01*
X205984Y266566D01*
D02*
G37*
G36*
X55000Y260787D02*
X51811D01*
X52745Y258532D01*
X55000Y257598D01*
Y260787D01*
D02*
G37*
G36*
X265099Y246927D02*
X264114D01*
X262306Y246178D01*
X261557Y244370D01*
Y243976D01*
X265099D01*
Y246927D01*
D02*
G37*
G36*
X258982Y245945D02*
X256339D01*
Y242762D01*
X256585D01*
X258280Y243464D01*
X258982Y245160D01*
Y245945D01*
D02*
G37*
G36*
X254370D02*
X251727D01*
Y245160D01*
X252429Y243464D01*
X254124Y242762D01*
X254370D01*
Y245945D01*
D02*
G37*
G36*
X265099Y242008D02*
X261557D01*
Y241614D01*
X262306Y239806D01*
X264114Y239057D01*
X265099D01*
Y242008D01*
D02*
G37*
G36*
X261968Y220945D02*
Y217756D01*
X265158D01*
X264224Y220011D01*
X261968Y220945D01*
D02*
G37*
G36*
X260000D02*
X257745Y220011D01*
X256811Y217756D01*
X260000D01*
Y220945D01*
D02*
G37*
G36*
X10000D02*
X7745Y220011D01*
X6811Y217756D01*
X10000D01*
Y220945D01*
D02*
G37*
G36*
X26178Y242875D02*
X23678D01*
X21267Y241876D01*
X18574Y239182D01*
X17575Y236772D01*
Y220115D01*
X16410Y217303D01*
X15345D01*
X14223Y220011D01*
X11969Y220945D01*
Y216772D01*
X10984D01*
Y215787D01*
X6811D01*
X7745Y213532D01*
X10453Y212411D01*
Y211346D01*
X7594Y210162D01*
X6190Y206772D01*
X7594Y203382D01*
X10195Y202304D01*
Y201239D01*
X7594Y200162D01*
X6190Y196772D01*
X7594Y193382D01*
X10195Y192304D01*
Y191239D01*
X7594Y190162D01*
X6190Y186772D01*
X7594Y183382D01*
X10453Y182198D01*
Y181132D01*
X7745Y180011D01*
X6811Y177756D01*
X10984D01*
Y175787D01*
X6811D01*
X7745Y173532D01*
X10453Y172411D01*
Y171345D01*
X7594Y170162D01*
X6190Y166772D01*
X7594Y163382D01*
X10195Y162304D01*
Y161239D01*
X7594Y160162D01*
X6190Y156772D01*
X7594Y153382D01*
X10195Y152304D01*
Y151239D01*
X7594Y150162D01*
X6190Y146772D01*
X7594Y143382D01*
X10453Y142198D01*
Y141132D01*
X7745Y140011D01*
X6811Y137756D01*
X10984D01*
Y135787D01*
X6811D01*
X7745Y133532D01*
X10453Y132411D01*
Y131345D01*
X7594Y130162D01*
X6190Y126772D01*
X7594Y123382D01*
X10195Y122304D01*
Y121239D01*
X7594Y120162D01*
X6190Y116772D01*
X7594Y113382D01*
X10195Y112304D01*
Y111239D01*
X7594Y110162D01*
X6190Y106772D01*
X7594Y103382D01*
X10453Y102198D01*
Y101132D01*
X7745Y100011D01*
X6811Y97756D01*
X10984D01*
Y95787D01*
X6811D01*
X7745Y93532D01*
X10453Y92411D01*
Y91346D01*
X7594Y90162D01*
X6190Y86772D01*
X7594Y83382D01*
X10195Y82304D01*
Y81239D01*
X7594Y80162D01*
X6190Y76772D01*
X7594Y73382D01*
X10195Y72304D01*
Y71239D01*
X7594Y70162D01*
X6190Y66772D01*
X7594Y63382D01*
X10453Y62198D01*
Y61132D01*
X7745Y60011D01*
X6811Y57756D01*
X10984D01*
X15158D01*
X14223Y60011D01*
X11516Y61132D01*
Y62198D01*
X14374Y63382D01*
X15452Y65983D01*
X16517D01*
X17594Y63382D01*
X20483Y62185D01*
X20288Y61201D01*
X16555D01*
Y52342D01*
X25413D01*
Y61201D01*
X21681D01*
X21485Y62185D01*
X24374Y63382D01*
X25778Y66772D01*
X24374Y70162D01*
X21773Y71239D01*
Y72304D01*
X24374Y73382D01*
X25657Y76478D01*
X25820Y76546D01*
X35734Y86461D01*
X45496D01*
X46777Y86991D01*
X47268Y87202D01*
X47759Y86991D01*
X49039Y86461D01*
X49039Y86461D01*
X51402D01*
X52682Y86991D01*
X53173Y87202D01*
X53664Y86991D01*
X54945Y86461D01*
X54945Y86461D01*
X57307D01*
X58588Y86991D01*
X59079Y87202D01*
X59570Y86991D01*
X60850Y86461D01*
X60850Y86461D01*
X64984D01*
X66265Y86991D01*
X79786Y100512D01*
X91239D01*
X91496Y100405D01*
X97402D01*
X98757Y100967D01*
X99319Y102323D01*
X98911Y103307D01*
X99319Y104291D01*
X98911Y105276D01*
X99319Y106260D01*
X98911Y107244D01*
X99319Y108228D01*
X98911Y109213D01*
X99319Y110197D01*
X98911Y111181D01*
X99319Y112165D01*
X98839Y113325D01*
X99297Y114200D01*
X100984Y113502D01*
X102943Y114313D01*
X103754Y116272D01*
X102943Y118230D01*
X100984Y119042D01*
X99618Y118476D01*
X99008Y119288D01*
X99319Y120039D01*
X98911Y121024D01*
X99319Y122008D01*
X98911Y122992D01*
X99319Y123976D01*
X98911Y124961D01*
X99319Y125945D01*
X98805Y127186D01*
X98805Y127187D01*
X98758Y127301D01*
X97402Y127863D01*
X94449D01*
Y128898D01*
D01*
Y129933D01*
X97402D01*
X98758Y130494D01*
X98805Y130609D01*
X98805Y130609D01*
X99319Y131850D01*
X98911Y132835D01*
X99319Y133819D01*
X98805Y135060D01*
X98805Y135061D01*
X98758Y135175D01*
X97402Y135737D01*
X94449D01*
X91496D01*
X90140Y135175D01*
X90093Y135061D01*
X90093Y135060D01*
X89578Y133819D01*
X89473Y133661D01*
X83379D01*
X83078Y133962D01*
X82459Y135459D01*
X80500Y136270D01*
X78733Y135538D01*
X77784Y135987D01*
Y137913D01*
X89686D01*
X89792Y137756D01*
X90199Y136772D01*
X94449D01*
Y137807D01*
X97402D01*
X98758Y138368D01*
X98805Y138483D01*
X98805Y138483D01*
X99319Y139724D01*
X98911Y140709D01*
X99319Y141693D01*
X100229Y141815D01*
X100984Y141502D01*
X102943Y142313D01*
X103754Y144272D01*
X102943Y146230D01*
X100984Y147042D01*
X99982Y146626D01*
X99229Y147380D01*
X99319Y147598D01*
X98911Y148583D01*
X99319Y149567D01*
X98911Y150551D01*
X99319Y151535D01*
X98911Y152520D01*
X99319Y153504D01*
X98805Y154745D01*
X99106Y155472D01*
X99978Y155941D01*
X100555Y156180D01*
X100984Y156002D01*
X102943Y156813D01*
X103754Y158772D01*
X102943Y160730D01*
X100984Y161542D01*
X99691Y161006D01*
X99319Y161378D01*
X98911Y162362D01*
X99319Y163347D01*
X98911Y164331D01*
X99319Y165315D01*
X98911Y166299D01*
X99319Y167283D01*
X98911Y168268D01*
X99319Y169252D01*
X98911Y170236D01*
X99319Y171221D01*
X98757Y172576D01*
X97402Y173138D01*
X91496D01*
X91239Y173032D01*
X89786D01*
X64765Y198052D01*
X63484Y198583D01*
X56398D01*
X56398Y198583D01*
X55117Y198052D01*
X54626Y197841D01*
X54135Y198052D01*
X52854Y198583D01*
X50492D01*
X50492Y198583D01*
X49211Y198052D01*
X48720Y197841D01*
X48230Y198052D01*
X46949Y198583D01*
X44587D01*
X44587Y198583D01*
X43306Y198052D01*
X42815Y197841D01*
X42324Y198052D01*
X41043Y198583D01*
X25028D01*
X24374Y200162D01*
X21773Y201239D01*
Y202304D01*
X24374Y203382D01*
X25778Y206772D01*
X24374Y210162D01*
X21773Y211239D01*
Y212304D01*
X24374Y213382D01*
X25778Y216772D01*
X24393Y220115D01*
Y235360D01*
X25090Y236056D01*
X26178D01*
X28589Y237055D01*
X29587Y239465D01*
X28589Y241876D01*
X26178Y242875D01*
D02*
G37*
G36*
X36713Y223624D02*
X31791D01*
X29757Y222782D01*
X29237Y221525D01*
X28526Y221230D01*
X27714Y219272D01*
X28526Y217313D01*
X29237Y217019D01*
X29757Y215761D01*
X31791Y214919D01*
X36713D01*
X38747Y215761D01*
X39589Y217795D01*
Y220748D01*
X38747Y222782D01*
X36713Y223624D01*
D02*
G37*
G36*
Y208625D02*
X31791D01*
X29757Y207782D01*
X29340Y206775D01*
X28026Y206230D01*
X27214Y204272D01*
X28026Y202313D01*
X29340Y201768D01*
X29757Y200761D01*
X31791Y199919D01*
X36713D01*
X38747Y200761D01*
X39589Y202795D01*
Y205748D01*
X38747Y207782D01*
X36713Y208625D01*
D02*
G37*
G36*
X205657Y197441D02*
X203969D01*
Y195753D01*
X204165D01*
X205220Y196189D01*
X205657Y197244D01*
Y197441D01*
D02*
G37*
G36*
X202000D02*
X200312D01*
Y197244D01*
X200748Y196189D01*
X201803Y195753D01*
X202000D01*
Y197441D01*
D02*
G37*
G36*
X160484Y161542D02*
X159455Y161115D01*
X147013D01*
X145984Y161542D01*
X144026Y160730D01*
X143214Y158772D01*
X144026Y156813D01*
X145984Y156002D01*
X147013Y156428D01*
X159455D01*
X160484Y156002D01*
X162443Y156813D01*
X163254Y158772D01*
X162443Y160730D01*
X160484Y161542D01*
D02*
G37*
G36*
X153984Y147042D02*
X152955Y146615D01*
X117513D01*
X116484Y147042D01*
X114526Y146230D01*
X113714Y144272D01*
X114526Y142313D01*
X116484Y141502D01*
X117513Y141928D01*
X152955D01*
X153984Y141502D01*
X155943Y142313D01*
X156754Y144272D01*
X155943Y146230D01*
X153984Y147042D01*
D02*
G37*
G36*
X98698Y136772D02*
X95425D01*
X98698D01*
D01*
D02*
G37*
G36*
X123484Y137542D02*
X121526Y136730D01*
X120714Y134772D01*
X121141Y133743D01*
Y117300D01*
X120714Y116272D01*
X121526Y114313D01*
X123484Y113502D01*
X124513Y113928D01*
X135955D01*
X136984Y113502D01*
X138943Y114313D01*
X139754Y116272D01*
X138943Y118230D01*
X136984Y119042D01*
X135955Y118615D01*
X125828D01*
Y133743D01*
X126254Y134772D01*
X125443Y136730D01*
X123484Y137542D01*
D02*
G37*
G36*
X51791Y82421D02*
X51004D01*
X50807Y82421D01*
X45098D01*
X45098Y82421D01*
X44114Y81872D01*
X43425Y82157D01*
X41063D01*
X39858Y81658D01*
X39685Y81240D01*
X37898D01*
X37787Y81507D01*
X36732Y81944D01*
X36535D01*
Y79272D01*
X35551D01*
Y78287D01*
X32879D01*
Y78091D01*
X33315Y77036D01*
X33315Y76507D01*
X32879Y75453D01*
Y75256D01*
X35551D01*
Y73287D01*
X32879D01*
Y73090D01*
X33315Y72036D01*
X33315Y71507D01*
X32879Y70453D01*
Y70256D01*
X35551D01*
Y68287D01*
X32879D01*
Y68090D01*
X33315Y67036D01*
X33315Y66507D01*
X32879Y65453D01*
Y65256D01*
X35551D01*
Y63287D01*
X32879D01*
Y63090D01*
X33315Y62036D01*
X33315Y61507D01*
X32879Y60453D01*
Y60256D01*
X35551D01*
Y58287D01*
X32879D01*
Y58091D01*
X33315Y57036D01*
X33315Y56507D01*
X32879Y55453D01*
Y55256D01*
X35551D01*
Y53287D01*
X32879D01*
Y53091D01*
X33315Y52036D01*
X33315Y51507D01*
X32879Y50453D01*
Y50256D01*
X35551D01*
Y48287D01*
X32879D01*
Y48091D01*
X33315Y47036D01*
X33315Y46507D01*
X32879Y45453D01*
Y45256D01*
X35551D01*
Y44272D01*
X36535D01*
Y41599D01*
X36732D01*
X37787Y42036D01*
X37898Y42303D01*
X39685D01*
X39858Y41885D01*
X41063Y41386D01*
X43425D01*
X44114Y41671D01*
X45098Y41122D01*
Y41122D01*
X50807D01*
X51004Y41122D01*
X51791D01*
X51988Y41122D01*
X57697D01*
Y41122D01*
X58518Y41516D01*
X60443Y42313D01*
X61254Y44272D01*
X60443Y46230D01*
X60248Y46311D01*
Y47295D01*
X60718Y47490D01*
X61530Y49449D01*
X60775Y51271D01*
X60743Y51860D01*
X60775Y52449D01*
X61530Y54272D01*
X60718Y56230D01*
X60443Y56344D01*
Y57204D01*
X60477Y57396D01*
X61254Y59272D01*
X60477Y61148D01*
X60443Y61339D01*
Y62199D01*
X60718Y62313D01*
X61530Y64272D01*
X60718Y66230D01*
X60599Y66280D01*
Y67264D01*
X60718Y67313D01*
X61530Y69272D01*
X60718Y71230D01*
X60599Y71280D01*
Y72264D01*
X60718Y72313D01*
X61530Y74272D01*
X60718Y76230D01*
X60599Y76279D01*
Y77264D01*
X60718Y77313D01*
X61530Y79272D01*
X60718Y81230D01*
X58760Y82042D01*
X58454Y81915D01*
X57697Y82421D01*
Y82421D01*
X51988D01*
X51791Y82421D01*
D02*
G37*
G36*
X34567Y81944D02*
X34370D01*
X33315Y81507D01*
X32879Y80453D01*
Y80256D01*
X34567D01*
Y81944D01*
D02*
G37*
G36*
X186157Y74941D02*
X184468D01*
Y73253D01*
X184665D01*
X185720Y73689D01*
X186157Y74744D01*
Y74941D01*
D02*
G37*
G36*
X182500D02*
X180812D01*
Y74744D01*
X181248Y73689D01*
X182303Y73253D01*
X182500D01*
Y74941D01*
D02*
G37*
G36*
X195984Y81297D02*
X192784Y79972D01*
X191459Y76772D01*
X192784Y73572D01*
X195984Y72246D01*
X199184Y73572D01*
X200510Y76772D01*
X199184Y79972D01*
X195984Y81297D01*
D02*
G37*
G36*
X218484Y62297D02*
X215284Y60972D01*
X213959Y57772D01*
X215284Y54572D01*
X218484Y53246D01*
X221684Y54572D01*
X223010Y57772D01*
X221684Y60972D01*
X218484Y62297D01*
D02*
G37*
G36*
X15158Y55787D02*
X11969D01*
Y52598D01*
X14223Y53532D01*
X15158Y55787D01*
D02*
G37*
G36*
X265158D02*
X261968D01*
Y52598D01*
X264224Y53532D01*
X265158Y55787D01*
D02*
G37*
G36*
X10000D02*
X6811D01*
X7745Y53532D01*
X10000Y52598D01*
Y55787D01*
D02*
G37*
G36*
X34567Y43287D02*
X32879D01*
Y43091D01*
X33315Y42036D01*
X34370Y41599D01*
X34567D01*
Y43287D01*
D02*
G37*
G36*
X237984Y52181D02*
X235574Y51182D01*
X233574Y49182D01*
X233574Y49182D01*
X223574Y39182D01*
X223574Y39182D01*
X221074Y36682D01*
X220075Y34272D01*
X221074Y31861D01*
X223484Y30863D01*
X225895Y31861D01*
X228395Y34361D01*
X228395Y34361D01*
X238395Y44361D01*
X238395Y44361D01*
X240395Y46361D01*
X241393Y48772D01*
X240395Y51182D01*
X237984Y52181D01*
D02*
G37*
G36*
X256968Y24604D02*
Y17756D01*
X263817D01*
X263401Y19844D01*
X261661Y22448D01*
X259056Y24189D01*
X256968Y24604D01*
D02*
G37*
G36*
X255000D02*
X252912Y24189D01*
X250307Y22448D01*
X248567Y19844D01*
X248152Y17756D01*
X255000D01*
Y24604D01*
D02*
G37*
G36*
X216968Y15945D02*
Y12756D01*
X220158D01*
X219223Y15011D01*
X216968Y15945D01*
D02*
G37*
G36*
X263817Y15787D02*
X256968D01*
Y8939D01*
X259056Y9354D01*
X261661Y11095D01*
X263401Y13699D01*
X263817Y15787D01*
D02*
G37*
G36*
X255000D02*
X248152D01*
X248567Y13699D01*
X250307Y11095D01*
X252912Y9354D01*
X255000Y8939D01*
Y15787D01*
D02*
G37*
G36*
X220158Y10787D02*
X216968D01*
Y7598D01*
X219223Y8532D01*
X220158Y10787D01*
D02*
G37*
G36*
X55000D02*
X51811D01*
X52745Y8532D01*
X55000Y7598D01*
Y10787D01*
D02*
G37*
%LPD*%
G36*
X205352Y158701D02*
X203935Y157283D01*
X182282D01*
X182267Y157306D01*
X181877Y158170D01*
X182390Y159409D01*
X182574Y159685D01*
X204944D01*
X205352Y158701D01*
D02*
G37*
G36*
X219704Y145491D02*
X219704Y145491D01*
X220984Y144961D01*
X223602D01*
Y141801D01*
X224133Y140521D01*
X224428Y140225D01*
X225709Y139695D01*
X225709Y139695D01*
X228071D01*
X228355Y139812D01*
X229173Y139266D01*
Y137522D01*
X221809Y130157D01*
X220332D01*
X220332Y130157D01*
X219051Y129627D01*
X217180Y127756D01*
X199012D01*
X198465Y128574D01*
X198754Y129272D01*
X197943Y131230D01*
X195984Y132042D01*
X194026Y131230D01*
X193402Y129725D01*
X192673D01*
X192015Y130709D01*
X192125Y130974D01*
X192943Y131313D01*
X193754Y133272D01*
X192943Y135230D01*
X190984Y136042D01*
X189567Y135454D01*
X188813Y136208D01*
X189254Y137272D01*
X189715Y137961D01*
X193781D01*
X197186Y134556D01*
X197186Y134556D01*
X198185Y134142D01*
Y132622D01*
X203894D01*
X204090Y132622D01*
X204878D01*
X205075Y132622D01*
X210783D01*
Y133961D01*
X212734D01*
X213994Y132701D01*
X214776Y130813D01*
X216734Y130002D01*
X218693Y130813D01*
X219504Y132772D01*
X218693Y134730D01*
X216734Y135542D01*
X216410Y135407D01*
X214765Y137052D01*
X213484Y137583D01*
X211105D01*
X210916Y138567D01*
X211139Y138791D01*
X211768Y139092D01*
X211984Y139002D01*
X213943Y139813D01*
X214754Y141772D01*
X213943Y143730D01*
X211984Y144542D01*
X211768Y144452D01*
X211429Y144613D01*
X211125Y145549D01*
X211254Y145787D01*
X219407D01*
X219704Y145491D01*
D02*
G37*
G36*
X222204Y115491D02*
X222204Y115491D01*
X223484Y114961D01*
X246940D01*
X247594Y113382D01*
X250195Y112304D01*
Y111239D01*
X247594Y110162D01*
X246940Y108583D01*
X245472D01*
X245472Y108583D01*
X244192Y108052D01*
X243701Y107841D01*
X243210Y108052D01*
X241929Y108583D01*
X239567D01*
X239567Y108583D01*
X238286Y108052D01*
X237795Y107841D01*
X237304Y108052D01*
X236024Y108583D01*
X226734D01*
X225265Y110052D01*
X225265Y110052D01*
X219903Y115415D01*
X218622Y115945D01*
X182282D01*
X182267Y115967D01*
X181877Y116832D01*
X182390Y118071D01*
X182495Y118228D01*
X219466D01*
X222204Y115491D01*
D02*
G37*
G36*
X171624Y261240D02*
X172745Y258532D01*
X175453Y257411D01*
Y256346D01*
X172594Y255162D01*
X171517Y252560D01*
X170452D01*
X169374Y255162D01*
X166773Y256239D01*
Y257304D01*
X169374Y258382D01*
X170558Y261240D01*
X171624D01*
D02*
G37*
G36*
X129842Y247564D02*
Y246772D01*
Y237185D01*
X130373Y235904D01*
X130584Y235413D01*
X130373Y234922D01*
X129842Y233642D01*
Y231279D01*
X130373Y229999D01*
X130433Y229939D01*
Y229077D01*
X130373Y229017D01*
X129842Y227736D01*
Y223602D01*
X130373Y222322D01*
X137126Y215569D01*
Y183283D01*
X136969Y183177D01*
X135730Y182664D01*
X134865Y183055D01*
X134843Y183070D01*
Y211772D01*
Y214724D01*
X134312Y216005D01*
X134312Y216005D01*
X132693Y217624D01*
X131413Y218154D01*
X131257Y218216D01*
X130718Y218849D01*
X130188Y220129D01*
X130188Y220129D01*
X127795Y222522D01*
Y223425D01*
X127795Y223425D01*
X127265Y224706D01*
X127054Y225197D01*
X127265Y225688D01*
X127795Y226969D01*
X127795Y226969D01*
Y229331D01*
X127795Y229331D01*
X127265Y230611D01*
X127054Y231102D01*
X127265Y231593D01*
X127795Y232874D01*
X127795Y232874D01*
Y235236D01*
X127795Y235236D01*
X127265Y236517D01*
X127054Y237008D01*
X127265Y237499D01*
X127795Y238780D01*
X127795Y238780D01*
Y241142D01*
X127795Y241142D01*
X127265Y242422D01*
X127054Y242913D01*
X127265Y243404D01*
X127795Y244685D01*
X127795Y244685D01*
Y247728D01*
X128858Y248168D01*
X129842Y247564D01*
D02*
G37*
G36*
X84173Y247160D02*
Y245354D01*
X84704Y244074D01*
X84915Y243583D01*
X84704Y243092D01*
X84173Y241811D01*
Y239449D01*
X84704Y238168D01*
X84915Y237677D01*
X84704Y237186D01*
X84173Y235906D01*
Y231772D01*
X84704Y230491D01*
X119409Y195785D01*
Y183283D01*
X119252Y183177D01*
X118010Y182663D01*
X118010Y182663D01*
X117896Y182616D01*
X117334Y181260D01*
Y178307D01*
X117233D01*
Y181260D01*
X116671Y182616D01*
X116557Y182663D01*
X116556Y182663D01*
X115315Y183177D01*
X114076Y182664D01*
X113211Y183055D01*
X113189Y183070D01*
Y198878D01*
X112659Y200159D01*
X82795Y230022D01*
Y230689D01*
X82795Y230689D01*
X82265Y231970D01*
X82054Y232461D01*
X82265Y232952D01*
X82795Y234232D01*
X82795Y234232D01*
Y238366D01*
Y246771D01*
X83780Y247366D01*
X84173Y247160D01*
D02*
G37*
G36*
X172594Y248382D02*
X175984Y246978D01*
X178355Y247959D01*
X179173Y247413D01*
Y243091D01*
X179704Y241810D01*
X179915Y241319D01*
X179704Y240828D01*
X179173Y239547D01*
Y236890D01*
Y233937D01*
Y230984D01*
Y226772D01*
Y220022D01*
X159310Y200159D01*
X158780Y198878D01*
Y183283D01*
X158622Y183177D01*
X157381Y182663D01*
X157380Y182663D01*
X157266Y182616D01*
X156704Y181260D01*
Y178307D01*
X156603D01*
Y181260D01*
X156041Y182616D01*
X155927Y182663D01*
X155927Y182663D01*
X154685Y183177D01*
X153446Y182664D01*
X152582Y183055D01*
X152559Y183070D01*
Y200785D01*
X167265Y215491D01*
X167795Y216772D01*
X167795Y216772D01*
Y221201D01*
Y223858D01*
X167795Y223858D01*
X167265Y225139D01*
X167054Y225630D01*
X167265Y226121D01*
X167795Y227401D01*
X167795Y227402D01*
Y229764D01*
X167795Y229764D01*
X167265Y231044D01*
X167054Y231535D01*
X167265Y232026D01*
X167795Y233307D01*
X167795Y233307D01*
Y235669D01*
X167795Y235669D01*
X167265Y236950D01*
X167054Y237441D01*
X167265Y237932D01*
X167795Y239213D01*
X167795Y239213D01*
Y241575D01*
X167795Y241575D01*
X167265Y242855D01*
X167054Y243346D01*
X167265Y243837D01*
X167795Y245118D01*
X167795Y245118D01*
Y247728D01*
X169374Y248382D01*
X170452Y250983D01*
X171517D01*
X172594Y248382D01*
D02*
G37*
G36*
X17594Y213382D02*
X20195Y212304D01*
Y211239D01*
X17594Y210162D01*
X16517Y207560D01*
X15452D01*
X14374Y210162D01*
X11516Y211346D01*
Y212411D01*
X14223Y213532D01*
X15345Y216240D01*
X16410D01*
X17594Y213382D01*
D02*
G37*
G36*
X79730Y151500D02*
X80247Y150251D01*
X79541Y149959D01*
X78730Y148000D01*
X78735Y147988D01*
X77982Y147235D01*
X77784Y147317D01*
Y147921D01*
X72075D01*
X71878Y147921D01*
X71091D01*
X70894Y147921D01*
X65185D01*
Y146589D01*
X63413D01*
X61756Y145902D01*
X59754Y143900D01*
X58543Y143399D01*
X57732Y141440D01*
X58543Y139481D01*
X58543Y138697D01*
X57859Y138413D01*
X57172Y136756D01*
Y134787D01*
X57859Y133130D01*
X59516Y132444D01*
X63453D01*
X65110Y133130D01*
X65797Y134787D01*
Y135622D01*
X70894D01*
X71091Y135622D01*
X71878D01*
X72075Y135622D01*
X77544D01*
X78288Y134847D01*
X77730Y133500D01*
X78541Y131541D01*
X80500Y130730D01*
X80986Y130932D01*
X81348Y130570D01*
X81348Y130570D01*
X81934Y130327D01*
Y129262D01*
X81885Y129241D01*
X80535Y127891D01*
X78696D01*
X78635Y128038D01*
X76676Y128849D01*
X74718Y128038D01*
X73906Y126080D01*
X74435Y124803D01*
X74395Y124713D01*
X73621Y124196D01*
X69765Y128052D01*
X68484Y128583D01*
X55803D01*
X55803Y128583D01*
X54523Y128052D01*
X54031Y127841D01*
X53540Y128052D01*
X52260Y128583D01*
X49898D01*
X49898Y128583D01*
X48617Y128052D01*
X48126Y127841D01*
X47635Y128052D01*
X46354Y128583D01*
X43992D01*
X43992Y128583D01*
X42711Y128052D01*
X42221Y127841D01*
X41730Y128052D01*
X40449Y128583D01*
X38087D01*
X38087Y128583D01*
X36806Y128052D01*
X36315Y127841D01*
X35824Y128052D01*
X34543Y128583D01*
X32181D01*
X32181Y128583D01*
X30900Y128052D01*
X30410Y127841D01*
X29919Y128052D01*
X28638Y128583D01*
X25028D01*
X24374Y130162D01*
X21773Y131239D01*
Y132304D01*
X24374Y133382D01*
X25778Y136772D01*
X24374Y140162D01*
X21773Y141239D01*
Y142304D01*
X24374Y143382D01*
X25028Y144961D01*
X38996D01*
X40277Y145491D01*
X40768Y145702D01*
X41259Y145491D01*
X42539Y144961D01*
X42539Y144961D01*
X44902D01*
X46182Y145491D01*
X46673Y145702D01*
X47164Y145491D01*
X48445Y144961D01*
X48445Y144961D01*
X50807D01*
X52088Y145491D01*
X52148Y145551D01*
X53010D01*
X53070Y145491D01*
X54350Y144961D01*
X54350Y144961D01*
X58484D01*
X59765Y145491D01*
X64529Y150255D01*
X66423Y152149D01*
X79296D01*
X79730Y151500D01*
D02*
G37*
G36*
X17594Y143382D02*
X20195Y142304D01*
Y141239D01*
X17594Y140162D01*
X16410Y137303D01*
X15345D01*
X14223Y140011D01*
X11516Y141132D01*
Y142198D01*
X14374Y143382D01*
X15452Y145983D01*
X16517D01*
X17594Y143382D01*
D02*
G37*
G36*
Y133382D02*
X20195Y132304D01*
Y131239D01*
X17594Y130162D01*
X16517Y127560D01*
X15452D01*
X14374Y130162D01*
X11516Y131345D01*
Y132411D01*
X14223Y133532D01*
X15345Y136240D01*
X16410D01*
X17594Y133382D01*
D02*
G37*
G36*
X89578Y116102D02*
X90093Y114861D01*
X89792Y114134D01*
X89661Y113939D01*
X61303D01*
X61303Y113939D01*
X60022Y113408D01*
X59531Y113197D01*
X59040Y113408D01*
X57760Y113939D01*
X55398D01*
X55398Y113939D01*
X54117Y113408D01*
X53626Y113197D01*
X53135Y113408D01*
X51854Y113939D01*
X49492D01*
X49492Y113939D01*
X48212Y113408D01*
X47721Y113197D01*
X47229Y113408D01*
X45949Y113939D01*
X26562D01*
X25972Y114923D01*
X25992Y114961D01*
X26185D01*
X27466Y115491D01*
X27957Y115702D01*
X28448Y115491D01*
X29728Y114961D01*
X29728Y114961D01*
X32091D01*
X33371Y115491D01*
X33862Y115702D01*
X34353Y115491D01*
X35634Y114961D01*
X35634Y114961D01*
X37996D01*
X39277Y115491D01*
X39768Y115702D01*
X40259Y115491D01*
X41539Y114961D01*
X41539Y114961D01*
X43902D01*
X45182Y115491D01*
X45673Y115702D01*
X46164Y115491D01*
X47445Y114961D01*
X47445Y114961D01*
X66984D01*
X68265Y115491D01*
X69034Y116260D01*
X89473D01*
X89578Y116102D01*
D02*
G37*
G36*
X17594Y73382D02*
X20195Y72304D01*
Y71239D01*
X17594Y70162D01*
X16517Y67560D01*
X15452D01*
X14374Y70162D01*
X11773Y71239D01*
Y72304D01*
X14374Y73382D01*
X15452Y75983D01*
X16517D01*
X17594Y73382D01*
D02*
G37*
D11*
X225287Y87469D02*
X225701Y88282D01*
X225559Y89183D01*
X224914Y89828D01*
X224012Y89971D01*
X223199Y89557D01*
X221111Y91645D02*
X220697Y90832D01*
X220840Y89930D01*
X221485Y89285D01*
X222386Y89142D01*
X223199Y89557D01*
X221111Y91645D02*
X221526Y92457D01*
X221383Y93359D01*
X220738Y94004D01*
X219836Y94147D01*
X219023Y93732D01*
X216936Y95820D02*
X216521Y95007D01*
X216664Y94106D01*
X217309Y93461D01*
X218211Y93318D01*
X219023Y93732D01*
X216936Y95820D02*
X217350Y96633D01*
X217207Y97535D01*
X216562Y98180D01*
X215661Y98322D01*
X214848Y97908D01*
X212760Y99996D02*
X212346Y99183D01*
X212488Y98282D01*
X213134Y97637D01*
X214035Y97494D01*
X214848Y97908D01*
X212760Y99996D02*
X213174Y100809D01*
X213031Y101710D01*
X212386Y102356D01*
X211485Y102498D01*
X210672Y102084D01*
X208584Y104172D02*
X208170Y103359D01*
X208313Y102458D01*
X208958Y101813D01*
X209859Y101670D01*
X210672Y102084D01*
X39232Y14035D02*
X41469Y16272D01*
X39232Y7500D02*
Y14035D01*
X4331Y8937D02*
Y18272D01*
Y8937D02*
X5768Y7500D01*
X45885Y29272D02*
X65984D01*
X39232Y22619D02*
X45885Y29272D01*
X39232Y22500D02*
Y22619D01*
X4331Y18272D02*
Y21063D01*
X5768Y22500D01*
X222500Y220500D02*
X230709Y228709D01*
Y267728D01*
X243856Y250500D02*
X247979D01*
X260910Y251579D02*
X260984Y251504D01*
X255429Y251579D02*
X260910D01*
X255354Y251654D02*
X255429Y251579D01*
X247979Y250500D02*
X249133Y251654D01*
X255354D01*
X260984Y251504D02*
X264996D01*
X217000Y227014D02*
X227559Y237574D01*
X217000Y222000D02*
Y227014D01*
X80500Y133500D02*
X80979D01*
X82629Y131850D01*
X94449D01*
X82500Y151500D02*
X82670D01*
X84604Y149567D01*
X94449D01*
X63248Y151535D02*
X65673Y153961D01*
X83519D01*
X85944Y151535D01*
X94449D01*
X185521Y144500D02*
X186000D01*
X184391Y145630D02*
X185521Y144500D01*
X177520Y145630D02*
X184391D01*
X81500Y148000D02*
X81979D01*
X82381Y147598D01*
X94449D01*
X78484Y129272D02*
X79094Y129882D01*
X94449D01*
X83166Y127961D02*
X87295D01*
X81285Y126080D02*
X83166Y127961D01*
X76676Y126080D02*
X81285D01*
X111378Y69500D02*
X112689D01*
X111378D02*
Y95236D01*
Y67165D02*
Y69500D01*
X87295Y127961D02*
X89311Y125945D01*
X85000Y125500D02*
X85020D01*
X86543Y123976D01*
X68484Y156772D02*
X84728D01*
X87996Y153504D02*
X94449D01*
X84728Y156772D02*
X87996Y153504D01*
X177520Y147598D02*
X220158D01*
X177520Y149567D02*
X213779D01*
X215984Y151772D01*
X202408Y291575D02*
X225059Y268924D01*
X193268Y291575D02*
X202408D01*
X185984Y298858D02*
Y304272D01*
Y298858D02*
X193268Y291575D01*
X186378Y290000D02*
X200256D01*
X176943Y299435D02*
X186378Y290000D01*
X200256D02*
X225484Y264772D01*
X115315Y172975D02*
Y178307D01*
X114484Y172144D02*
X115315Y172975D01*
X114484Y171708D02*
Y172144D01*
X117984Y171772D02*
Y172144D01*
X185611Y117272D02*
X185984D01*
X184442Y116102D02*
X185611Y117272D01*
X177520Y116102D02*
X184442D01*
X175984Y304272D02*
X176943Y303313D01*
Y299435D02*
Y303313D01*
X40984Y226772D02*
Y230669D01*
X36984Y234669D02*
Y272499D01*
Y234669D02*
X40984Y230669D01*
X46484Y244854D02*
X55984Y235354D01*
X44909Y244202D02*
Y268924D01*
X38559Y236761D02*
Y271847D01*
X43484Y224272D02*
Y231835D01*
X53484Y224272D02*
Y235627D01*
X45984Y226772D02*
Y232935D01*
X40134Y238786D02*
Y271194D01*
X48484Y224272D02*
Y232662D01*
X46484Y244854D02*
Y268272D01*
X50984Y226772D02*
Y235900D01*
X41709Y239438D02*
Y270542D01*
X40134Y238786D02*
X45984Y232935D01*
X55984Y226772D02*
Y235354D01*
X43335Y243550D02*
X50984Y235900D01*
X38559Y236761D02*
X43484Y231835D01*
X43335Y243550D02*
Y269576D01*
X44909Y244202D02*
X53484Y235627D01*
X41709Y239438D02*
X48484Y232662D01*
X168465Y87441D02*
Y95236D01*
X170634Y85272D02*
X175408D01*
X168465Y87441D02*
X170634Y85272D01*
X170433Y89823D02*
X171984Y88272D01*
X170433Y89823D02*
Y95236D01*
X171984Y88272D02*
X179484D01*
X175984Y82618D02*
Y84695D01*
X175408Y85272D02*
X175984Y84695D01*
X73248Y122008D02*
X94449D01*
X68484Y126772D02*
X73248Y122008D01*
X217930Y125945D02*
X220332Y128347D01*
X177520Y125945D02*
X217930D01*
X177520Y123976D02*
X218189D01*
X220984Y126772D01*
X177520Y120039D02*
X220216D01*
X177520Y122008D02*
X223484D01*
X194626Y127913D02*
X195984Y129272D01*
X177520Y127913D02*
X194626D01*
X158484Y130772D02*
X169984Y119272D01*
X157484Y130772D02*
X158484D01*
X215591Y112165D02*
X235984Y91772D01*
X177520Y112165D02*
X215591D01*
X245234Y91772D02*
X254484D01*
X235984D02*
X240510D01*
X240805Y91476D01*
Y88642D02*
Y91476D01*
Y88642D02*
X241100Y88346D01*
X243463D01*
X243758Y88642D01*
Y91476D01*
X244053Y91772D01*
X245234D01*
X86543Y123976D02*
X94449D01*
X250484Y280772D02*
X255138D01*
X261831D02*
X265484D01*
X247984Y286772D02*
X264984D01*
X240484Y279272D02*
X247984Y286772D01*
X240484Y242772D02*
Y279272D01*
X252757Y293772D02*
X264984D01*
X238484Y241772D02*
Y279499D01*
X252757Y293772D01*
X243984Y206772D02*
Y236272D01*
X238484Y241772D02*
X243984Y236272D01*
X229134Y236921D02*
Y267076D01*
X219947Y227734D02*
X229134Y236921D01*
X219748Y226143D02*
X219947Y226342D01*
Y227734D01*
X227559Y237574D02*
Y266424D01*
X214484Y228272D02*
X225484Y239272D01*
X214484Y226272D02*
Y228272D01*
X225484Y239272D02*
Y264772D01*
X196601Y299609D02*
X229134Y267076D01*
X196601Y299609D02*
Y303655D01*
X195984Y304272D02*
X196601Y303655D01*
X43335Y269576D02*
X66180Y292421D01*
X69180D01*
X44909Y268924D02*
X66832Y290846D01*
X46484Y268272D02*
X67484Y289272D01*
X86484D01*
X66832Y290846D02*
X69832D01*
X41709Y270542D02*
X43260Y272093D01*
X55984Y291499D02*
Y304272D01*
X40134Y271194D02*
X70020Y301080D01*
X65163Y293996D02*
X70709D01*
X65571Y298858D02*
Y303858D01*
X43260Y272093D02*
X65163Y293996D01*
X38559Y271847D02*
X40110Y273398D01*
X65571Y303858D02*
X65984Y304272D01*
X40110Y273398D02*
X65571Y298858D01*
X36984Y272499D02*
X55984Y291499D01*
X70020Y301080D02*
Y307323D01*
X74134Y292421D02*
X80984Y299272D01*
Y308287D02*
X85984Y313287D01*
X80984Y299272D02*
Y308287D01*
X69180Y292421D02*
X74134D01*
X75984Y299272D02*
Y304272D01*
X70709Y293996D02*
X75984Y299272D01*
X86484Y289272D02*
X95984Y298772D01*
Y304272D01*
X69832Y290846D02*
X77059D01*
X85647Y303935D02*
X85984Y304272D01*
X77059Y290846D02*
X85647Y299435D01*
Y303935D01*
X66611Y219136D02*
X67913Y217833D01*
X67716Y204272D02*
X80590D01*
X101535Y183327D01*
X103504Y178307D02*
Y186752D01*
X72423Y217833D02*
X103504Y186752D01*
X67913Y217833D02*
X72423D01*
X101535Y178307D02*
Y183327D01*
X70020Y307323D02*
X75984Y313287D01*
Y314272D01*
X7484Y71772D02*
X24484D01*
X170984Y246772D02*
Y265272D01*
X240484Y242772D02*
X245984Y237272D01*
X215331Y209272D02*
Y215118D01*
X215484Y215272D01*
X204638Y209272D02*
X208638D01*
X202984Y207618D02*
X204638Y209272D01*
X202984Y205118D02*
Y207618D01*
X113347Y87909D02*
Y95236D01*
X117283D02*
X117321Y95274D01*
Y101236D01*
X117484Y101399D01*
Y101772D01*
X117246Y95199D02*
X117283Y95236D01*
X205984Y220587D02*
Y224272D01*
X170433Y185036D02*
X205984Y220587D01*
X170433Y178307D02*
Y185036D01*
X215984Y282453D02*
X230709Y267728D01*
X215984Y282453D02*
Y304272D01*
X225059Y268924D02*
X227559Y266424D01*
X243984Y206772D02*
X250984D01*
X225984D02*
X243984D01*
X245984Y213272D02*
X247484Y211772D01*
X245984Y213272D02*
Y237272D01*
X246484Y261772D02*
X249984D01*
X247484Y211772D02*
X255984D01*
X260984Y206772D01*
X259135Y205923D02*
X260135D01*
X254984Y201772D02*
X259135Y205923D01*
X225984Y201772D02*
X254984D01*
X125157Y65945D02*
Y95236D01*
X110984Y51772D02*
X125157Y65945D01*
X123189Y80537D02*
Y95236D01*
X121984Y79333D02*
X123189Y80537D01*
X121984Y67772D02*
Y79333D01*
X105984Y51772D02*
X121984Y67772D01*
X100984Y51772D02*
X119484Y70272D01*
Y82064D02*
X121221Y83800D01*
X119484Y70272D02*
Y82064D01*
X121221Y83800D02*
Y95236D01*
X109409Y70197D02*
Y95236D01*
X103484Y64272D02*
X109409Y70197D01*
X85984Y46772D02*
X103484Y64272D01*
X81653Y47441D02*
X107441Y73228D01*
X80484Y54272D02*
X105472Y79260D01*
X75984Y49772D02*
X80484Y54272D01*
X75984Y21772D02*
Y49772D01*
X107441Y73228D02*
Y95236D01*
X105472Y79260D02*
Y95236D01*
X216484Y132772D02*
X216734D01*
X213484Y135772D02*
X216484Y132772D01*
X207831Y135772D02*
X213484D01*
X230984Y136772D02*
Y141772D01*
X222559Y128347D02*
X230984Y136772D01*
X220332Y128347D02*
X222559D01*
X177520Y139724D02*
X177557Y139762D01*
X180649D01*
X180659Y139772D01*
X194532D01*
X198466Y135837D01*
X201073D01*
X201138Y135772D01*
X185484Y137272D02*
X186484D01*
X184000Y135787D02*
X185484Y137272D01*
X177520Y141693D02*
X201059D01*
X201138Y141772D01*
X177520Y151535D02*
X210748D01*
X177520Y153504D02*
X207716D01*
X177520Y155472D02*
X204685D01*
X185153Y157441D02*
X186484Y158772D01*
X177520Y157441D02*
X185153D01*
X80984Y141693D02*
X94449D01*
X77984Y144772D02*
X80984Y141772D01*
Y141693D02*
Y141772D01*
X74831Y144772D02*
X77984D01*
X74831Y138772D02*
X75783Y139724D01*
X94449D01*
X83484Y144272D02*
X88326D01*
X54744Y59272D02*
X58484D01*
X54744Y54272D02*
X58760D01*
X47067Y98937D02*
Y100768D01*
X46476Y98347D02*
X47067Y98937D01*
X81653Y17441D02*
Y26772D01*
Y45965D02*
Y47441D01*
Y43307D02*
Y45965D01*
X81358Y43012D02*
X81653Y43307D01*
X80772Y43012D02*
X81358D01*
X80476Y42717D02*
X80772Y43012D01*
X80476Y40354D02*
Y42717D01*
Y40354D02*
X80772Y40059D01*
X81358D01*
X81653Y39764D01*
Y37402D02*
Y39764D01*
X81358Y37106D02*
X81653Y37402D01*
X80772Y37106D02*
X81358D01*
X80476Y36811D02*
X80772Y37106D01*
X80476Y34449D02*
Y36811D01*
Y34449D02*
X80772Y34154D01*
X81358D01*
X81653Y33858D01*
Y31496D02*
Y33858D01*
X81358Y31201D02*
X81653Y31496D01*
X80772Y31201D02*
X81358D01*
X80476Y30906D02*
X80772Y31201D01*
X80476Y28543D02*
Y30906D01*
Y28543D02*
X80772Y28248D01*
X81358D01*
X81653Y27953D01*
Y26772D02*
Y27953D01*
X71234Y49522D02*
X103504Y81791D01*
X70984Y16772D02*
Y49272D01*
X103504Y81791D02*
Y95236D01*
X38484Y96772D02*
X42984D01*
X48449D01*
X28484Y86772D02*
X38484Y96772D01*
X54744Y44272D02*
X58484D01*
X54921Y49449D02*
X58760D01*
X54744Y49272D02*
X54921Y49449D01*
X34984Y88272D02*
X36984D01*
X20984Y76772D02*
X22039Y77826D01*
X24539D02*
X34984Y88272D01*
X22039Y77826D02*
X24539D01*
X54744Y64272D02*
X58760D01*
X54744Y69272D02*
X58760D01*
X54744Y74272D02*
X58760D01*
X54744Y79272D02*
X58760D01*
X65984Y49272D02*
X101535Y84823D01*
Y95236D01*
X42244Y79272D02*
X48051D01*
X42244Y74272D02*
X48051D01*
X42244Y69272D02*
X48051D01*
X42244Y64272D02*
X48051D01*
X42244Y59272D02*
X48051D01*
X42244Y54272D02*
X48051D01*
X42244Y49272D02*
X48051D01*
X42244Y44272D02*
X48051D01*
X61484Y16272D02*
X65984Y11772D01*
X41469Y16272D02*
X61484D01*
X65984Y11772D02*
X70984Y16772D01*
X4331Y18272D02*
X47484D01*
X50984Y21772D01*
X55984D01*
X85431Y274825D02*
X100492D01*
X78484Y281772D02*
X85431Y274825D01*
X76484Y281772D02*
X78484D01*
X90984Y243772D02*
Y255772D01*
X86833Y259923D02*
X90984Y255772D01*
X43984Y294272D02*
Y312272D01*
X44484Y312772D01*
X260331Y300772D02*
X264984D01*
X249408Y300848D02*
X249446Y300810D01*
X253600D01*
X253638Y300772D01*
X189484Y131272D02*
X190984Y132772D01*
X183484Y131272D02*
X189484D01*
X182912Y131844D02*
X183484Y131272D01*
X170984Y129772D02*
X171057Y129844D01*
X179484Y88272D02*
X183484Y84272D01*
Y82618D02*
Y84272D01*
X166496Y78760D02*
X205984Y39272D01*
X166496Y78760D02*
Y95236D01*
X235984Y76772D02*
X250984D01*
X225984Y86772D02*
X235984Y76772D01*
X225287Y87469D02*
X225984Y86772D01*
X206496Y106260D02*
X208584Y104172D01*
X177520Y106260D02*
X206496D01*
X212125Y90631D02*
Y91048D01*
X205444Y97312D02*
X205862Y97312D01*
X210912Y94010D02*
X211329D01*
X216301Y86455D02*
X217971Y84784D01*
X220477Y82696D02*
X221351Y83571D01*
Y83988D01*
X224653Y78103D02*
X229734Y73022D01*
X201477Y101279D02*
X203565Y99191D01*
X215505Y89834D02*
X217175Y88164D01*
X205915Y97365D02*
X206332D01*
X209620Y93136D02*
X210037D01*
X211329Y94010D02*
X213000Y92340D01*
X214213Y88960D02*
X215088Y89834D01*
X216301Y86872D02*
X217175Y87747D01*
X224653Y78521D02*
X225527Y79395D01*
X217175Y87747D02*
Y88164D01*
X223857Y81483D02*
X225527Y79813D01*
X208003Y95277D02*
Y95695D01*
X207949Y95224D02*
X208003Y95277D01*
X210037Y93136D02*
X210912Y94010D01*
X218389Y84784D02*
X219263Y85659D01*
X222147Y80609D02*
X222565D01*
X223439Y81483D01*
X207949Y94806D02*
X209620Y93136D01*
X225527Y79395D02*
Y79813D01*
X213796Y88960D02*
X214213D01*
X217971Y84784D02*
X218389D01*
X219681Y85659D02*
X221351Y83988D01*
X223439Y81483D02*
X223857D01*
X205862Y97312D02*
X205915Y97365D01*
X212125Y91048D02*
X213000Y91922D01*
X203565Y99191D02*
X205444Y97312D01*
X219263Y85659D02*
X219681D01*
X213000Y91922D02*
Y92340D01*
X200433Y102323D02*
X201477Y101279D01*
X206332Y97365D02*
X208003Y95695D01*
X207949Y94806D02*
X207949Y95224D01*
X212125Y90631D02*
X213796Y88960D01*
X216301Y86455D02*
Y86872D01*
X220477Y82279D02*
X222147Y80609D01*
X224653Y78103D02*
Y78521D01*
X215088Y89834D02*
X215505D01*
X220477Y82279D02*
Y82696D01*
X80984Y229272D02*
Y230689D01*
X80689Y230984D02*
X80984Y230689D01*
X79645Y230984D02*
X80689D01*
X79349Y231280D02*
X79645Y230984D01*
X79349Y231280D02*
Y233642D01*
X79645Y233937D01*
X80689D01*
X80984Y234232D01*
Y236890D01*
Y238366D01*
Y255772D01*
X22984Y126772D02*
X28638D01*
X28933Y126476D01*
Y124311D02*
Y126476D01*
Y124311D02*
X29228Y124016D01*
X31591D01*
X31886Y124311D01*
Y126476D01*
X32181Y126772D01*
X34543D01*
X34839Y126476D01*
Y124311D02*
Y126476D01*
Y124311D02*
X35134Y124016D01*
X37496D01*
X37791Y124311D01*
Y126476D01*
X38087Y126772D01*
X40449D01*
X40744Y126476D01*
Y124311D02*
Y126476D01*
Y124311D02*
X41039Y124016D01*
X43402D01*
X43697Y124311D01*
Y126476D01*
X43992Y126772D01*
X46354D01*
X46650Y126476D01*
Y124311D02*
Y126476D01*
Y124311D02*
X46945Y124016D01*
X49307D01*
X49602Y124311D01*
Y126476D01*
X49898Y126772D01*
X52260D01*
X52555Y126476D01*
Y124311D02*
Y126476D01*
Y124311D02*
X52850Y124016D01*
X55213D01*
X55508Y124311D01*
Y126476D01*
X55803Y126772D01*
X56984D01*
X68484D01*
X20984D02*
X22984D01*
X245472Y106772D02*
X250484D01*
X245177Y106476D02*
X245472Y106772D01*
X245177Y100690D02*
Y106476D01*
X244882Y100395D02*
X245177Y100690D01*
X242520Y100395D02*
X244882D01*
X242224Y100690D02*
X242520Y100395D01*
X242224Y100690D02*
Y106476D01*
X241929Y106772D02*
X242224Y106476D01*
X239567Y106772D02*
X241929D01*
X239272Y106476D02*
X239567Y106772D01*
X239272Y100690D02*
Y106476D01*
X238976Y100395D02*
X239272Y100690D01*
X236614Y100395D02*
X238976D01*
X236319Y100690D02*
X236614Y100395D01*
X236319Y100690D02*
Y106476D01*
X236024Y106772D02*
X236319Y106476D01*
X233366Y106772D02*
X236024D01*
X230413D02*
X233366D01*
X227461D02*
X230413D01*
X225984D02*
X227461D01*
X225028Y107728D02*
X225984Y106772D01*
X223984Y108772D02*
X225028Y107728D01*
X250484Y106772D02*
X250984D01*
X218622Y114134D02*
X223984Y108772D01*
X68283Y118071D02*
X94449D01*
X66984Y116772D02*
X68283Y118071D01*
X57484Y116772D02*
X66984D01*
X36984Y88272D02*
X45496D01*
X45791Y88567D01*
Y90815D01*
X46087Y91110D01*
X48449D01*
X48744Y90815D01*
Y88567D02*
Y90815D01*
Y88567D02*
X49039Y88272D01*
X51402D01*
X51697Y88567D01*
Y90815D01*
X51992Y91110D01*
X54354D01*
X54650Y90815D01*
Y88567D02*
Y90815D01*
Y88567D02*
X54945Y88272D01*
X57307D01*
X57602Y88567D01*
Y90815D01*
X57898Y91110D01*
X60260D01*
X60555Y90815D01*
Y88567D02*
Y90815D01*
Y88567D02*
X60850Y88272D01*
X63508D01*
X64984D01*
X79035Y102323D01*
X48449Y96772D02*
X48744Y96476D01*
Y93842D02*
Y96476D01*
Y93842D02*
X49039Y93547D01*
X51402D01*
X51697Y93842D01*
Y96772D01*
Y97201D01*
X51992Y97496D01*
X54354D01*
X54650Y97201D01*
Y96772D02*
Y97201D01*
Y93842D02*
Y96772D01*
Y93842D02*
X54945Y93547D01*
X57307D01*
X57602Y93842D01*
Y96772D01*
Y97201D01*
X57898Y97496D01*
X60260D01*
X60555Y97201D01*
Y96772D02*
Y97201D01*
Y93842D02*
Y96772D01*
Y93842D02*
X60850Y93547D01*
X63213D01*
X63508Y93842D01*
Y96476D01*
X63803Y96772D01*
X64984D01*
X68484D01*
X50020Y99272D02*
X50484D01*
X49724Y99567D02*
X50020Y99272D01*
X49724Y99567D02*
Y100472D01*
X49429Y100768D02*
X49724Y100472D01*
X47067Y100768D02*
X49429D01*
X44114Y98346D02*
X46476D01*
X43819Y98642D02*
X44114Y98346D01*
X43819Y98642D02*
Y99272D01*
Y100571D01*
X43524Y100866D02*
X43819Y100571D01*
X41161Y100866D02*
X43524D01*
X40866Y100571D02*
X41161Y100866D01*
X40866Y99272D02*
Y100571D01*
Y98642D02*
Y99272D01*
X40571Y98346D02*
X40866Y98642D01*
X38209Y98346D02*
X40571D01*
X37913Y98642D02*
X38209Y98346D01*
X37913Y98642D02*
Y98976D01*
X37618Y99272D02*
X37913Y98976D01*
X34961Y99272D02*
X37618D01*
X33484D02*
X34961D01*
X50484D02*
X65984D01*
X41984Y102441D02*
X50854D01*
X51150Y102146D01*
Y101142D02*
Y102146D01*
Y101142D02*
X51445Y100846D01*
X53807D01*
X54102Y101142D01*
Y102441D01*
Y105425D01*
X54398Y105721D01*
X56760D01*
X57055Y105425D01*
Y102441D02*
Y105425D01*
Y101142D02*
Y102441D01*
Y101142D02*
X57350Y100846D01*
X59713D01*
X60008Y101142D01*
Y102146D01*
X60303Y102441D01*
X61484D01*
X64153D01*
X15315D02*
X41984D01*
X47567Y107295D02*
X59984D01*
X47272Y107000D02*
X47567Y107295D01*
X47272Y104311D02*
Y107000D01*
X46976Y104016D02*
X47272Y104311D01*
X44614Y104016D02*
X46976D01*
X44319Y104311D02*
X44614Y104016D01*
X44319Y104311D02*
Y107295D01*
Y110258D01*
X44024Y110553D02*
X44319Y110258D01*
X41661Y110553D02*
X44024D01*
X41366Y110258D02*
X41661Y110553D01*
X41366Y107295D02*
Y110258D01*
Y104311D02*
Y107295D01*
X41071Y104016D02*
X41366Y104311D01*
X38709Y104016D02*
X41071D01*
X38413Y104311D02*
X38709Y104016D01*
X38413Y104311D02*
Y107295D01*
Y110258D01*
X38118Y110553D02*
X38413Y110258D01*
X35756Y110553D02*
X38118D01*
X35461Y110258D02*
X35756Y110553D01*
X35461Y107591D02*
Y110258D01*
X35165Y107295D02*
X35461Y107591D01*
X33984Y107295D02*
X35165D01*
X59984D02*
X64008D01*
X21508D02*
X33984D01*
X30484Y112128D02*
X45949D01*
X46244Y111832D01*
Y109536D02*
Y111832D01*
Y109536D02*
X46539Y109240D01*
X48902D01*
X49197Y109536D01*
Y111832D01*
X49492Y112128D01*
X51854D01*
X52150Y111832D01*
Y109536D02*
Y111832D01*
Y109536D02*
X52445Y109240D01*
X54807D01*
X55102Y109536D01*
Y111832D01*
X55398Y112128D01*
X57760D01*
X58055Y111832D01*
Y109536D02*
Y111832D01*
Y109536D02*
X58350Y109240D01*
X60713D01*
X61008Y109536D01*
Y111832D01*
X61303Y112128D01*
X62484D01*
X94411D01*
X15628D02*
X30484D01*
X22984Y116772D02*
X26185D01*
X26480Y117067D01*
Y120151D01*
X26776Y120447D01*
X29138D01*
X29433Y120151D01*
Y117067D02*
Y120151D01*
Y117067D02*
X29728Y116772D01*
X32091D01*
X32386Y117067D01*
Y120151D01*
X32681Y120447D01*
X35043D01*
X35339Y120151D01*
Y117067D02*
Y120151D01*
Y117067D02*
X35634Y116772D01*
X37996D01*
X38291Y117067D01*
Y120151D01*
X38587Y120447D01*
X40949D01*
X41244Y120151D01*
Y117067D02*
Y120151D01*
Y117067D02*
X41539Y116772D01*
X43902D01*
X44197Y117067D01*
Y120151D01*
X44492Y120447D01*
X46854D01*
X47150Y120151D01*
Y117067D02*
Y120151D01*
Y117067D02*
X47445Y116772D01*
X50102D01*
X53055D01*
X56008D01*
X57484D01*
X20984D02*
X22984D01*
X29484Y122441D02*
X50354D01*
X50650Y122146D01*
Y118795D02*
Y122146D01*
Y118795D02*
X50945Y118499D01*
X53307D01*
X53602Y118795D01*
Y122146D01*
X53898Y122441D01*
X56260D01*
X56555Y122146D01*
Y118795D02*
Y122146D01*
Y118795D02*
X56850Y118499D01*
X59213D01*
X59508Y118795D01*
Y122146D01*
X59803Y122441D01*
X60984D01*
X67815D01*
X15315D02*
X29484D01*
X58484Y146772D02*
X63248Y151535D01*
X28484Y146772D02*
X38996D01*
X39291Y147067D01*
Y153000D01*
X39587Y153295D01*
X41949D01*
X42244Y153000D01*
Y147067D02*
Y153000D01*
Y147067D02*
X42539Y146772D01*
X44902D01*
X45197Y147067D01*
Y153000D01*
X45492Y153295D01*
X47854D01*
X48150Y153000D01*
Y147067D02*
Y153000D01*
Y147067D02*
X48445Y146772D01*
X50807D01*
X51102Y147067D01*
X51398Y147362D01*
X53760D01*
X54055Y147067D01*
X54350Y146772D01*
X57008D01*
X58484D01*
X20984D02*
X28484D01*
X50484Y156772D02*
X51949D01*
X52244Y156476D01*
Y150380D02*
Y156476D01*
Y150380D02*
X52539Y150084D01*
X54902D01*
X55197Y150380D01*
Y156772D01*
Y158164D01*
X55492Y158459D01*
X57854D01*
X58150Y158164D01*
Y156772D02*
Y158164D01*
Y153355D02*
Y156772D01*
Y153355D02*
X58445Y153059D01*
X60807D01*
X61102Y153355D01*
Y156772D01*
Y158164D01*
X61398Y158459D01*
X63760D01*
X64055Y158164D01*
Y157067D02*
Y158164D01*
Y157067D02*
X64350Y156772D01*
X67008D01*
X68484D01*
X20984D02*
X50484D01*
X26984Y161772D02*
X38854D01*
X39150Y161476D01*
Y159483D02*
Y161476D01*
Y159483D02*
X39445Y159187D01*
X41807D01*
X42102Y159483D01*
Y161772D01*
Y164061D01*
X42398Y164356D01*
X44760D01*
X45055Y164061D01*
Y161772D02*
Y164061D01*
Y159483D02*
Y161772D01*
Y159483D02*
X45350Y159187D01*
X47713D01*
X48008Y159483D01*
Y161476D01*
X48303Y161772D01*
X49484D01*
X68484D01*
X15984D02*
X26984D01*
X68484Y166772D02*
X73878Y161378D01*
X34484Y166772D02*
X48996D01*
X49291Y167067D01*
Y169589D01*
X49587Y169885D01*
X51949D01*
X52244Y169589D01*
Y166772D02*
Y169589D01*
Y163954D02*
Y166772D01*
Y163954D02*
X52539Y163659D01*
X54902D01*
X55197Y163954D01*
Y166772D01*
Y168560D01*
X55492Y168855D01*
X57854D01*
X58150Y168560D01*
Y166772D02*
Y168560D01*
Y163954D02*
Y166772D01*
Y163954D02*
X58445Y163659D01*
X60807D01*
X61102Y163954D01*
Y166772D01*
Y168560D01*
X61398Y168855D01*
X63760D01*
X64055Y168560D01*
Y167067D02*
Y168560D01*
Y167067D02*
X64350Y166772D01*
X67008D01*
X68484D01*
X20984D02*
X34484D01*
X39484Y171772D02*
X57854D01*
X58150Y171476D01*
Y170923D02*
Y171476D01*
Y170923D02*
X58445Y170627D01*
X60807D01*
X61102Y170923D01*
Y171772D01*
Y176693D01*
X61398Y176988D01*
X63760D01*
X64055Y176693D01*
Y172067D02*
Y176693D01*
Y172067D02*
X64350Y171772D01*
X67008D01*
X68484D01*
X15984D02*
X39484D01*
X28984Y181102D02*
X53524D01*
X53819Y180807D01*
Y177301D02*
Y180807D01*
Y177301D02*
X54114Y177006D01*
X56476D01*
X56772Y177301D01*
Y181102D01*
Y181398D01*
X57067Y181693D01*
X59429D01*
X59724Y181398D01*
X60020Y181102D01*
X62677D01*
X64153D01*
X16654D02*
X28984D01*
X28484Y186772D02*
X43996D01*
X44291Y187067D01*
Y189158D01*
X44587Y189454D01*
X46949D01*
X47244Y189158D01*
Y186772D02*
Y189158D01*
Y183426D02*
Y186772D01*
Y183426D02*
X47539Y183131D01*
X49902D01*
X50197Y183426D01*
Y186772D01*
Y186969D01*
X50492Y187264D01*
X52854D01*
X53150Y186969D01*
Y186772D02*
Y186969D01*
Y183426D02*
Y186772D01*
Y183426D02*
X53445Y183131D01*
X55807D01*
X56102Y183426D01*
Y186476D01*
X56398Y186772D01*
X59055D01*
X62008D01*
X63484D01*
X20984D02*
X28484D01*
X29484Y191482D02*
X53144D01*
X53439Y191187D01*
Y188937D02*
Y191187D01*
Y188937D02*
X53734Y188641D01*
X56096D01*
X56392Y188937D01*
Y191482D01*
Y191778D01*
X56687Y192073D01*
X59049D01*
X59344Y191778D01*
X59640Y191482D01*
X62297D01*
X63773D01*
X16273D02*
X29484D01*
X28984Y196772D02*
X41043D01*
X41339Y196476D01*
Y193956D02*
Y196476D01*
Y193956D02*
X41634Y193661D01*
X43996D01*
X44291Y193956D01*
Y196476D01*
X44587Y196772D01*
X46949D01*
X47244Y196476D01*
Y193956D02*
Y196476D01*
Y193956D02*
X47539Y193661D01*
X49902D01*
X50197Y193956D01*
Y196476D01*
X50492Y196772D01*
X52854D01*
X53150Y196476D01*
Y193956D02*
Y196476D01*
Y193956D02*
X53445Y193661D01*
X55807D01*
X56102Y193956D01*
Y196476D01*
X56398Y196772D01*
X59055D01*
X62008D01*
X63484D01*
X20984D02*
X28984D01*
X76833Y259923D02*
X80984Y255772D01*
Y229272D02*
X111378Y198878D01*
Y178307D02*
Y198878D01*
X177520Y114134D02*
X218622D01*
X79035Y102323D02*
X94449D01*
X76004Y104291D02*
X94449D01*
X68484Y96772D02*
X76004Y104291D01*
X20984Y86772D02*
X28484D01*
X72973Y106260D02*
X94449D01*
X65984Y99272D02*
X72973Y106260D01*
X26273Y92061D02*
X33484Y99272D01*
X16273Y92061D02*
X26273D01*
X10984Y86772D02*
X16273Y92061D01*
X69941Y108228D02*
X94449D01*
X64153Y102441D02*
X69941Y108228D01*
X10984Y106772D02*
X15315Y102441D01*
X66909Y110197D02*
X94449D01*
X64008Y107295D02*
X66909Y110197D01*
X10984Y116772D02*
X15628Y112128D01*
X70217Y120039D02*
X94449D01*
X67815Y122441D02*
X70217Y120039D01*
X10984Y126772D02*
X15315Y122441D01*
X70846Y159409D02*
X94449D01*
X68484Y161772D02*
X70846Y159409D01*
X10984Y156772D02*
X15984Y161772D01*
X73878Y161378D02*
X94449D01*
X76909Y163347D02*
X94449D01*
X68484Y171772D02*
X76909Y163347D01*
X10984Y166772D02*
X15984Y171772D01*
X79941Y165315D02*
X94449D01*
X64153Y181102D02*
X79941Y165315D01*
X10984Y186772D02*
X16654Y181102D01*
X82972Y167283D02*
X94449D01*
X63484Y186772D02*
X82972Y167283D01*
X86004Y169252D02*
X94449D01*
X63773Y191482D02*
X86004Y169252D01*
X10984Y196772D02*
X16273Y191482D01*
X89035Y171221D02*
X94449D01*
X63484Y196772D02*
X89035Y171221D01*
X146811Y68445D02*
Y95236D01*
Y68445D02*
X165984Y49272D01*
Y21772D02*
Y26772D01*
Y32736D01*
X166279Y33031D01*
X169643D01*
X169938Y33327D01*
Y35689D01*
X169643Y35984D02*
X169938Y35689D01*
X165984Y35984D02*
X169643D01*
X164993D02*
X165984D01*
X164698Y36280D02*
X164993Y35984D01*
X164698Y36280D02*
Y38642D01*
X164993Y38937D01*
X165984D01*
X169643D01*
X169938Y39232D01*
Y41594D01*
X169643Y41890D02*
X169938Y41594D01*
X165984Y41890D02*
X169643D01*
X164993D02*
X165984D01*
X164698Y42185D02*
X164993Y41890D01*
X164698Y42185D02*
Y44547D01*
X164993Y44842D01*
X165689D01*
X165984Y45138D01*
Y47795D01*
Y49272D01*
X105984Y241772D02*
Y251772D01*
Y238307D02*
Y241772D01*
X105689Y238012D02*
X105984Y238307D01*
X101126Y238012D02*
X105689D01*
X100831Y237717D02*
X101126Y238012D01*
X100831Y235354D02*
Y237717D01*
Y235354D02*
X101126Y235059D01*
X105689D01*
X105984Y234764D01*
Y232401D02*
Y234764D01*
X105689Y232106D02*
X105984Y232401D01*
X101126Y232106D02*
X105689D01*
X100831Y231811D02*
X101126Y232106D01*
X100831Y229449D02*
Y231811D01*
Y229449D02*
X101126Y229153D01*
X105689D01*
X105984Y228858D01*
Y226201D02*
Y228858D01*
Y223248D02*
Y226201D01*
Y221772D02*
Y223248D01*
Y221772D02*
X125157Y202598D01*
Y178307D02*
Y202598D01*
X65984Y246772D02*
Y251772D01*
Y242854D02*
Y246772D01*
Y242854D02*
X66280Y242559D01*
X68739D01*
X69034Y242264D01*
Y239901D02*
Y242264D01*
X68739Y239606D02*
X69034Y239901D01*
X66280Y239606D02*
X68739D01*
X65984Y239311D02*
X66280Y239606D01*
X65984Y236949D02*
Y239311D01*
Y236949D02*
X66280Y236653D01*
X68739D01*
X69034Y236358D01*
Y233996D02*
Y236358D01*
X68739Y233701D02*
X69034Y233996D01*
X66280Y233701D02*
X68739D01*
X65984Y233405D02*
X66280Y233701D01*
X65984Y230748D02*
Y233405D01*
Y229272D02*
Y230748D01*
Y229272D02*
X105472Y189784D01*
Y178307D02*
Y189784D01*
X65984Y261772D02*
X70984Y256772D01*
Y229272D02*
Y256772D01*
Y229272D02*
X107441Y192815D01*
Y178307D02*
Y192815D01*
X75984Y244272D02*
Y251772D01*
Y242854D02*
Y244272D01*
Y242854D02*
X76279Y242559D01*
X77520D01*
X77815Y242264D01*
Y239901D02*
Y242264D01*
X77520Y239606D02*
X77815Y239901D01*
X75984Y239606D02*
X77520D01*
X72854D02*
X75984D01*
X72559Y239311D02*
X72854Y239606D01*
X72559Y236949D02*
Y239311D01*
Y236949D02*
X72854Y236653D01*
X75984D01*
X77520D01*
X77815Y236358D01*
Y233996D02*
Y236358D01*
X77520Y233701D02*
X77815Y233996D01*
X76279Y233701D02*
X77520D01*
X75984Y233405D02*
X76279Y233701D01*
X75984Y230748D02*
Y233405D01*
Y229272D02*
Y230748D01*
Y229272D02*
X109409Y195846D01*
Y178307D02*
Y195846D01*
X85984Y249272D02*
Y251772D01*
Y248012D02*
Y249272D01*
Y245354D02*
Y248012D01*
Y245354D02*
X86279Y245059D01*
X89114D01*
X89410Y244764D01*
Y242402D02*
Y244764D01*
X89114Y242106D02*
X89410Y242402D01*
X86279Y242106D02*
X89114D01*
X85984Y241811D02*
X86279Y242106D01*
X85984Y239449D02*
Y241811D01*
Y239449D02*
X86279Y239154D01*
X89229D01*
X89525Y238858D01*
Y236496D02*
Y238858D01*
X89229Y236201D02*
X89525Y236496D01*
X86279Y236201D02*
X89229D01*
X85984Y235906D02*
X86279Y236201D01*
X85984Y233248D02*
Y235906D01*
Y231772D02*
Y233248D01*
Y231772D02*
X121221Y196535D01*
Y178307D02*
Y196535D01*
X90984Y239449D02*
Y243772D01*
Y239449D02*
X91280Y239154D01*
X92023D01*
X92318Y238858D01*
Y236496D02*
Y238858D01*
X92023Y236201D02*
X92318Y236496D01*
X91280Y236201D02*
X92023D01*
X90984Y235906D02*
X91280Y236201D01*
X90984Y233248D02*
Y235906D01*
Y231772D02*
Y233248D01*
Y231772D02*
X123189Y199567D01*
Y178307D02*
Y199567D01*
X105984Y261772D02*
X110984Y256772D01*
Y244272D02*
Y256772D01*
Y232401D02*
Y244272D01*
X110689Y232106D02*
X110984Y232401D01*
X107854Y232106D02*
X110689D01*
X107559Y231811D02*
X107854Y232106D01*
X107559Y229449D02*
Y231811D01*
Y229449D02*
X107854Y229153D01*
X110689D01*
X110984Y228858D01*
Y226201D02*
Y228858D01*
Y223248D02*
Y226201D01*
Y221772D02*
Y223248D01*
Y221772D02*
X127126Y205630D01*
Y178307D02*
Y205630D01*
X115984Y241772D02*
Y251772D01*
Y241260D02*
Y241772D01*
Y241260D02*
X116279Y240965D01*
X117314D01*
X117609Y240669D01*
Y238307D02*
Y240669D01*
X117314Y238012D02*
X117609Y238307D01*
X115984Y238012D02*
X117314D01*
X112854D02*
X115984D01*
X112559Y237717D02*
X112854Y238012D01*
X112559Y235354D02*
Y237717D01*
Y235354D02*
X112854Y235059D01*
X115984D01*
X116706D01*
X117001Y234764D01*
Y232401D02*
Y234764D01*
X116706Y232106D02*
X117001Y232401D01*
X115984Y232106D02*
X116706D01*
X112854D02*
X115984D01*
X112559Y231811D02*
X112854Y232106D01*
X112559Y229449D02*
Y231811D01*
Y229449D02*
X112854Y229153D01*
X115984D01*
X116706D01*
X117001Y228858D01*
Y226496D02*
Y228858D01*
X116706Y226201D02*
X117001Y226496D01*
X116279Y226201D02*
X116706D01*
X115984Y225905D02*
X116279Y226201D01*
X115984Y223248D02*
Y225905D01*
Y221772D02*
Y223248D01*
Y221772D02*
X129095Y208661D01*
Y178307D02*
Y208661D01*
X131063Y178307D02*
Y211693D01*
X123484Y219272D02*
X131063Y211693D01*
X121653Y221102D02*
X123484Y219272D01*
X121653Y241772D02*
Y256102D01*
Y237638D02*
Y241772D01*
X121358Y237343D02*
X121653Y237638D01*
X118871Y237343D02*
X121358D01*
X118576Y237047D02*
X118871Y237343D01*
X118576Y234685D02*
Y237047D01*
Y234685D02*
X118871Y234390D01*
X121358D01*
X121653Y234095D01*
Y231732D02*
Y234095D01*
X121358Y231437D02*
X121653Y231732D01*
X118871Y231437D02*
X121358D01*
X118576Y231142D02*
X118871Y231437D01*
X118576Y228780D02*
Y231142D01*
Y228780D02*
X118871Y228484D01*
X121358D01*
X121653Y228189D01*
Y225532D02*
Y228189D01*
Y222579D02*
Y225532D01*
Y221102D02*
Y222579D01*
X115984Y261772D02*
X121653Y256102D01*
X125984Y221772D02*
Y223425D01*
X125689Y223721D02*
X125984Y223425D01*
X123523Y223721D02*
X125689D01*
X123228Y224016D02*
X123523Y223721D01*
X123228Y224016D02*
Y226378D01*
X123523Y226673D01*
X125689D01*
X125984Y226969D01*
Y229331D01*
X125689Y229626D02*
X125984Y229331D01*
X123523Y229626D02*
X125689D01*
X123228Y229921D02*
X123523Y229626D01*
X123228Y229921D02*
Y232283D01*
X123523Y232579D01*
X125689D01*
X125984Y232874D01*
Y235236D01*
X125689Y235531D02*
X125984Y235236D01*
X123523Y235531D02*
X125689D01*
X123228Y235827D02*
X123523Y235531D01*
X123228Y235827D02*
Y238189D01*
X123523Y238484D01*
X125689D01*
X125984Y238780D01*
Y241142D01*
X125689Y241437D02*
X125984Y241142D01*
X123523Y241437D02*
X125689D01*
X123228Y241732D02*
X123523Y241437D01*
X123228Y241732D02*
Y244094D01*
X123523Y244390D01*
X125689D01*
X125984Y244685D01*
Y247342D01*
Y250295D01*
Y251772D01*
X131413Y216343D02*
X133031Y214724D01*
X130995Y216343D02*
X131413D01*
X130026Y215374D02*
X130995Y216343D01*
X129609Y215374D02*
X130026D01*
X127938Y217044D02*
X129609Y215374D01*
X127938Y217044D02*
Y217462D01*
X128907Y218431D01*
Y218849D01*
X127028Y220728D02*
X128907Y218849D01*
X125984Y221772D02*
X127028Y220728D01*
X133031Y178307D02*
Y211772D01*
Y213248D01*
Y214724D01*
X125984Y261772D02*
X131653Y256102D01*
Y246772D02*
Y256102D01*
Y237185D02*
Y246772D01*
Y237185D02*
X131949Y236890D01*
X137363D01*
X137658Y236595D01*
Y234232D02*
Y236595D01*
X137363Y233937D02*
X137658Y234232D01*
X131949Y233937D02*
X137363D01*
X131653Y233642D02*
X131949Y233937D01*
X131653Y231279D02*
Y233642D01*
Y231279D02*
X131949Y230984D01*
X132244Y230689D01*
Y228327D02*
Y230689D01*
X131949Y228031D02*
X132244Y228327D01*
X131653Y227736D02*
X131949Y228031D01*
X131653Y225079D02*
Y227736D01*
Y223602D02*
Y225079D01*
Y223602D02*
X138937Y216319D01*
Y178307D02*
Y216319D01*
X140905Y256693D02*
X145984Y261772D01*
X140905Y249272D02*
Y256693D01*
Y178307D02*
Y217500D01*
Y228130D02*
Y249272D01*
X140610Y227835D02*
X140905Y228130D01*
X134822Y227835D02*
X140610D01*
X134527Y227539D02*
X134822Y227835D01*
X134527Y225177D02*
Y227539D01*
Y225177D02*
X134822Y224882D01*
X140905D01*
X141102D01*
X141398Y224587D01*
Y222224D02*
Y224587D01*
X141102Y221929D02*
X141398Y222224D01*
X140905Y221929D02*
X141102D01*
X139805D02*
X140905D01*
X139510Y221634D02*
X139805Y221929D01*
X139510Y219272D02*
Y221634D01*
Y219272D02*
X139805Y218976D01*
X140610D01*
X140905Y218681D01*
Y217500D02*
Y218681D01*
X145984Y246772D02*
Y251772D01*
Y245118D02*
Y246772D01*
X145689Y244823D02*
X145984Y245118D01*
X143399Y244823D02*
X145689D01*
X143103Y244528D02*
X143399Y244823D01*
X143103Y242165D02*
Y244528D01*
Y242165D02*
X143399Y241870D01*
X145984D01*
X148491D01*
X148786Y241575D01*
Y239213D02*
Y241575D01*
X148491Y238917D02*
X148786Y239213D01*
X145984Y238917D02*
X148491D01*
X143399D02*
X145984D01*
X143103Y238622D02*
X143399Y238917D01*
X143103Y236260D02*
Y238622D01*
Y236260D02*
X143399Y235964D01*
X145689D01*
X145984Y235669D01*
Y233307D02*
Y235669D01*
X145689Y233012D02*
X145984Y233307D01*
X143399Y233012D02*
X145689D01*
X143103Y232716D02*
X143399Y233012D01*
X143103Y230354D02*
Y232716D01*
Y230354D02*
X143399Y230059D01*
X145689D01*
X145984Y229764D01*
Y227401D02*
Y229764D01*
X145689Y227106D02*
X145984Y227401D01*
X143399Y227106D02*
X145689D01*
X143103Y226811D02*
X143399Y227106D01*
X143103Y224449D02*
Y226811D01*
Y224449D02*
X143399Y224153D01*
X145689D01*
X145984Y223858D01*
Y221201D02*
Y223858D01*
Y218248D02*
Y221201D01*
Y216772D02*
Y218248D01*
X142874Y213661D02*
X145984Y216772D01*
X142874Y178307D02*
Y213661D01*
X150984Y256772D02*
X155984Y261772D01*
X150984Y244272D02*
Y256772D01*
Y233307D02*
Y244272D01*
X150689Y233012D02*
X150984Y233307D01*
X148216Y233012D02*
X150689D01*
X147921Y232716D02*
X148216Y233012D01*
X147921Y230354D02*
Y232716D01*
Y230354D02*
X148216Y230059D01*
X150984D01*
X151181D01*
X151476Y229764D01*
Y227401D02*
Y229764D01*
X151181Y227106D02*
X151476Y227401D01*
X150984Y227106D02*
X151181D01*
X148216D02*
X150984D01*
X147921Y226811D02*
X148216Y227106D01*
X147921Y224449D02*
Y226811D01*
Y224449D02*
X148216Y224153D01*
X150984D01*
X151279D01*
X151575Y223858D01*
Y221496D02*
Y223858D01*
X151279Y221201D02*
X151575Y221496D01*
X150984Y220905D02*
X151279Y221201D01*
X150984Y218248D02*
Y220905D01*
Y216772D02*
Y218248D01*
X144843Y210630D02*
X150984Y216772D01*
X144843Y178307D02*
Y210630D01*
X155984Y241772D02*
Y251772D01*
Y239213D02*
Y241772D01*
X155689Y238917D02*
X155984Y239213D01*
X153364Y238917D02*
X155689D01*
X153068Y238622D02*
X153364Y238917D01*
X153068Y236260D02*
Y238622D01*
Y236260D02*
X153364Y235964D01*
X155984D01*
X159274D01*
X159569Y235669D01*
Y233307D02*
Y235669D01*
X159274Y233012D02*
X159569Y233307D01*
X155984Y233012D02*
X159274D01*
X153364D02*
X155984D01*
X153068Y232716D02*
X153364Y233012D01*
X153068Y230354D02*
Y232716D01*
Y230354D02*
X153364Y230059D01*
X155689D01*
X155984Y229764D01*
Y227401D02*
Y229764D01*
X155689Y227106D02*
X155984Y227401D01*
X153364Y227106D02*
X155689D01*
X153068Y226811D02*
X153364Y227106D01*
X153068Y224449D02*
Y226811D01*
Y224449D02*
X153364Y224153D01*
X155984D01*
X156280D01*
X156575Y223858D01*
Y221496D02*
Y223858D01*
X156280Y221201D02*
X156575Y221496D01*
X155984Y220905D02*
X156280Y221201D01*
X155984Y218248D02*
Y220905D01*
Y216772D02*
Y218248D01*
X146811Y207598D02*
X155984Y216772D01*
X146811Y178307D02*
Y207598D01*
X161653Y257441D02*
X165984Y261772D01*
X161653Y244528D02*
Y257441D01*
Y228071D02*
Y244528D01*
X161358Y227776D02*
X161653Y228071D01*
X157854Y227776D02*
X161358D01*
X157559Y227480D02*
X157854Y227776D01*
X157559Y225118D02*
Y227480D01*
Y225118D02*
X157854Y224823D01*
X161358D01*
X161653Y224528D01*
Y221870D02*
Y224528D01*
Y218917D02*
Y221870D01*
Y217441D02*
Y218917D01*
X148779Y204567D02*
X161653Y217441D01*
X148779Y178307D02*
Y204567D01*
X165984Y246772D02*
Y251772D01*
Y245118D02*
Y246772D01*
X165689Y244823D02*
X165984Y245118D01*
X163523Y244823D02*
X165689D01*
X163228Y244528D02*
X163523Y244823D01*
X163228Y242165D02*
Y244528D01*
Y242165D02*
X163523Y241870D01*
X165689D01*
X165984Y241575D01*
Y239213D02*
Y241575D01*
X165689Y238917D02*
X165984Y239213D01*
X163523Y238917D02*
X165689D01*
X163228Y238622D02*
X163523Y238917D01*
X163228Y236260D02*
Y238622D01*
Y236260D02*
X163523Y235964D01*
X165689D01*
X165984Y235669D01*
Y233307D02*
Y235669D01*
X165689Y233012D02*
X165984Y233307D01*
X163523Y233012D02*
X165689D01*
X163228Y232716D02*
X163523Y233012D01*
X163228Y230354D02*
Y232716D01*
Y230354D02*
X163523Y230059D01*
X165689D01*
X165984Y229764D01*
Y227401D02*
Y229764D01*
X165689Y227106D02*
X165984Y227401D01*
X163523Y227106D02*
X165689D01*
X163228Y226811D02*
X163523Y227106D01*
X163228Y224449D02*
Y226811D01*
Y224449D02*
X163523Y224153D01*
X165689D01*
X165984Y223858D01*
Y221201D02*
Y223858D01*
Y218248D02*
Y221201D01*
Y216772D02*
Y218248D01*
X150748Y201535D02*
X165984Y216772D01*
X150748Y178307D02*
Y201535D01*
X180984Y256772D02*
X185984Y261772D01*
X180984Y244272D02*
Y256772D01*
Y219272D02*
Y226772D01*
Y228031D01*
Y230984D01*
Y233937D01*
Y236890D01*
Y239547D01*
X181280Y239843D01*
X184114D01*
X184410Y240138D01*
Y242500D01*
X184114Y242795D02*
X184410Y242500D01*
X181280Y242795D02*
X184114D01*
X180984Y243091D02*
X181280Y242795D01*
X180984Y243091D02*
Y244272D01*
X160591Y198878D02*
X180984Y219272D01*
X160591Y178307D02*
Y198878D01*
X185984Y241772D02*
Y251772D01*
Y235807D02*
Y241772D01*
X185689Y235512D02*
X185984Y235807D01*
X182854Y235512D02*
X185689D01*
X182559Y235216D02*
X182854Y235512D01*
X182559Y232854D02*
Y235216D01*
Y232854D02*
X182854Y232559D01*
X185984D01*
X186812D01*
X187108Y232264D01*
Y229902D02*
Y232264D01*
X186812Y229606D02*
X187108Y229902D01*
X185984Y229606D02*
X186812D01*
X182854D02*
X185984D01*
X182559Y229311D02*
X182854Y229606D01*
X182559Y226949D02*
Y229311D01*
Y226949D02*
X182854Y226654D01*
X185984D01*
X186812D01*
X187108Y226358D01*
Y223996D02*
Y226358D01*
X186812Y223701D02*
X187108Y223996D01*
X186279Y223701D02*
X186812D01*
X185984Y223406D02*
X186279Y223701D01*
X185984Y220748D02*
Y223406D01*
Y219272D02*
Y220748D01*
X162559Y195846D02*
X185984Y219272D01*
X162559Y178307D02*
Y195846D01*
X190984Y256772D02*
X195984Y261772D01*
X190984Y241772D02*
Y256772D01*
Y229902D02*
Y241772D01*
X190689Y229606D02*
X190984Y229902D01*
X188863Y229606D02*
X190689D01*
X188567Y229311D02*
X188863Y229606D01*
X188567Y226949D02*
Y229311D01*
Y226949D02*
X188863Y226654D01*
X190689D01*
X190984Y226358D01*
Y223701D02*
Y226358D01*
Y220748D02*
Y223701D01*
Y219272D02*
Y220748D01*
X164528Y192815D02*
X190984Y219272D01*
X164528Y178307D02*
Y192815D01*
X195984Y241772D02*
Y251772D01*
Y229902D02*
Y241772D01*
X195689Y229606D02*
X195984Y229902D01*
X192854Y229606D02*
X195689D01*
X192559Y229311D02*
X192854Y229606D01*
X192559Y226949D02*
Y229311D01*
Y226949D02*
X192854Y226654D01*
X195984D01*
X199170D01*
X199465Y226358D01*
Y223996D02*
Y226358D01*
X199170Y223701D02*
X199465Y223996D01*
X196280Y223701D02*
X199170D01*
X195984Y223406D02*
X196280Y223701D01*
X195984Y220748D02*
Y223406D01*
Y219272D02*
Y220748D01*
X166496Y189784D02*
X195984Y219272D01*
X166496Y178307D02*
Y189784D01*
X200984Y256772D02*
X205984Y261772D01*
X200984Y226772D02*
Y256772D01*
Y226772D02*
X201102Y226654D01*
X201856D01*
X202151Y226358D01*
Y223996D02*
Y226358D01*
X201856Y223701D02*
X202151Y223996D01*
X201279Y223701D02*
X201856D01*
X200984Y223406D02*
X201279Y223701D01*
X200984Y220748D02*
Y223406D01*
Y219272D02*
Y220748D01*
X168465Y186752D02*
X200984Y219272D01*
X168465Y178307D02*
Y186752D01*
X205984Y246772D02*
Y251772D01*
Y224272D02*
Y233189D01*
X205689Y233484D02*
X205984Y233189D01*
X202854Y233484D02*
X205689D01*
X202559Y233780D02*
X202854Y233484D01*
X202559Y233780D02*
Y236142D01*
X202854Y236437D01*
X205689D01*
X205984Y236732D01*
Y239094D01*
X205689Y239390D02*
X205984Y239094D01*
X202854Y239390D02*
X205689D01*
X202559Y239685D02*
X202854Y239390D01*
X202559Y239685D02*
Y242047D01*
X202854Y242342D01*
X205689D01*
X205984Y242638D01*
Y245295D01*
Y246772D01*
X240984Y126772D02*
X250984D01*
X237520D02*
X240984D01*
X237224Y127067D02*
X237520Y126772D01*
X237224Y127067D02*
Y130604D01*
X236929Y130899D02*
X237224Y130604D01*
X234567Y130899D02*
X236929D01*
X234272Y130604D02*
X234567Y130899D01*
X234272Y126772D02*
Y130604D01*
Y124258D02*
Y126772D01*
X233976Y123963D02*
X234272Y124258D01*
X231614Y123963D02*
X233976D01*
X231319Y124258D02*
X231614Y123963D01*
X231319Y124258D02*
Y126772D01*
Y130604D01*
X231024Y130899D02*
X231319Y130604D01*
X228661Y130899D02*
X231024D01*
X228366Y130604D02*
X228661Y130899D01*
X228366Y126772D02*
Y130604D01*
Y124258D02*
Y126772D01*
X228071Y123963D02*
X228366Y124258D01*
X225709Y123963D02*
X228071D01*
X225413Y124258D02*
X225709Y123963D01*
X225413Y124258D02*
Y126476D01*
X225118Y126772D02*
X225413Y126476D01*
X222461Y126772D02*
X225118D01*
X220984D02*
X222461D01*
X255984Y81772D02*
X260984Y76772D01*
X235984Y81772D02*
X255984D01*
X233484Y84272D02*
X235984Y81772D01*
X209528Y108228D02*
X228484Y89272D01*
X231825Y85931D02*
X233484Y84272D01*
X231407Y85931D02*
X231825D01*
X230438Y84962D02*
X231407Y85931D01*
X230021Y84962D02*
X230438D01*
X228350Y86632D02*
X230021Y84962D01*
X228350Y86632D02*
Y87050D01*
X229319Y88019D01*
Y88437D01*
X228484Y89272D02*
X229319Y88437D01*
X177520Y108228D02*
X209528D01*
X245984Y196547D02*
X250760D01*
X225760D02*
X230984D01*
X244567D02*
X245984D01*
X244272Y196252D02*
X244567Y196547D01*
X244272Y194497D02*
Y196252D01*
X243976Y194202D02*
X244272Y194497D01*
X241614Y194202D02*
X243976D01*
X241319Y194497D02*
X241614Y194202D01*
X241319Y194497D02*
Y196547D01*
Y199047D01*
X241024Y199342D02*
X241319Y199047D01*
X238661Y199342D02*
X241024D01*
X238366Y199047D02*
X238661Y199342D01*
X238366Y196547D02*
Y199047D01*
Y196350D02*
Y196547D01*
X238071Y196055D02*
X238366Y196350D01*
X235709Y196055D02*
X238071D01*
X235413Y196350D02*
X235709Y196055D01*
X235413Y196350D02*
Y196547D01*
Y199047D01*
X235118Y199342D02*
X235413Y199047D01*
X232756Y199342D02*
X235118D01*
X232461Y199047D02*
X232756Y199342D01*
X232461Y196843D02*
Y199047D01*
X232165Y196547D02*
X232461Y196843D01*
X230984Y196547D02*
X232165D01*
X196496Y167283D02*
X225760Y196547D01*
X177520Y167283D02*
X196496D01*
X255984Y191772D02*
X260984Y196772D01*
X245984Y191772D02*
X255984D01*
X237160D02*
X245984D01*
X236865Y192067D02*
X237160Y191772D01*
X236865Y192067D02*
Y193893D01*
X236569Y194189D02*
X236865Y193893D01*
X234207Y194189D02*
X236569D01*
X233912Y193893D02*
X234207Y194189D01*
X233912Y192067D02*
Y193893D01*
X233617Y191772D02*
X233912Y192067D01*
X230959Y191772D02*
X233617D01*
X228006D02*
X230959D01*
X226530D02*
X228006D01*
X200073Y165315D02*
X226530Y191772D01*
X177520Y165315D02*
X200073D01*
X243484Y186772D02*
X250984D01*
X239567D02*
X243484D01*
X239272Y186476D02*
X239567Y186772D01*
X239272Y184053D02*
Y186476D01*
X238976Y183758D02*
X239272Y184053D01*
X236614Y183758D02*
X238976D01*
X236319Y184053D02*
X236614Y183758D01*
X236319Y184053D02*
Y186772D01*
Y189860D01*
X236024Y190155D02*
X236319Y189860D01*
X233661Y190155D02*
X236024D01*
X233366Y189860D02*
X233661Y190155D01*
X233366Y186772D02*
Y189860D01*
Y184038D02*
Y186772D01*
X233071Y183742D02*
X233366Y184038D01*
X230709Y183742D02*
X233071D01*
X230413Y184038D02*
X230709Y183742D01*
X230413Y184038D02*
Y186476D01*
X230118Y186772D02*
X230413Y186476D01*
X227461Y186772D02*
X230118D01*
X225984D02*
X227461D01*
X202559Y163347D02*
X225984Y186772D01*
X177520Y163347D02*
X202559D01*
X256354Y182141D02*
X260984Y186772D01*
X245984Y182141D02*
X256354D01*
X234031D02*
X245984D01*
X233736Y181846D02*
X234031Y182141D01*
X233736Y178740D02*
Y181846D01*
X233440Y178445D02*
X233736Y178740D01*
X231078Y178445D02*
X233440D01*
X230783Y178740D02*
X231078Y178445D01*
X230783Y178740D02*
Y181846D01*
X230488Y182141D02*
X230783Y181846D01*
X227830Y182141D02*
X230488D01*
X226354D02*
X227830D01*
X205709Y161496D02*
X226354Y182141D01*
X177638Y161496D02*
X205709D01*
X245984Y166772D02*
X250984D01*
X232520D02*
X245984D01*
X232224Y167067D02*
X232520Y166772D01*
X232224Y167067D02*
Y174118D01*
X231929Y174413D02*
X232224Y174118D01*
X229567Y174413D02*
X231929D01*
X229272Y174118D02*
X229567Y174413D01*
X229272Y167067D02*
Y174118D01*
X228976Y166772D02*
X229272Y167067D01*
X226614Y166772D02*
X228976D01*
X226319Y167067D02*
X226614Y166772D01*
X226319Y167067D02*
Y170773D01*
X226024Y171068D02*
X226319Y170773D01*
X223661Y171068D02*
X226024D01*
X223366Y170773D02*
X223661Y171068D01*
X223366Y167067D02*
Y170773D01*
X223071Y166772D02*
X223366Y167067D01*
X220413Y166772D02*
X223071D01*
X217461D02*
X220413D01*
X215984D02*
X217461D01*
X204685Y155472D02*
X215984Y166772D01*
X255984Y161772D02*
X260984Y166772D01*
X245984Y161772D02*
X255984D01*
X232520D02*
X245984D01*
X232224Y162067D02*
X232520Y161772D01*
X232224Y162067D02*
Y164741D01*
X231929Y165037D02*
X232224Y164741D01*
X229567Y165037D02*
X231929D01*
X229272Y164741D02*
X229567Y165037D01*
X229272Y162067D02*
Y164741D01*
X228976Y161772D02*
X229272Y162067D01*
X226614Y161772D02*
X228976D01*
X226319Y162067D02*
X226614Y161772D01*
X226319Y162067D02*
Y164741D01*
X226024Y165037D02*
X226319Y164741D01*
X223661Y165037D02*
X226024D01*
X223366Y164741D02*
X223661Y165037D01*
X223366Y162067D02*
Y164741D01*
X223071Y161772D02*
X223366Y162067D01*
X220413Y161772D02*
X223071D01*
X217461D02*
X220413D01*
X215984D02*
X217461D01*
X207716Y153504D02*
X215984Y161772D01*
X240984Y156772D02*
X250984D01*
X238425D02*
X240984D01*
X238130Y157067D02*
X238425Y156772D01*
X238130Y157067D02*
Y159902D01*
X237835Y160197D02*
X238130Y159902D01*
X235472Y160197D02*
X237835D01*
X235177Y159902D02*
X235472Y160197D01*
X235177Y156772D02*
Y159902D01*
Y156422D02*
Y156772D01*
X234882Y156127D02*
X235177Y156422D01*
X232520Y156127D02*
X234882D01*
X232224Y156422D02*
X232520Y156127D01*
X232224Y156422D02*
Y156772D01*
Y159902D01*
X231929Y160197D02*
X232224Y159902D01*
X229567Y160197D02*
X231929D01*
X229272Y159902D02*
X229567Y160197D01*
X229272Y156772D02*
Y159902D01*
Y156422D02*
Y156772D01*
X228976Y156127D02*
X229272Y156422D01*
X226614Y156127D02*
X228976D01*
X226319Y156422D02*
X226614Y156127D01*
X226319Y156422D02*
Y156772D01*
Y159902D01*
X226024Y160197D02*
X226319Y159902D01*
X223661Y160197D02*
X226024D01*
X223366Y159902D02*
X223661Y160197D01*
X223366Y156772D02*
Y159902D01*
Y156422D02*
Y156772D01*
X223071Y156127D02*
X223366Y156422D01*
X220709Y156127D02*
X223071D01*
X220413Y156422D02*
X220709Y156127D01*
X220413Y156422D02*
Y156476D01*
X220118Y156772D02*
X220413Y156476D01*
X217461Y156772D02*
X220118D01*
X215984D02*
X217461D01*
X210748Y151535D02*
X215984Y156772D01*
X255984Y151772D02*
X260984Y156772D01*
X243484Y151772D02*
X255984D01*
X232520D02*
X243484D01*
X232224Y152067D02*
X232520Y151772D01*
X232224Y152067D02*
Y154372D01*
X231929Y154667D02*
X232224Y154372D01*
X229567Y154667D02*
X231929D01*
X229272Y154372D02*
X229567Y154667D01*
X229272Y152067D02*
Y154372D01*
X228976Y151772D02*
X229272Y152067D01*
X226614Y151772D02*
X228976D01*
X226319Y152067D02*
X226614Y151772D01*
X226319Y152067D02*
Y154372D01*
X226024Y154667D02*
X226319Y154372D01*
X223661Y154667D02*
X226024D01*
X223366Y154372D02*
X223661Y154667D01*
X223366Y151772D02*
Y154372D01*
Y149899D02*
Y151772D01*
X223071Y149603D02*
X223366Y149899D01*
X220709Y149603D02*
X223071D01*
X220413Y149899D02*
X220709Y149603D01*
X220413Y149899D02*
Y151476D01*
X220118Y151772D02*
X220413Y151476D01*
X217461Y151772D02*
X220118D01*
X215984D02*
X217461D01*
X245984Y146772D02*
X250984D01*
X237520D02*
X245984D01*
X237224Y147067D02*
X237520Y146772D01*
X237224Y147067D02*
Y149481D01*
X236929Y149776D02*
X237224Y149481D01*
X234567Y149776D02*
X236929D01*
X234272Y149481D02*
X234567Y149776D01*
X234272Y146772D02*
Y149481D01*
Y144062D02*
Y146772D01*
X233976Y143767D02*
X234272Y144062D01*
X231614Y143767D02*
X233976D01*
X231319Y144062D02*
X231614Y143767D01*
X231319Y144062D02*
Y146772D01*
Y149481D01*
X231024Y149776D02*
X231319Y149481D01*
X228661Y149776D02*
X231024D01*
X228366Y149481D02*
X228661Y149776D01*
X228366Y146772D02*
Y149481D01*
Y141801D02*
Y146772D01*
X228071Y141506D02*
X228366Y141801D01*
X225709Y141506D02*
X228071D01*
X225413Y141801D02*
X225709Y141506D01*
X225413Y141801D02*
Y146476D01*
X225118Y146772D02*
X225413Y146476D01*
X222461Y146772D02*
X225118D01*
X220984D02*
X222461D01*
X220158Y147598D02*
X220984Y146772D01*
X255984Y141772D02*
X260984Y146772D01*
X245984Y141772D02*
X255984D01*
X241614D02*
X245984D01*
X241319Y142067D02*
X241614Y141772D01*
X241319Y142067D02*
Y144463D01*
X241024Y144758D02*
X241319Y144463D01*
X238661Y144758D02*
X241024D01*
X238366Y144463D02*
X238661Y144758D01*
X238366Y141772D02*
Y144463D01*
Y140261D02*
Y141772D01*
X238071Y139966D02*
X238366Y140261D01*
X235709Y139966D02*
X238071D01*
X235413Y140261D02*
X235709Y139966D01*
X235413Y140261D02*
Y141476D01*
X235118Y141772D02*
X235413Y141476D01*
X232461Y141772D02*
X235118D01*
X230984D02*
X232461D01*
X235984Y66772D02*
X250984D01*
X229734Y73022D02*
X235984Y66772D01*
X177520Y102323D02*
X200433D01*
X255984Y71772D02*
X260984Y66772D01*
X235984Y71772D02*
X255984D01*
X210984Y96772D02*
X235984Y71772D01*
X208893Y98863D02*
X210984Y96772D01*
X208475Y98863D02*
X208893D01*
X208072Y98459D02*
X208475Y98863D01*
X207654Y98459D02*
X208072D01*
X205984Y100129D02*
X207654Y98459D01*
X205984Y100129D02*
Y100547D01*
X206388Y100951D01*
Y101368D01*
X204508Y103247D02*
X206388Y101368D01*
X203465Y104291D02*
X204508Y103247D01*
X177520Y104291D02*
X203465D01*
X245984Y86772D02*
X250984D01*
X235984D02*
X238602D01*
X241260D01*
X241555Y86476D01*
Y83906D02*
Y86476D01*
Y83906D02*
X241850Y83611D01*
X244213D01*
X244508Y83906D01*
Y86476D01*
X244803Y86772D01*
X245984D01*
X212559Y110197D02*
X219734Y103022D01*
X224292Y98464D01*
Y98046D02*
Y98464D01*
X223510Y97265D02*
X224292Y98046D01*
X223510Y96847D02*
Y97265D01*
Y96847D02*
X225181Y95177D01*
X225598D01*
X226589Y96167D01*
X227579Y97158D01*
X227997D01*
X229667Y95487D01*
Y95070D02*
Y95487D01*
X228677Y94079D02*
X229667Y95070D01*
X227686Y93089D02*
X228677Y94079D01*
X227686Y92671D02*
Y93089D01*
Y92671D02*
X229356Y91001D01*
X229774D01*
X230765Y91991D01*
X231755Y92982D01*
X232173D01*
X233843Y91312D01*
Y90894D02*
Y91312D01*
X233061Y90112D02*
X233843Y90894D01*
X233061Y89695D02*
Y90112D01*
Y89695D02*
X234940Y87816D01*
X235984Y86772D01*
X177520Y110197D02*
X212559D01*
X254484Y91772D02*
X258635Y87621D01*
X256221Y122008D02*
X260984Y126772D01*
X243484Y122008D02*
X256221D01*
X223484D02*
X232854D01*
X233150Y121713D01*
Y118989D02*
Y121713D01*
Y118989D02*
X233445Y118694D01*
X235807D01*
X236102Y118989D01*
Y122008D01*
Y123375D01*
X236398Y123671D01*
X238760D01*
X239055Y123375D01*
Y122008D02*
Y123375D01*
Y118989D02*
Y122008D01*
Y118989D02*
X239350Y118694D01*
X241713D01*
X242008Y118989D01*
Y121713D01*
X242303Y122008D01*
X243484D01*
X193465Y169252D02*
X225984Y201772D01*
X177520Y169252D02*
X193465D01*
X190433Y171221D02*
X225984Y206772D01*
X177520Y171221D02*
X190433D01*
X177520Y161378D02*
X177638Y161496D01*
X223484Y116772D02*
X250984D01*
X220216Y120039D02*
X223484Y116772D01*
X205984Y21772D02*
Y25815D01*
X205816Y25984D02*
X205984Y25815D01*
X203248Y25984D02*
X205816D01*
X202953Y26280D02*
X203248Y25984D01*
X202953Y26280D02*
Y28642D01*
X203248Y28937D01*
X205689D01*
X205984Y29232D01*
Y31594D01*
X205689Y31890D02*
X205984Y31594D01*
X203248Y31890D02*
X205689D01*
X202953Y32185D02*
X203248Y31890D01*
X202953Y32185D02*
Y34547D01*
X203248Y34843D01*
X205689D01*
X205984Y35138D01*
Y37795D01*
Y39272D01*
X162559Y72697D02*
Y95236D01*
Y72697D02*
X195984Y39272D01*
Y21772D02*
Y25689D01*
X195689Y25984D02*
X195984Y25689D01*
X193385Y25984D02*
X195689D01*
X193090Y26280D02*
X193385Y25984D01*
X193090Y26280D02*
Y28642D01*
X193385Y28937D01*
X195984D01*
X197863D01*
X198159Y29232D01*
Y31594D01*
X197863Y31890D02*
X198159Y31594D01*
X195984Y31890D02*
X197863D01*
X193993D02*
X195984D01*
X193698Y32185D02*
X193993Y31890D01*
X193698Y32185D02*
Y34547D01*
X193993Y34843D01*
X195689D01*
X195984Y35138D01*
Y37795D01*
Y39272D01*
X160591Y69665D02*
Y95236D01*
Y69665D02*
X190315Y39941D01*
Y17441D02*
Y29272D01*
Y29311D01*
X190610Y29606D01*
X191246D01*
X191541Y29902D01*
Y32264D01*
X191246Y32559D02*
X191541Y32264D01*
X190315Y32559D02*
X191246D01*
X190020D02*
X190315D01*
X189724Y32854D02*
X190020Y32559D01*
X189724Y32854D02*
Y35217D01*
X190020Y35512D01*
X190315Y35807D01*
Y38465D01*
Y39941D01*
Y17441D02*
X195984Y11772D01*
X150748Y74508D02*
Y95236D01*
Y74508D02*
X185984Y39272D01*
Y21772D02*
Y26772D01*
Y28642D01*
X186279Y28937D01*
X188323D01*
X188618Y29232D01*
Y31594D01*
X188323Y31890D02*
X188618Y31594D01*
X185984Y31890D02*
X188323D01*
X182921D02*
X185984D01*
X182626Y32185D02*
X182921Y31890D01*
X182626Y32185D02*
Y34547D01*
X182921Y34843D01*
X185689D01*
X185984Y35138D01*
Y37795D01*
Y39272D01*
X148779Y71476D02*
Y95236D01*
Y71476D02*
X180984Y39272D01*
Y16772D02*
Y31772D01*
X180866Y31890D02*
X180984Y31772D01*
X180046Y31890D02*
X180866D01*
X179750Y32185D02*
X180046Y31890D01*
X179750Y32185D02*
Y34547D01*
X180046Y34843D01*
X180689D01*
X180984Y35138D01*
Y37795D01*
Y39272D01*
Y16772D02*
X185984Y11772D01*
X160315Y17441D02*
X165984Y11772D01*
X160315Y17441D02*
Y24272D01*
Y33406D01*
X160610Y33701D01*
X162274D01*
X162569Y33996D01*
Y36358D01*
X162274Y36654D02*
X162569Y36358D01*
X160610Y36654D02*
X162274D01*
X160315Y36949D02*
X160610Y36654D01*
X160315Y36949D02*
Y39311D01*
X160610Y39606D01*
X162274D01*
X162569Y39902D01*
Y42264D01*
X162274Y42559D02*
X162569Y42264D01*
X160315Y42559D02*
X162274D01*
X160020D02*
X160315D01*
X159724Y42854D02*
X160020Y42559D01*
X159724Y42854D02*
Y45217D01*
X160020Y45512D01*
X160315Y45807D01*
Y48465D01*
Y49941D01*
X144843Y65413D02*
X160315Y49941D01*
X144843Y65413D02*
Y95236D01*
X142874Y62382D02*
Y95236D01*
Y62382D02*
X155984Y49272D01*
Y21772D02*
Y26772D01*
Y26831D01*
X156280Y27126D01*
X158221D01*
X158516Y27421D01*
Y29783D01*
X158221Y30079D02*
X158516Y29783D01*
X155984Y30079D02*
X158221D01*
X152409D02*
X155984D01*
X152114Y30374D02*
X152409Y30079D01*
X152114Y30374D02*
Y32736D01*
X152409Y33031D01*
X155984D01*
X158221D01*
X158516Y33327D01*
Y35689D01*
X158221Y35984D02*
X158516Y35689D01*
X155984Y35984D02*
X158221D01*
X155787D02*
X155984D01*
X155492Y36280D02*
X155787Y35984D01*
X155492Y36280D02*
Y38642D01*
X155787Y38937D01*
X155984D01*
X158221D01*
X158516Y39232D01*
Y41594D01*
X158221Y41890D02*
X158516Y41594D01*
X156280Y41890D02*
X158221D01*
X155984Y42185D02*
X156280Y41890D01*
X155984Y42185D02*
Y44842D01*
Y47795D01*
Y49272D01*
X140905Y59350D02*
Y95236D01*
Y59350D02*
X150315Y49941D01*
Y17441D02*
Y29272D01*
Y36358D01*
X150020Y36654D02*
X150315Y36358D01*
X149899Y36654D02*
X150020D01*
X149604Y36949D02*
X149899Y36654D01*
X149604Y36949D02*
Y39311D01*
X149899Y39606D01*
X150315D01*
X154114D01*
X154410Y39902D01*
Y42264D01*
X154114Y42559D02*
X154410Y42264D01*
X150315Y42559D02*
X154114D01*
X149292D02*
X150315D01*
X148996Y42854D02*
X149292Y42559D01*
X148996Y42854D02*
Y45217D01*
X149292Y45512D01*
X150020D01*
X150315Y45807D01*
Y48465D01*
Y49941D01*
Y17441D02*
X155984Y11772D01*
X138937Y56319D02*
Y95236D01*
Y56319D02*
X145984Y49272D01*
Y21772D02*
Y24272D01*
Y29783D01*
X145689Y30079D02*
X145984Y29783D01*
X143565Y30079D02*
X145689D01*
X143270Y30374D02*
X143565Y30079D01*
X143270Y30374D02*
Y32736D01*
X143565Y33031D01*
X145984D01*
X147734D01*
X148029Y33327D01*
Y35689D01*
X147734Y35984D02*
X148029Y35689D01*
X145984Y35984D02*
X147734D01*
X143565D02*
X145984D01*
X143270Y36280D02*
X143565Y35984D01*
X143270Y36280D02*
Y38642D01*
X143565Y38937D01*
X145984D01*
X147734D01*
X148029Y39232D01*
Y41594D01*
X147734Y41890D02*
X148029Y41594D01*
X145984Y41890D02*
X147734D01*
X143450D02*
X145984D01*
X143155Y42185D02*
X143450Y41890D01*
X143155Y42185D02*
Y44547D01*
X143450Y44842D01*
X145689D01*
X145984Y45138D01*
Y47795D01*
Y49272D01*
X133031Y57224D02*
Y95236D01*
Y57224D02*
X140984Y49272D01*
Y16772D02*
Y26772D01*
Y41594D01*
X140689Y41890D02*
X140984Y41594D01*
X135846Y41890D02*
X140689D01*
X135550Y42185D02*
X135846Y41890D01*
X135550Y42185D02*
Y44547D01*
X135846Y44842D01*
X140689D01*
X140984Y45138D01*
Y47795D01*
Y49272D01*
Y16772D02*
X145984Y11772D01*
X65984Y21772D02*
Y29272D01*
Y32736D01*
X66280Y33031D01*
X68739D01*
X69034Y33327D01*
Y35689D01*
X68739Y35984D02*
X69034Y35689D01*
X66280Y35984D02*
X68739D01*
X65984Y36280D02*
X66280Y35984D01*
X65984Y36280D02*
Y38642D01*
X66280Y38937D01*
X68739D01*
X69034Y39232D01*
Y41594D01*
X68739Y41890D02*
X69034Y41594D01*
X66280Y41890D02*
X68739D01*
X65984Y42185D02*
X66280Y41890D01*
X65984Y42185D02*
Y44842D01*
Y47795D01*
Y49272D01*
X75984Y11772D02*
X81653Y17441D01*
X85984Y21772D02*
Y24272D01*
Y30236D01*
X86279Y30531D01*
X89117D01*
X89412Y30827D01*
Y33189D01*
X89117Y33484D02*
X89412Y33189D01*
X85984Y33484D02*
X89117D01*
X84190D02*
X85984D01*
X83895Y33780D02*
X84190Y33484D01*
X83895Y33780D02*
Y36142D01*
X84190Y36437D01*
X85984D01*
X86867D01*
X87162Y36732D01*
Y39094D01*
X86867Y39390D02*
X87162Y39094D01*
X85984Y39390D02*
X86867D01*
X84190D02*
X85984D01*
X83895Y39685D02*
X84190Y39390D01*
X83895Y39685D02*
Y42047D01*
X84190Y42342D01*
X85689D01*
X85984Y42638D01*
Y45295D01*
Y46772D01*
X91654Y47441D02*
X111378Y67165D01*
X91654Y17441D02*
Y31772D01*
Y39764D01*
X91358Y40059D02*
X91654Y39764D01*
X89091Y40059D02*
X91358D01*
X88796Y40354D02*
X89091Y40059D01*
X88796Y40354D02*
Y42717D01*
X89091Y43012D01*
X91358D01*
X91654Y43307D01*
Y45965D01*
Y47441D01*
X85984Y11772D02*
X91654Y17441D01*
X100984Y16772D02*
Y29272D01*
Y44094D01*
X100689Y44390D02*
X100984Y44094D01*
X97574Y44390D02*
X100689D01*
X97279Y44685D02*
X97574Y44390D01*
X97279Y44685D02*
Y47047D01*
X97574Y47343D01*
X100689D01*
X100984Y47638D01*
Y50295D01*
Y51772D01*
Y16772D02*
X105984Y11772D01*
Y21772D02*
Y26772D01*
Y32283D01*
X105689Y32579D02*
X105984Y32283D01*
X103026Y32579D02*
X105689D01*
X102731Y32874D02*
X103026Y32579D01*
X102731Y32874D02*
Y35236D01*
X103026Y35531D01*
X105984D01*
X106403D01*
X106699Y35827D01*
Y38189D01*
X106403Y38484D02*
X106699Y38189D01*
X105984Y38484D02*
X106403D01*
X103026D02*
X105984D01*
X102731Y38780D02*
X103026Y38484D01*
X102731Y38780D02*
Y41142D01*
X103026Y41437D01*
X105984D01*
X106403D01*
X106699Y41732D01*
Y44094D01*
X106403Y44390D02*
X106699Y44094D01*
X105984Y44390D02*
X106403D01*
X103026D02*
X105984D01*
X102731Y44685D02*
X103026Y44390D01*
X102731Y44685D02*
Y47047D01*
X103026Y47343D01*
X105689D01*
X105984Y47638D01*
Y50295D01*
Y51772D01*
X110984Y16772D02*
Y26772D01*
Y38189D01*
X110689Y38484D02*
X110984Y38189D01*
X108626Y38484D02*
X110689D01*
X108331Y38780D02*
X108626Y38484D01*
X108331Y38780D02*
Y41142D01*
X108626Y41437D01*
X110689D01*
X110984Y41732D01*
Y44094D01*
X110689Y44390D02*
X110984Y44094D01*
X108626Y44390D02*
X110689D01*
X108331Y44685D02*
X108626Y44390D01*
X108331Y44685D02*
Y47047D01*
X108626Y47343D01*
X110689D01*
X110984Y47638D01*
Y50295D01*
Y51772D01*
Y16772D02*
X115984Y11772D01*
X127126Y62913D02*
Y95236D01*
X115984Y51772D02*
X127126Y62913D01*
X115984Y21772D02*
Y26772D01*
Y32283D01*
X115689Y32579D02*
X115984Y32283D01*
X112854Y32579D02*
X115689D01*
X112559Y32874D02*
X112854Y32579D01*
X112559Y32874D02*
Y35236D01*
X112854Y35531D01*
X115984D01*
X116971D01*
X117267Y35827D01*
Y38189D01*
X116971Y38484D02*
X117267Y38189D01*
X115984Y38484D02*
X116971D01*
X112854D02*
X115984D01*
X112559Y38780D02*
X112854Y38484D01*
X112559Y38780D02*
Y41142D01*
X112854Y41437D01*
X115984D01*
X116364D01*
X116659Y41732D01*
Y44094D01*
X116364Y44390D02*
X116659Y44094D01*
X115984Y44390D02*
X116364D01*
X112854D02*
X115984D01*
X112559Y44685D02*
X112854Y44390D01*
X112559Y44685D02*
Y47047D01*
X112854Y47343D01*
X115689D01*
X115984Y47638D01*
Y50295D01*
Y51772D01*
X129095Y59882D02*
Y95236D01*
X121653Y52441D02*
X129095Y59882D01*
X121653Y16102D02*
Y26772D01*
Y38858D01*
X121358Y39154D02*
X121653Y38858D01*
X118529Y39154D02*
X121358D01*
X118234Y39449D02*
X118529Y39154D01*
X118234Y39449D02*
Y41811D01*
X118529Y42106D01*
X121358D01*
X121653Y42402D01*
Y44764D01*
X121358Y45059D02*
X121653Y44764D01*
X118529Y45059D02*
X121358D01*
X118234Y45354D02*
X118529Y45059D01*
X118234Y45354D02*
Y47717D01*
X118529Y48012D01*
X121358D01*
X121653Y48307D01*
Y50965D01*
Y52441D01*
Y16102D02*
X125984Y11772D01*
X131063Y56850D02*
Y95236D01*
X125984Y51772D02*
X131063Y56850D01*
X125984Y21772D02*
Y31772D01*
Y32283D01*
X125689Y32579D02*
X125984Y32283D01*
X123523Y32579D02*
X125689D01*
X123228Y32874D02*
X123523Y32579D01*
X123228Y32874D02*
Y35236D01*
X123523Y35531D01*
X125984D01*
X127697D01*
X127992Y35827D01*
Y38189D01*
X127697Y38484D02*
X127992Y38189D01*
X125984Y38484D02*
X127697D01*
X123523D02*
X125984D01*
X123228Y38780D02*
X123523Y38484D01*
X123228Y38780D02*
Y41142D01*
X123523Y41437D01*
X125984D01*
X127697D01*
X127992Y41732D01*
Y44094D01*
X127697Y44390D02*
X127992Y44094D01*
X125984Y44390D02*
X127697D01*
X123523D02*
X125984D01*
X123228Y44685D02*
X123523Y44390D01*
X123228Y44685D02*
Y47047D01*
X123523Y47343D01*
X125689D01*
X125984Y47638D01*
Y50295D01*
Y51772D01*
X200315Y17441D02*
Y39941D01*
X164528Y75728D02*
X200315Y39941D01*
X164528Y75728D02*
Y95236D01*
X169984Y119272D02*
X171147Y118108D01*
X177482D01*
X170116Y115272D02*
X170247D01*
X171116Y116140D01*
X177482D01*
X156653Y90272D02*
Y95236D01*
X155484Y89102D02*
X156653Y90272D01*
X155484Y88772D02*
Y89102D01*
X154456Y88772D02*
X155484D01*
X152754Y90474D02*
X154456Y88772D01*
X152754Y90474D02*
Y95199D01*
X155984Y184899D02*
Y185272D01*
Y184899D02*
X156653Y184230D01*
Y178307D02*
Y184230D01*
X135984Y184899D02*
Y185272D01*
X135000Y183914D02*
X135984Y184899D01*
X135000Y178307D02*
Y183914D01*
X113384Y183171D02*
X115221Y185008D01*
X116721D01*
X116984Y185272D01*
X113384Y178345D02*
Y183171D01*
X113347Y178307D02*
X113384Y178345D01*
X116984Y185272D02*
X117246Y185010D01*
Y178345D02*
Y185010D01*
Y178345D02*
X117283Y178307D01*
X85857Y114772D02*
X86495Y114134D01*
X94449D01*
X116984Y88272D02*
X117246Y88533D01*
Y95199D01*
X152717Y95236D02*
X152754Y95199D01*
X158660Y95274D02*
Y99447D01*
X160984Y101772D01*
X76833Y259923D02*
Y260923D01*
X86833Y259923D02*
Y260923D01*
X85984Y261772D02*
X86833Y260923D01*
X75984Y261772D02*
X76833Y260923D01*
X250760Y196547D02*
X250984Y196772D01*
X260135Y205923D02*
X260984Y206772D01*
X258635Y87621D02*
X260135D01*
X260984Y86772D01*
X200315Y17441D02*
X205984Y11772D01*
X20984Y106772D02*
X21508Y107295D01*
X249984Y254213D02*
X255354D01*
X249689Y254508D02*
X249984Y254213D01*
X247748Y254508D02*
X249689D01*
X249984Y261772D02*
X250043Y261831D01*
X250484Y256772D02*
X255354D01*
X248984Y258272D02*
X250484Y256772D01*
X247484Y258272D02*
X248984D01*
X250043Y261831D02*
X255295D01*
X247484Y254772D02*
X247748Y254508D01*
X177520Y135787D02*
X184000D01*
X177520Y133819D02*
X183780D01*
X183827Y133772D02*
X186484D01*
X183780Y133819D02*
X183827Y133772D01*
X190984Y132772D02*
Y133272D01*
X88326Y144272D02*
X89646Y145592D01*
X89311Y125945D02*
X94449D01*
X89646Y145592D02*
X94411D01*
X94449Y145630D01*
X85984Y313287D02*
Y314272D01*
X255295Y261831D02*
X255354Y261890D01*
X260484Y261772D02*
X263984D01*
X260425Y261831D02*
X260484Y261772D01*
X255413Y261831D02*
X260425D01*
X255354Y261890D02*
X255413Y261831D01*
X250984Y76772D02*
X251901Y75855D01*
X94411Y112128D02*
X94449Y112165D01*
X157484Y171772D02*
Y172144D01*
X158660Y174096D02*
X160984Y171772D01*
X152679Y173966D02*
Y178269D01*
X150484Y171772D02*
X152679Y173966D01*
X156653Y172975D02*
X157484Y172144D01*
X158660Y174096D02*
Y178269D01*
X117283Y172845D02*
X117984Y172144D01*
X117283Y172845D02*
Y178307D01*
X156653Y172975D02*
Y178307D01*
X137984Y171772D02*
Y172144D01*
X119290Y173966D02*
X121484Y171772D01*
X113309Y174096D02*
Y178269D01*
X110984Y171772D02*
X113309Y174096D01*
X100853Y116140D02*
X100984Y116272D01*
X94486Y116140D02*
X100853D01*
X100611Y158772D02*
X100984D01*
X94486Y114096D02*
X99287D01*
X100611Y112772D02*
X100984D01*
X99287Y114096D02*
X100611Y112772D01*
X98506Y137794D02*
X100984Y140272D01*
X94486Y137794D02*
X98506D01*
X100912Y129844D02*
X100984Y129772D01*
X94486Y129844D02*
X100912D01*
X177526Y131844D02*
X182912D01*
X177520Y131850D02*
X177526Y131844D01*
X100611Y136772D02*
X100984D01*
X99627Y135787D02*
X100611Y136772D01*
X94449Y135787D02*
X99627D01*
X94449Y129882D02*
X94486Y129844D01*
X100611Y126272D02*
X100984D01*
X99007Y127876D02*
X100611Y126272D01*
X94486Y127876D02*
X99007D01*
X94449Y127913D02*
X94486Y127876D01*
X171057Y129844D02*
X177482D01*
X177520Y129882D01*
X170984Y143772D02*
X171057Y143699D01*
X177482D01*
X94449Y143661D02*
X100001D01*
X154685Y172845D02*
Y178307D01*
X136969Y173160D02*
X137984Y172144D01*
X136969Y173160D02*
Y178307D01*
X119290Y173966D02*
Y178269D01*
X120984Y101403D02*
Y101772D01*
X119290Y99708D02*
X120984Y101403D01*
X119290Y95274D02*
Y99708D01*
X133984Y101399D02*
Y101772D01*
Y101399D02*
X135000Y100383D01*
Y95236D02*
Y100383D01*
X138484Y101399D02*
Y101772D01*
X137006Y99921D02*
X138484Y101399D01*
X137006Y95274D02*
Y99921D01*
X150484Y101772D02*
X152679Y99577D01*
Y95274D02*
Y99577D01*
X154685Y95236D02*
Y100698D01*
X170984Y161272D02*
X171093D01*
X172918Y159447D01*
X177482D01*
X134484Y171772D02*
Y172144D01*
X135000Y172660D01*
Y178307D01*
X113484Y101600D02*
Y101772D01*
Y101600D02*
X115277Y99806D01*
Y95274D02*
Y99806D01*
X99318Y157479D02*
X100611Y158772D01*
X94486Y157479D02*
X99318D01*
X170984Y137772D02*
X170992Y137764D01*
X177512D01*
X100611Y154772D02*
X100984D01*
X99911Y155472D02*
X100611Y154772D01*
X94449Y155472D02*
X99911D01*
X171116Y157403D02*
X177482D01*
X170984Y157272D02*
X171116Y157403D01*
D16*
X255354Y256772D02*
D03*
Y259331D02*
D03*
Y261890D02*
D03*
Y254213D02*
D03*
Y251654D02*
D03*
D17*
X101535Y178307D02*
D03*
X103504D02*
D03*
X105472D02*
D03*
X107441D02*
D03*
X109409D02*
D03*
X111378D02*
D03*
X113347D02*
D03*
X115315D02*
D03*
X117283D02*
D03*
X119252D02*
D03*
X121221D02*
D03*
X123189D02*
D03*
X125157D02*
D03*
X127126D02*
D03*
X129095D02*
D03*
X131063D02*
D03*
X133031D02*
D03*
X135000D02*
D03*
X136969D02*
D03*
X138937D02*
D03*
X140905D02*
D03*
X142874D02*
D03*
X144843D02*
D03*
X146811D02*
D03*
X148779D02*
D03*
X150748D02*
D03*
X152717D02*
D03*
X154685D02*
D03*
X156653D02*
D03*
X158622D02*
D03*
X160591D02*
D03*
X162559D02*
D03*
X164528D02*
D03*
X166496D02*
D03*
X168465D02*
D03*
X170433D02*
D03*
Y95236D02*
D03*
X168465D02*
D03*
X166496D02*
D03*
X164528D02*
D03*
X162559D02*
D03*
X160591D02*
D03*
X158622D02*
D03*
X156653D02*
D03*
X154685D02*
D03*
X152717D02*
D03*
X150748D02*
D03*
X148779D02*
D03*
X146811D02*
D03*
X144843D02*
D03*
X142874D02*
D03*
X140905D02*
D03*
X138937D02*
D03*
X136969D02*
D03*
X135000D02*
D03*
X133031D02*
D03*
X131063D02*
D03*
X129095D02*
D03*
X127126D02*
D03*
X125157D02*
D03*
X123189D02*
D03*
X121221D02*
D03*
X119252D02*
D03*
X117283D02*
D03*
X115315D02*
D03*
X113347D02*
D03*
X111378D02*
D03*
X109409D02*
D03*
X107441D02*
D03*
X105472D02*
D03*
X103504D02*
D03*
X101535D02*
D03*
D18*
X177520Y171221D02*
D03*
Y169252D02*
D03*
Y167283D02*
D03*
Y165315D02*
D03*
Y163347D02*
D03*
Y161378D02*
D03*
Y159409D02*
D03*
Y157441D02*
D03*
Y155472D02*
D03*
Y153504D02*
D03*
Y151535D02*
D03*
Y149567D02*
D03*
Y147598D02*
D03*
Y145630D02*
D03*
Y143661D02*
D03*
Y141693D02*
D03*
Y139724D02*
D03*
Y137756D02*
D03*
Y135787D02*
D03*
Y133819D02*
D03*
Y131850D02*
D03*
Y129882D02*
D03*
Y127913D02*
D03*
Y125945D02*
D03*
Y123976D02*
D03*
Y122008D02*
D03*
Y120039D02*
D03*
Y118071D02*
D03*
Y116102D02*
D03*
Y114134D02*
D03*
Y112165D02*
D03*
Y110197D02*
D03*
Y108228D02*
D03*
Y106260D02*
D03*
Y104291D02*
D03*
Y102323D02*
D03*
X94449D02*
D03*
Y104291D02*
D03*
Y106260D02*
D03*
Y108228D02*
D03*
Y110197D02*
D03*
Y112165D02*
D03*
Y114134D02*
D03*
Y116102D02*
D03*
Y118071D02*
D03*
Y120039D02*
D03*
Y122008D02*
D03*
Y123976D02*
D03*
Y125945D02*
D03*
Y127913D02*
D03*
Y129882D02*
D03*
Y131850D02*
D03*
Y133819D02*
D03*
Y135787D02*
D03*
Y137756D02*
D03*
Y139724D02*
D03*
Y141693D02*
D03*
Y143661D02*
D03*
Y145630D02*
D03*
Y147598D02*
D03*
Y149567D02*
D03*
Y151535D02*
D03*
Y153504D02*
D03*
Y155472D02*
D03*
Y157441D02*
D03*
Y159409D02*
D03*
Y161378D02*
D03*
Y163347D02*
D03*
Y165315D02*
D03*
Y167283D02*
D03*
Y169252D02*
D03*
Y171221D02*
D03*
D19*
X207831Y135772D02*
D03*
X201138D02*
D03*
X207831Y141772D02*
D03*
X201138D02*
D03*
X208638Y209272D02*
D03*
X215331D02*
D03*
X68138Y138772D02*
D03*
X74831D02*
D03*
X68138Y144772D02*
D03*
X74831D02*
D03*
X48051Y44272D02*
D03*
X54744D02*
D03*
X48051Y49272D02*
D03*
X54744D02*
D03*
X48051Y54272D02*
D03*
X54744D02*
D03*
X48051Y59272D02*
D03*
X54744D02*
D03*
X48051Y64272D02*
D03*
X54744D02*
D03*
X48051Y69272D02*
D03*
X54744D02*
D03*
X48051Y74272D02*
D03*
X54744D02*
D03*
X48051Y79272D02*
D03*
X54744D02*
D03*
D20*
X202984Y198425D02*
D03*
Y205118D02*
D03*
X183484Y82618D02*
D03*
Y75925D02*
D03*
X175984Y82618D02*
D03*
Y75925D02*
D03*
D21*
X255138Y280772D02*
D03*
X261831D02*
D03*
X253638Y300772D02*
D03*
X260331D02*
D03*
X35551Y44272D02*
D03*
X42244D02*
D03*
X35551Y49272D02*
D03*
X42244D02*
D03*
X35551Y54272D02*
D03*
X42244D02*
D03*
X35551Y59272D02*
D03*
X42244D02*
D03*
X35551Y64272D02*
D03*
X42244D02*
D03*
X35551Y69272D02*
D03*
X42244D02*
D03*
X35551Y74272D02*
D03*
X42244D02*
D03*
X35551Y79272D02*
D03*
X42244D02*
D03*
D22*
X34252Y219272D02*
D03*
X67716D02*
D03*
X34252Y204272D02*
D03*
X67716D02*
D03*
X5768Y7500D02*
D03*
X39232D02*
D03*
X5768Y22500D02*
D03*
X39232D02*
D03*
D23*
X61484Y135772D02*
D03*
D43*
X23678Y239465D02*
X26178D01*
X20984Y236772D02*
X23678Y239465D01*
X20984Y216772D02*
Y236772D01*
X223484Y34272D02*
X225984Y36772D01*
X235984Y46772D02*
X237984Y48772D01*
X225984Y36772D02*
X235984Y46772D01*
D44*
X123484Y116272D02*
Y134772D01*
X116484Y144272D02*
X153984D01*
X63413Y144245D02*
X67611D01*
X68138Y144772D01*
X60502Y141440D02*
X60609D01*
X63413Y144245D01*
X62984Y203772D02*
X66216D01*
X66716Y203272D01*
X67716Y204272D01*
X62984Y219772D02*
X67216D01*
X67716Y219272D01*
X29984Y204272D02*
X34252D01*
X41299Y9429D02*
X43799D01*
X41299Y23150D02*
X43799D01*
X215484Y215272D02*
X231889D01*
X209484D02*
X215484D01*
X238409Y224696D02*
X238484Y224772D01*
X238409Y221792D02*
Y224696D01*
X231889Y215272D02*
X238409Y221792D01*
X207831Y141772D02*
X211984D01*
X64834Y138096D02*
X67462D01*
X63510Y136772D02*
X64834Y138096D01*
X67462D02*
X68138Y138772D01*
X63484Y136772D02*
X63510D01*
X151984Y110272D02*
Y133772D01*
X10984Y216772D02*
X15984Y211772D01*
X25984D01*
X10984Y136772D02*
X15984Y131772D01*
X26984D01*
X10984Y136772D02*
X15984Y141772D01*
X27984D01*
X145984Y158772D02*
X160484D01*
X121484Y171772D02*
X125409Y167847D01*
X127909D01*
X127984Y167772D01*
X123484Y116272D02*
X136984D01*
D45*
X266083Y270551D02*
D03*
Y242992D02*
D03*
D46*
X255354Y266614D02*
D03*
Y246929D02*
D03*
D47*
X250984Y96772D02*
D03*
X260984D02*
D03*
X250984Y136772D02*
D03*
X260984D02*
D03*
X250984Y126772D02*
D03*
X260984D02*
D03*
X250984Y156772D02*
D03*
X260984D02*
D03*
X250984Y166772D02*
D03*
X260984D02*
D03*
Y216772D02*
D03*
X250984Y206772D02*
D03*
X260984D02*
D03*
X250984Y196772D02*
D03*
X260984D02*
D03*
X250984Y186772D02*
D03*
X260984D02*
D03*
X250984Y176772D02*
D03*
X260984D02*
D03*
X250984Y146772D02*
D03*
X260984D02*
D03*
X250984Y116772D02*
D03*
X260984D02*
D03*
X250984Y106772D02*
D03*
X260984D02*
D03*
X250984Y76772D02*
D03*
X260984D02*
D03*
X250984Y86772D02*
D03*
X260984D02*
D03*
X250984Y56772D02*
D03*
X260984D02*
D03*
X250984Y66772D02*
D03*
X260984D02*
D03*
X205984Y261772D02*
D03*
Y251772D02*
D03*
X215984Y261772D02*
D03*
Y251772D02*
D03*
X185984Y261772D02*
D03*
Y251772D02*
D03*
X195984Y261772D02*
D03*
Y251772D02*
D03*
X165984Y261772D02*
D03*
Y251772D02*
D03*
X155984Y261772D02*
D03*
Y251772D02*
D03*
X125984Y261772D02*
D03*
Y251772D02*
D03*
X95984Y261772D02*
D03*
Y251772D02*
D03*
X85984Y261772D02*
D03*
Y251772D02*
D03*
X75984Y261772D02*
D03*
Y251772D02*
D03*
X65984Y261772D02*
D03*
Y251772D02*
D03*
X55984Y261772D02*
D03*
X105984D02*
D03*
Y251772D02*
D03*
X115984Y261772D02*
D03*
Y251772D02*
D03*
X145984Y261772D02*
D03*
Y251772D02*
D03*
X135984Y261772D02*
D03*
Y251772D02*
D03*
X175984Y261772D02*
D03*
Y251772D02*
D03*
X20984Y176772D02*
D03*
X10984D02*
D03*
X20984Y136772D02*
D03*
X10984D02*
D03*
X20984Y146772D02*
D03*
X10984D02*
D03*
X20984Y116772D02*
D03*
X10984D02*
D03*
X20984Y106772D02*
D03*
X10984D02*
D03*
Y56772D02*
D03*
X20984Y66772D02*
D03*
X10984D02*
D03*
X20984Y76772D02*
D03*
X10984D02*
D03*
X20984Y86772D02*
D03*
X10984D02*
D03*
X20984Y96772D02*
D03*
X10984D02*
D03*
X20984Y126772D02*
D03*
X10984D02*
D03*
X20984Y156772D02*
D03*
X10984D02*
D03*
X20984Y166772D02*
D03*
X10984D02*
D03*
X20984Y196772D02*
D03*
X10984D02*
D03*
X20984Y186772D02*
D03*
X10984D02*
D03*
X20984Y216772D02*
D03*
X10984D02*
D03*
X20984Y206772D02*
D03*
X10984D02*
D03*
X95984Y21772D02*
D03*
Y11772D02*
D03*
X135984Y21772D02*
D03*
Y11772D02*
D03*
X125984Y21772D02*
D03*
Y11772D02*
D03*
X155984Y21772D02*
D03*
Y11772D02*
D03*
X165984Y21772D02*
D03*
Y11772D02*
D03*
X215984D02*
D03*
X205984Y21772D02*
D03*
Y11772D02*
D03*
X195984Y21772D02*
D03*
Y11772D02*
D03*
X185984Y21772D02*
D03*
Y11772D02*
D03*
X175984Y21772D02*
D03*
Y11772D02*
D03*
X145984Y21772D02*
D03*
Y11772D02*
D03*
X115984Y21772D02*
D03*
Y11772D02*
D03*
X105984Y21772D02*
D03*
Y11772D02*
D03*
X75984Y21772D02*
D03*
Y11772D02*
D03*
X85984Y21772D02*
D03*
Y11772D02*
D03*
X55984Y21772D02*
D03*
Y11772D02*
D03*
X65984Y21772D02*
D03*
Y11772D02*
D03*
D48*
X250984Y216772D02*
D03*
X20984Y56772D02*
D03*
D49*
X55984Y314272D02*
D03*
X65984D02*
D03*
Y304272D02*
D03*
X75984Y314272D02*
D03*
Y304272D02*
D03*
X85984Y314272D02*
D03*
Y304272D02*
D03*
X95984Y314272D02*
D03*
Y304272D02*
D03*
X185984D02*
D03*
X195984D02*
D03*
D50*
X55984D02*
D03*
D51*
X175984Y314272D02*
D03*
X185984D02*
D03*
X195984D02*
D03*
X205984D02*
D03*
Y304272D02*
D03*
X215984Y314272D02*
D03*
Y304272D02*
D03*
D52*
X175984D02*
D03*
D53*
X55984Y251772D02*
D03*
X215984Y21772D02*
D03*
D54*
X218484Y76772D02*
D03*
Y57772D02*
D03*
X195984Y76772D02*
D03*
Y57772D02*
D03*
D55*
X255984Y16772D02*
D03*
Y316772D02*
D03*
X15984D02*
D03*
D56*
X175000Y285000D02*
D03*
D57*
X247500Y250500D02*
D03*
X243856D02*
D03*
X260984Y251504D02*
D03*
X264996D02*
D03*
X217000Y222000D02*
D03*
X222500Y220500D02*
D03*
X112689Y69500D02*
D03*
X85000Y125500D02*
D03*
X80500Y133500D02*
D03*
X81500Y148000D02*
D03*
X82500Y151500D02*
D03*
X186000Y144500D02*
D03*
X117984Y171772D02*
D03*
X80984Y84272D02*
D03*
X78484Y194272D02*
D03*
X83484Y189272D02*
D03*
X193484Y194272D02*
D03*
X188484Y189272D02*
D03*
X20984Y236772D02*
D03*
X60984Y266772D02*
D03*
X50984D02*
D03*
X70984D02*
D03*
X80984D02*
D03*
X90984D02*
D03*
X110984D02*
D03*
X120984D02*
D03*
X130984D02*
D03*
X140984D02*
D03*
X151256Y266229D02*
D03*
X161407Y266666D02*
D03*
X170984Y266772D02*
D03*
X180984D02*
D03*
X190984D02*
D03*
X200984D02*
D03*
X211505Y266666D02*
D03*
X5984Y61772D02*
D03*
Y51772D02*
D03*
Y71772D02*
D03*
Y81772D02*
D03*
Y91772D02*
D03*
Y101772D02*
D03*
Y111772D02*
D03*
Y121772D02*
D03*
Y131772D02*
D03*
Y141772D02*
D03*
X6527Y152043D02*
D03*
X6090Y162194D02*
D03*
X5984Y171772D02*
D03*
Y181772D02*
D03*
Y191772D02*
D03*
Y201772D02*
D03*
X6090Y212292D02*
D03*
X5981Y222552D02*
D03*
X265984Y211772D02*
D03*
Y221772D02*
D03*
Y201772D02*
D03*
Y191772D02*
D03*
Y181772D02*
D03*
Y171772D02*
D03*
Y161772D02*
D03*
Y151772D02*
D03*
Y141772D02*
D03*
Y131772D02*
D03*
X265441Y121500D02*
D03*
X265878Y111349D02*
D03*
X265984Y101772D02*
D03*
Y91772D02*
D03*
Y81772D02*
D03*
Y71772D02*
D03*
X265878Y61251D02*
D03*
X265987Y50991D02*
D03*
X50204Y6769D02*
D03*
X60464Y6878D02*
D03*
X70984Y6772D02*
D03*
X80984D02*
D03*
X90984D02*
D03*
X100984D02*
D03*
X110562Y6878D02*
D03*
X120712Y7314D02*
D03*
X130984Y6772D02*
D03*
X140984D02*
D03*
X150984D02*
D03*
X160984D02*
D03*
X170984D02*
D03*
X180984D02*
D03*
X190984D02*
D03*
X200984D02*
D03*
X220984D02*
D03*
X210984D02*
D03*
X185984Y117272D02*
D03*
X123484Y134772D02*
D03*
X116484Y144272D02*
D03*
X128484Y139272D02*
D03*
X118484D02*
D03*
X237984Y48772D02*
D03*
X223484Y34272D02*
D03*
X157484Y130772D02*
D03*
X143484Y121508D02*
D03*
X118484D02*
D03*
X128484D02*
D03*
X250984Y280772D02*
D03*
X219748Y226143D02*
D03*
X60502Y141440D02*
D03*
X237953Y289272D02*
D03*
X234016D02*
D03*
X235984Y291240D02*
D03*
Y287303D02*
D03*
Y295177D02*
D03*
X241890Y289272D02*
D03*
X230079D02*
D03*
X235984Y283366D02*
D03*
X62984Y203772D02*
D03*
Y219772D02*
D03*
X30484Y219272D02*
D03*
X29984Y204272D02*
D03*
X43799Y9429D02*
D03*
Y23150D02*
D03*
X43484Y224272D02*
D03*
X48484D02*
D03*
X53484D02*
D03*
X55984Y226772D02*
D03*
X50984D02*
D03*
X45984D02*
D03*
X40984D02*
D03*
X234484Y252772D02*
D03*
X243484Y275772D02*
D03*
X234646Y255772D02*
D03*
X235984Y46772D02*
D03*
X225984Y36772D02*
D03*
X208984Y275772D02*
D03*
X246484Y261772D02*
D03*
X238484Y224772D02*
D03*
X214484Y226272D02*
D03*
X209484Y215272D02*
D03*
X26178Y239465D02*
D03*
X121984Y79272D02*
D03*
X119484Y74272D02*
D03*
X103484Y64272D02*
D03*
X92984Y59272D02*
D03*
X80484Y54272D02*
D03*
X204500Y128500D02*
D03*
X218484Y140272D02*
D03*
X216734Y132772D02*
D03*
X186484Y137272D02*
D03*
X211984Y141772D02*
D03*
X83484Y144272D02*
D03*
X15984Y23772D02*
D03*
Y10272D02*
D03*
X151984Y110272D02*
D03*
Y133772D02*
D03*
X58484Y59272D02*
D03*
X58760Y49449D02*
D03*
Y54272D02*
D03*
X70984Y49272D02*
D03*
X65984Y44272D02*
D03*
X58484D02*
D03*
X38484Y34272D02*
D03*
X20984D02*
D03*
X58760Y64272D02*
D03*
Y69272D02*
D03*
Y74272D02*
D03*
Y79272D02*
D03*
X100492Y274825D02*
D03*
X77484Y276772D02*
D03*
X43984Y294272D02*
D03*
X44484Y312772D02*
D03*
X76484Y281772D02*
D03*
X248984Y275272D02*
D03*
X265484Y280772D02*
D03*
X264984Y300772D02*
D03*
X249408Y300848D02*
D03*
X169984Y119272D02*
D03*
X195984Y129272D02*
D03*
X170984Y129772D02*
D03*
X170116Y115272D02*
D03*
X88484Y184272D02*
D03*
X85984Y89272D02*
D03*
X183484D02*
D03*
X168484Y104272D02*
D03*
X93484Y94272D02*
D03*
X155484Y88772D02*
D03*
X186484Y158772D02*
D03*
X155984Y185272D02*
D03*
X135984D02*
D03*
X116984D02*
D03*
X85857Y114772D02*
D03*
X116984Y88272D02*
D03*
X264984Y286772D02*
D03*
Y293772D02*
D03*
X249984Y261772D02*
D03*
X247484Y258272D02*
D03*
X248984Y306772D02*
D03*
X247484Y254772D02*
D03*
X186484Y133772D02*
D03*
X190984Y133272D02*
D03*
X76676Y126080D02*
D03*
X85984Y281772D02*
D03*
X263984Y261772D02*
D03*
X260484D02*
D03*
X110984Y164772D02*
D03*
X103484Y169272D02*
D03*
X210984Y44272D02*
D03*
X93484Y179272D02*
D03*
X115984Y151772D02*
D03*
X183484Y184272D02*
D03*
X175984Y91772D02*
D03*
X175000Y97500D02*
D03*
X148484Y111772D02*
D03*
X103484Y104272D02*
D03*
X118484Y111772D02*
D03*
X168484Y151772D02*
D03*
X160984D02*
D03*
X148484D02*
D03*
X135984D02*
D03*
X148484Y164272D02*
D03*
X120984D02*
D03*
X178484Y179272D02*
D03*
X168484Y169272D02*
D03*
X160484Y158772D02*
D03*
X127984Y167772D02*
D03*
X136984Y116272D02*
D03*
X123484D02*
D03*
X145984Y158772D02*
D03*
X113484Y101772D02*
D03*
X100984Y116272D02*
D03*
X157484Y171772D02*
D03*
X160984D02*
D03*
X153984D02*
D03*
Y144272D02*
D03*
X150484Y171772D02*
D03*
X114484Y171708D02*
D03*
X137984Y171772D02*
D03*
X121484D02*
D03*
X100984Y158772D02*
D03*
Y144272D02*
D03*
Y140272D02*
D03*
Y129772D02*
D03*
Y112772D02*
D03*
Y126272D02*
D03*
Y136772D02*
D03*
X170984Y143772D02*
D03*
X110984Y171772D02*
D03*
X120984Y101772D02*
D03*
X133984D02*
D03*
X138484D02*
D03*
X153984D02*
D03*
X150484D02*
D03*
X170984Y161272D02*
D03*
X134484Y171772D02*
D03*
X170984Y157272D02*
D03*
Y137772D02*
D03*
X160984Y101772D02*
D03*
X117484D02*
D03*
X100984Y154772D02*
D03*
M02*
