G04*
G04 #@! TF.GenerationSoftware,Altium Limited,Altium Designer,20.0.11 (256)*
G04*
G04 Layer_Color=8388736*
%FSLAX25Y25*%
%MOIN*%
G70*
G01*
G75*
%ADD24R,0.06115X0.02375*%
%ADD25O,0.01981X0.07887*%
%ADD26O,0.07887X0.01981*%
%ADD27R,0.04343X0.04737*%
G04:AMPARAMS|DCode=28|XSize=39.5mil|YSize=39.5mil|CornerRadius=7.94mil|HoleSize=0mil|Usage=FLASHONLY|Rotation=270.000|XOffset=0mil|YOffset=0mil|HoleType=Round|Shape=RoundedRectangle|*
%AMROUNDEDRECTD28*
21,1,0.03950,0.02362,0,0,270.0*
21,1,0.02362,0.03950,0,0,270.0*
1,1,0.01587,-0.01181,-0.01181*
1,1,0.01587,-0.01181,0.01181*
1,1,0.01587,0.01181,0.01181*
1,1,0.01587,0.01181,-0.01181*
%
%ADD28ROUNDEDRECTD28*%
G04:AMPARAMS|DCode=29|XSize=39.5mil|YSize=39.5mil|CornerRadius=7.94mil|HoleSize=0mil|Usage=FLASHONLY|Rotation=180.000|XOffset=0mil|YOffset=0mil|HoleType=Round|Shape=RoundedRectangle|*
%AMROUNDEDRECTD29*
21,1,0.03950,0.02362,0,0,180.0*
21,1,0.02362,0.03950,0,0,180.0*
1,1,0.01587,-0.01181,0.01181*
1,1,0.01587,0.01181,0.01181*
1,1,0.01587,0.01181,-0.01181*
1,1,0.01587,-0.01181,-0.01181*
%
%ADD29ROUNDEDRECTD29*%
G04:AMPARAMS|DCode=30|XSize=86.74mil|YSize=67.06mil|CornerRadius=18.76mil|HoleSize=0mil|Usage=FLASHONLY|Rotation=0.000|XOffset=0mil|YOffset=0mil|HoleType=Round|Shape=RoundedRectangle|*
%AMROUNDEDRECTD30*
21,1,0.08674,0.02953,0,0,0.0*
21,1,0.04921,0.06706,0,0,0.0*
1,1,0.03753,0.02461,-0.01476*
1,1,0.03753,-0.02461,-0.01476*
1,1,0.03753,-0.02461,0.01476*
1,1,0.03753,0.02461,0.01476*
%
%ADD30ROUNDEDRECTD30*%
G04:AMPARAMS|DCode=31|XSize=47.37mil|YSize=67.06mil|CornerRadius=13.84mil|HoleSize=0mil|Usage=FLASHONLY|Rotation=90.000|XOffset=0mil|YOffset=0mil|HoleType=Round|Shape=RoundedRectangle|*
%AMROUNDEDRECTD31*
21,1,0.04737,0.03937,0,0,90.0*
21,1,0.01968,0.06706,0,0,90.0*
1,1,0.02769,0.01968,0.00984*
1,1,0.02769,0.01968,-0.00984*
1,1,0.02769,-0.01968,-0.00984*
1,1,0.02769,-0.01968,0.00984*
%
%ADD31ROUNDEDRECTD31*%
G04:AMPARAMS|DCode=32|XSize=74.93mil|YSize=63.12mil|CornerRadius=17.78mil|HoleSize=0mil|Usage=FLASHONLY|Rotation=180.000|XOffset=0mil|YOffset=0mil|HoleType=Round|Shape=RoundedRectangle|*
%AMROUNDEDRECTD32*
21,1,0.07493,0.02756,0,0,180.0*
21,1,0.03937,0.06312,0,0,180.0*
1,1,0.03556,-0.01968,0.01378*
1,1,0.03556,0.01968,0.01378*
1,1,0.03556,0.01968,-0.01378*
1,1,0.03556,-0.01968,-0.01378*
%
%ADD32ROUNDEDRECTD32*%
G04:AMPARAMS|DCode=33|XSize=68mil|YSize=57.21mil|CornerRadius=16.3mil|HoleSize=0mil|Usage=FLASHONLY|Rotation=90.000|XOffset=0mil|YOffset=0mil|HoleType=Round|Shape=RoundedRectangle|*
%AMROUNDEDRECTD33*
21,1,0.06800,0.02461,0,0,90.0*
21,1,0.03539,0.05721,0,0,90.0*
1,1,0.03261,0.01230,0.01770*
1,1,0.03261,0.01230,-0.01770*
1,1,0.03261,-0.01230,-0.01770*
1,1,0.03261,-0.01230,0.01770*
%
%ADD33ROUNDEDRECTD33*%
%ADD34C,0.07296*%
%ADD35R,0.07296X0.07296*%
%ADD36O,0.06706X0.08674*%
G04:AMPARAMS|DCode=37|XSize=67.06mil|YSize=86.74mil|CornerRadius=18.76mil|HoleSize=0mil|Usage=FLASHONLY|Rotation=0.000|XOffset=0mil|YOffset=0mil|HoleType=Round|Shape=RoundedRectangle|*
%AMROUNDEDRECTD37*
21,1,0.06706,0.04921,0,0,0.0*
21,1,0.02953,0.08674,0,0,0.0*
1,1,0.03753,0.01476,-0.02461*
1,1,0.03753,-0.01476,-0.02461*
1,1,0.03753,-0.01476,0.02461*
1,1,0.03753,0.01476,0.02461*
%
%ADD37ROUNDEDRECTD37*%
%ADD38C,0.08674*%
G04:AMPARAMS|DCode=39|XSize=86.74mil|YSize=86.74mil|CornerRadius=23.68mil|HoleSize=0mil|Usage=FLASHONLY|Rotation=0.000|XOffset=0mil|YOffset=0mil|HoleType=Round|Shape=RoundedRectangle|*
%AMROUNDEDRECTD39*
21,1,0.08674,0.03937,0,0,0.0*
21,1,0.03937,0.08674,0,0,0.0*
1,1,0.04737,0.01968,-0.01968*
1,1,0.04737,-0.01968,-0.01968*
1,1,0.04737,-0.01968,0.01968*
1,1,0.04737,0.01968,0.01968*
%
%ADD39ROUNDEDRECTD39*%
%ADD40R,0.07296X0.07296*%
%ADD41C,0.06800*%
%ADD42C,0.12611*%
D24*
X255354Y256772D02*
D03*
Y259331D02*
D03*
Y261890D02*
D03*
Y254213D02*
D03*
Y251654D02*
D03*
D25*
X101535Y178307D02*
D03*
X103504D02*
D03*
X105472D02*
D03*
X107441D02*
D03*
X109409D02*
D03*
X111378D02*
D03*
X113347D02*
D03*
X115315D02*
D03*
X117283D02*
D03*
X119252D02*
D03*
X121221D02*
D03*
X123189D02*
D03*
X125157D02*
D03*
X127126D02*
D03*
X129095D02*
D03*
X131063D02*
D03*
X133031D02*
D03*
X135000D02*
D03*
X136969D02*
D03*
X138937D02*
D03*
X140905D02*
D03*
X142874D02*
D03*
X144843D02*
D03*
X146811D02*
D03*
X148779D02*
D03*
X150748D02*
D03*
X152717D02*
D03*
X154685D02*
D03*
X156653D02*
D03*
X158622D02*
D03*
X160591D02*
D03*
X162559D02*
D03*
X164528D02*
D03*
X166496D02*
D03*
X168465D02*
D03*
X170433D02*
D03*
Y95236D02*
D03*
X168465D02*
D03*
X166496D02*
D03*
X164528D02*
D03*
X162559D02*
D03*
X160591D02*
D03*
X158622D02*
D03*
X156653D02*
D03*
X154685D02*
D03*
X152717D02*
D03*
X150748D02*
D03*
X148779D02*
D03*
X146811D02*
D03*
X144843D02*
D03*
X142874D02*
D03*
X140905D02*
D03*
X138937D02*
D03*
X136969D02*
D03*
X135000D02*
D03*
X133031D02*
D03*
X131063D02*
D03*
X129095D02*
D03*
X127126D02*
D03*
X125157D02*
D03*
X123189D02*
D03*
X121221D02*
D03*
X119252D02*
D03*
X117283D02*
D03*
X115315D02*
D03*
X113347D02*
D03*
X111378D02*
D03*
X109409D02*
D03*
X107441D02*
D03*
X105472D02*
D03*
X103504D02*
D03*
X101535D02*
D03*
D26*
X177520Y171221D02*
D03*
Y169252D02*
D03*
Y167283D02*
D03*
Y165315D02*
D03*
Y163347D02*
D03*
Y161378D02*
D03*
Y159409D02*
D03*
Y157441D02*
D03*
Y155472D02*
D03*
Y153504D02*
D03*
Y151535D02*
D03*
Y149567D02*
D03*
Y147598D02*
D03*
Y145630D02*
D03*
Y143661D02*
D03*
Y141693D02*
D03*
Y139724D02*
D03*
Y137756D02*
D03*
Y135787D02*
D03*
Y133819D02*
D03*
Y131850D02*
D03*
Y129882D02*
D03*
Y127913D02*
D03*
Y125945D02*
D03*
Y123976D02*
D03*
Y122008D02*
D03*
Y120039D02*
D03*
Y118071D02*
D03*
Y116102D02*
D03*
Y114134D02*
D03*
Y112165D02*
D03*
Y110197D02*
D03*
Y108228D02*
D03*
Y106260D02*
D03*
Y104291D02*
D03*
Y102323D02*
D03*
X94449D02*
D03*
Y104291D02*
D03*
Y106260D02*
D03*
Y108228D02*
D03*
Y110197D02*
D03*
Y112165D02*
D03*
Y114134D02*
D03*
Y116102D02*
D03*
Y118071D02*
D03*
Y120039D02*
D03*
Y122008D02*
D03*
Y123976D02*
D03*
Y125945D02*
D03*
Y127913D02*
D03*
Y129882D02*
D03*
Y131850D02*
D03*
Y133819D02*
D03*
Y135787D02*
D03*
Y137756D02*
D03*
Y139724D02*
D03*
Y141693D02*
D03*
Y143661D02*
D03*
Y145630D02*
D03*
Y147598D02*
D03*
Y149567D02*
D03*
Y151535D02*
D03*
Y153504D02*
D03*
Y155472D02*
D03*
Y157441D02*
D03*
Y159409D02*
D03*
Y161378D02*
D03*
Y163347D02*
D03*
Y165315D02*
D03*
Y167283D02*
D03*
Y169252D02*
D03*
Y171221D02*
D03*
D27*
X207831Y135772D02*
D03*
X201138D02*
D03*
X207831Y141772D02*
D03*
X201138D02*
D03*
X208638Y209272D02*
D03*
X215331D02*
D03*
X68138Y138772D02*
D03*
X74831D02*
D03*
X68138Y144772D02*
D03*
X74831D02*
D03*
X48051Y44272D02*
D03*
X54744D02*
D03*
X48051Y49272D02*
D03*
X54744D02*
D03*
X48051Y54272D02*
D03*
X54744D02*
D03*
X48051Y59272D02*
D03*
X54744D02*
D03*
X48051Y64272D02*
D03*
X54744D02*
D03*
X48051Y69272D02*
D03*
X54744D02*
D03*
X48051Y74272D02*
D03*
X54744D02*
D03*
X48051Y79272D02*
D03*
X54744D02*
D03*
D28*
X202984Y198425D02*
D03*
Y205118D02*
D03*
X183484Y82618D02*
D03*
Y75925D02*
D03*
X175984Y82618D02*
D03*
Y75925D02*
D03*
D29*
X255138Y280772D02*
D03*
X261831D02*
D03*
X253638Y300772D02*
D03*
X260331D02*
D03*
X35551Y44272D02*
D03*
X42244D02*
D03*
X35551Y49272D02*
D03*
X42244D02*
D03*
X35551Y54272D02*
D03*
X42244D02*
D03*
X35551Y59272D02*
D03*
X42244D02*
D03*
X35551Y64272D02*
D03*
X42244D02*
D03*
X35551Y69272D02*
D03*
X42244D02*
D03*
X35551Y74272D02*
D03*
X42244D02*
D03*
X35551Y79272D02*
D03*
X42244D02*
D03*
D30*
X34252Y219272D02*
D03*
X67716D02*
D03*
X34252Y204272D02*
D03*
X67716D02*
D03*
X5768Y7500D02*
D03*
X39232D02*
D03*
X5768Y22500D02*
D03*
X39232D02*
D03*
D31*
X61484Y135772D02*
D03*
D32*
X266083Y270551D02*
D03*
Y242992D02*
D03*
D33*
X255354Y266614D02*
D03*
Y246929D02*
D03*
D34*
X250984Y96772D02*
D03*
X260984D02*
D03*
X250984Y136772D02*
D03*
X260984D02*
D03*
X250984Y126772D02*
D03*
X260984D02*
D03*
X250984Y156772D02*
D03*
X260984D02*
D03*
X250984Y166772D02*
D03*
X260984D02*
D03*
Y216772D02*
D03*
X250984Y206772D02*
D03*
X260984D02*
D03*
X250984Y196772D02*
D03*
X260984D02*
D03*
X250984Y186772D02*
D03*
X260984D02*
D03*
X250984Y176772D02*
D03*
X260984D02*
D03*
X250984Y146772D02*
D03*
X260984D02*
D03*
X250984Y116772D02*
D03*
X260984D02*
D03*
X250984Y106772D02*
D03*
X260984D02*
D03*
X250984Y76772D02*
D03*
X260984D02*
D03*
X250984Y86772D02*
D03*
X260984D02*
D03*
X250984Y56772D02*
D03*
X260984D02*
D03*
X250984Y66772D02*
D03*
X260984D02*
D03*
X205984Y261772D02*
D03*
Y251772D02*
D03*
X215984Y261772D02*
D03*
Y251772D02*
D03*
X185984Y261772D02*
D03*
Y251772D02*
D03*
X195984Y261772D02*
D03*
Y251772D02*
D03*
X165984Y261772D02*
D03*
Y251772D02*
D03*
X155984Y261772D02*
D03*
Y251772D02*
D03*
X125984Y261772D02*
D03*
Y251772D02*
D03*
X95984Y261772D02*
D03*
Y251772D02*
D03*
X85984Y261772D02*
D03*
Y251772D02*
D03*
X75984Y261772D02*
D03*
Y251772D02*
D03*
X65984Y261772D02*
D03*
Y251772D02*
D03*
X55984Y261772D02*
D03*
X105984D02*
D03*
Y251772D02*
D03*
X115984Y261772D02*
D03*
Y251772D02*
D03*
X145984Y261772D02*
D03*
Y251772D02*
D03*
X135984Y261772D02*
D03*
Y251772D02*
D03*
X175984Y261772D02*
D03*
Y251772D02*
D03*
X20984Y176772D02*
D03*
X10984D02*
D03*
X20984Y136772D02*
D03*
X10984D02*
D03*
X20984Y146772D02*
D03*
X10984D02*
D03*
X20984Y116772D02*
D03*
X10984D02*
D03*
X20984Y106772D02*
D03*
X10984D02*
D03*
Y56772D02*
D03*
X20984Y66772D02*
D03*
X10984D02*
D03*
X20984Y76772D02*
D03*
X10984D02*
D03*
X20984Y86772D02*
D03*
X10984D02*
D03*
X20984Y96772D02*
D03*
X10984D02*
D03*
X20984Y126772D02*
D03*
X10984D02*
D03*
X20984Y156772D02*
D03*
X10984D02*
D03*
X20984Y166772D02*
D03*
X10984D02*
D03*
X20984Y196772D02*
D03*
X10984D02*
D03*
X20984Y186772D02*
D03*
X10984D02*
D03*
X20984Y216772D02*
D03*
X10984D02*
D03*
X20984Y206772D02*
D03*
X10984D02*
D03*
X95984Y21772D02*
D03*
Y11772D02*
D03*
X135984Y21772D02*
D03*
Y11772D02*
D03*
X125984Y21772D02*
D03*
Y11772D02*
D03*
X155984Y21772D02*
D03*
Y11772D02*
D03*
X165984Y21772D02*
D03*
Y11772D02*
D03*
X215984D02*
D03*
X205984Y21772D02*
D03*
Y11772D02*
D03*
X195984Y21772D02*
D03*
Y11772D02*
D03*
X185984Y21772D02*
D03*
Y11772D02*
D03*
X175984Y21772D02*
D03*
Y11772D02*
D03*
X145984Y21772D02*
D03*
Y11772D02*
D03*
X115984Y21772D02*
D03*
Y11772D02*
D03*
X105984Y21772D02*
D03*
Y11772D02*
D03*
X75984Y21772D02*
D03*
Y11772D02*
D03*
X85984Y21772D02*
D03*
Y11772D02*
D03*
X55984Y21772D02*
D03*
Y11772D02*
D03*
X65984Y21772D02*
D03*
Y11772D02*
D03*
D35*
X250984Y216772D02*
D03*
X20984Y56772D02*
D03*
D36*
X55984Y314272D02*
D03*
X65984D02*
D03*
Y304272D02*
D03*
X75984Y314272D02*
D03*
Y304272D02*
D03*
X85984Y314272D02*
D03*
Y304272D02*
D03*
X95984Y314272D02*
D03*
Y304272D02*
D03*
X185984D02*
D03*
X195984D02*
D03*
D37*
X55984D02*
D03*
D38*
X175984Y314272D02*
D03*
X185984D02*
D03*
X195984D02*
D03*
X205984D02*
D03*
Y304272D02*
D03*
X215984Y314272D02*
D03*
Y304272D02*
D03*
D39*
X175984D02*
D03*
D40*
X55984Y251772D02*
D03*
X215984Y21772D02*
D03*
D41*
X218484Y76772D02*
D03*
Y57772D02*
D03*
X195984Y76772D02*
D03*
Y57772D02*
D03*
D42*
X255984Y16772D02*
D03*
Y316772D02*
D03*
X15984D02*
D03*
M02*
