G04*
G04 #@! TF.GenerationSoftware,Altium Limited,Altium Designer,20.0.11 (256)*
G04*
G04 Layer_Color=16711935*
%FSLAX25Y25*%
%MOIN*%
G70*
G01*
G75*
%ADD27R,0.04343X0.04737*%
G04:AMPARAMS|DCode=32|XSize=74.93mil|YSize=63.12mil|CornerRadius=17.78mil|HoleSize=0mil|Usage=FLASHONLY|Rotation=180.000|XOffset=0mil|YOffset=0mil|HoleType=Round|Shape=RoundedRectangle|*
%AMROUNDEDRECTD32*
21,1,0.07493,0.02756,0,0,180.0*
21,1,0.03937,0.06312,0,0,180.0*
1,1,0.03556,-0.01968,0.01378*
1,1,0.03556,0.01968,0.01378*
1,1,0.03556,0.01968,-0.01378*
1,1,0.03556,-0.01968,-0.01378*
%
%ADD32ROUNDEDRECTD32*%
G04:AMPARAMS|DCode=33|XSize=68mil|YSize=57.21mil|CornerRadius=16.3mil|HoleSize=0mil|Usage=FLASHONLY|Rotation=90.000|XOffset=0mil|YOffset=0mil|HoleType=Round|Shape=RoundedRectangle|*
%AMROUNDEDRECTD33*
21,1,0.06800,0.02461,0,0,90.0*
21,1,0.03539,0.05721,0,0,90.0*
1,1,0.03261,0.01230,0.01770*
1,1,0.03261,0.01230,-0.01770*
1,1,0.03261,-0.01230,-0.01770*
1,1,0.03261,-0.01230,0.01770*
%
%ADD33ROUNDEDRECTD33*%
%ADD34C,0.07296*%
%ADD35R,0.07296X0.07296*%
%ADD36O,0.06706X0.08674*%
G04:AMPARAMS|DCode=37|XSize=67.06mil|YSize=86.74mil|CornerRadius=18.76mil|HoleSize=0mil|Usage=FLASHONLY|Rotation=0.000|XOffset=0mil|YOffset=0mil|HoleType=Round|Shape=RoundedRectangle|*
%AMROUNDEDRECTD37*
21,1,0.06706,0.04921,0,0,0.0*
21,1,0.02953,0.08674,0,0,0.0*
1,1,0.03753,0.01476,-0.02461*
1,1,0.03753,-0.01476,-0.02461*
1,1,0.03753,-0.01476,0.02461*
1,1,0.03753,0.01476,0.02461*
%
%ADD37ROUNDEDRECTD37*%
%ADD38C,0.08674*%
G04:AMPARAMS|DCode=39|XSize=86.74mil|YSize=86.74mil|CornerRadius=23.68mil|HoleSize=0mil|Usage=FLASHONLY|Rotation=0.000|XOffset=0mil|YOffset=0mil|HoleType=Round|Shape=RoundedRectangle|*
%AMROUNDEDRECTD39*
21,1,0.08674,0.03937,0,0,0.0*
21,1,0.03937,0.08674,0,0,0.0*
1,1,0.04737,0.01968,-0.01968*
1,1,0.04737,-0.01968,-0.01968*
1,1,0.04737,-0.01968,0.01968*
1,1,0.04737,0.01968,0.01968*
%
%ADD39ROUNDEDRECTD39*%
%ADD40R,0.07296X0.07296*%
%ADD41C,0.06800*%
%ADD42C,0.12611*%
%ADD75R,0.04737X0.04737*%
%ADD76R,0.02769X0.03162*%
%ADD77R,0.03162X0.02769*%
G04:AMPARAMS|DCode=78|XSize=86.74mil|YSize=78.87mil|CornerRadius=21.72mil|HoleSize=0mil|Usage=FLASHONLY|Rotation=270.000|XOffset=0mil|YOffset=0mil|HoleType=Round|Shape=RoundedRectangle|*
%AMROUNDEDRECTD78*
21,1,0.08674,0.03543,0,0,270.0*
21,1,0.04331,0.07887,0,0,270.0*
1,1,0.04343,-0.01772,-0.02165*
1,1,0.04343,-0.01772,0.02165*
1,1,0.04343,0.01772,0.02165*
1,1,0.04343,0.01772,-0.02165*
%
%ADD78ROUNDEDRECTD78*%
%ADD79R,0.07887X0.08674*%
%ADD80R,0.04737X0.04343*%
%ADD81R,0.06706X0.05918*%
%ADD82R,0.11430X0.04737*%
%ADD83R,0.11430X0.13792*%
%ADD84R,0.05918X0.06706*%
%ADD85C,0.04737*%
%ADD86R,0.07296X0.01981*%
%ADD87O,0.09461X0.03162*%
%ADD88R,0.14573X0.14573*%
%ADD89R,0.02762X0.01384*%
%ADD90R,0.01384X0.02762*%
%ADD91R,0.04737X0.04737*%
D27*
X167831Y130772D02*
D03*
X161138D02*
D03*
X26831Y11772D02*
D03*
X20138D02*
D03*
X26831Y24272D02*
D03*
X20138D02*
D03*
X182138Y99272D02*
D03*
X188831D02*
D03*
X189347Y113000D02*
D03*
X182653D02*
D03*
X227638Y304272D02*
D03*
X234331D02*
D03*
X253638Y306772D02*
D03*
X260331D02*
D03*
X260331Y294272D02*
D03*
X253638D02*
D03*
X260331Y287272D02*
D03*
X253638D02*
D03*
X253638Y275272D02*
D03*
X260331D02*
D03*
X213138Y282772D02*
D03*
X219831D02*
D03*
D32*
X266083Y270551D02*
D03*
Y242992D02*
D03*
D33*
X255354Y266614D02*
D03*
Y246929D02*
D03*
D34*
X250984Y96772D02*
D03*
X260984D02*
D03*
X250984Y136772D02*
D03*
X260984D02*
D03*
X250984Y126772D02*
D03*
X260984D02*
D03*
X250984Y156772D02*
D03*
X260984D02*
D03*
X250984Y166772D02*
D03*
X260984D02*
D03*
Y216772D02*
D03*
X250984Y206772D02*
D03*
X260984D02*
D03*
X250984Y196772D02*
D03*
X260984D02*
D03*
X250984Y186772D02*
D03*
X260984D02*
D03*
X250984Y176772D02*
D03*
X260984D02*
D03*
X250984Y146772D02*
D03*
X260984D02*
D03*
X250984Y116772D02*
D03*
X260984D02*
D03*
X250984Y106772D02*
D03*
X260984D02*
D03*
X250984Y76772D02*
D03*
X260984D02*
D03*
X250984Y86772D02*
D03*
X260984D02*
D03*
X250984Y56772D02*
D03*
X260984D02*
D03*
X250984Y66772D02*
D03*
X260984D02*
D03*
X205984Y261772D02*
D03*
Y251772D02*
D03*
X215984Y261772D02*
D03*
Y251772D02*
D03*
X185984Y261772D02*
D03*
Y251772D02*
D03*
X195984Y261772D02*
D03*
Y251772D02*
D03*
X165984Y261772D02*
D03*
Y251772D02*
D03*
X155984Y261772D02*
D03*
Y251772D02*
D03*
X125984Y261772D02*
D03*
Y251772D02*
D03*
X95984Y261772D02*
D03*
Y251772D02*
D03*
X85984Y261772D02*
D03*
Y251772D02*
D03*
X75984Y261772D02*
D03*
Y251772D02*
D03*
X65984Y261772D02*
D03*
Y251772D02*
D03*
X55984Y261772D02*
D03*
X105984D02*
D03*
Y251772D02*
D03*
X115984Y261772D02*
D03*
Y251772D02*
D03*
X145984Y261772D02*
D03*
Y251772D02*
D03*
X135984Y261772D02*
D03*
Y251772D02*
D03*
X175984Y261772D02*
D03*
Y251772D02*
D03*
X20984Y176772D02*
D03*
X10984D02*
D03*
X20984Y136772D02*
D03*
X10984D02*
D03*
X20984Y146772D02*
D03*
X10984D02*
D03*
X20984Y116772D02*
D03*
X10984D02*
D03*
X20984Y106772D02*
D03*
X10984D02*
D03*
Y56772D02*
D03*
X20984Y66772D02*
D03*
X10984D02*
D03*
X20984Y76772D02*
D03*
X10984D02*
D03*
X20984Y86772D02*
D03*
X10984D02*
D03*
X20984Y96772D02*
D03*
X10984D02*
D03*
X20984Y126772D02*
D03*
X10984D02*
D03*
X20984Y156772D02*
D03*
X10984D02*
D03*
X20984Y166772D02*
D03*
X10984D02*
D03*
X20984Y196772D02*
D03*
X10984D02*
D03*
X20984Y186772D02*
D03*
X10984D02*
D03*
X20984Y216772D02*
D03*
X10984D02*
D03*
X20984Y206772D02*
D03*
X10984D02*
D03*
X95984Y21772D02*
D03*
Y11772D02*
D03*
X135984Y21772D02*
D03*
Y11772D02*
D03*
X125984Y21772D02*
D03*
Y11772D02*
D03*
X155984Y21772D02*
D03*
Y11772D02*
D03*
X165984Y21772D02*
D03*
Y11772D02*
D03*
X215984D02*
D03*
X205984Y21772D02*
D03*
Y11772D02*
D03*
X195984Y21772D02*
D03*
Y11772D02*
D03*
X185984Y21772D02*
D03*
Y11772D02*
D03*
X175984Y21772D02*
D03*
Y11772D02*
D03*
X145984Y21772D02*
D03*
Y11772D02*
D03*
X115984Y21772D02*
D03*
Y11772D02*
D03*
X105984Y21772D02*
D03*
Y11772D02*
D03*
X75984Y21772D02*
D03*
Y11772D02*
D03*
X85984Y21772D02*
D03*
Y11772D02*
D03*
X55984Y21772D02*
D03*
Y11772D02*
D03*
X65984Y21772D02*
D03*
Y11772D02*
D03*
D35*
X250984Y216772D02*
D03*
X20984Y56772D02*
D03*
D36*
X55984Y314272D02*
D03*
X65984D02*
D03*
Y304272D02*
D03*
X75984Y314272D02*
D03*
Y304272D02*
D03*
X85984Y314272D02*
D03*
Y304272D02*
D03*
X95984Y314272D02*
D03*
Y304272D02*
D03*
X185984D02*
D03*
X195984D02*
D03*
D37*
X55984D02*
D03*
D38*
X175984Y314272D02*
D03*
X185984D02*
D03*
X195984D02*
D03*
X205984D02*
D03*
Y304272D02*
D03*
X215984Y314272D02*
D03*
Y304272D02*
D03*
D39*
X175984D02*
D03*
D40*
X55984Y251772D02*
D03*
X215984Y21772D02*
D03*
D41*
X218484Y76772D02*
D03*
Y57772D02*
D03*
X195984Y76772D02*
D03*
Y57772D02*
D03*
D42*
X255984Y16772D02*
D03*
Y316772D02*
D03*
X15984D02*
D03*
D75*
X238484Y236122D02*
D03*
Y242421D02*
D03*
X188484Y71122D02*
D03*
Y77421D02*
D03*
Y56122D02*
D03*
Y62421D02*
D03*
X225984D02*
D03*
Y56122D02*
D03*
Y71122D02*
D03*
Y77421D02*
D03*
Y88622D02*
D03*
Y94921D02*
D03*
Y259622D02*
D03*
Y265921D02*
D03*
X231984Y259622D02*
D03*
Y265921D02*
D03*
X237984Y259622D02*
D03*
Y265921D02*
D03*
D76*
X40984Y134803D02*
D03*
Y138740D02*
D03*
X115000Y179469D02*
D03*
Y175531D02*
D03*
X121484Y179740D02*
D03*
Y175803D02*
D03*
X137984Y179740D02*
D03*
Y175803D02*
D03*
X153984Y179740D02*
D03*
Y175803D02*
D03*
X160484Y179740D02*
D03*
Y175803D02*
D03*
X165984Y112303D02*
D03*
Y116240D02*
D03*
X160984Y93803D02*
D03*
Y97740D02*
D03*
X153984Y93803D02*
D03*
Y97740D02*
D03*
X138484Y93803D02*
D03*
Y97740D02*
D03*
X120984Y93772D02*
D03*
Y97709D02*
D03*
X113484Y93835D02*
D03*
Y97772D02*
D03*
X148484Y203740D02*
D03*
Y199803D02*
D03*
X143484Y203740D02*
D03*
Y199803D02*
D03*
X163484Y222303D02*
D03*
Y226240D02*
D03*
X168484Y222303D02*
D03*
Y226240D02*
D03*
X103484Y222303D02*
D03*
Y226240D02*
D03*
X98484Y222303D02*
D03*
Y226240D02*
D03*
X80984Y203740D02*
D03*
Y199803D02*
D03*
X75984Y203740D02*
D03*
Y199803D02*
D03*
D77*
X93016Y142772D02*
D03*
X96953D02*
D03*
X93016Y158772D02*
D03*
X96953D02*
D03*
X93016Y146382D02*
D03*
X96953D02*
D03*
X107516Y139272D02*
D03*
X111453D02*
D03*
X178469Y142500D02*
D03*
X174531D02*
D03*
X178469Y146500D02*
D03*
X174531D02*
D03*
X167453Y138772D02*
D03*
X163516D02*
D03*
X79016Y281772D02*
D03*
X82953D02*
D03*
X175016Y161272D02*
D03*
X178953D02*
D03*
X96953Y116272D02*
D03*
X93016D02*
D03*
D78*
X60669Y146772D02*
D03*
Y162520D02*
D03*
X40984Y146772D02*
D03*
D79*
Y162520D02*
D03*
D80*
Y170425D02*
D03*
Y177118D02*
D03*
X195984Y89118D02*
D03*
Y82425D02*
D03*
X218484Y89118D02*
D03*
Y82425D02*
D03*
X62984Y206925D02*
D03*
Y213618D02*
D03*
Y223425D02*
D03*
Y230118D02*
D03*
X75984Y328118D02*
D03*
Y321425D02*
D03*
X70484Y328118D02*
D03*
Y321425D02*
D03*
X60984Y328118D02*
D03*
Y321425D02*
D03*
X205000Y289154D02*
D03*
Y295847D02*
D03*
X195000Y289154D02*
D03*
Y295847D02*
D03*
X185000Y289154D02*
D03*
Y295847D02*
D03*
X175000Y289154D02*
D03*
Y295847D02*
D03*
D81*
X147984Y232618D02*
D03*
Y225925D02*
D03*
X250984Y47618D02*
D03*
Y40925D02*
D03*
X20984D02*
D03*
Y47618D02*
D03*
X250984Y225925D02*
D03*
Y232618D02*
D03*
D82*
X159370Y197716D02*
D03*
Y206772D02*
D03*
Y215827D02*
D03*
X90984Y197716D02*
D03*
Y206772D02*
D03*
Y215827D02*
D03*
D83*
X182598Y206772D02*
D03*
X114213D02*
D03*
D84*
X225138Y21772D02*
D03*
X231831D02*
D03*
X51831Y34272D02*
D03*
X45138D02*
D03*
X12638Y226772D02*
D03*
X19331D02*
D03*
X45831Y251772D02*
D03*
X39138D02*
D03*
D85*
X230984Y99272D02*
D03*
Y104272D02*
D03*
Y109272D02*
D03*
Y114272D02*
D03*
X220984Y119272D02*
D03*
D86*
X197559Y99094D02*
D03*
Y101654D02*
D03*
Y104213D02*
D03*
Y106772D02*
D03*
Y109331D02*
D03*
Y111890D02*
D03*
Y114449D02*
D03*
X219409Y99094D02*
D03*
Y101654D02*
D03*
Y104213D02*
D03*
Y106772D02*
D03*
Y109331D02*
D03*
Y111890D02*
D03*
Y114449D02*
D03*
D87*
X70433Y291772D02*
D03*
Y286772D02*
D03*
Y281772D02*
D03*
Y276772D02*
D03*
X51535Y291772D02*
D03*
Y286772D02*
D03*
Y281772D02*
D03*
Y276772D02*
D03*
D88*
X235984Y289272D02*
D03*
D89*
X245433Y283366D02*
D03*
Y285335D02*
D03*
Y287303D02*
D03*
Y289272D02*
D03*
Y291240D02*
D03*
Y293209D02*
D03*
Y295177D02*
D03*
X226535D02*
D03*
Y293209D02*
D03*
Y291240D02*
D03*
Y289272D02*
D03*
Y287303D02*
D03*
Y285335D02*
D03*
Y283366D02*
D03*
D90*
X241890Y298721D02*
D03*
X239921D02*
D03*
X237953D02*
D03*
X235984D02*
D03*
X234016D02*
D03*
X232047D02*
D03*
X230079D02*
D03*
Y279823D02*
D03*
X232047D02*
D03*
X234016D02*
D03*
X235984D02*
D03*
X237953D02*
D03*
X239921D02*
D03*
X241890D02*
D03*
D91*
X213335Y275772D02*
D03*
X219634D02*
D03*
X159335Y143772D02*
D03*
X165634D02*
D03*
X112634Y144272D02*
D03*
X106335D02*
D03*
M02*
