G04*
G04 #@! TF.GenerationSoftware,Altium Limited,Altium Designer,20.0.11 (256)*
G04*
G04 Layer_Color=128*
%FSLAX25Y25*%
%MOIN*%
G70*
G01*
G75*
%ADD19R,0.03543X0.03937*%
%ADD58R,0.03937X0.03937*%
%ADD59R,0.01968X0.02362*%
%ADD60R,0.02362X0.01968*%
G04:AMPARAMS|DCode=61|XSize=78.74mil|YSize=70.87mil|CornerRadius=17.72mil|HoleSize=0mil|Usage=FLASHONLY|Rotation=270.000|XOffset=0mil|YOffset=0mil|HoleType=Round|Shape=RoundedRectangle|*
%AMROUNDEDRECTD61*
21,1,0.07874,0.03543,0,0,270.0*
21,1,0.04331,0.07087,0,0,270.0*
1,1,0.03543,-0.01772,-0.02165*
1,1,0.03543,-0.01772,0.02165*
1,1,0.03543,0.01772,0.02165*
1,1,0.03543,0.01772,-0.02165*
%
%ADD61ROUNDEDRECTD61*%
%ADD62R,0.07087X0.07874*%
%ADD63R,0.03937X0.03543*%
%ADD64R,0.05906X0.05118*%
%ADD65R,0.10630X0.03937*%
%ADD66R,0.10630X0.12992*%
%ADD67R,0.05118X0.05906*%
%ADD68C,0.03937*%
%ADD69R,0.06496X0.01181*%
%ADD70O,0.08661X0.02362*%
%ADD74R,0.03937X0.03937*%
%ADD92R,0.00984X0.02756*%
%ADD93R,0.02756X0.00984*%
%ADD94R,0.06102X0.06102*%
%ADD95R,0.06102X0.06102*%
D19*
X167831Y130772D02*
D03*
X161138D02*
D03*
X26831Y11772D02*
D03*
X20138D02*
D03*
X26831Y24272D02*
D03*
X20138D02*
D03*
X182138Y99272D02*
D03*
X188831D02*
D03*
X189347Y113000D02*
D03*
X182653D02*
D03*
X227638Y304272D02*
D03*
X234331D02*
D03*
X253638Y306772D02*
D03*
X260331D02*
D03*
X260331Y294272D02*
D03*
X253638D02*
D03*
X260331Y287272D02*
D03*
X253638D02*
D03*
X253638Y275272D02*
D03*
X260331D02*
D03*
X213138Y282772D02*
D03*
X219831D02*
D03*
D58*
X238484Y236122D02*
D03*
Y242421D02*
D03*
X188484Y71122D02*
D03*
Y77421D02*
D03*
Y56122D02*
D03*
Y62421D02*
D03*
X225984D02*
D03*
Y56122D02*
D03*
Y71122D02*
D03*
Y77421D02*
D03*
Y88622D02*
D03*
Y94921D02*
D03*
Y259622D02*
D03*
Y265921D02*
D03*
X231984Y259622D02*
D03*
Y265921D02*
D03*
X237984Y259622D02*
D03*
Y265921D02*
D03*
D59*
X40984Y134803D02*
D03*
Y138740D02*
D03*
X115000Y179469D02*
D03*
Y175531D02*
D03*
X121484Y179740D02*
D03*
Y175803D02*
D03*
X137984Y179740D02*
D03*
Y175803D02*
D03*
X153984Y179740D02*
D03*
Y175803D02*
D03*
X160484Y179740D02*
D03*
Y175803D02*
D03*
X165984Y112303D02*
D03*
Y116240D02*
D03*
X160984Y93803D02*
D03*
Y97740D02*
D03*
X153984Y93803D02*
D03*
Y97740D02*
D03*
X138484Y93803D02*
D03*
Y97740D02*
D03*
X120984Y93772D02*
D03*
Y97709D02*
D03*
X113484Y93835D02*
D03*
Y97772D02*
D03*
X148484Y203740D02*
D03*
Y199803D02*
D03*
X143484Y203740D02*
D03*
Y199803D02*
D03*
X163484Y222303D02*
D03*
Y226240D02*
D03*
X168484Y222303D02*
D03*
Y226240D02*
D03*
X103484Y222303D02*
D03*
Y226240D02*
D03*
X98484Y222303D02*
D03*
Y226240D02*
D03*
X80984Y203740D02*
D03*
Y199803D02*
D03*
X75984Y203740D02*
D03*
Y199803D02*
D03*
D60*
X93016Y142772D02*
D03*
X96953D02*
D03*
X93016Y158772D02*
D03*
X96953D02*
D03*
X93016Y146382D02*
D03*
X96953D02*
D03*
X107516Y139272D02*
D03*
X111453D02*
D03*
X178469Y142500D02*
D03*
X174531D02*
D03*
X178469Y146500D02*
D03*
X174531D02*
D03*
X167453Y138772D02*
D03*
X163516D02*
D03*
X79016Y281772D02*
D03*
X82953D02*
D03*
X175016Y161272D02*
D03*
X178953D02*
D03*
X96953Y116272D02*
D03*
X93016D02*
D03*
D61*
X60669Y146772D02*
D03*
Y162520D02*
D03*
X40984Y146772D02*
D03*
D62*
Y162520D02*
D03*
D63*
Y170425D02*
D03*
Y177118D02*
D03*
X195984Y89118D02*
D03*
Y82425D02*
D03*
X218484Y89118D02*
D03*
Y82425D02*
D03*
X62984Y206925D02*
D03*
Y213618D02*
D03*
Y223425D02*
D03*
Y230118D02*
D03*
X75984Y328118D02*
D03*
Y321425D02*
D03*
X70484Y328118D02*
D03*
Y321425D02*
D03*
X60984Y328118D02*
D03*
Y321425D02*
D03*
X205000Y289154D02*
D03*
Y295847D02*
D03*
X195000Y289154D02*
D03*
Y295847D02*
D03*
X185000Y289154D02*
D03*
Y295847D02*
D03*
X175000Y289154D02*
D03*
Y295847D02*
D03*
D64*
X147984Y232618D02*
D03*
Y225925D02*
D03*
X250984Y47618D02*
D03*
Y40925D02*
D03*
X20984D02*
D03*
Y47618D02*
D03*
X250984Y225925D02*
D03*
Y232618D02*
D03*
D65*
X159370Y197716D02*
D03*
Y206772D02*
D03*
Y215827D02*
D03*
X90984Y197716D02*
D03*
Y206772D02*
D03*
Y215827D02*
D03*
D66*
X182598Y206772D02*
D03*
X114213D02*
D03*
D67*
X225138Y21772D02*
D03*
X231831D02*
D03*
X51831Y34272D02*
D03*
X45138D02*
D03*
X12638Y226772D02*
D03*
X19331D02*
D03*
X45831Y251772D02*
D03*
X39138D02*
D03*
D68*
X230984Y99272D02*
D03*
Y104272D02*
D03*
Y109272D02*
D03*
Y114272D02*
D03*
X220984Y119272D02*
D03*
D69*
X197559Y99094D02*
D03*
Y101654D02*
D03*
Y104213D02*
D03*
Y106772D02*
D03*
Y109331D02*
D03*
Y111890D02*
D03*
Y114449D02*
D03*
X219409Y99094D02*
D03*
Y101654D02*
D03*
Y104213D02*
D03*
Y106772D02*
D03*
Y109331D02*
D03*
Y111890D02*
D03*
Y114449D02*
D03*
D70*
X70433Y291772D02*
D03*
Y286772D02*
D03*
Y281772D02*
D03*
Y276772D02*
D03*
X51535Y291772D02*
D03*
Y286772D02*
D03*
Y281772D02*
D03*
Y276772D02*
D03*
D74*
X213335Y275772D02*
D03*
X219634D02*
D03*
X159335Y143772D02*
D03*
X165634D02*
D03*
X112634Y144272D02*
D03*
X106335D02*
D03*
D92*
X241890Y279233D02*
D03*
X239921D02*
D03*
X237953D02*
D03*
X235984Y279232D02*
D03*
X234015D02*
D03*
X232047Y279233D02*
D03*
X230079D02*
D03*
Y299311D02*
D03*
X232047D02*
D03*
X234015Y299311D02*
D03*
X235984D02*
D03*
X237953Y299311D02*
D03*
X239921D02*
D03*
X241890D02*
D03*
D93*
X246024Y295178D02*
D03*
Y293209D02*
D03*
X246023Y291240D02*
D03*
Y289272D02*
D03*
X246024Y287303D02*
D03*
Y285335D02*
D03*
Y283366D02*
D03*
X225945Y295178D02*
D03*
Y293209D02*
D03*
X225945Y291240D02*
D03*
Y289272D02*
D03*
X225945Y287303D02*
D03*
Y285335D02*
D03*
Y283366D02*
D03*
D94*
X239626Y292913D02*
D03*
X239626Y285630D02*
D03*
X232343Y292913D02*
D03*
D95*
X232343Y285630D02*
D03*
M02*
