G04*
G04 #@! TF.GenerationSoftware,Altium Limited,Altium Designer,20.0.11 (256)*
G04*
G04 Layer_Color=65535*
%FSLAX25Y25*%
%MOIN*%
G70*
G01*
G75*
%ADD10C,0.00984*%
%ADD11C,0.02362*%
%ADD12C,0.01000*%
%ADD13C,0.00394*%
%ADD14C,0.00787*%
%ADD15C,0.00500*%
G36*
X66568Y31757D02*
X66258D01*
Y33726D01*
X66255Y33722D01*
X66237Y33708D01*
X66215Y33686D01*
X66178Y33661D01*
X66138Y33628D01*
X66087Y33591D01*
X66029Y33551D01*
X65964Y33511D01*
X65960D01*
X65956Y33508D01*
X65934Y33493D01*
X65898Y33475D01*
X65854Y33453D01*
X65803Y33428D01*
X65749Y33402D01*
X65694Y33377D01*
X65640Y33355D01*
Y33653D01*
X65643D01*
X65651Y33661D01*
X65665Y33664D01*
X65683Y33675D01*
X65705Y33686D01*
X65731Y33701D01*
X65793Y33737D01*
X65865Y33777D01*
X65938Y33828D01*
X66015Y33886D01*
X66091Y33948D01*
X66095Y33952D01*
X66098Y33955D01*
X66109Y33966D01*
X66124Y33977D01*
X66157Y34014D01*
X66200Y34057D01*
X66244Y34108D01*
X66291Y34167D01*
X66331Y34225D01*
X66368Y34287D01*
X66568D01*
Y31757D01*
D02*
G37*
G36*
X64191Y34272D02*
X64224D01*
X64300Y34269D01*
X64380Y34258D01*
X64468Y34247D01*
X64548Y34229D01*
X64588Y34218D01*
X64620Y34207D01*
X64624D01*
X64628Y34203D01*
X64650Y34192D01*
X64682Y34178D01*
X64722Y34152D01*
X64766Y34119D01*
X64813Y34076D01*
X64857Y34025D01*
X64901Y33966D01*
Y33963D01*
X64904Y33959D01*
X64919Y33937D01*
X64934Y33901D01*
X64955Y33854D01*
X64973Y33799D01*
X64992Y33733D01*
X65003Y33664D01*
X65006Y33588D01*
Y33584D01*
Y33577D01*
Y33562D01*
X65003Y33544D01*
Y33519D01*
X64999Y33493D01*
X64984Y33431D01*
X64963Y33358D01*
X64934Y33282D01*
X64890Y33206D01*
X64861Y33169D01*
X64832Y33133D01*
X64828Y33129D01*
X64824Y33126D01*
X64813Y33115D01*
X64799Y33104D01*
X64781Y33089D01*
X64759Y33075D01*
X64730Y33056D01*
X64701Y33035D01*
X64664Y33016D01*
X64624Y32998D01*
X64580Y32976D01*
X64533Y32958D01*
X64478Y32944D01*
X64424Y32925D01*
X64362Y32915D01*
X64297Y32904D01*
X64304Y32900D01*
X64318Y32893D01*
X64340Y32878D01*
X64369Y32864D01*
X64435Y32824D01*
X64468Y32798D01*
X64497Y32776D01*
X64504Y32769D01*
X64522Y32751D01*
X64551Y32721D01*
X64588Y32685D01*
X64628Y32634D01*
X64675Y32580D01*
X64722Y32514D01*
X64773Y32441D01*
X65206Y31757D01*
X64792D01*
X64460Y32281D01*
Y32285D01*
X64453Y32292D01*
X64446Y32303D01*
X64435Y32318D01*
X64409Y32357D01*
X64377Y32408D01*
X64337Y32463D01*
X64297Y32521D01*
X64256Y32576D01*
X64220Y32627D01*
X64216Y32631D01*
X64205Y32645D01*
X64187Y32667D01*
X64162Y32692D01*
X64107Y32747D01*
X64078Y32772D01*
X64049Y32794D01*
X64045Y32798D01*
X64038Y32802D01*
X64024Y32809D01*
X64002Y32820D01*
X63980Y32831D01*
X63954Y32842D01*
X63896Y32860D01*
X63892D01*
X63885Y32864D01*
X63871D01*
X63852Y32867D01*
X63827Y32871D01*
X63798D01*
X63758Y32874D01*
X63328D01*
Y31757D01*
X62993D01*
Y34276D01*
X64162D01*
X64191Y34272D01*
D02*
G37*
G36*
X68257Y34283D02*
X68304Y34276D01*
X68359Y34265D01*
X68417Y34250D01*
X68479Y34232D01*
X68537Y34203D01*
X68541D01*
X68544Y34199D01*
X68563Y34189D01*
X68592Y34170D01*
X68628Y34145D01*
X68668Y34108D01*
X68712Y34068D01*
X68752Y34021D01*
X68792Y33966D01*
X68796Y33959D01*
X68810Y33941D01*
X68825Y33908D01*
X68850Y33861D01*
X68872Y33806D01*
X68901Y33744D01*
X68927Y33672D01*
X68948Y33591D01*
Y33588D01*
X68952Y33581D01*
X68956Y33570D01*
X68959Y33551D01*
X68963Y33530D01*
X68967Y33504D01*
X68974Y33471D01*
X68977Y33435D01*
X68985Y33395D01*
X68988Y33351D01*
X68992Y33300D01*
X68999Y33249D01*
X69003Y33191D01*
Y33133D01*
X69007Y33067D01*
Y32998D01*
Y32994D01*
Y32980D01*
Y32954D01*
Y32925D01*
X69003Y32885D01*
Y32842D01*
X68999Y32794D01*
X68996Y32743D01*
X68985Y32627D01*
X68967Y32507D01*
X68945Y32390D01*
X68930Y32336D01*
X68912Y32281D01*
Y32278D01*
X68908Y32270D01*
X68901Y32256D01*
X68894Y32237D01*
X68887Y32212D01*
X68872Y32186D01*
X68843Y32125D01*
X68806Y32059D01*
X68759Y31986D01*
X68704Y31921D01*
X68639Y31859D01*
X68635D01*
X68632Y31852D01*
X68621Y31844D01*
X68606Y31837D01*
X68588Y31826D01*
X68570Y31811D01*
X68515Y31786D01*
X68450Y31761D01*
X68373Y31735D01*
X68282Y31721D01*
X68184Y31713D01*
X68148D01*
X68122Y31717D01*
X68093Y31721D01*
X68057Y31728D01*
X68017Y31735D01*
X67973Y31746D01*
X67929Y31761D01*
X67882Y31775D01*
X67835Y31797D01*
X67787Y31822D01*
X67740Y31852D01*
X67693Y31888D01*
X67649Y31928D01*
X67609Y31972D01*
X67605Y31975D01*
X67598Y31986D01*
X67587Y32004D01*
X67569Y32034D01*
X67551Y32066D01*
X67532Y32110D01*
X67507Y32161D01*
X67485Y32219D01*
X67463Y32285D01*
X67441Y32361D01*
X67420Y32445D01*
X67401Y32539D01*
X67383Y32642D01*
X67372Y32751D01*
X67365Y32871D01*
X67361Y32998D01*
Y33002D01*
Y33016D01*
Y33042D01*
Y33071D01*
X67365Y33111D01*
Y33155D01*
X67369Y33202D01*
X67372Y33257D01*
X67383Y33369D01*
X67401Y33490D01*
X67423Y33610D01*
X67438Y33664D01*
X67452Y33719D01*
Y33722D01*
X67456Y33730D01*
X67463Y33744D01*
X67471Y33763D01*
X67478Y33788D01*
X67492Y33814D01*
X67522Y33875D01*
X67558Y33941D01*
X67605Y34010D01*
X67660Y34079D01*
X67725Y34137D01*
X67729D01*
X67733Y34145D01*
X67744Y34152D01*
X67758Y34159D01*
X67776Y34174D01*
X67798Y34185D01*
X67853Y34214D01*
X67918Y34239D01*
X67995Y34265D01*
X68086Y34280D01*
X68184Y34287D01*
X68217D01*
X68257Y34283D01*
D02*
G37*
G36*
X31665Y86272D02*
X31697D01*
X31774Y86269D01*
X31854Y86258D01*
X31941Y86247D01*
X32021Y86229D01*
X32061Y86218D01*
X32094Y86207D01*
X32098D01*
X32101Y86203D01*
X32123Y86192D01*
X32156Y86177D01*
X32196Y86152D01*
X32240Y86119D01*
X32287Y86076D01*
X32331Y86025D01*
X32374Y85966D01*
Y85963D01*
X32378Y85959D01*
X32393Y85937D01*
X32407Y85901D01*
X32429Y85854D01*
X32447Y85799D01*
X32465Y85733D01*
X32476Y85664D01*
X32480Y85588D01*
Y85584D01*
Y85577D01*
Y85562D01*
X32476Y85544D01*
Y85519D01*
X32473Y85493D01*
X32458Y85431D01*
X32436Y85359D01*
X32407Y85282D01*
X32364Y85206D01*
X32334Y85169D01*
X32305Y85133D01*
X32302Y85129D01*
X32298Y85126D01*
X32287Y85115D01*
X32272Y85104D01*
X32254Y85089D01*
X32232Y85075D01*
X32203Y85056D01*
X32174Y85035D01*
X32138Y85016D01*
X32098Y84998D01*
X32054Y84976D01*
X32007Y84958D01*
X31952Y84944D01*
X31898Y84925D01*
X31836Y84914D01*
X31770Y84904D01*
X31778Y84900D01*
X31792Y84893D01*
X31814Y84878D01*
X31843Y84864D01*
X31909Y84824D01*
X31941Y84798D01*
X31970Y84776D01*
X31978Y84769D01*
X31996Y84751D01*
X32025Y84721D01*
X32061Y84685D01*
X32101Y84634D01*
X32149Y84580D01*
X32196Y84514D01*
X32247Y84441D01*
X32680Y83757D01*
X32265D01*
X31934Y84281D01*
Y84285D01*
X31927Y84292D01*
X31919Y84303D01*
X31909Y84317D01*
X31883Y84358D01*
X31850Y84408D01*
X31810Y84463D01*
X31770Y84521D01*
X31730Y84576D01*
X31694Y84627D01*
X31690Y84631D01*
X31679Y84645D01*
X31661Y84667D01*
X31635Y84692D01*
X31581Y84747D01*
X31552Y84772D01*
X31523Y84794D01*
X31519Y84798D01*
X31512Y84802D01*
X31497Y84809D01*
X31475Y84820D01*
X31453Y84831D01*
X31428Y84842D01*
X31370Y84860D01*
X31366D01*
X31359Y84864D01*
X31344D01*
X31326Y84867D01*
X31301Y84871D01*
X31271D01*
X31231Y84874D01*
X30802D01*
Y83757D01*
X30467D01*
Y86276D01*
X31635D01*
X31665Y86272D01*
D02*
G37*
G36*
X33750Y86283D02*
X33779Y86279D01*
X33812Y86276D01*
X33849Y86272D01*
X33885Y86261D01*
X33972Y86239D01*
X34060Y86207D01*
X34103Y86185D01*
X34147Y86159D01*
X34187Y86127D01*
X34227Y86094D01*
X34231Y86090D01*
X34234Y86086D01*
X34245Y86076D01*
X34260Y86061D01*
X34275Y86039D01*
X34293Y86017D01*
X34329Y85963D01*
X34365Y85894D01*
X34398Y85813D01*
X34424Y85723D01*
X34427Y85675D01*
X34431Y85624D01*
Y85621D01*
Y85617D01*
Y85595D01*
X34427Y85562D01*
X34420Y85522D01*
X34409Y85471D01*
X34391Y85420D01*
X34369Y85369D01*
X34336Y85318D01*
X34333Y85311D01*
X34318Y85297D01*
X34296Y85275D01*
X34267Y85246D01*
X34227Y85213D01*
X34180Y85180D01*
X34125Y85147D01*
X34060Y85118D01*
X34063D01*
X34071Y85115D01*
X34082Y85111D01*
X34096Y85104D01*
X34140Y85085D01*
X34191Y85060D01*
X34245Y85024D01*
X34304Y84984D01*
X34358Y84933D01*
X34409Y84874D01*
Y84871D01*
X34413Y84867D01*
X34427Y84845D01*
X34449Y84809D01*
X34471Y84762D01*
X34493Y84703D01*
X34515Y84634D01*
X34529Y84558D01*
X34533Y84474D01*
Y84470D01*
Y84460D01*
Y84441D01*
X34529Y84419D01*
X34526Y84394D01*
X34522Y84361D01*
X34515Y84325D01*
X34504Y84285D01*
X34478Y84201D01*
X34460Y84154D01*
X34435Y84110D01*
X34409Y84063D01*
X34380Y84019D01*
X34344Y83975D01*
X34304Y83932D01*
X34300Y83928D01*
X34293Y83921D01*
X34282Y83910D01*
X34264Y83899D01*
X34238Y83881D01*
X34213Y83863D01*
X34180Y83844D01*
X34143Y83823D01*
X34103Y83801D01*
X34056Y83782D01*
X34005Y83764D01*
X33954Y83746D01*
X33896Y83735D01*
X33834Y83724D01*
X33772Y83717D01*
X33703Y83713D01*
X33667D01*
X33641Y83717D01*
X33608Y83720D01*
X33572Y83724D01*
X33532Y83732D01*
X33488Y83742D01*
X33390Y83768D01*
X33339Y83786D01*
X33292Y83804D01*
X33241Y83830D01*
X33190Y83859D01*
X33143Y83892D01*
X33099Y83932D01*
X33095Y83935D01*
X33088Y83943D01*
X33077Y83953D01*
X33062Y83972D01*
X33048Y83994D01*
X33026Y84019D01*
X33008Y84048D01*
X32986Y84084D01*
X32964Y84121D01*
X32946Y84165D01*
X32910Y84256D01*
X32895Y84310D01*
X32884Y84365D01*
X32877Y84423D01*
X32873Y84481D01*
Y84485D01*
Y84492D01*
Y84507D01*
X32877Y84521D01*
Y84543D01*
X32880Y84569D01*
X32888Y84627D01*
X32902Y84692D01*
X32924Y84758D01*
X32957Y84827D01*
X32997Y84893D01*
Y84896D01*
X33004Y84900D01*
X33019Y84918D01*
X33048Y84947D01*
X33088Y84984D01*
X33139Y85020D01*
X33201Y85060D01*
X33270Y85093D01*
X33354Y85118D01*
X33350D01*
X33346Y85122D01*
X33335Y85126D01*
X33321Y85133D01*
X33288Y85147D01*
X33244Y85169D01*
X33197Y85198D01*
X33150Y85235D01*
X33106Y85275D01*
X33066Y85318D01*
X33062Y85326D01*
X33051Y85340D01*
X33037Y85369D01*
X33022Y85406D01*
X33004Y85453D01*
X32990Y85508D01*
X32979Y85570D01*
X32975Y85635D01*
Y85639D01*
Y85646D01*
Y85661D01*
X32979Y85682D01*
X32982Y85704D01*
X32986Y85733D01*
X33000Y85795D01*
X33022Y85868D01*
X33059Y85945D01*
X33081Y85985D01*
X33106Y86025D01*
X33139Y86061D01*
X33172Y86098D01*
X33175Y86101D01*
X33182Y86105D01*
X33193Y86116D01*
X33208Y86127D01*
X33226Y86141D01*
X33252Y86156D01*
X33281Y86174D01*
X33310Y86192D01*
X33346Y86210D01*
X33386Y86229D01*
X33430Y86243D01*
X33477Y86258D01*
X33579Y86279D01*
X33637Y86283D01*
X33696Y86287D01*
X33729D01*
X33750Y86283D01*
D02*
G37*
G36*
X5691Y82300D02*
X5724Y82296D01*
X5764Y82292D01*
X5804Y82289D01*
X5851Y82278D01*
X5949Y82256D01*
X6059Y82223D01*
X6113Y82201D01*
X6164Y82176D01*
X6215Y82143D01*
X6266Y82110D01*
X6270Y82107D01*
X6277Y82103D01*
X6291Y82092D01*
X6310Y82074D01*
X6328Y82056D01*
X6353Y82030D01*
X6379Y82001D01*
X6408Y81972D01*
X6437Y81936D01*
X6466Y81892D01*
X6499Y81848D01*
X6528Y81801D01*
X6554Y81746D01*
X6583Y81692D01*
X6605Y81633D01*
X6626Y81568D01*
X6299Y81491D01*
Y81495D01*
X6295Y81502D01*
X6288Y81517D01*
X6281Y81535D01*
X6273Y81557D01*
X6262Y81586D01*
X6233Y81644D01*
X6197Y81710D01*
X6153Y81775D01*
X6099Y81837D01*
X6040Y81892D01*
X6033Y81899D01*
X6011Y81914D01*
X5975Y81932D01*
X5928Y81957D01*
X5866Y81979D01*
X5796Y82001D01*
X5713Y82016D01*
X5622Y82019D01*
X5593D01*
X5574Y82016D01*
X5549D01*
X5520Y82012D01*
X5451Y82001D01*
X5374Y81986D01*
X5294Y81961D01*
X5210Y81925D01*
X5134Y81877D01*
X5130D01*
X5127Y81870D01*
X5101Y81852D01*
X5068Y81823D01*
X5028Y81779D01*
X4981Y81724D01*
X4937Y81662D01*
X4897Y81586D01*
X4861Y81502D01*
Y81499D01*
X4857Y81491D01*
X4854Y81480D01*
X4850Y81462D01*
X4843Y81440D01*
X4835Y81415D01*
X4825Y81353D01*
X4810Y81280D01*
X4795Y81200D01*
X4788Y81113D01*
X4785Y81018D01*
Y81015D01*
Y81004D01*
Y80985D01*
Y80964D01*
X4788Y80938D01*
Y80905D01*
X4792Y80869D01*
X4795Y80829D01*
X4806Y80742D01*
X4825Y80647D01*
X4846Y80552D01*
X4876Y80458D01*
Y80454D01*
X4879Y80447D01*
X4887Y80436D01*
X4894Y80418D01*
X4916Y80374D01*
X4948Y80323D01*
X4988Y80265D01*
X5039Y80203D01*
X5098Y80148D01*
X5167Y80097D01*
X5170D01*
X5178Y80094D01*
X5189Y80086D01*
X5203Y80079D01*
X5221Y80072D01*
X5243Y80061D01*
X5294Y80039D01*
X5360Y80017D01*
X5432Y79999D01*
X5513Y79984D01*
X5596Y79981D01*
X5622D01*
X5644Y79984D01*
X5669D01*
X5695Y79988D01*
X5760Y80003D01*
X5836Y80021D01*
X5913Y80050D01*
X5993Y80090D01*
X6033Y80112D01*
X6069Y80141D01*
X6073Y80145D01*
X6077Y80148D01*
X6088Y80159D01*
X6102Y80170D01*
X6117Y80188D01*
X6135Y80210D01*
X6157Y80232D01*
X6175Y80261D01*
X6197Y80294D01*
X6222Y80330D01*
X6244Y80367D01*
X6266Y80410D01*
X6284Y80458D01*
X6302Y80509D01*
X6321Y80563D01*
X6335Y80621D01*
X6670Y80538D01*
Y80534D01*
X6666Y80519D01*
X6659Y80498D01*
X6648Y80469D01*
X6637Y80436D01*
X6623Y80396D01*
X6605Y80352D01*
X6583Y80305D01*
X6532Y80203D01*
X6466Y80101D01*
X6426Y80050D01*
X6386Y79999D01*
X6342Y79955D01*
X6291Y79912D01*
X6288Y79908D01*
X6281Y79901D01*
X6262Y79893D01*
X6244Y79879D01*
X6215Y79861D01*
X6186Y79843D01*
X6146Y79824D01*
X6106Y79806D01*
X6059Y79784D01*
X6008Y79766D01*
X5953Y79748D01*
X5895Y79730D01*
X5833Y79715D01*
X5767Y79708D01*
X5698Y79700D01*
X5625Y79697D01*
X5585D01*
X5556Y79700D01*
X5523D01*
X5483Y79704D01*
X5440Y79711D01*
X5389Y79719D01*
X5283Y79737D01*
X5174Y79766D01*
X5065Y79806D01*
X5014Y79832D01*
X4963Y79861D01*
X4959Y79864D01*
X4952Y79868D01*
X4937Y79879D01*
X4923Y79893D01*
X4901Y79908D01*
X4876Y79930D01*
X4846Y79955D01*
X4817Y79984D01*
X4788Y80017D01*
X4755Y80050D01*
X4690Y80134D01*
X4628Y80232D01*
X4573Y80341D01*
Y80345D01*
X4566Y80356D01*
X4563Y80374D01*
X4552Y80396D01*
X4544Y80425D01*
X4533Y80461D01*
X4519Y80501D01*
X4508Y80545D01*
X4497Y80592D01*
X4482Y80647D01*
X4464Y80760D01*
X4450Y80887D01*
X4442Y81018D01*
Y81022D01*
Y81036D01*
Y81058D01*
X4446Y81084D01*
Y81120D01*
X4450Y81156D01*
X4453Y81204D01*
X4461Y81251D01*
X4479Y81357D01*
X4504Y81473D01*
X4541Y81590D01*
X4592Y81703D01*
X4595Y81706D01*
X4599Y81717D01*
X4606Y81732D01*
X4621Y81750D01*
X4635Y81775D01*
X4654Y81804D01*
X4701Y81870D01*
X4763Y81943D01*
X4835Y82016D01*
X4919Y82088D01*
X5017Y82150D01*
X5021Y82154D01*
X5032Y82157D01*
X5047Y82165D01*
X5065Y82176D01*
X5094Y82187D01*
X5123Y82198D01*
X5159Y82212D01*
X5200Y82227D01*
X5243Y82241D01*
X5291Y82256D01*
X5392Y82278D01*
X5509Y82296D01*
X5629Y82303D01*
X5665D01*
X5691Y82300D01*
D02*
G37*
G36*
X7849Y82267D02*
X7879Y82263D01*
X7915Y82259D01*
X7955Y82252D01*
X7995Y82245D01*
X8090Y82219D01*
X8184Y82183D01*
X8232Y82161D01*
X8279Y82136D01*
X8323Y82103D01*
X8363Y82067D01*
X8366Y82063D01*
X8374Y82059D01*
X8381Y82045D01*
X8395Y82030D01*
X8414Y82012D01*
X8432Y81986D01*
X8450Y81961D01*
X8472Y81928D01*
X8508Y81859D01*
X8545Y81772D01*
X8559Y81728D01*
X8567Y81677D01*
X8574Y81626D01*
X8577Y81572D01*
Y81564D01*
Y81546D01*
X8574Y81517D01*
X8570Y81477D01*
X8563Y81433D01*
X8548Y81382D01*
X8534Y81328D01*
X8512Y81273D01*
X8508Y81266D01*
X8501Y81248D01*
X8486Y81218D01*
X8465Y81178D01*
X8435Y81135D01*
X8399Y81080D01*
X8355Y81025D01*
X8304Y80964D01*
X8297Y80956D01*
X8279Y80935D01*
X8261Y80916D01*
X8243Y80898D01*
X8221Y80876D01*
X8192Y80847D01*
X8162Y80818D01*
X8126Y80785D01*
X8090Y80749D01*
X8046Y80709D01*
X7999Y80669D01*
X7948Y80621D01*
X7890Y80574D01*
X7831Y80523D01*
X7828Y80519D01*
X7820Y80512D01*
X7806Y80501D01*
X7788Y80487D01*
X7766Y80465D01*
X7740Y80443D01*
X7682Y80396D01*
X7620Y80341D01*
X7562Y80287D01*
X7511Y80239D01*
X7489Y80221D01*
X7471Y80203D01*
X7467Y80199D01*
X7456Y80188D01*
X7442Y80174D01*
X7424Y80152D01*
X7405Y80126D01*
X7384Y80101D01*
X7340Y80039D01*
X8581D01*
Y79741D01*
X6910D01*
Y79744D01*
Y79759D01*
Y79781D01*
X6914Y79810D01*
X6918Y79843D01*
X6925Y79879D01*
X6932Y79915D01*
X6947Y79955D01*
Y79959D01*
X6950Y79963D01*
X6958Y79984D01*
X6972Y80017D01*
X6994Y80061D01*
X7023Y80112D01*
X7060Y80170D01*
X7100Y80228D01*
X7151Y80290D01*
Y80294D01*
X7158Y80297D01*
X7176Y80319D01*
X7209Y80352D01*
X7256Y80399D01*
X7311Y80454D01*
X7380Y80519D01*
X7464Y80592D01*
X7555Y80669D01*
X7558Y80672D01*
X7573Y80683D01*
X7595Y80702D01*
X7620Y80723D01*
X7653Y80752D01*
X7693Y80785D01*
X7733Y80822D01*
X7780Y80862D01*
X7871Y80949D01*
X7962Y81036D01*
X8006Y81080D01*
X8046Y81124D01*
X8082Y81164D01*
X8111Y81204D01*
Y81208D01*
X8119Y81211D01*
X8126Y81222D01*
X8133Y81237D01*
X8159Y81277D01*
X8188Y81324D01*
X8213Y81382D01*
X8239Y81444D01*
X8253Y81513D01*
X8261Y81579D01*
Y81582D01*
Y81586D01*
X8257Y81608D01*
X8253Y81644D01*
X8243Y81684D01*
X8228Y81735D01*
X8202Y81786D01*
X8170Y81837D01*
X8126Y81888D01*
X8119Y81895D01*
X8101Y81910D01*
X8075Y81928D01*
X8035Y81954D01*
X7984Y81976D01*
X7926Y81997D01*
X7857Y82012D01*
X7780Y82016D01*
X7758D01*
X7744Y82012D01*
X7700Y82008D01*
X7649Y81997D01*
X7595Y81983D01*
X7533Y81957D01*
X7474Y81925D01*
X7420Y81881D01*
X7413Y81874D01*
X7398Y81855D01*
X7376Y81826D01*
X7354Y81783D01*
X7329Y81732D01*
X7307Y81666D01*
X7293Y81593D01*
X7285Y81510D01*
X6969Y81542D01*
Y81546D01*
X6972Y81557D01*
Y81575D01*
X6976Y81601D01*
X6983Y81630D01*
X6990Y81662D01*
X7001Y81703D01*
X7012Y81743D01*
X7041Y81830D01*
X7085Y81917D01*
X7111Y81961D01*
X7143Y82005D01*
X7176Y82045D01*
X7212Y82081D01*
X7216Y82085D01*
X7223Y82088D01*
X7234Y82099D01*
X7253Y82110D01*
X7274Y82125D01*
X7300Y82139D01*
X7329Y82157D01*
X7365Y82176D01*
X7405Y82194D01*
X7449Y82212D01*
X7496Y82227D01*
X7547Y82241D01*
X7602Y82252D01*
X7660Y82263D01*
X7722Y82267D01*
X7788Y82270D01*
X7824D01*
X7849Y82267D01*
D02*
G37*
G36*
X9808D02*
X9855Y82259D01*
X9910Y82249D01*
X9968Y82234D01*
X10030Y82216D01*
X10088Y82187D01*
X10092D01*
X10095Y82183D01*
X10114Y82172D01*
X10143Y82154D01*
X10179Y82128D01*
X10219Y82092D01*
X10263Y82052D01*
X10303Y82005D01*
X10343Y81950D01*
X10346Y81943D01*
X10361Y81925D01*
X10376Y81892D01*
X10401Y81845D01*
X10423Y81790D01*
X10452Y81728D01*
X10477Y81655D01*
X10499Y81575D01*
Y81572D01*
X10503Y81564D01*
X10507Y81553D01*
X10510Y81535D01*
X10514Y81513D01*
X10518Y81488D01*
X10525Y81455D01*
X10528Y81419D01*
X10536Y81379D01*
X10539Y81335D01*
X10543Y81284D01*
X10550Y81233D01*
X10554Y81175D01*
Y81116D01*
X10558Y81051D01*
Y80982D01*
Y80978D01*
Y80964D01*
Y80938D01*
Y80909D01*
X10554Y80869D01*
Y80825D01*
X10550Y80778D01*
X10547Y80727D01*
X10536Y80611D01*
X10518Y80490D01*
X10496Y80374D01*
X10481Y80319D01*
X10463Y80265D01*
Y80261D01*
X10459Y80254D01*
X10452Y80239D01*
X10445Y80221D01*
X10437Y80196D01*
X10423Y80170D01*
X10394Y80108D01*
X10357Y80043D01*
X10310Y79970D01*
X10255Y79904D01*
X10190Y79843D01*
X10186D01*
X10183Y79835D01*
X10172Y79828D01*
X10157Y79821D01*
X10139Y79810D01*
X10121Y79795D01*
X10066Y79770D01*
X10001Y79744D01*
X9924Y79719D01*
X9833Y79704D01*
X9735Y79697D01*
X9699D01*
X9673Y79700D01*
X9644Y79704D01*
X9608Y79711D01*
X9567Y79719D01*
X9524Y79730D01*
X9480Y79744D01*
X9433Y79759D01*
X9386Y79781D01*
X9338Y79806D01*
X9291Y79835D01*
X9244Y79872D01*
X9200Y79912D01*
X9160Y79955D01*
X9156Y79959D01*
X9149Y79970D01*
X9138Y79988D01*
X9120Y80017D01*
X9102Y80050D01*
X9083Y80094D01*
X9058Y80145D01*
X9036Y80203D01*
X9014Y80268D01*
X8992Y80345D01*
X8971Y80428D01*
X8952Y80523D01*
X8934Y80625D01*
X8923Y80734D01*
X8916Y80854D01*
X8912Y80982D01*
Y80985D01*
Y81000D01*
Y81025D01*
Y81055D01*
X8916Y81095D01*
Y81138D01*
X8920Y81186D01*
X8923Y81240D01*
X8934Y81353D01*
X8952Y81473D01*
X8974Y81593D01*
X8989Y81648D01*
X9003Y81703D01*
Y81706D01*
X9007Y81713D01*
X9014Y81728D01*
X9021Y81746D01*
X9029Y81772D01*
X9043Y81797D01*
X9072Y81859D01*
X9109Y81925D01*
X9156Y81994D01*
X9211Y82063D01*
X9276Y82121D01*
X9280D01*
X9284Y82128D01*
X9295Y82136D01*
X9309Y82143D01*
X9327Y82157D01*
X9349Y82168D01*
X9404Y82198D01*
X9469Y82223D01*
X9546Y82249D01*
X9637Y82263D01*
X9735Y82270D01*
X9768D01*
X9808Y82267D01*
D02*
G37*
G36*
X30693Y73800D02*
X30725Y73796D01*
X30766Y73792D01*
X30806Y73789D01*
X30853Y73778D01*
X30951Y73756D01*
X31060Y73723D01*
X31115Y73701D01*
X31166Y73676D01*
X31217Y73643D01*
X31268Y73610D01*
X31271Y73607D01*
X31279Y73603D01*
X31293Y73592D01*
X31312Y73574D01*
X31330Y73556D01*
X31355Y73530D01*
X31381Y73501D01*
X31410Y73472D01*
X31439Y73435D01*
X31468Y73392D01*
X31501Y73348D01*
X31530Y73301D01*
X31555Y73246D01*
X31585Y73192D01*
X31606Y73133D01*
X31628Y73068D01*
X31301Y72991D01*
Y72995D01*
X31297Y73002D01*
X31290Y73017D01*
X31282Y73035D01*
X31275Y73057D01*
X31264Y73086D01*
X31235Y73144D01*
X31199Y73210D01*
X31155Y73275D01*
X31100Y73337D01*
X31042Y73392D01*
X31035Y73399D01*
X31013Y73414D01*
X30977Y73432D01*
X30929Y73457D01*
X30867Y73479D01*
X30798Y73501D01*
X30715Y73516D01*
X30624Y73519D01*
X30595D01*
X30576Y73516D01*
X30551D01*
X30522Y73512D01*
X30452Y73501D01*
X30376Y73486D01*
X30296Y73461D01*
X30212Y73425D01*
X30136Y73377D01*
X30132D01*
X30128Y73370D01*
X30103Y73352D01*
X30070Y73323D01*
X30030Y73279D01*
X29983Y73224D01*
X29939Y73163D01*
X29899Y73086D01*
X29863Y73002D01*
Y72999D01*
X29859Y72991D01*
X29855Y72980D01*
X29852Y72962D01*
X29845Y72940D01*
X29837Y72915D01*
X29826Y72853D01*
X29812Y72780D01*
X29797Y72700D01*
X29790Y72613D01*
X29786Y72518D01*
Y72515D01*
Y72504D01*
Y72485D01*
Y72464D01*
X29790Y72438D01*
Y72405D01*
X29794Y72369D01*
X29797Y72329D01*
X29808Y72242D01*
X29826Y72147D01*
X29848Y72052D01*
X29877Y71958D01*
Y71954D01*
X29881Y71947D01*
X29888Y71936D01*
X29896Y71918D01*
X29917Y71874D01*
X29950Y71823D01*
X29990Y71765D01*
X30041Y71703D01*
X30099Y71648D01*
X30169Y71597D01*
X30172D01*
X30180Y71594D01*
X30190Y71586D01*
X30205Y71579D01*
X30223Y71572D01*
X30245Y71561D01*
X30296Y71539D01*
X30362Y71517D01*
X30434Y71499D01*
X30514Y71484D01*
X30598Y71481D01*
X30624D01*
X30645Y71484D01*
X30671D01*
X30696Y71488D01*
X30762Y71503D01*
X30838Y71521D01*
X30915Y71550D01*
X30995Y71590D01*
X31035Y71612D01*
X31071Y71641D01*
X31075Y71645D01*
X31079Y71648D01*
X31089Y71659D01*
X31104Y71670D01*
X31119Y71688D01*
X31137Y71710D01*
X31159Y71732D01*
X31177Y71761D01*
X31199Y71794D01*
X31224Y71830D01*
X31246Y71867D01*
X31268Y71910D01*
X31286Y71958D01*
X31304Y72009D01*
X31323Y72063D01*
X31337Y72121D01*
X31672Y72038D01*
Y72034D01*
X31668Y72019D01*
X31661Y71998D01*
X31650Y71969D01*
X31639Y71936D01*
X31625Y71896D01*
X31606Y71852D01*
X31585Y71805D01*
X31534Y71703D01*
X31468Y71601D01*
X31428Y71550D01*
X31388Y71499D01*
X31344Y71455D01*
X31293Y71412D01*
X31290Y71408D01*
X31282Y71401D01*
X31264Y71393D01*
X31246Y71379D01*
X31217Y71361D01*
X31188Y71342D01*
X31148Y71324D01*
X31108Y71306D01*
X31060Y71284D01*
X31009Y71266D01*
X30955Y71248D01*
X30897Y71230D01*
X30835Y71215D01*
X30769Y71208D01*
X30700Y71201D01*
X30627Y71197D01*
X30587D01*
X30558Y71201D01*
X30525D01*
X30485Y71204D01*
X30442Y71211D01*
X30391Y71219D01*
X30285Y71237D01*
X30176Y71266D01*
X30067Y71306D01*
X30016Y71332D01*
X29965Y71361D01*
X29961Y71364D01*
X29954Y71368D01*
X29939Y71379D01*
X29925Y71393D01*
X29903Y71408D01*
X29877Y71430D01*
X29848Y71455D01*
X29819Y71484D01*
X29790Y71517D01*
X29757Y71550D01*
X29692Y71634D01*
X29630Y71732D01*
X29575Y71841D01*
Y71845D01*
X29568Y71856D01*
X29564Y71874D01*
X29553Y71896D01*
X29546Y71925D01*
X29535Y71961D01*
X29521Y72001D01*
X29510Y72045D01*
X29499Y72092D01*
X29484Y72147D01*
X29466Y72260D01*
X29452Y72387D01*
X29444Y72518D01*
Y72522D01*
Y72536D01*
Y72558D01*
X29448Y72584D01*
Y72620D01*
X29452Y72657D01*
X29455Y72704D01*
X29462Y72751D01*
X29481Y72857D01*
X29506Y72973D01*
X29542Y73090D01*
X29594Y73203D01*
X29597Y73206D01*
X29601Y73217D01*
X29608Y73232D01*
X29623Y73250D01*
X29637Y73275D01*
X29655Y73304D01*
X29703Y73370D01*
X29765Y73443D01*
X29837Y73516D01*
X29921Y73588D01*
X30019Y73650D01*
X30023Y73654D01*
X30034Y73658D01*
X30048Y73665D01*
X30067Y73676D01*
X30096Y73687D01*
X30125Y73698D01*
X30161Y73712D01*
X30201Y73727D01*
X30245Y73741D01*
X30292Y73756D01*
X30394Y73778D01*
X30511Y73796D01*
X30631Y73803D01*
X30667D01*
X30693Y73800D01*
D02*
G37*
G36*
X35214Y72129D02*
X35556D01*
Y71845D01*
X35214D01*
Y71241D01*
X34904D01*
Y71845D01*
X33809D01*
Y72129D01*
X34962Y73759D01*
X35214D01*
Y72129D01*
D02*
G37*
G36*
X32851Y73767D02*
X32880Y73763D01*
X32917Y73759D01*
X32957Y73752D01*
X32997Y73745D01*
X33092Y73719D01*
X33186Y73683D01*
X33233Y73661D01*
X33281Y73636D01*
X33325Y73603D01*
X33364Y73567D01*
X33368Y73563D01*
X33375Y73559D01*
X33383Y73545D01*
X33397Y73530D01*
X33415Y73512D01*
X33434Y73486D01*
X33452Y73461D01*
X33474Y73428D01*
X33510Y73359D01*
X33547Y73272D01*
X33561Y73228D01*
X33568Y73177D01*
X33576Y73126D01*
X33579Y73071D01*
Y73064D01*
Y73046D01*
X33576Y73017D01*
X33572Y72977D01*
X33565Y72933D01*
X33550Y72882D01*
X33536Y72828D01*
X33514Y72773D01*
X33510Y72766D01*
X33503Y72747D01*
X33488Y72718D01*
X33466Y72678D01*
X33437Y72635D01*
X33401Y72580D01*
X33357Y72526D01*
X33306Y72464D01*
X33299Y72456D01*
X33281Y72435D01*
X33263Y72416D01*
X33244Y72398D01*
X33222Y72376D01*
X33193Y72347D01*
X33164Y72318D01*
X33128Y72285D01*
X33092Y72249D01*
X33048Y72209D01*
X33000Y72169D01*
X32950Y72121D01*
X32891Y72074D01*
X32833Y72023D01*
X32829Y72019D01*
X32822Y72012D01*
X32808Y72001D01*
X32789Y71987D01*
X32768Y71965D01*
X32742Y71943D01*
X32684Y71896D01*
X32622Y71841D01*
X32564Y71787D01*
X32513Y71739D01*
X32491Y71721D01*
X32473Y71703D01*
X32469Y71699D01*
X32458Y71688D01*
X32444Y71674D01*
X32425Y71652D01*
X32407Y71626D01*
X32385Y71601D01*
X32342Y71539D01*
X33583D01*
Y71241D01*
X31912D01*
Y71244D01*
Y71259D01*
Y71281D01*
X31916Y71310D01*
X31919Y71342D01*
X31927Y71379D01*
X31934Y71415D01*
X31949Y71455D01*
Y71459D01*
X31952Y71463D01*
X31960Y71484D01*
X31974Y71517D01*
X31996Y71561D01*
X32025Y71612D01*
X32061Y71670D01*
X32101Y71728D01*
X32152Y71790D01*
Y71794D01*
X32160Y71798D01*
X32178Y71819D01*
X32211Y71852D01*
X32258Y71899D01*
X32313Y71954D01*
X32382Y72019D01*
X32465Y72092D01*
X32556Y72169D01*
X32560Y72172D01*
X32575Y72183D01*
X32596Y72202D01*
X32622Y72223D01*
X32655Y72253D01*
X32695Y72285D01*
X32735Y72322D01*
X32782Y72362D01*
X32873Y72449D01*
X32964Y72536D01*
X33008Y72580D01*
X33048Y72624D01*
X33084Y72664D01*
X33113Y72704D01*
Y72707D01*
X33121Y72711D01*
X33128Y72722D01*
X33135Y72737D01*
X33161Y72777D01*
X33190Y72824D01*
X33215Y72882D01*
X33241Y72944D01*
X33255Y73013D01*
X33263Y73079D01*
Y73082D01*
Y73086D01*
X33259Y73108D01*
X33255Y73144D01*
X33244Y73184D01*
X33230Y73235D01*
X33204Y73286D01*
X33172Y73337D01*
X33128Y73388D01*
X33121Y73395D01*
X33102Y73410D01*
X33077Y73428D01*
X33037Y73454D01*
X32986Y73475D01*
X32928Y73497D01*
X32858Y73512D01*
X32782Y73516D01*
X32760D01*
X32746Y73512D01*
X32702Y73508D01*
X32651Y73497D01*
X32596Y73483D01*
X32535Y73457D01*
X32476Y73425D01*
X32422Y73381D01*
X32414Y73374D01*
X32400Y73355D01*
X32378Y73326D01*
X32356Y73283D01*
X32331Y73232D01*
X32309Y73166D01*
X32294Y73093D01*
X32287Y73010D01*
X31970Y73042D01*
Y73046D01*
X31974Y73057D01*
Y73075D01*
X31978Y73101D01*
X31985Y73130D01*
X31992Y73163D01*
X32003Y73203D01*
X32014Y73243D01*
X32043Y73330D01*
X32087Y73417D01*
X32112Y73461D01*
X32145Y73505D01*
X32178Y73545D01*
X32214Y73581D01*
X32218Y73585D01*
X32225Y73588D01*
X32236Y73599D01*
X32254Y73610D01*
X32276Y73625D01*
X32302Y73639D01*
X32331Y73658D01*
X32367Y73676D01*
X32407Y73694D01*
X32451Y73712D01*
X32498Y73727D01*
X32549Y73741D01*
X32604Y73752D01*
X32662Y73763D01*
X32724Y73767D01*
X32789Y73770D01*
X32826D01*
X32851Y73767D01*
D02*
G37*
G36*
X13178Y26799D02*
X13211Y26796D01*
X13251Y26792D01*
X13291Y26789D01*
X13338Y26778D01*
X13437Y26756D01*
X13546Y26723D01*
X13600Y26701D01*
X13651Y26676D01*
X13702Y26643D01*
X13753Y26610D01*
X13757Y26607D01*
X13764Y26603D01*
X13779Y26592D01*
X13797Y26574D01*
X13815Y26556D01*
X13841Y26530D01*
X13866Y26501D01*
X13895Y26472D01*
X13924Y26436D01*
X13953Y26392D01*
X13986Y26348D01*
X14015Y26301D01*
X14041Y26246D01*
X14070Y26192D01*
X14092Y26133D01*
X14114Y26068D01*
X13786Y25991D01*
Y25995D01*
X13782Y26002D01*
X13775Y26017D01*
X13768Y26035D01*
X13761Y26057D01*
X13750Y26086D01*
X13721Y26144D01*
X13684Y26210D01*
X13641Y26275D01*
X13586Y26337D01*
X13528Y26392D01*
X13520Y26399D01*
X13498Y26414D01*
X13462Y26432D01*
X13415Y26457D01*
X13353Y26479D01*
X13284Y26501D01*
X13200Y26516D01*
X13109Y26519D01*
X13080D01*
X13062Y26516D01*
X13036D01*
X13007Y26512D01*
X12938Y26501D01*
X12862Y26486D01*
X12781Y26461D01*
X12698Y26425D01*
X12621Y26377D01*
X12618D01*
X12614Y26370D01*
X12588Y26352D01*
X12556Y26323D01*
X12516Y26279D01*
X12468Y26224D01*
X12425Y26162D01*
X12385Y26086D01*
X12348Y26002D01*
Y25999D01*
X12345Y25991D01*
X12341Y25980D01*
X12337Y25962D01*
X12330Y25940D01*
X12323Y25915D01*
X12312Y25853D01*
X12297Y25780D01*
X12283Y25700D01*
X12275Y25613D01*
X12272Y25518D01*
Y25515D01*
Y25504D01*
Y25485D01*
Y25464D01*
X12275Y25438D01*
Y25405D01*
X12279Y25369D01*
X12283Y25329D01*
X12294Y25242D01*
X12312Y25147D01*
X12334Y25052D01*
X12363Y24958D01*
Y24954D01*
X12366Y24947D01*
X12374Y24936D01*
X12381Y24918D01*
X12403Y24874D01*
X12436Y24823D01*
X12476Y24765D01*
X12527Y24703D01*
X12585Y24648D01*
X12654Y24597D01*
X12658D01*
X12665Y24594D01*
X12676Y24586D01*
X12690Y24579D01*
X12709Y24572D01*
X12731Y24561D01*
X12781Y24539D01*
X12847Y24517D01*
X12920Y24499D01*
X13000Y24484D01*
X13083Y24481D01*
X13109D01*
X13131Y24484D01*
X13156D01*
X13182Y24488D01*
X13247Y24503D01*
X13324Y24521D01*
X13400Y24550D01*
X13480Y24590D01*
X13520Y24612D01*
X13557Y24641D01*
X13560Y24645D01*
X13564Y24648D01*
X13575Y24659D01*
X13589Y24670D01*
X13604Y24688D01*
X13622Y24710D01*
X13644Y24732D01*
X13662Y24761D01*
X13684Y24794D01*
X13710Y24830D01*
X13732Y24867D01*
X13753Y24910D01*
X13771Y24958D01*
X13790Y25009D01*
X13808Y25063D01*
X13823Y25121D01*
X14157Y25038D01*
Y25034D01*
X14154Y25019D01*
X14146Y24998D01*
X14135Y24969D01*
X14125Y24936D01*
X14110Y24896D01*
X14092Y24852D01*
X14070Y24805D01*
X14019Y24703D01*
X13953Y24601D01*
X13914Y24550D01*
X13873Y24499D01*
X13830Y24455D01*
X13779Y24412D01*
X13775Y24408D01*
X13768Y24401D01*
X13750Y24393D01*
X13732Y24379D01*
X13702Y24361D01*
X13673Y24342D01*
X13633Y24324D01*
X13593Y24306D01*
X13546Y24284D01*
X13495Y24266D01*
X13440Y24248D01*
X13382Y24230D01*
X13320Y24215D01*
X13255Y24208D01*
X13185Y24201D01*
X13113Y24197D01*
X13073D01*
X13044Y24201D01*
X13011D01*
X12971Y24204D01*
X12927Y24211D01*
X12876Y24219D01*
X12770Y24237D01*
X12661Y24266D01*
X12552Y24306D01*
X12501Y24332D01*
X12450Y24361D01*
X12447Y24364D01*
X12439Y24368D01*
X12425Y24379D01*
X12410Y24393D01*
X12388Y24408D01*
X12363Y24430D01*
X12334Y24455D01*
X12305Y24484D01*
X12275Y24517D01*
X12243Y24550D01*
X12177Y24634D01*
X12115Y24732D01*
X12061Y24841D01*
Y24845D01*
X12053Y24856D01*
X12050Y24874D01*
X12039Y24896D01*
X12032Y24925D01*
X12021Y24961D01*
X12006Y25001D01*
X11995Y25045D01*
X11984Y25092D01*
X11970Y25147D01*
X11952Y25260D01*
X11937Y25387D01*
X11930Y25518D01*
Y25522D01*
Y25536D01*
Y25558D01*
X11933Y25584D01*
Y25620D01*
X11937Y25657D01*
X11941Y25704D01*
X11948Y25751D01*
X11966Y25857D01*
X11992Y25973D01*
X12028Y26090D01*
X12079Y26202D01*
X12083Y26206D01*
X12086Y26217D01*
X12094Y26232D01*
X12108Y26250D01*
X12123Y26275D01*
X12141Y26304D01*
X12188Y26370D01*
X12250Y26443D01*
X12323Y26516D01*
X12406Y26588D01*
X12505Y26650D01*
X12508Y26654D01*
X12519Y26658D01*
X12534Y26665D01*
X12552Y26676D01*
X12581Y26687D01*
X12610Y26698D01*
X12647Y26712D01*
X12687Y26727D01*
X12731Y26741D01*
X12778Y26756D01*
X12880Y26778D01*
X12996Y26796D01*
X13116Y26803D01*
X13153D01*
X13178Y26799D01*
D02*
G37*
G36*
X17950Y26432D02*
X16942D01*
X16807Y25751D01*
X16811Y25755D01*
X16818Y25758D01*
X16829Y25766D01*
X16847Y25777D01*
X16869Y25788D01*
X16895Y25802D01*
X16953Y25831D01*
X17026Y25860D01*
X17106Y25886D01*
X17193Y25904D01*
X17237Y25911D01*
X17317D01*
X17339Y25908D01*
X17368Y25904D01*
X17401Y25900D01*
X17437Y25893D01*
X17477Y25882D01*
X17564Y25857D01*
X17612Y25839D01*
X17659Y25813D01*
X17706Y25788D01*
X17754Y25758D01*
X17797Y25722D01*
X17841Y25682D01*
X17845Y25678D01*
X17852Y25671D01*
X17863Y25660D01*
X17877Y25642D01*
X17896Y25616D01*
X17914Y25591D01*
X17936Y25558D01*
X17957Y25522D01*
X17976Y25482D01*
X17998Y25438D01*
X18016Y25387D01*
X18034Y25336D01*
X18048Y25282D01*
X18059Y25220D01*
X18067Y25158D01*
X18070Y25092D01*
Y25089D01*
Y25078D01*
Y25060D01*
X18067Y25034D01*
X18063Y25005D01*
X18059Y24972D01*
X18052Y24932D01*
X18045Y24892D01*
X18023Y24798D01*
X17987Y24699D01*
X17965Y24648D01*
X17936Y24601D01*
X17907Y24550D01*
X17870Y24503D01*
X17866Y24499D01*
X17859Y24488D01*
X17845Y24474D01*
X17827Y24455D01*
X17801Y24433D01*
X17772Y24404D01*
X17736Y24379D01*
X17695Y24350D01*
X17652Y24321D01*
X17601Y24295D01*
X17546Y24270D01*
X17488Y24244D01*
X17426Y24226D01*
X17357Y24211D01*
X17284Y24201D01*
X17208Y24197D01*
X17175D01*
X17149Y24201D01*
X17120Y24204D01*
X17087Y24208D01*
X17048Y24211D01*
X17007Y24222D01*
X16917Y24244D01*
X16826Y24277D01*
X16778Y24299D01*
X16731Y24324D01*
X16687Y24353D01*
X16644Y24386D01*
X16640Y24390D01*
X16633Y24393D01*
X16625Y24408D01*
X16611Y24423D01*
X16592Y24441D01*
X16574Y24463D01*
X16553Y24492D01*
X16534Y24524D01*
X16512Y24557D01*
X16491Y24597D01*
X16451Y24685D01*
X16418Y24787D01*
X16407Y24841D01*
X16400Y24899D01*
X16724Y24925D01*
Y24921D01*
Y24914D01*
X16727Y24903D01*
X16731Y24885D01*
X16742Y24845D01*
X16756Y24790D01*
X16778Y24736D01*
X16807Y24674D01*
X16844Y24619D01*
X16887Y24568D01*
X16895Y24565D01*
X16909Y24550D01*
X16938Y24532D01*
X16978Y24510D01*
X17022Y24488D01*
X17077Y24470D01*
X17139Y24455D01*
X17208Y24452D01*
X17230D01*
X17244Y24455D01*
X17288Y24459D01*
X17339Y24474D01*
X17401Y24492D01*
X17462Y24521D01*
X17528Y24565D01*
X17557Y24590D01*
X17586Y24619D01*
X17590Y24623D01*
X17594Y24626D01*
X17601Y24637D01*
X17612Y24648D01*
X17637Y24688D01*
X17666Y24739D01*
X17692Y24801D01*
X17717Y24878D01*
X17736Y24969D01*
X17743Y25016D01*
Y25067D01*
Y25071D01*
Y25078D01*
Y25092D01*
X17739Y25111D01*
Y25132D01*
X17736Y25158D01*
X17725Y25216D01*
X17706Y25285D01*
X17681Y25354D01*
X17645Y25420D01*
X17594Y25482D01*
Y25485D01*
X17586Y25489D01*
X17568Y25507D01*
X17535Y25533D01*
X17492Y25562D01*
X17433Y25587D01*
X17368Y25613D01*
X17291Y25631D01*
X17248Y25638D01*
X17178D01*
X17149Y25635D01*
X17113Y25631D01*
X17069Y25620D01*
X17026Y25609D01*
X16978Y25591D01*
X16931Y25569D01*
X16927Y25565D01*
X16913Y25558D01*
X16891Y25540D01*
X16862Y25522D01*
X16833Y25496D01*
X16804Y25464D01*
X16771Y25431D01*
X16745Y25391D01*
X16454Y25431D01*
X16698Y26727D01*
X17950D01*
Y26432D01*
D02*
G37*
G36*
X15337Y26767D02*
X15366Y26763D01*
X15402Y26759D01*
X15442Y26752D01*
X15482Y26745D01*
X15577Y26719D01*
X15672Y26683D01*
X15719Y26661D01*
X15766Y26636D01*
X15810Y26603D01*
X15850Y26566D01*
X15854Y26563D01*
X15861Y26559D01*
X15868Y26545D01*
X15883Y26530D01*
X15901Y26512D01*
X15919Y26486D01*
X15937Y26461D01*
X15959Y26428D01*
X15995Y26359D01*
X16032Y26272D01*
X16047Y26228D01*
X16054Y26177D01*
X16061Y26126D01*
X16065Y26072D01*
Y26064D01*
Y26046D01*
X16061Y26017D01*
X16057Y25977D01*
X16050Y25933D01*
X16036Y25882D01*
X16021Y25828D01*
X15999Y25773D01*
X15995Y25766D01*
X15988Y25747D01*
X15974Y25718D01*
X15952Y25678D01*
X15923Y25635D01*
X15886Y25580D01*
X15843Y25526D01*
X15792Y25464D01*
X15784Y25456D01*
X15766Y25434D01*
X15748Y25416D01*
X15730Y25398D01*
X15708Y25376D01*
X15679Y25347D01*
X15650Y25318D01*
X15613Y25285D01*
X15577Y25249D01*
X15533Y25209D01*
X15486Y25169D01*
X15435Y25121D01*
X15377Y25074D01*
X15318Y25023D01*
X15315Y25019D01*
X15308Y25012D01*
X15293Y25001D01*
X15275Y24987D01*
X15253Y24965D01*
X15227Y24943D01*
X15169Y24896D01*
X15107Y24841D01*
X15049Y24787D01*
X14998Y24739D01*
X14976Y24721D01*
X14958Y24703D01*
X14954Y24699D01*
X14944Y24688D01*
X14929Y24674D01*
X14911Y24652D01*
X14893Y24626D01*
X14871Y24601D01*
X14827Y24539D01*
X16068D01*
Y24241D01*
X14398D01*
Y24244D01*
Y24259D01*
Y24281D01*
X14401Y24310D01*
X14405Y24342D01*
X14412Y24379D01*
X14419Y24415D01*
X14434Y24455D01*
Y24459D01*
X14438Y24463D01*
X14445Y24484D01*
X14459Y24517D01*
X14481Y24561D01*
X14510Y24612D01*
X14547Y24670D01*
X14587Y24728D01*
X14638Y24790D01*
Y24794D01*
X14645Y24798D01*
X14663Y24819D01*
X14696Y24852D01*
X14743Y24899D01*
X14798Y24954D01*
X14867Y25019D01*
X14951Y25092D01*
X15042Y25169D01*
X15045Y25172D01*
X15060Y25183D01*
X15082Y25201D01*
X15107Y25223D01*
X15140Y25253D01*
X15180Y25285D01*
X15220Y25322D01*
X15268Y25362D01*
X15359Y25449D01*
X15450Y25536D01*
X15493Y25580D01*
X15533Y25624D01*
X15570Y25664D01*
X15599Y25704D01*
Y25708D01*
X15606Y25711D01*
X15613Y25722D01*
X15621Y25737D01*
X15646Y25777D01*
X15675Y25824D01*
X15701Y25882D01*
X15726Y25944D01*
X15741Y26013D01*
X15748Y26079D01*
Y26082D01*
Y26086D01*
X15744Y26108D01*
X15741Y26144D01*
X15730Y26184D01*
X15715Y26235D01*
X15690Y26286D01*
X15657Y26337D01*
X15613Y26388D01*
X15606Y26395D01*
X15588Y26410D01*
X15562Y26428D01*
X15522Y26454D01*
X15471Y26476D01*
X15413Y26497D01*
X15344Y26512D01*
X15268Y26516D01*
X15246D01*
X15231Y26512D01*
X15188Y26508D01*
X15136Y26497D01*
X15082Y26483D01*
X15020Y26457D01*
X14962Y26425D01*
X14907Y26381D01*
X14900Y26374D01*
X14885Y26355D01*
X14863Y26326D01*
X14842Y26283D01*
X14816Y26232D01*
X14794Y26166D01*
X14780Y26093D01*
X14773Y26010D01*
X14456Y26042D01*
Y26046D01*
X14459Y26057D01*
Y26075D01*
X14463Y26101D01*
X14470Y26130D01*
X14478Y26162D01*
X14489Y26202D01*
X14500Y26243D01*
X14529Y26330D01*
X14572Y26417D01*
X14598Y26461D01*
X14630Y26505D01*
X14663Y26545D01*
X14700Y26581D01*
X14703Y26585D01*
X14711Y26588D01*
X14721Y26599D01*
X14740Y26610D01*
X14762Y26625D01*
X14787Y26639D01*
X14816Y26658D01*
X14853Y26676D01*
X14893Y26694D01*
X14936Y26712D01*
X14984Y26727D01*
X15035Y26741D01*
X15089Y26752D01*
X15147Y26763D01*
X15209Y26767D01*
X15275Y26770D01*
X15311D01*
X15337Y26767D01*
D02*
G37*
G36*
X75269Y66952D02*
X75294D01*
X75323Y66948D01*
X75393Y66934D01*
X75469Y66915D01*
X75549Y66886D01*
X75629Y66843D01*
X75669Y66817D01*
X75706Y66788D01*
X75709Y66784D01*
X75713Y66781D01*
X75724Y66770D01*
X75735Y66759D01*
X75753Y66741D01*
X75767Y66719D01*
X75807Y66668D01*
X75848Y66602D01*
X75884Y66522D01*
X75917Y66431D01*
X75938Y66329D01*
X75629Y66304D01*
Y66307D01*
X75625Y66311D01*
X75622Y66333D01*
X75611Y66366D01*
X75596Y66406D01*
X75582Y66449D01*
X75560Y66493D01*
X75534Y66533D01*
X75509Y66566D01*
X75502Y66573D01*
X75487Y66588D01*
X75462Y66610D01*
X75425Y66635D01*
X75378Y66657D01*
X75327Y66679D01*
X75265Y66693D01*
X75200Y66701D01*
X75174D01*
X75145Y66697D01*
X75112Y66690D01*
X75069Y66679D01*
X75025Y66664D01*
X74981Y66646D01*
X74937Y66617D01*
X74930Y66613D01*
X74912Y66599D01*
X74887Y66573D01*
X74854Y66537D01*
X74817Y66493D01*
X74777Y66442D01*
X74741Y66377D01*
X74705Y66304D01*
Y66300D01*
X74701Y66293D01*
X74697Y66282D01*
X74690Y66267D01*
X74686Y66246D01*
X74679Y66220D01*
X74672Y66191D01*
X74664Y66155D01*
X74654Y66115D01*
X74646Y66071D01*
X74639Y66024D01*
X74635Y65973D01*
X74628Y65914D01*
X74625Y65856D01*
X74621Y65791D01*
Y65725D01*
X74625Y65729D01*
X74639Y65751D01*
X74664Y65780D01*
X74697Y65816D01*
X74734Y65860D01*
X74781Y65900D01*
X74832Y65940D01*
X74890Y65976D01*
X74894D01*
X74897Y65980D01*
X74919Y65991D01*
X74952Y66002D01*
X74996Y66020D01*
X75047Y66035D01*
X75105Y66045D01*
X75167Y66056D01*
X75232Y66060D01*
X75261D01*
X75283Y66056D01*
X75312Y66053D01*
X75342Y66049D01*
X75378Y66042D01*
X75414Y66031D01*
X75498Y66005D01*
X75542Y65987D01*
X75585Y65962D01*
X75629Y65936D01*
X75676Y65907D01*
X75720Y65871D01*
X75760Y65831D01*
X75764Y65827D01*
X75771Y65820D01*
X75782Y65809D01*
X75793Y65791D01*
X75811Y65765D01*
X75829Y65740D01*
X75848Y65707D01*
X75869Y65671D01*
X75891Y65630D01*
X75909Y65587D01*
X75928Y65536D01*
X75946Y65485D01*
X75957Y65430D01*
X75968Y65368D01*
X75975Y65307D01*
X75979Y65241D01*
Y65237D01*
Y65230D01*
Y65219D01*
Y65201D01*
X75975Y65179D01*
Y65157D01*
X75964Y65099D01*
X75953Y65030D01*
X75935Y64957D01*
X75909Y64877D01*
X75873Y64801D01*
Y64797D01*
X75869Y64793D01*
X75862Y64782D01*
X75855Y64768D01*
X75833Y64731D01*
X75800Y64684D01*
X75760Y64633D01*
X75713Y64582D01*
X75655Y64531D01*
X75593Y64487D01*
X75589D01*
X75585Y64484D01*
X75574Y64477D01*
X75560Y64473D01*
X75524Y64455D01*
X75476Y64437D01*
X75414Y64415D01*
X75345Y64400D01*
X75269Y64386D01*
X75185Y64382D01*
X75167D01*
X75149Y64386D01*
X75120D01*
X75087Y64389D01*
X75050Y64397D01*
X75007Y64407D01*
X74963Y64418D01*
X74912Y64433D01*
X74861Y64451D01*
X74810Y64473D01*
X74756Y64502D01*
X74705Y64535D01*
X74654Y64571D01*
X74603Y64615D01*
X74555Y64666D01*
X74552Y64670D01*
X74544Y64680D01*
X74533Y64695D01*
X74519Y64720D01*
X74497Y64753D01*
X74479Y64790D01*
X74457Y64837D01*
X74435Y64888D01*
X74410Y64950D01*
X74388Y65019D01*
X74370Y65095D01*
X74352Y65179D01*
X74333Y65274D01*
X74322Y65376D01*
X74315Y65485D01*
X74311Y65601D01*
Y65605D01*
Y65609D01*
Y65619D01*
Y65634D01*
X74315Y65671D01*
Y65721D01*
X74319Y65780D01*
X74326Y65849D01*
X74333Y65925D01*
X74344Y66009D01*
X74359Y66093D01*
X74377Y66184D01*
X74399Y66271D01*
X74424Y66358D01*
X74457Y66442D01*
X74493Y66522D01*
X74533Y66599D01*
X74581Y66664D01*
X74584Y66668D01*
X74592Y66675D01*
X74606Y66690D01*
X74625Y66711D01*
X74646Y66733D01*
X74675Y66755D01*
X74712Y66784D01*
X74748Y66810D01*
X74792Y66835D01*
X74839Y66864D01*
X74894Y66886D01*
X74948Y66912D01*
X75010Y66930D01*
X75076Y66944D01*
X75145Y66952D01*
X75218Y66955D01*
X75247D01*
X75269Y66952D01*
D02*
G37*
G36*
X71105Y66984D02*
X71137Y66981D01*
X71177Y66977D01*
X71217Y66974D01*
X71265Y66963D01*
X71363Y66941D01*
X71472Y66908D01*
X71527Y66886D01*
X71578Y66861D01*
X71629Y66828D01*
X71680Y66795D01*
X71683Y66792D01*
X71691Y66788D01*
X71705Y66777D01*
X71723Y66759D01*
X71742Y66741D01*
X71767Y66715D01*
X71793Y66686D01*
X71822Y66657D01*
X71851Y66620D01*
X71880Y66577D01*
X71913Y66533D01*
X71942Y66486D01*
X71967Y66431D01*
X71996Y66377D01*
X72018Y66318D01*
X72040Y66253D01*
X71712Y66176D01*
Y66180D01*
X71709Y66187D01*
X71702Y66202D01*
X71694Y66220D01*
X71687Y66242D01*
X71676Y66271D01*
X71647Y66329D01*
X71611Y66395D01*
X71567Y66460D01*
X71512Y66522D01*
X71454Y66577D01*
X71447Y66584D01*
X71425Y66599D01*
X71389Y66617D01*
X71341Y66642D01*
X71279Y66664D01*
X71210Y66686D01*
X71126Y66701D01*
X71035Y66704D01*
X71006D01*
X70988Y66701D01*
X70963D01*
X70934Y66697D01*
X70864Y66686D01*
X70788Y66672D01*
X70708Y66646D01*
X70624Y66610D01*
X70548Y66562D01*
X70544D01*
X70540Y66555D01*
X70515Y66537D01*
X70482Y66508D01*
X70442Y66464D01*
X70395Y66409D01*
X70351Y66347D01*
X70311Y66271D01*
X70275Y66187D01*
Y66184D01*
X70271Y66176D01*
X70267Y66166D01*
X70264Y66147D01*
X70257Y66126D01*
X70249Y66100D01*
X70238Y66038D01*
X70224Y65965D01*
X70209Y65885D01*
X70202Y65798D01*
X70198Y65703D01*
Y65700D01*
Y65689D01*
Y65671D01*
Y65649D01*
X70202Y65623D01*
Y65590D01*
X70205Y65554D01*
X70209Y65514D01*
X70220Y65427D01*
X70238Y65332D01*
X70260Y65237D01*
X70289Y65143D01*
Y65139D01*
X70293Y65132D01*
X70300Y65121D01*
X70307Y65103D01*
X70329Y65059D01*
X70362Y65008D01*
X70402Y64950D01*
X70453Y64888D01*
X70511Y64833D01*
X70580Y64782D01*
X70584D01*
X70591Y64779D01*
X70602Y64771D01*
X70617Y64764D01*
X70635Y64757D01*
X70657Y64746D01*
X70708Y64724D01*
X70773Y64702D01*
X70846Y64684D01*
X70926Y64670D01*
X71010Y64666D01*
X71035D01*
X71057Y64670D01*
X71083D01*
X71108Y64673D01*
X71174Y64688D01*
X71250Y64706D01*
X71327Y64735D01*
X71407Y64775D01*
X71447Y64797D01*
X71483Y64826D01*
X71487Y64830D01*
X71490Y64833D01*
X71501Y64844D01*
X71516Y64855D01*
X71530Y64873D01*
X71549Y64895D01*
X71570Y64917D01*
X71589Y64946D01*
X71611Y64979D01*
X71636Y65015D01*
X71658Y65052D01*
X71680Y65095D01*
X71698Y65143D01*
X71716Y65194D01*
X71734Y65248D01*
X71749Y65307D01*
X72084Y65223D01*
Y65219D01*
X72080Y65205D01*
X72073Y65183D01*
X72062Y65154D01*
X72051Y65121D01*
X72036Y65081D01*
X72018Y65037D01*
X71996Y64990D01*
X71945Y64888D01*
X71880Y64786D01*
X71840Y64735D01*
X71800Y64684D01*
X71756Y64640D01*
X71705Y64597D01*
X71702Y64593D01*
X71694Y64586D01*
X71676Y64578D01*
X71658Y64564D01*
X71629Y64546D01*
X71600Y64527D01*
X71560Y64509D01*
X71520Y64491D01*
X71472Y64469D01*
X71421Y64451D01*
X71367Y64433D01*
X71308Y64415D01*
X71247Y64400D01*
X71181Y64393D01*
X71112Y64386D01*
X71039Y64382D01*
X70999D01*
X70970Y64386D01*
X70937D01*
X70897Y64389D01*
X70853Y64397D01*
X70802Y64404D01*
X70697Y64422D01*
X70588Y64451D01*
X70478Y64491D01*
X70428Y64517D01*
X70377Y64546D01*
X70373Y64549D01*
X70366Y64553D01*
X70351Y64564D01*
X70337Y64578D01*
X70315Y64593D01*
X70289Y64615D01*
X70260Y64640D01*
X70231Y64670D01*
X70202Y64702D01*
X70169Y64735D01*
X70104Y64819D01*
X70042Y64917D01*
X69987Y65026D01*
Y65030D01*
X69980Y65041D01*
X69976Y65059D01*
X69965Y65081D01*
X69958Y65110D01*
X69947Y65146D01*
X69933Y65186D01*
X69922Y65230D01*
X69911Y65277D01*
X69896Y65332D01*
X69878Y65445D01*
X69863Y65572D01*
X69856Y65703D01*
Y65707D01*
Y65721D01*
Y65743D01*
X69860Y65769D01*
Y65805D01*
X69863Y65842D01*
X69867Y65889D01*
X69874Y65936D01*
X69893Y66042D01*
X69918Y66158D01*
X69954Y66275D01*
X70005Y66388D01*
X70009Y66391D01*
X70013Y66402D01*
X70020Y66417D01*
X70034Y66435D01*
X70049Y66460D01*
X70067Y66489D01*
X70114Y66555D01*
X70176Y66628D01*
X70249Y66701D01*
X70333Y66773D01*
X70431Y66835D01*
X70435Y66839D01*
X70446Y66843D01*
X70460Y66850D01*
X70478Y66861D01*
X70508Y66872D01*
X70537Y66883D01*
X70573Y66897D01*
X70613Y66912D01*
X70657Y66926D01*
X70704Y66941D01*
X70806Y66963D01*
X70923Y66981D01*
X71043Y66988D01*
X71079D01*
X71105Y66984D01*
D02*
G37*
G36*
X73263Y66952D02*
X73292Y66948D01*
X73329Y66944D01*
X73369Y66937D01*
X73409Y66930D01*
X73503Y66904D01*
X73598Y66868D01*
X73645Y66846D01*
X73693Y66821D01*
X73736Y66788D01*
X73776Y66752D01*
X73780Y66748D01*
X73787Y66744D01*
X73795Y66730D01*
X73809Y66715D01*
X73827Y66697D01*
X73845Y66672D01*
X73864Y66646D01*
X73886Y66613D01*
X73922Y66544D01*
X73958Y66457D01*
X73973Y66413D01*
X73980Y66362D01*
X73988Y66311D01*
X73991Y66256D01*
Y66249D01*
Y66231D01*
X73988Y66202D01*
X73984Y66162D01*
X73977Y66118D01*
X73962Y66067D01*
X73947Y66013D01*
X73926Y65958D01*
X73922Y65951D01*
X73915Y65933D01*
X73900Y65903D01*
X73878Y65863D01*
X73849Y65820D01*
X73813Y65765D01*
X73769Y65711D01*
X73718Y65649D01*
X73711Y65641D01*
X73693Y65619D01*
X73674Y65601D01*
X73656Y65583D01*
X73634Y65561D01*
X73605Y65532D01*
X73576Y65503D01*
X73540Y65470D01*
X73503Y65434D01*
X73460Y65394D01*
X73412Y65354D01*
X73361Y65307D01*
X73303Y65259D01*
X73245Y65208D01*
X73241Y65205D01*
X73234Y65197D01*
X73219Y65186D01*
X73201Y65172D01*
X73179Y65150D01*
X73154Y65128D01*
X73096Y65081D01*
X73034Y65026D01*
X72976Y64972D01*
X72925Y64924D01*
X72903Y64906D01*
X72885Y64888D01*
X72881Y64884D01*
X72870Y64873D01*
X72855Y64859D01*
X72837Y64837D01*
X72819Y64811D01*
X72797Y64786D01*
X72754Y64724D01*
X73995D01*
Y64426D01*
X72324D01*
Y64429D01*
Y64444D01*
Y64466D01*
X72328Y64495D01*
X72331Y64527D01*
X72339Y64564D01*
X72346Y64600D01*
X72360Y64640D01*
Y64644D01*
X72364Y64648D01*
X72371Y64670D01*
X72386Y64702D01*
X72408Y64746D01*
X72437Y64797D01*
X72473Y64855D01*
X72513Y64913D01*
X72564Y64975D01*
Y64979D01*
X72571Y64982D01*
X72590Y65004D01*
X72623Y65037D01*
X72670Y65084D01*
X72724Y65139D01*
X72794Y65205D01*
X72877Y65277D01*
X72968Y65354D01*
X72972Y65357D01*
X72987Y65368D01*
X73008Y65387D01*
X73034Y65408D01*
X73067Y65438D01*
X73107Y65470D01*
X73147Y65507D01*
X73194Y65547D01*
X73285Y65634D01*
X73376Y65721D01*
X73420Y65765D01*
X73460Y65809D01*
X73496Y65849D01*
X73525Y65889D01*
Y65892D01*
X73532Y65896D01*
X73540Y65907D01*
X73547Y65922D01*
X73572Y65962D01*
X73602Y66009D01*
X73627Y66067D01*
X73653Y66129D01*
X73667Y66198D01*
X73674Y66264D01*
Y66267D01*
Y66271D01*
X73671Y66293D01*
X73667Y66329D01*
X73656Y66369D01*
X73642Y66420D01*
X73616Y66471D01*
X73583Y66522D01*
X73540Y66573D01*
X73532Y66580D01*
X73514Y66595D01*
X73489Y66613D01*
X73449Y66639D01*
X73398Y66661D01*
X73340Y66682D01*
X73270Y66697D01*
X73194Y66701D01*
X73172D01*
X73158Y66697D01*
X73114Y66693D01*
X73063Y66682D01*
X73008Y66668D01*
X72946Y66642D01*
X72888Y66610D01*
X72834Y66566D01*
X72826Y66559D01*
X72812Y66540D01*
X72790Y66511D01*
X72768Y66468D01*
X72743Y66417D01*
X72721Y66351D01*
X72706Y66278D01*
X72699Y66195D01*
X72382Y66227D01*
Y66231D01*
X72386Y66242D01*
Y66260D01*
X72390Y66286D01*
X72397Y66315D01*
X72404Y66347D01*
X72415Y66388D01*
X72426Y66428D01*
X72455Y66515D01*
X72499Y66602D01*
X72524Y66646D01*
X72557Y66690D01*
X72590Y66730D01*
X72626Y66766D01*
X72630Y66770D01*
X72637Y66773D01*
X72648Y66784D01*
X72666Y66795D01*
X72688Y66810D01*
X72714Y66824D01*
X72743Y66843D01*
X72779Y66861D01*
X72819Y66879D01*
X72863Y66897D01*
X72910Y66912D01*
X72961Y66926D01*
X73016Y66937D01*
X73074Y66948D01*
X73136Y66952D01*
X73201Y66955D01*
X73238D01*
X73263Y66952D01*
D02*
G37*
G36*
X40379Y71005D02*
Y71001D01*
Y70987D01*
Y70969D01*
Y70943D01*
X40376Y70910D01*
Y70874D01*
X40372Y70830D01*
X40368Y70786D01*
X40357Y70688D01*
X40343Y70586D01*
X40321Y70488D01*
X40306Y70441D01*
X40292Y70397D01*
Y70393D01*
X40288Y70386D01*
X40281Y70375D01*
X40273Y70361D01*
X40252Y70320D01*
X40219Y70270D01*
X40175Y70211D01*
X40124Y70153D01*
X40059Y70091D01*
X39979Y70037D01*
X39975D01*
X39968Y70029D01*
X39957Y70026D01*
X39939Y70015D01*
X39917Y70004D01*
X39888Y69993D01*
X39859Y69982D01*
X39822Y69968D01*
X39782Y69953D01*
X39739Y69942D01*
X39691Y69931D01*
X39636Y69920D01*
X39582Y69913D01*
X39524Y69906D01*
X39393Y69898D01*
X39360D01*
X39334Y69902D01*
X39305D01*
X39269Y69906D01*
X39229Y69909D01*
X39189Y69913D01*
X39098Y69927D01*
X39000Y69949D01*
X38905Y69978D01*
X38814Y70018D01*
X38810D01*
X38803Y70026D01*
X38792Y70033D01*
X38778Y70040D01*
X38737Y70069D01*
X38690Y70109D01*
X38636Y70160D01*
X38585Y70219D01*
X38534Y70291D01*
X38494Y70372D01*
Y70375D01*
X38490Y70382D01*
X38486Y70397D01*
X38479Y70415D01*
X38472Y70437D01*
X38464Y70466D01*
X38454Y70499D01*
X38446Y70539D01*
X38439Y70583D01*
X38428Y70630D01*
X38421Y70681D01*
X38414Y70736D01*
X38406Y70797D01*
X38403Y70863D01*
X38399Y70932D01*
Y71005D01*
Y72461D01*
X38734D01*
Y71005D01*
Y71001D01*
Y70990D01*
Y70972D01*
Y70950D01*
X38737Y70925D01*
Y70892D01*
X38741Y70823D01*
X38748Y70743D01*
X38759Y70663D01*
X38774Y70586D01*
X38781Y70553D01*
X38792Y70521D01*
X38796Y70513D01*
X38803Y70495D01*
X38821Y70470D01*
X38843Y70433D01*
X38868Y70397D01*
X38905Y70357D01*
X38949Y70317D01*
X39000Y70284D01*
X39007Y70280D01*
X39025Y70270D01*
X39058Y70259D01*
X39101Y70244D01*
X39152Y70226D01*
X39218Y70215D01*
X39287Y70204D01*
X39364Y70200D01*
X39400D01*
X39422Y70204D01*
X39454D01*
X39487Y70208D01*
X39567Y70222D01*
X39655Y70240D01*
X39739Y70270D01*
X39819Y70310D01*
X39855Y70335D01*
X39888Y70364D01*
X39891Y70368D01*
X39895Y70372D01*
X39902Y70382D01*
X39913Y70397D01*
X39924Y70419D01*
X39939Y70441D01*
X39953Y70473D01*
X39968Y70506D01*
X39982Y70546D01*
X39993Y70594D01*
X40008Y70648D01*
X40019Y70706D01*
X40030Y70772D01*
X40037Y70841D01*
X40044Y70921D01*
Y71005D01*
Y72461D01*
X40379D01*
Y71005D01*
D02*
G37*
G36*
X41704Y72468D02*
X41733Y72465D01*
X41770Y72461D01*
X41810Y72454D01*
X41850Y72446D01*
X41944Y72421D01*
X42039Y72384D01*
X42086Y72363D01*
X42134Y72337D01*
X42177Y72304D01*
X42217Y72268D01*
X42221Y72264D01*
X42228Y72261D01*
X42235Y72246D01*
X42250Y72232D01*
X42268Y72213D01*
X42287Y72188D01*
X42305Y72162D01*
X42327Y72130D01*
X42363Y72061D01*
X42399Y71973D01*
X42414Y71929D01*
X42421Y71878D01*
X42428Y71828D01*
X42432Y71773D01*
Y71766D01*
Y71747D01*
X42428Y71718D01*
X42425Y71678D01*
X42417Y71635D01*
X42403Y71584D01*
X42388Y71529D01*
X42366Y71474D01*
X42363Y71467D01*
X42356Y71449D01*
X42341Y71420D01*
X42319Y71380D01*
X42290Y71336D01*
X42254Y71281D01*
X42210Y71227D01*
X42159Y71165D01*
X42152Y71158D01*
X42134Y71136D01*
X42115Y71118D01*
X42097Y71100D01*
X42075Y71078D01*
X42046Y71048D01*
X42017Y71019D01*
X41981Y70987D01*
X41944Y70950D01*
X41901Y70910D01*
X41853Y70870D01*
X41802Y70823D01*
X41744Y70776D01*
X41686Y70725D01*
X41682Y70721D01*
X41675Y70714D01*
X41660Y70703D01*
X41642Y70688D01*
X41620Y70666D01*
X41595Y70644D01*
X41537Y70597D01*
X41475Y70543D01*
X41416Y70488D01*
X41366Y70441D01*
X41344Y70423D01*
X41326Y70404D01*
X41322Y70401D01*
X41311Y70390D01*
X41296Y70375D01*
X41278Y70353D01*
X41260Y70328D01*
X41238Y70302D01*
X41194Y70240D01*
X42436D01*
Y69942D01*
X40765D01*
Y69946D01*
Y69960D01*
Y69982D01*
X40769Y70011D01*
X40772Y70044D01*
X40780Y70080D01*
X40787Y70117D01*
X40801Y70157D01*
Y70160D01*
X40805Y70164D01*
X40812Y70186D01*
X40827Y70219D01*
X40849Y70262D01*
X40878Y70313D01*
X40914Y70372D01*
X40954Y70430D01*
X41005Y70492D01*
Y70495D01*
X41012Y70499D01*
X41031Y70521D01*
X41063Y70553D01*
X41111Y70601D01*
X41165Y70655D01*
X41234Y70721D01*
X41318Y70794D01*
X41409Y70870D01*
X41413Y70874D01*
X41427Y70885D01*
X41449Y70903D01*
X41475Y70925D01*
X41508Y70954D01*
X41548Y70987D01*
X41588Y71023D01*
X41635Y71063D01*
X41726Y71150D01*
X41817Y71238D01*
X41861Y71281D01*
X41901Y71325D01*
X41937Y71365D01*
X41966Y71405D01*
Y71409D01*
X41973Y71412D01*
X41981Y71424D01*
X41988Y71438D01*
X42013Y71478D01*
X42043Y71525D01*
X42068Y71584D01*
X42094Y71645D01*
X42108Y71715D01*
X42115Y71780D01*
Y71784D01*
Y71788D01*
X42112Y71809D01*
X42108Y71846D01*
X42097Y71886D01*
X42083Y71937D01*
X42057Y71988D01*
X42024Y72039D01*
X41981Y72090D01*
X41973Y72097D01*
X41955Y72111D01*
X41930Y72130D01*
X41890Y72155D01*
X41839Y72177D01*
X41780Y72199D01*
X41711Y72213D01*
X41635Y72217D01*
X41613D01*
X41598Y72213D01*
X41555Y72210D01*
X41504Y72199D01*
X41449Y72184D01*
X41387Y72159D01*
X41329Y72126D01*
X41274Y72082D01*
X41267Y72075D01*
X41253Y72057D01*
X41231Y72028D01*
X41209Y71984D01*
X41184Y71933D01*
X41162Y71868D01*
X41147Y71795D01*
X41140Y71711D01*
X40823Y71744D01*
Y71747D01*
X40827Y71758D01*
Y71776D01*
X40830Y71802D01*
X40838Y71831D01*
X40845Y71864D01*
X40856Y71904D01*
X40867Y71944D01*
X40896Y72031D01*
X40940Y72119D01*
X40965Y72162D01*
X40998Y72206D01*
X41031Y72246D01*
X41067Y72282D01*
X41071Y72286D01*
X41078Y72290D01*
X41089Y72301D01*
X41107Y72312D01*
X41129Y72326D01*
X41154Y72341D01*
X41184Y72359D01*
X41220Y72377D01*
X41260Y72395D01*
X41304Y72413D01*
X41351Y72428D01*
X41402Y72443D01*
X41456Y72454D01*
X41515Y72465D01*
X41577Y72468D01*
X41642Y72472D01*
X41679D01*
X41704Y72468D01*
D02*
G37*
G36*
X31479Y76235D02*
X31144D01*
Y77422D01*
X29841D01*
Y76235D01*
X29506D01*
Y78754D01*
X29841D01*
Y77720D01*
X31144D01*
Y78754D01*
X31479D01*
Y76235D01*
D02*
G37*
G36*
X34762Y78761D02*
X34791Y78758D01*
X34828Y78754D01*
X34868Y78747D01*
X34908Y78739D01*
X35002Y78714D01*
X35097Y78677D01*
X35144Y78656D01*
X35192Y78630D01*
X35236Y78597D01*
X35276Y78561D01*
X35279Y78557D01*
X35286Y78554D01*
X35294Y78539D01*
X35308Y78525D01*
X35326Y78506D01*
X35345Y78481D01*
X35363Y78456D01*
X35385Y78423D01*
X35421Y78354D01*
X35458Y78266D01*
X35472Y78223D01*
X35479Y78172D01*
X35487Y78121D01*
X35490Y78066D01*
Y78059D01*
Y78040D01*
X35487Y78011D01*
X35483Y77971D01*
X35476Y77928D01*
X35461Y77877D01*
X35447Y77822D01*
X35425Y77767D01*
X35421Y77760D01*
X35414Y77742D01*
X35399Y77713D01*
X35377Y77673D01*
X35348Y77629D01*
X35312Y77575D01*
X35268Y77520D01*
X35217Y77458D01*
X35210Y77451D01*
X35192Y77429D01*
X35174Y77411D01*
X35155Y77393D01*
X35133Y77371D01*
X35104Y77342D01*
X35075Y77312D01*
X35039Y77280D01*
X35002Y77243D01*
X34959Y77203D01*
X34912Y77163D01*
X34861Y77116D01*
X34802Y77069D01*
X34744Y77018D01*
X34740Y77014D01*
X34733Y77007D01*
X34719Y76996D01*
X34700Y76981D01*
X34679Y76960D01*
X34653Y76938D01*
X34595Y76890D01*
X34533Y76836D01*
X34475Y76781D01*
X34424Y76734D01*
X34402Y76716D01*
X34384Y76697D01*
X34380Y76694D01*
X34369Y76683D01*
X34355Y76668D01*
X34336Y76646D01*
X34318Y76621D01*
X34296Y76595D01*
X34253Y76534D01*
X35494D01*
Y76235D01*
X33823D01*
Y76239D01*
Y76253D01*
Y76275D01*
X33827Y76304D01*
X33830Y76337D01*
X33838Y76373D01*
X33845Y76410D01*
X33860Y76450D01*
Y76454D01*
X33863Y76457D01*
X33871Y76479D01*
X33885Y76512D01*
X33907Y76555D01*
X33936Y76606D01*
X33972Y76665D01*
X34012Y76723D01*
X34063Y76785D01*
Y76788D01*
X34071Y76792D01*
X34089Y76814D01*
X34122Y76847D01*
X34169Y76894D01*
X34223Y76948D01*
X34293Y77014D01*
X34376Y77087D01*
X34467Y77163D01*
X34471Y77167D01*
X34486Y77178D01*
X34508Y77196D01*
X34533Y77218D01*
X34566Y77247D01*
X34606Y77280D01*
X34646Y77316D01*
X34693Y77356D01*
X34784Y77444D01*
X34875Y77531D01*
X34919Y77575D01*
X34959Y77618D01*
X34995Y77658D01*
X35024Y77698D01*
Y77702D01*
X35032Y77706D01*
X35039Y77717D01*
X35046Y77731D01*
X35072Y77771D01*
X35101Y77819D01*
X35126Y77877D01*
X35152Y77939D01*
X35166Y78008D01*
X35174Y78073D01*
Y78077D01*
Y78081D01*
X35170Y78102D01*
X35166Y78139D01*
X35155Y78179D01*
X35141Y78230D01*
X35115Y78281D01*
X35083Y78332D01*
X35039Y78383D01*
X35032Y78390D01*
X35013Y78404D01*
X34988Y78423D01*
X34948Y78448D01*
X34897Y78470D01*
X34839Y78492D01*
X34769Y78506D01*
X34693Y78510D01*
X34671D01*
X34657Y78506D01*
X34613Y78503D01*
X34562Y78492D01*
X34508Y78477D01*
X34446Y78452D01*
X34387Y78419D01*
X34333Y78375D01*
X34326Y78368D01*
X34311Y78350D01*
X34289Y78321D01*
X34267Y78277D01*
X34242Y78226D01*
X34220Y78161D01*
X34205Y78088D01*
X34198Y78004D01*
X33881Y78037D01*
Y78040D01*
X33885Y78052D01*
Y78070D01*
X33889Y78095D01*
X33896Y78124D01*
X33903Y78157D01*
X33914Y78197D01*
X33925Y78237D01*
X33954Y78325D01*
X33998Y78412D01*
X34023Y78456D01*
X34056Y78499D01*
X34089Y78539D01*
X34125Y78576D01*
X34129Y78579D01*
X34136Y78583D01*
X34147Y78594D01*
X34165Y78605D01*
X34187Y78619D01*
X34213Y78634D01*
X34242Y78652D01*
X34278Y78670D01*
X34318Y78689D01*
X34362Y78707D01*
X34409Y78721D01*
X34460Y78736D01*
X34515Y78747D01*
X34573Y78758D01*
X34635Y78761D01*
X34700Y78765D01*
X34737D01*
X34762Y78761D01*
D02*
G37*
G36*
X32356Y76534D02*
X33597D01*
Y76235D01*
X32021D01*
Y78754D01*
X32356D01*
Y76534D01*
D02*
G37*
G36*
X52654Y28299D02*
X52683D01*
X52752Y28292D01*
X52828Y28281D01*
X52908Y28263D01*
X52996Y28241D01*
X53080Y28212D01*
X53083D01*
X53091Y28209D01*
X53101Y28205D01*
X53116Y28198D01*
X53156Y28176D01*
X53207Y28150D01*
X53262Y28114D01*
X53320Y28070D01*
X53374Y28023D01*
X53425Y27965D01*
X53433Y27957D01*
X53447Y27935D01*
X53469Y27903D01*
X53498Y27855D01*
X53527Y27797D01*
X53560Y27724D01*
X53593Y27644D01*
X53618Y27553D01*
X53316Y27473D01*
Y27477D01*
X53312Y27481D01*
X53309Y27491D01*
X53305Y27506D01*
X53294Y27539D01*
X53280Y27582D01*
X53258Y27633D01*
X53233Y27681D01*
X53207Y27732D01*
X53174Y27775D01*
X53171Y27779D01*
X53160Y27793D01*
X53138Y27812D01*
X53112Y27837D01*
X53080Y27866D01*
X53036Y27895D01*
X52989Y27925D01*
X52934Y27950D01*
X52927Y27954D01*
X52908Y27961D01*
X52876Y27972D01*
X52832Y27986D01*
X52781Y27997D01*
X52723Y28008D01*
X52657Y28016D01*
X52588Y28019D01*
X52548D01*
X52530Y28016D01*
X52508D01*
X52454Y28012D01*
X52392Y28001D01*
X52323Y27990D01*
X52257Y27972D01*
X52191Y27946D01*
X52184Y27943D01*
X52162Y27935D01*
X52133Y27917D01*
X52097Y27899D01*
X52053Y27870D01*
X52006Y27841D01*
X51962Y27804D01*
X51922Y27764D01*
X51918Y27761D01*
X51904Y27746D01*
X51886Y27721D01*
X51864Y27692D01*
X51838Y27655D01*
X51813Y27612D01*
X51787Y27564D01*
X51762Y27513D01*
Y27510D01*
X51758Y27502D01*
X51755Y27491D01*
X51747Y27473D01*
X51740Y27451D01*
X51733Y27426D01*
X51722Y27397D01*
X51715Y27364D01*
X51696Y27288D01*
X51682Y27200D01*
X51671Y27109D01*
X51667Y27007D01*
Y27004D01*
Y26993D01*
Y26974D01*
X51671Y26953D01*
Y26924D01*
X51674Y26887D01*
X51678Y26851D01*
X51682Y26811D01*
X51696Y26720D01*
X51715Y26625D01*
X51744Y26530D01*
X51780Y26439D01*
Y26436D01*
X51787Y26428D01*
X51791Y26418D01*
X51802Y26403D01*
X51827Y26363D01*
X51868Y26312D01*
X51915Y26257D01*
X51973Y26203D01*
X52042Y26152D01*
X52119Y26105D01*
X52122D01*
X52130Y26101D01*
X52140Y26094D01*
X52159Y26086D01*
X52177Y26079D01*
X52202Y26072D01*
X52261Y26050D01*
X52333Y26032D01*
X52413Y26014D01*
X52501Y25999D01*
X52592Y25995D01*
X52628D01*
X52650Y25999D01*
X52672D01*
X52727Y26006D01*
X52792Y26014D01*
X52861Y26028D01*
X52938Y26050D01*
X53014Y26075D01*
X53018D01*
X53025Y26079D01*
X53032Y26083D01*
X53047Y26090D01*
X53087Y26108D01*
X53131Y26130D01*
X53181Y26155D01*
X53236Y26185D01*
X53287Y26217D01*
X53331Y26254D01*
Y26727D01*
X52588D01*
Y27025D01*
X53658D01*
Y26090D01*
X53655Y26086D01*
X53647Y26083D01*
X53633Y26072D01*
X53615Y26057D01*
X53593Y26043D01*
X53567Y26024D01*
X53535Y26003D01*
X53502Y25981D01*
X53425Y25934D01*
X53338Y25883D01*
X53247Y25835D01*
X53149Y25795D01*
X53145D01*
X53138Y25791D01*
X53123Y25788D01*
X53105Y25781D01*
X53080Y25773D01*
X53051Y25762D01*
X53018Y25755D01*
X52985Y25748D01*
X52905Y25730D01*
X52814Y25711D01*
X52716Y25701D01*
X52614Y25697D01*
X52577D01*
X52552Y25701D01*
X52519D01*
X52479Y25704D01*
X52435Y25711D01*
X52388Y25715D01*
X52282Y25737D01*
X52170Y25762D01*
X52053Y25802D01*
X51995Y25824D01*
X51937Y25853D01*
X51933Y25857D01*
X51922Y25861D01*
X51907Y25872D01*
X51886Y25883D01*
X51860Y25901D01*
X51835Y25919D01*
X51766Y25970D01*
X51693Y26035D01*
X51616Y26116D01*
X51543Y26206D01*
X51478Y26312D01*
Y26316D01*
X51471Y26327D01*
X51463Y26341D01*
X51452Y26367D01*
X51442Y26392D01*
X51431Y26428D01*
X51416Y26465D01*
X51402Y26509D01*
X51387Y26556D01*
X51372Y26610D01*
X51362Y26665D01*
X51351Y26723D01*
X51332Y26851D01*
X51325Y26985D01*
Y26989D01*
Y27004D01*
Y27022D01*
X51329Y27047D01*
Y27080D01*
X51332Y27120D01*
X51340Y27160D01*
X51343Y27207D01*
X51354Y27258D01*
X51362Y27313D01*
X51391Y27430D01*
X51427Y27550D01*
X51478Y27670D01*
X51482Y27673D01*
X51485Y27684D01*
X51493Y27699D01*
X51507Y27721D01*
X51522Y27750D01*
X51540Y27779D01*
X51591Y27848D01*
X51653Y27928D01*
X51729Y28005D01*
X51816Y28081D01*
X51868Y28114D01*
X51918Y28147D01*
X51922Y28150D01*
X51933Y28154D01*
X51947Y28161D01*
X51969Y28172D01*
X51999Y28183D01*
X52031Y28198D01*
X52068Y28212D01*
X52111Y28227D01*
X52159Y28241D01*
X52210Y28252D01*
X52264Y28267D01*
X52323Y28278D01*
X52450Y28296D01*
X52515Y28303D01*
X52632D01*
X52654Y28299D01*
D02*
G37*
G36*
X54889Y28267D02*
X54936Y28259D01*
X54994Y28249D01*
X55060Y28230D01*
X55125Y28209D01*
X55191Y28179D01*
X55194D01*
X55198Y28176D01*
X55220Y28165D01*
X55253Y28143D01*
X55289Y28117D01*
X55333Y28081D01*
X55376Y28041D01*
X55420Y27994D01*
X55457Y27939D01*
X55460Y27932D01*
X55471Y27914D01*
X55486Y27881D01*
X55504Y27841D01*
X55522Y27793D01*
X55537Y27739D01*
X55547Y27677D01*
X55551Y27615D01*
Y27608D01*
Y27586D01*
X55547Y27557D01*
X55540Y27517D01*
X55529Y27470D01*
X55511Y27419D01*
X55489Y27368D01*
X55460Y27317D01*
X55457Y27309D01*
X55446Y27295D01*
X55424Y27269D01*
X55395Y27240D01*
X55358Y27207D01*
X55314Y27171D01*
X55264Y27138D01*
X55202Y27106D01*
X55205D01*
X55213Y27102D01*
X55224Y27098D01*
X55238Y27095D01*
X55278Y27080D01*
X55329Y27058D01*
X55387Y27029D01*
X55446Y26993D01*
X55500Y26945D01*
X55551Y26891D01*
X55555Y26884D01*
X55569Y26862D01*
X55591Y26825D01*
X55613Y26778D01*
X55635Y26720D01*
X55657Y26651D01*
X55671Y26570D01*
X55675Y26483D01*
Y26480D01*
Y26469D01*
Y26450D01*
X55671Y26428D01*
X55668Y26399D01*
X55660Y26367D01*
X55653Y26330D01*
X55646Y26290D01*
X55617Y26203D01*
X55595Y26155D01*
X55573Y26112D01*
X55544Y26065D01*
X55511Y26017D01*
X55475Y25970D01*
X55431Y25926D01*
X55427Y25923D01*
X55420Y25915D01*
X55405Y25904D01*
X55387Y25890D01*
X55366Y25872D01*
X55336Y25853D01*
X55304Y25832D01*
X55264Y25813D01*
X55224Y25791D01*
X55176Y25770D01*
X55129Y25752D01*
X55074Y25733D01*
X55016Y25719D01*
X54954Y25708D01*
X54892Y25701D01*
X54823Y25697D01*
X54790D01*
X54769Y25701D01*
X54739Y25704D01*
X54707Y25708D01*
X54670Y25715D01*
X54630Y25722D01*
X54543Y25744D01*
X54452Y25781D01*
X54404Y25802D01*
X54361Y25828D01*
X54317Y25861D01*
X54273Y25893D01*
X54270Y25897D01*
X54263Y25904D01*
X54252Y25915D01*
X54241Y25930D01*
X54223Y25948D01*
X54204Y25973D01*
X54182Y25999D01*
X54161Y26032D01*
X54139Y26068D01*
X54117Y26105D01*
X54077Y26192D01*
X54044Y26294D01*
X54033Y26348D01*
X54026Y26407D01*
X54335Y26447D01*
Y26443D01*
X54339Y26436D01*
X54343Y26421D01*
X54346Y26403D01*
X54350Y26381D01*
X54357Y26356D01*
X54375Y26301D01*
X54401Y26236D01*
X54434Y26174D01*
X54470Y26116D01*
X54514Y26065D01*
X54521Y26061D01*
X54536Y26046D01*
X54565Y26028D01*
X54601Y26010D01*
X54645Y25988D01*
X54699Y25970D01*
X54761Y25955D01*
X54827Y25952D01*
X54849D01*
X54863Y25955D01*
X54903Y25959D01*
X54954Y25970D01*
X55012Y25988D01*
X55074Y26014D01*
X55136Y26050D01*
X55194Y26101D01*
X55202Y26108D01*
X55220Y26130D01*
X55242Y26163D01*
X55271Y26206D01*
X55300Y26261D01*
X55322Y26323D01*
X55340Y26396D01*
X55347Y26476D01*
Y26480D01*
Y26487D01*
Y26498D01*
X55344Y26512D01*
X55340Y26552D01*
X55329Y26600D01*
X55314Y26658D01*
X55289Y26716D01*
X55253Y26774D01*
X55205Y26829D01*
X55198Y26836D01*
X55180Y26851D01*
X55151Y26873D01*
X55111Y26898D01*
X55060Y26924D01*
X54998Y26945D01*
X54929Y26960D01*
X54852Y26967D01*
X54820D01*
X54794Y26964D01*
X54761Y26960D01*
X54725Y26953D01*
X54681Y26945D01*
X54634Y26934D01*
X54670Y27207D01*
X54689D01*
X54703Y27204D01*
X54750D01*
X54790Y27211D01*
X54838Y27218D01*
X54892Y27229D01*
X54954Y27248D01*
X55012Y27273D01*
X55074Y27306D01*
X55078D01*
X55082Y27309D01*
X55100Y27324D01*
X55125Y27349D01*
X55154Y27382D01*
X55184Y27430D01*
X55209Y27484D01*
X55227Y27546D01*
X55234Y27582D01*
Y27622D01*
Y27626D01*
Y27630D01*
Y27652D01*
X55227Y27681D01*
X55220Y27721D01*
X55205Y27764D01*
X55187Y27812D01*
X55158Y27859D01*
X55118Y27903D01*
X55114Y27906D01*
X55096Y27921D01*
X55071Y27939D01*
X55038Y27961D01*
X54994Y27979D01*
X54943Y27997D01*
X54885Y28012D01*
X54820Y28016D01*
X54790D01*
X54758Y28008D01*
X54714Y28001D01*
X54667Y27986D01*
X54619Y27968D01*
X54568Y27939D01*
X54521Y27903D01*
X54517Y27899D01*
X54503Y27881D01*
X54481Y27855D01*
X54456Y27819D01*
X54430Y27772D01*
X54404Y27713D01*
X54383Y27644D01*
X54368Y27564D01*
X54059Y27619D01*
Y27622D01*
X54062Y27633D01*
X54066Y27648D01*
X54070Y27670D01*
X54077Y27695D01*
X54088Y27724D01*
X54110Y27793D01*
X54146Y27874D01*
X54190Y27954D01*
X54244Y28030D01*
X54313Y28099D01*
X54317Y28103D01*
X54325Y28107D01*
X54335Y28114D01*
X54350Y28125D01*
X54368Y28139D01*
X54394Y28154D01*
X54419Y28168D01*
X54452Y28187D01*
X54525Y28216D01*
X54608Y28245D01*
X54707Y28263D01*
X54758Y28270D01*
X54849D01*
X54889Y28267D01*
D02*
G37*
G36*
X37576Y86242D02*
X38519Y84920D01*
X38108D01*
X37471Y85816D01*
X37467Y85819D01*
X37460Y85830D01*
X37453Y85845D01*
X37438Y85863D01*
X37405Y85914D01*
X37369Y85969D01*
X37365Y85965D01*
X37354Y85950D01*
X37340Y85928D01*
X37321Y85899D01*
X37282Y85841D01*
X37263Y85816D01*
X37249Y85794D01*
X36612Y84920D01*
X36211D01*
X37183Y86223D01*
X36324Y87439D01*
X36721D01*
X37179Y86791D01*
Y86787D01*
X37187Y86784D01*
X37194Y86773D01*
X37205Y86758D01*
X37227Y86722D01*
X37260Y86678D01*
X37292Y86627D01*
X37325Y86576D01*
X37354Y86529D01*
X37380Y86485D01*
X37383Y86493D01*
X37394Y86507D01*
X37413Y86536D01*
X37438Y86573D01*
X37467Y86613D01*
X37503Y86664D01*
X37540Y86715D01*
X37584Y86769D01*
X38086Y87439D01*
X38450D01*
X37576Y86242D01*
D02*
G37*
G36*
X43892Y87446D02*
X43921Y87443D01*
X43957Y87439D01*
X43997Y87432D01*
X44037Y87424D01*
X44132Y87399D01*
X44227Y87363D01*
X44274Y87341D01*
X44321Y87315D01*
X44365Y87283D01*
X44405Y87246D01*
X44409Y87243D01*
X44416Y87239D01*
X44423Y87224D01*
X44438Y87210D01*
X44456Y87191D01*
X44474Y87166D01*
X44492Y87141D01*
X44514Y87108D01*
X44550Y87039D01*
X44587Y86951D01*
X44602Y86908D01*
X44609Y86857D01*
X44616Y86806D01*
X44620Y86751D01*
Y86744D01*
Y86726D01*
X44616Y86696D01*
X44612Y86656D01*
X44605Y86613D01*
X44591Y86562D01*
X44576Y86507D01*
X44554Y86453D01*
X44550Y86445D01*
X44543Y86427D01*
X44529Y86398D01*
X44507Y86358D01*
X44478Y86314D01*
X44441Y86260D01*
X44398Y86205D01*
X44347Y86143D01*
X44339Y86136D01*
X44321Y86114D01*
X44303Y86096D01*
X44285Y86078D01*
X44263Y86056D01*
X44234Y86027D01*
X44205Y85998D01*
X44168Y85965D01*
X44132Y85928D01*
X44088Y85888D01*
X44041Y85848D01*
X43990Y85801D01*
X43932Y85754D01*
X43874Y85703D01*
X43870Y85699D01*
X43863Y85692D01*
X43848Y85681D01*
X43830Y85666D01*
X43808Y85645D01*
X43782Y85623D01*
X43724Y85575D01*
X43662Y85521D01*
X43604Y85466D01*
X43553Y85419D01*
X43531Y85401D01*
X43513Y85382D01*
X43510Y85379D01*
X43499Y85368D01*
X43484Y85353D01*
X43466Y85331D01*
X43448Y85306D01*
X43426Y85281D01*
X43382Y85219D01*
X44623D01*
Y84920D01*
X42953D01*
Y84924D01*
Y84938D01*
Y84960D01*
X42956Y84989D01*
X42960Y85022D01*
X42967Y85058D01*
X42974Y85095D01*
X42989Y85135D01*
Y85138D01*
X42993Y85142D01*
X43000Y85164D01*
X43014Y85197D01*
X43036Y85241D01*
X43065Y85291D01*
X43102Y85350D01*
X43142Y85408D01*
X43193Y85470D01*
Y85473D01*
X43200Y85477D01*
X43218Y85499D01*
X43251Y85532D01*
X43298Y85579D01*
X43353Y85634D01*
X43422Y85699D01*
X43506Y85772D01*
X43597Y85848D01*
X43600Y85852D01*
X43615Y85863D01*
X43637Y85881D01*
X43662Y85903D01*
X43695Y85932D01*
X43735Y85965D01*
X43775Y86001D01*
X43823Y86041D01*
X43913Y86129D01*
X44004Y86216D01*
X44048Y86260D01*
X44088Y86303D01*
X44125Y86343D01*
X44154Y86383D01*
Y86387D01*
X44161Y86391D01*
X44168Y86402D01*
X44176Y86416D01*
X44201Y86456D01*
X44230Y86503D01*
X44256Y86562D01*
X44281Y86624D01*
X44296Y86693D01*
X44303Y86758D01*
Y86762D01*
Y86766D01*
X44299Y86787D01*
X44296Y86824D01*
X44285Y86864D01*
X44270Y86915D01*
X44245Y86966D01*
X44212Y87017D01*
X44168Y87068D01*
X44161Y87075D01*
X44143Y87090D01*
X44117Y87108D01*
X44077Y87133D01*
X44026Y87155D01*
X43968Y87177D01*
X43899Y87191D01*
X43823Y87195D01*
X43801D01*
X43786Y87191D01*
X43742Y87188D01*
X43692Y87177D01*
X43637Y87162D01*
X43575Y87137D01*
X43517Y87104D01*
X43462Y87060D01*
X43455Y87053D01*
X43440Y87035D01*
X43418Y87006D01*
X43397Y86962D01*
X43371Y86911D01*
X43349Y86846D01*
X43335Y86773D01*
X43328Y86689D01*
X43011Y86722D01*
Y86726D01*
X43014Y86737D01*
Y86755D01*
X43018Y86780D01*
X43025Y86809D01*
X43033Y86842D01*
X43044Y86882D01*
X43055Y86922D01*
X43084Y87010D01*
X43127Y87097D01*
X43153Y87141D01*
X43185Y87184D01*
X43218Y87224D01*
X43255Y87261D01*
X43258Y87264D01*
X43266Y87268D01*
X43277Y87279D01*
X43295Y87290D01*
X43317Y87304D01*
X43342Y87319D01*
X43371Y87337D01*
X43408Y87355D01*
X43448Y87374D01*
X43491Y87392D01*
X43539Y87406D01*
X43590Y87421D01*
X43644Y87432D01*
X43702Y87443D01*
X43764Y87446D01*
X43830Y87450D01*
X43866D01*
X43892Y87446D01*
D02*
G37*
G36*
X41933D02*
X41963Y87443D01*
X41999Y87439D01*
X42039Y87432D01*
X42079Y87424D01*
X42174Y87399D01*
X42268Y87363D01*
X42316Y87341D01*
X42363Y87315D01*
X42407Y87283D01*
X42447Y87246D01*
X42450Y87243D01*
X42458Y87239D01*
X42465Y87224D01*
X42479Y87210D01*
X42498Y87191D01*
X42516Y87166D01*
X42534Y87141D01*
X42556Y87108D01*
X42592Y87039D01*
X42629Y86951D01*
X42643Y86908D01*
X42650Y86857D01*
X42658Y86806D01*
X42661Y86751D01*
Y86744D01*
Y86726D01*
X42658Y86696D01*
X42654Y86656D01*
X42647Y86613D01*
X42632Y86562D01*
X42618Y86507D01*
X42596Y86453D01*
X42592Y86445D01*
X42585Y86427D01*
X42570Y86398D01*
X42548Y86358D01*
X42519Y86314D01*
X42483Y86260D01*
X42439Y86205D01*
X42388Y86143D01*
X42381Y86136D01*
X42363Y86114D01*
X42345Y86096D01*
X42327Y86078D01*
X42305Y86056D01*
X42276Y86027D01*
X42246Y85998D01*
X42210Y85965D01*
X42174Y85928D01*
X42130Y85888D01*
X42083Y85848D01*
X42032Y85801D01*
X41973Y85754D01*
X41915Y85703D01*
X41912Y85699D01*
X41904Y85692D01*
X41890Y85681D01*
X41872Y85666D01*
X41850Y85645D01*
X41824Y85623D01*
X41766Y85575D01*
X41704Y85521D01*
X41646Y85466D01*
X41595Y85419D01*
X41573Y85401D01*
X41555Y85382D01*
X41551Y85379D01*
X41540Y85368D01*
X41526Y85353D01*
X41508Y85331D01*
X41489Y85306D01*
X41467Y85281D01*
X41424Y85219D01*
X42665D01*
Y84920D01*
X40994D01*
Y84924D01*
Y84938D01*
Y84960D01*
X40998Y84989D01*
X41001Y85022D01*
X41009Y85058D01*
X41016Y85095D01*
X41031Y85135D01*
Y85138D01*
X41034Y85142D01*
X41042Y85164D01*
X41056Y85197D01*
X41078Y85241D01*
X41107Y85291D01*
X41144Y85350D01*
X41184Y85408D01*
X41234Y85470D01*
Y85473D01*
X41242Y85477D01*
X41260Y85499D01*
X41293Y85532D01*
X41340Y85579D01*
X41395Y85634D01*
X41464Y85699D01*
X41548Y85772D01*
X41638Y85848D01*
X41642Y85852D01*
X41657Y85863D01*
X41679Y85881D01*
X41704Y85903D01*
X41737Y85932D01*
X41777Y85965D01*
X41817Y86001D01*
X41864Y86041D01*
X41955Y86129D01*
X42046Y86216D01*
X42090Y86260D01*
X42130Y86303D01*
X42166Y86343D01*
X42195Y86383D01*
Y86387D01*
X42203Y86391D01*
X42210Y86402D01*
X42217Y86416D01*
X42243Y86456D01*
X42272Y86503D01*
X42297Y86562D01*
X42323Y86624D01*
X42337Y86693D01*
X42345Y86758D01*
Y86762D01*
Y86766D01*
X42341Y86787D01*
X42337Y86824D01*
X42327Y86864D01*
X42312Y86915D01*
X42287Y86966D01*
X42254Y87017D01*
X42210Y87068D01*
X42203Y87075D01*
X42184Y87090D01*
X42159Y87108D01*
X42119Y87133D01*
X42068Y87155D01*
X42010Y87177D01*
X41941Y87191D01*
X41864Y87195D01*
X41842D01*
X41828Y87191D01*
X41784Y87188D01*
X41733Y87177D01*
X41679Y87162D01*
X41617Y87137D01*
X41559Y87104D01*
X41504Y87060D01*
X41497Y87053D01*
X41482Y87035D01*
X41460Y87006D01*
X41438Y86962D01*
X41413Y86911D01*
X41391Y86846D01*
X41377Y86773D01*
X41369Y86689D01*
X41052Y86722D01*
Y86726D01*
X41056Y86737D01*
Y86755D01*
X41060Y86780D01*
X41067Y86809D01*
X41074Y86842D01*
X41085Y86882D01*
X41096Y86922D01*
X41125Y87010D01*
X41169Y87097D01*
X41194Y87141D01*
X41227Y87184D01*
X41260Y87224D01*
X41296Y87261D01*
X41300Y87264D01*
X41307Y87268D01*
X41318Y87279D01*
X41336Y87290D01*
X41358Y87304D01*
X41384Y87319D01*
X41413Y87337D01*
X41449Y87355D01*
X41489Y87374D01*
X41533Y87392D01*
X41580Y87406D01*
X41631Y87421D01*
X41686Y87432D01*
X41744Y87443D01*
X41806Y87446D01*
X41872Y87450D01*
X41908D01*
X41933Y87446D01*
D02*
G37*
G36*
X39906Y87435D02*
X39968Y87432D01*
X40033Y87428D01*
X40095Y87421D01*
X40150Y87414D01*
X40157D01*
X40183Y87406D01*
X40215Y87399D01*
X40259Y87388D01*
X40306Y87370D01*
X40357Y87348D01*
X40412Y87322D01*
X40459Y87293D01*
X40466Y87290D01*
X40481Y87279D01*
X40503Y87257D01*
X40532Y87231D01*
X40565Y87199D01*
X40598Y87155D01*
X40634Y87108D01*
X40663Y87053D01*
X40667Y87046D01*
X40674Y87028D01*
X40688Y86995D01*
X40703Y86951D01*
X40714Y86900D01*
X40729Y86842D01*
X40736Y86777D01*
X40740Y86707D01*
Y86704D01*
Y86693D01*
Y86678D01*
X40736Y86653D01*
X40732Y86627D01*
X40729Y86594D01*
X40721Y86558D01*
X40714Y86518D01*
X40688Y86434D01*
X40674Y86391D01*
X40652Y86343D01*
X40627Y86296D01*
X40601Y86252D01*
X40568Y86209D01*
X40532Y86165D01*
X40528Y86161D01*
X40521Y86154D01*
X40510Y86143D01*
X40492Y86132D01*
X40470Y86114D01*
X40441Y86096D01*
X40405Y86074D01*
X40365Y86056D01*
X40317Y86034D01*
X40263Y86012D01*
X40204Y85994D01*
X40135Y85979D01*
X40062Y85965D01*
X39982Y85954D01*
X39891Y85947D01*
X39797Y85943D01*
X39152D01*
Y84920D01*
X38818D01*
Y87439D01*
X39851D01*
X39906Y87435D01*
D02*
G37*
%LPC*%
G36*
X64122Y33996D02*
X63328D01*
Y33162D01*
X64078D01*
X64122Y33166D01*
X64173Y33169D01*
X64231Y33173D01*
X64289Y33180D01*
X64347Y33191D01*
X64398Y33206D01*
X64406Y33209D01*
X64420Y33217D01*
X64442Y33228D01*
X64471Y33242D01*
X64504Y33264D01*
X64537Y33289D01*
X64569Y33322D01*
X64595Y33358D01*
X64599Y33362D01*
X64606Y33377D01*
X64617Y33399D01*
X64631Y33428D01*
X64642Y33461D01*
X64653Y33497D01*
X64661Y33540D01*
X64664Y33584D01*
Y33588D01*
Y33591D01*
X64661Y33613D01*
X64657Y33646D01*
X64650Y33690D01*
X64631Y33733D01*
X64609Y33784D01*
X64577Y33832D01*
X64533Y33879D01*
X64526Y33883D01*
X64508Y33897D01*
X64478Y33915D01*
X64431Y33937D01*
X64377Y33959D01*
X64304Y33977D01*
X64220Y33992D01*
X64122Y33996D01*
D02*
G37*
G36*
X68180Y34032D02*
X68159D01*
X68144Y34028D01*
X68104Y34021D01*
X68057Y34010D01*
X68002Y33988D01*
X67944Y33955D01*
X67915Y33934D01*
X67886Y33912D01*
X67860Y33883D01*
X67835Y33850D01*
Y33846D01*
X67827Y33839D01*
X67820Y33825D01*
X67809Y33806D01*
X67798Y33777D01*
X67784Y33744D01*
X67773Y33704D01*
X67758Y33657D01*
X67744Y33602D01*
X67729Y33540D01*
X67714Y33471D01*
X67703Y33395D01*
X67693Y33308D01*
X67685Y33213D01*
X67682Y33111D01*
X67678Y32998D01*
Y32991D01*
Y32973D01*
Y32940D01*
X67682Y32896D01*
Y32849D01*
X67685Y32791D01*
X67689Y32729D01*
X67696Y32663D01*
X67714Y32521D01*
X67725Y32452D01*
X67740Y32387D01*
X67755Y32325D01*
X67776Y32267D01*
X67798Y32216D01*
X67824Y32172D01*
Y32168D01*
X67831Y32165D01*
X67849Y32139D01*
X67882Y32106D01*
X67922Y32070D01*
X67976Y32034D01*
X68038Y32001D01*
X68108Y31975D01*
X68144Y31972D01*
X68184Y31968D01*
X68206D01*
X68220Y31972D01*
X68257Y31979D01*
X68308Y31993D01*
X68362Y32019D01*
X68424Y32055D01*
X68453Y32077D01*
X68483Y32106D01*
X68512Y32135D01*
X68541Y32172D01*
Y32175D01*
X68548Y32183D01*
X68555Y32194D01*
X68563Y32212D01*
X68577Y32237D01*
X68588Y32270D01*
X68603Y32307D01*
X68617Y32350D01*
X68628Y32405D01*
X68643Y32463D01*
X68657Y32532D01*
X68668Y32605D01*
X68675Y32692D01*
X68683Y32783D01*
X68690Y32885D01*
Y32998D01*
Y33002D01*
Y33005D01*
Y33024D01*
Y33056D01*
X68686Y33100D01*
Y33147D01*
X68683Y33206D01*
X68679Y33268D01*
X68672Y33337D01*
X68654Y33475D01*
X68643Y33544D01*
X68628Y33610D01*
X68613Y33672D01*
X68592Y33730D01*
X68570Y33781D01*
X68544Y33825D01*
Y33828D01*
X68537Y33832D01*
X68530Y33843D01*
X68519Y33857D01*
X68486Y33890D01*
X68446Y33930D01*
X68392Y33966D01*
X68330Y33999D01*
X68297Y34014D01*
X68260Y34025D01*
X68220Y34028D01*
X68180Y34032D01*
D02*
G37*
G36*
X31596Y85996D02*
X30802D01*
Y85162D01*
X31552D01*
X31596Y85166D01*
X31646Y85169D01*
X31705Y85173D01*
X31763Y85180D01*
X31821Y85191D01*
X31872Y85206D01*
X31879Y85209D01*
X31894Y85217D01*
X31916Y85228D01*
X31945Y85242D01*
X31978Y85264D01*
X32010Y85289D01*
X32043Y85322D01*
X32069Y85359D01*
X32072Y85362D01*
X32080Y85377D01*
X32090Y85399D01*
X32105Y85428D01*
X32116Y85461D01*
X32127Y85497D01*
X32134Y85540D01*
X32138Y85584D01*
Y85588D01*
Y85592D01*
X32134Y85613D01*
X32131Y85646D01*
X32123Y85690D01*
X32105Y85733D01*
X32083Y85784D01*
X32050Y85832D01*
X32007Y85879D01*
X31999Y85883D01*
X31981Y85897D01*
X31952Y85915D01*
X31905Y85937D01*
X31850Y85959D01*
X31778Y85977D01*
X31694Y85992D01*
X31596Y85996D01*
D02*
G37*
G36*
X33703Y86032D02*
X33674D01*
X33641Y86025D01*
X33597Y86017D01*
X33550Y86003D01*
X33499Y85985D01*
X33452Y85956D01*
X33404Y85915D01*
X33401Y85912D01*
X33386Y85897D01*
X33368Y85872D01*
X33350Y85839D01*
X33328Y85799D01*
X33310Y85752D01*
X33295Y85701D01*
X33292Y85642D01*
Y85639D01*
Y85635D01*
X33295Y85613D01*
X33299Y85581D01*
X33306Y85540D01*
X33321Y85493D01*
X33339Y85446D01*
X33368Y85395D01*
X33404Y85351D01*
X33408Y85348D01*
X33426Y85333D01*
X33452Y85315D01*
X33485Y85297D01*
X33528Y85275D01*
X33579Y85257D01*
X33637Y85242D01*
X33703Y85238D01*
X33710D01*
X33732Y85242D01*
X33765Y85246D01*
X33809Y85253D01*
X33856Y85268D01*
X33903Y85286D01*
X33954Y85315D01*
X33998Y85351D01*
X34001Y85355D01*
X34016Y85373D01*
X34034Y85395D01*
X34056Y85428D01*
X34078Y85468D01*
X34096Y85515D01*
X34111Y85570D01*
X34114Y85628D01*
Y85632D01*
Y85635D01*
Y85657D01*
X34107Y85690D01*
X34100Y85730D01*
X34085Y85773D01*
X34063Y85821D01*
X34034Y85868D01*
X33994Y85915D01*
X33991Y85919D01*
X33972Y85934D01*
X33947Y85952D01*
X33914Y85974D01*
X33871Y85996D01*
X33823Y86014D01*
X33765Y86028D01*
X33703Y86032D01*
D02*
G37*
G36*
X33692Y84987D02*
X33670D01*
X33656Y84984D01*
X33616Y84980D01*
X33565Y84969D01*
X33507Y84951D01*
X33448Y84925D01*
X33386Y84889D01*
X33332Y84842D01*
X33325Y84834D01*
X33310Y84816D01*
X33288Y84783D01*
X33263Y84743D01*
X33233Y84689D01*
X33212Y84627D01*
X33197Y84558D01*
X33190Y84481D01*
Y84474D01*
Y84460D01*
X33193Y84434D01*
X33197Y84401D01*
X33204Y84361D01*
X33215Y84317D01*
X33230Y84274D01*
X33248Y84227D01*
X33252Y84223D01*
X33259Y84205D01*
X33274Y84183D01*
X33295Y84157D01*
X33321Y84125D01*
X33354Y84092D01*
X33390Y84063D01*
X33434Y84034D01*
X33441Y84030D01*
X33456Y84023D01*
X33481Y84012D01*
X33514Y84001D01*
X33554Y83990D01*
X33601Y83979D01*
X33652Y83972D01*
X33703Y83968D01*
X33725D01*
X33739Y83972D01*
X33783Y83975D01*
X33834Y83986D01*
X33892Y84004D01*
X33954Y84026D01*
X34012Y84063D01*
X34071Y84110D01*
X34078Y84117D01*
X34093Y84136D01*
X34118Y84168D01*
X34143Y84208D01*
X34169Y84259D01*
X34194Y84321D01*
X34209Y84394D01*
X34216Y84470D01*
Y84474D01*
Y84481D01*
Y84492D01*
X34213Y84507D01*
X34209Y84547D01*
X34198Y84601D01*
X34180Y84656D01*
X34154Y84718D01*
X34118Y84780D01*
X34067Y84838D01*
X34060Y84845D01*
X34042Y84860D01*
X34009Y84885D01*
X33965Y84914D01*
X33911Y84940D01*
X33845Y84965D01*
X33772Y84980D01*
X33692Y84987D01*
D02*
G37*
G36*
X9731Y82016D02*
X9709D01*
X9695Y82012D01*
X9655Y82005D01*
X9608Y81994D01*
X9553Y81972D01*
X9495Y81939D01*
X9466Y81917D01*
X9437Y81895D01*
X9411Y81866D01*
X9386Y81834D01*
Y81830D01*
X9378Y81823D01*
X9371Y81808D01*
X9360Y81790D01*
X9349Y81761D01*
X9335Y81728D01*
X9324Y81688D01*
X9309Y81641D01*
X9295Y81586D01*
X9280Y81524D01*
X9265Y81455D01*
X9255Y81379D01*
X9244Y81291D01*
X9236Y81197D01*
X9233Y81095D01*
X9229Y80982D01*
Y80975D01*
Y80956D01*
Y80924D01*
X9233Y80880D01*
Y80833D01*
X9236Y80774D01*
X9240Y80712D01*
X9247Y80647D01*
X9265Y80505D01*
X9276Y80436D01*
X9291Y80370D01*
X9305Y80308D01*
X9327Y80250D01*
X9349Y80199D01*
X9375Y80155D01*
Y80152D01*
X9382Y80148D01*
X9400Y80123D01*
X9433Y80090D01*
X9473Y80054D01*
X9527Y80017D01*
X9589Y79984D01*
X9658Y79959D01*
X9695Y79955D01*
X9735Y79952D01*
X9757D01*
X9771Y79955D01*
X9808Y79963D01*
X9859Y79977D01*
X9913Y80003D01*
X9975Y80039D01*
X10004Y80061D01*
X10033Y80090D01*
X10063Y80119D01*
X10092Y80155D01*
Y80159D01*
X10099Y80166D01*
X10106Y80177D01*
X10114Y80196D01*
X10128Y80221D01*
X10139Y80254D01*
X10154Y80290D01*
X10168Y80334D01*
X10179Y80388D01*
X10194Y80447D01*
X10208Y80516D01*
X10219Y80589D01*
X10226Y80676D01*
X10234Y80767D01*
X10241Y80869D01*
Y80982D01*
Y80985D01*
Y80989D01*
Y81007D01*
Y81040D01*
X10237Y81084D01*
Y81131D01*
X10234Y81189D01*
X10230Y81251D01*
X10223Y81320D01*
X10204Y81459D01*
X10194Y81528D01*
X10179Y81593D01*
X10165Y81655D01*
X10143Y81713D01*
X10121Y81764D01*
X10095Y81808D01*
Y81812D01*
X10088Y81815D01*
X10081Y81826D01*
X10070Y81841D01*
X10037Y81874D01*
X9997Y81914D01*
X9942Y81950D01*
X9881Y81983D01*
X9848Y81997D01*
X9811Y82008D01*
X9771Y82012D01*
X9731Y82016D01*
D02*
G37*
G36*
X34904Y73257D02*
X34111Y72129D01*
X34904D01*
Y73257D01*
D02*
G37*
G36*
X75170Y65787D02*
X75149D01*
X75134Y65783D01*
X75098Y65780D01*
X75047Y65769D01*
X74992Y65751D01*
X74930Y65721D01*
X74872Y65685D01*
X74814Y65634D01*
X74806Y65627D01*
X74792Y65609D01*
X74766Y65576D01*
X74741Y65529D01*
X74716Y65474D01*
X74690Y65405D01*
X74675Y65328D01*
X74668Y65241D01*
Y65234D01*
Y65215D01*
X74672Y65183D01*
X74675Y65143D01*
X74683Y65095D01*
X74697Y65044D01*
X74712Y64990D01*
X74734Y64935D01*
X74737Y64928D01*
X74748Y64910D01*
X74763Y64884D01*
X74785Y64851D01*
X74810Y64819D01*
X74843Y64779D01*
X74879Y64746D01*
X74923Y64713D01*
X74930Y64710D01*
X74945Y64702D01*
X74970Y64688D01*
X75003Y64677D01*
X75039Y64662D01*
X75083Y64648D01*
X75130Y64640D01*
X75181Y64637D01*
X75200D01*
X75214Y64640D01*
X75251Y64644D01*
X75298Y64655D01*
X75349Y64677D01*
X75407Y64702D01*
X75465Y64742D01*
X75494Y64764D01*
X75520Y64793D01*
Y64797D01*
X75527Y64801D01*
X75542Y64822D01*
X75564Y64859D01*
X75593Y64906D01*
X75618Y64968D01*
X75640Y65041D01*
X75655Y65124D01*
X75662Y65223D01*
Y65226D01*
Y65234D01*
Y65248D01*
X75658Y65266D01*
Y65288D01*
X75655Y65314D01*
X75644Y65372D01*
X75629Y65438D01*
X75604Y65507D01*
X75567Y65572D01*
X75520Y65634D01*
X75513Y65641D01*
X75494Y65660D01*
X75465Y65681D01*
X75425Y65711D01*
X75374Y65740D01*
X75316Y65762D01*
X75247Y65780D01*
X75170Y65787D01*
D02*
G37*
G36*
X39873Y87141D02*
X39152D01*
Y86242D01*
X39829D01*
X39855Y86245D01*
X39880D01*
X39909Y86249D01*
X39979Y86256D01*
X40055Y86271D01*
X40132Y86292D01*
X40201Y86322D01*
X40233Y86340D01*
X40259Y86362D01*
X40266Y86369D01*
X40281Y86383D01*
X40303Y86413D01*
X40328Y86449D01*
X40354Y86496D01*
X40376Y86554D01*
X40390Y86620D01*
X40397Y86696D01*
Y86700D01*
Y86704D01*
Y86722D01*
X40394Y86755D01*
X40386Y86791D01*
X40379Y86831D01*
X40365Y86879D01*
X40343Y86922D01*
X40317Y86966D01*
X40314Y86970D01*
X40303Y86984D01*
X40284Y87002D01*
X40263Y87028D01*
X40230Y87053D01*
X40194Y87075D01*
X40153Y87097D01*
X40106Y87115D01*
X40102D01*
X40088Y87119D01*
X40066Y87122D01*
X40037Y87130D01*
X39993Y87133D01*
X39939Y87137D01*
X39873Y87141D01*
D02*
G37*
%LPD*%
D10*
X27425Y32839D02*
G03*
X27425Y32839I-492J0D01*
G01*
D11*
X34315Y41402D02*
G03*
X34315Y41402I-1181J0D01*
G01*
D12*
X38002Y24500D02*
G03*
X38002Y6390I0J-9055D01*
G01*
X65000Y6445D02*
G03*
X65000Y24555I0J9055D01*
G01*
X38002Y24500D02*
X65000D01*
X37892Y6500D02*
X65055D01*
D13*
X67000Y26500D02*
X69500D01*
Y30500D01*
X67000D02*
X69500D01*
X61500Y26500D02*
X64000D01*
X61500D02*
Y30500D01*
X64000D01*
X15400Y87000D02*
X20000D01*
X15400Y81000D02*
Y87000D01*
Y81000D02*
X20000D01*
X23000Y87000D02*
X27600Y87000D01*
Y81000D02*
Y87000D01*
X23000Y81000D02*
X27600Y81000D01*
X8500Y78600D02*
X10500D01*
Y66400D02*
Y78600D01*
X8500Y66400D02*
X10500D01*
X4500Y78600D02*
X6500D01*
X4500Y66400D02*
Y78600D01*
Y66400D02*
X6500D01*
X27517Y69185D02*
Y71185D01*
X15317Y69185D02*
X27517D01*
X15317D02*
Y71185D01*
X27517Y73185D02*
Y75185D01*
X15317D02*
X27517D01*
X15317Y73185D02*
Y75185D01*
X23500Y31600D02*
X25500D01*
Y19400D02*
Y31600D01*
X23500Y19400D02*
X25500D01*
X19500Y31600D02*
X21500D01*
X19500Y19400D02*
Y31600D01*
Y19400D02*
X21500D01*
X69017Y62685D02*
Y64685D01*
X56817Y62685D02*
X69017D01*
X56817D02*
Y64685D01*
X69017Y66685D02*
Y68685D01*
X56817D02*
X69017D01*
X56817Y66685D02*
Y68685D01*
D14*
X20713Y82425D02*
X22287D01*
X20713Y85575D02*
X22287D01*
X29197Y37465D02*
X51638D01*
X29197Y59905D02*
X51638D01*
X29197Y37465D02*
Y59905D01*
X51638Y37465D02*
Y59905D01*
X45417Y73685D02*
Y93685D01*
X75417Y73685D02*
Y93685D01*
X45417Y73685D02*
X75417D01*
X45417Y93685D02*
X75417D01*
X45417D02*
X64584D01*
D15*
X14906Y76122D02*
Y78878D01*
X23272Y74843D02*
X27602D01*
X23272Y80158D02*
X27602D01*
Y74843D02*
Y80158D01*
X16185Y74843D02*
X19728D01*
X16185Y80158D02*
X19728D01*
X15398Y79370D02*
X16185Y80158D01*
X14906Y78878D02*
X15496Y79469D01*
X14906Y76122D02*
X15595Y75433D01*
X15398Y75630D02*
Y79370D01*
Y75630D02*
X16185Y74843D01*
M02*
