G04*
G04 #@! TF.GenerationSoftware,Altium Limited,Altium Designer,20.0.11 (256)*
G04*
G04 Layer_Color=16711935*
%FSLAX25Y25*%
%MOIN*%
G70*
G01*
G75*
%ADD24R,0.04343X0.04737*%
%ADD25R,0.04737X0.04737*%
%ADD26R,0.04737X0.04737*%
%ADD30C,0.04737*%
%ADD31R,0.06706X0.06706*%
%ADD32R,0.06706X0.06706*%
%ADD33C,0.06800*%
%ADD34C,0.06706*%
%ADD49R,0.04737X0.04343*%
%ADD50R,0.06706X0.03162*%
%ADD51R,0.02769X0.03162*%
G04:AMPARAMS|DCode=52|XSize=86.74mil|YSize=86.74mil|CornerRadius=13.84mil|HoleSize=0mil|Usage=FLASHONLY|Rotation=270.000|XOffset=0mil|YOffset=0mil|HoleType=Round|Shape=RoundedRectangle|*
%AMROUNDEDRECTD52*
21,1,0.08674,0.05906,0,0,270.0*
21,1,0.05906,0.08674,0,0,270.0*
1,1,0.02769,-0.02953,-0.02953*
1,1,0.02769,-0.02953,0.02953*
1,1,0.02769,0.02953,0.02953*
1,1,0.02769,0.02953,-0.02953*
%
%ADD52ROUNDEDRECTD52*%
G04:AMPARAMS|DCode=53|XSize=185.17mil|YSize=86.74mil|CornerRadius=13.84mil|HoleSize=0mil|Usage=FLASHONLY|Rotation=270.000|XOffset=0mil|YOffset=0mil|HoleType=Round|Shape=RoundedRectangle|*
%AMROUNDEDRECTD53*
21,1,0.18517,0.05906,0,0,270.0*
21,1,0.15748,0.08674,0,0,270.0*
1,1,0.02769,-0.02953,-0.07874*
1,1,0.02769,-0.02953,0.07874*
1,1,0.02769,0.02953,0.07874*
1,1,0.02769,0.02953,-0.07874*
%
%ADD53ROUNDEDRECTD53*%
%ADD54R,0.04737X0.11430*%
%ADD55R,0.13792X0.11430*%
D24*
X58653Y96500D02*
D03*
X65346D02*
D03*
D25*
X12500Y79350D02*
D03*
Y85650D02*
D03*
Y66850D02*
D03*
Y73150D02*
D03*
X29500Y37150D02*
D03*
Y30850D02*
D03*
X12500Y100650D02*
D03*
Y94350D02*
D03*
X29500Y19350D02*
D03*
Y25650D02*
D03*
X40000Y100650D02*
D03*
Y94350D02*
D03*
X80000Y88850D02*
D03*
Y95150D02*
D03*
D26*
X76650Y13000D02*
D03*
X70350D02*
D03*
X47850Y19500D02*
D03*
X54150D02*
D03*
X39850Y8500D02*
D03*
X46150D02*
D03*
X49650Y30500D02*
D03*
X43350D02*
D03*
Y37000D02*
D03*
X49650D02*
D03*
D30*
X78500Y58500D02*
D03*
X73000Y26000D02*
D03*
D31*
X0Y110000D02*
D03*
X20000Y0D02*
D03*
X0Y70000D02*
D03*
X30000Y0D02*
D03*
X50000D02*
D03*
X70000Y110000D02*
D03*
X80000D02*
D03*
X90000D02*
D03*
Y90000D02*
D03*
Y80000D02*
D03*
X10000Y0D02*
D03*
X0D02*
D03*
Y10000D02*
D03*
Y20000D02*
D03*
Y40000D02*
D03*
Y50000D02*
D03*
X90000Y70000D02*
D03*
Y60000D02*
D03*
Y50000D02*
D03*
X70417Y88685D02*
D03*
D32*
X60000Y110000D02*
D03*
X0Y30000D02*
D03*
X40000Y0D02*
D03*
X0Y60000D02*
D03*
X10000Y110000D02*
D03*
X20000D02*
D03*
X30000D02*
D03*
X40000D02*
D03*
X50000D02*
D03*
X90000Y40000D02*
D03*
Y30000D02*
D03*
Y20000D02*
D03*
Y10000D02*
D03*
Y0D02*
D03*
X80000D02*
D03*
X70000D02*
D03*
X60000D02*
D03*
X0Y80000D02*
D03*
Y90000D02*
D03*
Y100000D02*
D03*
X90000D02*
D03*
D33*
X61000Y15500D02*
D03*
X42000D02*
D03*
D34*
X70417Y78685D02*
D03*
X60417Y88685D02*
D03*
Y78685D02*
D03*
X50417Y88685D02*
D03*
Y78685D02*
D03*
D49*
X35000Y30654D02*
D03*
Y37346D02*
D03*
X77500Y53847D02*
D03*
Y47154D02*
D03*
X71000Y47153D02*
D03*
Y53847D02*
D03*
X80000Y71653D02*
D03*
Y78347D02*
D03*
D50*
X64260Y31760D02*
D03*
Y39240D02*
D03*
X71740Y35500D02*
D03*
D51*
X78500Y26032D02*
D03*
Y29969D02*
D03*
D52*
X25102Y12126D02*
D03*
X12898D02*
D03*
D53*
X19000Y47756D02*
D03*
D54*
X39055Y73386D02*
D03*
X30000D02*
D03*
X20945D02*
D03*
D55*
X30000Y96614D02*
D03*
M02*
