G04*
G04 #@! TF.GenerationSoftware,Altium Limited,Altium Designer,20.0.11 (256)*
G04*
G04 Layer_Color=128*
%FSLAX25Y25*%
%MOIN*%
G70*
G01*
G75*
%ADD17R,0.03543X0.03937*%
%ADD18R,0.03937X0.03937*%
%ADD19R,0.03937X0.03937*%
%ADD42R,0.03937X0.03543*%
%ADD43R,0.05906X0.02362*%
%ADD44R,0.01968X0.02362*%
G04:AMPARAMS|DCode=45|XSize=78.74mil|YSize=78.74mil|CornerRadius=9.84mil|HoleSize=0mil|Usage=FLASHONLY|Rotation=270.000|XOffset=0mil|YOffset=0mil|HoleType=Round|Shape=RoundedRectangle|*
%AMROUNDEDRECTD45*
21,1,0.07874,0.05906,0,0,270.0*
21,1,0.05906,0.07874,0,0,270.0*
1,1,0.01968,-0.02953,-0.02953*
1,1,0.01968,-0.02953,0.02953*
1,1,0.01968,0.02953,0.02953*
1,1,0.01968,0.02953,-0.02953*
%
%ADD45ROUNDEDRECTD45*%
G04:AMPARAMS|DCode=46|XSize=177.17mil|YSize=78.74mil|CornerRadius=9.84mil|HoleSize=0mil|Usage=FLASHONLY|Rotation=270.000|XOffset=0mil|YOffset=0mil|HoleType=Round|Shape=RoundedRectangle|*
%AMROUNDEDRECTD46*
21,1,0.17717,0.05906,0,0,270.0*
21,1,0.15748,0.07874,0,0,270.0*
1,1,0.01968,-0.02953,-0.07874*
1,1,0.01968,-0.02953,0.07874*
1,1,0.01968,0.02953,0.07874*
1,1,0.01968,0.02953,-0.07874*
%
%ADD46ROUNDEDRECTD46*%
%ADD47R,0.03937X0.10630*%
%ADD48R,0.12992X0.10630*%
D17*
X58653Y96500D02*
D03*
X65346D02*
D03*
D18*
X12500Y79350D02*
D03*
Y85650D02*
D03*
Y66850D02*
D03*
Y73150D02*
D03*
X29500Y37150D02*
D03*
Y30850D02*
D03*
X12500Y100650D02*
D03*
Y94350D02*
D03*
X29500Y19350D02*
D03*
Y25650D02*
D03*
X40000Y100650D02*
D03*
Y94350D02*
D03*
X80000Y88850D02*
D03*
Y95150D02*
D03*
D19*
X76650Y13000D02*
D03*
X70350D02*
D03*
X47850Y19500D02*
D03*
X54150D02*
D03*
X39850Y8500D02*
D03*
X46150D02*
D03*
X49650Y30500D02*
D03*
X43350D02*
D03*
Y37000D02*
D03*
X49650D02*
D03*
D42*
X35000Y30654D02*
D03*
Y37346D02*
D03*
X77500Y53847D02*
D03*
Y47154D02*
D03*
X71000Y47153D02*
D03*
Y53847D02*
D03*
X80000Y71653D02*
D03*
Y78347D02*
D03*
D43*
X64260Y31760D02*
D03*
Y39240D02*
D03*
X71740Y35500D02*
D03*
D44*
X78500Y26032D02*
D03*
Y29969D02*
D03*
D45*
X25102Y12126D02*
D03*
X12898D02*
D03*
D46*
X19000Y47756D02*
D03*
D47*
X39055Y73386D02*
D03*
X30000D02*
D03*
X20945D02*
D03*
D48*
X30000Y96614D02*
D03*
M02*
