G04*
G04 #@! TF.GenerationSoftware,Altium Limited,Altium Designer,20.0.11 (256)*
G04*
G04 Layer_Color=32896*
%FSLAX25Y25*%
%MOIN*%
G70*
G01*
G75*
%ADD10C,0.00984*%
%ADD13C,0.00394*%
%ADD14C,0.00787*%
%ADD15C,0.00500*%
G36*
X36526Y41241D02*
X36191D01*
Y42358D01*
X35761D01*
X35721Y42354D01*
X35692D01*
X35667Y42351D01*
X35648Y42347D01*
X35634D01*
X35627Y42344D01*
X35623D01*
X35565Y42325D01*
X35539Y42314D01*
X35517Y42303D01*
X35495Y42292D01*
X35481Y42285D01*
X35474Y42282D01*
X35470Y42278D01*
X35441Y42256D01*
X35412Y42231D01*
X35357Y42176D01*
X35332Y42151D01*
X35313Y42129D01*
X35303Y42114D01*
X35299Y42110D01*
X35263Y42060D01*
X35223Y42005D01*
X35182Y41947D01*
X35142Y41892D01*
X35110Y41841D01*
X35084Y41801D01*
X35073Y41787D01*
X35066Y41776D01*
X35059Y41768D01*
Y41765D01*
X34727Y41241D01*
X34312D01*
X34746Y41925D01*
X34797Y41998D01*
X34844Y42063D01*
X34891Y42118D01*
X34931Y42169D01*
X34968Y42205D01*
X34997Y42234D01*
X35015Y42252D01*
X35022Y42260D01*
X35052Y42282D01*
X35084Y42307D01*
X35150Y42347D01*
X35179Y42362D01*
X35201Y42376D01*
X35215Y42384D01*
X35223Y42387D01*
X35157Y42398D01*
X35095Y42409D01*
X35041Y42427D01*
X34986Y42442D01*
X34939Y42460D01*
X34895Y42482D01*
X34855Y42500D01*
X34819Y42518D01*
X34789Y42540D01*
X34760Y42558D01*
X34738Y42573D01*
X34720Y42587D01*
X34706Y42598D01*
X34695Y42609D01*
X34691Y42613D01*
X34688Y42617D01*
X34658Y42653D01*
X34629Y42689D01*
X34585Y42766D01*
X34556Y42842D01*
X34535Y42915D01*
X34520Y42977D01*
X34516Y43002D01*
Y43028D01*
X34513Y43046D01*
Y43061D01*
Y43068D01*
Y43071D01*
X34516Y43148D01*
X34527Y43217D01*
X34545Y43283D01*
X34564Y43337D01*
X34585Y43385D01*
X34600Y43421D01*
X34615Y43443D01*
X34618Y43446D01*
Y43450D01*
X34662Y43508D01*
X34706Y43559D01*
X34753Y43603D01*
X34797Y43636D01*
X34837Y43661D01*
X34870Y43676D01*
X34891Y43687D01*
X34895Y43690D01*
X34899D01*
X34931Y43701D01*
X34971Y43712D01*
X35052Y43730D01*
X35139Y43741D01*
X35219Y43752D01*
X35295Y43756D01*
X35328D01*
X35357Y43759D01*
X36526D01*
Y41241D01*
D02*
G37*
G36*
X34222Y42129D02*
Y41845D01*
X33126D01*
Y41241D01*
X32816D01*
Y41845D01*
X32474D01*
Y42129D01*
X32816D01*
Y43759D01*
X33068D01*
X34222Y42129D01*
D02*
G37*
G36*
X73817Y63778D02*
X73879Y63774D01*
X73988Y63752D01*
X74039Y63738D01*
X74083Y63723D01*
X74126Y63705D01*
X74166Y63687D01*
X74199Y63668D01*
X74228Y63650D01*
X74254Y63636D01*
X74276Y63621D01*
X74294Y63610D01*
X74305Y63599D01*
X74312Y63596D01*
X74316Y63592D01*
X74352Y63556D01*
X74388Y63516D01*
X74443Y63428D01*
X74487Y63337D01*
X74519Y63253D01*
X74534Y63210D01*
X74541Y63173D01*
X74552Y63141D01*
X74556Y63112D01*
X74563Y63086D01*
Y63068D01*
X74567Y63057D01*
Y63053D01*
X74250Y63013D01*
X74232Y63104D01*
X74207Y63184D01*
X74177Y63250D01*
X74148Y63304D01*
X74123Y63345D01*
X74101Y63377D01*
X74086Y63392D01*
X74079Y63399D01*
X74024Y63443D01*
X73970Y63472D01*
X73915Y63494D01*
X73864Y63512D01*
X73817Y63519D01*
X73781Y63523D01*
X73766Y63526D01*
X73748D01*
X73675Y63519D01*
X73606Y63505D01*
X73548Y63483D01*
X73497Y63457D01*
X73457Y63432D01*
X73427Y63410D01*
X73409Y63395D01*
X73402Y63388D01*
X73355Y63334D01*
X73318Y63279D01*
X73293Y63228D01*
X73278Y63177D01*
X73267Y63137D01*
X73264Y63101D01*
X73260Y63079D01*
Y63075D01*
Y63072D01*
X73264Y63035D01*
X73267Y62999D01*
X73275Y62970D01*
X73286Y62940D01*
X73296Y62919D01*
X73304Y62900D01*
X73307Y62889D01*
X73311Y62886D01*
X73333Y62853D01*
X73366Y62817D01*
X73398Y62777D01*
X73435Y62740D01*
X73468Y62711D01*
X73497Y62682D01*
X73515Y62667D01*
X73519Y62660D01*
X73522D01*
X73577Y62609D01*
X73624Y62565D01*
X73664Y62529D01*
X73693Y62500D01*
X73715Y62475D01*
X73733Y62460D01*
X73741Y62449D01*
X73744Y62445D01*
X73773Y62409D01*
X73799Y62373D01*
X73821Y62336D01*
X73839Y62307D01*
X73850Y62282D01*
X73861Y62263D01*
X73864Y62249D01*
X73868Y62245D01*
X73886Y62194D01*
X73897Y62140D01*
X73908Y62089D01*
X73912Y62041D01*
X73915Y61998D01*
X73919Y61961D01*
Y61939D01*
Y61936D01*
Y61932D01*
Y61903D01*
X73915Y61874D01*
Y61852D01*
Y61845D01*
Y61841D01*
X73617D01*
Y61903D01*
X73613Y61958D01*
X73610Y62005D01*
X73606Y62041D01*
X73602Y62067D01*
X73599Y62089D01*
X73595Y62100D01*
Y62103D01*
X73573Y62161D01*
X73562Y62187D01*
X73551Y62209D01*
X73540Y62223D01*
X73533Y62238D01*
X73526Y62245D01*
Y62249D01*
X73504Y62278D01*
X73475Y62307D01*
X73442Y62340D01*
X73409Y62373D01*
X73377Y62402D01*
X73351Y62427D01*
X73333Y62442D01*
X73326Y62449D01*
X73249Y62518D01*
X73184Y62584D01*
X73129Y62642D01*
X73089Y62689D01*
X73060Y62729D01*
X73038Y62758D01*
X73027Y62777D01*
X73023Y62784D01*
X72998Y62839D01*
X72976Y62893D01*
X72962Y62944D01*
X72954Y62991D01*
X72947Y63031D01*
X72943Y63061D01*
Y63082D01*
Y63090D01*
X72947Y63144D01*
X72954Y63192D01*
X72965Y63243D01*
X72976Y63286D01*
X73013Y63370D01*
X73053Y63443D01*
X73074Y63472D01*
X73096Y63497D01*
X73115Y63523D01*
X73129Y63541D01*
X73144Y63556D01*
X73154Y63570D01*
X73162Y63574D01*
X73165Y63577D01*
X73209Y63614D01*
X73253Y63647D01*
X73300Y63672D01*
X73351Y63694D01*
X73449Y63730D01*
X73540Y63756D01*
X73584Y63763D01*
X73628Y63770D01*
X73660Y63774D01*
X73693Y63778D01*
X73719Y63781D01*
X73755D01*
X73817Y63778D01*
D02*
G37*
G36*
X76085Y62522D02*
X77057Y61219D01*
X76656D01*
X76019Y62092D01*
X76005Y62114D01*
X75986Y62140D01*
X75946Y62198D01*
X75928Y62227D01*
X75914Y62249D01*
X75903Y62263D01*
X75899Y62267D01*
X75863Y62212D01*
X75830Y62161D01*
X75815Y62143D01*
X75808Y62129D01*
X75801Y62118D01*
X75797Y62114D01*
X75160Y61219D01*
X74749D01*
X75692Y62540D01*
X74818Y63738D01*
X75182D01*
X75684Y63068D01*
X75728Y63013D01*
X75764Y62962D01*
X75801Y62911D01*
X75830Y62871D01*
X75855Y62835D01*
X75874Y62806D01*
X75884Y62791D01*
X75888Y62784D01*
X75914Y62828D01*
X75943Y62875D01*
X75976Y62926D01*
X76008Y62977D01*
X76041Y63020D01*
X76063Y63057D01*
X76074Y63072D01*
X76081Y63082D01*
X76088Y63086D01*
Y63090D01*
X76547Y63738D01*
X76944D01*
X76085Y62522D01*
D02*
G37*
G36*
X73970Y61219D02*
X73617D01*
Y61572D01*
X73970D01*
Y61219D01*
D02*
G37*
G36*
X78449Y36203D02*
X78489Y36145D01*
X78537Y36086D01*
X78580Y36036D01*
X78624Y35992D01*
X78657Y35956D01*
X78671Y35945D01*
X78682Y35934D01*
X78686Y35930D01*
X78690Y35926D01*
X78766Y35864D01*
X78843Y35806D01*
X78915Y35755D01*
X78988Y35715D01*
X79050Y35679D01*
X79075Y35664D01*
X79097Y35653D01*
X79115Y35642D01*
X79130Y35639D01*
X79137Y35631D01*
X79141D01*
Y35333D01*
X79086Y35355D01*
X79032Y35380D01*
X78977Y35406D01*
X78926Y35431D01*
X78882Y35453D01*
X78846Y35471D01*
X78824Y35486D01*
X78821Y35490D01*
X78817D01*
X78751Y35530D01*
X78693Y35570D01*
X78642Y35606D01*
X78602Y35639D01*
X78566Y35664D01*
X78544Y35686D01*
X78526Y35701D01*
X78522Y35704D01*
Y33735D01*
X78213D01*
Y36265D01*
X78413D01*
X78449Y36203D01*
D02*
G37*
G36*
X81787Y33735D02*
X81452D01*
Y34853D01*
X81023D01*
X80983Y34849D01*
X80954D01*
X80928Y34845D01*
X80910Y34842D01*
X80895D01*
X80888Y34838D01*
X80884D01*
X80826Y34820D01*
X80801Y34809D01*
X80779Y34798D01*
X80757Y34787D01*
X80743Y34780D01*
X80735Y34776D01*
X80732Y34773D01*
X80703Y34751D01*
X80673Y34725D01*
X80619Y34671D01*
X80593Y34645D01*
X80575Y34623D01*
X80564Y34609D01*
X80561Y34605D01*
X80524Y34554D01*
X80484Y34499D01*
X80444Y34441D01*
X80404Y34387D01*
X80371Y34336D01*
X80346Y34296D01*
X80335Y34281D01*
X80328Y34270D01*
X80320Y34263D01*
Y34259D01*
X79989Y33735D01*
X79574D01*
X80007Y34419D01*
X80058Y34492D01*
X80106Y34558D01*
X80153Y34612D01*
X80193Y34663D01*
X80229Y34700D01*
X80258Y34729D01*
X80277Y34747D01*
X80284Y34754D01*
X80313Y34776D01*
X80346Y34802D01*
X80411Y34842D01*
X80440Y34856D01*
X80462Y34871D01*
X80477Y34878D01*
X80484Y34882D01*
X80419Y34893D01*
X80357Y34903D01*
X80302Y34922D01*
X80247Y34936D01*
X80200Y34955D01*
X80156Y34976D01*
X80116Y34995D01*
X80080Y35013D01*
X80051Y35035D01*
X80022Y35053D01*
X80000Y35067D01*
X79982Y35082D01*
X79967Y35093D01*
X79956Y35104D01*
X79953Y35107D01*
X79949Y35111D01*
X79920Y35147D01*
X79891Y35184D01*
X79847Y35260D01*
X79818Y35337D01*
X79796Y35410D01*
X79782Y35471D01*
X79778Y35497D01*
Y35522D01*
X79774Y35541D01*
Y35555D01*
Y35562D01*
Y35566D01*
X79778Y35642D01*
X79789Y35712D01*
X79807Y35777D01*
X79825Y35832D01*
X79847Y35879D01*
X79862Y35915D01*
X79876Y35937D01*
X79880Y35941D01*
Y35945D01*
X79924Y36003D01*
X79967Y36054D01*
X80015Y36097D01*
X80058Y36130D01*
X80098Y36156D01*
X80131Y36170D01*
X80153Y36181D01*
X80156Y36185D01*
X80160D01*
X80193Y36196D01*
X80233Y36207D01*
X80313Y36225D01*
X80400Y36236D01*
X80480Y36247D01*
X80557Y36250D01*
X80590D01*
X80619Y36254D01*
X81787D01*
Y33735D01*
D02*
G37*
G36*
X65915Y26203D02*
X65955Y26145D01*
X66002Y26087D01*
X66046Y26036D01*
X66089Y25992D01*
X66122Y25956D01*
X66137Y25945D01*
X66148Y25934D01*
X66151Y25930D01*
X66155Y25926D01*
X66232Y25864D01*
X66308Y25806D01*
X66381Y25755D01*
X66453Y25715D01*
X66515Y25679D01*
X66541Y25664D01*
X66563Y25653D01*
X66581Y25642D01*
X66596Y25639D01*
X66603Y25631D01*
X66606D01*
Y25333D01*
X66552Y25355D01*
X66497Y25380D01*
X66443Y25406D01*
X66392Y25431D01*
X66348Y25453D01*
X66312Y25471D01*
X66290Y25486D01*
X66286Y25490D01*
X66282D01*
X66217Y25530D01*
X66159Y25570D01*
X66108Y25606D01*
X66068Y25639D01*
X66031Y25664D01*
X66009Y25686D01*
X65991Y25701D01*
X65988Y25704D01*
Y23735D01*
X65678D01*
Y26265D01*
X65878D01*
X65915Y26203D01*
D02*
G37*
G36*
X68350Y25038D02*
X69322Y23735D01*
X68921D01*
X68284Y24609D01*
X68270Y24631D01*
X68252Y24656D01*
X68212Y24714D01*
X68193Y24743D01*
X68179Y24765D01*
X68168Y24780D01*
X68164Y24783D01*
X68128Y24729D01*
X68095Y24678D01*
X68081Y24660D01*
X68073Y24645D01*
X68066Y24634D01*
X68062Y24631D01*
X67425Y23735D01*
X67014D01*
X67957Y25056D01*
X67083Y26254D01*
X67447D01*
X67949Y25584D01*
X67993Y25530D01*
X68030Y25479D01*
X68066Y25428D01*
X68095Y25388D01*
X68121Y25351D01*
X68139Y25322D01*
X68150Y25308D01*
X68153Y25300D01*
X68179Y25344D01*
X68208Y25391D01*
X68241Y25442D01*
X68274Y25493D01*
X68306Y25537D01*
X68328Y25573D01*
X68339Y25588D01*
X68346Y25599D01*
X68354Y25602D01*
Y25606D01*
X68812Y26254D01*
X69209D01*
X68350Y25038D01*
D02*
G37*
G36*
X59837Y43703D02*
X59877Y43645D01*
X59925Y43587D01*
X59968Y43536D01*
X60012Y43492D01*
X60045Y43455D01*
X60059Y43445D01*
X60070Y43434D01*
X60074Y43430D01*
X60078Y43426D01*
X60154Y43365D01*
X60230Y43306D01*
X60303Y43255D01*
X60376Y43215D01*
X60438Y43179D01*
X60463Y43164D01*
X60485Y43153D01*
X60504Y43143D01*
X60518Y43139D01*
X60525Y43132D01*
X60529D01*
Y42833D01*
X60474Y42855D01*
X60420Y42880D01*
X60365Y42906D01*
X60314Y42931D01*
X60271Y42953D01*
X60234Y42971D01*
X60212Y42986D01*
X60209Y42990D01*
X60205D01*
X60140Y43030D01*
X60081Y43070D01*
X60030Y43106D01*
X59990Y43139D01*
X59954Y43164D01*
X59932Y43186D01*
X59914Y43201D01*
X59910Y43204D01*
Y41235D01*
X59601D01*
Y43765D01*
X59801D01*
X59837Y43703D01*
D02*
G37*
G36*
X64424Y41235D02*
X64074D01*
X63091Y43754D01*
X63430D01*
X64114Y41923D01*
X64144Y41847D01*
X64169Y41774D01*
X64191Y41705D01*
X64209Y41643D01*
X64227Y41588D01*
X64238Y41548D01*
X64242Y41534D01*
X64245Y41523D01*
X64249Y41515D01*
Y41512D01*
X64293Y41657D01*
X64315Y41726D01*
X64336Y41788D01*
X64355Y41843D01*
X64362Y41865D01*
X64366Y41887D01*
X64373Y41901D01*
X64376Y41912D01*
X64380Y41919D01*
Y41923D01*
X65035Y43754D01*
X65399D01*
X64424Y41235D01*
D02*
G37*
G36*
X62979Y43455D02*
X62149D01*
Y41235D01*
X61814D01*
Y43455D01*
X60984D01*
Y43754D01*
X62979D01*
Y43455D01*
D02*
G37*
G36*
X76395Y43783D02*
X76454Y43776D01*
X76512Y43765D01*
X76563Y43750D01*
X76661Y43710D01*
X76705Y43692D01*
X76741Y43670D01*
X76777Y43645D01*
X76807Y43627D01*
X76836Y43605D01*
X76858Y43587D01*
X76876Y43572D01*
X76887Y43561D01*
X76894Y43554D01*
X76898Y43550D01*
X76938Y43507D01*
X76970Y43455D01*
X77003Y43408D01*
X77029Y43357D01*
X77051Y43303D01*
X77069Y43252D01*
X77094Y43157D01*
X77105Y43110D01*
X77112Y43070D01*
X77116Y43030D01*
X77120Y42997D01*
X77123Y42971D01*
Y42953D01*
Y42939D01*
Y42935D01*
X77120Y42866D01*
X77112Y42804D01*
X77105Y42742D01*
X77091Y42684D01*
X77072Y42633D01*
X77054Y42582D01*
X77036Y42538D01*
X77014Y42498D01*
X76996Y42462D01*
X76978Y42429D01*
X76960Y42404D01*
X76941Y42378D01*
X76927Y42360D01*
X76919Y42349D01*
X76912Y42342D01*
X76908Y42338D01*
X76868Y42298D01*
X76825Y42265D01*
X76781Y42232D01*
X76734Y42207D01*
X76690Y42185D01*
X76646Y42167D01*
X76563Y42142D01*
X76526Y42131D01*
X76490Y42123D01*
X76461Y42120D01*
X76432Y42116D01*
X76410Y42112D01*
X76381D01*
X76311Y42116D01*
X76246Y42127D01*
X76188Y42142D01*
X76133Y42160D01*
X76093Y42174D01*
X76060Y42189D01*
X76038Y42200D01*
X76031Y42203D01*
X75973Y42240D01*
X75922Y42280D01*
X75878Y42320D01*
X75842Y42356D01*
X75817Y42393D01*
X75795Y42418D01*
X75780Y42436D01*
X75776Y42444D01*
Y42415D01*
Y42396D01*
Y42385D01*
Y42382D01*
X75780Y42309D01*
X75784Y42240D01*
X75791Y42178D01*
X75798Y42120D01*
X75809Y42072D01*
X75817Y42036D01*
X75820Y42021D01*
Y42010D01*
X75824Y42007D01*
Y42003D01*
X75842Y41938D01*
X75860Y41879D01*
X75878Y41828D01*
X75897Y41785D01*
X75911Y41752D01*
X75926Y41726D01*
X75933Y41708D01*
X75937Y41705D01*
X75966Y41665D01*
X75995Y41632D01*
X76024Y41603D01*
X76053Y41577D01*
X76075Y41555D01*
X76097Y41541D01*
X76111Y41534D01*
X76115Y41530D01*
X76155Y41508D01*
X76199Y41493D01*
X76239Y41483D01*
X76279Y41475D01*
X76311Y41472D01*
X76337Y41468D01*
X76363D01*
X76421Y41472D01*
X76475Y41483D01*
X76523Y41497D01*
X76563Y41515D01*
X76592Y41530D01*
X76617Y41544D01*
X76632Y41555D01*
X76635Y41559D01*
X76672Y41599D01*
X76701Y41646D01*
X76727Y41697D01*
X76745Y41748D01*
X76759Y41792D01*
X76770Y41832D01*
X76774Y41847D01*
Y41854D01*
X76777Y41861D01*
Y41865D01*
X77076Y41839D01*
X77054Y41734D01*
X77025Y41643D01*
X76989Y41563D01*
X76952Y41497D01*
X76916Y41446D01*
X76898Y41424D01*
X76883Y41406D01*
X76872Y41395D01*
X76861Y41384D01*
X76858Y41381D01*
X76854Y41377D01*
X76818Y41348D01*
X76777Y41322D01*
X76697Y41282D01*
X76617Y41253D01*
X76541Y41235D01*
X76472Y41221D01*
X76443Y41217D01*
X76417D01*
X76399Y41213D01*
X76370D01*
X76268Y41221D01*
X76177Y41235D01*
X76093Y41261D01*
X76024Y41290D01*
X75995Y41301D01*
X75966Y41315D01*
X75944Y41330D01*
X75922Y41341D01*
X75907Y41348D01*
X75897Y41355D01*
X75889Y41363D01*
X75886D01*
X75813Y41424D01*
X75747Y41493D01*
X75696Y41566D01*
X75653Y41636D01*
X75616Y41697D01*
X75602Y41726D01*
X75591Y41748D01*
X75583Y41770D01*
X75576Y41785D01*
X75573Y41792D01*
Y41796D01*
X75554Y41850D01*
X75536Y41912D01*
X75511Y42036D01*
X75493Y42167D01*
X75482Y42291D01*
X75474Y42345D01*
X75471Y42400D01*
Y42447D01*
X75467Y42487D01*
Y42520D01*
Y42546D01*
Y42564D01*
Y42567D01*
Y42651D01*
X75471Y42731D01*
X75478Y42804D01*
X75485Y42873D01*
X75493Y42935D01*
X75500Y42993D01*
X75511Y43048D01*
X75522Y43095D01*
X75533Y43135D01*
X75540Y43172D01*
X75551Y43204D01*
X75558Y43230D01*
X75565Y43248D01*
X75573Y43263D01*
X75576Y43270D01*
Y43273D01*
X75620Y43361D01*
X75667Y43437D01*
X75722Y43503D01*
X75769Y43557D01*
X75817Y43597D01*
X75853Y43627D01*
X75867Y43637D01*
X75878Y43645D01*
X75882Y43652D01*
X75886D01*
X75962Y43696D01*
X76038Y43729D01*
X76115Y43754D01*
X76184Y43769D01*
X76246Y43780D01*
X76271Y43783D01*
X76290D01*
X76308Y43787D01*
X76333D01*
X76395Y43783D01*
D02*
G37*
G36*
X79533Y41257D02*
X79198D01*
Y42374D01*
X78768D01*
X78728Y42371D01*
X78699D01*
X78674Y42367D01*
X78656Y42364D01*
X78641D01*
X78634Y42360D01*
X78630D01*
X78572Y42342D01*
X78547Y42331D01*
X78525Y42320D01*
X78503Y42309D01*
X78488Y42302D01*
X78481Y42298D01*
X78477Y42294D01*
X78448Y42272D01*
X78419Y42247D01*
X78364Y42192D01*
X78339Y42167D01*
X78321Y42145D01*
X78310Y42131D01*
X78306Y42127D01*
X78270Y42076D01*
X78230Y42021D01*
X78190Y41963D01*
X78150Y41908D01*
X78117Y41857D01*
X78092Y41818D01*
X78081Y41803D01*
X78073Y41792D01*
X78066Y41785D01*
Y41781D01*
X77735Y41257D01*
X77320D01*
X77753Y41941D01*
X77804Y42014D01*
X77851Y42080D01*
X77899Y42134D01*
X77939Y42185D01*
X77975Y42222D01*
X78004Y42251D01*
X78022Y42269D01*
X78030Y42276D01*
X78059Y42298D01*
X78092Y42323D01*
X78157Y42364D01*
X78186Y42378D01*
X78208Y42393D01*
X78223Y42400D01*
X78230Y42404D01*
X78164Y42415D01*
X78102Y42425D01*
X78048Y42444D01*
X77993Y42458D01*
X77946Y42476D01*
X77902Y42498D01*
X77862Y42516D01*
X77826Y42535D01*
X77797Y42556D01*
X77767Y42575D01*
X77746Y42589D01*
X77728Y42604D01*
X77713Y42615D01*
X77702Y42626D01*
X77698Y42629D01*
X77695Y42633D01*
X77666Y42669D01*
X77636Y42706D01*
X77593Y42782D01*
X77564Y42858D01*
X77542Y42931D01*
X77527Y42993D01*
X77524Y43019D01*
Y43044D01*
X77520Y43062D01*
Y43077D01*
Y43084D01*
Y43088D01*
X77524Y43164D01*
X77535Y43233D01*
X77553Y43299D01*
X77571Y43354D01*
X77593Y43401D01*
X77607Y43437D01*
X77622Y43459D01*
X77626Y43463D01*
Y43466D01*
X77669Y43525D01*
X77713Y43576D01*
X77760Y43619D01*
X77804Y43652D01*
X77844Y43677D01*
X77877Y43692D01*
X77899Y43703D01*
X77902Y43707D01*
X77906D01*
X77939Y43718D01*
X77979Y43729D01*
X78059Y43747D01*
X78146Y43758D01*
X78226Y43769D01*
X78303Y43772D01*
X78335D01*
X78364Y43776D01*
X79533D01*
Y41257D01*
D02*
G37*
G36*
X20045Y60296D02*
X20172Y60278D01*
X20230Y60267D01*
X20285Y60252D01*
X20336Y60241D01*
X20383Y60227D01*
X20427Y60212D01*
X20463Y60198D01*
X20496Y60183D01*
X20525Y60172D01*
X20547Y60161D01*
X20562Y60154D01*
X20572Y60150D01*
X20576Y60147D01*
X20627Y60114D01*
X20678Y60081D01*
X20765Y60005D01*
X20842Y59928D01*
X20904Y59848D01*
X20955Y59779D01*
X20973Y59750D01*
X20987Y59721D01*
X21002Y59699D01*
X21009Y59684D01*
X21013Y59673D01*
X21017Y59670D01*
X21068Y59550D01*
X21104Y59430D01*
X21133Y59313D01*
X21140Y59258D01*
X21151Y59207D01*
X21155Y59160D01*
X21162Y59120D01*
X21166Y59080D01*
Y59047D01*
X21169Y59022D01*
Y59004D01*
Y58989D01*
Y58985D01*
X21162Y58851D01*
X21144Y58723D01*
X21133Y58665D01*
X21122Y58610D01*
X21108Y58556D01*
X21093Y58509D01*
X21078Y58465D01*
X21064Y58429D01*
X21053Y58392D01*
X21042Y58367D01*
X21031Y58341D01*
X21024Y58327D01*
X21017Y58316D01*
Y58312D01*
X20951Y58206D01*
X20878Y58116D01*
X20802Y58035D01*
X20729Y57970D01*
X20660Y57919D01*
X20634Y57901D01*
X20609Y57882D01*
X20587Y57872D01*
X20572Y57861D01*
X20562Y57857D01*
X20558Y57853D01*
X20500Y57824D01*
X20441Y57802D01*
X20325Y57762D01*
X20212Y57737D01*
X20107Y57715D01*
X20059Y57711D01*
X20016Y57704D01*
X19975Y57701D01*
X19943D01*
X19917Y57697D01*
X19881D01*
X19779Y57701D01*
X19681Y57711D01*
X19590Y57730D01*
X19510Y57748D01*
X19477Y57755D01*
X19444Y57762D01*
X19415Y57773D01*
X19389Y57781D01*
X19371Y57788D01*
X19357Y57792D01*
X19349Y57795D01*
X19346D01*
X19248Y57835D01*
X19157Y57882D01*
X19069Y57933D01*
X18993Y57981D01*
X18960Y58003D01*
X18927Y58025D01*
X18902Y58043D01*
X18880Y58057D01*
X18862Y58072D01*
X18847Y58083D01*
X18840Y58086D01*
X18836Y58090D01*
Y59026D01*
X19906D01*
Y58727D01*
X19164D01*
Y58254D01*
X19207Y58217D01*
X19258Y58185D01*
X19313Y58156D01*
X19364Y58130D01*
X19408Y58108D01*
X19448Y58090D01*
X19462Y58083D01*
X19470Y58079D01*
X19477Y58075D01*
X19480D01*
X19557Y58050D01*
X19633Y58028D01*
X19703Y58014D01*
X19768Y58006D01*
X19823Y57999D01*
X19845D01*
X19866Y57995D01*
X19903D01*
X19994Y57999D01*
X20081Y58014D01*
X20161Y58032D01*
X20234Y58050D01*
X20292Y58072D01*
X20318Y58079D01*
X20336Y58086D01*
X20354Y58094D01*
X20365Y58101D01*
X20372Y58105D01*
X20376D01*
X20452Y58152D01*
X20522Y58203D01*
X20580Y58257D01*
X20627Y58312D01*
X20667Y58363D01*
X20693Y58403D01*
X20704Y58418D01*
X20707Y58429D01*
X20714Y58436D01*
Y58439D01*
X20751Y58530D01*
X20780Y58625D01*
X20798Y58720D01*
X20813Y58811D01*
X20816Y58851D01*
X20820Y58887D01*
X20824Y58924D01*
Y58953D01*
X20827Y58974D01*
Y58993D01*
Y59004D01*
Y59007D01*
X20824Y59109D01*
X20813Y59200D01*
X20798Y59288D01*
X20780Y59364D01*
X20773Y59397D01*
X20762Y59426D01*
X20754Y59451D01*
X20747Y59473D01*
X20740Y59491D01*
X20736Y59502D01*
X20733Y59510D01*
Y59513D01*
X20707Y59564D01*
X20682Y59611D01*
X20656Y59655D01*
X20631Y59692D01*
X20609Y59721D01*
X20591Y59746D01*
X20576Y59761D01*
X20572Y59764D01*
X20532Y59804D01*
X20489Y59841D01*
X20441Y59870D01*
X20398Y59899D01*
X20361Y59917D01*
X20332Y59935D01*
X20310Y59943D01*
X20303Y59946D01*
X20238Y59972D01*
X20172Y59990D01*
X20103Y60001D01*
X20041Y60012D01*
X19986Y60016D01*
X19965D01*
X19946Y60019D01*
X19906D01*
X19837Y60016D01*
X19772Y60008D01*
X19713Y59997D01*
X19662Y59986D01*
X19619Y59972D01*
X19586Y59961D01*
X19568Y59954D01*
X19561Y59950D01*
X19506Y59925D01*
X19459Y59895D01*
X19415Y59866D01*
X19382Y59837D01*
X19357Y59812D01*
X19335Y59794D01*
X19324Y59779D01*
X19320Y59775D01*
X19288Y59732D01*
X19262Y59681D01*
X19237Y59633D01*
X19215Y59582D01*
X19200Y59539D01*
X19189Y59506D01*
X19186Y59491D01*
X19182Y59481D01*
X19178Y59477D01*
Y59473D01*
X18876Y59553D01*
X18902Y59644D01*
X18935Y59724D01*
X18967Y59797D01*
X18996Y59855D01*
X19026Y59903D01*
X19047Y59935D01*
X19062Y59957D01*
X19069Y59965D01*
X19120Y60023D01*
X19175Y60070D01*
X19233Y60114D01*
X19288Y60150D01*
X19339Y60176D01*
X19379Y60198D01*
X19393Y60205D01*
X19404Y60208D01*
X19411Y60212D01*
X19415D01*
X19499Y60241D01*
X19586Y60263D01*
X19666Y60281D01*
X19743Y60292D01*
X19812Y60299D01*
X19841D01*
X19863Y60303D01*
X19979D01*
X20045Y60296D01*
D02*
G37*
G36*
X18578Y58629D02*
Y58345D01*
X17482D01*
Y57741D01*
X17173D01*
Y58345D01*
X16831D01*
Y58629D01*
X17173D01*
Y60259D01*
X17424D01*
X18578Y58629D01*
D02*
G37*
G36*
X73123Y19208D02*
X73163Y19150D01*
X73211Y19092D01*
X73254Y19041D01*
X73298Y18997D01*
X73331Y18961D01*
X73345Y18950D01*
X73356Y18939D01*
X73360Y18936D01*
X73364Y18932D01*
X73440Y18870D01*
X73516Y18812D01*
X73589Y18761D01*
X73662Y18721D01*
X73724Y18684D01*
X73749Y18670D01*
X73771Y18659D01*
X73789Y18648D01*
X73804Y18644D01*
X73811Y18637D01*
X73815D01*
Y18338D01*
X73760Y18360D01*
X73706Y18386D01*
X73651Y18411D01*
X73600Y18437D01*
X73556Y18459D01*
X73520Y18477D01*
X73498Y18491D01*
X73494Y18495D01*
X73491D01*
X73425Y18535D01*
X73367Y18575D01*
X73316Y18611D01*
X73276Y18644D01*
X73240Y18670D01*
X73218Y18692D01*
X73200Y18706D01*
X73196Y18710D01*
Y16741D01*
X72887D01*
Y19270D01*
X73087D01*
X73123Y19208D01*
D02*
G37*
G36*
X71365Y19267D02*
X71423Y19259D01*
X71482Y19249D01*
X71533Y19234D01*
X71631Y19194D01*
X71675Y19176D01*
X71711Y19154D01*
X71747Y19128D01*
X71776Y19110D01*
X71806Y19088D01*
X71827Y19070D01*
X71846Y19056D01*
X71856Y19045D01*
X71864Y19037D01*
X71868Y19034D01*
X71908Y18990D01*
X71940Y18939D01*
X71973Y18892D01*
X71999Y18841D01*
X72020Y18786D01*
X72039Y18735D01*
X72064Y18641D01*
X72075Y18593D01*
X72082Y18553D01*
X72086Y18513D01*
X72089Y18481D01*
X72093Y18455D01*
Y18437D01*
Y18422D01*
Y18419D01*
X72089Y18349D01*
X72082Y18288D01*
X72075Y18226D01*
X72060Y18167D01*
X72042Y18116D01*
X72024Y18066D01*
X72006Y18022D01*
X71984Y17982D01*
X71966Y17945D01*
X71947Y17913D01*
X71929Y17887D01*
X71911Y17862D01*
X71897Y17843D01*
X71889Y17833D01*
X71882Y17825D01*
X71878Y17822D01*
X71838Y17782D01*
X71795Y17749D01*
X71751Y17716D01*
X71704Y17691D01*
X71660Y17669D01*
X71616Y17651D01*
X71533Y17625D01*
X71496Y17614D01*
X71460Y17607D01*
X71431Y17603D01*
X71402Y17600D01*
X71380Y17596D01*
X71351D01*
X71281Y17600D01*
X71216Y17610D01*
X71158Y17625D01*
X71103Y17643D01*
X71063Y17658D01*
X71030Y17672D01*
X71008Y17683D01*
X71001Y17687D01*
X70943Y17723D01*
X70892Y17763D01*
X70848Y17803D01*
X70812Y17840D01*
X70786Y17876D01*
X70764Y17902D01*
X70750Y17920D01*
X70746Y17927D01*
Y17898D01*
Y17880D01*
Y17869D01*
Y17865D01*
X70750Y17793D01*
X70754Y17723D01*
X70761Y17661D01*
X70768Y17603D01*
X70779Y17556D01*
X70786Y17519D01*
X70790Y17505D01*
Y17494D01*
X70794Y17490D01*
Y17487D01*
X70812Y17421D01*
X70830Y17363D01*
X70848Y17312D01*
X70867Y17268D01*
X70881Y17236D01*
X70896Y17210D01*
X70903Y17192D01*
X70907Y17188D01*
X70936Y17148D01*
X70965Y17116D01*
X70994Y17086D01*
X71023Y17061D01*
X71045Y17039D01*
X71067Y17025D01*
X71081Y17017D01*
X71085Y17014D01*
X71125Y16992D01*
X71169Y16977D01*
X71209Y16966D01*
X71249Y16959D01*
X71281Y16955D01*
X71307Y16952D01*
X71332D01*
X71391Y16955D01*
X71445Y16966D01*
X71492Y16981D01*
X71533Y16999D01*
X71562Y17014D01*
X71587Y17028D01*
X71602Y17039D01*
X71605Y17043D01*
X71642Y17083D01*
X71671Y17130D01*
X71696Y17181D01*
X71715Y17232D01*
X71729Y17276D01*
X71740Y17316D01*
X71744Y17330D01*
Y17337D01*
X71747Y17345D01*
Y17348D01*
X72046Y17323D01*
X72024Y17217D01*
X71995Y17126D01*
X71959Y17046D01*
X71922Y16981D01*
X71886Y16930D01*
X71868Y16908D01*
X71853Y16890D01*
X71842Y16879D01*
X71831Y16868D01*
X71827Y16864D01*
X71824Y16861D01*
X71787Y16832D01*
X71747Y16806D01*
X71667Y16766D01*
X71587Y16737D01*
X71511Y16719D01*
X71442Y16704D01*
X71412Y16701D01*
X71387D01*
X71369Y16697D01*
X71340D01*
X71238Y16704D01*
X71147Y16719D01*
X71063Y16744D01*
X70994Y16773D01*
X70965Y16784D01*
X70936Y16799D01*
X70914Y16813D01*
X70892Y16824D01*
X70877Y16832D01*
X70867Y16839D01*
X70859Y16846D01*
X70855D01*
X70783Y16908D01*
X70717Y16977D01*
X70666Y17050D01*
X70623Y17119D01*
X70586Y17181D01*
X70572Y17210D01*
X70561Y17232D01*
X70553Y17254D01*
X70546Y17268D01*
X70543Y17276D01*
Y17279D01*
X70524Y17334D01*
X70506Y17396D01*
X70481Y17519D01*
X70462Y17651D01*
X70451Y17774D01*
X70444Y17829D01*
X70441Y17884D01*
Y17931D01*
X70437Y17971D01*
Y18004D01*
Y18029D01*
Y18047D01*
Y18051D01*
Y18135D01*
X70441Y18215D01*
X70448Y18288D01*
X70455Y18357D01*
X70462Y18419D01*
X70470Y18477D01*
X70481Y18531D01*
X70491Y18579D01*
X70503Y18619D01*
X70510Y18655D01*
X70521Y18688D01*
X70528Y18713D01*
X70535Y18732D01*
X70543Y18746D01*
X70546Y18754D01*
Y18757D01*
X70590Y18845D01*
X70637Y18921D01*
X70692Y18986D01*
X70739Y19041D01*
X70786Y19081D01*
X70823Y19110D01*
X70837Y19121D01*
X70848Y19128D01*
X70852Y19136D01*
X70855D01*
X70932Y19179D01*
X71008Y19212D01*
X71085Y19238D01*
X71154Y19252D01*
X71216Y19263D01*
X71241Y19267D01*
X71260D01*
X71278Y19270D01*
X71303D01*
X71365Y19267D01*
D02*
G37*
G36*
X75497Y19296D02*
X75613Y19278D01*
X75715Y19256D01*
X75762Y19241D01*
X75806Y19227D01*
X75846Y19212D01*
X75882Y19198D01*
X75911Y19187D01*
X75941Y19176D01*
X75959Y19165D01*
X75973Y19158D01*
X75984Y19154D01*
X75988Y19150D01*
X76086Y19088D01*
X76170Y19016D01*
X76243Y18943D01*
X76305Y18870D01*
X76352Y18804D01*
X76370Y18775D01*
X76385Y18750D01*
X76399Y18732D01*
X76407Y18717D01*
X76410Y18706D01*
X76414Y18702D01*
X76465Y18590D01*
X76501Y18473D01*
X76527Y18357D01*
X76545Y18251D01*
X76552Y18204D01*
X76556Y18157D01*
X76559Y18120D01*
Y18084D01*
X76563Y18058D01*
Y18036D01*
Y18022D01*
Y18018D01*
X76556Y17887D01*
X76541Y17760D01*
X76523Y17647D01*
X76508Y17592D01*
X76498Y17545D01*
X76487Y17501D01*
X76472Y17461D01*
X76461Y17425D01*
X76454Y17396D01*
X76443Y17374D01*
X76439Y17356D01*
X76432Y17345D01*
Y17341D01*
X76377Y17232D01*
X76315Y17134D01*
X76250Y17050D01*
X76217Y17017D01*
X76188Y16984D01*
X76159Y16955D01*
X76130Y16930D01*
X76104Y16908D01*
X76083Y16893D01*
X76068Y16879D01*
X76054Y16868D01*
X76046Y16864D01*
X76042Y16861D01*
X75992Y16832D01*
X75941Y16806D01*
X75831Y16766D01*
X75722Y16737D01*
X75617Y16719D01*
X75566Y16711D01*
X75522Y16704D01*
X75482Y16701D01*
X75449D01*
X75420Y16697D01*
X75380D01*
X75307Y16701D01*
X75238Y16708D01*
X75173Y16715D01*
X75111Y16730D01*
X75052Y16748D01*
X74998Y16766D01*
X74947Y16784D01*
X74900Y16806D01*
X74859Y16824D01*
X74819Y16842D01*
X74790Y16861D01*
X74761Y16879D01*
X74743Y16893D01*
X74725Y16901D01*
X74718Y16908D01*
X74714Y16912D01*
X74663Y16955D01*
X74619Y16999D01*
X74579Y17050D01*
X74539Y17101D01*
X74474Y17203D01*
X74423Y17305D01*
X74401Y17352D01*
X74383Y17396D01*
X74368Y17436D01*
X74357Y17469D01*
X74346Y17498D01*
X74339Y17519D01*
X74335Y17534D01*
Y17538D01*
X74670Y17621D01*
X74685Y17563D01*
X74703Y17509D01*
X74721Y17458D01*
X74739Y17410D01*
X74761Y17367D01*
X74783Y17330D01*
X74809Y17294D01*
X74830Y17261D01*
X74849Y17232D01*
X74871Y17210D01*
X74889Y17188D01*
X74903Y17170D01*
X74918Y17159D01*
X74929Y17148D01*
X74932Y17145D01*
X74936Y17141D01*
X74972Y17112D01*
X75012Y17090D01*
X75093Y17050D01*
X75169Y17021D01*
X75245Y17003D01*
X75311Y16988D01*
X75336Y16984D01*
X75362D01*
X75384Y16981D01*
X75409D01*
X75493Y16984D01*
X75573Y16999D01*
X75646Y17017D01*
X75711Y17039D01*
X75762Y17061D01*
X75784Y17072D01*
X75802Y17079D01*
X75817Y17086D01*
X75828Y17094D01*
X75835Y17097D01*
X75839D01*
X75908Y17148D01*
X75966Y17203D01*
X76017Y17265D01*
X76057Y17323D01*
X76090Y17374D01*
X76112Y17418D01*
X76119Y17436D01*
X76126Y17447D01*
X76130Y17454D01*
Y17458D01*
X76159Y17552D01*
X76181Y17647D01*
X76199Y17742D01*
X76210Y17829D01*
X76214Y17869D01*
X76217Y17905D01*
Y17938D01*
X76221Y17964D01*
Y17985D01*
Y18004D01*
Y18015D01*
Y18018D01*
X76217Y18113D01*
X76210Y18200D01*
X76195Y18280D01*
X76181Y18353D01*
X76170Y18415D01*
X76163Y18440D01*
X76155Y18462D01*
X76152Y18481D01*
X76148Y18491D01*
X76144Y18499D01*
Y18502D01*
X76108Y18586D01*
X76068Y18663D01*
X76024Y18724D01*
X75977Y18779D01*
X75937Y18823D01*
X75904Y18852D01*
X75879Y18870D01*
X75875Y18877D01*
X75871D01*
X75795Y18925D01*
X75711Y18961D01*
X75631Y18986D01*
X75555Y19001D01*
X75486Y19012D01*
X75457Y19016D01*
X75431D01*
X75413Y19019D01*
X75384D01*
X75293Y19016D01*
X75209Y19001D01*
X75140Y18979D01*
X75078Y18957D01*
X75031Y18932D01*
X74994Y18914D01*
X74972Y18899D01*
X74965Y18892D01*
X74907Y18837D01*
X74852Y18775D01*
X74809Y18710D01*
X74772Y18644D01*
X74743Y18586D01*
X74732Y18557D01*
X74725Y18535D01*
X74718Y18517D01*
X74710Y18502D01*
X74707Y18495D01*
Y18491D01*
X74379Y18568D01*
X74401Y18633D01*
X74423Y18692D01*
X74452Y18746D01*
X74477Y18801D01*
X74506Y18848D01*
X74539Y18892D01*
X74568Y18936D01*
X74598Y18972D01*
X74627Y19001D01*
X74652Y19030D01*
X74677Y19056D01*
X74696Y19074D01*
X74714Y19092D01*
X74729Y19103D01*
X74736Y19107D01*
X74739Y19110D01*
X74790Y19143D01*
X74841Y19176D01*
X74892Y19201D01*
X74947Y19223D01*
X75056Y19256D01*
X75154Y19278D01*
X75202Y19289D01*
X75242Y19292D01*
X75282Y19296D01*
X75314Y19299D01*
X75340Y19303D01*
X75376D01*
X75497Y19296D01*
D02*
G37*
G36*
X52123Y26208D02*
X52163Y26150D01*
X52211Y26092D01*
X52254Y26041D01*
X52298Y25997D01*
X52331Y25961D01*
X52345Y25950D01*
X52356Y25939D01*
X52360Y25936D01*
X52364Y25932D01*
X52440Y25870D01*
X52516Y25812D01*
X52589Y25761D01*
X52662Y25721D01*
X52724Y25684D01*
X52749Y25670D01*
X52771Y25659D01*
X52789Y25648D01*
X52804Y25644D01*
X52811Y25637D01*
X52815D01*
Y25339D01*
X52760Y25360D01*
X52706Y25386D01*
X52651Y25411D01*
X52600Y25437D01*
X52556Y25459D01*
X52520Y25477D01*
X52498Y25491D01*
X52495Y25495D01*
X52491D01*
X52425Y25535D01*
X52367Y25575D01*
X52316Y25611D01*
X52276Y25644D01*
X52240Y25670D01*
X52218Y25692D01*
X52200Y25706D01*
X52196Y25710D01*
Y23741D01*
X51887D01*
Y26270D01*
X52087D01*
X52123Y26208D01*
D02*
G37*
G36*
X54497Y26296D02*
X54613Y26278D01*
X54715Y26256D01*
X54762Y26241D01*
X54806Y26227D01*
X54846Y26212D01*
X54882Y26198D01*
X54912Y26187D01*
X54941Y26176D01*
X54959Y26165D01*
X54973Y26158D01*
X54984Y26154D01*
X54988Y26150D01*
X55086Y26088D01*
X55170Y26016D01*
X55243Y25943D01*
X55305Y25870D01*
X55352Y25804D01*
X55370Y25775D01*
X55385Y25750D01*
X55399Y25732D01*
X55406Y25717D01*
X55410Y25706D01*
X55414Y25703D01*
X55465Y25590D01*
X55501Y25473D01*
X55527Y25357D01*
X55545Y25251D01*
X55552Y25204D01*
X55556Y25157D01*
X55559Y25120D01*
Y25084D01*
X55563Y25058D01*
Y25036D01*
Y25022D01*
Y25018D01*
X55556Y24887D01*
X55541Y24760D01*
X55523Y24647D01*
X55509Y24592D01*
X55497Y24545D01*
X55487Y24501D01*
X55472Y24461D01*
X55461Y24425D01*
X55454Y24396D01*
X55443Y24374D01*
X55439Y24356D01*
X55432Y24345D01*
Y24341D01*
X55377Y24232D01*
X55316Y24134D01*
X55250Y24050D01*
X55217Y24017D01*
X55188Y23984D01*
X55159Y23955D01*
X55130Y23930D01*
X55104Y23908D01*
X55083Y23893D01*
X55068Y23879D01*
X55054Y23868D01*
X55046Y23864D01*
X55042Y23861D01*
X54992Y23832D01*
X54941Y23806D01*
X54831Y23766D01*
X54722Y23737D01*
X54617Y23719D01*
X54566Y23711D01*
X54522Y23704D01*
X54482Y23700D01*
X54449D01*
X54420Y23697D01*
X54380D01*
X54307Y23700D01*
X54238Y23708D01*
X54173Y23715D01*
X54111Y23730D01*
X54053Y23748D01*
X53998Y23766D01*
X53947Y23784D01*
X53900Y23806D01*
X53860Y23824D01*
X53820Y23843D01*
X53790Y23861D01*
X53761Y23879D01*
X53743Y23893D01*
X53725Y23901D01*
X53718Y23908D01*
X53714Y23912D01*
X53663Y23955D01*
X53619Y23999D01*
X53579Y24050D01*
X53539Y24101D01*
X53474Y24203D01*
X53423Y24305D01*
X53401Y24352D01*
X53383Y24396D01*
X53368Y24436D01*
X53357Y24469D01*
X53346Y24498D01*
X53339Y24520D01*
X53335Y24534D01*
Y24538D01*
X53670Y24621D01*
X53685Y24563D01*
X53703Y24509D01*
X53721Y24458D01*
X53739Y24410D01*
X53761Y24367D01*
X53783Y24330D01*
X53809Y24294D01*
X53830Y24261D01*
X53849Y24232D01*
X53870Y24210D01*
X53889Y24188D01*
X53903Y24170D01*
X53918Y24159D01*
X53929Y24148D01*
X53932Y24145D01*
X53936Y24141D01*
X53972Y24112D01*
X54012Y24090D01*
X54093Y24050D01*
X54169Y24021D01*
X54245Y24003D01*
X54311Y23988D01*
X54336Y23984D01*
X54362D01*
X54384Y23981D01*
X54409D01*
X54493Y23984D01*
X54573Y23999D01*
X54646Y24017D01*
X54711Y24039D01*
X54762Y24061D01*
X54784Y24072D01*
X54802Y24079D01*
X54817Y24086D01*
X54828Y24094D01*
X54835Y24097D01*
X54839D01*
X54908Y24148D01*
X54966Y24203D01*
X55017Y24265D01*
X55057Y24323D01*
X55090Y24374D01*
X55112Y24418D01*
X55119Y24436D01*
X55126Y24447D01*
X55130Y24454D01*
Y24458D01*
X55159Y24552D01*
X55181Y24647D01*
X55199Y24742D01*
X55210Y24829D01*
X55214Y24869D01*
X55217Y24905D01*
Y24938D01*
X55221Y24964D01*
Y24985D01*
Y25004D01*
Y25015D01*
Y25018D01*
X55217Y25113D01*
X55210Y25200D01*
X55195Y25280D01*
X55181Y25353D01*
X55170Y25415D01*
X55163Y25440D01*
X55155Y25462D01*
X55152Y25480D01*
X55148Y25491D01*
X55145Y25499D01*
Y25502D01*
X55108Y25586D01*
X55068Y25662D01*
X55024Y25724D01*
X54977Y25779D01*
X54937Y25823D01*
X54904Y25852D01*
X54879Y25870D01*
X54875Y25877D01*
X54871D01*
X54795Y25925D01*
X54711Y25961D01*
X54631Y25986D01*
X54555Y26001D01*
X54486Y26012D01*
X54457Y26016D01*
X54431D01*
X54413Y26019D01*
X54384D01*
X54293Y26016D01*
X54209Y26001D01*
X54140Y25979D01*
X54078Y25957D01*
X54031Y25932D01*
X53994Y25914D01*
X53972Y25899D01*
X53965Y25892D01*
X53907Y25837D01*
X53852Y25775D01*
X53809Y25710D01*
X53772Y25644D01*
X53743Y25586D01*
X53732Y25557D01*
X53725Y25535D01*
X53718Y25517D01*
X53710Y25502D01*
X53707Y25495D01*
Y25491D01*
X53379Y25568D01*
X53401Y25633D01*
X53423Y25692D01*
X53452Y25746D01*
X53477Y25801D01*
X53506Y25848D01*
X53539Y25892D01*
X53568Y25936D01*
X53597Y25972D01*
X53627Y26001D01*
X53652Y26030D01*
X53677Y26056D01*
X53696Y26074D01*
X53714Y26092D01*
X53728Y26103D01*
X53736Y26107D01*
X53739Y26110D01*
X53790Y26143D01*
X53841Y26176D01*
X53892Y26201D01*
X53947Y26223D01*
X54056Y26256D01*
X54154Y26278D01*
X54202Y26289D01*
X54242Y26292D01*
X54282Y26296D01*
X54315Y26300D01*
X54340Y26303D01*
X54376D01*
X54497Y26296D01*
D02*
G37*
G36*
X50332Y26267D02*
X50391Y26263D01*
X50493Y26241D01*
X50540Y26227D01*
X50583Y26212D01*
X50624Y26194D01*
X50660Y26176D01*
X50689Y26158D01*
X50718Y26139D01*
X50744Y26125D01*
X50762Y26110D01*
X50776Y26099D01*
X50787Y26088D01*
X50795Y26085D01*
X50798Y26081D01*
X50831Y26045D01*
X50864Y26008D01*
X50889Y25968D01*
X50911Y25928D01*
X50947Y25852D01*
X50969Y25779D01*
X50984Y25717D01*
X50988Y25688D01*
X50991Y25666D01*
X50995Y25644D01*
Y25630D01*
Y25622D01*
Y25619D01*
X50991Y25553D01*
X50980Y25491D01*
X50966Y25437D01*
X50947Y25390D01*
X50933Y25353D01*
X50918Y25324D01*
X50907Y25309D01*
X50904Y25302D01*
X50864Y25258D01*
X50820Y25218D01*
X50773Y25182D01*
X50726Y25153D01*
X50682Y25131D01*
X50649Y25117D01*
X50634Y25109D01*
X50624Y25106D01*
X50620Y25102D01*
X50616D01*
X50700Y25076D01*
X50769Y25044D01*
X50831Y25004D01*
X50882Y24967D01*
X50922Y24931D01*
X50951Y24902D01*
X50966Y24883D01*
X50973Y24880D01*
Y24876D01*
X51013Y24811D01*
X51046Y24742D01*
X51068Y24676D01*
X51082Y24611D01*
X51090Y24552D01*
X51093Y24527D01*
Y24505D01*
X51097Y24490D01*
Y24476D01*
Y24469D01*
Y24465D01*
X51093Y24407D01*
X51086Y24348D01*
X51075Y24294D01*
X51060Y24239D01*
X51024Y24148D01*
X51006Y24105D01*
X50984Y24068D01*
X50962Y24032D01*
X50944Y24003D01*
X50922Y23977D01*
X50907Y23955D01*
X50893Y23937D01*
X50882Y23926D01*
X50875Y23919D01*
X50871Y23915D01*
X50827Y23875D01*
X50780Y23843D01*
X50729Y23813D01*
X50678Y23788D01*
X50631Y23770D01*
X50580Y23752D01*
X50482Y23726D01*
X50438Y23715D01*
X50398Y23708D01*
X50362Y23704D01*
X50329Y23700D01*
X50303Y23697D01*
X50267D01*
X50198Y23700D01*
X50136Y23708D01*
X50074Y23719D01*
X50016Y23730D01*
X49965Y23748D01*
X49914Y23766D01*
X49867Y23784D01*
X49826Y23806D01*
X49790Y23828D01*
X49757Y23846D01*
X49732Y23864D01*
X49706Y23882D01*
X49688Y23893D01*
X49677Y23904D01*
X49670Y23912D01*
X49666Y23915D01*
X49626Y23959D01*
X49590Y24003D01*
X49561Y24046D01*
X49535Y24094D01*
X49510Y24137D01*
X49492Y24185D01*
X49466Y24268D01*
X49455Y24308D01*
X49448Y24345D01*
X49444Y24378D01*
X49441Y24403D01*
X49437Y24425D01*
Y24443D01*
Y24454D01*
Y24458D01*
X49441Y24541D01*
X49455Y24618D01*
X49477Y24687D01*
X49499Y24745D01*
X49521Y24792D01*
X49542Y24829D01*
X49557Y24851D01*
X49561Y24854D01*
Y24858D01*
X49612Y24916D01*
X49666Y24967D01*
X49725Y25007D01*
X49779Y25044D01*
X49830Y25069D01*
X49874Y25087D01*
X49888Y25095D01*
X49899Y25098D01*
X49907Y25102D01*
X49910D01*
X49845Y25131D01*
X49790Y25164D01*
X49743Y25197D01*
X49703Y25229D01*
X49674Y25258D01*
X49652Y25280D01*
X49637Y25295D01*
X49633Y25302D01*
X49601Y25353D01*
X49579Y25404D01*
X49561Y25455D01*
X49550Y25506D01*
X49542Y25546D01*
X49539Y25579D01*
Y25601D01*
Y25604D01*
Y25608D01*
X49542Y25659D01*
X49546Y25706D01*
X49572Y25797D01*
X49604Y25877D01*
X49641Y25946D01*
X49677Y26001D01*
X49695Y26023D01*
X49710Y26045D01*
X49725Y26059D01*
X49735Y26070D01*
X49739Y26074D01*
X49743Y26077D01*
X49783Y26110D01*
X49823Y26143D01*
X49867Y26168D01*
X49910Y26190D01*
X49997Y26223D01*
X50085Y26245D01*
X50121Y26256D01*
X50158Y26259D01*
X50190Y26263D01*
X50220Y26267D01*
X50241Y26270D01*
X50274D01*
X50332Y26267D01*
D02*
G37*
G36*
X7129Y72572D02*
X8759D01*
Y72320D01*
X7129Y71167D01*
X6845D01*
Y72262D01*
X6241D01*
Y72572D01*
X6845D01*
Y72914D01*
X7129D01*
Y72572D01*
D02*
G37*
G36*
X6539Y69762D02*
X8759D01*
Y69427D01*
X6241D01*
Y71003D01*
X6539D01*
Y69762D01*
D02*
G37*
G36*
Y67468D02*
X6717Y67618D01*
X8461Y69041D01*
X8759D01*
Y67232D01*
X8461D01*
Y68641D01*
X8410Y68593D01*
X8359Y68546D01*
X8308Y68502D01*
X8261Y68462D01*
X8221Y68429D01*
X8188Y68404D01*
X8166Y68386D01*
X8162Y68378D01*
X8159D01*
X6550Y67086D01*
X6241D01*
Y69081D01*
X6539D01*
Y67468D01*
D02*
G37*
G36*
X30743Y44925D02*
X30445D01*
Y46537D01*
X30266Y46388D01*
X28523Y44965D01*
X28224D01*
Y46774D01*
X28523D01*
Y45365D01*
X28574Y45412D01*
X28625Y45460D01*
X28675Y45503D01*
X28723Y45543D01*
X28763Y45576D01*
X28796Y45602D01*
X28817Y45620D01*
X28821Y45627D01*
X28825D01*
X30434Y46919D01*
X30743D01*
Y44925D01*
D02*
G37*
G36*
Y43003D02*
X30445D01*
Y44244D01*
X28224D01*
Y44579D01*
X30743D01*
Y43003D01*
D02*
G37*
G36*
X30135Y42722D02*
X30190Y42711D01*
X30292Y42679D01*
X30379Y42639D01*
X30415Y42617D01*
X30452Y42595D01*
X30485Y42573D01*
X30510Y42551D01*
X30536Y42533D01*
X30554Y42515D01*
X30568Y42504D01*
X30579Y42493D01*
X30586Y42486D01*
X30590Y42482D01*
X30623Y42438D01*
X30656Y42395D01*
X30681Y42351D01*
X30703Y42304D01*
X30739Y42213D01*
X30761Y42125D01*
X30768Y42085D01*
X30776Y42049D01*
X30779Y42016D01*
X30783Y41987D01*
X30787Y41965D01*
Y41932D01*
X30783Y41863D01*
X30776Y41801D01*
X30765Y41740D01*
X30750Y41681D01*
X30732Y41627D01*
X30714Y41579D01*
X30692Y41532D01*
X30670Y41492D01*
X30652Y41452D01*
X30630Y41419D01*
X30612Y41390D01*
X30594Y41368D01*
X30579Y41350D01*
X30568Y41335D01*
X30561Y41328D01*
X30557Y41325D01*
X30514Y41281D01*
X30466Y41245D01*
X30419Y41212D01*
X30372Y41183D01*
X30328Y41161D01*
X30281Y41139D01*
X30193Y41110D01*
X30153Y41103D01*
X30117Y41095D01*
X30084Y41088D01*
X30055Y41084D01*
X30033Y41081D01*
X30015D01*
X30004D01*
X30000D01*
X29913Y41084D01*
X29833Y41099D01*
X29764Y41121D01*
X29706Y41143D01*
X29658Y41164D01*
X29622Y41186D01*
X29600Y41201D01*
X29593Y41205D01*
X29538Y41255D01*
X29491Y41310D01*
X29454Y41368D01*
X29425Y41427D01*
X29403Y41478D01*
X29389Y41517D01*
X29385Y41532D01*
X29382Y41543D01*
X29378Y41550D01*
Y41554D01*
X29345Y41492D01*
X29313Y41441D01*
X29276Y41397D01*
X29243Y41361D01*
X29214Y41332D01*
X29189Y41310D01*
X29174Y41299D01*
X29167Y41295D01*
X29116Y41266D01*
X29065Y41245D01*
X29014Y41226D01*
X28967Y41215D01*
X28927Y41208D01*
X28898Y41205D01*
X28876D01*
X28868D01*
X28807Y41208D01*
X28745Y41219D01*
X28690Y41234D01*
X28643Y41252D01*
X28603Y41270D01*
X28570Y41285D01*
X28552Y41295D01*
X28545Y41299D01*
X28490Y41335D01*
X28443Y41379D01*
X28403Y41423D01*
X28366Y41467D01*
X28341Y41503D01*
X28319Y41536D01*
X28308Y41558D01*
X28304Y41561D01*
Y41565D01*
X28275Y41630D01*
X28253Y41696D01*
X28235Y41761D01*
X28224Y41820D01*
X28217Y41867D01*
X28213Y41907D01*
Y41998D01*
X28220Y42049D01*
X28239Y42147D01*
X28268Y42231D01*
X28297Y42304D01*
X28315Y42336D01*
X28330Y42362D01*
X28344Y42388D01*
X28359Y42406D01*
X28370Y42420D01*
X28377Y42431D01*
X28381Y42438D01*
X28384Y42442D01*
X28453Y42511D01*
X28530Y42566D01*
X28610Y42610D01*
X28690Y42646D01*
X28759Y42668D01*
X28788Y42679D01*
X28814Y42686D01*
X28836Y42690D01*
X28850Y42693D01*
X28861Y42697D01*
X28865D01*
X28919Y42388D01*
X28839Y42373D01*
X28770Y42351D01*
X28712Y42326D01*
X28665Y42300D01*
X28628Y42275D01*
X28603Y42253D01*
X28585Y42238D01*
X28581Y42235D01*
X28545Y42187D01*
X28515Y42136D01*
X28497Y42089D01*
X28483Y42042D01*
X28475Y41998D01*
X28468Y41965D01*
Y41936D01*
X28472Y41871D01*
X28486Y41812D01*
X28504Y41761D01*
X28523Y41718D01*
X28545Y41685D01*
X28563Y41660D01*
X28577Y41641D01*
X28581Y41638D01*
X28625Y41598D01*
X28672Y41568D01*
X28719Y41550D01*
X28763Y41536D01*
X28803Y41528D01*
X28832Y41521D01*
X28854D01*
X28857D01*
X28861D01*
X28901D01*
X28938Y41528D01*
X29000Y41547D01*
X29054Y41572D01*
X29101Y41601D01*
X29134Y41630D01*
X29160Y41656D01*
X29174Y41674D01*
X29178Y41678D01*
Y41681D01*
X29211Y41743D01*
X29236Y41801D01*
X29254Y41863D01*
X29265Y41918D01*
X29272Y41965D01*
X29280Y42005D01*
Y42053D01*
X29276Y42067D01*
Y42085D01*
X29549Y42122D01*
X29538Y42074D01*
X29531Y42031D01*
X29524Y41994D01*
X29520Y41962D01*
X29516Y41936D01*
Y41903D01*
X29524Y41827D01*
X29538Y41758D01*
X29560Y41696D01*
X29585Y41645D01*
X29611Y41605D01*
X29633Y41576D01*
X29647Y41558D01*
X29655Y41550D01*
X29709Y41503D01*
X29768Y41467D01*
X29826Y41441D01*
X29884Y41427D01*
X29931Y41416D01*
X29971Y41412D01*
X29986Y41408D01*
X29997D01*
X30004D01*
X30008D01*
X30088Y41416D01*
X30161Y41434D01*
X30222Y41456D01*
X30277Y41485D01*
X30321Y41514D01*
X30354Y41536D01*
X30375Y41554D01*
X30383Y41561D01*
X30434Y41619D01*
X30470Y41681D01*
X30496Y41743D01*
X30514Y41801D01*
X30525Y41852D01*
X30528Y41892D01*
X30532Y41907D01*
Y41929D01*
X30528Y41994D01*
X30514Y42056D01*
X30496Y42111D01*
X30474Y42154D01*
X30455Y42191D01*
X30437Y42220D01*
X30423Y42235D01*
X30419Y42242D01*
X30368Y42286D01*
X30310Y42322D01*
X30248Y42355D01*
X30182Y42380D01*
X30128Y42398D01*
X30102Y42406D01*
X30081Y42409D01*
X30062Y42413D01*
X30048Y42417D01*
X30040Y42420D01*
X30037D01*
X30077Y42730D01*
X30135Y42722D01*
D02*
G37*
G36*
X78802Y67783D02*
X78872Y67776D01*
X78937Y67761D01*
X78999Y67743D01*
X79054Y67718D01*
X79108Y67696D01*
X79155Y67667D01*
X79199Y67641D01*
X79236Y67616D01*
X79272Y67586D01*
X79301Y67565D01*
X79323Y67543D01*
X79341Y67521D01*
X79356Y67506D01*
X79363Y67499D01*
X79367Y67496D01*
X79414Y67430D01*
X79454Y67354D01*
X79490Y67273D01*
X79523Y67190D01*
X79549Y67102D01*
X79571Y67015D01*
X79589Y66924D01*
X79603Y66840D01*
X79614Y66757D01*
X79621Y66680D01*
X79629Y66611D01*
X79632Y66553D01*
Y66502D01*
X79636Y66465D01*
Y66451D01*
Y66440D01*
Y66436D01*
Y66433D01*
X79632Y66316D01*
X79625Y66207D01*
X79614Y66105D01*
X79596Y66010D01*
X79578Y65927D01*
X79560Y65850D01*
X79538Y65781D01*
X79512Y65719D01*
X79490Y65668D01*
X79469Y65621D01*
X79450Y65584D01*
X79428Y65552D01*
X79414Y65526D01*
X79403Y65512D01*
X79396Y65501D01*
X79392Y65497D01*
X79345Y65446D01*
X79294Y65403D01*
X79243Y65366D01*
X79192Y65333D01*
X79137Y65304D01*
X79086Y65282D01*
X79035Y65264D01*
X78984Y65250D01*
X78941Y65239D01*
X78897Y65228D01*
X78861Y65220D01*
X78828Y65217D01*
X78799D01*
X78781Y65213D01*
X78762D01*
X78679Y65217D01*
X78602Y65232D01*
X78533Y65246D01*
X78471Y65268D01*
X78424Y65286D01*
X78387Y65304D01*
X78373Y65308D01*
X78362Y65315D01*
X78358Y65319D01*
X78355D01*
X78293Y65363D01*
X78235Y65413D01*
X78187Y65464D01*
X78147Y65515D01*
X78114Y65563D01*
X78093Y65599D01*
X78085Y65614D01*
X78078Y65625D01*
X78074Y65628D01*
Y65632D01*
X78038Y65708D01*
X78013Y65788D01*
X77994Y65861D01*
X77983Y65930D01*
X77973Y65989D01*
Y66010D01*
X77969Y66032D01*
Y66050D01*
Y66061D01*
Y66069D01*
Y66072D01*
X77973Y66138D01*
X77980Y66200D01*
X77991Y66262D01*
X78002Y66316D01*
X78020Y66367D01*
X78038Y66418D01*
X78056Y66462D01*
X78078Y66502D01*
X78100Y66538D01*
X78118Y66571D01*
X78136Y66597D01*
X78154Y66622D01*
X78165Y66640D01*
X78176Y66651D01*
X78184Y66658D01*
X78187Y66662D01*
X78227Y66702D01*
X78271Y66738D01*
X78318Y66768D01*
X78362Y66793D01*
X78406Y66818D01*
X78449Y66837D01*
X78533Y66862D01*
X78570Y66873D01*
X78606Y66880D01*
X78635Y66884D01*
X78664Y66888D01*
X78686Y66891D01*
X78715D01*
X78781Y66888D01*
X78843Y66877D01*
X78901Y66866D01*
X78952Y66851D01*
X78995Y66833D01*
X79028Y66822D01*
X79050Y66811D01*
X79054Y66808D01*
X79057D01*
X79115Y66771D01*
X79166Y66731D01*
X79214Y66691D01*
X79250Y66647D01*
X79283Y66611D01*
X79308Y66582D01*
X79323Y66560D01*
X79327Y66556D01*
Y66622D01*
X79323Y66688D01*
X79319Y66746D01*
X79312Y66804D01*
X79308Y66855D01*
X79301Y66902D01*
X79294Y66946D01*
X79283Y66986D01*
X79276Y67022D01*
X79268Y67052D01*
X79261Y67077D01*
X79257Y67099D01*
X79250Y67113D01*
X79246Y67124D01*
X79243Y67132D01*
Y67135D01*
X79207Y67208D01*
X79170Y67273D01*
X79130Y67325D01*
X79094Y67368D01*
X79061Y67405D01*
X79035Y67430D01*
X79017Y67445D01*
X79010Y67448D01*
X78966Y67477D01*
X78923Y67496D01*
X78879Y67510D01*
X78835Y67521D01*
X78802Y67528D01*
X78773Y67532D01*
X78748D01*
X78682Y67525D01*
X78620Y67510D01*
X78570Y67488D01*
X78522Y67466D01*
X78486Y67441D01*
X78460Y67419D01*
X78446Y67405D01*
X78438Y67397D01*
X78413Y67365D01*
X78387Y67325D01*
X78366Y67281D01*
X78351Y67237D01*
X78337Y67197D01*
X78326Y67164D01*
X78322Y67142D01*
X78318Y67139D01*
Y67135D01*
X78009Y67161D01*
X78031Y67263D01*
X78063Y67354D01*
X78100Y67434D01*
X78140Y67499D01*
X78180Y67550D01*
X78195Y67572D01*
X78213Y67590D01*
X78224Y67601D01*
X78235Y67612D01*
X78238Y67616D01*
X78242Y67619D01*
X78278Y67648D01*
X78318Y67674D01*
X78398Y67718D01*
X78478Y67747D01*
X78555Y67765D01*
X78624Y67779D01*
X78653Y67783D01*
X78679D01*
X78701Y67787D01*
X78730D01*
X78802Y67783D01*
D02*
G37*
G36*
X82031Y65257D02*
X81696D01*
Y66374D01*
X81267D01*
X81227Y66371D01*
X81198D01*
X81172Y66367D01*
X81154Y66364D01*
X81139D01*
X81132Y66360D01*
X81128D01*
X81070Y66342D01*
X81045Y66331D01*
X81023Y66320D01*
X81001Y66309D01*
X80986Y66302D01*
X80979Y66298D01*
X80976Y66294D01*
X80946Y66272D01*
X80917Y66247D01*
X80863Y66192D01*
X80837Y66167D01*
X80819Y66145D01*
X80808Y66131D01*
X80804Y66127D01*
X80768Y66076D01*
X80728Y66021D01*
X80688Y65963D01*
X80648Y65908D01*
X80615Y65857D01*
X80590Y65817D01*
X80579Y65803D01*
X80572Y65792D01*
X80564Y65785D01*
Y65781D01*
X80233Y65257D01*
X79818D01*
X80251Y65941D01*
X80302Y66014D01*
X80349Y66080D01*
X80397Y66134D01*
X80437Y66185D01*
X80473Y66221D01*
X80502Y66251D01*
X80520Y66269D01*
X80528Y66276D01*
X80557Y66298D01*
X80590Y66324D01*
X80655Y66364D01*
X80684Y66378D01*
X80706Y66393D01*
X80721Y66400D01*
X80728Y66404D01*
X80663Y66414D01*
X80601Y66425D01*
X80546Y66444D01*
X80491Y66458D01*
X80444Y66476D01*
X80400Y66498D01*
X80360Y66516D01*
X80324Y66535D01*
X80295Y66556D01*
X80266Y66575D01*
X80244Y66589D01*
X80226Y66604D01*
X80211Y66615D01*
X80200Y66626D01*
X80197Y66629D01*
X80193Y66633D01*
X80164Y66669D01*
X80135Y66706D01*
X80091Y66782D01*
X80062Y66859D01*
X80040Y66931D01*
X80026Y66993D01*
X80022Y67019D01*
Y67044D01*
X80018Y67062D01*
Y67077D01*
Y67084D01*
Y67088D01*
X80022Y67164D01*
X80033Y67234D01*
X80051Y67299D01*
X80069Y67354D01*
X80091Y67401D01*
X80106Y67437D01*
X80120Y67459D01*
X80124Y67463D01*
Y67466D01*
X80167Y67525D01*
X80211Y67576D01*
X80258Y67619D01*
X80302Y67652D01*
X80342Y67677D01*
X80375Y67692D01*
X80397Y67703D01*
X80400Y67707D01*
X80404D01*
X80437Y67718D01*
X80477Y67729D01*
X80557Y67747D01*
X80644Y67758D01*
X80724Y67769D01*
X80801Y67772D01*
X80834D01*
X80863Y67776D01*
X82031D01*
Y65257D01*
D02*
G37*
G36*
X62076Y102453D02*
X61785Y102413D01*
X61759Y102453D01*
X61726Y102485D01*
X61697Y102518D01*
X61668Y102544D01*
X61639Y102562D01*
X61617Y102580D01*
X61603Y102587D01*
X61599Y102591D01*
X61552Y102613D01*
X61505Y102631D01*
X61461Y102642D01*
X61417Y102653D01*
X61381Y102656D01*
X61352Y102660D01*
X61282D01*
X61239Y102653D01*
X61162Y102635D01*
X61097Y102609D01*
X61039Y102584D01*
X60995Y102555D01*
X60962Y102529D01*
X60944Y102511D01*
X60937Y102507D01*
Y102504D01*
X60886Y102442D01*
X60849Y102376D01*
X60824Y102307D01*
X60806Y102238D01*
X60795Y102180D01*
X60791Y102154D01*
Y102132D01*
X60787Y102114D01*
Y102100D01*
Y102092D01*
Y102089D01*
Y102038D01*
X60795Y101990D01*
X60813Y101899D01*
X60838Y101823D01*
X60864Y101761D01*
X60893Y101710D01*
X60918Y101670D01*
X60929Y101659D01*
X60937Y101648D01*
X60940Y101645D01*
X60944Y101641D01*
X60973Y101612D01*
X61002Y101586D01*
X61068Y101543D01*
X61129Y101514D01*
X61191Y101495D01*
X61242Y101481D01*
X61286Y101477D01*
X61301Y101473D01*
X61322D01*
X61392Y101477D01*
X61453Y101492D01*
X61508Y101510D01*
X61552Y101532D01*
X61592Y101554D01*
X61621Y101572D01*
X61636Y101586D01*
X61643Y101590D01*
X61686Y101641D01*
X61723Y101696D01*
X61752Y101757D01*
X61774Y101812D01*
X61788Y101867D01*
X61799Y101907D01*
X61803Y101925D01*
X61807Y101936D01*
Y101943D01*
Y101947D01*
X62130Y101921D01*
X62123Y101863D01*
X62112Y101808D01*
X62080Y101707D01*
X62040Y101619D01*
X62018Y101579D01*
X61996Y101546D01*
X61978Y101514D01*
X61956Y101484D01*
X61938Y101463D01*
X61919Y101444D01*
X61905Y101430D01*
X61898Y101415D01*
X61890Y101412D01*
X61887Y101408D01*
X61843Y101375D01*
X61799Y101346D01*
X61752Y101321D01*
X61705Y101299D01*
X61614Y101266D01*
X61523Y101244D01*
X61483Y101233D01*
X61443Y101230D01*
X61410Y101226D01*
X61381Y101222D01*
X61355Y101219D01*
X61322D01*
X61246Y101222D01*
X61173Y101233D01*
X61104Y101248D01*
X61042Y101266D01*
X60984Y101292D01*
X60929Y101317D01*
X60878Y101342D01*
X60835Y101372D01*
X60795Y101401D01*
X60758Y101426D01*
X60729Y101455D01*
X60704Y101477D01*
X60685Y101495D01*
X60671Y101510D01*
X60664Y101521D01*
X60660Y101524D01*
X60624Y101572D01*
X60594Y101623D01*
X60565Y101670D01*
X60544Y101721D01*
X60507Y101819D01*
X60485Y101914D01*
X60478Y101954D01*
X60471Y101994D01*
X60467Y102027D01*
X60463Y102056D01*
X60460Y102081D01*
Y102100D01*
Y102111D01*
Y102114D01*
X60463Y102180D01*
X60471Y102242D01*
X60482Y102303D01*
X60496Y102358D01*
X60514Y102409D01*
X60533Y102460D01*
X60554Y102504D01*
X60573Y102544D01*
X60594Y102580D01*
X60616Y102613D01*
X60634Y102638D01*
X60653Y102664D01*
X60667Y102682D01*
X60678Y102693D01*
X60685Y102700D01*
X60689Y102704D01*
X60733Y102744D01*
X60777Y102780D01*
X60824Y102809D01*
X60871Y102835D01*
X60918Y102860D01*
X60966Y102879D01*
X61053Y102904D01*
X61093Y102915D01*
X61129Y102922D01*
X61162Y102926D01*
X61191Y102929D01*
X61213Y102933D01*
X61293D01*
X61337Y102926D01*
X61424Y102908D01*
X61505Y102882D01*
X61577Y102853D01*
X61636Y102824D01*
X61661Y102809D01*
X61683Y102798D01*
X61701Y102788D01*
X61712Y102780D01*
X61719Y102777D01*
X61723Y102773D01*
X61588Y103454D01*
X60580D01*
Y103749D01*
X61832D01*
X62076Y102453D01*
D02*
G37*
G36*
X64540Y101262D02*
X64205D01*
Y102380D01*
X63776D01*
X63736Y102376D01*
X63707D01*
X63681Y102373D01*
X63663Y102369D01*
X63648D01*
X63641Y102365D01*
X63638D01*
X63579Y102347D01*
X63554Y102336D01*
X63532Y102325D01*
X63510Y102314D01*
X63495Y102307D01*
X63488Y102303D01*
X63485Y102300D01*
X63455Y102278D01*
X63426Y102252D01*
X63372Y102198D01*
X63346Y102172D01*
X63328Y102151D01*
X63317Y102136D01*
X63314Y102132D01*
X63277Y102081D01*
X63237Y102027D01*
X63197Y101969D01*
X63157Y101914D01*
X63124Y101863D01*
X63099Y101823D01*
X63088Y101808D01*
X63081Y101797D01*
X63073Y101790D01*
Y101787D01*
X62742Y101262D01*
X62327D01*
X62760Y101947D01*
X62811Y102020D01*
X62858Y102085D01*
X62906Y102140D01*
X62946Y102191D01*
X62982Y102227D01*
X63011Y102256D01*
X63030Y102274D01*
X63037Y102282D01*
X63066Y102303D01*
X63099Y102329D01*
X63164Y102369D01*
X63193Y102383D01*
X63215Y102398D01*
X63230Y102405D01*
X63237Y102409D01*
X63172Y102420D01*
X63110Y102431D01*
X63055Y102449D01*
X63001Y102464D01*
X62953Y102482D01*
X62910Y102504D01*
X62870Y102522D01*
X62833Y102540D01*
X62804Y102562D01*
X62775Y102580D01*
X62753Y102595D01*
X62735Y102609D01*
X62720Y102620D01*
X62709Y102631D01*
X62706Y102635D01*
X62702Y102638D01*
X62673Y102675D01*
X62644Y102711D01*
X62600Y102788D01*
X62571Y102864D01*
X62549Y102937D01*
X62535Y102999D01*
X62531Y103024D01*
Y103050D01*
X62527Y103068D01*
Y103082D01*
Y103090D01*
Y103093D01*
X62531Y103170D01*
X62542Y103239D01*
X62560Y103304D01*
X62578Y103359D01*
X62600Y103406D01*
X62615Y103443D01*
X62629Y103465D01*
X62633Y103468D01*
Y103472D01*
X62677Y103530D01*
X62720Y103581D01*
X62767Y103625D01*
X62811Y103657D01*
X62851Y103683D01*
X62884Y103698D01*
X62906Y103709D01*
X62910Y103712D01*
X62913D01*
X62946Y103723D01*
X62986Y103734D01*
X63066Y103752D01*
X63153Y103763D01*
X63234Y103774D01*
X63310Y103778D01*
X63343D01*
X63372Y103781D01*
X64540D01*
Y101262D01*
D02*
G37*
G36*
X17665Y98375D02*
X17727Y98372D01*
X17785Y98361D01*
X17840Y98350D01*
X17891Y98335D01*
X17938Y98321D01*
X17982Y98303D01*
X18022Y98284D01*
X18058Y98266D01*
X18087Y98248D01*
X18113Y98233D01*
X18135Y98219D01*
X18153Y98208D01*
X18164Y98197D01*
X18171Y98193D01*
X18174Y98190D01*
X18211Y98153D01*
X18244Y98113D01*
X18277Y98070D01*
X18302Y98026D01*
X18346Y97939D01*
X18375Y97851D01*
X18386Y97811D01*
X18397Y97771D01*
X18404Y97738D01*
X18411Y97709D01*
X18415Y97684D01*
Y97666D01*
X18418Y97655D01*
Y97651D01*
X18102Y97618D01*
X18094Y97702D01*
X18080Y97775D01*
X18058Y97840D01*
X18033Y97891D01*
X18011Y97935D01*
X17989Y97964D01*
X17974Y97982D01*
X17967Y97990D01*
X17912Y98033D01*
X17854Y98066D01*
X17792Y98092D01*
X17738Y98106D01*
X17687Y98117D01*
X17643Y98121D01*
X17628Y98124D01*
X17607D01*
X17530Y98121D01*
X17461Y98106D01*
X17403Y98084D01*
X17352Y98062D01*
X17312Y98037D01*
X17286Y98019D01*
X17268Y98004D01*
X17261Y97997D01*
X17217Y97946D01*
X17185Y97895D01*
X17159Y97844D01*
X17144Y97793D01*
X17133Y97753D01*
X17130Y97717D01*
X17126Y97695D01*
Y97691D01*
Y97688D01*
X17133Y97622D01*
X17148Y97553D01*
X17174Y97491D01*
X17199Y97433D01*
X17228Y97385D01*
X17254Y97345D01*
X17261Y97331D01*
X17268Y97320D01*
X17276Y97316D01*
Y97313D01*
X17305Y97272D01*
X17341Y97233D01*
X17381Y97189D01*
X17425Y97145D01*
X17516Y97058D01*
X17607Y96970D01*
X17654Y96930D01*
X17694Y96894D01*
X17734Y96861D01*
X17767Y96832D01*
X17792Y96810D01*
X17814Y96792D01*
X17829Y96781D01*
X17832Y96777D01*
X17923Y96701D01*
X18007Y96628D01*
X18076Y96563D01*
X18131Y96508D01*
X18178Y96461D01*
X18211Y96428D01*
X18229Y96406D01*
X18236Y96403D01*
Y96399D01*
X18287Y96337D01*
X18327Y96279D01*
X18364Y96221D01*
X18393Y96170D01*
X18415Y96126D01*
X18429Y96093D01*
X18437Y96071D01*
X18440Y96068D01*
Y96064D01*
X18455Y96024D01*
X18462Y95988D01*
X18469Y95951D01*
X18473Y95918D01*
X18477Y95889D01*
Y95868D01*
Y95853D01*
Y95849D01*
X16806D01*
Y96148D01*
X18047D01*
X18003Y96210D01*
X17982Y96235D01*
X17963Y96261D01*
X17945Y96282D01*
X17931Y96297D01*
X17920Y96308D01*
X17916Y96312D01*
X17898Y96330D01*
X17876Y96348D01*
X17825Y96395D01*
X17767Y96450D01*
X17705Y96504D01*
X17647Y96552D01*
X17621Y96574D01*
X17599Y96596D01*
X17581Y96610D01*
X17567Y96621D01*
X17559Y96628D01*
X17556Y96632D01*
X17497Y96683D01*
X17439Y96730D01*
X17388Y96777D01*
X17341Y96817D01*
X17297Y96858D01*
X17261Y96894D01*
X17224Y96927D01*
X17195Y96956D01*
X17166Y96985D01*
X17144Y97007D01*
X17126Y97025D01*
X17108Y97043D01*
X17090Y97065D01*
X17083Y97072D01*
X17032Y97134D01*
X16988Y97189D01*
X16951Y97243D01*
X16922Y97287D01*
X16901Y97327D01*
X16886Y97356D01*
X16879Y97374D01*
X16875Y97382D01*
X16853Y97436D01*
X16839Y97491D01*
X16824Y97542D01*
X16817Y97586D01*
X16813Y97626D01*
X16809Y97655D01*
Y97673D01*
Y97680D01*
X16813Y97735D01*
X16820Y97786D01*
X16828Y97837D01*
X16842Y97880D01*
X16879Y97968D01*
X16915Y98037D01*
X16937Y98070D01*
X16955Y98095D01*
X16973Y98121D01*
X16992Y98139D01*
X17006Y98153D01*
X17013Y98168D01*
X17021Y98172D01*
X17024Y98175D01*
X17064Y98212D01*
X17108Y98244D01*
X17155Y98270D01*
X17203Y98292D01*
X17297Y98328D01*
X17392Y98354D01*
X17432Y98361D01*
X17472Y98368D01*
X17508Y98372D01*
X17537Y98375D01*
X17563Y98379D01*
X17599D01*
X17665Y98375D01*
D02*
G37*
G36*
X23194Y95849D02*
X22288D01*
X22204Y95853D01*
X22128Y95857D01*
X22058Y95864D01*
X22000Y95871D01*
X21949Y95878D01*
X21913Y95882D01*
X21902Y95886D01*
X21891Y95889D01*
X21884D01*
X21818Y95907D01*
X21760Y95929D01*
X21709Y95948D01*
X21665Y95969D01*
X21629Y95988D01*
X21603Y96002D01*
X21589Y96013D01*
X21582Y96017D01*
X21534Y96049D01*
X21494Y96090D01*
X21454Y96126D01*
X21421Y96162D01*
X21392Y96195D01*
X21371Y96221D01*
X21356Y96239D01*
X21352Y96246D01*
X21316Y96304D01*
X21280Y96366D01*
X21250Y96424D01*
X21228Y96483D01*
X21207Y96534D01*
X21192Y96574D01*
X21189Y96588D01*
X21185Y96599D01*
X21181Y96606D01*
Y96610D01*
X21159Y96697D01*
X21141Y96785D01*
X21130Y96868D01*
X21119Y96949D01*
X21116Y97018D01*
Y97047D01*
X21112Y97072D01*
Y97091D01*
Y97109D01*
Y97116D01*
Y97120D01*
X21116Y97243D01*
X21127Y97356D01*
X21145Y97458D01*
X21152Y97505D01*
X21163Y97545D01*
X21174Y97586D01*
X21181Y97618D01*
X21189Y97647D01*
X21199Y97673D01*
X21203Y97695D01*
X21210Y97709D01*
X21214Y97717D01*
Y97720D01*
X21254Y97815D01*
X21301Y97899D01*
X21352Y97971D01*
X21400Y98033D01*
X21443Y98084D01*
X21480Y98121D01*
X21494Y98132D01*
X21505Y98142D01*
X21509Y98146D01*
X21512Y98150D01*
X21571Y98197D01*
X21632Y98233D01*
X21694Y98266D01*
X21753Y98292D01*
X21804Y98310D01*
X21844Y98321D01*
X21858Y98328D01*
X21869D01*
X21876Y98332D01*
X21880D01*
X21942Y98343D01*
X22015Y98354D01*
X22087Y98361D01*
X22160Y98365D01*
X22226Y98368D01*
X23194D01*
Y95849D01*
D02*
G37*
G36*
X20930D02*
X20577D01*
X20304Y96614D01*
X19248D01*
X18954Y95849D01*
X18575D01*
X19605Y98368D01*
X19969D01*
X20930Y95849D01*
D02*
G37*
G36*
X8727Y99431D02*
X8428D01*
Y100664D01*
X8323Y100577D01*
X8210Y100493D01*
X8101Y100421D01*
X7995Y100351D01*
X7948Y100322D01*
X7904Y100297D01*
X7864Y100271D01*
X7831Y100253D01*
X7802Y100239D01*
X7784Y100228D01*
X7769Y100220D01*
X7766Y100217D01*
X7620Y100144D01*
X7474Y100078D01*
X7336Y100024D01*
X7274Y100002D01*
X7212Y99980D01*
X7158Y99958D01*
X7107Y99944D01*
X7063Y99929D01*
X7027Y99918D01*
X6994Y99907D01*
X6972Y99900D01*
X6958Y99896D01*
X6954D01*
X6805Y99860D01*
X6732Y99845D01*
X6666Y99835D01*
X6605Y99824D01*
X6543Y99813D01*
X6492Y99805D01*
X6441Y99798D01*
X6397Y99795D01*
X6357Y99791D01*
X6321Y99787D01*
X6291D01*
X6270Y99784D01*
X6255D01*
X6244D01*
X6241D01*
Y100100D01*
X6379Y100111D01*
X6506Y100129D01*
X6623Y100148D01*
X6677Y100159D01*
X6728Y100169D01*
X6772Y100177D01*
X6812Y100188D01*
X6848Y100195D01*
X6878Y100202D01*
X6899Y100209D01*
X6918Y100213D01*
X6928Y100217D01*
X6932D01*
X7100Y100271D01*
X7256Y100330D01*
X7333Y100359D01*
X7405Y100388D01*
X7471Y100421D01*
X7536Y100450D01*
X7595Y100475D01*
X7646Y100501D01*
X7689Y100522D01*
X7729Y100541D01*
X7762Y100559D01*
X7784Y100570D01*
X7799Y100577D01*
X7802Y100581D01*
X7879Y100624D01*
X7955Y100668D01*
X8024Y100712D01*
X8090Y100756D01*
X8148Y100795D01*
X8206Y100836D01*
X8257Y100876D01*
X8301Y100908D01*
X8344Y100941D01*
X8381Y100970D01*
X8410Y100999D01*
X8435Y101021D01*
X8457Y101036D01*
X8472Y101050D01*
X8479Y101058D01*
X8483Y101061D01*
X8727D01*
Y99431D01*
D02*
G37*
G36*
X6539Y97836D02*
X6601Y97880D01*
X6626Y97902D01*
X6652Y97920D01*
X6674Y97938D01*
X6688Y97953D01*
X6699Y97964D01*
X6703Y97967D01*
X6721Y97985D01*
X6739Y98007D01*
X6787Y98058D01*
X6841Y98116D01*
X6896Y98178D01*
X6943Y98237D01*
X6965Y98262D01*
X6987Y98284D01*
X7001Y98302D01*
X7012Y98317D01*
X7019Y98324D01*
X7023Y98328D01*
X7074Y98386D01*
X7121Y98444D01*
X7169Y98495D01*
X7209Y98542D01*
X7249Y98586D01*
X7285Y98622D01*
X7318Y98659D01*
X7347Y98688D01*
X7376Y98717D01*
X7398Y98739D01*
X7416Y98757D01*
X7435Y98775D01*
X7456Y98794D01*
X7464Y98801D01*
X7525Y98852D01*
X7580Y98895D01*
X7635Y98932D01*
X7678Y98961D01*
X7718Y98983D01*
X7747Y98997D01*
X7766Y99005D01*
X7773Y99008D01*
X7828Y99030D01*
X7882Y99045D01*
X7933Y99059D01*
X7977Y99067D01*
X8017Y99070D01*
X8046Y99074D01*
X8064D01*
X8072D01*
X8126Y99070D01*
X8177Y99063D01*
X8228Y99056D01*
X8272Y99041D01*
X8359Y99005D01*
X8428Y98968D01*
X8461Y98946D01*
X8486Y98928D01*
X8512Y98910D01*
X8530Y98892D01*
X8545Y98877D01*
X8559Y98870D01*
X8563Y98863D01*
X8567Y98859D01*
X8603Y98819D01*
X8636Y98775D01*
X8661Y98728D01*
X8683Y98681D01*
X8719Y98586D01*
X8745Y98491D01*
X8752Y98451D01*
X8759Y98411D01*
X8763Y98375D01*
X8767Y98346D01*
X8770Y98320D01*
Y98284D01*
X8767Y98218D01*
X8763Y98156D01*
X8752Y98098D01*
X8741Y98044D01*
X8727Y97993D01*
X8712Y97945D01*
X8694Y97902D01*
X8676Y97862D01*
X8658Y97825D01*
X8639Y97796D01*
X8625Y97771D01*
X8610Y97749D01*
X8599Y97731D01*
X8588Y97720D01*
X8585Y97712D01*
X8581Y97709D01*
X8545Y97672D01*
X8505Y97640D01*
X8461Y97607D01*
X8417Y97581D01*
X8330Y97538D01*
X8243Y97509D01*
X8202Y97498D01*
X8162Y97487D01*
X8130Y97479D01*
X8101Y97472D01*
X8075Y97469D01*
X8057D01*
X8046Y97465D01*
X8042D01*
X8010Y97782D01*
X8093Y97789D01*
X8166Y97803D01*
X8232Y97825D01*
X8283Y97851D01*
X8326Y97873D01*
X8355Y97894D01*
X8374Y97909D01*
X8381Y97916D01*
X8425Y97971D01*
X8457Y98029D01*
X8483Y98091D01*
X8497Y98146D01*
X8508Y98197D01*
X8512Y98240D01*
X8516Y98255D01*
Y98277D01*
X8512Y98353D01*
X8497Y98422D01*
X8476Y98480D01*
X8454Y98531D01*
X8428Y98571D01*
X8410Y98597D01*
X8395Y98615D01*
X8388Y98622D01*
X8337Y98666D01*
X8286Y98699D01*
X8235Y98724D01*
X8184Y98739D01*
X8144Y98750D01*
X8108Y98753D01*
X8086Y98757D01*
X8082D01*
X8079D01*
X8013Y98750D01*
X7944Y98735D01*
X7882Y98710D01*
X7824Y98684D01*
X7777Y98655D01*
X7737Y98630D01*
X7722Y98622D01*
X7711Y98615D01*
X7707Y98608D01*
X7704D01*
X7664Y98579D01*
X7624Y98542D01*
X7580Y98502D01*
X7536Y98459D01*
X7449Y98368D01*
X7362Y98277D01*
X7322Y98229D01*
X7285Y98189D01*
X7253Y98149D01*
X7223Y98116D01*
X7202Y98091D01*
X7183Y98069D01*
X7172Y98055D01*
X7169Y98051D01*
X7092Y97960D01*
X7019Y97876D01*
X6954Y97807D01*
X6899Y97752D01*
X6852Y97705D01*
X6819Y97672D01*
X6797Y97654D01*
X6794Y97647D01*
X6790D01*
X6728Y97596D01*
X6670Y97556D01*
X6612Y97519D01*
X6561Y97490D01*
X6517Y97469D01*
X6484Y97454D01*
X6463Y97447D01*
X6459Y97443D01*
X6455D01*
X6415Y97429D01*
X6379Y97421D01*
X6342Y97414D01*
X6310Y97410D01*
X6281Y97407D01*
X6259D01*
X6244D01*
X6241D01*
Y99077D01*
X6539D01*
Y97836D01*
D02*
G37*
G36*
X7121Y96832D02*
X7063Y96817D01*
X7009Y96799D01*
X6958Y96781D01*
X6910Y96762D01*
X6867Y96741D01*
X6830Y96719D01*
X6794Y96693D01*
X6761Y96671D01*
X6732Y96653D01*
X6710Y96631D01*
X6688Y96613D01*
X6670Y96599D01*
X6659Y96584D01*
X6648Y96573D01*
X6645Y96570D01*
X6641Y96566D01*
X6612Y96529D01*
X6590Y96489D01*
X6550Y96409D01*
X6521Y96333D01*
X6503Y96256D01*
X6488Y96191D01*
X6484Y96165D01*
Y96140D01*
X6481Y96118D01*
Y96093D01*
X6484Y96009D01*
X6499Y95929D01*
X6517Y95856D01*
X6539Y95790D01*
X6561Y95740D01*
X6572Y95718D01*
X6579Y95700D01*
X6586Y95685D01*
X6594Y95674D01*
X6597Y95667D01*
Y95663D01*
X6648Y95594D01*
X6703Y95536D01*
X6765Y95485D01*
X6823Y95445D01*
X6874Y95412D01*
X6918Y95390D01*
X6936Y95383D01*
X6947Y95376D01*
X6954Y95372D01*
X6958D01*
X7052Y95343D01*
X7147Y95321D01*
X7242Y95303D01*
X7329Y95292D01*
X7369Y95288D01*
X7405Y95285D01*
X7438D01*
X7464Y95281D01*
X7485D01*
X7504D01*
X7515D01*
X7518D01*
X7613Y95285D01*
X7700Y95292D01*
X7780Y95306D01*
X7853Y95321D01*
X7915Y95332D01*
X7940Y95339D01*
X7962Y95346D01*
X7981Y95350D01*
X7991Y95354D01*
X7999Y95357D01*
X8002D01*
X8086Y95394D01*
X8162Y95434D01*
X8224Y95477D01*
X8279Y95525D01*
X8323Y95565D01*
X8352Y95598D01*
X8370Y95623D01*
X8377Y95627D01*
Y95630D01*
X8425Y95707D01*
X8461Y95790D01*
X8486Y95871D01*
X8501Y95947D01*
X8512Y96016D01*
X8516Y96045D01*
Y96071D01*
X8519Y96089D01*
Y96118D01*
X8516Y96209D01*
X8501Y96293D01*
X8479Y96362D01*
X8457Y96424D01*
X8432Y96471D01*
X8414Y96508D01*
X8399Y96529D01*
X8392Y96537D01*
X8337Y96595D01*
X8275Y96650D01*
X8210Y96693D01*
X8144Y96730D01*
X8086Y96759D01*
X8057Y96770D01*
X8035Y96777D01*
X8017Y96784D01*
X8002Y96791D01*
X7995Y96795D01*
X7991D01*
X8068Y97123D01*
X8133Y97101D01*
X8192Y97079D01*
X8246Y97050D01*
X8301Y97025D01*
X8348Y96995D01*
X8392Y96963D01*
X8435Y96934D01*
X8472Y96904D01*
X8501Y96875D01*
X8530Y96850D01*
X8556Y96824D01*
X8574Y96806D01*
X8592Y96788D01*
X8603Y96773D01*
X8607Y96766D01*
X8610Y96762D01*
X8643Y96711D01*
X8676Y96661D01*
X8701Y96609D01*
X8723Y96555D01*
X8756Y96446D01*
X8778Y96347D01*
X8789Y96300D01*
X8792Y96260D01*
X8796Y96220D01*
X8800Y96187D01*
X8803Y96162D01*
Y96125D01*
X8796Y96005D01*
X8778Y95889D01*
X8756Y95787D01*
X8741Y95740D01*
X8727Y95696D01*
X8712Y95656D01*
X8698Y95619D01*
X8687Y95590D01*
X8676Y95561D01*
X8665Y95543D01*
X8658Y95528D01*
X8654Y95517D01*
X8650Y95514D01*
X8588Y95416D01*
X8516Y95332D01*
X8443Y95259D01*
X8370Y95197D01*
X8304Y95150D01*
X8275Y95132D01*
X8250Y95117D01*
X8232Y95103D01*
X8217Y95095D01*
X8206Y95092D01*
X8202Y95088D01*
X8090Y95037D01*
X7973Y95001D01*
X7857Y94975D01*
X7751Y94957D01*
X7704Y94950D01*
X7656Y94946D01*
X7620Y94942D01*
X7584D01*
X7558Y94939D01*
X7536D01*
X7522D01*
X7518D01*
X7387Y94946D01*
X7260Y94961D01*
X7147Y94979D01*
X7092Y94993D01*
X7045Y95004D01*
X7001Y95015D01*
X6961Y95030D01*
X6925Y95041D01*
X6896Y95048D01*
X6874Y95059D01*
X6856Y95063D01*
X6845Y95070D01*
X6841D01*
X6732Y95124D01*
X6634Y95186D01*
X6550Y95252D01*
X6517Y95285D01*
X6484Y95314D01*
X6455Y95343D01*
X6430Y95372D01*
X6408Y95397D01*
X6393Y95419D01*
X6379Y95434D01*
X6368Y95448D01*
X6364Y95456D01*
X6361Y95459D01*
X6332Y95510D01*
X6306Y95561D01*
X6266Y95670D01*
X6237Y95780D01*
X6219Y95885D01*
X6211Y95936D01*
X6204Y95980D01*
X6200Y96020D01*
Y96053D01*
X6197Y96082D01*
Y96122D01*
X6200Y96195D01*
X6208Y96264D01*
X6215Y96329D01*
X6230Y96391D01*
X6248Y96449D01*
X6266Y96504D01*
X6284Y96555D01*
X6306Y96602D01*
X6324Y96642D01*
X6342Y96682D01*
X6361Y96711D01*
X6379Y96741D01*
X6393Y96759D01*
X6401Y96777D01*
X6408Y96784D01*
X6412Y96788D01*
X6455Y96839D01*
X6499Y96882D01*
X6550Y96923D01*
X6601Y96963D01*
X6703Y97028D01*
X6805Y97079D01*
X6852Y97101D01*
X6896Y97119D01*
X6936Y97134D01*
X6969Y97145D01*
X6998Y97155D01*
X7019Y97163D01*
X7034Y97166D01*
X7038D01*
X7121Y96832D01*
D02*
G37*
G36*
X7613Y85054D02*
X7740Y85039D01*
X7853Y85021D01*
X7908Y85007D01*
X7955Y84996D01*
X7999Y84985D01*
X8039Y84970D01*
X8075Y84959D01*
X8104Y84952D01*
X8126Y84941D01*
X8144Y84938D01*
X8155Y84930D01*
X8159D01*
X8268Y84876D01*
X8366Y84814D01*
X8450Y84748D01*
X8483Y84715D01*
X8516Y84686D01*
X8545Y84657D01*
X8570Y84628D01*
X8592Y84603D01*
X8607Y84581D01*
X8621Y84566D01*
X8632Y84552D01*
X8636Y84544D01*
X8639Y84541D01*
X8668Y84490D01*
X8694Y84439D01*
X8734Y84330D01*
X8763Y84220D01*
X8781Y84115D01*
X8789Y84064D01*
X8796Y84020D01*
X8800Y83980D01*
Y83947D01*
X8803Y83918D01*
Y83878D01*
X8800Y83805D01*
X8792Y83736D01*
X8785Y83671D01*
X8770Y83609D01*
X8752Y83551D01*
X8734Y83496D01*
X8716Y83445D01*
X8694Y83398D01*
X8676Y83358D01*
X8658Y83318D01*
X8639Y83289D01*
X8621Y83259D01*
X8607Y83241D01*
X8599Y83223D01*
X8592Y83216D01*
X8588Y83212D01*
X8545Y83161D01*
X8501Y83118D01*
X8450Y83077D01*
X8399Y83037D01*
X8297Y82972D01*
X8195Y82921D01*
X8148Y82899D01*
X8104Y82881D01*
X8064Y82866D01*
X8031Y82855D01*
X8002Y82845D01*
X7981Y82837D01*
X7966Y82834D01*
X7962D01*
X7879Y83168D01*
X7937Y83183D01*
X7991Y83201D01*
X8042Y83219D01*
X8090Y83238D01*
X8133Y83259D01*
X8170Y83281D01*
X8206Y83307D01*
X8239Y83329D01*
X8268Y83347D01*
X8290Y83369D01*
X8312Y83387D01*
X8330Y83401D01*
X8341Y83416D01*
X8352Y83427D01*
X8355Y83430D01*
X8359Y83434D01*
X8388Y83471D01*
X8410Y83511D01*
X8450Y83591D01*
X8479Y83667D01*
X8497Y83744D01*
X8512Y83809D01*
X8516Y83835D01*
Y83860D01*
X8519Y83882D01*
Y83907D01*
X8516Y83991D01*
X8501Y84071D01*
X8483Y84144D01*
X8461Y84210D01*
X8439Y84260D01*
X8428Y84282D01*
X8421Y84301D01*
X8414Y84315D01*
X8406Y84326D01*
X8403Y84333D01*
Y84337D01*
X8352Y84406D01*
X8297Y84464D01*
X8235Y84515D01*
X8177Y84555D01*
X8126Y84588D01*
X8082Y84610D01*
X8064Y84617D01*
X8053Y84624D01*
X8046Y84628D01*
X8042D01*
X7948Y84657D01*
X7853Y84679D01*
X7758Y84697D01*
X7671Y84708D01*
X7631Y84712D01*
X7595Y84715D01*
X7562D01*
X7536Y84719D01*
X7515D01*
X7496D01*
X7485D01*
X7482D01*
X7387Y84715D01*
X7300Y84708D01*
X7220Y84694D01*
X7147Y84679D01*
X7085Y84668D01*
X7060Y84661D01*
X7038Y84654D01*
X7019Y84650D01*
X7009Y84646D01*
X7001Y84643D01*
X6998D01*
X6914Y84606D01*
X6837Y84566D01*
X6776Y84522D01*
X6721Y84475D01*
X6677Y84435D01*
X6648Y84402D01*
X6630Y84377D01*
X6623Y84373D01*
Y84370D01*
X6575Y84293D01*
X6539Y84210D01*
X6514Y84129D01*
X6499Y84053D01*
X6488Y83984D01*
X6484Y83955D01*
Y83929D01*
X6481Y83911D01*
Y83882D01*
X6484Y83791D01*
X6499Y83707D01*
X6521Y83638D01*
X6543Y83576D01*
X6568Y83529D01*
X6586Y83492D01*
X6601Y83471D01*
X6608Y83463D01*
X6663Y83405D01*
X6725Y83350D01*
X6790Y83307D01*
X6856Y83270D01*
X6914Y83241D01*
X6943Y83230D01*
X6965Y83223D01*
X6983Y83216D01*
X6998Y83209D01*
X7005Y83205D01*
X7009D01*
X6932Y82877D01*
X6867Y82899D01*
X6808Y82921D01*
X6754Y82950D01*
X6699Y82976D01*
X6652Y83005D01*
X6608Y83037D01*
X6565Y83066D01*
X6528Y83096D01*
X6499Y83125D01*
X6470Y83150D01*
X6444Y83176D01*
X6426Y83194D01*
X6408Y83212D01*
X6397Y83227D01*
X6393Y83234D01*
X6390Y83238D01*
X6357Y83289D01*
X6324Y83340D01*
X6299Y83390D01*
X6277Y83445D01*
X6244Y83554D01*
X6222Y83653D01*
X6211Y83700D01*
X6208Y83740D01*
X6204Y83780D01*
X6200Y83813D01*
X6197Y83838D01*
Y83875D01*
X6204Y83995D01*
X6222Y84111D01*
X6244Y84213D01*
X6259Y84260D01*
X6273Y84304D01*
X6288Y84344D01*
X6302Y84381D01*
X6313Y84410D01*
X6324Y84439D01*
X6335Y84457D01*
X6342Y84472D01*
X6346Y84483D01*
X6350Y84486D01*
X6412Y84584D01*
X6484Y84668D01*
X6557Y84741D01*
X6630Y84803D01*
X6696Y84850D01*
X6725Y84868D01*
X6750Y84883D01*
X6768Y84897D01*
X6783Y84905D01*
X6794Y84908D01*
X6797Y84912D01*
X6910Y84963D01*
X7027Y84999D01*
X7143Y85025D01*
X7249Y85043D01*
X7296Y85050D01*
X7344Y85054D01*
X7380Y85058D01*
X7416D01*
X7442Y85061D01*
X7464D01*
X7478D01*
X7482D01*
X7613Y85054D01*
D02*
G37*
G36*
X8759Y80923D02*
X8461D01*
Y82164D01*
X8399Y82120D01*
X8374Y82098D01*
X8348Y82080D01*
X8326Y82062D01*
X8312Y82047D01*
X8301Y82036D01*
X8297Y82033D01*
X8279Y82015D01*
X8261Y81993D01*
X8213Y81942D01*
X8159Y81884D01*
X8104Y81822D01*
X8057Y81763D01*
X8035Y81738D01*
X8013Y81716D01*
X7999Y81698D01*
X7988Y81683D01*
X7981Y81676D01*
X7977Y81672D01*
X7926Y81614D01*
X7879Y81556D01*
X7831Y81505D01*
X7791Y81458D01*
X7751Y81414D01*
X7715Y81378D01*
X7682Y81341D01*
X7653Y81312D01*
X7624Y81283D01*
X7602Y81261D01*
X7584Y81243D01*
X7565Y81225D01*
X7544Y81207D01*
X7536Y81199D01*
X7474Y81148D01*
X7420Y81105D01*
X7365Y81068D01*
X7322Y81039D01*
X7282Y81017D01*
X7253Y81003D01*
X7234Y80995D01*
X7227Y80992D01*
X7172Y80970D01*
X7118Y80955D01*
X7067Y80941D01*
X7023Y80933D01*
X6983Y80930D01*
X6954Y80926D01*
X6936D01*
X6928D01*
X6874Y80930D01*
X6823Y80937D01*
X6772Y80944D01*
X6728Y80959D01*
X6641Y80995D01*
X6572Y81032D01*
X6539Y81054D01*
X6514Y81072D01*
X6488Y81090D01*
X6470Y81108D01*
X6455Y81123D01*
X6441Y81130D01*
X6437Y81137D01*
X6434Y81141D01*
X6397Y81181D01*
X6364Y81225D01*
X6339Y81272D01*
X6317Y81319D01*
X6281Y81414D01*
X6255Y81509D01*
X6248Y81549D01*
X6241Y81589D01*
X6237Y81625D01*
X6233Y81654D01*
X6230Y81680D01*
Y81716D01*
X6233Y81782D01*
X6237Y81844D01*
X6248Y81902D01*
X6259Y81956D01*
X6273Y82007D01*
X6288Y82055D01*
X6306Y82098D01*
X6324Y82138D01*
X6342Y82175D01*
X6361Y82204D01*
X6375Y82229D01*
X6390Y82251D01*
X6401Y82269D01*
X6412Y82280D01*
X6415Y82288D01*
X6419Y82291D01*
X6455Y82328D01*
X6495Y82360D01*
X6539Y82393D01*
X6583Y82419D01*
X6670Y82462D01*
X6757Y82491D01*
X6797Y82502D01*
X6837Y82513D01*
X6870Y82521D01*
X6899Y82528D01*
X6925Y82531D01*
X6943D01*
X6954Y82535D01*
X6958D01*
X6990Y82218D01*
X6907Y82211D01*
X6834Y82197D01*
X6768Y82175D01*
X6717Y82149D01*
X6674Y82127D01*
X6645Y82106D01*
X6626Y82091D01*
X6619Y82084D01*
X6575Y82029D01*
X6543Y81971D01*
X6517Y81909D01*
X6503Y81854D01*
X6492Y81803D01*
X6488Y81760D01*
X6484Y81745D01*
Y81723D01*
X6488Y81647D01*
X6503Y81578D01*
X6525Y81520D01*
X6546Y81469D01*
X6572Y81428D01*
X6590Y81403D01*
X6605Y81385D01*
X6612Y81378D01*
X6663Y81334D01*
X6714Y81301D01*
X6765Y81276D01*
X6816Y81261D01*
X6856Y81250D01*
X6892Y81247D01*
X6914Y81243D01*
X6918D01*
X6921D01*
X6987Y81250D01*
X7056Y81265D01*
X7118Y81290D01*
X7176Y81316D01*
X7223Y81345D01*
X7263Y81370D01*
X7278Y81378D01*
X7289Y81385D01*
X7293Y81392D01*
X7296D01*
X7336Y81421D01*
X7376Y81458D01*
X7420Y81498D01*
X7464Y81541D01*
X7551Y81632D01*
X7638Y81723D01*
X7678Y81771D01*
X7715Y81811D01*
X7747Y81851D01*
X7777Y81884D01*
X7799Y81909D01*
X7817Y81931D01*
X7828Y81945D01*
X7831Y81949D01*
X7908Y82040D01*
X7981Y82124D01*
X8046Y82193D01*
X8101Y82248D01*
X8148Y82295D01*
X8181Y82328D01*
X8202Y82346D01*
X8206Y82353D01*
X8210D01*
X8272Y82404D01*
X8330Y82444D01*
X8388Y82481D01*
X8439Y82510D01*
X8483Y82531D01*
X8516Y82546D01*
X8537Y82553D01*
X8541Y82557D01*
X8545D01*
X8585Y82572D01*
X8621Y82579D01*
X8658Y82586D01*
X8690Y82590D01*
X8719Y82593D01*
X8741D01*
X8756D01*
X8759D01*
Y80923D01*
D02*
G37*
G36*
X8152Y80580D02*
X8206Y80569D01*
X8308Y80537D01*
X8395Y80497D01*
X8432Y80475D01*
X8468Y80453D01*
X8501Y80431D01*
X8527Y80409D01*
X8552Y80391D01*
X8570Y80373D01*
X8585Y80362D01*
X8596Y80351D01*
X8603Y80344D01*
X8607Y80340D01*
X8639Y80296D01*
X8672Y80253D01*
X8698Y80209D01*
X8719Y80162D01*
X8756Y80071D01*
X8778Y79983D01*
X8785Y79943D01*
X8792Y79907D01*
X8796Y79874D01*
X8800Y79845D01*
X8803Y79823D01*
Y79791D01*
X8800Y79721D01*
X8792Y79659D01*
X8781Y79598D01*
X8767Y79539D01*
X8749Y79485D01*
X8730Y79437D01*
X8709Y79390D01*
X8687Y79350D01*
X8668Y79310D01*
X8647Y79277D01*
X8628Y79248D01*
X8610Y79226D01*
X8596Y79208D01*
X8585Y79194D01*
X8577Y79186D01*
X8574Y79183D01*
X8530Y79139D01*
X8483Y79103D01*
X8435Y79070D01*
X8388Y79041D01*
X8344Y79019D01*
X8297Y78997D01*
X8210Y78968D01*
X8170Y78961D01*
X8133Y78953D01*
X8101Y78946D01*
X8072Y78942D01*
X8050Y78939D01*
X8031D01*
X8021D01*
X8017D01*
X7930Y78942D01*
X7849Y78957D01*
X7780Y78979D01*
X7722Y79001D01*
X7675Y79023D01*
X7638Y79044D01*
X7616Y79059D01*
X7609Y79062D01*
X7555Y79114D01*
X7507Y79168D01*
X7471Y79226D01*
X7442Y79285D01*
X7420Y79335D01*
X7405Y79376D01*
X7402Y79390D01*
X7398Y79401D01*
X7394Y79408D01*
Y79412D01*
X7362Y79350D01*
X7329Y79299D01*
X7293Y79255D01*
X7260Y79219D01*
X7231Y79190D01*
X7205Y79168D01*
X7191Y79157D01*
X7183Y79154D01*
X7132Y79124D01*
X7081Y79103D01*
X7030Y79084D01*
X6983Y79073D01*
X6943Y79066D01*
X6914Y79062D01*
X6892D01*
X6885D01*
X6823Y79066D01*
X6761Y79077D01*
X6707Y79092D01*
X6659Y79110D01*
X6619Y79128D01*
X6586Y79143D01*
X6568Y79154D01*
X6561Y79157D01*
X6506Y79194D01*
X6459Y79237D01*
X6419Y79281D01*
X6382Y79325D01*
X6357Y79361D01*
X6335Y79394D01*
X6324Y79416D01*
X6321Y79419D01*
Y79423D01*
X6291Y79488D01*
X6270Y79554D01*
X6251Y79619D01*
X6241Y79678D01*
X6233Y79725D01*
X6230Y79765D01*
Y79856D01*
X6237Y79907D01*
X6255Y80005D01*
X6284Y80089D01*
X6313Y80162D01*
X6332Y80195D01*
X6346Y80220D01*
X6361Y80246D01*
X6375Y80264D01*
X6386Y80278D01*
X6393Y80289D01*
X6397Y80296D01*
X6401Y80300D01*
X6470Y80369D01*
X6546Y80424D01*
X6626Y80468D01*
X6707Y80504D01*
X6776Y80526D01*
X6805Y80537D01*
X6830Y80544D01*
X6852Y80548D01*
X6867Y80551D01*
X6878Y80555D01*
X6881D01*
X6936Y80246D01*
X6856Y80231D01*
X6787Y80209D01*
X6728Y80184D01*
X6681Y80158D01*
X6645Y80133D01*
X6619Y80111D01*
X6601Y80096D01*
X6597Y80093D01*
X6561Y80045D01*
X6532Y79994D01*
X6514Y79947D01*
X6499Y79900D01*
X6492Y79856D01*
X6484Y79823D01*
Y79794D01*
X6488Y79729D01*
X6503Y79670D01*
X6521Y79619D01*
X6539Y79576D01*
X6561Y79543D01*
X6579Y79518D01*
X6594Y79499D01*
X6597Y79496D01*
X6641Y79456D01*
X6688Y79426D01*
X6736Y79408D01*
X6779Y79394D01*
X6819Y79387D01*
X6848Y79379D01*
X6870D01*
X6874D01*
X6878D01*
X6918D01*
X6954Y79387D01*
X7016Y79405D01*
X7070Y79430D01*
X7118Y79459D01*
X7151Y79488D01*
X7176Y79514D01*
X7191Y79532D01*
X7194Y79536D01*
Y79539D01*
X7227Y79601D01*
X7253Y79659D01*
X7271Y79721D01*
X7282Y79776D01*
X7289Y79823D01*
X7296Y79863D01*
Y79911D01*
X7293Y79925D01*
Y79943D01*
X7565Y79980D01*
X7555Y79932D01*
X7547Y79889D01*
X7540Y79852D01*
X7536Y79820D01*
X7533Y79794D01*
Y79761D01*
X7540Y79685D01*
X7555Y79616D01*
X7576Y79554D01*
X7602Y79503D01*
X7627Y79463D01*
X7649Y79434D01*
X7664Y79416D01*
X7671Y79408D01*
X7726Y79361D01*
X7784Y79325D01*
X7842Y79299D01*
X7900Y79285D01*
X7948Y79274D01*
X7988Y79270D01*
X8002Y79266D01*
X8013D01*
X8021D01*
X8024D01*
X8104Y79274D01*
X8177Y79292D01*
X8239Y79314D01*
X8293Y79343D01*
X8337Y79372D01*
X8370Y79394D01*
X8392Y79412D01*
X8399Y79419D01*
X8450Y79478D01*
X8486Y79539D01*
X8512Y79601D01*
X8530Y79659D01*
X8541Y79710D01*
X8545Y79751D01*
X8548Y79765D01*
Y79787D01*
X8545Y79852D01*
X8530Y79914D01*
X8512Y79969D01*
X8490Y80013D01*
X8472Y80049D01*
X8454Y80078D01*
X8439Y80093D01*
X8435Y80100D01*
X8384Y80144D01*
X8326Y80180D01*
X8264Y80213D01*
X8199Y80238D01*
X8144Y80256D01*
X8119Y80264D01*
X8097Y80267D01*
X8079Y80271D01*
X8064Y80275D01*
X8057Y80278D01*
X8053D01*
X8093Y80588D01*
X8152Y80580D01*
D02*
G37*
G36*
X35862Y25263D02*
X35960Y25245D01*
X36044Y25216D01*
X36116Y25187D01*
X36149Y25168D01*
X36175Y25154D01*
X36200Y25139D01*
X36218Y25125D01*
X36233Y25114D01*
X36244Y25107D01*
X36251Y25103D01*
X36255Y25099D01*
X36324Y25030D01*
X36379Y24954D01*
X36422Y24874D01*
X36459Y24793D01*
X36481Y24724D01*
X36491Y24695D01*
X36499Y24670D01*
X36502Y24648D01*
X36506Y24633D01*
X36510Y24622D01*
Y24619D01*
X36200Y24564D01*
X36186Y24644D01*
X36164Y24713D01*
X36138Y24772D01*
X36113Y24819D01*
X36087Y24855D01*
X36066Y24881D01*
X36051Y24899D01*
X36047Y24903D01*
X36000Y24939D01*
X35949Y24968D01*
X35902Y24986D01*
X35854Y25001D01*
X35811Y25008D01*
X35778Y25016D01*
X35749D01*
X35683Y25012D01*
X35625Y24997D01*
X35574Y24979D01*
X35530Y24961D01*
X35498Y24939D01*
X35472Y24921D01*
X35454Y24906D01*
X35450Y24903D01*
X35410Y24859D01*
X35381Y24812D01*
X35363Y24764D01*
X35348Y24721D01*
X35341Y24681D01*
X35334Y24652D01*
Y24630D01*
Y24626D01*
Y24622D01*
Y24582D01*
X35341Y24546D01*
X35359Y24484D01*
X35385Y24430D01*
X35414Y24382D01*
X35443Y24349D01*
X35469Y24324D01*
X35487Y24309D01*
X35490Y24306D01*
X35494D01*
X35556Y24273D01*
X35614Y24248D01*
X35676Y24229D01*
X35731Y24218D01*
X35778Y24211D01*
X35818Y24204D01*
X35865D01*
X35880Y24207D01*
X35898D01*
X35934Y23934D01*
X35887Y23945D01*
X35844Y23953D01*
X35807Y23960D01*
X35774Y23964D01*
X35749Y23967D01*
X35716D01*
X35640Y23960D01*
X35570Y23945D01*
X35509Y23924D01*
X35458Y23898D01*
X35418Y23873D01*
X35388Y23851D01*
X35370Y23836D01*
X35363Y23829D01*
X35316Y23774D01*
X35279Y23716D01*
X35254Y23658D01*
X35239Y23600D01*
X35228Y23552D01*
X35225Y23512D01*
X35221Y23498D01*
Y23487D01*
Y23480D01*
Y23476D01*
X35228Y23396D01*
X35247Y23323D01*
X35268Y23261D01*
X35298Y23207D01*
X35327Y23163D01*
X35348Y23130D01*
X35367Y23108D01*
X35374Y23101D01*
X35432Y23050D01*
X35494Y23014D01*
X35556Y22988D01*
X35614Y22970D01*
X35665Y22959D01*
X35705Y22955D01*
X35720Y22952D01*
X35742D01*
X35807Y22955D01*
X35869Y22970D01*
X35924Y22988D01*
X35967Y23010D01*
X36004Y23028D01*
X36033Y23046D01*
X36047Y23061D01*
X36055Y23065D01*
X36098Y23115D01*
X36135Y23174D01*
X36167Y23236D01*
X36193Y23301D01*
X36211Y23356D01*
X36218Y23381D01*
X36222Y23403D01*
X36226Y23421D01*
X36229Y23436D01*
X36233Y23443D01*
Y23447D01*
X36542Y23407D01*
X36535Y23348D01*
X36524Y23294D01*
X36491Y23192D01*
X36451Y23105D01*
X36430Y23068D01*
X36408Y23032D01*
X36386Y22999D01*
X36364Y22974D01*
X36346Y22948D01*
X36328Y22930D01*
X36317Y22915D01*
X36306Y22904D01*
X36298Y22897D01*
X36295Y22893D01*
X36251Y22861D01*
X36208Y22828D01*
X36164Y22802D01*
X36116Y22781D01*
X36026Y22744D01*
X35938Y22722D01*
X35898Y22715D01*
X35862Y22708D01*
X35829Y22704D01*
X35800Y22701D01*
X35778Y22697D01*
X35745D01*
X35676Y22701D01*
X35614Y22708D01*
X35552Y22719D01*
X35494Y22733D01*
X35439Y22751D01*
X35392Y22770D01*
X35345Y22792D01*
X35305Y22813D01*
X35265Y22832D01*
X35232Y22853D01*
X35203Y22872D01*
X35181Y22890D01*
X35163Y22904D01*
X35148Y22915D01*
X35141Y22923D01*
X35137Y22926D01*
X35094Y22970D01*
X35057Y23017D01*
X35024Y23065D01*
X34995Y23112D01*
X34973Y23155D01*
X34952Y23203D01*
X34923Y23290D01*
X34915Y23330D01*
X34908Y23367D01*
X34901Y23399D01*
X34897Y23428D01*
X34893Y23450D01*
Y23469D01*
Y23480D01*
Y23483D01*
X34897Y23571D01*
X34912Y23651D01*
X34934Y23720D01*
X34955Y23778D01*
X34977Y23825D01*
X34999Y23862D01*
X35014Y23884D01*
X35017Y23891D01*
X35068Y23945D01*
X35123Y23993D01*
X35181Y24029D01*
X35239Y24058D01*
X35290Y24080D01*
X35330Y24095D01*
X35345Y24098D01*
X35356Y24102D01*
X35363Y24106D01*
X35367D01*
X35305Y24138D01*
X35254Y24171D01*
X35210Y24207D01*
X35174Y24240D01*
X35145Y24269D01*
X35123Y24295D01*
X35112Y24309D01*
X35108Y24317D01*
X35079Y24368D01*
X35057Y24419D01*
X35039Y24470D01*
X35028Y24517D01*
X35021Y24557D01*
X35017Y24586D01*
Y24608D01*
Y24615D01*
X35021Y24677D01*
X35032Y24739D01*
X35046Y24793D01*
X35065Y24841D01*
X35083Y24881D01*
X35097Y24914D01*
X35108Y24932D01*
X35112Y24939D01*
X35148Y24994D01*
X35192Y25041D01*
X35236Y25081D01*
X35279Y25117D01*
X35316Y25143D01*
X35348Y25165D01*
X35370Y25176D01*
X35374Y25179D01*
X35378D01*
X35443Y25209D01*
X35509Y25230D01*
X35574Y25249D01*
X35632Y25259D01*
X35680Y25267D01*
X35720Y25270D01*
X35811D01*
X35862Y25263D01*
D02*
G37*
G36*
X37991Y25296D02*
X38108Y25278D01*
X38210Y25256D01*
X38257Y25241D01*
X38300Y25227D01*
X38340Y25212D01*
X38377Y25198D01*
X38406Y25187D01*
X38435Y25176D01*
X38453Y25165D01*
X38468Y25157D01*
X38479Y25154D01*
X38482Y25150D01*
X38581Y25088D01*
X38664Y25016D01*
X38737Y24943D01*
X38799Y24870D01*
X38846Y24804D01*
X38865Y24775D01*
X38879Y24750D01*
X38894Y24732D01*
X38901Y24717D01*
X38905Y24706D01*
X38908Y24702D01*
X38959Y24590D01*
X38996Y24473D01*
X39021Y24357D01*
X39039Y24251D01*
X39047Y24204D01*
X39050Y24157D01*
X39054Y24120D01*
Y24084D01*
X39058Y24058D01*
Y24036D01*
Y24022D01*
Y24018D01*
X39050Y23887D01*
X39036Y23760D01*
X39018Y23647D01*
X39003Y23592D01*
X38992Y23545D01*
X38981Y23501D01*
X38967Y23461D01*
X38956Y23425D01*
X38948Y23396D01*
X38938Y23374D01*
X38934Y23356D01*
X38927Y23345D01*
Y23341D01*
X38872Y23232D01*
X38810Y23134D01*
X38745Y23050D01*
X38712Y23017D01*
X38683Y22984D01*
X38654Y22955D01*
X38624Y22930D01*
X38599Y22908D01*
X38577Y22893D01*
X38563Y22879D01*
X38548Y22868D01*
X38541Y22864D01*
X38537Y22861D01*
X38486Y22832D01*
X38435Y22806D01*
X38326Y22766D01*
X38217Y22737D01*
X38111Y22719D01*
X38060Y22711D01*
X38017Y22704D01*
X37977Y22701D01*
X37944D01*
X37915Y22697D01*
X37875D01*
X37802Y22701D01*
X37733Y22708D01*
X37667Y22715D01*
X37605Y22730D01*
X37547Y22748D01*
X37492Y22766D01*
X37441Y22784D01*
X37394Y22806D01*
X37354Y22824D01*
X37314Y22842D01*
X37285Y22861D01*
X37256Y22879D01*
X37238Y22893D01*
X37219Y22901D01*
X37212Y22908D01*
X37209Y22912D01*
X37157Y22955D01*
X37114Y22999D01*
X37074Y23050D01*
X37034Y23101D01*
X36968Y23203D01*
X36917Y23305D01*
X36895Y23352D01*
X36877Y23396D01*
X36863Y23436D01*
X36852Y23469D01*
X36841Y23498D01*
X36834Y23519D01*
X36830Y23534D01*
Y23538D01*
X37165Y23621D01*
X37179Y23563D01*
X37198Y23509D01*
X37216Y23458D01*
X37234Y23410D01*
X37256Y23367D01*
X37278Y23330D01*
X37303Y23294D01*
X37325Y23261D01*
X37343Y23232D01*
X37365Y23210D01*
X37383Y23188D01*
X37398Y23170D01*
X37412Y23159D01*
X37423Y23148D01*
X37427Y23145D01*
X37431Y23141D01*
X37467Y23112D01*
X37507Y23090D01*
X37587Y23050D01*
X37663Y23021D01*
X37740Y23003D01*
X37805Y22988D01*
X37831Y22984D01*
X37856D01*
X37878Y22981D01*
X37904D01*
X37987Y22984D01*
X38067Y22999D01*
X38140Y23017D01*
X38206Y23039D01*
X38257Y23061D01*
X38279Y23072D01*
X38297Y23079D01*
X38311Y23086D01*
X38322Y23094D01*
X38330Y23097D01*
X38333D01*
X38402Y23148D01*
X38461Y23203D01*
X38512Y23265D01*
X38552Y23323D01*
X38584Y23374D01*
X38606Y23418D01*
X38614Y23436D01*
X38621Y23447D01*
X38624Y23454D01*
Y23458D01*
X38654Y23552D01*
X38675Y23647D01*
X38694Y23742D01*
X38704Y23829D01*
X38708Y23869D01*
X38712Y23905D01*
Y23938D01*
X38715Y23964D01*
Y23985D01*
Y24004D01*
Y24015D01*
Y24018D01*
X38712Y24113D01*
X38704Y24200D01*
X38690Y24280D01*
X38675Y24353D01*
X38664Y24415D01*
X38657Y24440D01*
X38650Y24462D01*
X38646Y24480D01*
X38643Y24491D01*
X38639Y24499D01*
Y24502D01*
X38603Y24586D01*
X38563Y24663D01*
X38519Y24724D01*
X38472Y24779D01*
X38432Y24823D01*
X38399Y24852D01*
X38373Y24870D01*
X38370Y24877D01*
X38366D01*
X38290Y24925D01*
X38206Y24961D01*
X38126Y24986D01*
X38049Y25001D01*
X37980Y25012D01*
X37951Y25016D01*
X37926D01*
X37907Y25019D01*
X37878D01*
X37787Y25016D01*
X37703Y25001D01*
X37634Y24979D01*
X37573Y24957D01*
X37525Y24932D01*
X37489Y24914D01*
X37467Y24899D01*
X37460Y24892D01*
X37401Y24837D01*
X37347Y24775D01*
X37303Y24710D01*
X37267Y24644D01*
X37238Y24586D01*
X37227Y24557D01*
X37219Y24535D01*
X37212Y24517D01*
X37205Y24502D01*
X37201Y24495D01*
Y24491D01*
X36874Y24568D01*
X36895Y24633D01*
X36917Y24692D01*
X36946Y24746D01*
X36972Y24801D01*
X37001Y24848D01*
X37034Y24892D01*
X37063Y24936D01*
X37092Y24972D01*
X37121Y25001D01*
X37147Y25030D01*
X37172Y25056D01*
X37190Y25074D01*
X37209Y25092D01*
X37223Y25103D01*
X37230Y25107D01*
X37234Y25110D01*
X37285Y25143D01*
X37336Y25176D01*
X37387Y25201D01*
X37441Y25223D01*
X37551Y25256D01*
X37649Y25278D01*
X37696Y25289D01*
X37736Y25292D01*
X37776Y25296D01*
X37809Y25300D01*
X37835Y25303D01*
X37871D01*
X37991Y25296D01*
D02*
G37*
G36*
X33863Y25263D02*
X33954Y25249D01*
X34031Y25223D01*
X34096Y25198D01*
X34151Y25168D01*
X34173Y25157D01*
X34191Y25143D01*
X34205Y25136D01*
X34216Y25128D01*
X34220Y25121D01*
X34224D01*
X34289Y25063D01*
X34344Y24994D01*
X34391Y24925D01*
X34427Y24859D01*
X34457Y24797D01*
X34471Y24772D01*
X34479Y24746D01*
X34486Y24728D01*
X34493Y24713D01*
X34497Y24706D01*
Y24702D01*
X34511Y24648D01*
X34526Y24593D01*
X34548Y24473D01*
X34566Y24353D01*
X34577Y24240D01*
X34580Y24186D01*
X34584Y24138D01*
Y24095D01*
X34588Y24055D01*
Y24025D01*
Y24000D01*
Y23985D01*
Y23982D01*
X34584Y23854D01*
X34577Y23734D01*
X34566Y23625D01*
X34548Y23523D01*
X34529Y23428D01*
X34508Y23345D01*
X34486Y23268D01*
X34464Y23203D01*
X34442Y23145D01*
X34417Y23094D01*
X34398Y23050D01*
X34380Y23017D01*
X34362Y22988D01*
X34351Y22970D01*
X34344Y22959D01*
X34340Y22955D01*
X34300Y22912D01*
X34256Y22872D01*
X34209Y22835D01*
X34162Y22806D01*
X34115Y22781D01*
X34067Y22759D01*
X34020Y22744D01*
X33976Y22730D01*
X33933Y22719D01*
X33892Y22711D01*
X33856Y22704D01*
X33827Y22701D01*
X33801Y22697D01*
X33765D01*
X33667Y22704D01*
X33576Y22719D01*
X33499Y22744D01*
X33434Y22770D01*
X33379Y22795D01*
X33361Y22810D01*
X33343Y22821D01*
X33328Y22828D01*
X33317Y22835D01*
X33314Y22842D01*
X33310D01*
X33244Y22904D01*
X33190Y22970D01*
X33143Y23043D01*
X33106Y23108D01*
X33077Y23170D01*
X33062Y23196D01*
X33055Y23221D01*
X33048Y23239D01*
X33041Y23254D01*
X33037Y23261D01*
Y23265D01*
X33019Y23319D01*
X33004Y23374D01*
X32982Y23490D01*
X32964Y23610D01*
X32953Y23727D01*
X32950Y23778D01*
X32946Y23825D01*
Y23869D01*
X32942Y23909D01*
Y23938D01*
Y23964D01*
Y23978D01*
Y23982D01*
Y24051D01*
X32946Y24116D01*
Y24175D01*
X32950Y24233D01*
X32957Y24284D01*
X32961Y24335D01*
X32964Y24379D01*
X32972Y24419D01*
X32975Y24455D01*
X32982Y24488D01*
X32986Y24513D01*
X32990Y24535D01*
X32993Y24553D01*
X32997Y24564D01*
X33001Y24572D01*
Y24575D01*
X33022Y24655D01*
X33048Y24728D01*
X33077Y24790D01*
X33099Y24845D01*
X33124Y24892D01*
X33139Y24925D01*
X33154Y24943D01*
X33157Y24950D01*
X33197Y25005D01*
X33237Y25052D01*
X33281Y25092D01*
X33321Y25128D01*
X33357Y25154D01*
X33386Y25172D01*
X33405Y25183D01*
X33408Y25187D01*
X33412D01*
X33470Y25216D01*
X33532Y25234D01*
X33590Y25249D01*
X33645Y25259D01*
X33692Y25267D01*
X33732Y25270D01*
X33765D01*
X33863Y25263D01*
D02*
G37*
G36*
X52783Y11267D02*
X52845Y11263D01*
X52903Y11252D01*
X52958Y11241D01*
X53009Y11227D01*
X53056Y11212D01*
X53100Y11194D01*
X53140Y11176D01*
X53176Y11157D01*
X53206Y11139D01*
X53231Y11125D01*
X53253Y11110D01*
X53271Y11099D01*
X53282Y11088D01*
X53289Y11085D01*
X53293Y11081D01*
X53329Y11045D01*
X53362Y11005D01*
X53395Y10961D01*
X53420Y10917D01*
X53464Y10830D01*
X53493Y10743D01*
X53504Y10702D01*
X53515Y10662D01*
X53522Y10630D01*
X53530Y10601D01*
X53533Y10575D01*
Y10557D01*
X53537Y10546D01*
Y10542D01*
X53220Y10510D01*
X53213Y10593D01*
X53198Y10666D01*
X53176Y10732D01*
X53151Y10783D01*
X53129Y10826D01*
X53107Y10855D01*
X53093Y10874D01*
X53086Y10881D01*
X53031Y10925D01*
X52973Y10957D01*
X52911Y10983D01*
X52856Y10997D01*
X52805Y11008D01*
X52762Y11012D01*
X52747Y11016D01*
X52725D01*
X52649Y11012D01*
X52580Y10997D01*
X52521Y10976D01*
X52470Y10954D01*
X52430Y10928D01*
X52405Y10910D01*
X52387Y10895D01*
X52379Y10888D01*
X52336Y10837D01*
X52303Y10786D01*
X52277Y10735D01*
X52263Y10684D01*
X52252Y10644D01*
X52248Y10608D01*
X52245Y10586D01*
Y10582D01*
Y10579D01*
X52252Y10513D01*
X52267Y10444D01*
X52292Y10382D01*
X52318Y10324D01*
X52347Y10277D01*
X52372Y10237D01*
X52379Y10222D01*
X52387Y10211D01*
X52394Y10208D01*
Y10204D01*
X52423Y10164D01*
X52460Y10124D01*
X52500Y10080D01*
X52543Y10036D01*
X52634Y9949D01*
X52725Y9862D01*
X52772Y9822D01*
X52812Y9785D01*
X52853Y9753D01*
X52885Y9723D01*
X52911Y9702D01*
X52933Y9683D01*
X52947Y9672D01*
X52951Y9669D01*
X53042Y9592D01*
X53126Y9520D01*
X53195Y9454D01*
X53249Y9399D01*
X53297Y9352D01*
X53329Y9319D01*
X53348Y9297D01*
X53355Y9294D01*
Y9290D01*
X53406Y9228D01*
X53446Y9170D01*
X53482Y9112D01*
X53511Y9061D01*
X53533Y9017D01*
X53548Y8984D01*
X53555Y8963D01*
X53559Y8959D01*
Y8955D01*
X53573Y8915D01*
X53581Y8879D01*
X53588Y8843D01*
X53592Y8810D01*
X53595Y8781D01*
Y8759D01*
Y8744D01*
Y8741D01*
X51924D01*
Y9039D01*
X53166D01*
X53122Y9101D01*
X53100Y9126D01*
X53082Y9152D01*
X53064Y9174D01*
X53049Y9188D01*
X53038Y9199D01*
X53035Y9203D01*
X53016Y9221D01*
X52995Y9239D01*
X52944Y9287D01*
X52885Y9341D01*
X52824Y9396D01*
X52765Y9443D01*
X52740Y9465D01*
X52718Y9487D01*
X52700Y9501D01*
X52685Y9512D01*
X52678Y9520D01*
X52674Y9523D01*
X52616Y9574D01*
X52558Y9621D01*
X52507Y9669D01*
X52460Y9709D01*
X52416Y9749D01*
X52379Y9785D01*
X52343Y9818D01*
X52314Y9847D01*
X52285Y9876D01*
X52263Y9898D01*
X52245Y9916D01*
X52227Y9934D01*
X52208Y9956D01*
X52201Y9964D01*
X52150Y10025D01*
X52106Y10080D01*
X52070Y10135D01*
X52041Y10178D01*
X52019Y10218D01*
X52004Y10248D01*
X51997Y10266D01*
X51994Y10273D01*
X51972Y10328D01*
X51957Y10382D01*
X51943Y10433D01*
X51935Y10477D01*
X51932Y10517D01*
X51928Y10546D01*
Y10564D01*
Y10571D01*
X51932Y10626D01*
X51939Y10677D01*
X51946Y10728D01*
X51961Y10772D01*
X51997Y10859D01*
X52034Y10928D01*
X52055Y10961D01*
X52074Y10986D01*
X52092Y11012D01*
X52110Y11030D01*
X52125Y11045D01*
X52132Y11059D01*
X52139Y11063D01*
X52143Y11067D01*
X52183Y11103D01*
X52227Y11136D01*
X52274Y11161D01*
X52321Y11183D01*
X52416Y11219D01*
X52510Y11245D01*
X52551Y11252D01*
X52591Y11259D01*
X52627Y11263D01*
X52656Y11267D01*
X52681Y11270D01*
X52718D01*
X52783Y11267D01*
D02*
G37*
G36*
X50865D02*
X50923Y11259D01*
X50982Y11248D01*
X51033Y11234D01*
X51131Y11194D01*
X51174Y11176D01*
X51211Y11154D01*
X51247Y11128D01*
X51276Y11110D01*
X51306Y11088D01*
X51327Y11070D01*
X51346Y11056D01*
X51357Y11045D01*
X51364Y11037D01*
X51367Y11034D01*
X51407Y10990D01*
X51440Y10939D01*
X51473Y10892D01*
X51499Y10841D01*
X51520Y10786D01*
X51538Y10735D01*
X51564Y10641D01*
X51575Y10593D01*
X51582Y10553D01*
X51586Y10513D01*
X51590Y10481D01*
X51593Y10455D01*
Y10437D01*
Y10422D01*
Y10419D01*
X51590Y10349D01*
X51582Y10288D01*
X51575Y10226D01*
X51560Y10167D01*
X51542Y10116D01*
X51524Y10065D01*
X51506Y10022D01*
X51484Y9982D01*
X51466Y9945D01*
X51447Y9913D01*
X51429Y9887D01*
X51411Y9862D01*
X51397Y9843D01*
X51389Y9833D01*
X51382Y9825D01*
X51378Y9822D01*
X51338Y9782D01*
X51295Y9749D01*
X51251Y9716D01*
X51204Y9691D01*
X51160Y9669D01*
X51116Y9651D01*
X51033Y9625D01*
X50996Y9614D01*
X50960Y9607D01*
X50931Y9603D01*
X50902Y9600D01*
X50880Y9596D01*
X50851D01*
X50781Y9600D01*
X50716Y9611D01*
X50658Y9625D01*
X50603Y9643D01*
X50563Y9658D01*
X50530Y9672D01*
X50508Y9683D01*
X50501Y9687D01*
X50443Y9723D01*
X50392Y9763D01*
X50348Y9803D01*
X50312Y9840D01*
X50286Y9876D01*
X50265Y9902D01*
X50250Y9920D01*
X50246Y9927D01*
Y9898D01*
Y9880D01*
Y9869D01*
Y9865D01*
X50250Y9792D01*
X50254Y9723D01*
X50261Y9662D01*
X50268Y9603D01*
X50279Y9556D01*
X50286Y9520D01*
X50290Y9505D01*
Y9494D01*
X50294Y9490D01*
Y9487D01*
X50312Y9421D01*
X50330Y9363D01*
X50348Y9312D01*
X50366Y9268D01*
X50381Y9236D01*
X50396Y9210D01*
X50403Y9192D01*
X50406Y9188D01*
X50436Y9148D01*
X50465Y9116D01*
X50494Y9086D01*
X50523Y9061D01*
X50545Y9039D01*
X50567Y9025D01*
X50581Y9017D01*
X50585Y9014D01*
X50625Y8992D01*
X50669Y8977D01*
X50709Y8966D01*
X50749Y8959D01*
X50781Y8955D01*
X50807Y8952D01*
X50832D01*
X50891Y8955D01*
X50945Y8966D01*
X50993Y8981D01*
X51033Y8999D01*
X51062Y9014D01*
X51087Y9028D01*
X51102Y9039D01*
X51105Y9043D01*
X51142Y9083D01*
X51171Y9130D01*
X51196Y9181D01*
X51215Y9232D01*
X51229Y9276D01*
X51240Y9316D01*
X51244Y9330D01*
Y9337D01*
X51247Y9345D01*
Y9348D01*
X51546Y9323D01*
X51524Y9217D01*
X51495Y9126D01*
X51459Y9046D01*
X51422Y8981D01*
X51386Y8930D01*
X51367Y8908D01*
X51353Y8890D01*
X51342Y8879D01*
X51331Y8868D01*
X51327Y8864D01*
X51324Y8861D01*
X51287Y8832D01*
X51247Y8806D01*
X51167Y8766D01*
X51087Y8737D01*
X51011Y8719D01*
X50942Y8704D01*
X50912Y8700D01*
X50887D01*
X50869Y8697D01*
X50840D01*
X50738Y8704D01*
X50647Y8719D01*
X50563Y8744D01*
X50494Y8773D01*
X50465Y8784D01*
X50436Y8799D01*
X50414Y8813D01*
X50392Y8824D01*
X50377Y8832D01*
X50366Y8839D01*
X50359Y8846D01*
X50355D01*
X50283Y8908D01*
X50217Y8977D01*
X50166Y9050D01*
X50123Y9119D01*
X50086Y9181D01*
X50072Y9210D01*
X50061Y9232D01*
X50053Y9254D01*
X50046Y9268D01*
X50042Y9276D01*
Y9279D01*
X50024Y9334D01*
X50006Y9396D01*
X49981Y9520D01*
X49962Y9651D01*
X49951Y9774D01*
X49944Y9829D01*
X49941Y9883D01*
Y9931D01*
X49937Y9971D01*
Y10004D01*
Y10029D01*
Y10047D01*
Y10051D01*
Y10135D01*
X49941Y10215D01*
X49948Y10288D01*
X49955Y10357D01*
X49962Y10419D01*
X49970Y10477D01*
X49981Y10531D01*
X49992Y10579D01*
X50002Y10619D01*
X50010Y10655D01*
X50021Y10688D01*
X50028Y10713D01*
X50035Y10732D01*
X50042Y10746D01*
X50046Y10753D01*
Y10757D01*
X50090Y10845D01*
X50137Y10921D01*
X50192Y10986D01*
X50239Y11041D01*
X50286Y11081D01*
X50323Y11110D01*
X50337Y11121D01*
X50348Y11128D01*
X50352Y11136D01*
X50355D01*
X50432Y11179D01*
X50508Y11212D01*
X50585Y11238D01*
X50654Y11252D01*
X50716Y11263D01*
X50741Y11267D01*
X50760D01*
X50778Y11270D01*
X50803D01*
X50865Y11267D01*
D02*
G37*
G36*
X54997Y11296D02*
X55113Y11278D01*
X55215Y11256D01*
X55262Y11241D01*
X55306Y11227D01*
X55346Y11212D01*
X55382Y11198D01*
X55411Y11187D01*
X55441Y11176D01*
X55459Y11165D01*
X55473Y11157D01*
X55484Y11154D01*
X55488Y11150D01*
X55586Y11088D01*
X55670Y11016D01*
X55743Y10943D01*
X55805Y10870D01*
X55852Y10804D01*
X55870Y10775D01*
X55885Y10750D01*
X55899Y10732D01*
X55906Y10717D01*
X55910Y10706D01*
X55914Y10702D01*
X55965Y10590D01*
X56001Y10473D01*
X56027Y10357D01*
X56045Y10251D01*
X56052Y10204D01*
X56056Y10157D01*
X56059Y10120D01*
Y10084D01*
X56063Y10058D01*
Y10036D01*
Y10022D01*
Y10018D01*
X56056Y9887D01*
X56041Y9760D01*
X56023Y9647D01*
X56008Y9592D01*
X55998Y9545D01*
X55987Y9501D01*
X55972Y9461D01*
X55961Y9425D01*
X55954Y9396D01*
X55943Y9374D01*
X55939Y9356D01*
X55932Y9345D01*
Y9341D01*
X55877Y9232D01*
X55816Y9134D01*
X55750Y9050D01*
X55717Y9017D01*
X55688Y8984D01*
X55659Y8955D01*
X55630Y8930D01*
X55604Y8908D01*
X55583Y8893D01*
X55568Y8879D01*
X55554Y8868D01*
X55546Y8864D01*
X55542Y8861D01*
X55492Y8832D01*
X55441Y8806D01*
X55331Y8766D01*
X55222Y8737D01*
X55117Y8719D01*
X55066Y8711D01*
X55022Y8704D01*
X54982Y8700D01*
X54949D01*
X54920Y8697D01*
X54880D01*
X54807Y8700D01*
X54738Y8708D01*
X54673Y8715D01*
X54611Y8730D01*
X54553Y8748D01*
X54498Y8766D01*
X54447Y8784D01*
X54400Y8806D01*
X54360Y8824D01*
X54320Y8843D01*
X54290Y8861D01*
X54261Y8879D01*
X54243Y8893D01*
X54225Y8901D01*
X54218Y8908D01*
X54214Y8912D01*
X54163Y8955D01*
X54119Y8999D01*
X54079Y9050D01*
X54039Y9101D01*
X53974Y9203D01*
X53923Y9305D01*
X53901Y9352D01*
X53883Y9396D01*
X53868Y9436D01*
X53857Y9469D01*
X53846Y9498D01*
X53839Y9520D01*
X53835Y9534D01*
Y9538D01*
X54170Y9621D01*
X54185Y9563D01*
X54203Y9509D01*
X54221Y9458D01*
X54239Y9410D01*
X54261Y9367D01*
X54283Y9330D01*
X54309Y9294D01*
X54330Y9261D01*
X54349Y9232D01*
X54370Y9210D01*
X54389Y9188D01*
X54403Y9170D01*
X54418Y9159D01*
X54429Y9148D01*
X54432Y9145D01*
X54436Y9141D01*
X54472Y9112D01*
X54512Y9090D01*
X54593Y9050D01*
X54669Y9021D01*
X54745Y9003D01*
X54811Y8988D01*
X54836Y8984D01*
X54862D01*
X54884Y8981D01*
X54909D01*
X54993Y8984D01*
X55073Y8999D01*
X55146Y9017D01*
X55211Y9039D01*
X55262Y9061D01*
X55284Y9072D01*
X55302Y9079D01*
X55317Y9086D01*
X55328Y9094D01*
X55335Y9097D01*
X55339D01*
X55408Y9148D01*
X55466Y9203D01*
X55517Y9265D01*
X55557Y9323D01*
X55590Y9374D01*
X55612Y9418D01*
X55619Y9436D01*
X55626Y9447D01*
X55630Y9454D01*
Y9458D01*
X55659Y9552D01*
X55681Y9647D01*
X55699Y9742D01*
X55710Y9829D01*
X55714Y9869D01*
X55717Y9905D01*
Y9938D01*
X55721Y9964D01*
Y9985D01*
Y10004D01*
Y10015D01*
Y10018D01*
X55717Y10113D01*
X55710Y10200D01*
X55695Y10280D01*
X55681Y10353D01*
X55670Y10415D01*
X55663Y10440D01*
X55655Y10462D01*
X55652Y10481D01*
X55648Y10491D01*
X55645Y10499D01*
Y10502D01*
X55608Y10586D01*
X55568Y10662D01*
X55524Y10724D01*
X55477Y10779D01*
X55437Y10823D01*
X55404Y10852D01*
X55379Y10870D01*
X55375Y10877D01*
X55371D01*
X55295Y10925D01*
X55211Y10961D01*
X55131Y10986D01*
X55055Y11001D01*
X54986Y11012D01*
X54957Y11016D01*
X54931D01*
X54913Y11019D01*
X54884D01*
X54793Y11016D01*
X54709Y11001D01*
X54640Y10979D01*
X54578Y10957D01*
X54531Y10932D01*
X54494Y10914D01*
X54472Y10899D01*
X54465Y10892D01*
X54407Y10837D01*
X54352Y10775D01*
X54309Y10710D01*
X54272Y10644D01*
X54243Y10586D01*
X54232Y10557D01*
X54225Y10535D01*
X54218Y10517D01*
X54210Y10502D01*
X54207Y10495D01*
Y10491D01*
X53879Y10568D01*
X53901Y10633D01*
X53923Y10692D01*
X53952Y10746D01*
X53977Y10801D01*
X54006Y10848D01*
X54039Y10892D01*
X54068Y10936D01*
X54097Y10972D01*
X54127Y11001D01*
X54152Y11030D01*
X54177Y11056D01*
X54196Y11074D01*
X54214Y11092D01*
X54229Y11103D01*
X54236Y11107D01*
X54239Y11110D01*
X54290Y11143D01*
X54341Y11176D01*
X54392Y11201D01*
X54447Y11223D01*
X54556Y11256D01*
X54654Y11278D01*
X54702Y11289D01*
X54742Y11292D01*
X54782Y11296D01*
X54814Y11299D01*
X54840Y11303D01*
X54876D01*
X54997Y11296D01*
D02*
G37*
G36*
X55769Y31767D02*
X55831Y31763D01*
X55889Y31752D01*
X55944Y31741D01*
X55994Y31727D01*
X56042Y31712D01*
X56085Y31694D01*
X56126Y31676D01*
X56162Y31657D01*
X56191Y31639D01*
X56217Y31625D01*
X56238Y31610D01*
X56257Y31599D01*
X56267Y31588D01*
X56275Y31585D01*
X56279Y31581D01*
X56315Y31545D01*
X56348Y31505D01*
X56380Y31461D01*
X56406Y31417D01*
X56450Y31330D01*
X56479Y31243D01*
X56490Y31203D01*
X56501Y31163D01*
X56508Y31130D01*
X56515Y31101D01*
X56519Y31075D01*
Y31057D01*
X56522Y31046D01*
Y31042D01*
X56206Y31010D01*
X56198Y31093D01*
X56184Y31166D01*
X56162Y31232D01*
X56137Y31283D01*
X56115Y31326D01*
X56093Y31355D01*
X56078Y31374D01*
X56071Y31381D01*
X56016Y31425D01*
X55958Y31457D01*
X55896Y31483D01*
X55842Y31497D01*
X55791Y31508D01*
X55747Y31512D01*
X55733Y31516D01*
X55711D01*
X55634Y31512D01*
X55565Y31497D01*
X55507Y31475D01*
X55456Y31454D01*
X55416Y31428D01*
X55390Y31410D01*
X55372Y31395D01*
X55365Y31388D01*
X55321Y31337D01*
X55288Y31286D01*
X55263Y31235D01*
X55248Y31184D01*
X55237Y31144D01*
X55234Y31108D01*
X55230Y31086D01*
Y31082D01*
Y31079D01*
X55237Y31013D01*
X55252Y30944D01*
X55278Y30882D01*
X55303Y30824D01*
X55332Y30777D01*
X55357Y30737D01*
X55365Y30722D01*
X55372Y30711D01*
X55379Y30707D01*
Y30704D01*
X55409Y30664D01*
X55445Y30624D01*
X55485Y30580D01*
X55529Y30536D01*
X55620Y30449D01*
X55711Y30362D01*
X55758Y30322D01*
X55798Y30285D01*
X55838Y30253D01*
X55871Y30223D01*
X55896Y30202D01*
X55918Y30183D01*
X55933Y30172D01*
X55936Y30169D01*
X56027Y30092D01*
X56111Y30020D01*
X56180Y29954D01*
X56235Y29899D01*
X56282Y29852D01*
X56315Y29819D01*
X56333Y29798D01*
X56340Y29794D01*
Y29790D01*
X56391Y29728D01*
X56431Y29670D01*
X56468Y29612D01*
X56497Y29561D01*
X56519Y29517D01*
X56533Y29484D01*
X56541Y29463D01*
X56544Y29459D01*
Y29455D01*
X56559Y29415D01*
X56566Y29379D01*
X56573Y29342D01*
X56577Y29310D01*
X56581Y29281D01*
Y29259D01*
Y29244D01*
Y29241D01*
X54910D01*
Y29539D01*
X56151D01*
X56107Y29601D01*
X56085Y29626D01*
X56067Y29652D01*
X56049Y29674D01*
X56035Y29688D01*
X56024Y29699D01*
X56020Y29703D01*
X56002Y29721D01*
X55980Y29739D01*
X55929Y29787D01*
X55871Y29841D01*
X55809Y29896D01*
X55751Y29943D01*
X55725Y29965D01*
X55703Y29987D01*
X55685Y30001D01*
X55671Y30012D01*
X55663Y30020D01*
X55660Y30023D01*
X55601Y30074D01*
X55543Y30121D01*
X55492Y30169D01*
X55445Y30209D01*
X55401Y30249D01*
X55365Y30285D01*
X55328Y30318D01*
X55299Y30347D01*
X55270Y30376D01*
X55248Y30398D01*
X55230Y30416D01*
X55212Y30435D01*
X55194Y30456D01*
X55186Y30464D01*
X55136Y30525D01*
X55092Y30580D01*
X55055Y30635D01*
X55026Y30678D01*
X55005Y30718D01*
X54990Y30748D01*
X54983Y30766D01*
X54979Y30773D01*
X54957Y30828D01*
X54943Y30882D01*
X54928Y30933D01*
X54921Y30977D01*
X54917Y31017D01*
X54914Y31046D01*
Y31064D01*
Y31071D01*
X54917Y31126D01*
X54924Y31177D01*
X54932Y31228D01*
X54946Y31272D01*
X54983Y31359D01*
X55019Y31428D01*
X55041Y31461D01*
X55059Y31486D01*
X55077Y31512D01*
X55095Y31530D01*
X55110Y31545D01*
X55117Y31559D01*
X55125Y31563D01*
X55128Y31567D01*
X55168Y31603D01*
X55212Y31636D01*
X55259Y31661D01*
X55307Y31683D01*
X55401Y31719D01*
X55496Y31745D01*
X55536Y31752D01*
X55576Y31759D01*
X55612Y31763D01*
X55642Y31767D01*
X55667Y31770D01*
X55703D01*
X55769Y31767D01*
D02*
G37*
G36*
X53811D02*
X53872Y31763D01*
X53931Y31752D01*
X53985Y31741D01*
X54036Y31727D01*
X54084Y31712D01*
X54127Y31694D01*
X54167Y31676D01*
X54204Y31657D01*
X54233Y31639D01*
X54258Y31625D01*
X54280Y31610D01*
X54298Y31599D01*
X54309Y31588D01*
X54317Y31585D01*
X54320Y31581D01*
X54356Y31545D01*
X54389Y31505D01*
X54422Y31461D01*
X54448Y31417D01*
X54491Y31330D01*
X54520Y31243D01*
X54531Y31203D01*
X54542Y31163D01*
X54549Y31130D01*
X54557Y31101D01*
X54560Y31075D01*
Y31057D01*
X54564Y31046D01*
Y31042D01*
X54247Y31010D01*
X54240Y31093D01*
X54225Y31166D01*
X54204Y31232D01*
X54178Y31283D01*
X54156Y31326D01*
X54135Y31355D01*
X54120Y31374D01*
X54113Y31381D01*
X54058Y31425D01*
X54000Y31457D01*
X53938Y31483D01*
X53883Y31497D01*
X53832Y31508D01*
X53789Y31512D01*
X53774Y31516D01*
X53752D01*
X53676Y31512D01*
X53607Y31497D01*
X53549Y31475D01*
X53497Y31454D01*
X53457Y31428D01*
X53432Y31410D01*
X53414Y31395D01*
X53407Y31388D01*
X53363Y31337D01*
X53330Y31286D01*
X53305Y31235D01*
X53290Y31184D01*
X53279Y31144D01*
X53276Y31108D01*
X53272Y31086D01*
Y31082D01*
Y31079D01*
X53279Y31013D01*
X53294Y30944D01*
X53319Y30882D01*
X53345Y30824D01*
X53374Y30777D01*
X53399Y30737D01*
X53407Y30722D01*
X53414Y30711D01*
X53421Y30707D01*
Y30704D01*
X53450Y30664D01*
X53487Y30624D01*
X53527Y30580D01*
X53570Y30536D01*
X53661Y30449D01*
X53752Y30362D01*
X53800Y30322D01*
X53840Y30285D01*
X53880Y30253D01*
X53913Y30223D01*
X53938Y30202D01*
X53960Y30183D01*
X53974Y30172D01*
X53978Y30169D01*
X54069Y30092D01*
X54153Y30020D01*
X54222Y29954D01*
X54277Y29899D01*
X54324Y29852D01*
X54356Y29819D01*
X54375Y29798D01*
X54382Y29794D01*
Y29790D01*
X54433Y29728D01*
X54473Y29670D01*
X54509Y29612D01*
X54539Y29561D01*
X54560Y29517D01*
X54575Y29484D01*
X54582Y29463D01*
X54586Y29459D01*
Y29455D01*
X54600Y29415D01*
X54608Y29379D01*
X54615Y29342D01*
X54619Y29310D01*
X54622Y29281D01*
Y29259D01*
Y29244D01*
Y29241D01*
X52952D01*
Y29539D01*
X54193D01*
X54149Y29601D01*
X54127Y29626D01*
X54109Y29652D01*
X54091Y29674D01*
X54076Y29688D01*
X54065Y29699D01*
X54062Y29703D01*
X54044Y29721D01*
X54022Y29739D01*
X53971Y29787D01*
X53913Y29841D01*
X53851Y29896D01*
X53792Y29943D01*
X53767Y29965D01*
X53745Y29987D01*
X53727Y30001D01*
X53712Y30012D01*
X53705Y30020D01*
X53701Y30023D01*
X53643Y30074D01*
X53585Y30121D01*
X53534Y30169D01*
X53487Y30209D01*
X53443Y30249D01*
X53407Y30285D01*
X53370Y30318D01*
X53341Y30347D01*
X53312Y30376D01*
X53290Y30398D01*
X53272Y30416D01*
X53254Y30435D01*
X53235Y30456D01*
X53228Y30464D01*
X53177Y30525D01*
X53133Y30580D01*
X53097Y30635D01*
X53068Y30678D01*
X53046Y30718D01*
X53032Y30748D01*
X53024Y30766D01*
X53021Y30773D01*
X52999Y30828D01*
X52984Y30882D01*
X52970Y30933D01*
X52962Y30977D01*
X52959Y31017D01*
X52955Y31046D01*
Y31064D01*
Y31071D01*
X52959Y31126D01*
X52966Y31177D01*
X52973Y31228D01*
X52988Y31272D01*
X53024Y31359D01*
X53061Y31428D01*
X53083Y31461D01*
X53101Y31486D01*
X53119Y31512D01*
X53137Y31530D01*
X53152Y31545D01*
X53159Y31559D01*
X53166Y31563D01*
X53170Y31567D01*
X53210Y31603D01*
X53254Y31636D01*
X53301Y31661D01*
X53348Y31683D01*
X53443Y31719D01*
X53537Y31745D01*
X53578Y31752D01*
X53618Y31759D01*
X53654Y31763D01*
X53683Y31767D01*
X53709Y31770D01*
X53745D01*
X53811Y31767D01*
D02*
G37*
G36*
X57982Y31796D02*
X58099Y31778D01*
X58200Y31756D01*
X58248Y31741D01*
X58291Y31727D01*
X58331Y31712D01*
X58368Y31698D01*
X58397Y31687D01*
X58426Y31676D01*
X58444Y31665D01*
X58459Y31657D01*
X58470Y31654D01*
X58473Y31650D01*
X58572Y31588D01*
X58655Y31516D01*
X58728Y31443D01*
X58790Y31370D01*
X58837Y31304D01*
X58856Y31275D01*
X58870Y31250D01*
X58885Y31232D01*
X58892Y31217D01*
X58896Y31206D01*
X58899Y31203D01*
X58950Y31090D01*
X58987Y30973D01*
X59012Y30857D01*
X59030Y30751D01*
X59038Y30704D01*
X59041Y30656D01*
X59045Y30620D01*
Y30584D01*
X59048Y30558D01*
Y30536D01*
Y30522D01*
Y30518D01*
X59041Y30387D01*
X59027Y30260D01*
X59009Y30147D01*
X58994Y30092D01*
X58983Y30045D01*
X58972Y30001D01*
X58957Y29961D01*
X58947Y29925D01*
X58939Y29896D01*
X58928Y29874D01*
X58925Y29856D01*
X58917Y29845D01*
Y29841D01*
X58863Y29732D01*
X58801Y29634D01*
X58736Y29550D01*
X58703Y29517D01*
X58674Y29484D01*
X58644Y29455D01*
X58615Y29430D01*
X58590Y29408D01*
X58568Y29393D01*
X58553Y29379D01*
X58539Y29368D01*
X58532Y29364D01*
X58528Y29361D01*
X58477Y29332D01*
X58426Y29306D01*
X58317Y29266D01*
X58208Y29237D01*
X58102Y29219D01*
X58051Y29211D01*
X58008Y29204D01*
X57967Y29201D01*
X57935D01*
X57906Y29197D01*
X57866D01*
X57793Y29201D01*
X57723Y29208D01*
X57658Y29215D01*
X57596Y29230D01*
X57538Y29248D01*
X57483Y29266D01*
X57432Y29284D01*
X57385Y29306D01*
X57345Y29324D01*
X57305Y29342D01*
X57276Y29361D01*
X57247Y29379D01*
X57228Y29393D01*
X57210Y29401D01*
X57203Y29408D01*
X57199Y29412D01*
X57148Y29455D01*
X57105Y29499D01*
X57065Y29550D01*
X57025Y29601D01*
X56959Y29703D01*
X56908Y29805D01*
X56886Y29852D01*
X56868Y29896D01*
X56854Y29936D01*
X56843Y29969D01*
X56832Y29998D01*
X56824Y30020D01*
X56821Y30034D01*
Y30038D01*
X57156Y30121D01*
X57170Y30063D01*
X57188Y30009D01*
X57207Y29958D01*
X57225Y29910D01*
X57247Y29867D01*
X57269Y29830D01*
X57294Y29794D01*
X57316Y29761D01*
X57334Y29732D01*
X57356Y29710D01*
X57374Y29688D01*
X57389Y29670D01*
X57403Y29659D01*
X57414Y29648D01*
X57418Y29645D01*
X57421Y29641D01*
X57458Y29612D01*
X57498Y29590D01*
X57578Y29550D01*
X57654Y29521D01*
X57731Y29503D01*
X57796Y29488D01*
X57822Y29484D01*
X57847D01*
X57869Y29481D01*
X57895D01*
X57978Y29484D01*
X58058Y29499D01*
X58131Y29517D01*
X58197Y29539D01*
X58248Y29561D01*
X58270Y29572D01*
X58288Y29579D01*
X58302Y29586D01*
X58313Y29594D01*
X58320Y29597D01*
X58324D01*
X58393Y29648D01*
X58451Y29703D01*
X58503Y29765D01*
X58543Y29823D01*
X58575Y29874D01*
X58597Y29918D01*
X58604Y29936D01*
X58612Y29947D01*
X58615Y29954D01*
Y29958D01*
X58644Y30052D01*
X58666Y30147D01*
X58684Y30242D01*
X58695Y30329D01*
X58699Y30369D01*
X58703Y30405D01*
Y30438D01*
X58706Y30464D01*
Y30485D01*
Y30504D01*
Y30515D01*
Y30518D01*
X58703Y30613D01*
X58695Y30700D01*
X58681Y30780D01*
X58666Y30853D01*
X58655Y30915D01*
X58648Y30940D01*
X58641Y30962D01*
X58637Y30981D01*
X58634Y30991D01*
X58630Y30999D01*
Y31002D01*
X58593Y31086D01*
X58553Y31163D01*
X58510Y31224D01*
X58463Y31279D01*
X58422Y31323D01*
X58390Y31352D01*
X58364Y31370D01*
X58360Y31377D01*
X58357D01*
X58280Y31425D01*
X58197Y31461D01*
X58117Y31486D01*
X58040Y31501D01*
X57971Y31512D01*
X57942Y31516D01*
X57916D01*
X57898Y31519D01*
X57869D01*
X57778Y31516D01*
X57694Y31501D01*
X57625Y31479D01*
X57563Y31457D01*
X57516Y31432D01*
X57480Y31414D01*
X57458Y31399D01*
X57450Y31392D01*
X57392Y31337D01*
X57338Y31275D01*
X57294Y31210D01*
X57258Y31144D01*
X57228Y31086D01*
X57218Y31057D01*
X57210Y31035D01*
X57203Y31017D01*
X57196Y31002D01*
X57192Y30995D01*
Y30991D01*
X56865Y31068D01*
X56886Y31133D01*
X56908Y31192D01*
X56937Y31246D01*
X56963Y31301D01*
X56992Y31348D01*
X57025Y31392D01*
X57054Y31435D01*
X57083Y31472D01*
X57112Y31501D01*
X57138Y31530D01*
X57163Y31556D01*
X57181Y31574D01*
X57199Y31592D01*
X57214Y31603D01*
X57221Y31607D01*
X57225Y31610D01*
X57276Y31643D01*
X57327Y31676D01*
X57378Y31701D01*
X57432Y31723D01*
X57542Y31756D01*
X57640Y31778D01*
X57687Y31789D01*
X57727Y31792D01*
X57767Y31796D01*
X57800Y31800D01*
X57825Y31803D01*
X57862D01*
X57982Y31796D01*
D02*
G37*
G36*
X40621Y107209D02*
X40661Y107150D01*
X40709Y107092D01*
X40753Y107041D01*
X40796Y106997D01*
X40829Y106961D01*
X40843Y106950D01*
X40854Y106939D01*
X40858Y106936D01*
X40862Y106932D01*
X40938Y106870D01*
X41015Y106812D01*
X41087Y106761D01*
X41160Y106721D01*
X41222Y106684D01*
X41247Y106670D01*
X41269Y106659D01*
X41288Y106648D01*
X41302Y106644D01*
X41309Y106637D01*
X41313D01*
Y106339D01*
X41258Y106360D01*
X41204Y106386D01*
X41149Y106411D01*
X41098Y106437D01*
X41055Y106459D01*
X41018Y106477D01*
X40996Y106491D01*
X40993Y106495D01*
X40989D01*
X40924Y106535D01*
X40865Y106575D01*
X40814Y106612D01*
X40774Y106644D01*
X40738Y106670D01*
X40716Y106692D01*
X40698Y106706D01*
X40694Y106710D01*
Y104741D01*
X40385D01*
Y107270D01*
X40585D01*
X40621Y107209D01*
D02*
G37*
G36*
X38772Y107267D02*
X38842Y107259D01*
X38907Y107245D01*
X38969Y107227D01*
X39024Y107201D01*
X39078Y107179D01*
X39125Y107150D01*
X39169Y107125D01*
X39206Y107099D01*
X39242Y107070D01*
X39271Y107048D01*
X39293Y107027D01*
X39311Y107005D01*
X39326Y106990D01*
X39333Y106983D01*
X39336Y106979D01*
X39384Y106914D01*
X39424Y106837D01*
X39460Y106757D01*
X39493Y106673D01*
X39518Y106586D01*
X39540Y106499D01*
X39559Y106408D01*
X39573Y106324D01*
X39584Y106240D01*
X39591Y106164D01*
X39599Y106095D01*
X39602Y106036D01*
Y105985D01*
X39606Y105949D01*
Y105935D01*
Y105924D01*
Y105920D01*
Y105916D01*
X39602Y105800D01*
X39595Y105691D01*
X39584Y105589D01*
X39566Y105494D01*
X39548Y105410D01*
X39529Y105334D01*
X39508Y105265D01*
X39482Y105203D01*
X39460Y105152D01*
X39438Y105105D01*
X39420Y105068D01*
X39398Y105035D01*
X39384Y105010D01*
X39373Y104995D01*
X39366Y104984D01*
X39362Y104981D01*
X39315Y104930D01*
X39264Y104886D01*
X39213Y104850D01*
X39162Y104817D01*
X39107Y104788D01*
X39056Y104766D01*
X39005Y104748D01*
X38954Y104733D01*
X38911Y104722D01*
X38867Y104711D01*
X38831Y104704D01*
X38798Y104701D01*
X38769D01*
X38750Y104697D01*
X38732D01*
X38649Y104701D01*
X38572Y104715D01*
X38503Y104730D01*
X38441Y104752D01*
X38394Y104770D01*
X38357Y104788D01*
X38343Y104791D01*
X38332Y104799D01*
X38328Y104802D01*
X38325D01*
X38263Y104846D01*
X38205Y104897D01*
X38157Y104948D01*
X38117Y104999D01*
X38084Y105046D01*
X38063Y105083D01*
X38055Y105097D01*
X38048Y105108D01*
X38044Y105112D01*
Y105115D01*
X38008Y105192D01*
X37982Y105272D01*
X37964Y105345D01*
X37953Y105414D01*
X37942Y105472D01*
Y105494D01*
X37939Y105516D01*
Y105534D01*
Y105545D01*
Y105552D01*
Y105556D01*
X37942Y105621D01*
X37950Y105683D01*
X37961Y105745D01*
X37971Y105800D01*
X37990Y105851D01*
X38008Y105902D01*
X38026Y105945D01*
X38048Y105985D01*
X38070Y106022D01*
X38088Y106055D01*
X38106Y106080D01*
X38124Y106106D01*
X38135Y106124D01*
X38146Y106135D01*
X38153Y106142D01*
X38157Y106146D01*
X38197Y106186D01*
X38241Y106222D01*
X38288Y106251D01*
X38332Y106277D01*
X38376Y106302D01*
X38419Y106320D01*
X38503Y106346D01*
X38539Y106357D01*
X38576Y106364D01*
X38605Y106368D01*
X38634Y106371D01*
X38656Y106375D01*
X38685D01*
X38750Y106371D01*
X38812Y106360D01*
X38871Y106349D01*
X38922Y106335D01*
X38965Y106317D01*
X38998Y106306D01*
X39020Y106295D01*
X39024Y106291D01*
X39027D01*
X39085Y106255D01*
X39136Y106215D01*
X39184Y106175D01*
X39220Y106131D01*
X39253Y106095D01*
X39278Y106065D01*
X39293Y106044D01*
X39296Y106040D01*
Y106106D01*
X39293Y106171D01*
X39289Y106229D01*
X39282Y106288D01*
X39278Y106339D01*
X39271Y106386D01*
X39264Y106430D01*
X39253Y106470D01*
X39246Y106506D01*
X39238Y106535D01*
X39231Y106561D01*
X39227Y106582D01*
X39220Y106597D01*
X39216Y106608D01*
X39213Y106615D01*
Y106619D01*
X39176Y106692D01*
X39140Y106757D01*
X39100Y106808D01*
X39064Y106852D01*
X39031Y106888D01*
X39005Y106914D01*
X38987Y106928D01*
X38980Y106932D01*
X38936Y106961D01*
X38892Y106979D01*
X38849Y106994D01*
X38805Y107005D01*
X38772Y107012D01*
X38743Y107016D01*
X38718D01*
X38652Y107008D01*
X38590Y106994D01*
X38539Y106972D01*
X38492Y106950D01*
X38456Y106925D01*
X38430Y106903D01*
X38416Y106888D01*
X38408Y106881D01*
X38383Y106848D01*
X38357Y106808D01*
X38335Y106764D01*
X38321Y106721D01*
X38306Y106681D01*
X38296Y106648D01*
X38292Y106626D01*
X38288Y106622D01*
Y106619D01*
X37979Y106644D01*
X38001Y106746D01*
X38033Y106837D01*
X38070Y106917D01*
X38110Y106983D01*
X38150Y107034D01*
X38164Y107056D01*
X38183Y107074D01*
X38194Y107085D01*
X38205Y107096D01*
X38208Y107099D01*
X38212Y107103D01*
X38248Y107132D01*
X38288Y107158D01*
X38368Y107201D01*
X38448Y107230D01*
X38525Y107248D01*
X38594Y107263D01*
X38623Y107267D01*
X38649D01*
X38670Y107270D01*
X38699D01*
X38772Y107267D01*
D02*
G37*
G36*
X42995Y107296D02*
X43111Y107278D01*
X43213Y107256D01*
X43260Y107241D01*
X43304Y107227D01*
X43344Y107212D01*
X43381Y107198D01*
X43410Y107187D01*
X43439Y107176D01*
X43457Y107165D01*
X43472Y107158D01*
X43483Y107154D01*
X43486Y107150D01*
X43584Y107088D01*
X43668Y107016D01*
X43741Y106943D01*
X43803Y106870D01*
X43850Y106804D01*
X43868Y106775D01*
X43883Y106750D01*
X43897Y106732D01*
X43905Y106717D01*
X43908Y106706D01*
X43912Y106702D01*
X43963Y106590D01*
X43999Y106473D01*
X44025Y106357D01*
X44043Y106251D01*
X44050Y106204D01*
X44054Y106157D01*
X44058Y106120D01*
Y106084D01*
X44061Y106058D01*
Y106036D01*
Y106022D01*
Y106018D01*
X44054Y105887D01*
X44039Y105760D01*
X44021Y105647D01*
X44007Y105592D01*
X43996Y105545D01*
X43985Y105501D01*
X43970Y105461D01*
X43959Y105425D01*
X43952Y105396D01*
X43941Y105374D01*
X43938Y105356D01*
X43930Y105345D01*
Y105341D01*
X43876Y105232D01*
X43814Y105134D01*
X43748Y105050D01*
X43715Y105017D01*
X43686Y104984D01*
X43657Y104955D01*
X43628Y104930D01*
X43603Y104908D01*
X43581Y104893D01*
X43566Y104879D01*
X43552Y104868D01*
X43544Y104864D01*
X43541Y104861D01*
X43490Y104832D01*
X43439Y104806D01*
X43330Y104766D01*
X43220Y104737D01*
X43115Y104719D01*
X43064Y104711D01*
X43020Y104704D01*
X42980Y104701D01*
X42947D01*
X42918Y104697D01*
X42878D01*
X42805Y104701D01*
X42736Y104708D01*
X42671Y104715D01*
X42609Y104730D01*
X42551Y104748D01*
X42496Y104766D01*
X42445Y104784D01*
X42398Y104806D01*
X42358Y104824D01*
X42318Y104842D01*
X42289Y104861D01*
X42259Y104879D01*
X42241Y104893D01*
X42223Y104901D01*
X42216Y104908D01*
X42212Y104912D01*
X42161Y104955D01*
X42118Y104999D01*
X42077Y105050D01*
X42037Y105101D01*
X41972Y105203D01*
X41921Y105305D01*
X41899Y105352D01*
X41881Y105396D01*
X41866Y105436D01*
X41855Y105469D01*
X41844Y105498D01*
X41837Y105519D01*
X41834Y105534D01*
Y105538D01*
X42168Y105621D01*
X42183Y105563D01*
X42201Y105509D01*
X42219Y105458D01*
X42238Y105410D01*
X42259Y105367D01*
X42281Y105330D01*
X42307Y105294D01*
X42329Y105261D01*
X42347Y105232D01*
X42369Y105210D01*
X42387Y105188D01*
X42401Y105170D01*
X42416Y105159D01*
X42427Y105148D01*
X42430Y105145D01*
X42434Y105141D01*
X42471Y105112D01*
X42511Y105090D01*
X42591Y105050D01*
X42667Y105021D01*
X42744Y105003D01*
X42809Y104988D01*
X42835Y104984D01*
X42860D01*
X42882Y104981D01*
X42907D01*
X42991Y104984D01*
X43071Y104999D01*
X43144Y105017D01*
X43209Y105039D01*
X43260Y105061D01*
X43282Y105072D01*
X43301Y105079D01*
X43315Y105086D01*
X43326Y105094D01*
X43333Y105097D01*
X43337D01*
X43406Y105148D01*
X43464Y105203D01*
X43515Y105265D01*
X43555Y105323D01*
X43588Y105374D01*
X43610Y105418D01*
X43617Y105436D01*
X43624Y105447D01*
X43628Y105454D01*
Y105458D01*
X43657Y105552D01*
X43679Y105647D01*
X43697Y105742D01*
X43708Y105829D01*
X43712Y105869D01*
X43715Y105905D01*
Y105938D01*
X43719Y105964D01*
Y105985D01*
Y106004D01*
Y106015D01*
Y106018D01*
X43715Y106113D01*
X43708Y106200D01*
X43694Y106280D01*
X43679Y106353D01*
X43668Y106415D01*
X43661Y106440D01*
X43654Y106462D01*
X43650Y106481D01*
X43646Y106491D01*
X43643Y106499D01*
Y106502D01*
X43606Y106586D01*
X43566Y106662D01*
X43523Y106724D01*
X43475Y106779D01*
X43435Y106823D01*
X43402Y106852D01*
X43377Y106870D01*
X43373Y106877D01*
X43370D01*
X43293Y106925D01*
X43209Y106961D01*
X43129Y106986D01*
X43053Y107001D01*
X42984Y107012D01*
X42955Y107016D01*
X42929D01*
X42911Y107019D01*
X42882D01*
X42791Y107016D01*
X42707Y107001D01*
X42638Y106979D01*
X42576Y106957D01*
X42529Y106932D01*
X42492Y106914D01*
X42471Y106899D01*
X42463Y106892D01*
X42405Y106837D01*
X42350Y106775D01*
X42307Y106710D01*
X42270Y106644D01*
X42241Y106586D01*
X42230Y106557D01*
X42223Y106535D01*
X42216Y106517D01*
X42208Y106502D01*
X42205Y106495D01*
Y106491D01*
X41877Y106568D01*
X41899Y106633D01*
X41921Y106692D01*
X41950Y106746D01*
X41976Y106801D01*
X42005Y106848D01*
X42037Y106892D01*
X42066Y106936D01*
X42096Y106972D01*
X42125Y107001D01*
X42150Y107030D01*
X42176Y107056D01*
X42194Y107074D01*
X42212Y107092D01*
X42227Y107103D01*
X42234Y107107D01*
X42238Y107110D01*
X42289Y107143D01*
X42340Y107176D01*
X42390Y107201D01*
X42445Y107223D01*
X42554Y107256D01*
X42653Y107278D01*
X42700Y107289D01*
X42740Y107292D01*
X42780Y107296D01*
X42813Y107299D01*
X42838Y107303D01*
X42875D01*
X42995Y107296D01*
D02*
G37*
G36*
X46630Y43209D02*
X46671Y43150D01*
X46718Y43092D01*
X46762Y43041D01*
X46805Y42997D01*
X46838Y42961D01*
X46853Y42950D01*
X46863Y42939D01*
X46867Y42935D01*
X46871Y42932D01*
X46947Y42870D01*
X47024Y42812D01*
X47096Y42761D01*
X47169Y42721D01*
X47231Y42684D01*
X47257Y42670D01*
X47278Y42659D01*
X47297Y42648D01*
X47311Y42644D01*
X47319Y42637D01*
X47322D01*
Y42338D01*
X47267Y42360D01*
X47213Y42386D01*
X47158Y42411D01*
X47107Y42437D01*
X47064Y42459D01*
X47027Y42477D01*
X47006Y42491D01*
X47002Y42495D01*
X46998D01*
X46933Y42535D01*
X46874Y42575D01*
X46823Y42612D01*
X46783Y42644D01*
X46747Y42670D01*
X46725Y42692D01*
X46707Y42706D01*
X46703Y42710D01*
Y40741D01*
X46394D01*
Y43270D01*
X46594D01*
X46630Y43209D01*
D02*
G37*
G36*
X45546Y41931D02*
X45255Y41891D01*
X45229Y41931D01*
X45196Y41964D01*
X45167Y41996D01*
X45138Y42022D01*
X45109Y42040D01*
X45087Y42058D01*
X45073Y42066D01*
X45069Y42069D01*
X45022Y42091D01*
X44974Y42109D01*
X44931Y42120D01*
X44887Y42131D01*
X44851Y42135D01*
X44822Y42138D01*
X44752D01*
X44709Y42131D01*
X44632Y42113D01*
X44567Y42087D01*
X44508Y42062D01*
X44465Y42033D01*
X44432Y42007D01*
X44414Y41989D01*
X44407Y41985D01*
Y41982D01*
X44355Y41920D01*
X44319Y41854D01*
X44294Y41785D01*
X44276Y41716D01*
X44265Y41658D01*
X44261Y41632D01*
Y41611D01*
X44257Y41592D01*
Y41578D01*
Y41570D01*
Y41567D01*
Y41516D01*
X44265Y41469D01*
X44283Y41378D01*
X44308Y41301D01*
X44334Y41239D01*
X44363Y41188D01*
X44388Y41148D01*
X44399Y41137D01*
X44407Y41126D01*
X44410Y41123D01*
X44414Y41119D01*
X44443Y41090D01*
X44472Y41065D01*
X44537Y41021D01*
X44599Y40992D01*
X44661Y40973D01*
X44712Y40959D01*
X44756Y40955D01*
X44771Y40952D01*
X44792D01*
X44862Y40955D01*
X44923Y40970D01*
X44978Y40988D01*
X45022Y41010D01*
X45062Y41032D01*
X45091Y41050D01*
X45105Y41065D01*
X45113Y41068D01*
X45156Y41119D01*
X45193Y41174D01*
X45222Y41236D01*
X45244Y41290D01*
X45258Y41345D01*
X45269Y41385D01*
X45273Y41403D01*
X45276Y41414D01*
Y41421D01*
Y41425D01*
X45600Y41399D01*
X45593Y41341D01*
X45582Y41287D01*
X45549Y41185D01*
X45509Y41097D01*
X45488Y41057D01*
X45466Y41025D01*
X45447Y40992D01*
X45426Y40963D01*
X45408Y40941D01*
X45389Y40923D01*
X45375Y40908D01*
X45368Y40893D01*
X45360Y40890D01*
X45357Y40886D01*
X45313Y40853D01*
X45269Y40824D01*
X45222Y40799D01*
X45175Y40777D01*
X45083Y40744D01*
X44993Y40722D01*
X44952Y40711D01*
X44912Y40708D01*
X44880Y40704D01*
X44851Y40701D01*
X44825Y40697D01*
X44792D01*
X44716Y40701D01*
X44643Y40711D01*
X44574Y40726D01*
X44512Y40744D01*
X44454Y40770D01*
X44399Y40795D01*
X44348Y40821D01*
X44305Y40850D01*
X44265Y40879D01*
X44228Y40904D01*
X44199Y40933D01*
X44173Y40955D01*
X44155Y40973D01*
X44141Y40988D01*
X44133Y40999D01*
X44130Y41003D01*
X44093Y41050D01*
X44064Y41101D01*
X44035Y41148D01*
X44013Y41199D01*
X43977Y41298D01*
X43955Y41392D01*
X43948Y41432D01*
X43941Y41472D01*
X43937Y41505D01*
X43933Y41534D01*
X43930Y41560D01*
Y41578D01*
Y41589D01*
Y41592D01*
X43933Y41658D01*
X43941Y41720D01*
X43951Y41782D01*
X43966Y41836D01*
X43984Y41887D01*
X44003Y41938D01*
X44024Y41982D01*
X44043Y42022D01*
X44064Y42058D01*
X44086Y42091D01*
X44104Y42116D01*
X44123Y42142D01*
X44137Y42160D01*
X44148Y42171D01*
X44155Y42178D01*
X44159Y42182D01*
X44203Y42222D01*
X44246Y42258D01*
X44294Y42288D01*
X44341Y42313D01*
X44388Y42338D01*
X44436Y42357D01*
X44523Y42382D01*
X44563Y42393D01*
X44599Y42400D01*
X44632Y42404D01*
X44661Y42408D01*
X44683Y42411D01*
X44763D01*
X44807Y42404D01*
X44894Y42386D01*
X44974Y42360D01*
X45047Y42331D01*
X45105Y42302D01*
X45131Y42288D01*
X45153Y42277D01*
X45171Y42266D01*
X45182Y42258D01*
X45189Y42255D01*
X45193Y42251D01*
X45058Y42932D01*
X44050D01*
Y43227D01*
X45302D01*
X45546Y41931D01*
D02*
G37*
G36*
X49004Y43296D02*
X49120Y43278D01*
X49222Y43256D01*
X49270Y43241D01*
X49313Y43227D01*
X49353Y43212D01*
X49390Y43198D01*
X49419Y43187D01*
X49448Y43176D01*
X49466Y43165D01*
X49481Y43158D01*
X49492Y43154D01*
X49495Y43150D01*
X49593Y43088D01*
X49677Y43016D01*
X49750Y42943D01*
X49812Y42870D01*
X49859Y42804D01*
X49877Y42775D01*
X49892Y42750D01*
X49907Y42732D01*
X49914Y42717D01*
X49918Y42706D01*
X49921Y42702D01*
X49972Y42590D01*
X50008Y42473D01*
X50034Y42357D01*
X50052Y42251D01*
X50059Y42204D01*
X50063Y42156D01*
X50067Y42120D01*
Y42084D01*
X50070Y42058D01*
Y42036D01*
Y42022D01*
Y42018D01*
X50063Y41887D01*
X50049Y41760D01*
X50030Y41647D01*
X50016Y41592D01*
X50005Y41545D01*
X49994Y41501D01*
X49979Y41461D01*
X49968Y41425D01*
X49961Y41396D01*
X49950Y41374D01*
X49947Y41356D01*
X49939Y41345D01*
Y41341D01*
X49885Y41232D01*
X49823Y41134D01*
X49757Y41050D01*
X49725Y41017D01*
X49695Y40984D01*
X49666Y40955D01*
X49637Y40930D01*
X49612Y40908D01*
X49590Y40893D01*
X49575Y40879D01*
X49561Y40868D01*
X49553Y40864D01*
X49550Y40861D01*
X49499Y40832D01*
X49448Y40806D01*
X49339Y40766D01*
X49229Y40737D01*
X49124Y40719D01*
X49073Y40711D01*
X49029Y40704D01*
X48989Y40701D01*
X48957D01*
X48927Y40697D01*
X48887D01*
X48814Y40701D01*
X48745Y40708D01*
X48680Y40715D01*
X48618Y40730D01*
X48560Y40748D01*
X48505Y40766D01*
X48454Y40784D01*
X48407Y40806D01*
X48367Y40824D01*
X48327Y40843D01*
X48298Y40861D01*
X48268Y40879D01*
X48250Y40893D01*
X48232Y40901D01*
X48225Y40908D01*
X48221Y40912D01*
X48170Y40955D01*
X48127Y40999D01*
X48087Y41050D01*
X48046Y41101D01*
X47981Y41203D01*
X47930Y41305D01*
X47908Y41352D01*
X47890Y41396D01*
X47875Y41436D01*
X47864Y41469D01*
X47854Y41498D01*
X47846Y41519D01*
X47843Y41534D01*
Y41538D01*
X48177Y41621D01*
X48192Y41563D01*
X48210Y41509D01*
X48228Y41458D01*
X48247Y41410D01*
X48268Y41367D01*
X48290Y41330D01*
X48316Y41294D01*
X48338Y41261D01*
X48356Y41232D01*
X48378Y41210D01*
X48396Y41188D01*
X48410Y41170D01*
X48425Y41159D01*
X48436Y41148D01*
X48440Y41145D01*
X48443Y41141D01*
X48480Y41112D01*
X48520Y41090D01*
X48600Y41050D01*
X48676Y41021D01*
X48753Y41003D01*
X48818Y40988D01*
X48844Y40984D01*
X48869D01*
X48891Y40981D01*
X48917D01*
X49000Y40984D01*
X49080Y40999D01*
X49153Y41017D01*
X49219Y41039D01*
X49270Y41061D01*
X49291Y41072D01*
X49310Y41079D01*
X49324Y41086D01*
X49335Y41094D01*
X49342Y41097D01*
X49346D01*
X49415Y41148D01*
X49473Y41203D01*
X49524Y41265D01*
X49564Y41323D01*
X49597Y41374D01*
X49619Y41418D01*
X49626Y41436D01*
X49633Y41447D01*
X49637Y41454D01*
Y41458D01*
X49666Y41552D01*
X49688Y41647D01*
X49706Y41742D01*
X49717Y41829D01*
X49721Y41869D01*
X49725Y41905D01*
Y41938D01*
X49728Y41964D01*
Y41985D01*
Y42004D01*
Y42015D01*
Y42018D01*
X49725Y42113D01*
X49717Y42200D01*
X49703Y42280D01*
X49688Y42353D01*
X49677Y42415D01*
X49670Y42440D01*
X49663Y42462D01*
X49659Y42480D01*
X49655Y42491D01*
X49652Y42499D01*
Y42502D01*
X49615Y42586D01*
X49575Y42663D01*
X49532Y42724D01*
X49484Y42779D01*
X49444Y42823D01*
X49411Y42852D01*
X49386Y42870D01*
X49382Y42877D01*
X49379D01*
X49302Y42925D01*
X49219Y42961D01*
X49139Y42986D01*
X49062Y43001D01*
X48993Y43012D01*
X48964Y43016D01*
X48938D01*
X48920Y43019D01*
X48891D01*
X48800Y43016D01*
X48716Y43001D01*
X48647Y42979D01*
X48585Y42957D01*
X48538Y42932D01*
X48502Y42914D01*
X48480Y42899D01*
X48472Y42892D01*
X48414Y42837D01*
X48360Y42775D01*
X48316Y42710D01*
X48280Y42644D01*
X48250Y42586D01*
X48239Y42557D01*
X48232Y42535D01*
X48225Y42517D01*
X48218Y42502D01*
X48214Y42495D01*
Y42491D01*
X47886Y42568D01*
X47908Y42633D01*
X47930Y42692D01*
X47959Y42746D01*
X47985Y42801D01*
X48014Y42848D01*
X48046Y42892D01*
X48076Y42935D01*
X48105Y42972D01*
X48134Y43001D01*
X48159Y43030D01*
X48185Y43056D01*
X48203Y43074D01*
X48221Y43092D01*
X48236Y43103D01*
X48243Y43107D01*
X48247Y43110D01*
X48298Y43143D01*
X48349Y43176D01*
X48400Y43201D01*
X48454Y43223D01*
X48563Y43256D01*
X48662Y43278D01*
X48709Y43289D01*
X48749Y43292D01*
X48789Y43296D01*
X48822Y43299D01*
X48847Y43303D01*
X48884D01*
X49004Y43296D01*
D02*
G37*
G36*
X79116Y101708D02*
X79156Y101650D01*
X79203Y101592D01*
X79247Y101541D01*
X79291Y101497D01*
X79324Y101461D01*
X79338Y101450D01*
X79349Y101439D01*
X79353Y101435D01*
X79356Y101432D01*
X79433Y101370D01*
X79509Y101312D01*
X79582Y101261D01*
X79655Y101221D01*
X79717Y101184D01*
X79742Y101170D01*
X79764Y101159D01*
X79782Y101148D01*
X79797Y101144D01*
X79804Y101137D01*
X79808D01*
Y100838D01*
X79753Y100860D01*
X79698Y100886D01*
X79644Y100911D01*
X79593Y100937D01*
X79549Y100959D01*
X79513Y100977D01*
X79491Y100991D01*
X79487Y100995D01*
X79484D01*
X79418Y101035D01*
X79360Y101075D01*
X79309Y101111D01*
X79269Y101144D01*
X79233Y101170D01*
X79211Y101192D01*
X79192Y101206D01*
X79189Y101210D01*
Y99241D01*
X78879D01*
Y101770D01*
X79080D01*
X79116Y101708D01*
D02*
G37*
G36*
X81489Y101796D02*
X81606Y101778D01*
X81708Y101756D01*
X81755Y101741D01*
X81799Y101727D01*
X81839Y101712D01*
X81875Y101698D01*
X81904Y101687D01*
X81933Y101676D01*
X81951Y101665D01*
X81966Y101657D01*
X81977Y101654D01*
X81981Y101650D01*
X82079Y101588D01*
X82163Y101516D01*
X82235Y101443D01*
X82297Y101370D01*
X82345Y101304D01*
X82363Y101275D01*
X82377Y101250D01*
X82392Y101232D01*
X82399Y101217D01*
X82403Y101206D01*
X82407Y101202D01*
X82458Y101090D01*
X82494Y100973D01*
X82519Y100857D01*
X82538Y100751D01*
X82545Y100704D01*
X82548Y100656D01*
X82552Y100620D01*
Y100584D01*
X82556Y100558D01*
Y100536D01*
Y100522D01*
Y100518D01*
X82548Y100387D01*
X82534Y100260D01*
X82516Y100147D01*
X82501Y100092D01*
X82490Y100045D01*
X82479Y100001D01*
X82465Y99961D01*
X82454Y99925D01*
X82447Y99896D01*
X82436Y99874D01*
X82432Y99856D01*
X82425Y99845D01*
Y99841D01*
X82370Y99732D01*
X82308Y99634D01*
X82243Y99550D01*
X82210Y99517D01*
X82181Y99484D01*
X82152Y99455D01*
X82123Y99430D01*
X82097Y99408D01*
X82075Y99393D01*
X82061Y99379D01*
X82046Y99368D01*
X82039Y99364D01*
X82035Y99361D01*
X81984Y99332D01*
X81933Y99306D01*
X81824Y99266D01*
X81715Y99237D01*
X81609Y99219D01*
X81558Y99211D01*
X81515Y99204D01*
X81475Y99200D01*
X81442D01*
X81413Y99197D01*
X81373D01*
X81300Y99200D01*
X81231Y99208D01*
X81165Y99215D01*
X81103Y99230D01*
X81045Y99248D01*
X80991Y99266D01*
X80940Y99284D01*
X80892Y99306D01*
X80852Y99324D01*
X80812Y99343D01*
X80783Y99361D01*
X80754Y99379D01*
X80736Y99393D01*
X80718Y99401D01*
X80710Y99408D01*
X80707Y99412D01*
X80656Y99455D01*
X80612Y99499D01*
X80572Y99550D01*
X80532Y99601D01*
X80466Y99703D01*
X80415Y99805D01*
X80394Y99852D01*
X80375Y99896D01*
X80361Y99936D01*
X80350Y99969D01*
X80339Y99998D01*
X80332Y100020D01*
X80328Y100034D01*
Y100038D01*
X80663Y100121D01*
X80677Y100063D01*
X80696Y100009D01*
X80714Y99958D01*
X80732Y99910D01*
X80754Y99867D01*
X80776Y99830D01*
X80801Y99794D01*
X80823Y99761D01*
X80841Y99732D01*
X80863Y99710D01*
X80881Y99688D01*
X80896Y99670D01*
X80910Y99659D01*
X80921Y99648D01*
X80925Y99645D01*
X80929Y99641D01*
X80965Y99612D01*
X81005Y99590D01*
X81085Y99550D01*
X81162Y99521D01*
X81238Y99503D01*
X81304Y99488D01*
X81329Y99484D01*
X81355D01*
X81376Y99481D01*
X81402D01*
X81486Y99484D01*
X81566Y99499D01*
X81638Y99517D01*
X81704Y99539D01*
X81755Y99561D01*
X81777Y99572D01*
X81795Y99579D01*
X81810Y99586D01*
X81820Y99594D01*
X81828Y99597D01*
X81831D01*
X81901Y99648D01*
X81959Y99703D01*
X82010Y99765D01*
X82050Y99823D01*
X82083Y99874D01*
X82104Y99918D01*
X82112Y99936D01*
X82119Y99947D01*
X82123Y99954D01*
Y99958D01*
X82152Y100052D01*
X82174Y100147D01*
X82192Y100242D01*
X82203Y100329D01*
X82206Y100369D01*
X82210Y100405D01*
Y100438D01*
X82214Y100464D01*
Y100485D01*
Y100504D01*
Y100515D01*
Y100518D01*
X82210Y100613D01*
X82203Y100700D01*
X82188Y100780D01*
X82174Y100853D01*
X82163Y100915D01*
X82155Y100940D01*
X82148Y100962D01*
X82144Y100980D01*
X82141Y100991D01*
X82137Y100999D01*
Y101002D01*
X82101Y101086D01*
X82061Y101163D01*
X82017Y101224D01*
X81970Y101279D01*
X81930Y101323D01*
X81897Y101352D01*
X81871Y101370D01*
X81868Y101377D01*
X81864D01*
X81788Y101425D01*
X81704Y101461D01*
X81624Y101486D01*
X81547Y101501D01*
X81478Y101512D01*
X81449Y101516D01*
X81424D01*
X81406Y101519D01*
X81376D01*
X81285Y101516D01*
X81202Y101501D01*
X81133Y101479D01*
X81071Y101457D01*
X81023Y101432D01*
X80987Y101414D01*
X80965Y101399D01*
X80958Y101392D01*
X80900Y101337D01*
X80845Y101275D01*
X80801Y101210D01*
X80765Y101144D01*
X80736Y101086D01*
X80725Y101057D01*
X80718Y101035D01*
X80710Y101017D01*
X80703Y101002D01*
X80699Y100995D01*
Y100991D01*
X80372Y101068D01*
X80394Y101133D01*
X80415Y101192D01*
X80445Y101246D01*
X80470Y101301D01*
X80499Y101348D01*
X80532Y101392D01*
X80561Y101435D01*
X80590Y101472D01*
X80619Y101501D01*
X80645Y101530D01*
X80670Y101556D01*
X80689Y101574D01*
X80707Y101592D01*
X80721Y101603D01*
X80729Y101607D01*
X80732Y101610D01*
X80783Y101643D01*
X80834Y101676D01*
X80885Y101701D01*
X80940Y101723D01*
X81049Y101756D01*
X81147Y101778D01*
X81194Y101789D01*
X81235Y101792D01*
X81274Y101796D01*
X81307Y101799D01*
X81333Y101803D01*
X81369D01*
X81489Y101796D01*
D02*
G37*
G36*
X78191Y100129D02*
Y99845D01*
X77096D01*
Y99241D01*
X76786D01*
Y99845D01*
X76444D01*
Y100129D01*
X76786D01*
Y101759D01*
X77038D01*
X78191Y100129D01*
D02*
G37*
G36*
X64429Y51203D02*
X64469Y51145D01*
X64516Y51086D01*
X64560Y51036D01*
X64603Y50992D01*
X64636Y50955D01*
X64651Y50945D01*
X64662Y50934D01*
X64665Y50930D01*
X64669Y50926D01*
X64745Y50864D01*
X64822Y50806D01*
X64894Y50755D01*
X64967Y50715D01*
X65029Y50679D01*
X65055Y50664D01*
X65076Y50653D01*
X65095Y50643D01*
X65109Y50639D01*
X65117Y50631D01*
X65120D01*
Y50333D01*
X65065Y50355D01*
X65011Y50380D01*
X64956Y50406D01*
X64905Y50431D01*
X64862Y50453D01*
X64825Y50471D01*
X64803Y50486D01*
X64800Y50490D01*
X64796D01*
X64731Y50530D01*
X64672Y50570D01*
X64621Y50606D01*
X64581Y50639D01*
X64545Y50664D01*
X64523Y50686D01*
X64505Y50701D01*
X64501Y50704D01*
Y48735D01*
X64192D01*
Y51265D01*
X64392D01*
X64429Y51203D01*
D02*
G37*
G36*
X62470D02*
X62510Y51145D01*
X62558Y51086D01*
X62601Y51036D01*
X62645Y50992D01*
X62678Y50955D01*
X62692Y50945D01*
X62703Y50934D01*
X62707Y50930D01*
X62710Y50926D01*
X62787Y50864D01*
X62863Y50806D01*
X62936Y50755D01*
X63009Y50715D01*
X63071Y50679D01*
X63096Y50664D01*
X63118Y50653D01*
X63136Y50643D01*
X63151Y50639D01*
X63158Y50631D01*
X63162D01*
Y50333D01*
X63107Y50355D01*
X63053Y50380D01*
X62998Y50406D01*
X62947Y50431D01*
X62903Y50453D01*
X62867Y50471D01*
X62845Y50486D01*
X62841Y50490D01*
X62838D01*
X62772Y50530D01*
X62714Y50570D01*
X62663Y50606D01*
X62623Y50639D01*
X62587Y50664D01*
X62565Y50686D01*
X62547Y50701D01*
X62543Y50704D01*
Y48735D01*
X62234D01*
Y51265D01*
X62434D01*
X62470Y51203D01*
D02*
G37*
G36*
X67766Y48735D02*
X67431D01*
Y49853D01*
X67002D01*
X66962Y49849D01*
X66933D01*
X66907Y49845D01*
X66889Y49842D01*
X66875D01*
X66867Y49838D01*
X66864D01*
X66805Y49820D01*
X66780Y49809D01*
X66758Y49798D01*
X66736Y49787D01*
X66722Y49780D01*
X66714Y49776D01*
X66711Y49773D01*
X66682Y49751D01*
X66653Y49725D01*
X66598Y49671D01*
X66572Y49645D01*
X66554Y49623D01*
X66543Y49609D01*
X66540Y49605D01*
X66503Y49554D01*
X66463Y49499D01*
X66423Y49441D01*
X66383Y49387D01*
X66350Y49336D01*
X66325Y49296D01*
X66314Y49281D01*
X66307Y49270D01*
X66299Y49263D01*
Y49259D01*
X65968Y48735D01*
X65553D01*
X65986Y49419D01*
X66037Y49492D01*
X66085Y49558D01*
X66132Y49612D01*
X66172Y49663D01*
X66208Y49700D01*
X66238Y49729D01*
X66256Y49747D01*
X66263Y49754D01*
X66292Y49776D01*
X66325Y49802D01*
X66391Y49842D01*
X66420Y49856D01*
X66441Y49871D01*
X66456Y49878D01*
X66463Y49882D01*
X66398Y49893D01*
X66336Y49904D01*
X66281Y49922D01*
X66227Y49936D01*
X66179Y49955D01*
X66136Y49976D01*
X66096Y49995D01*
X66059Y50013D01*
X66030Y50035D01*
X66001Y50053D01*
X65979Y50067D01*
X65961Y50082D01*
X65946Y50093D01*
X65935Y50104D01*
X65932Y50107D01*
X65928Y50111D01*
X65899Y50147D01*
X65870Y50184D01*
X65826Y50260D01*
X65797Y50337D01*
X65775Y50410D01*
X65761Y50471D01*
X65757Y50497D01*
Y50522D01*
X65754Y50541D01*
Y50555D01*
Y50562D01*
Y50566D01*
X65757Y50643D01*
X65768Y50712D01*
X65786Y50777D01*
X65804Y50832D01*
X65826Y50879D01*
X65841Y50915D01*
X65855Y50937D01*
X65859Y50941D01*
Y50945D01*
X65903Y51003D01*
X65946Y51054D01*
X65994Y51098D01*
X66037Y51130D01*
X66077Y51156D01*
X66110Y51170D01*
X66132Y51181D01*
X66136Y51185D01*
X66139D01*
X66172Y51196D01*
X66212Y51207D01*
X66292Y51225D01*
X66380Y51236D01*
X66460Y51247D01*
X66536Y51250D01*
X66569D01*
X66598Y51254D01*
X67766D01*
Y48735D01*
D02*
G37*
%LPC*%
G36*
X36191Y43479D02*
X35397D01*
X35299Y43475D01*
X35215Y43461D01*
X35142Y43443D01*
X35088Y43421D01*
X35041Y43399D01*
X35011Y43381D01*
X34993Y43366D01*
X34986Y43363D01*
X34942Y43315D01*
X34909Y43268D01*
X34888Y43217D01*
X34870Y43173D01*
X34862Y43130D01*
X34859Y43097D01*
X34855Y43075D01*
Y43071D01*
Y43068D01*
X34859Y43024D01*
X34866Y42981D01*
X34877Y42944D01*
X34888Y42911D01*
X34902Y42882D01*
X34913Y42860D01*
X34920Y42846D01*
X34924Y42842D01*
X34949Y42806D01*
X34982Y42773D01*
X35015Y42748D01*
X35048Y42726D01*
X35077Y42711D01*
X35099Y42700D01*
X35113Y42693D01*
X35121Y42689D01*
X35172Y42675D01*
X35230Y42664D01*
X35288Y42656D01*
X35346Y42653D01*
X35397Y42649D01*
X35441Y42646D01*
X36191D01*
Y43479D01*
D02*
G37*
G36*
X33126Y43257D02*
Y42129D01*
X33919D01*
X33126Y43257D01*
D02*
G37*
G36*
X81452Y35974D02*
X80659D01*
X80561Y35970D01*
X80477Y35956D01*
X80404Y35937D01*
X80349Y35915D01*
X80302Y35894D01*
X80273Y35875D01*
X80255Y35861D01*
X80247Y35857D01*
X80204Y35810D01*
X80171Y35763D01*
X80149Y35712D01*
X80131Y35668D01*
X80124Y35624D01*
X80120Y35592D01*
X80116Y35570D01*
Y35566D01*
Y35562D01*
X80120Y35519D01*
X80127Y35475D01*
X80138Y35439D01*
X80149Y35406D01*
X80164Y35377D01*
X80175Y35355D01*
X80182Y35340D01*
X80186Y35337D01*
X80211Y35300D01*
X80244Y35267D01*
X80277Y35242D01*
X80309Y35220D01*
X80339Y35206D01*
X80360Y35195D01*
X80375Y35188D01*
X80382Y35184D01*
X80433Y35169D01*
X80491Y35158D01*
X80550Y35151D01*
X80608Y35147D01*
X80659Y35144D01*
X80703Y35140D01*
X81452D01*
Y35974D01*
D02*
G37*
G36*
X76315Y43532D02*
X76257D01*
X76221Y43525D01*
X76155Y43507D01*
X76097Y43481D01*
X76046Y43455D01*
X76006Y43426D01*
X75977Y43401D01*
X75959Y43383D01*
X75951Y43379D01*
Y43375D01*
X75904Y43314D01*
X75867Y43244D01*
X75842Y43172D01*
X75827Y43102D01*
X75817Y43044D01*
X75813Y43019D01*
Y42993D01*
X75809Y42975D01*
Y42961D01*
Y42953D01*
Y42950D01*
X75817Y42855D01*
X75831Y42771D01*
X75853Y42702D01*
X75878Y42644D01*
X75907Y42597D01*
X75929Y42564D01*
X75944Y42542D01*
X75951Y42535D01*
X76006Y42484D01*
X76064Y42447D01*
X76122Y42422D01*
X76180Y42404D01*
X76228Y42393D01*
X76268Y42389D01*
X76282Y42385D01*
X76304D01*
X76381Y42393D01*
X76450Y42407D01*
X76512Y42433D01*
X76566Y42462D01*
X76606Y42487D01*
X76639Y42513D01*
X76657Y42527D01*
X76665Y42535D01*
X76712Y42593D01*
X76748Y42658D01*
X76770Y42724D01*
X76788Y42786D01*
X76799Y42840D01*
X76803Y42862D01*
Y42884D01*
X76807Y42902D01*
Y42913D01*
Y42920D01*
Y42924D01*
X76799Y43019D01*
X76785Y43106D01*
X76759Y43183D01*
X76730Y43244D01*
X76705Y43295D01*
X76679Y43332D01*
X76672Y43343D01*
X76665Y43354D01*
X76657Y43357D01*
Y43361D01*
X76628Y43390D01*
X76599Y43419D01*
X76537Y43459D01*
X76475Y43492D01*
X76417Y43510D01*
X76370Y43525D01*
X76330Y43528D01*
X76315Y43532D01*
D02*
G37*
G36*
X79198Y43496D02*
X78404D01*
X78306Y43492D01*
X78223Y43477D01*
X78150Y43459D01*
X78095Y43437D01*
X78048Y43415D01*
X78019Y43397D01*
X78000Y43383D01*
X77993Y43379D01*
X77950Y43332D01*
X77917Y43284D01*
X77895Y43233D01*
X77877Y43190D01*
X77869Y43146D01*
X77866Y43113D01*
X77862Y43091D01*
Y43088D01*
Y43084D01*
X77866Y43040D01*
X77873Y42997D01*
X77884Y42961D01*
X77895Y42928D01*
X77909Y42899D01*
X77920Y42877D01*
X77928Y42862D01*
X77931Y42858D01*
X77957Y42822D01*
X77990Y42789D01*
X78022Y42764D01*
X78055Y42742D01*
X78084Y42728D01*
X78106Y42717D01*
X78121Y42709D01*
X78128Y42706D01*
X78179Y42691D01*
X78237Y42680D01*
X78295Y42673D01*
X78354Y42669D01*
X78404Y42666D01*
X78448Y42662D01*
X79198D01*
Y43496D01*
D02*
G37*
G36*
X17482Y59757D02*
Y58629D01*
X18276D01*
X17482Y59757D01*
D02*
G37*
G36*
X71285Y19016D02*
X71227D01*
X71190Y19008D01*
X71125Y18990D01*
X71067Y18965D01*
X71016Y18939D01*
X70976Y18910D01*
X70947Y18884D01*
X70928Y18866D01*
X70921Y18863D01*
Y18859D01*
X70874Y18797D01*
X70837Y18728D01*
X70812Y18655D01*
X70797Y18586D01*
X70786Y18528D01*
X70783Y18502D01*
Y18477D01*
X70779Y18459D01*
Y18444D01*
Y18437D01*
Y18433D01*
X70786Y18338D01*
X70801Y18255D01*
X70823Y18186D01*
X70848Y18127D01*
X70877Y18080D01*
X70899Y18047D01*
X70914Y18025D01*
X70921Y18018D01*
X70976Y17967D01*
X71034Y17931D01*
X71092Y17905D01*
X71150Y17887D01*
X71198Y17876D01*
X71238Y17873D01*
X71252Y17869D01*
X71274D01*
X71351Y17876D01*
X71420Y17891D01*
X71482Y17916D01*
X71536Y17945D01*
X71576Y17971D01*
X71609Y17996D01*
X71627Y18011D01*
X71635Y18018D01*
X71682Y18076D01*
X71718Y18142D01*
X71740Y18207D01*
X71758Y18269D01*
X71769Y18324D01*
X71773Y18346D01*
Y18368D01*
X71776Y18386D01*
Y18397D01*
Y18404D01*
Y18408D01*
X71769Y18502D01*
X71755Y18590D01*
X71729Y18666D01*
X71700Y18728D01*
X71675Y18779D01*
X71649Y18815D01*
X71642Y18826D01*
X71635Y18837D01*
X71627Y18841D01*
Y18845D01*
X71598Y18874D01*
X71569Y18903D01*
X71507Y18943D01*
X71445Y18975D01*
X71387Y18994D01*
X71340Y19008D01*
X71300Y19012D01*
X71285Y19016D01*
D02*
G37*
G36*
X50296Y26016D02*
X50267D01*
X50205Y26012D01*
X50147Y25997D01*
X50099Y25979D01*
X50056Y25957D01*
X50023Y25936D01*
X49997Y25917D01*
X49979Y25903D01*
X49976Y25899D01*
X49936Y25852D01*
X49907Y25804D01*
X49885Y25757D01*
X49870Y25713D01*
X49863Y25673D01*
X49856Y25641D01*
Y25619D01*
Y25615D01*
Y25611D01*
X49859Y25553D01*
X49874Y25499D01*
X49892Y25451D01*
X49914Y25411D01*
X49936Y25379D01*
X49954Y25357D01*
X49968Y25339D01*
X49972Y25335D01*
X50016Y25299D01*
X50067Y25269D01*
X50114Y25251D01*
X50161Y25237D01*
X50205Y25229D01*
X50238Y25226D01*
X50260Y25222D01*
X50267D01*
X50332Y25226D01*
X50391Y25240D01*
X50442Y25258D01*
X50485Y25280D01*
X50518Y25299D01*
X50543Y25317D01*
X50562Y25331D01*
X50565Y25335D01*
X50602Y25379D01*
X50631Y25429D01*
X50649Y25477D01*
X50664Y25524D01*
X50671Y25564D01*
X50674Y25597D01*
X50678Y25619D01*
Y25622D01*
Y25626D01*
X50674Y25684D01*
X50660Y25735D01*
X50642Y25783D01*
X50620Y25823D01*
X50602Y25855D01*
X50583Y25881D01*
X50569Y25895D01*
X50565Y25899D01*
X50518Y25939D01*
X50471Y25968D01*
X50420Y25986D01*
X50372Y26001D01*
X50329Y26008D01*
X50296Y26016D01*
D02*
G37*
G36*
X50300Y24971D02*
X50278D01*
X50198Y24964D01*
X50125Y24949D01*
X50059Y24924D01*
X50005Y24898D01*
X49961Y24869D01*
X49928Y24844D01*
X49910Y24829D01*
X49903Y24822D01*
X49852Y24763D01*
X49815Y24701D01*
X49790Y24640D01*
X49772Y24585D01*
X49761Y24530D01*
X49757Y24490D01*
X49754Y24476D01*
Y24465D01*
Y24458D01*
Y24454D01*
X49761Y24378D01*
X49775Y24305D01*
X49801Y24243D01*
X49826Y24192D01*
X49852Y24152D01*
X49877Y24119D01*
X49892Y24101D01*
X49899Y24094D01*
X49957Y24046D01*
X50016Y24010D01*
X50078Y23988D01*
X50136Y23970D01*
X50187Y23959D01*
X50230Y23955D01*
X50245Y23952D01*
X50267D01*
X50318Y23955D01*
X50369Y23963D01*
X50416Y23974D01*
X50456Y23984D01*
X50489Y23995D01*
X50514Y24006D01*
X50529Y24014D01*
X50536Y24017D01*
X50580Y24046D01*
X50616Y24075D01*
X50649Y24108D01*
X50674Y24141D01*
X50696Y24166D01*
X50711Y24188D01*
X50718Y24206D01*
X50722Y24210D01*
X50740Y24257D01*
X50755Y24301D01*
X50766Y24345D01*
X50773Y24385D01*
X50776Y24418D01*
X50780Y24443D01*
Y24458D01*
Y24465D01*
X50773Y24541D01*
X50758Y24611D01*
X50736Y24672D01*
X50707Y24727D01*
X50682Y24767D01*
X50660Y24800D01*
X50645Y24818D01*
X50638Y24825D01*
X50583Y24873D01*
X50522Y24909D01*
X50463Y24935D01*
X50405Y24953D01*
X50354Y24964D01*
X50314Y24967D01*
X50300Y24971D01*
D02*
G37*
G36*
X8257Y72262D02*
X7129D01*
Y71469D01*
X8257Y72262D01*
D02*
G37*
G36*
X78799Y66618D02*
X78777D01*
X78701Y66611D01*
X78631Y66593D01*
X78573Y66571D01*
X78522Y66542D01*
X78482Y66513D01*
X78453Y66491D01*
X78435Y66473D01*
X78427Y66465D01*
X78380Y66404D01*
X78344Y66338D01*
X78318Y66269D01*
X78304Y66203D01*
X78293Y66145D01*
X78289Y66120D01*
Y66098D01*
X78286Y66080D01*
Y66065D01*
Y66058D01*
Y66054D01*
X78293Y65956D01*
X78307Y65872D01*
X78329Y65799D01*
X78355Y65737D01*
X78384Y65690D01*
X78406Y65654D01*
X78420Y65632D01*
X78427Y65628D01*
Y65625D01*
X78453Y65596D01*
X78482Y65574D01*
X78540Y65534D01*
X78599Y65508D01*
X78650Y65486D01*
X78697Y65475D01*
X78733Y65472D01*
X78748Y65468D01*
X78766D01*
X78817Y65472D01*
X78864Y65479D01*
X78908Y65494D01*
X78944Y65508D01*
X78977Y65519D01*
X79003Y65534D01*
X79017Y65541D01*
X79024Y65544D01*
X79068Y65577D01*
X79105Y65610D01*
X79137Y65650D01*
X79163Y65683D01*
X79185Y65716D01*
X79199Y65741D01*
X79210Y65759D01*
X79214Y65767D01*
X79236Y65821D01*
X79250Y65876D01*
X79265Y65927D01*
X79272Y65974D01*
X79276Y66014D01*
X79279Y66047D01*
Y66065D01*
Y66072D01*
X79272Y66160D01*
X79257Y66236D01*
X79232Y66305D01*
X79207Y66360D01*
X79181Y66407D01*
X79155Y66440D01*
X79141Y66458D01*
X79134Y66465D01*
X79075Y66516D01*
X79017Y66553D01*
X78955Y66582D01*
X78901Y66600D01*
X78850Y66611D01*
X78813Y66615D01*
X78799Y66618D01*
D02*
G37*
G36*
X81696Y67496D02*
X80903D01*
X80804Y67492D01*
X80721Y67477D01*
X80648Y67459D01*
X80593Y67437D01*
X80546Y67415D01*
X80517Y67397D01*
X80499Y67383D01*
X80491Y67379D01*
X80448Y67332D01*
X80415Y67284D01*
X80393Y67234D01*
X80375Y67190D01*
X80368Y67146D01*
X80364Y67113D01*
X80360Y67092D01*
Y67088D01*
Y67084D01*
X80364Y67040D01*
X80371Y66997D01*
X80382Y66961D01*
X80393Y66928D01*
X80408Y66899D01*
X80419Y66877D01*
X80426Y66862D01*
X80430Y66859D01*
X80455Y66822D01*
X80488Y66789D01*
X80520Y66764D01*
X80553Y66742D01*
X80582Y66728D01*
X80604Y66717D01*
X80619Y66709D01*
X80626Y66706D01*
X80677Y66691D01*
X80735Y66680D01*
X80793Y66673D01*
X80852Y66669D01*
X80903Y66666D01*
X80946Y66662D01*
X81696D01*
Y67496D01*
D02*
G37*
G36*
X64205Y103501D02*
X63412D01*
X63314Y103497D01*
X63230Y103483D01*
X63157Y103465D01*
X63102Y103443D01*
X63055Y103421D01*
X63026Y103403D01*
X63008Y103388D01*
X63001Y103384D01*
X62957Y103337D01*
X62924Y103290D01*
X62902Y103239D01*
X62884Y103195D01*
X62877Y103152D01*
X62873Y103119D01*
X62870Y103097D01*
Y103093D01*
Y103090D01*
X62873Y103046D01*
X62880Y103002D01*
X62891Y102966D01*
X62902Y102933D01*
X62917Y102904D01*
X62928Y102882D01*
X62935Y102868D01*
X62939Y102864D01*
X62964Y102828D01*
X62997Y102795D01*
X63030Y102769D01*
X63062Y102747D01*
X63091Y102733D01*
X63113Y102722D01*
X63128Y102715D01*
X63135Y102711D01*
X63186Y102697D01*
X63244Y102686D01*
X63303Y102678D01*
X63361Y102675D01*
X63412Y102671D01*
X63455Y102667D01*
X64205D01*
Y103501D01*
D02*
G37*
G36*
X22859Y98070D02*
X22277D01*
X22230Y98066D01*
X22182D01*
X22139Y98062D01*
X22066Y98052D01*
X22007Y98044D01*
X21960Y98033D01*
X21927Y98022D01*
X21909Y98019D01*
X21902Y98015D01*
X21836Y97982D01*
X21775Y97942D01*
X21720Y97895D01*
X21673Y97848D01*
X21636Y97804D01*
X21607Y97768D01*
X21600Y97753D01*
X21592Y97742D01*
X21585Y97735D01*
Y97731D01*
X21563Y97691D01*
X21542Y97644D01*
X21509Y97549D01*
X21487Y97447D01*
X21469Y97349D01*
X21465Y97305D01*
X21462Y97262D01*
X21458Y97225D01*
Y97192D01*
X21454Y97163D01*
Y97145D01*
Y97131D01*
Y97127D01*
X21458Y97025D01*
X21465Y96930D01*
X21476Y96847D01*
X21487Y96774D01*
X21494Y96745D01*
X21501Y96719D01*
X21509Y96694D01*
X21512Y96676D01*
X21516Y96661D01*
X21520Y96650D01*
X21523Y96643D01*
Y96639D01*
X21549Y96570D01*
X21578Y96508D01*
X21611Y96453D01*
X21640Y96406D01*
X21665Y96370D01*
X21687Y96344D01*
X21702Y96330D01*
X21705Y96323D01*
X21742Y96293D01*
X21778Y96268D01*
X21814Y96246D01*
X21851Y96224D01*
X21884Y96210D01*
X21909Y96199D01*
X21927Y96195D01*
X21935Y96191D01*
X21989Y96177D01*
X22055Y96166D01*
X22120Y96159D01*
X22182Y96155D01*
X22237Y96151D01*
X22262Y96148D01*
X22859D01*
Y98070D01*
D02*
G37*
G36*
X19794Y98106D02*
X19769Y98022D01*
X19740Y97935D01*
X19711Y97848D01*
X19681Y97764D01*
X19667Y97728D01*
X19656Y97691D01*
X19645Y97658D01*
X19634Y97633D01*
X19627Y97611D01*
X19620Y97593D01*
X19616Y97582D01*
Y97578D01*
X19354Y96887D01*
X20206D01*
X19933Y97622D01*
X19900Y97713D01*
X19874Y97800D01*
X19849Y97880D01*
X19831Y97953D01*
X19816Y98015D01*
X19809Y98041D01*
X19805Y98066D01*
X19798Y98081D01*
Y98095D01*
X19794Y98102D01*
Y98106D01*
D02*
G37*
G36*
X33790Y25016D02*
X33769D01*
X33729Y25012D01*
X33689Y25008D01*
X33652Y24997D01*
X33619Y24983D01*
X33558Y24950D01*
X33503Y24914D01*
X33463Y24874D01*
X33430Y24841D01*
X33419Y24826D01*
X33412Y24815D01*
X33405Y24812D01*
Y24808D01*
X33379Y24764D01*
X33357Y24713D01*
X33336Y24655D01*
X33321Y24593D01*
X33306Y24528D01*
X33296Y24459D01*
X33277Y24320D01*
X33270Y24251D01*
X33266Y24189D01*
X33263Y24131D01*
Y24084D01*
X33259Y24040D01*
Y24007D01*
Y23989D01*
Y23985D01*
Y23982D01*
Y23869D01*
X33266Y23767D01*
X33274Y23676D01*
X33281Y23589D01*
X33292Y23516D01*
X33306Y23447D01*
X33321Y23389D01*
X33332Y23334D01*
X33346Y23290D01*
X33361Y23254D01*
X33372Y23221D01*
X33386Y23196D01*
X33394Y23177D01*
X33401Y23166D01*
X33408Y23159D01*
Y23155D01*
X33437Y23119D01*
X33467Y23090D01*
X33496Y23061D01*
X33525Y23039D01*
X33587Y23003D01*
X33641Y22977D01*
X33692Y22963D01*
X33729Y22955D01*
X33743Y22952D01*
X33765D01*
X33805Y22955D01*
X33841Y22959D01*
X33911Y22984D01*
X33972Y23017D01*
X34027Y23054D01*
X34067Y23090D01*
X34100Y23123D01*
X34118Y23148D01*
X34125Y23152D01*
Y23155D01*
X34151Y23199D01*
X34173Y23250D01*
X34195Y23308D01*
X34209Y23370D01*
X34224Y23436D01*
X34235Y23505D01*
X34253Y23647D01*
X34260Y23712D01*
X34264Y23774D01*
X34267Y23833D01*
Y23880D01*
X34271Y23924D01*
Y23956D01*
Y23975D01*
Y23982D01*
X34267Y24095D01*
X34264Y24197D01*
X34256Y24291D01*
X34245Y24379D01*
X34235Y24455D01*
X34220Y24524D01*
X34205Y24586D01*
X34191Y24641D01*
X34176Y24688D01*
X34165Y24728D01*
X34151Y24761D01*
X34140Y24790D01*
X34129Y24808D01*
X34122Y24823D01*
X34115Y24830D01*
Y24834D01*
X34089Y24866D01*
X34064Y24895D01*
X34034Y24917D01*
X34005Y24939D01*
X33947Y24972D01*
X33892Y24994D01*
X33845Y25005D01*
X33805Y25012D01*
X33790Y25016D01*
D02*
G37*
G36*
X50785Y11016D02*
X50727D01*
X50690Y11008D01*
X50625Y10990D01*
X50567Y10965D01*
X50516Y10939D01*
X50476Y10910D01*
X50446Y10885D01*
X50428Y10866D01*
X50421Y10863D01*
Y10859D01*
X50374Y10797D01*
X50337Y10728D01*
X50312Y10655D01*
X50297Y10586D01*
X50286Y10528D01*
X50283Y10502D01*
Y10477D01*
X50279Y10459D01*
Y10444D01*
Y10437D01*
Y10433D01*
X50286Y10339D01*
X50301Y10255D01*
X50323Y10186D01*
X50348Y10127D01*
X50377Y10080D01*
X50399Y10047D01*
X50414Y10025D01*
X50421Y10018D01*
X50476Y9967D01*
X50534Y9931D01*
X50592Y9905D01*
X50650Y9887D01*
X50698Y9876D01*
X50738Y9873D01*
X50752Y9869D01*
X50774D01*
X50851Y9876D01*
X50920Y9891D01*
X50982Y9916D01*
X51036Y9945D01*
X51076Y9971D01*
X51109Y9996D01*
X51127Y10011D01*
X51135Y10018D01*
X51182Y10076D01*
X51218Y10142D01*
X51240Y10208D01*
X51258Y10269D01*
X51269Y10324D01*
X51273Y10346D01*
Y10368D01*
X51276Y10386D01*
Y10397D01*
Y10404D01*
Y10408D01*
X51269Y10502D01*
X51255Y10590D01*
X51229Y10666D01*
X51200Y10728D01*
X51174Y10779D01*
X51149Y10815D01*
X51142Y10826D01*
X51135Y10837D01*
X51127Y10841D01*
Y10845D01*
X51098Y10874D01*
X51069Y10903D01*
X51007Y10943D01*
X50945Y10976D01*
X50887Y10994D01*
X50840Y11008D01*
X50800Y11012D01*
X50785Y11016D01*
D02*
G37*
G36*
X38769Y106102D02*
X38747D01*
X38670Y106095D01*
X38601Y106076D01*
X38543Y106055D01*
X38492Y106026D01*
X38452Y105996D01*
X38423Y105974D01*
X38405Y105956D01*
X38397Y105949D01*
X38350Y105887D01*
X38314Y105822D01*
X38288Y105753D01*
X38274Y105687D01*
X38263Y105629D01*
X38259Y105603D01*
Y105581D01*
X38255Y105563D01*
Y105549D01*
Y105541D01*
Y105538D01*
X38263Y105439D01*
X38277Y105356D01*
X38299Y105283D01*
X38325Y105221D01*
X38354Y105174D01*
X38376Y105137D01*
X38390Y105115D01*
X38397Y105112D01*
Y105108D01*
X38423Y105079D01*
X38452Y105057D01*
X38510Y105017D01*
X38568Y104992D01*
X38619Y104970D01*
X38667Y104959D01*
X38703Y104955D01*
X38718Y104952D01*
X38736D01*
X38787Y104955D01*
X38834Y104963D01*
X38878Y104977D01*
X38914Y104992D01*
X38947Y105003D01*
X38972Y105017D01*
X38987Y105025D01*
X38994Y105028D01*
X39038Y105061D01*
X39074Y105094D01*
X39107Y105134D01*
X39133Y105166D01*
X39154Y105199D01*
X39169Y105225D01*
X39180Y105243D01*
X39184Y105250D01*
X39206Y105305D01*
X39220Y105359D01*
X39235Y105410D01*
X39242Y105458D01*
X39246Y105498D01*
X39249Y105530D01*
Y105549D01*
Y105556D01*
X39242Y105643D01*
X39227Y105720D01*
X39202Y105789D01*
X39176Y105843D01*
X39151Y105891D01*
X39125Y105924D01*
X39111Y105942D01*
X39104Y105949D01*
X39045Y106000D01*
X38987Y106036D01*
X38925Y106065D01*
X38871Y106084D01*
X38820Y106095D01*
X38783Y106098D01*
X38769Y106102D01*
D02*
G37*
G36*
X77096Y101257D02*
Y100129D01*
X77889D01*
X77096Y101257D01*
D02*
G37*
G36*
X67431Y50974D02*
X66638D01*
X66540Y50970D01*
X66456Y50955D01*
X66383Y50937D01*
X66329Y50915D01*
X66281Y50894D01*
X66252Y50875D01*
X66234Y50861D01*
X66227Y50857D01*
X66183Y50810D01*
X66150Y50763D01*
X66128Y50712D01*
X66110Y50668D01*
X66103Y50624D01*
X66099Y50591D01*
X66096Y50570D01*
Y50566D01*
Y50562D01*
X66099Y50519D01*
X66107Y50475D01*
X66118Y50439D01*
X66128Y50406D01*
X66143Y50377D01*
X66154Y50355D01*
X66161Y50340D01*
X66165Y50337D01*
X66190Y50300D01*
X66223Y50267D01*
X66256Y50242D01*
X66289Y50220D01*
X66318Y50206D01*
X66339Y50195D01*
X66354Y50187D01*
X66361Y50184D01*
X66412Y50169D01*
X66471Y50158D01*
X66529Y50151D01*
X66587Y50147D01*
X66638Y50144D01*
X66682Y50140D01*
X67431D01*
Y50974D01*
D02*
G37*
%LPD*%
D10*
X64752Y28413D02*
G03*
X64752Y28413I-492J0D01*
G01*
X43681Y73386D02*
G03*
X43681Y73386I-492J0D01*
G01*
D13*
X32000Y35500D02*
Y40100D01*
X38000D01*
Y35500D02*
Y40100D01*
X32000Y32500D02*
X32000Y27900D01*
X38000D01*
X38000Y32500D01*
X80500Y44400D02*
Y49000D01*
X74500Y44400D02*
X80500D01*
X74500D02*
Y49000D01*
X80500Y56600D02*
X80500Y52000D01*
X74500Y56600D02*
X80500D01*
X74500Y52000D02*
X74500Y56600D01*
X68000Y52000D02*
Y56600D01*
X74000D01*
Y52000D02*
Y56600D01*
X68000Y49000D02*
X68000Y44400D01*
X74000D01*
X74000Y49000D01*
X76500Y29500D02*
Y32000D01*
X80500D01*
Y29500D02*
Y32000D01*
X76500Y24000D02*
Y26500D01*
Y24000D02*
X80500D01*
Y26500D01*
X13500Y76400D02*
X15500D01*
Y88600D01*
X13500D02*
X15500D01*
X9500Y76400D02*
X11500D01*
X9500D02*
Y88600D01*
X11500D01*
X-5000Y107000D02*
Y113000D01*
Y107000D02*
X-3000Y105000D01*
X3000D01*
X5000Y107000D02*
Y113000D01*
X3000Y105000D02*
X5000Y107000D01*
X3000Y115000D02*
X5000Y113000D01*
X-3000Y115000D02*
X3000D01*
X-5000Y113000D02*
X-3000Y115000D01*
X79600Y14000D02*
Y16000D01*
X67400D02*
X79600D01*
X67400Y14000D02*
Y16000D01*
X79600Y10000D02*
Y12000D01*
X67400Y10000D02*
X79600D01*
X67400D02*
Y12000D01*
X44900Y16500D02*
Y18500D01*
Y16500D02*
X57100D01*
Y18500D01*
X44900Y20500D02*
Y22500D01*
X57100D01*
Y20500D02*
Y22500D01*
X13900Y63900D02*
X15400D01*
X9600D02*
X11100D01*
X9600Y76100D02*
X11100D01*
X9600Y73500D02*
Y76100D01*
Y63900D02*
Y66500D01*
X15400Y73500D02*
Y76100D01*
Y63900D02*
Y66500D01*
X13900Y76100D02*
X15400D01*
X26600Y40100D02*
X28100D01*
X30900D02*
X32400D01*
X30900Y27900D02*
X32400D01*
Y30500D01*
Y37500D02*
Y40100D01*
X26600Y27900D02*
Y30500D01*
Y37500D02*
Y40100D01*
Y27900D02*
X28100D01*
X15000Y-3000D02*
Y3000D01*
Y-3000D02*
X17000Y-5000D01*
X23000D01*
X25000Y-3000D02*
Y3000D01*
X23000Y-5000D02*
X25000Y-3000D01*
X23000Y5000D02*
X25000Y3000D01*
X17000Y5000D02*
X23000D01*
X15000Y3000D02*
X17000Y5000D01*
X-5000Y67000D02*
Y73000D01*
Y67000D02*
X-3000Y65000D01*
X3000D01*
X5000Y67000D02*
Y73000D01*
X3000Y65000D02*
X5000Y67000D01*
X3000Y75000D02*
X5000Y73000D01*
X-3000Y75000D02*
X3000D01*
X-5000Y73000D02*
X-3000Y75000D01*
X25000Y-3000D02*
Y3000D01*
Y-3000D02*
X27000Y-5000D01*
X33000D01*
X35000Y-3000D02*
Y3000D01*
X33000Y-5000D02*
X35000Y-3000D01*
X33000Y5000D02*
X35000Y3000D01*
X27000Y5000D02*
X33000D01*
X25000Y3000D02*
X27000Y5000D01*
X45000Y-3000D02*
Y3000D01*
Y-3000D02*
X47000Y-5000D01*
X53000D01*
X55000Y-3000D02*
Y3000D01*
X53000Y-5000D02*
X55000Y-3000D01*
X53000Y5000D02*
X55000Y3000D01*
X47000Y5000D02*
X53000D01*
X45000Y3000D02*
X47000Y5000D01*
X57000Y105000D02*
X63000D01*
X65000Y107000D01*
Y113000D01*
X57000Y115000D02*
X63000D01*
X65000Y113000D01*
X55000D02*
X57000Y115000D01*
X55000Y107000D02*
Y113000D01*
Y107000D02*
X57000Y105000D01*
X65000Y107000D02*
Y113000D01*
Y107000D02*
X67000Y105000D01*
X73000D01*
X75000Y107000D02*
Y113000D01*
X73000Y105000D02*
X75000Y107000D01*
X73000Y115000D02*
X75000Y113000D01*
X67000Y115000D02*
X73000D01*
X65000Y113000D02*
X67000Y115000D01*
X75000Y107000D02*
Y113000D01*
Y107000D02*
X77000Y105000D01*
X83000D01*
X85000Y107000D02*
Y113000D01*
X83000Y105000D02*
X85000Y107000D01*
X83000Y115000D02*
X85000Y113000D01*
X77000Y115000D02*
X83000D01*
X75000Y113000D02*
X77000Y115000D01*
X85000Y107000D02*
Y113000D01*
Y107000D02*
X87000Y105000D01*
X93000D01*
X95000Y107000D02*
Y113000D01*
X93000Y105000D02*
X95000Y107000D01*
X93000Y115000D02*
X95000Y113000D01*
X87000Y115000D02*
X93000D01*
X85000Y113000D02*
X87000Y115000D01*
X85000Y87000D02*
Y93000D01*
Y87000D02*
X87000Y85000D01*
X93000D01*
X95000Y87000D02*
Y93000D01*
X93000Y85000D02*
X95000Y87000D01*
X93000Y95000D02*
X95000Y93000D01*
X87000Y95000D02*
X93000D01*
X85000Y93000D02*
X87000Y95000D01*
X85000Y77000D02*
Y83000D01*
Y77000D02*
X87000Y75000D01*
X93000D01*
X95000Y77000D02*
Y83000D01*
X93000Y75000D02*
X95000Y77000D01*
X93000Y85000D02*
X95000Y83000D01*
X87000Y85000D02*
X93000D01*
X85000Y83000D02*
X87000Y85000D01*
X5000Y-3000D02*
Y3000D01*
Y-3000D02*
X7000Y-5000D01*
X13000D01*
X15000Y-3000D02*
Y3000D01*
X13000Y-5000D02*
X15000Y-3000D01*
X13000Y5000D02*
X15000Y3000D01*
X7000Y5000D02*
X13000D01*
X5000Y3000D02*
X7000Y5000D01*
X-5000Y-3000D02*
Y3000D01*
Y-3000D02*
X-3000Y-5000D01*
X3000D01*
X5000Y-3000D02*
Y3000D01*
X3000Y-5000D02*
X5000Y-3000D01*
X3000Y5000D02*
X5000Y3000D01*
X-3000Y5000D02*
X3000D01*
X-5000Y3000D02*
X-3000Y5000D01*
X-5000Y7000D02*
Y13000D01*
Y7000D02*
X-3000Y5000D01*
X3000D01*
X5000Y7000D02*
Y13000D01*
X3000Y5000D02*
X5000Y7000D01*
X3000Y15000D02*
X5000Y13000D01*
X-3000Y15000D02*
X3000D01*
X-5000Y13000D02*
X-3000Y15000D01*
X-5000Y17000D02*
Y23000D01*
Y17000D02*
X-3000Y15000D01*
X3000D01*
X5000Y17000D02*
Y23000D01*
X3000Y15000D02*
X5000Y17000D01*
X3000Y25000D02*
X5000Y23000D01*
X-3000Y25000D02*
X3000D01*
X-5000Y23000D02*
X-3000Y25000D01*
X3000D01*
X5000Y27000D01*
Y33000D01*
X-3000Y35000D02*
X3000D01*
X5000Y33000D01*
X-5000D02*
X-3000Y35000D01*
X-5000Y27000D02*
Y33000D01*
Y27000D02*
X-3000Y25000D01*
X-5000Y37000D02*
Y43000D01*
Y37000D02*
X-3000Y35000D01*
X3000D01*
X5000Y37000D02*
Y43000D01*
X3000Y35000D02*
X5000Y37000D01*
X3000Y45000D02*
X5000Y43000D01*
X-3000Y45000D02*
X3000D01*
X-5000Y43000D02*
X-3000Y45000D01*
X-5000Y47000D02*
Y53000D01*
Y47000D02*
X-3000Y45000D01*
X3000D01*
X5000Y47000D02*
Y53000D01*
X3000Y45000D02*
X5000Y47000D01*
X3000Y55000D02*
X5000Y53000D01*
X-3000Y55000D02*
X3000D01*
X-5000Y53000D02*
X-3000Y55000D01*
X85000Y67000D02*
Y73000D01*
Y67000D02*
X87000Y65000D01*
X93000D01*
X95000Y67000D02*
Y73000D01*
X93000Y65000D02*
X95000Y67000D01*
X93000Y75000D02*
X95000Y73000D01*
X87000Y75000D02*
X93000D01*
X85000Y73000D02*
X87000Y75000D01*
X85000Y57000D02*
Y63000D01*
Y57000D02*
X87000Y55000D01*
X93000D01*
X95000Y57000D02*
Y63000D01*
X93000Y55000D02*
X95000Y57000D01*
X93000Y65000D02*
X95000Y63000D01*
X87000Y65000D02*
X93000D01*
X85000Y63000D02*
X87000Y65000D01*
X85000Y47000D02*
Y53000D01*
Y47000D02*
X87000Y45000D01*
X93000D01*
X95000Y47000D02*
Y53000D01*
X93000Y45000D02*
X95000Y47000D01*
X93000Y55000D02*
X95000Y53000D01*
X87000Y55000D02*
X93000D01*
X85000Y53000D02*
X87000Y55000D01*
X37000Y-5000D02*
X43000D01*
X45000Y-3000D01*
Y3000D01*
X37000Y5000D02*
X43000D01*
X45000Y3000D01*
X35000D02*
X37000Y5000D01*
X35000Y-3000D02*
Y3000D01*
Y-3000D02*
X37000Y-5000D01*
X-3000Y55000D02*
X3000D01*
X5000Y57000D01*
Y63000D01*
X-3000Y65000D02*
X3000D01*
X5000Y63000D01*
X-5000D02*
X-3000Y65000D01*
X-5000Y57000D02*
Y63000D01*
Y57000D02*
X-3000Y55000D01*
X7000Y105000D02*
X13000D01*
X15000Y107000D01*
Y113000D01*
X7000Y115000D02*
X13000D01*
X15000Y113000D01*
X5000D02*
X7000Y115000D01*
X5000Y107000D02*
Y113000D01*
Y107000D02*
X7000Y105000D01*
X17000D02*
X23000D01*
X25000Y107000D01*
Y113000D01*
X17000Y115000D02*
X23000D01*
X25000Y113000D01*
X15000D02*
X17000Y115000D01*
X15000Y107000D02*
Y113000D01*
Y107000D02*
X17000Y105000D01*
X27000D02*
X33000D01*
X35000Y107000D01*
Y113000D01*
X27000Y115000D02*
X33000D01*
X35000Y113000D01*
X25000D02*
X27000Y115000D01*
X25000Y107000D02*
Y113000D01*
Y107000D02*
X27000Y105000D01*
X37000D02*
X43000D01*
X45000Y107000D01*
Y113000D01*
X37000Y115000D02*
X43000D01*
X45000Y113000D01*
X35000D02*
X37000Y115000D01*
X35000Y107000D02*
Y113000D01*
Y107000D02*
X37000Y105000D01*
X47000D02*
X53000D01*
X55000Y107000D01*
Y113000D01*
X47000Y115000D02*
X53000D01*
X55000Y113000D01*
X45000D02*
X47000Y115000D01*
X45000Y107000D02*
Y113000D01*
Y107000D02*
X47000Y105000D01*
X87000Y35000D02*
X93000D01*
X95000Y37000D01*
Y43000D01*
X87000Y45000D02*
X93000D01*
X95000Y43000D01*
X85000D02*
X87000Y45000D01*
X85000Y37000D02*
Y43000D01*
Y37000D02*
X87000Y35000D01*
Y25000D02*
X93000D01*
X95000Y27000D01*
Y33000D01*
X87000Y35000D02*
X93000D01*
X95000Y33000D01*
X85000D02*
X87000Y35000D01*
X85000Y27000D02*
Y33000D01*
Y27000D02*
X87000Y25000D01*
Y15000D02*
X93000D01*
X95000Y17000D01*
Y23000D01*
X87000Y25000D02*
X93000D01*
X95000Y23000D01*
X85000D02*
X87000Y25000D01*
X85000Y17000D02*
Y23000D01*
Y17000D02*
X87000Y15000D01*
Y5000D02*
X93000D01*
X95000Y7000D01*
Y13000D01*
X87000Y15000D02*
X93000D01*
X95000Y13000D01*
X85000D02*
X87000Y15000D01*
X85000Y7000D02*
Y13000D01*
Y7000D02*
X87000Y5000D01*
Y-5000D02*
X93000D01*
X95000Y-3000D01*
Y3000D01*
X87000Y5000D02*
X93000D01*
X95000Y3000D01*
X85000D02*
X87000Y5000D01*
X85000Y-3000D02*
Y3000D01*
Y-3000D02*
X87000Y-5000D01*
X77000D02*
X83000D01*
X85000Y-3000D01*
Y3000D01*
X77000Y5000D02*
X83000D01*
X85000Y3000D01*
X75000D02*
X77000Y5000D01*
X75000Y-3000D02*
Y3000D01*
Y-3000D02*
X77000Y-5000D01*
X67000D02*
X73000D01*
X75000Y-3000D01*
Y3000D01*
X67000Y5000D02*
X73000D01*
X75000Y3000D01*
X65000D02*
X67000Y5000D01*
X65000Y-3000D02*
Y3000D01*
Y-3000D02*
X67000Y-5000D01*
X57000D02*
X63000D01*
X65000Y-3000D01*
Y3000D01*
X57000Y5000D02*
X63000D01*
X65000Y3000D01*
X55000D02*
X57000Y5000D01*
X55000Y-3000D02*
Y3000D01*
Y-3000D02*
X57000Y-5000D01*
X-3000Y75000D02*
X3000D01*
X5000Y77000D01*
Y83000D01*
X-3000Y85000D02*
X3000D01*
X5000Y83000D01*
X-5000D02*
X-3000Y85000D01*
X-5000Y77000D02*
Y83000D01*
Y77000D02*
X-3000Y75000D01*
Y85000D02*
X3000D01*
X5000Y87000D01*
Y93000D01*
X-3000Y95000D02*
X3000D01*
X5000Y93000D01*
X-5000D02*
X-3000Y95000D01*
X-5000Y87000D02*
Y93000D01*
Y87000D02*
X-3000Y85000D01*
Y95000D02*
X3000D01*
X5000Y97000D01*
Y103000D01*
X-3000Y105000D02*
X3000D01*
X5000Y103000D01*
X-5000D02*
X-3000Y105000D01*
X-5000Y97000D02*
Y103000D01*
Y97000D02*
X-3000Y95000D01*
X87000D02*
X93000D01*
X95000Y97000D01*
Y103000D01*
X87000Y105000D02*
X93000D01*
X95000Y103000D01*
X85000D02*
X87000Y105000D01*
X85000Y97000D02*
Y103000D01*
Y97000D02*
X87000Y95000D01*
X77000Y76500D02*
X77000Y81100D01*
X83000D01*
X83000Y76500D01*
X77000Y68900D02*
Y73500D01*
Y68900D02*
X83000D01*
Y73500D01*
X63500Y99500D02*
X68100D01*
Y93500D02*
Y99500D01*
X63500Y93500D02*
X68100D01*
X55900Y99500D02*
X60500Y99500D01*
X55900Y93500D02*
Y99500D01*
Y93500D02*
X60500Y93500D01*
X9500Y103600D02*
X11500D01*
X9500Y91400D02*
Y103600D01*
Y91400D02*
X11500D01*
X13500Y103600D02*
X15500D01*
Y91400D02*
Y103600D01*
X13500Y91400D02*
X15500D01*
X30500Y16400D02*
X32500D01*
Y28600D01*
X30500D02*
X32500D01*
X26500Y16400D02*
X28500D01*
X26500D02*
Y28600D01*
X28500D01*
X36900Y5500D02*
Y7500D01*
Y5500D02*
X49100D01*
Y7500D01*
X36900Y9500D02*
Y11500D01*
X49100D01*
Y9500D02*
Y11500D01*
X52600Y31500D02*
Y33500D01*
X40400D02*
X52600D01*
X40400Y31500D02*
Y33500D01*
X52600Y27500D02*
Y29500D01*
X40400Y27500D02*
X52600D01*
X40400D02*
Y29500D01*
X37000Y103600D02*
X39000D01*
X37000Y91400D02*
Y103600D01*
Y91400D02*
X39000D01*
X41000Y103600D02*
X43000D01*
Y91400D02*
Y103600D01*
X41000Y91400D02*
X43000D01*
X40400Y34000D02*
Y36000D01*
Y34000D02*
X52600D01*
Y36000D01*
X40400Y38000D02*
Y40000D01*
X52600D01*
Y38000D02*
Y40000D01*
X81000Y85900D02*
X83000D01*
Y98100D01*
X81000D02*
X83000D01*
X77000Y85900D02*
X79000D01*
X77000D02*
Y98100D01*
X79000D01*
D14*
X36575Y33213D02*
Y34787D01*
X33425Y33213D02*
Y34787D01*
X68787Y29594D02*
X70756D01*
Y32744D01*
X68787Y41405D02*
X70756D01*
Y38256D02*
Y41405D01*
X75925Y49713D02*
Y51287D01*
X79075Y49713D02*
Y51287D01*
X72575Y49713D02*
Y51287D01*
X69425Y49713D02*
Y51287D01*
X81575Y74213D02*
Y75787D01*
X78425Y74213D02*
Y75787D01*
X61213Y94925D02*
X62787D01*
X61213Y98075D02*
X62787D01*
X16811Y79882D02*
X43189D01*
X16811Y90118D02*
X43189D01*
Y79882D02*
Y90118D01*
X16811Y79882D02*
Y90118D01*
D15*
X12701Y20000D02*
X16638D01*
X12701D02*
Y55433D01*
X14500Y25905D02*
X16500D01*
Y22906D02*
Y28905D01*
X18000Y30906D02*
X20000D01*
X18000Y20906D02*
Y30906D01*
Y20906D02*
X20000D01*
Y30906D01*
X21500Y22906D02*
Y28905D01*
Y25905D02*
X23500D01*
X21362Y20000D02*
X25299D01*
X24118Y55433D02*
X25299D01*
X12701D02*
X13882D01*
X25299Y20000D02*
Y55433D01*
X15221Y17165D02*
X16638Y20000D01*
X21362D02*
X22780Y17165D01*
X16638Y20000D02*
X21362D01*
M02*
