G04*
G04 #@! TF.GenerationSoftware,Altium Limited,Altium Designer,20.0.11 (256)*
G04*
G04 Layer_Physical_Order=1*
G04 Layer_Color=255*
%FSLAX25Y25*%
%MOIN*%
G70*
G01*
G75*
%ADD10C,0.00984*%
%ADD13C,0.00394*%
%ADD16R,0.02362X0.01968*%
%ADD17R,0.03543X0.03937*%
%ADD18R,0.03937X0.03937*%
%ADD19R,0.03937X0.03937*%
%ADD20O,0.00984X0.06102*%
%ADD21O,0.06102X0.00984*%
G04:AMPARAMS|DCode=22|XSize=31.5mil|YSize=31.5mil|CornerRadius=3.94mil|HoleSize=0mil|Usage=FLASHONLY|Rotation=180.000|XOffset=0mil|YOffset=0mil|HoleType=Round|Shape=RoundedRectangle|*
%AMROUNDEDRECTD22*
21,1,0.03150,0.02362,0,0,180.0*
21,1,0.02362,0.03150,0,0,180.0*
1,1,0.00787,-0.01181,0.01181*
1,1,0.00787,0.01181,0.01181*
1,1,0.00787,0.01181,-0.01181*
1,1,0.00787,-0.01181,-0.01181*
%
%ADD22ROUNDEDRECTD22*%
%ADD35C,0.01968*%
%ADD36C,0.03937*%
%ADD37R,0.05906X0.05906*%
%ADD38R,0.05906X0.05906*%
%ADD39C,0.06000*%
%ADD40C,0.05906*%
%ADD41C,0.03543*%
G36*
X96653Y124016D02*
X96260Y123349D01*
X96256Y123423D01*
X96245Y123486D01*
X96226Y123538D01*
X96200Y123581D01*
X96166Y123613D01*
X96125Y123635D01*
X96077Y123646D01*
X96021Y123647D01*
X95957Y123638D01*
X95886Y123618D01*
X94870Y123694D01*
X94937Y123718D01*
X94989Y123739D01*
X95025Y123758D01*
X95046Y123774D01*
X95052Y123788D01*
X95042Y123799D01*
X95017Y123808D01*
X94921Y123818D01*
X94850Y123819D01*
Y124213D01*
X94921Y124214D01*
X94977Y124218D01*
X95017Y124224D01*
X95042Y124232D01*
X95052Y124244D01*
X95046Y124257D01*
X95025Y124274D01*
X94937Y124313D01*
X94870Y124337D01*
X95886Y124413D01*
X95957Y124394D01*
X96021Y124384D01*
X96077Y124385D01*
X96125Y124397D01*
X96166Y124418D01*
X96200Y124451D01*
X96226Y124493D01*
X96245Y124546D01*
X96256Y124609D01*
X96260Y124683D01*
X96653Y124016D01*
D02*
G37*
G36*
X-5705Y124609D02*
X-5694Y124546D01*
X-5675Y124493D01*
X-5649Y124451D01*
X-5615Y124418D01*
X-5574Y124397D01*
X-5526Y124385D01*
X-5470Y124384D01*
X-5406Y124394D01*
X-5335Y124413D01*
X-4319Y124337D01*
X-4386Y124313D01*
X-4438Y124292D01*
X-4474Y124274D01*
X-4495Y124257D01*
X-4501Y124244D01*
X-4491Y124232D01*
X-4466Y124224D01*
X-4370Y124214D01*
X-4299Y124213D01*
Y123819D01*
X-4370Y123818D01*
X-4426Y123814D01*
X-4466Y123808D01*
X-4491Y123799D01*
X-4501Y123788D01*
X-4495Y123774D01*
X-4474Y123758D01*
X-4386Y123718D01*
X-4319Y123694D01*
X-5335Y123618D01*
X-5406Y123638D01*
X-5470Y123647D01*
X-5526Y123646D01*
X-5574Y123635D01*
X-5615Y123613D01*
X-5649Y123581D01*
X-5675Y123538D01*
X-5694Y123486D01*
X-5705Y123423D01*
X-5709Y123349D01*
X-6102Y124016D01*
X-5709Y124683D01*
X-5705Y124609D01*
D02*
G37*
G36*
X-13113Y115945D02*
X-13186Y115941D01*
X-13250Y115930D01*
X-13302Y115911D01*
X-13345Y115885D01*
X-13377Y115851D01*
X-13399Y115810D01*
X-13410Y115762D01*
X-13411Y115706D01*
X-13402Y115642D01*
X-13382Y115571D01*
X-13458Y114555D01*
X-13482Y114622D01*
X-13503Y114674D01*
X-13522Y114710D01*
X-13538Y114731D01*
X-13552Y114737D01*
X-13563Y114727D01*
X-13571Y114702D01*
X-13581Y114606D01*
X-13583Y114535D01*
X-13976D01*
X-13978Y114606D01*
X-13981Y114662D01*
X-13988Y114702D01*
X-13996Y114727D01*
X-14007Y114737D01*
X-14021Y114731D01*
X-14037Y114710D01*
X-14077Y114622D01*
X-14101Y114555D01*
X-14177Y115571D01*
X-14157Y115642D01*
X-14148Y115706D01*
X-14149Y115762D01*
X-14161Y115810D01*
X-14182Y115851D01*
X-14214Y115885D01*
X-14257Y115911D01*
X-14310Y115930D01*
X-14373Y115941D01*
X-14446Y115945D01*
X-13780Y116339D01*
X-13113Y115945D01*
D02*
G37*
G36*
X89843Y107059D02*
X89690Y107171D01*
X89509Y107226D01*
X89300D01*
X89064Y107171D01*
X88799Y107059D01*
X88507Y106892D01*
X88187Y106669D01*
X87839Y106391D01*
X87059Y105667D01*
X85667Y107059D01*
X86057Y107463D01*
X86669Y108187D01*
X86892Y108507D01*
X87059Y108799D01*
X87171Y109064D01*
X87226Y109300D01*
Y109509D01*
X87171Y109690D01*
X87059Y109843D01*
X89843Y107059D01*
D02*
G37*
G36*
X11407Y107041D02*
X11266Y106987D01*
X11142Y106896D01*
X11034Y106769D01*
X10943Y106606D01*
X10869Y106407D01*
X10811Y106172D01*
X10770Y105900D01*
X10745Y105592D01*
X10737Y105248D01*
X8768D01*
X8760Y105592D01*
X8735Y105900D01*
X8694Y106172D01*
X8636Y106407D01*
X8561Y106606D01*
X8470Y106769D01*
X8363Y106896D01*
X8239Y106987D01*
X8098Y107041D01*
X7941Y107059D01*
X11564D01*
X11407Y107041D01*
D02*
G37*
G36*
X80782Y107040D02*
X80614Y106981D01*
X80467Y106882D01*
X80339Y106744D01*
X80230Y106567D01*
X80142Y106351D01*
X80073Y106095D01*
X80024Y105799D01*
X79994Y105465D01*
X79984Y105091D01*
X78016D01*
X78006Y105465D01*
X77978Y105799D01*
X77930Y106095D01*
X77863Y106351D01*
X77777Y106567D01*
X77671Y106744D01*
X77547Y106882D01*
X77404Y106981D01*
X77241Y107040D01*
X77059Y107059D01*
X80968D01*
X80782Y107040D01*
D02*
G37*
G36*
X72199D02*
X72031Y106981D01*
X71884Y106882D01*
X71756Y106744D01*
X71648Y106567D01*
X71559Y106351D01*
X71490Y106095D01*
X71441Y105799D01*
X71411Y105465D01*
X71402Y105091D01*
X69433D01*
X69423Y105465D01*
X69394Y105799D01*
X69345Y106095D01*
X69276Y106351D01*
X69187Y106567D01*
X69079Y106744D01*
X68951Y106882D01*
X68803Y106981D01*
X68636Y107040D01*
X68449Y107059D01*
X72386D01*
X72199Y107040D01*
D02*
G37*
G36*
X61446D02*
X61279Y106981D01*
X61132Y106882D01*
X61004Y106744D01*
X60895Y106567D01*
X60807Y106351D01*
X60738Y106095D01*
X60689Y105799D01*
X60659Y105465D01*
X60649Y105091D01*
X58681D01*
X58671Y105465D01*
X58641Y105799D01*
X58592Y106095D01*
X58523Y106351D01*
X58435Y106567D01*
X58326Y106744D01*
X58198Y106882D01*
X58051Y106981D01*
X57884Y107040D01*
X57696Y107059D01*
X61633D01*
X61446Y107040D01*
D02*
G37*
G36*
X52199D02*
X52031Y106981D01*
X51884Y106882D01*
X51756Y106744D01*
X51648Y106567D01*
X51559Y106351D01*
X51490Y106095D01*
X51441Y105799D01*
X51411Y105465D01*
X51402Y105091D01*
X49433D01*
X49423Y105465D01*
X49394Y105799D01*
X49345Y106095D01*
X49276Y106351D01*
X49187Y106567D01*
X49079Y106744D01*
X48951Y106882D01*
X48803Y106981D01*
X48636Y107040D01*
X48449Y107059D01*
X52386D01*
X52199Y107040D01*
D02*
G37*
G36*
X42838D02*
X42747Y106981D01*
X42666Y106882D01*
X42596Y106744D01*
X42536Y106567D01*
X42488Y106351D01*
X42450Y106095D01*
X42423Y105799D01*
X42402Y105091D01*
X40433D01*
X40423Y105465D01*
X40394Y105799D01*
X40345Y106095D01*
X40276Y106351D01*
X40187Y106567D01*
X40079Y106744D01*
X39951Y106882D01*
X39803Y106981D01*
X39636Y107040D01*
X39449Y107059D01*
X42941D01*
X42838Y107040D01*
D02*
G37*
G36*
X32199D02*
X32032Y106981D01*
X31884Y106882D01*
X31756Y106744D01*
X31648Y106567D01*
X31559Y106351D01*
X31490Y106095D01*
X31441Y105799D01*
X31411Y105465D01*
X31402Y105091D01*
X29433D01*
X29423Y105465D01*
X29394Y105799D01*
X29344Y106095D01*
X29276Y106351D01*
X29187Y106567D01*
X29079Y106744D01*
X28951Y106882D01*
X28803Y106981D01*
X28636Y107040D01*
X28449Y107059D01*
X32386D01*
X32199Y107040D01*
D02*
G37*
G36*
X21800Y107044D02*
X21717Y107000D01*
X21643Y106926D01*
X21579Y106823D01*
X21525Y106690D01*
X21480Y106528D01*
X21446Y106336D01*
X21421Y106114D01*
X21402Y105583D01*
X21415Y105515D01*
X21456Y105425D01*
X21524Y105314D01*
X21619Y105181D01*
X21891Y104851D01*
X22502Y104197D01*
X22760Y103936D01*
X22064Y103240D01*
X21803Y103498D01*
X20686Y104476D01*
X20575Y104544D01*
X20485Y104585D01*
X20417Y104598D01*
X21401Y105583D01*
X19433D01*
X19428Y105863D01*
X19389Y106336D01*
X19354Y106528D01*
X19310Y106690D01*
X19256Y106823D01*
X19192Y106926D01*
X19118Y107000D01*
X19034Y107044D01*
X18941Y107059D01*
X21894D01*
X21800Y107044D01*
D02*
G37*
G36*
X57037Y101304D02*
X56979Y101342D01*
X56886Y101377D01*
X56760Y101408D01*
X56599Y101434D01*
X56173Y101475D01*
X55278Y101506D01*
X54911Y101508D01*
Y102492D01*
X55278Y102494D01*
X56760Y102592D01*
X56886Y102623D01*
X56979Y102658D01*
X57037Y102696D01*
Y101304D01*
D02*
G37*
G36*
X13498Y102432D02*
X13539Y102342D01*
X13607Y102231D01*
X13702Y102098D01*
X13973Y101769D01*
X14585Y101114D01*
X14843Y100853D01*
X14147Y100157D01*
X13886Y100415D01*
X12769Y101393D01*
X12658Y101461D01*
X12568Y101502D01*
X12499Y101516D01*
X13484Y102501D01*
X13498Y102432D01*
D02*
G37*
G36*
X68210Y103832D02*
X62734Y98356D01*
X62072Y98225D01*
X61701Y97977D01*
X61681Y97968D01*
X61674Y97966D01*
X61610Y97951D01*
X61529Y97938D01*
X60790Y97891D01*
X60417D01*
X59764Y97761D01*
X59211Y97391D01*
X54211Y92391D01*
X53841Y91838D01*
X53794Y91599D01*
X53259Y91475D01*
X53237Y91504D01*
X52411Y92138D01*
X51449Y92536D01*
X51402Y92542D01*
Y88685D01*
X49433D01*
Y92542D01*
X49385Y92536D01*
X48424Y92138D01*
X47744Y91616D01*
X47297Y91744D01*
X47210Y91813D01*
X47177Y92032D01*
X55439Y100294D01*
X55479D01*
X56095Y100273D01*
X56443Y100240D01*
X56478Y100234D01*
X56887Y99960D01*
X57732Y99792D01*
X58577Y99960D01*
X59293Y100439D01*
X61226Y102372D01*
X61705Y103088D01*
X61873Y103933D01*
Y105000D01*
X68210D01*
Y103832D01*
D02*
G37*
G36*
X2949Y101967D02*
X3008Y101799D01*
X3107Y101652D01*
X3246Y101524D01*
X3424Y101415D01*
X3642Y101327D01*
X3899Y101258D01*
X4196Y101209D01*
X4533Y101179D01*
X4909Y101169D01*
Y99201D01*
X4533Y99191D01*
X4196Y99161D01*
X3899Y99112D01*
X3642Y99043D01*
X3424Y98955D01*
X3246Y98847D01*
X3107Y98719D01*
X3008Y98571D01*
X2949Y98404D01*
X2929Y98216D01*
Y102154D01*
X2949Y101967D01*
D02*
G37*
G36*
X12254Y98158D02*
X12346Y98123D01*
X12473Y98092D01*
X12634Y98066D01*
X13059Y98025D01*
X13954Y97994D01*
X14321Y97992D01*
Y97008D01*
X13954Y97006D01*
X12473Y96908D01*
X12346Y96877D01*
X12254Y96842D01*
X12196Y96804D01*
Y98196D01*
X12254Y98158D01*
D02*
G37*
G36*
X62274Y95441D02*
X62203Y95489D01*
X62106Y95531D01*
X61984Y95569D01*
X61836Y95602D01*
X61664Y95630D01*
X61241Y95670D01*
X60717Y95690D01*
X60417Y95693D01*
Y96677D01*
X60717Y96680D01*
X61664Y96740D01*
X61836Y96768D01*
X61984Y96801D01*
X62106Y96839D01*
X62203Y96882D01*
X62274Y96930D01*
Y95441D01*
D02*
G37*
G36*
X45026Y96207D02*
X44933Y96189D01*
X44833Y96154D01*
X44723Y96104D01*
X44606Y96037D01*
X44479Y95953D01*
X44344Y95853D01*
X44048Y95604D01*
X43718Y95290D01*
X43022Y95986D01*
X43188Y96155D01*
X43586Y96612D01*
X43685Y96747D01*
X43769Y96873D01*
X43836Y96991D01*
X43887Y97101D01*
X43921Y97201D01*
X43939Y97293D01*
X45026Y96207D01*
D02*
G37*
G36*
X38416Y94130D02*
X38458Y94037D01*
X38526Y93922D01*
X38622Y93787D01*
X38893Y93454D01*
X39273Y93038D01*
X39760Y92538D01*
X39064Y91842D01*
X38804Y92099D01*
X37680Y93076D01*
X37566Y93145D01*
X37472Y93186D01*
X37399Y93201D01*
X38401Y94203D01*
X38416Y94130D01*
D02*
G37*
G36*
X27700Y90520D02*
X28816Y89542D01*
X28927Y89474D01*
X29017Y89434D01*
X29086Y89420D01*
X28101Y88435D01*
X28087Y88504D01*
X28047Y88594D01*
X27979Y88705D01*
X27884Y88837D01*
X27612Y89167D01*
X27001Y89821D01*
X26743Y90082D01*
X27439Y90778D01*
X27700Y90520D01*
D02*
G37*
G36*
X9939Y95939D02*
X10655Y95460D01*
X11500Y95292D01*
X12345Y95460D01*
X12731Y95718D01*
X13879Y95794D01*
X19314D01*
X26286Y88822D01*
X26317Y88789D01*
X25389Y87862D01*
X25040Y87537D01*
X24801Y87347D01*
X21697D01*
Y87347D01*
X21303D01*
Y87347D01*
X15004D01*
Y80654D01*
X15502D01*
X15636Y80519D01*
X15695Y79958D01*
X15304Y79372D01*
X15166Y78681D01*
Y76319D01*
X15299Y75653D01*
X15318Y75188D01*
X15299Y75153D01*
X15299D01*
Y73169D01*
X18268D01*
Y72185D01*
X19252D01*
Y69217D01*
X21220D01*
Y68839D01*
X22485D01*
X22488Y68821D01*
X22499Y68691D01*
Y65570D01*
X21894Y65106D01*
X21421Y64489D01*
X21123Y63771D01*
X21022Y63000D01*
X21123Y62229D01*
X21306Y61788D01*
X21295Y61553D01*
X21102Y61277D01*
X21021Y61218D01*
X18297D01*
X13206Y66309D01*
Y72849D01*
X13227Y73465D01*
X13261Y73813D01*
X13266Y73848D01*
X13540Y74257D01*
X13708Y75102D01*
Y82965D01*
X13540Y83810D01*
X13061Y84526D01*
X7810Y89778D01*
X7093Y90256D01*
X6248Y90424D01*
X4479D01*
X4349Y90436D01*
X4156Y90468D01*
X4134Y90474D01*
Y94134D01*
X2500D01*
Y95866D01*
X4134D01*
Y97928D01*
X4154Y97934D01*
X4347Y97966D01*
X4478Y97977D01*
X7901D01*
X9939Y95939D01*
D02*
G37*
G36*
X89178Y87059D02*
X89091Y87111D01*
X88977Y87120D01*
X88835Y87086D01*
X88664Y87011D01*
X88467Y86893D01*
X88241Y86733D01*
X87987Y86530D01*
X87396Y85997D01*
X87059Y85667D01*
X85667Y87059D01*
X85997Y87396D01*
X86733Y88241D01*
X86893Y88467D01*
X87011Y88664D01*
X87086Y88835D01*
X87120Y88977D01*
X87111Y89091D01*
X87059Y89178D01*
X89178Y87059D01*
D02*
G37*
G36*
X2949Y89998D02*
X3009Y89831D01*
X3109Y89683D01*
X3247Y89555D01*
X3426Y89447D01*
X3644Y89358D01*
X3901Y89289D01*
X4197Y89240D01*
X4534Y89211D01*
X4909Y89201D01*
Y87232D01*
X4535Y87231D01*
X3118Y87147D01*
X3019Y87121D01*
X2960Y87092D01*
X2941Y87059D01*
X2929Y90185D01*
X2949Y89998D01*
D02*
G37*
G36*
X27998Y85957D02*
X27608Y85553D01*
X26996Y84829D01*
X26773Y84509D01*
X26606Y84217D01*
X26495Y83952D01*
X26439Y83715D01*
Y83507D01*
X26495Y83326D01*
X26606Y83173D01*
X23822Y85957D01*
X23975Y85845D01*
X24156Y85790D01*
X24365D01*
X24602Y85845D01*
X24866Y85957D01*
X25159Y86124D01*
X25479Y86346D01*
X25827Y86625D01*
X26606Y87348D01*
X27998Y85957D01*
D02*
G37*
G36*
X86115Y85022D02*
X86021Y85004D01*
X85920Y84971D01*
X85812Y84922D01*
X85697Y84858D01*
X85574Y84778D01*
X85443Y84684D01*
X85160Y84448D01*
X84848Y84152D01*
X84152Y84848D01*
X84308Y85008D01*
X84684Y85443D01*
X84778Y85574D01*
X84858Y85697D01*
X84922Y85812D01*
X84971Y85920D01*
X85004Y86021D01*
X85022Y86115D01*
X86115Y85022D01*
D02*
G37*
G36*
X52279Y86361D02*
X52095Y86139D01*
X51932Y85910D01*
X51791Y85676D01*
X51672Y85434D01*
X51575Y85186D01*
X51499Y84932D01*
X51445Y84671D01*
X51412Y84403D01*
X51402Y84130D01*
X49433D01*
X49422Y84403D01*
X49390Y84671D01*
X49336Y84932D01*
X49260Y85186D01*
X49162Y85434D01*
X49043Y85676D01*
X48903Y85910D01*
X48740Y86139D01*
X48556Y86361D01*
X48350Y86576D01*
X52484D01*
X52279Y86361D01*
D02*
G37*
G36*
X74735Y82260D02*
X74588Y82402D01*
X74440Y82529D01*
X74292Y82641D01*
X74143Y82739D01*
X73993Y82821D01*
X73843Y82888D01*
X73692Y82941D01*
X73540Y82978D01*
X73388Y83000D01*
X73235Y83008D01*
Y83992D01*
X73388Y84000D01*
X73540Y84022D01*
X73692Y84060D01*
X73843Y84112D01*
X73993Y84179D01*
X74143Y84261D01*
X74292Y84359D01*
X74440Y84471D01*
X74588Y84598D01*
X74735Y84740D01*
Y82260D01*
D02*
G37*
G36*
X51412Y82967D02*
X51445Y82699D01*
X51499Y82438D01*
X51575Y82184D01*
X51672Y81936D01*
X51791Y81695D01*
X51932Y81460D01*
X52095Y81231D01*
X52279Y81009D01*
X52484Y80794D01*
X48350D01*
X48556Y81009D01*
X48740Y81231D01*
X48903Y81460D01*
X49043Y81695D01*
X49162Y81936D01*
X49260Y82184D01*
X49336Y82438D01*
X49390Y82699D01*
X49422Y82967D01*
X49433Y83241D01*
X51402D01*
X51412Y82967D01*
D02*
G37*
G36*
X19766Y82024D02*
X19634Y81965D01*
X19518Y81866D01*
X19417Y81729D01*
X19332Y81551D01*
X19262Y81335D01*
X19208Y81079D01*
X19169Y80784D01*
X19154Y80567D01*
X19213Y79857D01*
X19256Y79635D01*
X19308Y79441D01*
X19369Y79276D01*
X19440Y79141D01*
X19520Y79034D01*
X19610Y78956D01*
X16697D01*
X16787Y79034D01*
X16867Y79141D01*
X16938Y79276D01*
X16999Y79441D01*
X17051Y79635D01*
X17094Y79857D01*
X17127Y80109D01*
X17154Y80529D01*
X17099Y81079D01*
X17045Y81335D01*
X16975Y81551D01*
X16890Y81729D01*
X16789Y81866D01*
X16673Y81965D01*
X16541Y82024D01*
X16394Y82043D01*
X19913D01*
X19766Y82024D01*
D02*
G37*
G36*
X64334Y81210D02*
X64148Y81009D01*
X63982Y80797D01*
X63836Y80574D01*
X63710Y80341D01*
X63604Y80097D01*
X63517Y79842D01*
X63450Y79576D01*
X63404Y79299D01*
X63377Y79012D01*
X63370Y78715D01*
X60447Y81638D01*
X60745Y81645D01*
X61032Y81671D01*
X61308Y81718D01*
X61574Y81785D01*
X61829Y81871D01*
X62073Y81978D01*
X62306Y82104D01*
X62529Y82250D01*
X62741Y82416D01*
X62943Y82602D01*
X64334Y81210D01*
D02*
G37*
G36*
X31822Y83287D02*
Y69129D01*
X31354Y68750D01*
X31134Y68797D01*
X30797Y69301D01*
X29553Y70545D01*
X29457Y71030D01*
X28978Y71746D01*
X28320Y72405D01*
X28150Y72581D01*
X27913Y72857D01*
Y75532D01*
X27913D01*
X27777Y76032D01*
X27834Y76319D01*
Y78681D01*
X27696Y79372D01*
X27305Y79958D01*
X27013Y80154D01*
X27164Y80654D01*
X27996D01*
Y84147D01*
X28422Y84650D01*
X29440Y85668D01*
X31822Y83287D01*
D02*
G37*
G36*
X87001Y76016D02*
X86932Y76002D01*
X86842Y75961D01*
X86731Y75893D01*
X86598Y75798D01*
X86269Y75527D01*
X85614Y74915D01*
X85353Y74657D01*
X84657Y75353D01*
X84915Y75614D01*
X85893Y76731D01*
X85961Y76842D01*
X86002Y76932D01*
X86016Y77001D01*
X87001Y76016D01*
D02*
G37*
G36*
X9292Y82051D02*
Y78618D01*
X8484D01*
Y75650D01*
X7500D01*
Y74665D01*
X4532D01*
Y74381D01*
X4134Y74134D01*
X2500D01*
Y75000D01*
X-4501D01*
Y85000D01*
X2500D01*
Y85569D01*
X2945Y85855D01*
X3000Y85866D01*
X4134D01*
Y86001D01*
X4271Y86009D01*
X5334D01*
X9292Y82051D01*
D02*
G37*
G36*
X24728Y76110D02*
X25691D01*
X25692Y76069D01*
X26303Y76044D01*
X26186Y75949D01*
X26083Y75830D01*
X25991Y75685D01*
X25911Y75514D01*
X25844Y75319D01*
X25789Y75098D01*
X25780Y75045D01*
X25824Y74850D01*
X25899Y74634D01*
X25991Y74457D01*
X26099Y74319D01*
X26224Y74220D01*
X26365Y74161D01*
X26523Y74142D01*
X25698Y74139D01*
X25691Y73961D01*
X23722D01*
X23720Y74133D01*
X22738Y74129D01*
X22925Y74150D01*
X23092Y74210D01*
X23240Y74309D01*
X23368Y74448D01*
X23476Y74626D01*
X23565Y74844D01*
X23634Y75101D01*
X23643Y75155D01*
X23618Y75306D01*
X23518Y75709D01*
X23456Y75882D01*
X23385Y76036D01*
X23306Y76170D01*
X24728Y76110D01*
D02*
G37*
G36*
X12158Y74349D02*
X12123Y74256D01*
X12092Y74130D01*
X12066Y73969D01*
X12025Y73544D01*
X11994Y72649D01*
X11992Y72281D01*
X11008D01*
X11006Y72649D01*
X10908Y74130D01*
X10877Y74256D01*
X10842Y74349D01*
X10804Y74407D01*
X12196D01*
X12158Y74349D01*
D02*
G37*
G36*
X26521Y72794D02*
X26554Y72694D01*
X26623Y72565D01*
X26728Y72409D01*
X26869Y72224D01*
X27259Y71771D01*
X28113Y70881D01*
X26721Y69489D01*
X26524Y69682D01*
X26101Y70053D01*
X26099Y70051D01*
X25991Y69914D01*
X25899Y69736D01*
X25824Y69520D01*
X25766Y69264D01*
X25724Y68969D01*
X25699Y68634D01*
X25691Y68260D01*
X23722D01*
X23713Y68636D01*
X23683Y68972D01*
X23634Y69269D01*
X23565Y69526D01*
X23476Y69744D01*
X23368Y69922D01*
X23240Y70061D01*
X23092Y70160D01*
X22925Y70220D01*
X22738Y70240D01*
X25587Y70231D01*
X26523Y72867D01*
X26521Y72794D01*
D02*
G37*
G36*
X2949Y71781D02*
X3008Y71614D01*
X3107Y71466D01*
X3246Y71339D01*
X3424Y71230D01*
X3642Y71142D01*
X3899Y71073D01*
X4196Y71024D01*
X4315Y71013D01*
X5051Y71065D01*
X5229Y71100D01*
X5366Y71142D01*
X5465Y71191D01*
X5524Y71246D01*
X5544Y71307D01*
X5556Y68032D01*
X5535Y68218D01*
X5475Y68386D01*
X5376Y68533D01*
X5237Y68661D01*
X5059Y68770D01*
X4841Y68858D01*
X4583Y68927D01*
X4287Y68976D01*
X4242Y68980D01*
X4196Y68976D01*
X3899Y68927D01*
X3642Y68858D01*
X3424Y68770D01*
X3246Y68661D01*
X3107Y68533D01*
X3008Y68386D01*
X2949Y68218D01*
X2929Y68032D01*
Y71969D01*
X2949Y71781D01*
D02*
G37*
G36*
X84799Y67920D02*
X84721Y67972D01*
X84626Y68018D01*
X84511Y68059D01*
X84378Y68094D01*
X84226Y68125D01*
X83866Y68168D01*
X83658Y68182D01*
X83185Y68193D01*
Y69177D01*
X83431Y69180D01*
X84055Y69221D01*
X84226Y69245D01*
X84511Y69311D01*
X84626Y69352D01*
X84721Y69398D01*
X84799Y69450D01*
Y67920D01*
D02*
G37*
G36*
X87059Y67059D02*
X87043Y67181D01*
X86994Y67290D01*
X86911Y67386D01*
X86796Y67470D01*
X86649Y67540D01*
X86468Y67598D01*
X86255Y67643D01*
X86008Y67675D01*
X85729Y67694D01*
X85417Y67701D01*
Y69669D01*
X85731Y69676D01*
X86260Y69728D01*
X86475Y69775D01*
X86657Y69834D01*
X86805Y69906D01*
X86921Y69991D01*
X87004Y70090D01*
X87054Y70202D01*
X87071Y70327D01*
X87059Y67059D01*
D02*
G37*
G36*
X57811Y66581D02*
X57970Y66577D01*
X58094Y64608D01*
X57898Y64605D01*
X57811Y64598D01*
Y63728D01*
X57792Y63896D01*
X57732Y64045D01*
X57634Y64177D01*
X57496Y64292D01*
X57319Y64388D01*
X57103Y64468D01*
X57064Y64477D01*
X57046Y64471D01*
X56958Y64429D01*
X56885Y64381D01*
X56828Y64328D01*
X56818Y64533D01*
X56551Y64573D01*
X56217Y64600D01*
X55843Y64608D01*
Y66577D01*
X56217Y66587D01*
X56551Y66616D01*
X56707Y66642D01*
X56699Y66804D01*
X56756Y66761D01*
X56829Y66723D01*
X56917Y66688D01*
X56924Y66686D01*
X57103Y66734D01*
X57319Y66823D01*
X57496Y66931D01*
X57634Y67059D01*
X57732Y67207D01*
X57792Y67374D01*
X57811Y67561D01*
Y66581D01*
D02*
G37*
G36*
X67051Y62717D02*
X68367D01*
X68558Y62255D01*
X63584Y57281D01*
X60560D01*
X60344Y57543D01*
X60228Y58126D01*
X60187Y58187D01*
X60362Y58450D01*
X60974Y59061D01*
X61344Y59615D01*
X61474Y60268D01*
Y62339D01*
X63114D01*
Y62717D01*
X64148D01*
X64137Y63003D01*
X63809Y63131D01*
X63877Y63170D01*
X63937Y63226D01*
X63991Y63300D01*
X64037Y63391D01*
X64076Y63499D01*
X64108Y63625D01*
X64113Y63656D01*
X64110Y63728D01*
X64126Y63729D01*
X64133Y63769D01*
X64150Y63929D01*
X64165Y64303D01*
X65083Y64260D01*
Y65685D01*
X67051D01*
Y62717D01*
D02*
G37*
G36*
X25691Y65688D02*
X25640Y63670D01*
X23368Y64655D01*
X23435Y64691D01*
X23495Y64745D01*
X23549Y64816D01*
X23595Y64905D01*
X23634Y65012D01*
X23666Y65137D01*
X23690Y65279D01*
X23708Y65439D01*
X23722Y65813D01*
X25691Y65688D01*
D02*
G37*
G36*
X60425Y64839D02*
X60391Y64746D01*
X60360Y64620D01*
X60333Y64459D01*
X60293Y64034D01*
X60282Y63740D01*
X60752D01*
X60659Y63731D01*
X60575Y63701D01*
X60501Y63651D01*
X60437Y63581D01*
X60383Y63491D01*
X60339Y63382D01*
X60304Y63252D01*
X60280Y63103D01*
X60265Y62934D01*
X60260Y62744D01*
X59276D01*
X59271Y62934D01*
X59256Y63103D01*
X59231Y63252D01*
X59197Y63382D01*
X59153Y63491D01*
X59098Y63581D01*
X59034Y63651D01*
X58961Y63701D01*
X58877Y63731D01*
X58784Y63740D01*
X59234D01*
X59175Y64620D01*
X59145Y64746D01*
X59110Y64839D01*
X59071Y64897D01*
X60464D01*
X60425Y64839D01*
D02*
G37*
G36*
X31621Y61972D02*
X31766Y61243D01*
X32179Y60624D01*
X32203Y60608D01*
X32203Y60608D01*
X32798Y60211D01*
X33528Y60066D01*
X34257Y60211D01*
X34512Y60381D01*
X34766Y60211D01*
X35496Y60066D01*
X36226Y60211D01*
X36480Y60381D01*
X36735Y60211D01*
X37465Y60066D01*
X38194Y60211D01*
X38449Y60381D01*
X38703Y60211D01*
X39433Y60066D01*
X40163Y60211D01*
X40417Y60381D01*
X40672Y60211D01*
X41402Y60066D01*
X42131Y60211D01*
X42386Y60381D01*
X42640Y60211D01*
X43370Y60066D01*
X44100Y60211D01*
X44354Y60381D01*
X44609Y60211D01*
X45339Y60066D01*
X46068Y60211D01*
X46323Y60381D01*
X46577Y60211D01*
X47307Y60066D01*
X48037Y60211D01*
X48291Y60381D01*
X48546Y60211D01*
X49276Y60066D01*
X50005Y60211D01*
X50260Y60381D01*
X50514Y60211D01*
X51244Y60066D01*
X51494Y60115D01*
X51848Y59762D01*
X51798Y59512D01*
X51943Y58782D01*
X52341Y58187D01*
X52340Y58187D01*
X52356Y58163D01*
X52975Y57750D01*
X53705Y57605D01*
X56264D01*
Y57482D01*
X53705D01*
X52975Y57337D01*
X52356Y56923D01*
X52340Y56899D01*
X52341Y56899D01*
X51943Y56305D01*
X51798Y55575D01*
X51943Y54845D01*
X52113Y54591D01*
X51943Y54336D01*
X51798Y53606D01*
X51943Y52877D01*
X52113Y52622D01*
X51943Y52368D01*
X51798Y51638D01*
X51943Y50908D01*
X52113Y50654D01*
X51943Y50399D01*
X51798Y49669D01*
X51943Y48940D01*
X52113Y48685D01*
X51943Y48430D01*
X51798Y47701D01*
X51943Y46971D01*
X52113Y46716D01*
X51943Y46462D01*
X51798Y45732D01*
X51943Y45003D01*
X52113Y44748D01*
X51943Y44493D01*
X51798Y43764D01*
X51943Y43034D01*
X52113Y42779D01*
X51943Y42525D01*
X51798Y41795D01*
X51943Y41066D01*
X52113Y40811D01*
X51943Y40556D01*
X51798Y39827D01*
X51943Y39097D01*
X52113Y38842D01*
X51943Y38588D01*
X51798Y37858D01*
X51848Y37608D01*
X51494Y37255D01*
X51244Y37304D01*
X50514Y37159D01*
X50260Y36989D01*
X50005Y37159D01*
X49276Y37304D01*
X48546Y37159D01*
X48291Y36989D01*
X48037Y37159D01*
X47307Y37304D01*
X46577Y37159D01*
X46323Y36989D01*
X46068Y37159D01*
X45339Y37304D01*
X44609Y37159D01*
X44014Y36762D01*
X43952Y36803D01*
X43370Y36919D01*
X43074Y37370D01*
X42978Y37854D01*
X42608Y38407D01*
X42398Y38617D01*
X42247Y38804D01*
X42208Y38860D01*
X42208Y38860D01*
Y40376D01*
X42220Y40497D01*
X42229Y40552D01*
X42230Y40556D01*
X42579Y41011D01*
X42877Y41729D01*
X42978Y42500D01*
X42877Y43271D01*
X42579Y43989D01*
X42106Y44606D01*
X41489Y45079D01*
X40771Y45377D01*
X40000Y45478D01*
X39229Y45377D01*
X38511Y45079D01*
X37894Y44606D01*
X37421Y43989D01*
X37123Y43271D01*
X37022Y42500D01*
X37123Y41729D01*
X37421Y41011D01*
X37770Y40556D01*
X37771Y40552D01*
X37778Y40509D01*
X37792Y40330D01*
Y38602D01*
X37960Y37758D01*
X37993Y37709D01*
X37692Y37259D01*
X37465Y37304D01*
X36735Y37159D01*
X36480Y36989D01*
X36226Y37159D01*
X35496Y37304D01*
X34766Y37159D01*
X34512Y36989D01*
X34257Y37159D01*
X33528Y37304D01*
X32798Y37159D01*
X32543Y36989D01*
X32289Y37159D01*
X31559Y37304D01*
X30829Y37159D01*
X30575Y36989D01*
X30320Y37159D01*
X29591Y37304D01*
X29340Y37255D01*
X28987Y37608D01*
X29037Y37858D01*
X28892Y38588D01*
X28494Y39183D01*
X28494Y39183D01*
X28478Y39207D01*
X27860Y39620D01*
X27130Y39765D01*
X24571D01*
Y39888D01*
X27130D01*
X27860Y40034D01*
X28478Y40447D01*
X28494Y40471D01*
X28494Y40471D01*
X28892Y41066D01*
X29037Y41795D01*
X28892Y42525D01*
X28721Y42779D01*
X28892Y43034D01*
X29037Y43764D01*
X29252Y44026D01*
X29732D01*
X30385Y44156D01*
X30939Y44526D01*
X31306Y44893D01*
X31339Y44913D01*
X31385Y44936D01*
X31444Y44958D01*
X31517Y44979D01*
X31606Y44998D01*
X31711Y45012D01*
X31833Y45022D01*
X31983Y45024D01*
X32000Y45022D01*
X32771Y45123D01*
X33489Y45421D01*
X34106Y45894D01*
X34579Y46511D01*
X34877Y47229D01*
X34952Y47802D01*
X34976Y47835D01*
X35089Y47967D01*
X35561Y48439D01*
X36040Y49155D01*
X36208Y50000D01*
X36197Y50052D01*
X38948Y52803D01*
X39000Y52792D01*
X39845Y52960D01*
X40030Y53084D01*
X40500Y53022D01*
X41271Y53123D01*
X41989Y53421D01*
X42606Y53894D01*
X43079Y54511D01*
X43377Y55229D01*
X43478Y56000D01*
X43377Y56771D01*
X43079Y57489D01*
X42606Y58106D01*
X41989Y58579D01*
X41271Y58877D01*
X40500Y58978D01*
X39729Y58877D01*
X39011Y58579D01*
X38394Y58106D01*
X37921Y57489D01*
X37623Y56771D01*
X37619Y56742D01*
X37439Y56561D01*
X36960Y55845D01*
X36910Y55590D01*
X33410Y52090D01*
X33155Y52040D01*
X32439Y51561D01*
X31935Y51058D01*
X31844Y50982D01*
X31802Y50952D01*
X31229Y50877D01*
X30511Y50579D01*
X29894Y50106D01*
X29518Y49616D01*
X29350Y49635D01*
X29017Y49767D01*
X28892Y50399D01*
X28721Y50654D01*
X28892Y50908D01*
X29037Y51638D01*
X28892Y52368D01*
X28721Y52622D01*
X28892Y52877D01*
X29037Y53606D01*
X28892Y54336D01*
X28721Y54591D01*
X28892Y54845D01*
X29037Y55575D01*
X28892Y56305D01*
X28721Y56559D01*
X28892Y56814D01*
X29037Y57543D01*
X28892Y58273D01*
X28721Y58528D01*
X28892Y58782D01*
X29037Y59512D01*
X28987Y59762D01*
X29340Y60115D01*
X29591Y60066D01*
X30320Y60211D01*
X30915Y60608D01*
X30915Y60608D01*
X30939Y60624D01*
X31352Y61243D01*
X31497Y61972D01*
Y64531D01*
X31621D01*
Y61972D01*
D02*
G37*
G36*
X11672Y61731D02*
X11757Y61681D01*
X11847Y61637D01*
X11941Y61598D01*
X12040Y61566D01*
X12144Y61539D01*
X12252Y61519D01*
X12364Y61504D01*
X12481Y61495D01*
X12602Y61492D01*
Y60508D01*
X12481Y60505D01*
X12252Y60481D01*
X12144Y60461D01*
X12040Y60434D01*
X11941Y60402D01*
X11847Y60363D01*
X11757Y60319D01*
X11672Y60269D01*
X11591Y60213D01*
Y61787D01*
X11672Y61731D01*
D02*
G37*
G36*
X60116Y59920D02*
X59945Y59751D01*
X59455Y59320D01*
X59380Y59273D01*
X59325Y59249D01*
X59289Y59250D01*
X59272Y59275D01*
X59275Y59325D01*
X58455Y59989D01*
X58499Y59968D01*
X58554Y59966D01*
X58621Y59982D01*
X58699Y60017D01*
X58790Y60070D01*
X58892Y60142D01*
X59006Y60233D01*
X59270Y60469D01*
X59420Y60616D01*
X60116Y59920D01*
D02*
G37*
G36*
X85336Y59274D02*
X85286Y59318D01*
X85124Y59449D01*
X85092Y59470D01*
X85064Y59487D01*
X85039Y59499D01*
X85018Y59505D01*
X85000Y59508D01*
Y60492D01*
X85018Y60495D01*
X85039Y60501D01*
X85064Y60513D01*
X85092Y60530D01*
X85124Y60551D01*
X85198Y60607D01*
X85286Y60682D01*
X85336Y60726D01*
Y59274D01*
D02*
G37*
G36*
X2960Y62759D02*
X3019Y62596D01*
X3118Y62453D01*
X3256Y62329D01*
X3433Y62223D01*
X3649Y62137D01*
X3905Y62070D01*
X4201Y62023D01*
X4535Y61994D01*
X4909Y61984D01*
Y60016D01*
X4533Y60006D01*
X4197Y59976D01*
X3901Y59927D01*
X3643Y59858D01*
X3425Y59770D01*
X3247Y59661D01*
X3108Y59534D01*
X3009Y59386D01*
X2949Y59219D01*
X2929Y59031D01*
X2941Y62941D01*
X2960Y62759D01*
D02*
G37*
G36*
X87071Y58941D02*
X87060Y58955D01*
X87028Y58968D01*
X86975Y58979D01*
X86900Y58989D01*
X86686Y59004D01*
X86000Y59016D01*
Y60984D01*
X86203Y60985D01*
X87028Y61032D01*
X87060Y61045D01*
X87071Y61059D01*
Y58941D01*
D02*
G37*
G36*
Y48031D02*
X87051Y48219D01*
X86992Y48386D01*
X86893Y48533D01*
X86754Y48661D01*
X86576Y48770D01*
X86358Y48858D01*
X86101Y48927D01*
X85804Y48976D01*
X85467Y49006D01*
X85185Y49013D01*
X85138Y49013D01*
X84803Y48987D01*
X84665Y48964D01*
X84546Y48934D01*
X84447Y48899D01*
X84367Y48856D01*
X84307Y48807D01*
X84266Y48752D01*
X84244Y48690D01*
X82971Y50708D01*
X85025Y50984D01*
X85091Y50568D01*
Y50984D01*
X85467Y50994D01*
X85804Y51024D01*
X86101Y51073D01*
X86358Y51142D01*
X86576Y51230D01*
X86754Y51339D01*
X86893Y51467D01*
X86992Y51614D01*
X87051Y51781D01*
X87071Y51968D01*
Y48031D01*
D02*
G37*
G36*
X2955Y52902D02*
X2999Y52868D01*
X3071Y52838D01*
X3173Y52811D01*
X3303Y52789D01*
X3462Y52771D01*
X3868Y52747D01*
X4390Y52739D01*
Y50770D01*
X4112Y50766D01*
X3646Y50728D01*
X3456Y50696D01*
X3295Y50654D01*
X3164Y50603D01*
X3061Y50543D01*
X2988Y50473D01*
X2944Y50394D01*
X2929Y50306D01*
X2941Y52941D01*
X2955Y52902D01*
D02*
G37*
G36*
X34489Y49097D02*
X34352Y48956D01*
X34027Y48579D01*
X33948Y48468D01*
X33884Y48365D01*
X33834Y48270D01*
X33798Y48181D01*
X33778Y48101D01*
X33771Y48028D01*
X32028Y49771D01*
X32101Y49778D01*
X32181Y49798D01*
X32269Y49834D01*
X32365Y49884D01*
X32468Y49948D01*
X32579Y50027D01*
X32823Y50229D01*
X32956Y50352D01*
X33097Y50489D01*
X34489Y49097D01*
D02*
G37*
G36*
X32001Y47016D02*
X31932Y47002D01*
X31842Y46961D01*
X31731Y46893D01*
X31598Y46798D01*
X31496Y46714D01*
X31982Y46228D01*
X31778Y46225D01*
X31583Y46211D01*
X31399Y46185D01*
X31225Y46148D01*
X31061Y46101D01*
X30907Y46042D01*
X30764Y45972D01*
X30630Y45892D01*
X30506Y45800D01*
X30398Y45702D01*
X30353Y45657D01*
X29657Y46353D01*
X29702Y46398D01*
X29800Y46506D01*
X29892Y46630D01*
X29972Y46764D01*
X30042Y46907D01*
X30101Y47061D01*
X30148Y47225D01*
X30185Y47399D01*
X30211Y47583D01*
X30225Y47778D01*
X30228Y47982D01*
X30700Y47510D01*
X30893Y47731D01*
X30961Y47842D01*
X31002Y47932D01*
X31016Y48001D01*
X32001Y47016D01*
D02*
G37*
G36*
X82272Y47243D02*
X80738Y47217D01*
Y47004D01*
X80680Y47043D01*
X80587Y47078D01*
X80460Y47109D01*
X80299Y47135D01*
X79874Y47176D01*
X78979Y47207D01*
X78612Y47209D01*
Y48193D01*
X78979Y48195D01*
X80387Y48288D01*
X80434Y48309D01*
X80530Y48373D01*
X80608Y48453D01*
X80667Y48547D01*
X80707Y48655D01*
X80728Y48778D01*
X80730Y48915D01*
X82272Y47243D01*
D02*
G37*
G36*
X7760Y47064D02*
X7502Y46803D01*
X6524Y45686D01*
X6456Y45575D01*
X6415Y45485D01*
X6402Y45417D01*
X5417Y46402D01*
X5485Y46415D01*
X5575Y46456D01*
X5686Y46524D01*
X5819Y46619D01*
X6148Y46891D01*
X6803Y47502D01*
X7064Y47760D01*
X7760Y47064D01*
D02*
G37*
G36*
X79532Y45270D02*
X80648Y44292D01*
X80760Y44224D01*
X80849Y44183D01*
X80918Y44169D01*
X79933Y43184D01*
X79919Y43253D01*
X79879Y43343D01*
X79811Y43454D01*
X79716Y43587D01*
X79444Y43916D01*
X78833Y44571D01*
X78575Y44832D01*
X79271Y45528D01*
X79532Y45270D01*
D02*
G37*
G36*
X41192Y41177D02*
X41148Y41104D01*
X41110Y41015D01*
X41076Y40911D01*
X41048Y40792D01*
X41025Y40657D01*
X40995Y40341D01*
X40987Y40160D01*
X40984Y39964D01*
X39016D01*
X39013Y40160D01*
X38975Y40657D01*
X38952Y40792D01*
X38924Y40911D01*
X38890Y41015D01*
X38852Y41104D01*
X38809Y41177D01*
X38760Y41235D01*
X41240D01*
X41192Y41177D01*
D02*
G37*
G36*
X87071Y38032D02*
X87051Y38219D01*
X86992Y38386D01*
X86893Y38533D01*
X86754Y38661D01*
X86576Y38770D01*
X86358Y38858D01*
X86101Y38927D01*
X85804Y38976D01*
X85467Y39006D01*
X85091Y39016D01*
Y40984D01*
X85467Y40994D01*
X85804Y41024D01*
X86101Y41073D01*
X86358Y41142D01*
X86576Y41230D01*
X86754Y41339D01*
X86893Y41467D01*
X86992Y41614D01*
X87051Y41781D01*
X87071Y41969D01*
Y38032D01*
D02*
G37*
G36*
X40995Y38633D02*
X41026Y38532D01*
X41071Y38426D01*
X41129Y38316D01*
X41200Y38200D01*
X41284Y38080D01*
X41490Y37824D01*
X41614Y37689D01*
X41750Y37549D01*
X41054Y36853D01*
X40913Y36989D01*
X40523Y37319D01*
X40402Y37403D01*
X40287Y37474D01*
X40176Y37531D01*
X40070Y37576D01*
X39970Y37608D01*
X39874Y37626D01*
X40976Y38728D01*
X40995Y38633D01*
D02*
G37*
G36*
X74950Y29239D02*
X74931Y29119D01*
X74861Y29044D01*
X74378Y28839D01*
X73822Y29068D01*
X73000Y29177D01*
X72178Y29068D01*
X71412Y28751D01*
X70754Y28246D01*
X70527Y27952D01*
X70028Y28121D01*
Y30862D01*
X61327D01*
X60726Y30982D01*
X60701D01*
X60606Y31106D01*
X59989Y31579D01*
X59271Y31877D01*
X58500Y31978D01*
X57729Y31877D01*
X57011Y31579D01*
X56394Y31106D01*
X55921Y30489D01*
X55623Y29771D01*
X55536Y29107D01*
X55083Y28853D01*
X53151Y30786D01*
Y35398D01*
X53101Y35648D01*
X53455Y36001D01*
X53705Y35952D01*
X58823D01*
X59553Y36097D01*
X59636Y36152D01*
X68037D01*
X74950Y29239D01*
D02*
G37*
G36*
X8343Y35147D02*
X8085Y34886D01*
X7107Y33769D01*
X7039Y33658D01*
X6998Y33568D01*
X6984Y33499D01*
X5999Y34484D01*
X6068Y34498D01*
X6158Y34539D01*
X6269Y34607D01*
X6402Y34702D01*
X6731Y34973D01*
X7386Y35585D01*
X7647Y35843D01*
X8343Y35147D01*
D02*
G37*
G36*
X21557Y32573D02*
X21557Y32575D01*
X23526D01*
X23527Y32527D01*
X23793Y32521D01*
X23742Y32463D01*
X23697Y32390D01*
X23657Y32302D01*
X23622Y32198D01*
X23592Y32079D01*
X23568Y31944D01*
X23561Y31886D01*
X23563Y31866D01*
X23609Y31571D01*
X23674Y31315D01*
X23758Y31098D01*
X23861Y30921D01*
X23982Y30783D01*
X24121Y30685D01*
X24280Y30626D01*
X24456Y30606D01*
X20573D01*
X20760Y30626D01*
X20927Y30685D01*
X21075Y30783D01*
X21203Y30921D01*
X21311Y31098D01*
X21400Y31315D01*
X21468Y31571D01*
X21518Y31866D01*
X21523Y31930D01*
X21518Y32001D01*
X21496Y32136D01*
X21469Y32255D01*
X21438Y32359D01*
X21401Y32448D01*
X21360Y32521D01*
X21313Y32579D01*
X21557Y32573D01*
D02*
G37*
G36*
X2955Y32915D02*
X2996Y32892D01*
X3065Y32872D01*
X3162Y32855D01*
X3286Y32840D01*
X3618Y32818D01*
X4322Y32806D01*
Y30838D01*
X4058Y30834D01*
X3612Y30802D01*
X3431Y30774D01*
X3278Y30739D01*
X3153Y30695D01*
X3055Y30643D01*
X2985Y30584D01*
X2943Y30516D01*
X2929Y30441D01*
X2941Y32941D01*
X2955Y32915D01*
D02*
G37*
G36*
X51688Y31085D02*
X51678Y30979D01*
X51691Y30864D01*
X51727Y30739D01*
X51786Y30605D01*
X51868Y30461D01*
X51974Y30307D01*
X52103Y30144D01*
X52254Y29972D01*
X52430Y29790D01*
X51938Y28889D01*
X51057Y29827D01*
X51722Y31182D01*
X51688Y31085D01*
D02*
G37*
G36*
X45687Y27631D02*
X45589Y27532D01*
X45365Y27271D01*
X45313Y27197D01*
X45272Y27129D01*
X45243Y27068D01*
X45224Y27013D01*
X45217Y26964D01*
X45221Y26922D01*
X44393Y28030D01*
X44433Y28013D01*
X44478Y28007D01*
X44527Y28010D01*
X44580Y28024D01*
X44637Y28049D01*
X44699Y28084D01*
X44766Y28129D01*
X44836Y28185D01*
X44911Y28251D01*
X44991Y28327D01*
X45687Y27631D01*
D02*
G37*
G36*
X83412Y29639D02*
X83509Y28158D01*
X83540Y28031D01*
X83575Y27939D01*
X83614Y27881D01*
X82221D01*
X82260Y27939D01*
X82294Y28031D01*
X82325Y28158D01*
X82352Y28319D01*
X82393Y28744D01*
X82423Y29639D01*
X82425Y30006D01*
X83409D01*
X83412Y29639D01*
D02*
G37*
G36*
X62362Y27528D02*
X62353Y27619D01*
X62323Y27701D01*
X62274Y27773D01*
X62205Y27835D01*
X62116Y27888D01*
X62008Y27931D01*
X61880Y27965D01*
X61733Y27989D01*
X61565Y28003D01*
X61378Y28008D01*
Y28992D01*
X61565Y28997D01*
X61733Y29011D01*
X61880Y29035D01*
X62008Y29069D01*
X62116Y29112D01*
X62205Y29165D01*
X62274Y29227D01*
X62323Y29299D01*
X62353Y29381D01*
X62362Y29472D01*
Y27528D01*
D02*
G37*
G36*
X68359Y27530D02*
X68276Y27500D01*
X68202Y27450D01*
X68138Y27380D01*
X68084Y27291D01*
X68039Y27181D01*
X68005Y27052D01*
X67980Y26902D01*
X67966Y26733D01*
X67961Y26544D01*
X66976D01*
X66971Y26733D01*
X66957Y26902D01*
X66932Y27052D01*
X66898Y27181D01*
X66853Y27291D01*
X66799Y27380D01*
X66735Y27450D01*
X66661Y27500D01*
X66578Y27530D01*
X66484Y27540D01*
X68453D01*
X68359Y27530D01*
D02*
G37*
G36*
X23498Y28582D02*
X23539Y28492D01*
X23607Y28381D01*
X23702Y28248D01*
X23973Y27918D01*
X24120Y27761D01*
X24444Y28085D01*
X24390Y28010D01*
X24363Y27920D01*
X24365Y27816D01*
X24394Y27698D01*
X24451Y27566D01*
X24535Y27420D01*
X24648Y27259D01*
X24788Y27085D01*
X25153Y26693D01*
X24456Y25997D01*
X24254Y26193D01*
X23890Y26502D01*
X23730Y26614D01*
X23584Y26699D01*
X23451Y26756D01*
X23334Y26785D01*
X23230Y26786D01*
X23140Y26760D01*
X23065Y26705D01*
X23373Y27014D01*
X22769Y27543D01*
X22658Y27611D01*
X22568Y27652D01*
X22499Y27665D01*
X23484Y28650D01*
X23498Y28582D01*
D02*
G37*
G36*
X9843Y27268D02*
X9585Y27007D01*
X8607Y25891D01*
X8539Y25779D01*
X8498Y25690D01*
X8484Y25621D01*
X7499Y26606D01*
X7568Y26619D01*
X7658Y26660D01*
X7769Y26728D01*
X7902Y26823D01*
X8231Y27095D01*
X8886Y27706D01*
X9147Y27964D01*
X9843Y27268D01*
D02*
G37*
G36*
X87071Y20043D02*
X87055Y20156D01*
X87007Y20258D01*
X86927Y20347D01*
X86815Y20425D01*
X86672Y20490D01*
X86497Y20544D01*
X86290Y20585D01*
X86051Y20615D01*
X85781Y20633D01*
X85479Y20639D01*
Y22608D01*
X85779Y22611D01*
X86490Y22661D01*
X86664Y22691D01*
X86806Y22727D01*
X86917Y22771D01*
X86996Y22821D01*
X87043Y22877D01*
X87059Y22941D01*
X87071Y20043D01*
D02*
G37*
G36*
X71114Y22085D02*
X72231Y21107D01*
X72342Y21039D01*
X72432Y20998D01*
X72501Y20984D01*
X71516Y19999D01*
X71502Y20068D01*
X71461Y20158D01*
X71393Y20269D01*
X71298Y20402D01*
X71027Y20731D01*
X70415Y21386D01*
X70157Y21647D01*
X70853Y22343D01*
X71114Y22085D01*
D02*
G37*
G36*
X36153Y21423D02*
X36263Y21334D01*
X36385Y21247D01*
X36669Y21075D01*
X36829Y20991D01*
X37189Y20827D01*
X37601Y20667D01*
X35346Y19634D01*
X35403Y19804D01*
X35444Y19967D01*
X35467Y20123D01*
X35473Y20273D01*
X35462Y20415D01*
X35434Y20552D01*
X35388Y20681D01*
X35325Y20804D01*
X35245Y20920D01*
X35148Y21029D01*
X36056Y21513D01*
X36153Y21423D01*
D02*
G37*
G36*
X40032Y21585D02*
X41148Y20607D01*
X41260Y20539D01*
X41349Y20498D01*
X41418Y20484D01*
X40434Y19500D01*
X42402D01*
X42404Y19307D01*
X42426Y18977D01*
X42446Y18841D01*
X42471Y18724D01*
X42501Y18626D01*
X42537Y18546D01*
X42579Y18486D01*
X42626Y18445D01*
X42679Y18422D01*
X41705Y18229D01*
X39735Y17467D01*
X39866Y17630D01*
X39983Y17803D01*
X40087Y17984D01*
X40177Y18174D01*
X40253Y18373D01*
X40315Y18580D01*
X40363Y18797D01*
X40398Y19023D01*
X40418Y19257D01*
X40425Y19500D01*
X40433D01*
X40420Y19568D01*
X40379Y19658D01*
X40311Y19769D01*
X40216Y19902D01*
X39944Y20231D01*
X39333Y20886D01*
X39075Y21147D01*
X39771Y21843D01*
X40032Y21585D01*
D02*
G37*
G36*
X69114Y18585D02*
X70231Y17607D01*
X70342Y17539D01*
X70432Y17498D01*
X70501Y17484D01*
X69516Y16499D01*
X69502Y16568D01*
X69461Y16658D01*
X69393Y16769D01*
X69298Y16902D01*
X69027Y17231D01*
X68415Y17886D01*
X68157Y18147D01*
X68853Y18843D01*
X69114Y18585D01*
D02*
G37*
G36*
X10343Y18147D02*
X10085Y17886D01*
X9107Y16769D01*
X9039Y16658D01*
X8998Y16568D01*
X8984Y16499D01*
X7999Y17484D01*
X8068Y17498D01*
X8158Y17539D01*
X8269Y17607D01*
X8402Y17702D01*
X8731Y17973D01*
X9386Y18585D01*
X9647Y18843D01*
X10343Y18147D01*
D02*
G37*
G36*
X34028Y17674D02*
X34053Y17521D01*
X34095Y17374D01*
X34154Y17235D01*
X34229Y17103D01*
X34321Y16978D01*
X34430Y16860D01*
X34556Y16750D01*
X34699Y16646D01*
X34858Y16550D01*
X32467Y15889D01*
X32575Y16082D01*
X32831Y16625D01*
X32893Y16794D01*
X32984Y17114D01*
X33013Y17265D01*
X33030Y17410D01*
X33035Y17549D01*
X34020Y17834D01*
X34028Y17674D01*
D02*
G37*
G36*
X26293Y15597D02*
X26243Y15543D01*
X26198Y15486D01*
X26156Y15424D01*
X26118Y15358D01*
X26085Y15288D01*
X26055Y15214D01*
X26030Y15135D01*
X26008Y15053D01*
X25990Y14967D01*
X25976Y14876D01*
X24876Y15976D01*
X24967Y15990D01*
X25135Y16030D01*
X25214Y16055D01*
X25288Y16085D01*
X25358Y16118D01*
X25424Y16156D01*
X25486Y16198D01*
X25543Y16243D01*
X25597Y16293D01*
X26293Y15597D01*
D02*
G37*
G36*
X67412Y15639D02*
X67510Y14158D01*
X67540Y14031D01*
X67575Y13939D01*
X67614Y13881D01*
X66221D01*
X66260Y13939D01*
X66294Y14031D01*
X66325Y14158D01*
X66352Y14319D01*
X66392Y14744D01*
X66423Y15639D01*
X66425Y16006D01*
X67409D01*
X67412Y15639D01*
D02*
G37*
G36*
X58858Y13400D02*
X58636Y13612D01*
X58408Y13802D01*
X58174Y13969D01*
X57934Y14114D01*
X57688Y14237D01*
X57436Y14337D01*
X57177Y14415D01*
X56913Y14471D01*
X56643Y14505D01*
X56366Y14516D01*
Y16484D01*
X56643Y16495D01*
X56913Y16529D01*
X57177Y16585D01*
X57436Y16663D01*
X57688Y16763D01*
X57934Y16886D01*
X58174Y17031D01*
X58408Y17198D01*
X58636Y17388D01*
X58858Y17600D01*
Y13400D01*
D02*
G37*
G36*
X52541Y13939D02*
X53258Y13460D01*
X54102Y13292D01*
X56634D01*
X56714Y13282D01*
X56878Y13248D01*
X57038Y13199D01*
X57196Y13137D01*
X57353Y13058D01*
X57511Y12962D01*
X57671Y12848D01*
X57834Y12713D01*
X57964Y12588D01*
X58018Y12518D01*
X58891Y11848D01*
X59908Y11427D01*
X61000Y11283D01*
X62091Y11427D01*
X63109Y11848D01*
X63982Y12518D01*
X64210Y12814D01*
X64710Y12645D01*
Y10332D01*
X60261Y5883D01*
X59782Y5167D01*
X59614Y4322D01*
Y4134D01*
X55866D01*
Y2500D01*
X54134D01*
Y4134D01*
X50227D01*
X50071Y4916D01*
X49593Y5632D01*
X45164Y10061D01*
X44447Y10540D01*
X43602Y10708D01*
X40602D01*
X39757Y10540D01*
X39372Y10282D01*
X38223Y10206D01*
X35207D01*
X33821Y11591D01*
X34087Y12033D01*
X34771Y12123D01*
X35489Y12421D01*
X36106Y12894D01*
X36579Y13511D01*
X36877Y14229D01*
X36978Y15000D01*
X36909Y15529D01*
X36961Y15809D01*
X37396Y16026D01*
X37799Y15623D01*
X37783Y15500D01*
X37927Y14409D01*
X38348Y13391D01*
X39018Y12518D01*
X39891Y11848D01*
X40909Y11427D01*
X42000Y11283D01*
X43091Y11427D01*
X44109Y11848D01*
X44982Y12518D01*
X45652Y13391D01*
X46073Y14409D01*
X46217Y15500D01*
X46073Y16591D01*
X45652Y17609D01*
X45128Y18292D01*
X45368Y18792D01*
X47688D01*
X52541Y13939D01*
D02*
G37*
G36*
X86620Y13786D02*
X87361Y13155D01*
X87678Y12934D01*
X87961Y12776D01*
X88208Y12681D01*
X88420Y12649D01*
X88596Y12679D01*
X88737Y12772D01*
X88843Y12929D01*
X87071Y9157D01*
X87137Y9354D01*
X87156Y9569D01*
X87130Y9802D01*
X87058Y10053D01*
X86941Y10322D01*
X86778Y10610D01*
X86569Y10915D01*
X86314Y11239D01*
X86014Y11581D01*
X85667Y11941D01*
X86196Y14196D01*
X86620Y13786D01*
D02*
G37*
G36*
X10843Y10147D02*
X10585Y9886D01*
X9607Y8769D01*
X9539Y8658D01*
X9498Y8568D01*
X9484Y8499D01*
X8499Y9484D01*
X8568Y9498D01*
X8658Y9539D01*
X8769Y9607D01*
X8902Y9702D01*
X9231Y9973D01*
X9886Y10585D01*
X10147Y10843D01*
X10843Y10147D01*
D02*
G37*
G36*
X82994Y10056D02*
X83092Y8575D01*
X83123Y8448D01*
X83158Y8356D01*
X83196Y8298D01*
X81804D01*
X81842Y8356D01*
X81877Y8448D01*
X81908Y8575D01*
X81934Y8736D01*
X81975Y9161D01*
X82006Y10056D01*
X82008Y10423D01*
X82992D01*
X82994Y10056D01*
D02*
G37*
G36*
X39907Y7804D02*
X39849Y7842D01*
X39756Y7877D01*
X39630Y7908D01*
X39469Y7934D01*
X39044Y7975D01*
X38148Y8006D01*
X37782Y8008D01*
Y8992D01*
X38148Y8994D01*
X39630Y9092D01*
X39756Y9123D01*
X39849Y9158D01*
X39907Y9196D01*
Y7804D01*
D02*
G37*
G36*
X16343Y9147D02*
X16085Y8886D01*
X15107Y7769D01*
X15039Y7658D01*
X14998Y7568D01*
X14984Y7499D01*
X13999Y8484D01*
X14068Y8498D01*
X14158Y8539D01*
X14269Y8607D01*
X14402Y8702D01*
X14731Y8973D01*
X15386Y9585D01*
X15647Y9843D01*
X16343Y9147D01*
D02*
G37*
G36*
X20491Y39827D02*
X20606Y39245D01*
X20617Y39229D01*
X20370Y39065D01*
X19794Y38488D01*
X19424Y37935D01*
X19294Y37282D01*
Y36000D01*
X19343Y35754D01*
X19292Y35500D01*
X19460Y34655D01*
X19673Y34337D01*
X19604Y33815D01*
X19706Y33044D01*
X19933Y32496D01*
X19680Y31996D01*
X19154D01*
Y25303D01*
X19532D01*
Y23335D01*
X22500D01*
Y22350D01*
X23484D01*
Y19382D01*
X24239D01*
Y17056D01*
X24155Y17040D01*
X23439Y16561D01*
X22960Y15845D01*
X22792Y15000D01*
Y7500D01*
X22960Y6655D01*
X23439Y5939D01*
X25866Y3512D01*
Y3001D01*
X25855Y2946D01*
X25646Y2619D01*
X25516Y2500D01*
X25000D01*
Y-4501D01*
X15000D01*
Y2500D01*
X14504D01*
X14362Y2607D01*
X14145Y2945D01*
X14134Y3000D01*
Y4134D01*
X14134D01*
X14023Y4401D01*
X15561Y5939D01*
X16040Y6655D01*
X16130Y7110D01*
X16889Y7976D01*
X17706Y8794D01*
X18076Y9347D01*
X18206Y10000D01*
Y38793D01*
X19502Y40089D01*
X20275D01*
X20491Y39827D01*
D02*
G37*
G36*
X79844Y4533D02*
X79874Y4197D01*
X79923Y3901D01*
X79992Y3643D01*
X80080Y3426D01*
X80189Y3247D01*
X80317Y3108D01*
X80464Y3009D01*
X80632Y2949D01*
X80818Y2929D01*
X77059Y2941D01*
X77213Y2960D01*
X77350Y3019D01*
X77471Y3118D01*
X77575Y3256D01*
X77664Y3433D01*
X77737Y3649D01*
X77793Y3905D01*
X77833Y4201D01*
X77858Y4535D01*
X77866Y4909D01*
X79834D01*
X79844Y4533D01*
D02*
G37*
G36*
X71494Y4533D02*
X71524Y4196D01*
X71573Y3899D01*
X71642Y3642D01*
X71730Y3424D01*
X71839Y3246D01*
X71966Y3107D01*
X72114Y3008D01*
X72281Y2949D01*
X72469Y2929D01*
X68532D01*
X68718Y2949D01*
X68886Y3008D01*
X69033Y3107D01*
X69161Y3246D01*
X69270Y3424D01*
X69358Y3642D01*
X69427Y3899D01*
X69476Y4196D01*
X69506Y4533D01*
X69516Y4909D01*
X71484D01*
X71494Y4533D01*
D02*
G37*
G36*
X62808Y4060D02*
X62872Y3065D01*
X62892Y2996D01*
X62915Y2955D01*
X62941Y2941D01*
X60441Y2929D01*
X60516Y2943D01*
X60584Y2985D01*
X60643Y3055D01*
X60695Y3153D01*
X60739Y3278D01*
X60774Y3431D01*
X60802Y3612D01*
X60822Y3821D01*
X60838Y4322D01*
X62806D01*
X62808Y4060D01*
D02*
G37*
G36*
X49017Y3854D02*
X49068Y3112D01*
X49087Y3032D01*
X49109Y2975D01*
X49134Y2940D01*
X49162Y2929D01*
X47059Y2941D01*
X47047Y4071D01*
X49016D01*
X49017Y3854D01*
D02*
G37*
G36*
X40911Y4482D02*
X40938Y4156D01*
X40984Y3869D01*
X41049Y3619D01*
X41132Y3408D01*
X41233Y3236D01*
X41353Y3101D01*
X41492Y3005D01*
X41648Y2948D01*
X41823Y2929D01*
X38011D01*
X38186Y2948D01*
X38343Y3005D01*
X38481Y3101D01*
X38601Y3236D01*
X38703Y3408D01*
X38786Y3619D01*
X38850Y3869D01*
X38896Y4156D01*
X38924Y4482D01*
X38933Y4847D01*
X40902D01*
X40911Y4482D01*
D02*
G37*
G36*
X29166Y4058D02*
X29198Y3612D01*
X29226Y3431D01*
X29261Y3278D01*
X29305Y3153D01*
X29357Y3055D01*
X29416Y2985D01*
X29484Y2943D01*
X29559Y2929D01*
X27059Y2941D01*
X27085Y2955D01*
X27108Y2996D01*
X27128Y3065D01*
X27145Y3162D01*
X27160Y3286D01*
X27182Y3618D01*
X27194Y4322D01*
X29162D01*
X29166Y4058D01*
D02*
G37*
G36*
X12244Y4408D02*
X12300Y3828D01*
X12349Y3593D01*
X12413Y3394D01*
X12490Y3231D01*
X12582Y3104D01*
X12687Y3013D01*
X12807Y2959D01*
X12941Y2941D01*
X9441Y2929D01*
X9598Y2947D01*
X9739Y3003D01*
X9863Y3094D01*
X9970Y3222D01*
X10061Y3386D01*
X10136Y3587D01*
X10194Y3824D01*
X10235Y4097D01*
X10260Y4406D01*
X10268Y4752D01*
X12237D01*
X12244Y4408D01*
D02*
G37*
G36*
X4333Y2941D02*
X3942Y2536D01*
X3327Y1811D01*
X3103Y1490D01*
X2935Y1198D01*
X2822Y934D01*
X2765Y697D01*
X2764Y489D01*
X2819Y309D01*
X2929Y157D01*
X157Y2929D01*
X309Y2819D01*
X489Y2764D01*
X697Y2765D01*
X934Y2822D01*
X1198Y2935D01*
X1490Y3103D01*
X1811Y3327D01*
X2159Y3607D01*
X2941Y4333D01*
X4333Y2941D01*
D02*
G37*
G36*
X87562Y3946D02*
X88281Y3338D01*
X88600Y3115D01*
X88892Y2947D01*
X89157Y2834D01*
X89394Y2776D01*
X89605Y2772D01*
X89789Y2823D01*
X89946Y2929D01*
X87071Y259D01*
X87186Y407D01*
X87244Y583D01*
X87245Y789D01*
X87190Y1024D01*
X87078Y1287D01*
X86909Y1580D01*
X86684Y1902D01*
X86402Y2253D01*
X85667Y3043D01*
X87162Y4333D01*
X87562Y3946D01*
D02*
G37*
G36*
X-13581Y-4370D02*
X-13578Y-4426D01*
X-13571Y-4466D01*
X-13563Y-4491D01*
X-13552Y-4501D01*
X-13538Y-4495D01*
X-13522Y-4474D01*
X-13482Y-4386D01*
X-13458Y-4319D01*
X-13382Y-5335D01*
X-13402Y-5406D01*
X-13411Y-5470D01*
X-13410Y-5526D01*
X-13399Y-5574D01*
X-13377Y-5615D01*
X-13345Y-5649D01*
X-13302Y-5675D01*
X-13250Y-5694D01*
X-13186Y-5705D01*
X-13113Y-5709D01*
X-13780Y-6102D01*
X-14446Y-5709D01*
X-14373Y-5705D01*
X-14310Y-5694D01*
X-14257Y-5675D01*
X-14214Y-5649D01*
X-14182Y-5615D01*
X-14161Y-5574D01*
X-14149Y-5526D01*
X-14148Y-5470D01*
X-14157Y-5406D01*
X-14177Y-5335D01*
X-14101Y-4319D01*
X-14077Y-4386D01*
X-14056Y-4438D01*
X-14037Y-4474D01*
X-14021Y-4495D01*
X-14007Y-4501D01*
X-13996Y-4491D01*
X-13988Y-4466D01*
X-13978Y-4370D01*
X-13976Y-4299D01*
X-13583D01*
X-13581Y-4370D01*
D02*
G37*
G36*
X103101Y114305D02*
X103094Y114210D01*
Y114115D01*
X103086Y114028D01*
X103064Y113882D01*
X103050Y113765D01*
X103028Y113670D01*
X103006Y113605D01*
X102999Y113568D01*
X102991Y113554D01*
X102926Y113423D01*
X102846Y113299D01*
X102751Y113189D01*
X102656Y113094D01*
X102569Y113022D01*
X102496Y112963D01*
X102467Y112949D01*
X102445Y112934D01*
X102430Y112919D01*
X102423D01*
X102343Y112876D01*
X102248Y112832D01*
X102058Y112767D01*
X101854Y112723D01*
X101657Y112686D01*
X101570Y112679D01*
X101482Y112672D01*
X101410Y112664D01*
X101344D01*
X101286Y112657D01*
X101249D01*
X101220D01*
X101213D01*
X101009Y112664D01*
X100819Y112679D01*
X100651Y112701D01*
X100506Y112723D01*
X100447Y112737D01*
X100396Y112752D01*
X100345Y112767D01*
X100309Y112774D01*
X100280Y112781D01*
X100258Y112788D01*
X100243Y112796D01*
X100236D01*
X100097Y112847D01*
X99973Y112905D01*
X99864Y112971D01*
X99769Y113029D01*
X99696Y113080D01*
X99645Y113124D01*
X99616Y113153D01*
X99602Y113160D01*
X99543Y113233D01*
X99492Y113306D01*
X99449Y113379D01*
X99405Y113452D01*
X99376Y113517D01*
X99354Y113568D01*
X99347Y113605D01*
X99339Y113619D01*
X99310Y113729D01*
X99288Y113860D01*
X99274Y113991D01*
X99266Y114115D01*
X99259Y114225D01*
X99252Y114276D01*
Y115471D01*
X103101D01*
Y114305D01*
D02*
G37*
G36*
X103699Y111972D02*
X101198D01*
X101446Y111979D01*
X101672Y112001D01*
X101876Y112037D01*
X101971Y112052D01*
X102051Y112074D01*
X102131Y112096D01*
X102197Y112110D01*
X102255Y112125D01*
X102306Y112147D01*
X102350Y112154D01*
X102379Y112169D01*
X102394Y112176D01*
X102401D01*
X102591Y112256D01*
X102758Y112351D01*
X102904Y112453D01*
X103028Y112548D01*
X103130Y112635D01*
X103203Y112708D01*
X103225Y112737D01*
X103247Y112759D01*
X103254Y112767D01*
X103261Y112774D01*
X103356Y112890D01*
X103429Y113014D01*
X103495Y113138D01*
X103546Y113255D01*
X103582Y113357D01*
X103604Y113437D01*
X103619Y113466D01*
Y113488D01*
X103626Y113503D01*
Y113510D01*
X103648Y113634D01*
X103670Y113780D01*
X103684Y113926D01*
X103691Y114071D01*
X103699Y114203D01*
Y111972D01*
D02*
G37*
G36*
X104795Y-5906D02*
X97254D01*
Y116142D01*
X98654D01*
Y111972D01*
Y114327D01*
X98661Y114159D01*
X98669Y114006D01*
X98683Y113867D01*
X98698Y113751D01*
X98712Y113648D01*
X98720Y113576D01*
X98727Y113554D01*
X98734Y113532D01*
Y113517D01*
X98771Y113386D01*
X98814Y113269D01*
X98851Y113167D01*
X98895Y113080D01*
X98931Y113007D01*
X98960Y112956D01*
X98982Y112927D01*
X98989Y112912D01*
X99055Y112818D01*
X99135Y112737D01*
X99208Y112657D01*
X99281Y112592D01*
X99347Y112533D01*
X99398Y112489D01*
X99434Y112460D01*
X99449Y112453D01*
X99565Y112380D01*
X99689Y112307D01*
X99806Y112249D01*
X99922Y112205D01*
X100024Y112161D01*
X100105Y112132D01*
X100134Y112125D01*
X100156Y112118D01*
X100170Y112110D01*
X100178D01*
X100353Y112067D01*
X100528Y112030D01*
X100695Y112008D01*
X100856Y111986D01*
X100994Y111979D01*
X101052D01*
X101103Y111972D01*
X103699D01*
Y116142D01*
X104795D01*
Y-5906D01*
D02*
G37*
G36*
X111407Y116142D02*
Y-5906D01*
X104795D01*
Y90889D01*
X104795D01*
Y93521D01*
X104802Y93411D01*
X104817Y93317D01*
X104839Y93229D01*
X104868Y93156D01*
X104897Y93091D01*
X104919Y93047D01*
X104934Y93018D01*
X104941Y93011D01*
X104999Y92930D01*
X105072Y92865D01*
X105145Y92799D01*
X105218Y92741D01*
X105283Y92697D01*
X105334Y92661D01*
X105371Y92639D01*
X105386Y92632D01*
X105437Y92610D01*
X105488Y92580D01*
X105612Y92522D01*
X105750Y92464D01*
X105889Y92413D01*
X106012Y92362D01*
X106071Y92340D01*
X106122Y92318D01*
X106158Y92303D01*
X106187Y92289D01*
X106209Y92282D01*
X106217D01*
X109934Y90889D01*
Y91509D01*
X107799Y92296D01*
X107645Y92354D01*
X107500Y92398D01*
X107354Y92449D01*
X107230Y92486D01*
X107121Y92515D01*
X107077Y92529D01*
X107040Y92537D01*
X107011Y92544D01*
X106989Y92551D01*
X106975Y92559D01*
X106967D01*
X107135Y92602D01*
X107288Y92646D01*
X107434Y92690D01*
X107558Y92734D01*
X107660Y92770D01*
X107704Y92785D01*
X107740Y92799D01*
X107777Y92806D01*
X107799Y92814D01*
X107806Y92821D01*
X107813D01*
X109934Y93586D01*
Y94243D01*
X106275Y92857D01*
X106209Y92887D01*
X106158Y92901D01*
X106129Y92916D01*
X106122D01*
X105998Y92959D01*
X105896Y93003D01*
X105808Y93032D01*
X105750Y93062D01*
X105706Y93076D01*
X105677Y93091D01*
X105663Y93105D01*
X105655D01*
X105575Y93164D01*
X105517Y93229D01*
X105495Y93258D01*
X105480Y93280D01*
X105466Y93295D01*
Y93302D01*
X105444Y93353D01*
X105422Y93404D01*
X105400Y93514D01*
Y93557D01*
X105393Y93594D01*
Y93630D01*
X105400Y93747D01*
X105422Y93863D01*
X105437Y93907D01*
X105444Y93944D01*
X105451Y93973D01*
Y93980D01*
X104875Y93915D01*
X104846Y93834D01*
X104832Y93761D01*
X104817Y93696D01*
X104802Y93638D01*
Y93586D01*
X104795Y93550D01*
Y94243D01*
X109934D01*
X104795D01*
Y116142D01*
X111407D01*
D02*
G37*
G36*
X-11471Y64552D02*
X-13219D01*
X-13225D01*
X-13230D01*
X-13263D01*
X-13313D01*
X-13374Y64547D01*
X-13441Y64541D01*
X-13508Y64535D01*
X-13574Y64524D01*
X-13624Y64508D01*
X-13630D01*
X-13646Y64497D01*
X-13668Y64486D01*
X-13696Y64469D01*
X-13730Y64447D01*
X-13763Y64419D01*
X-13796Y64386D01*
X-13829Y64341D01*
X-13835Y64336D01*
X-13841Y64319D01*
X-13852Y64297D01*
X-13868Y64258D01*
X-13885Y64219D01*
X-13896Y64169D01*
X-13902Y64119D01*
X-13907Y64058D01*
Y64030D01*
X-13902Y64008D01*
X-13896Y63953D01*
X-13885Y63886D01*
X-13857Y63808D01*
X-13824Y63725D01*
X-13774Y63642D01*
X-13707Y63564D01*
X-13696Y63559D01*
X-13668Y63537D01*
X-13624Y63503D01*
X-13557Y63470D01*
X-13469Y63431D01*
X-13363Y63403D01*
X-13236Y63381D01*
X-13086Y63370D01*
X-11471D01*
Y62898D01*
X-13274D01*
X-13280D01*
X-13291D01*
X-13302D01*
X-13324D01*
X-13386Y62893D01*
X-13452Y62882D01*
X-13530Y62871D01*
X-13608Y62848D01*
X-13680Y62821D01*
X-13746Y62782D01*
X-13752Y62776D01*
X-13774Y62760D01*
X-13796Y62732D01*
X-13829Y62693D01*
X-13857Y62643D01*
X-13885Y62576D01*
X-13902Y62499D01*
X-13907Y62404D01*
Y62371D01*
X-13902Y62332D01*
X-13896Y62288D01*
X-13879Y62232D01*
X-13863Y62166D01*
X-13835Y62105D01*
X-13802Y62038D01*
X-13796Y62032D01*
X-13780Y62010D01*
X-13757Y61983D01*
X-13724Y61944D01*
X-13680Y61905D01*
X-13624Y61866D01*
X-13563Y61827D01*
X-13491Y61794D01*
X-13480Y61788D01*
X-13452Y61783D01*
X-13408Y61772D01*
X-13347Y61755D01*
X-13263Y61738D01*
X-13163Y61727D01*
X-13047Y61722D01*
X-12914Y61716D01*
X-11471D01*
Y61244D01*
X-14257D01*
Y61666D01*
X-13857D01*
X-13868Y61672D01*
X-13891Y61688D01*
X-13929Y61722D01*
X-13974Y61760D01*
X-14029Y61810D01*
X-14085Y61871D01*
X-14140Y61938D01*
X-14190Y62016D01*
X-14196Y62027D01*
X-14212Y62055D01*
X-14229Y62099D01*
X-14257Y62160D01*
X-14279Y62232D01*
X-14296Y62315D01*
X-14312Y62410D01*
X-14318Y62510D01*
Y62560D01*
X-14312Y62621D01*
X-14301Y62687D01*
X-14285Y62771D01*
X-14262Y62854D01*
X-14229Y62937D01*
X-14185Y63015D01*
X-14179Y63026D01*
X-14163Y63048D01*
X-14135Y63081D01*
X-14090Y63126D01*
X-14040Y63170D01*
X-13979Y63220D01*
X-13907Y63265D01*
X-13824Y63298D01*
X-13829Y63303D01*
X-13846Y63314D01*
X-13868Y63331D01*
X-13902Y63359D01*
X-13940Y63392D01*
X-13979Y63431D01*
X-14024Y63475D01*
X-14074Y63531D01*
X-14118Y63592D01*
X-14163Y63653D01*
X-14201Y63725D01*
X-14240Y63803D01*
X-14274Y63886D01*
X-14296Y63975D01*
X-14312Y64064D01*
X-14318Y64164D01*
Y64202D01*
X-14312Y64230D01*
Y64269D01*
X-14307Y64308D01*
X-14290Y64402D01*
X-14262Y64502D01*
X-14218Y64608D01*
X-14163Y64713D01*
X-14085Y64802D01*
X-14074Y64813D01*
X-14040Y64835D01*
X-13990Y64874D01*
X-13952Y64891D01*
X-13913Y64913D01*
X-13863Y64935D01*
X-13813Y64952D01*
X-13757Y64974D01*
X-13691Y64991D01*
X-13624Y65002D01*
X-13546Y65013D01*
X-13469Y65024D01*
X-13380D01*
X-11471D01*
Y64552D01*
D02*
G37*
G36*
Y60079D02*
X-13219D01*
X-13225D01*
X-13230D01*
X-13263D01*
X-13313D01*
X-13374Y60073D01*
X-13441Y60068D01*
X-13508Y60062D01*
X-13574Y60051D01*
X-13624Y60034D01*
X-13630D01*
X-13646Y60023D01*
X-13668Y60012D01*
X-13696Y59996D01*
X-13730Y59973D01*
X-13763Y59946D01*
X-13796Y59912D01*
X-13829Y59868D01*
X-13835Y59862D01*
X-13841Y59846D01*
X-13852Y59824D01*
X-13868Y59785D01*
X-13885Y59746D01*
X-13896Y59696D01*
X-13902Y59646D01*
X-13907Y59585D01*
Y59557D01*
X-13902Y59535D01*
X-13896Y59479D01*
X-13885Y59413D01*
X-13857Y59335D01*
X-13824Y59252D01*
X-13774Y59169D01*
X-13707Y59091D01*
X-13696Y59085D01*
X-13668Y59063D01*
X-13624Y59030D01*
X-13557Y58997D01*
X-13469Y58958D01*
X-13363Y58930D01*
X-13236Y58908D01*
X-13086Y58897D01*
X-11471D01*
Y58425D01*
X-13274D01*
X-13280D01*
X-13291D01*
X-13302D01*
X-13324D01*
X-13386Y58419D01*
X-13452Y58408D01*
X-13530Y58397D01*
X-13608Y58375D01*
X-13680Y58347D01*
X-13746Y58308D01*
X-13752Y58303D01*
X-13774Y58286D01*
X-13796Y58258D01*
X-13829Y58220D01*
X-13857Y58170D01*
X-13885Y58103D01*
X-13902Y58025D01*
X-13907Y57931D01*
Y57898D01*
X-13902Y57859D01*
X-13896Y57814D01*
X-13879Y57759D01*
X-13863Y57692D01*
X-13835Y57631D01*
X-13802Y57565D01*
X-13796Y57559D01*
X-13780Y57537D01*
X-13757Y57509D01*
X-13724Y57470D01*
X-13680Y57432D01*
X-13624Y57393D01*
X-13563Y57354D01*
X-13491Y57320D01*
X-13480Y57315D01*
X-13452Y57309D01*
X-13408Y57298D01*
X-13347Y57282D01*
X-13263Y57265D01*
X-13163Y57254D01*
X-13047Y57248D01*
X-12914Y57243D01*
X-11471D01*
Y56771D01*
X-14257D01*
Y57193D01*
X-13857D01*
X-13868Y57198D01*
X-13891Y57215D01*
X-13929Y57248D01*
X-13974Y57287D01*
X-14029Y57337D01*
X-14085Y57398D01*
X-14140Y57465D01*
X-14190Y57543D01*
X-14196Y57554D01*
X-14212Y57581D01*
X-14229Y57626D01*
X-14257Y57687D01*
X-14279Y57759D01*
X-14296Y57842D01*
X-14312Y57937D01*
X-14318Y58036D01*
Y58086D01*
X-14312Y58147D01*
X-14301Y58214D01*
X-14285Y58297D01*
X-14262Y58381D01*
X-14229Y58464D01*
X-14185Y58542D01*
X-14179Y58553D01*
X-14163Y58575D01*
X-14135Y58608D01*
X-14090Y58653D01*
X-14040Y58697D01*
X-13979Y58747D01*
X-13907Y58791D01*
X-13824Y58824D01*
X-13829Y58830D01*
X-13846Y58841D01*
X-13868Y58858D01*
X-13902Y58886D01*
X-13940Y58919D01*
X-13979Y58958D01*
X-14024Y59002D01*
X-14074Y59058D01*
X-14118Y59119D01*
X-14163Y59180D01*
X-14201Y59252D01*
X-14240Y59330D01*
X-14274Y59413D01*
X-14296Y59502D01*
X-14312Y59590D01*
X-14318Y59690D01*
Y59729D01*
X-14312Y59757D01*
Y59796D01*
X-14307Y59835D01*
X-14290Y59929D01*
X-14262Y60029D01*
X-14218Y60134D01*
X-14163Y60240D01*
X-14085Y60329D01*
X-14074Y60340D01*
X-14040Y60362D01*
X-13990Y60401D01*
X-13952Y60417D01*
X-13913Y60440D01*
X-13863Y60462D01*
X-13813Y60478D01*
X-13757Y60501D01*
X-13691Y60517D01*
X-13624Y60528D01*
X-13546Y60540D01*
X-13469Y60551D01*
X-13380D01*
X-11471D01*
Y60079D01*
D02*
G37*
G36*
X-13191Y56160D02*
X-13125D01*
X-13052Y56155D01*
X-12975Y56149D01*
X-12797Y56133D01*
X-12614Y56105D01*
X-12436Y56072D01*
X-12353Y56050D01*
X-12270Y56022D01*
X-12264D01*
X-12253Y56016D01*
X-12231Y56005D01*
X-12203Y55994D01*
X-12165Y55983D01*
X-12126Y55961D01*
X-12031Y55916D01*
X-11931Y55861D01*
X-11820Y55789D01*
X-11721Y55705D01*
X-11626Y55606D01*
Y55600D01*
X-11615Y55594D01*
X-11604Y55578D01*
X-11593Y55556D01*
X-11576Y55528D01*
X-11554Y55500D01*
X-11515Y55417D01*
X-11476Y55317D01*
X-11437Y55200D01*
X-11415Y55062D01*
X-11404Y54912D01*
Y54856D01*
X-11410Y54817D01*
X-11415Y54773D01*
X-11426Y54717D01*
X-11437Y54656D01*
X-11454Y54590D01*
X-11476Y54523D01*
X-11498Y54451D01*
X-11532Y54379D01*
X-11571Y54307D01*
X-11615Y54235D01*
X-11671Y54163D01*
X-11732Y54096D01*
X-11798Y54035D01*
X-11804Y54029D01*
X-11820Y54018D01*
X-11848Y54002D01*
X-11892Y53974D01*
X-11942Y53946D01*
X-12009Y53918D01*
X-12087Y53879D01*
X-12176Y53846D01*
X-12275Y53813D01*
X-12392Y53780D01*
X-12520Y53746D01*
X-12664Y53719D01*
X-12819Y53691D01*
X-12986Y53674D01*
X-13169Y53663D01*
X-13363Y53658D01*
X-13369D01*
X-13391D01*
X-13430D01*
X-13474D01*
X-13535Y53663D01*
X-13602D01*
X-13674Y53669D01*
X-13757Y53674D01*
X-13929Y53691D01*
X-14112Y53719D01*
X-14296Y53752D01*
X-14379Y53774D01*
X-14462Y53796D01*
X-14468D01*
X-14479Y53802D01*
X-14501Y53813D01*
X-14529Y53824D01*
X-14568Y53835D01*
X-14606Y53857D01*
X-14701Y53902D01*
X-14801Y53957D01*
X-14906Y54029D01*
X-15012Y54113D01*
X-15100Y54212D01*
Y54218D01*
X-15112Y54224D01*
X-15123Y54240D01*
X-15134Y54262D01*
X-15156Y54290D01*
X-15173Y54324D01*
X-15217Y54407D01*
X-15256Y54507D01*
X-15295Y54623D01*
X-15317Y54762D01*
X-15328Y54912D01*
Y54962D01*
X-15322Y55023D01*
X-15311Y55095D01*
X-15295Y55178D01*
X-15272Y55267D01*
X-15245Y55361D01*
X-15200Y55450D01*
Y55456D01*
X-15195Y55461D01*
X-15178Y55489D01*
X-15150Y55533D01*
X-15112Y55589D01*
X-15056Y55650D01*
X-14995Y55717D01*
X-14923Y55778D01*
X-14840Y55839D01*
X-14829Y55844D01*
X-14801Y55866D01*
X-14751Y55889D01*
X-14679Y55927D01*
X-14595Y55961D01*
X-14501Y56005D01*
X-14390Y56044D01*
X-14268Y56077D01*
X-14262D01*
X-14251Y56083D01*
X-14235Y56088D01*
X-14207Y56094D01*
X-14174Y56099D01*
X-14135Y56105D01*
X-14085Y56116D01*
X-14029Y56122D01*
X-13968Y56133D01*
X-13902Y56138D01*
X-13824Y56144D01*
X-13746Y56155D01*
X-13657Y56160D01*
X-13569D01*
X-13469Y56166D01*
X-13363D01*
X-13358D01*
X-13336D01*
X-13297D01*
X-13252D01*
X-13191Y56160D01*
D02*
G37*
G36*
Y53175D02*
X-13125D01*
X-13052Y53169D01*
X-12975Y53163D01*
X-12797Y53147D01*
X-12614Y53119D01*
X-12436Y53086D01*
X-12353Y53064D01*
X-12270Y53036D01*
X-12264D01*
X-12253Y53030D01*
X-12231Y53019D01*
X-12203Y53008D01*
X-12165Y52997D01*
X-12126Y52975D01*
X-12031Y52930D01*
X-11931Y52875D01*
X-11820Y52803D01*
X-11721Y52719D01*
X-11626Y52620D01*
Y52614D01*
X-11615Y52609D01*
X-11604Y52592D01*
X-11593Y52570D01*
X-11576Y52542D01*
X-11554Y52514D01*
X-11515Y52431D01*
X-11476Y52331D01*
X-11437Y52214D01*
X-11415Y52076D01*
X-11404Y51926D01*
Y51870D01*
X-11410Y51832D01*
X-11415Y51787D01*
X-11426Y51732D01*
X-11437Y51671D01*
X-11454Y51604D01*
X-11476Y51537D01*
X-11498Y51465D01*
X-11532Y51393D01*
X-11571Y51321D01*
X-11615Y51249D01*
X-11671Y51177D01*
X-11732Y51110D01*
X-11798Y51049D01*
X-11804Y51043D01*
X-11820Y51032D01*
X-11848Y51016D01*
X-11892Y50988D01*
X-11942Y50960D01*
X-12009Y50932D01*
X-12087Y50894D01*
X-12176Y50860D01*
X-12275Y50827D01*
X-12392Y50794D01*
X-12520Y50760D01*
X-12664Y50733D01*
X-12819Y50705D01*
X-12986Y50688D01*
X-13169Y50677D01*
X-13363Y50672D01*
X-13369D01*
X-13391D01*
X-13430D01*
X-13474D01*
X-13535Y50677D01*
X-13602D01*
X-13674Y50683D01*
X-13757Y50688D01*
X-13929Y50705D01*
X-14112Y50733D01*
X-14296Y50766D01*
X-14379Y50788D01*
X-14462Y50810D01*
X-14468D01*
X-14479Y50816D01*
X-14501Y50827D01*
X-14529Y50838D01*
X-14568Y50849D01*
X-14606Y50871D01*
X-14701Y50916D01*
X-14801Y50971D01*
X-14906Y51043D01*
X-15012Y51127D01*
X-15100Y51227D01*
Y51232D01*
X-15112Y51238D01*
X-15123Y51254D01*
X-15134Y51276D01*
X-15156Y51304D01*
X-15173Y51338D01*
X-15217Y51421D01*
X-15256Y51521D01*
X-15295Y51637D01*
X-15317Y51776D01*
X-15328Y51926D01*
Y51976D01*
X-15322Y52037D01*
X-15311Y52109D01*
X-15295Y52192D01*
X-15272Y52281D01*
X-15245Y52375D01*
X-15200Y52464D01*
Y52470D01*
X-15195Y52475D01*
X-15178Y52503D01*
X-15150Y52548D01*
X-15112Y52603D01*
X-15056Y52664D01*
X-14995Y52731D01*
X-14923Y52792D01*
X-14840Y52853D01*
X-14829Y52858D01*
X-14801Y52881D01*
X-14751Y52903D01*
X-14679Y52942D01*
X-14595Y52975D01*
X-14501Y53019D01*
X-14390Y53058D01*
X-14268Y53091D01*
X-14262D01*
X-14251Y53097D01*
X-14235Y53102D01*
X-14207Y53108D01*
X-14174Y53114D01*
X-14135Y53119D01*
X-14085Y53130D01*
X-14029Y53136D01*
X-13968Y53147D01*
X-13902Y53152D01*
X-13824Y53158D01*
X-13746Y53169D01*
X-13657Y53175D01*
X-13569D01*
X-13469Y53180D01*
X-13363D01*
X-13358D01*
X-13336D01*
X-13297D01*
X-13252D01*
X-13191Y53175D01*
D02*
G37*
G36*
X-11371Y49967D02*
X-11299Y49961D01*
X-11226Y49944D01*
X-11143Y49928D01*
X-11066Y49900D01*
X-10993Y49867D01*
X-10988Y49861D01*
X-10966Y49845D01*
X-10932Y49822D01*
X-10888Y49784D01*
X-10844Y49739D01*
X-10799Y49684D01*
X-10749Y49611D01*
X-10710Y49534D01*
X-10910Y49401D01*
X-10916Y49406D01*
X-10921Y49423D01*
X-10938Y49451D01*
X-10960Y49484D01*
X-10988Y49517D01*
X-11021Y49556D01*
X-11060Y49589D01*
X-11104Y49617D01*
X-11110Y49623D01*
X-11127Y49628D01*
X-11160Y49639D01*
X-11199Y49656D01*
X-11249Y49667D01*
X-11315Y49684D01*
X-11388Y49695D01*
X-11471Y49700D01*
Y49434D01*
X-12009D01*
Y49972D01*
X-11471D01*
X-11465D01*
X-11460D01*
X-11443D01*
X-11421D01*
X-11371Y49967D01*
D02*
G37*
G36*
X-11471Y47497D02*
X-14473D01*
X-14468Y47491D01*
X-14446Y47464D01*
X-14412Y47430D01*
X-14373Y47375D01*
X-14323Y47314D01*
X-14268Y47236D01*
X-14207Y47147D01*
X-14146Y47047D01*
Y47042D01*
X-14140Y47036D01*
X-14118Y47003D01*
X-14090Y46948D01*
X-14057Y46881D01*
X-14018Y46803D01*
X-13979Y46720D01*
X-13940Y46637D01*
X-13907Y46554D01*
X-14362D01*
Y46559D01*
X-14373Y46570D01*
X-14379Y46592D01*
X-14396Y46620D01*
X-14412Y46653D01*
X-14434Y46692D01*
X-14490Y46787D01*
X-14551Y46898D01*
X-14629Y47009D01*
X-14717Y47125D01*
X-14812Y47242D01*
X-14817Y47247D01*
X-14823Y47253D01*
X-14840Y47269D01*
X-14856Y47292D01*
X-14912Y47342D01*
X-14978Y47408D01*
X-15056Y47475D01*
X-15145Y47547D01*
X-15234Y47608D01*
X-15328Y47664D01*
Y47969D01*
X-11471D01*
Y47497D01*
D02*
G37*
G36*
X-12520Y45721D02*
X-12475Y45715D01*
X-12425Y45704D01*
X-12370Y45693D01*
X-12309Y45682D01*
X-12176Y45638D01*
X-12103Y45604D01*
X-12037Y45571D01*
X-11965Y45527D01*
X-11892Y45477D01*
X-11820Y45421D01*
X-11754Y45355D01*
X-11748Y45349D01*
X-11737Y45338D01*
X-11721Y45316D01*
X-11698Y45288D01*
X-11671Y45255D01*
X-11643Y45210D01*
X-11609Y45160D01*
X-11582Y45099D01*
X-11548Y45038D01*
X-11515Y44966D01*
X-11487Y44894D01*
X-11460Y44811D01*
X-11437Y44722D01*
X-11421Y44628D01*
X-11410Y44533D01*
X-11404Y44428D01*
Y44378D01*
X-11410Y44345D01*
X-11415Y44300D01*
X-11421Y44250D01*
X-11432Y44195D01*
X-11443Y44134D01*
X-11476Y44001D01*
X-11532Y43862D01*
X-11565Y43790D01*
X-11604Y43723D01*
X-11654Y43656D01*
X-11704Y43590D01*
X-11709Y43584D01*
X-11721Y43573D01*
X-11737Y43556D01*
X-11759Y43540D01*
X-11787Y43512D01*
X-11826Y43484D01*
X-11865Y43451D01*
X-11915Y43418D01*
X-11970Y43384D01*
X-12026Y43351D01*
X-12159Y43290D01*
X-12314Y43240D01*
X-12398Y43224D01*
X-12486Y43212D01*
X-12547Y43684D01*
X-12542D01*
X-12531Y43690D01*
X-12509Y43695D01*
X-12481Y43701D01*
X-12448Y43706D01*
X-12409Y43717D01*
X-12325Y43745D01*
X-12225Y43784D01*
X-12131Y43834D01*
X-12042Y43889D01*
X-11965Y43956D01*
X-11959Y43967D01*
X-11937Y43989D01*
X-11909Y44034D01*
X-11881Y44089D01*
X-11848Y44156D01*
X-11820Y44239D01*
X-11798Y44333D01*
X-11793Y44433D01*
Y44467D01*
X-11798Y44489D01*
X-11804Y44550D01*
X-11820Y44628D01*
X-11848Y44716D01*
X-11887Y44811D01*
X-11942Y44905D01*
X-12020Y44994D01*
X-12031Y45005D01*
X-12065Y45033D01*
X-12115Y45066D01*
X-12181Y45110D01*
X-12264Y45155D01*
X-12359Y45188D01*
X-12470Y45216D01*
X-12592Y45227D01*
X-12597D01*
X-12608D01*
X-12625D01*
X-12647Y45221D01*
X-12708Y45216D01*
X-12780Y45199D01*
X-12869Y45177D01*
X-12958Y45138D01*
X-13047Y45083D01*
X-13130Y45011D01*
X-13141Y45000D01*
X-13163Y44972D01*
X-13197Y44927D01*
X-13236Y44866D01*
X-13274Y44789D01*
X-13308Y44694D01*
X-13330Y44589D01*
X-13341Y44472D01*
Y44422D01*
X-13336Y44383D01*
X-13330Y44333D01*
X-13319Y44278D01*
X-13308Y44211D01*
X-13291Y44139D01*
X-13707Y44195D01*
Y44223D01*
X-13702Y44245D01*
Y44317D01*
X-13713Y44378D01*
X-13724Y44450D01*
X-13741Y44533D01*
X-13768Y44628D01*
X-13807Y44716D01*
X-13857Y44811D01*
Y44816D01*
X-13863Y44822D01*
X-13885Y44850D01*
X-13924Y44888D01*
X-13974Y44933D01*
X-14046Y44977D01*
X-14129Y45016D01*
X-14223Y45044D01*
X-14279Y45055D01*
X-14340D01*
X-14346D01*
X-14351D01*
X-14385D01*
X-14429Y45044D01*
X-14490Y45033D01*
X-14557Y45011D01*
X-14629Y44983D01*
X-14701Y44938D01*
X-14767Y44877D01*
X-14773Y44872D01*
X-14795Y44844D01*
X-14823Y44805D01*
X-14856Y44755D01*
X-14884Y44689D01*
X-14912Y44611D01*
X-14934Y44522D01*
X-14940Y44422D01*
Y44378D01*
X-14928Y44328D01*
X-14917Y44261D01*
X-14895Y44189D01*
X-14867Y44117D01*
X-14823Y44039D01*
X-14767Y43967D01*
X-14762Y43962D01*
X-14734Y43939D01*
X-14695Y43906D01*
X-14640Y43867D01*
X-14568Y43828D01*
X-14479Y43790D01*
X-14373Y43756D01*
X-14251Y43734D01*
X-14334Y43262D01*
X-14340D01*
X-14357Y43268D01*
X-14379Y43273D01*
X-14412Y43279D01*
X-14451Y43290D01*
X-14495Y43307D01*
X-14601Y43340D01*
X-14723Y43396D01*
X-14845Y43462D01*
X-14962Y43545D01*
X-15067Y43651D01*
X-15073Y43656D01*
X-15078Y43668D01*
X-15089Y43684D01*
X-15106Y43706D01*
X-15128Y43734D01*
X-15150Y43773D01*
X-15173Y43812D01*
X-15200Y43862D01*
X-15245Y43973D01*
X-15289Y44100D01*
X-15317Y44250D01*
X-15328Y44328D01*
Y44467D01*
X-15322Y44528D01*
X-15311Y44600D01*
X-15295Y44689D01*
X-15267Y44789D01*
X-15234Y44888D01*
X-15189Y44988D01*
Y44994D01*
X-15184Y45000D01*
X-15167Y45033D01*
X-15134Y45083D01*
X-15095Y45138D01*
X-15039Y45205D01*
X-14978Y45271D01*
X-14906Y45338D01*
X-14823Y45393D01*
X-14812Y45399D01*
X-14784Y45416D01*
X-14734Y45438D01*
X-14673Y45466D01*
X-14601Y45493D01*
X-14518Y45516D01*
X-14423Y45532D01*
X-14329Y45538D01*
X-14318D01*
X-14285D01*
X-14240Y45532D01*
X-14179Y45521D01*
X-14107Y45505D01*
X-14029Y45477D01*
X-13952Y45443D01*
X-13874Y45399D01*
X-13863Y45393D01*
X-13841Y45377D01*
X-13802Y45344D01*
X-13757Y45299D01*
X-13707Y45244D01*
X-13652Y45177D01*
X-13602Y45099D01*
X-13552Y45005D01*
Y45011D01*
X-13546Y45022D01*
X-13541Y45038D01*
X-13535Y45061D01*
X-13513Y45122D01*
X-13480Y45199D01*
X-13435Y45288D01*
X-13380Y45377D01*
X-13308Y45460D01*
X-13225Y45538D01*
X-13213Y45543D01*
X-13180Y45566D01*
X-13125Y45599D01*
X-13052Y45632D01*
X-12964Y45665D01*
X-12858Y45699D01*
X-12736Y45721D01*
X-12603Y45726D01*
X-12597D01*
X-12581D01*
X-12553D01*
X-12520Y45721D01*
D02*
G37*
G36*
X37829Y125559D02*
X37868D01*
X37912Y125553D01*
X38018Y125531D01*
X38135Y125503D01*
X38257Y125459D01*
X38379Y125392D01*
X38440Y125353D01*
X38495Y125309D01*
X38501Y125303D01*
X38506Y125298D01*
X38523Y125281D01*
X38540Y125265D01*
X38567Y125237D01*
X38590Y125203D01*
X38651Y125126D01*
X38712Y125026D01*
X38767Y124904D01*
X38817Y124765D01*
X38851Y124610D01*
X38379Y124571D01*
Y124576D01*
X38373Y124582D01*
X38368Y124615D01*
X38351Y124665D01*
X38329Y124726D01*
X38306Y124793D01*
X38273Y124859D01*
X38234Y124920D01*
X38195Y124970D01*
X38184Y124981D01*
X38162Y125004D01*
X38123Y125037D01*
X38068Y125076D01*
X37996Y125109D01*
X37918Y125142D01*
X37824Y125165D01*
X37724Y125176D01*
X37685D01*
X37641Y125170D01*
X37591Y125159D01*
X37524Y125142D01*
X37457Y125120D01*
X37391Y125092D01*
X37324Y125048D01*
X37313Y125042D01*
X37285Y125020D01*
X37247Y124981D01*
X37197Y124926D01*
X37141Y124859D01*
X37080Y124782D01*
X37025Y124682D01*
X36969Y124571D01*
Y124565D01*
X36963Y124554D01*
X36958Y124537D01*
X36947Y124515D01*
X36941Y124482D01*
X36930Y124443D01*
X36919Y124399D01*
X36908Y124343D01*
X36891Y124282D01*
X36880Y124216D01*
X36869Y124143D01*
X36863Y124066D01*
X36852Y123977D01*
X36847Y123888D01*
X36841Y123788D01*
Y123688D01*
X36847Y123694D01*
X36869Y123727D01*
X36908Y123772D01*
X36958Y123827D01*
X37013Y123894D01*
X37086Y123955D01*
X37163Y124016D01*
X37252Y124071D01*
X37258D01*
X37263Y124077D01*
X37296Y124093D01*
X37346Y124110D01*
X37413Y124138D01*
X37491Y124160D01*
X37580Y124177D01*
X37674Y124193D01*
X37774Y124199D01*
X37818D01*
X37851Y124193D01*
X37896Y124188D01*
X37940Y124182D01*
X37996Y124171D01*
X38051Y124154D01*
X38179Y124116D01*
X38245Y124088D01*
X38312Y124049D01*
X38379Y124010D01*
X38451Y123966D01*
X38517Y123910D01*
X38579Y123849D01*
X38584Y123844D01*
X38595Y123833D01*
X38612Y123816D01*
X38628Y123788D01*
X38656Y123749D01*
X38684Y123711D01*
X38712Y123661D01*
X38745Y123605D01*
X38778Y123544D01*
X38806Y123477D01*
X38834Y123400D01*
X38862Y123322D01*
X38878Y123239D01*
X38895Y123144D01*
X38906Y123050D01*
X38912Y122950D01*
Y122945D01*
Y122933D01*
Y122917D01*
Y122889D01*
X38906Y122856D01*
Y122822D01*
X38889Y122734D01*
X38873Y122628D01*
X38845Y122517D01*
X38806Y122395D01*
X38750Y122279D01*
Y122273D01*
X38745Y122267D01*
X38734Y122251D01*
X38723Y122229D01*
X38690Y122173D01*
X38640Y122101D01*
X38579Y122023D01*
X38506Y121946D01*
X38418Y121868D01*
X38323Y121801D01*
X38318D01*
X38312Y121796D01*
X38295Y121785D01*
X38273Y121779D01*
X38218Y121751D01*
X38146Y121724D01*
X38051Y121690D01*
X37946Y121668D01*
X37829Y121646D01*
X37702Y121640D01*
X37674D01*
X37646Y121646D01*
X37602D01*
X37552Y121651D01*
X37496Y121663D01*
X37430Y121679D01*
X37363Y121696D01*
X37285Y121718D01*
X37208Y121746D01*
X37130Y121779D01*
X37047Y121824D01*
X36969Y121873D01*
X36891Y121929D01*
X36814Y121996D01*
X36741Y122073D01*
X36736Y122079D01*
X36725Y122096D01*
X36708Y122118D01*
X36686Y122157D01*
X36653Y122206D01*
X36625Y122262D01*
X36592Y122334D01*
X36558Y122412D01*
X36520Y122506D01*
X36486Y122612D01*
X36458Y122728D01*
X36431Y122856D01*
X36403Y123000D01*
X36386Y123155D01*
X36375Y123322D01*
X36370Y123500D01*
Y123505D01*
Y123511D01*
Y123527D01*
Y123549D01*
X36375Y123605D01*
Y123683D01*
X36381Y123772D01*
X36392Y123877D01*
X36403Y123994D01*
X36419Y124121D01*
X36442Y124249D01*
X36470Y124388D01*
X36503Y124521D01*
X36542Y124654D01*
X36592Y124782D01*
X36647Y124904D01*
X36708Y125020D01*
X36780Y125120D01*
X36786Y125126D01*
X36797Y125137D01*
X36819Y125159D01*
X36847Y125192D01*
X36880Y125226D01*
X36925Y125259D01*
X36980Y125303D01*
X37036Y125342D01*
X37102Y125381D01*
X37174Y125426D01*
X37258Y125459D01*
X37341Y125498D01*
X37435Y125525D01*
X37535Y125548D01*
X37641Y125559D01*
X37751Y125564D01*
X37796D01*
X37829Y125559D01*
D02*
G37*
G36*
X54429Y124549D02*
X54468D01*
X54507Y124543D01*
X54601Y124526D01*
X54701Y124499D01*
X54807Y124454D01*
X54912Y124399D01*
X55001Y124321D01*
X55012Y124310D01*
X55034Y124277D01*
X55073Y124227D01*
X55090Y124188D01*
X55112Y124149D01*
X55134Y124099D01*
X55151Y124049D01*
X55173Y123994D01*
X55190Y123927D01*
X55201Y123860D01*
X55212Y123783D01*
X55223Y123705D01*
Y123616D01*
Y121707D01*
X54751D01*
Y123455D01*
Y123461D01*
Y123466D01*
Y123500D01*
Y123549D01*
X54746Y123611D01*
X54740Y123677D01*
X54735Y123744D01*
X54724Y123810D01*
X54707Y123860D01*
Y123866D01*
X54696Y123882D01*
X54685Y123905D01*
X54668Y123933D01*
X54646Y123966D01*
X54618Y123999D01*
X54585Y124032D01*
X54540Y124066D01*
X54535Y124071D01*
X54518Y124077D01*
X54496Y124088D01*
X54457Y124104D01*
X54418Y124121D01*
X54368Y124132D01*
X54318Y124138D01*
X54257Y124143D01*
X54229D01*
X54207Y124138D01*
X54152Y124132D01*
X54085Y124121D01*
X54008Y124093D01*
X53924Y124060D01*
X53841Y124010D01*
X53763Y123944D01*
X53758Y123933D01*
X53736Y123905D01*
X53702Y123860D01*
X53669Y123794D01*
X53630Y123705D01*
X53602Y123600D01*
X53580Y123472D01*
X53569Y123322D01*
Y121707D01*
X53097D01*
Y123511D01*
Y123516D01*
Y123527D01*
Y123538D01*
Y123561D01*
X53092Y123622D01*
X53081Y123688D01*
X53070Y123766D01*
X53047Y123844D01*
X53020Y123916D01*
X52981Y123982D01*
X52975Y123988D01*
X52959Y124010D01*
X52931Y124032D01*
X52892Y124066D01*
X52842Y124093D01*
X52775Y124121D01*
X52698Y124138D01*
X52603Y124143D01*
X52570D01*
X52531Y124138D01*
X52487Y124132D01*
X52431Y124116D01*
X52365Y124099D01*
X52304Y124071D01*
X52237Y124038D01*
X52232Y124032D01*
X52209Y124016D01*
X52182Y123994D01*
X52143Y123960D01*
X52104Y123916D01*
X52065Y123860D01*
X52026Y123799D01*
X51993Y123727D01*
X51987Y123716D01*
X51982Y123688D01*
X51971Y123644D01*
X51954Y123583D01*
X51937Y123500D01*
X51926Y123400D01*
X51921Y123283D01*
X51915Y123150D01*
Y121707D01*
X51443D01*
Y124493D01*
X51865D01*
Y124093D01*
X51871Y124104D01*
X51887Y124127D01*
X51921Y124166D01*
X51960Y124210D01*
X52009Y124266D01*
X52071Y124321D01*
X52137Y124376D01*
X52215Y124426D01*
X52226Y124432D01*
X52254Y124449D01*
X52298Y124465D01*
X52359Y124493D01*
X52431Y124515D01*
X52514Y124532D01*
X52609Y124549D01*
X52709Y124554D01*
X52759D01*
X52820Y124549D01*
X52886Y124537D01*
X52970Y124521D01*
X53053Y124499D01*
X53136Y124465D01*
X53214Y124421D01*
X53225Y124415D01*
X53247Y124399D01*
X53280Y124371D01*
X53325Y124327D01*
X53369Y124277D01*
X53419Y124216D01*
X53464Y124143D01*
X53497Y124060D01*
X53502Y124066D01*
X53513Y124082D01*
X53530Y124104D01*
X53558Y124138D01*
X53591Y124177D01*
X53630Y124216D01*
X53675Y124260D01*
X53730Y124310D01*
X53791Y124354D01*
X53852Y124399D01*
X53924Y124438D01*
X54002Y124476D01*
X54085Y124510D01*
X54174Y124532D01*
X54263Y124549D01*
X54363Y124554D01*
X54401D01*
X54429Y124549D01*
D02*
G37*
G36*
X49956D02*
X49995D01*
X50034Y124543D01*
X50128Y124526D01*
X50228Y124499D01*
X50333Y124454D01*
X50439Y124399D01*
X50528Y124321D01*
X50539Y124310D01*
X50561Y124277D01*
X50600Y124227D01*
X50616Y124188D01*
X50639Y124149D01*
X50661Y124099D01*
X50678Y124049D01*
X50700Y123994D01*
X50716Y123927D01*
X50727Y123860D01*
X50739Y123783D01*
X50750Y123705D01*
Y123616D01*
Y121707D01*
X50278D01*
Y123455D01*
Y123461D01*
Y123466D01*
Y123500D01*
Y123549D01*
X50272Y123611D01*
X50267Y123677D01*
X50261Y123744D01*
X50250Y123810D01*
X50234Y123860D01*
Y123866D01*
X50222Y123882D01*
X50211Y123905D01*
X50195Y123933D01*
X50172Y123966D01*
X50145Y123999D01*
X50111Y124032D01*
X50067Y124066D01*
X50062Y124071D01*
X50045Y124077D01*
X50023Y124088D01*
X49984Y124104D01*
X49945Y124121D01*
X49895Y124132D01*
X49845Y124138D01*
X49784Y124143D01*
X49756D01*
X49734Y124138D01*
X49679Y124132D01*
X49612Y124121D01*
X49534Y124093D01*
X49451Y124060D01*
X49368Y124010D01*
X49290Y123944D01*
X49284Y123933D01*
X49262Y123905D01*
X49229Y123860D01*
X49196Y123794D01*
X49157Y123705D01*
X49129Y123600D01*
X49107Y123472D01*
X49096Y123322D01*
Y121707D01*
X48624D01*
Y123511D01*
Y123516D01*
Y123527D01*
Y123538D01*
Y123561D01*
X48619Y123622D01*
X48607Y123688D01*
X48596Y123766D01*
X48574Y123844D01*
X48546Y123916D01*
X48507Y123982D01*
X48502Y123988D01*
X48485Y124010D01*
X48458Y124032D01*
X48419Y124066D01*
X48369Y124093D01*
X48302Y124121D01*
X48224Y124138D01*
X48130Y124143D01*
X48097D01*
X48058Y124138D01*
X48013Y124132D01*
X47958Y124116D01*
X47891Y124099D01*
X47830Y124071D01*
X47764Y124038D01*
X47758Y124032D01*
X47736Y124016D01*
X47708Y123994D01*
X47669Y123960D01*
X47631Y123916D01*
X47592Y123860D01*
X47553Y123799D01*
X47519Y123727D01*
X47514Y123716D01*
X47508Y123688D01*
X47497Y123644D01*
X47481Y123583D01*
X47464Y123500D01*
X47453Y123400D01*
X47447Y123283D01*
X47442Y123150D01*
Y121707D01*
X46970D01*
Y124493D01*
X47392D01*
Y124093D01*
X47397Y124104D01*
X47414Y124127D01*
X47447Y124166D01*
X47486Y124210D01*
X47536Y124266D01*
X47597Y124321D01*
X47664Y124376D01*
X47742Y124426D01*
X47753Y124432D01*
X47780Y124449D01*
X47825Y124465D01*
X47886Y124493D01*
X47958Y124515D01*
X48041Y124532D01*
X48136Y124549D01*
X48235Y124554D01*
X48285D01*
X48346Y124549D01*
X48413Y124537D01*
X48496Y124521D01*
X48580Y124499D01*
X48663Y124465D01*
X48741Y124421D01*
X48752Y124415D01*
X48774Y124399D01*
X48807Y124371D01*
X48851Y124327D01*
X48896Y124277D01*
X48946Y124216D01*
X48990Y124143D01*
X49024Y124060D01*
X49029Y124066D01*
X49040Y124082D01*
X49057Y124104D01*
X49085Y124138D01*
X49118Y124177D01*
X49157Y124216D01*
X49201Y124260D01*
X49257Y124310D01*
X49318Y124354D01*
X49379Y124399D01*
X49451Y124438D01*
X49529Y124476D01*
X49612Y124510D01*
X49701Y124532D01*
X49790Y124549D01*
X49889Y124554D01*
X49928D01*
X49956Y124549D01*
D02*
G37*
G36*
X34771Y125559D02*
X34816Y125553D01*
X34871Y125548D01*
X34932Y125536D01*
X34993Y125525D01*
X35138Y125487D01*
X35282Y125431D01*
X35354Y125398D01*
X35426Y125359D01*
X35493Y125309D01*
X35554Y125253D01*
X35559Y125248D01*
X35570Y125242D01*
X35581Y125220D01*
X35604Y125198D01*
X35631Y125170D01*
X35659Y125131D01*
X35687Y125092D01*
X35720Y125042D01*
X35776Y124937D01*
X35831Y124804D01*
X35853Y124737D01*
X35865Y124660D01*
X35876Y124582D01*
X35881Y124499D01*
Y124487D01*
Y124460D01*
X35876Y124415D01*
X35870Y124354D01*
X35859Y124288D01*
X35837Y124210D01*
X35815Y124127D01*
X35781Y124044D01*
X35776Y124032D01*
X35765Y124005D01*
X35743Y123960D01*
X35709Y123899D01*
X35665Y123833D01*
X35609Y123749D01*
X35543Y123666D01*
X35465Y123572D01*
X35454Y123561D01*
X35426Y123527D01*
X35398Y123500D01*
X35371Y123472D01*
X35337Y123439D01*
X35293Y123394D01*
X35249Y123350D01*
X35193Y123300D01*
X35138Y123244D01*
X35071Y123183D01*
X34999Y123122D01*
X34921Y123050D01*
X34832Y122978D01*
X34743Y122900D01*
X34738Y122895D01*
X34727Y122883D01*
X34705Y122867D01*
X34677Y122845D01*
X34644Y122811D01*
X34605Y122778D01*
X34516Y122706D01*
X34422Y122623D01*
X34333Y122539D01*
X34255Y122467D01*
X34222Y122440D01*
X34194Y122412D01*
X34189Y122406D01*
X34172Y122390D01*
X34150Y122367D01*
X34122Y122334D01*
X34094Y122295D01*
X34061Y122256D01*
X33994Y122162D01*
X35887D01*
Y121707D01*
X33339D01*
Y121713D01*
Y121735D01*
Y121768D01*
X33345Y121812D01*
X33350Y121862D01*
X33362Y121918D01*
X33373Y121973D01*
X33395Y122034D01*
Y122040D01*
X33400Y122046D01*
X33411Y122079D01*
X33434Y122129D01*
X33467Y122195D01*
X33511Y122273D01*
X33567Y122362D01*
X33628Y122451D01*
X33706Y122545D01*
Y122550D01*
X33717Y122556D01*
X33744Y122589D01*
X33794Y122639D01*
X33867Y122712D01*
X33950Y122795D01*
X34055Y122895D01*
X34183Y123006D01*
X34322Y123122D01*
X34327Y123128D01*
X34349Y123144D01*
X34383Y123172D01*
X34422Y123205D01*
X34471Y123250D01*
X34532Y123300D01*
X34594Y123355D01*
X34666Y123416D01*
X34804Y123549D01*
X34943Y123683D01*
X35010Y123749D01*
X35071Y123816D01*
X35126Y123877D01*
X35171Y123938D01*
Y123944D01*
X35182Y123949D01*
X35193Y123966D01*
X35204Y123988D01*
X35243Y124049D01*
X35287Y124121D01*
X35326Y124210D01*
X35365Y124304D01*
X35387Y124410D01*
X35398Y124510D01*
Y124515D01*
Y124521D01*
X35393Y124554D01*
X35387Y124610D01*
X35371Y124671D01*
X35348Y124748D01*
X35310Y124826D01*
X35260Y124904D01*
X35193Y124981D01*
X35182Y124993D01*
X35154Y125015D01*
X35115Y125042D01*
X35054Y125081D01*
X34977Y125115D01*
X34888Y125148D01*
X34782Y125170D01*
X34666Y125176D01*
X34633D01*
X34610Y125170D01*
X34544Y125165D01*
X34466Y125148D01*
X34383Y125126D01*
X34288Y125087D01*
X34200Y125037D01*
X34116Y124970D01*
X34105Y124959D01*
X34083Y124932D01*
X34050Y124887D01*
X34016Y124820D01*
X33978Y124743D01*
X33944Y124643D01*
X33922Y124532D01*
X33911Y124404D01*
X33428Y124454D01*
Y124460D01*
X33434Y124476D01*
Y124504D01*
X33439Y124543D01*
X33450Y124587D01*
X33461Y124637D01*
X33478Y124698D01*
X33495Y124759D01*
X33539Y124893D01*
X33606Y125026D01*
X33645Y125092D01*
X33694Y125159D01*
X33744Y125220D01*
X33800Y125276D01*
X33806Y125281D01*
X33817Y125287D01*
X33833Y125303D01*
X33861Y125320D01*
X33894Y125342D01*
X33933Y125364D01*
X33978Y125392D01*
X34033Y125420D01*
X34094Y125448D01*
X34161Y125475D01*
X34233Y125498D01*
X34311Y125520D01*
X34394Y125536D01*
X34483Y125553D01*
X34577Y125559D01*
X34677Y125564D01*
X34732D01*
X34771Y125559D01*
D02*
G37*
G36*
X45222D02*
X45294Y125548D01*
X45377Y125531D01*
X45466Y125509D01*
X45560Y125481D01*
X45649Y125437D01*
X45655D01*
X45660Y125431D01*
X45688Y125414D01*
X45733Y125387D01*
X45788Y125348D01*
X45849Y125292D01*
X45916Y125231D01*
X45977Y125159D01*
X46038Y125076D01*
X46043Y125065D01*
X46065Y125037D01*
X46088Y124987D01*
X46126Y124915D01*
X46160Y124832D01*
X46204Y124737D01*
X46243Y124626D01*
X46276Y124504D01*
Y124499D01*
X46282Y124487D01*
X46288Y124471D01*
X46293Y124443D01*
X46299Y124410D01*
X46304Y124371D01*
X46315Y124321D01*
X46321Y124266D01*
X46332Y124204D01*
X46337Y124138D01*
X46343Y124060D01*
X46354Y123982D01*
X46360Y123894D01*
Y123805D01*
X46365Y123705D01*
Y123600D01*
Y123594D01*
Y123572D01*
Y123533D01*
Y123488D01*
X46360Y123427D01*
Y123361D01*
X46354Y123289D01*
X46349Y123211D01*
X46332Y123033D01*
X46304Y122850D01*
X46271Y122673D01*
X46249Y122589D01*
X46221Y122506D01*
Y122501D01*
X46215Y122490D01*
X46204Y122467D01*
X46193Y122440D01*
X46182Y122401D01*
X46160Y122362D01*
X46115Y122267D01*
X46060Y122168D01*
X45988Y122057D01*
X45904Y121957D01*
X45805Y121862D01*
X45799D01*
X45794Y121851D01*
X45777Y121840D01*
X45755Y121829D01*
X45727Y121812D01*
X45699Y121790D01*
X45616Y121751D01*
X45516Y121713D01*
X45399Y121674D01*
X45261Y121651D01*
X45111Y121640D01*
X45055D01*
X45017Y121646D01*
X44972Y121651D01*
X44917Y121663D01*
X44855Y121674D01*
X44789Y121690D01*
X44722Y121713D01*
X44650Y121735D01*
X44578Y121768D01*
X44506Y121807D01*
X44434Y121851D01*
X44362Y121907D01*
X44295Y121968D01*
X44234Y122034D01*
X44228Y122040D01*
X44217Y122057D01*
X44201Y122084D01*
X44173Y122129D01*
X44145Y122179D01*
X44117Y122245D01*
X44079Y122323D01*
X44045Y122412D01*
X44012Y122512D01*
X43979Y122628D01*
X43945Y122756D01*
X43918Y122900D01*
X43890Y123056D01*
X43873Y123222D01*
X43862Y123405D01*
X43856Y123600D01*
Y123605D01*
Y123627D01*
Y123666D01*
Y123711D01*
X43862Y123772D01*
Y123838D01*
X43868Y123910D01*
X43873Y123994D01*
X43890Y124166D01*
X43918Y124349D01*
X43951Y124532D01*
X43973Y124615D01*
X43995Y124698D01*
Y124704D01*
X44001Y124715D01*
X44012Y124737D01*
X44023Y124765D01*
X44034Y124804D01*
X44056Y124843D01*
X44101Y124937D01*
X44156Y125037D01*
X44228Y125142D01*
X44312Y125248D01*
X44412Y125337D01*
X44417D01*
X44423Y125348D01*
X44439Y125359D01*
X44462Y125370D01*
X44489Y125392D01*
X44523Y125409D01*
X44606Y125453D01*
X44706Y125492D01*
X44822Y125531D01*
X44961Y125553D01*
X45111Y125564D01*
X45161D01*
X45222Y125559D01*
D02*
G37*
G36*
X42236D02*
X42308Y125548D01*
X42391Y125531D01*
X42480Y125509D01*
X42575Y125481D01*
X42663Y125437D01*
X42669D01*
X42674Y125431D01*
X42702Y125414D01*
X42747Y125387D01*
X42802Y125348D01*
X42863Y125292D01*
X42930Y125231D01*
X42991Y125159D01*
X43052Y125076D01*
X43057Y125065D01*
X43080Y125037D01*
X43102Y124987D01*
X43141Y124915D01*
X43174Y124832D01*
X43218Y124737D01*
X43257Y124626D01*
X43290Y124504D01*
Y124499D01*
X43296Y124487D01*
X43301Y124471D01*
X43307Y124443D01*
X43313Y124410D01*
X43318Y124371D01*
X43329Y124321D01*
X43335Y124266D01*
X43346Y124204D01*
X43352Y124138D01*
X43357Y124060D01*
X43368Y123982D01*
X43374Y123894D01*
Y123805D01*
X43379Y123705D01*
Y123600D01*
Y123594D01*
Y123572D01*
Y123533D01*
Y123488D01*
X43374Y123427D01*
Y123361D01*
X43368Y123289D01*
X43363Y123211D01*
X43346Y123033D01*
X43318Y122850D01*
X43285Y122673D01*
X43263Y122589D01*
X43235Y122506D01*
Y122501D01*
X43229Y122490D01*
X43218Y122467D01*
X43207Y122440D01*
X43196Y122401D01*
X43174Y122362D01*
X43130Y122267D01*
X43074Y122168D01*
X43002Y122057D01*
X42919Y121957D01*
X42819Y121862D01*
X42813D01*
X42808Y121851D01*
X42791Y121840D01*
X42769Y121829D01*
X42741Y121812D01*
X42713Y121790D01*
X42630Y121751D01*
X42530Y121713D01*
X42413Y121674D01*
X42275Y121651D01*
X42125Y121640D01*
X42070D01*
X42031Y121646D01*
X41986Y121651D01*
X41931Y121663D01*
X41870Y121674D01*
X41803Y121690D01*
X41737Y121713D01*
X41664Y121735D01*
X41592Y121768D01*
X41520Y121807D01*
X41448Y121851D01*
X41376Y121907D01*
X41309Y121968D01*
X41248Y122034D01*
X41243Y122040D01*
X41231Y122057D01*
X41215Y122084D01*
X41187Y122129D01*
X41159Y122179D01*
X41131Y122245D01*
X41093Y122323D01*
X41059Y122412D01*
X41026Y122512D01*
X40993Y122628D01*
X40959Y122756D01*
X40932Y122900D01*
X40904Y123056D01*
X40887Y123222D01*
X40876Y123405D01*
X40871Y123600D01*
Y123605D01*
Y123627D01*
Y123666D01*
Y123711D01*
X40876Y123772D01*
Y123838D01*
X40882Y123910D01*
X40887Y123994D01*
X40904Y124166D01*
X40932Y124349D01*
X40965Y124532D01*
X40987Y124615D01*
X41009Y124698D01*
Y124704D01*
X41015Y124715D01*
X41026Y124737D01*
X41037Y124765D01*
X41048Y124804D01*
X41070Y124843D01*
X41115Y124937D01*
X41170Y125037D01*
X41243Y125142D01*
X41326Y125248D01*
X41426Y125337D01*
X41431D01*
X41437Y125348D01*
X41453Y125359D01*
X41476Y125370D01*
X41503Y125392D01*
X41537Y125409D01*
X41620Y125453D01*
X41720Y125492D01*
X41836Y125531D01*
X41975Y125553D01*
X42125Y125564D01*
X42175D01*
X42236Y125559D01*
D02*
G37*
G36*
X40171Y121707D02*
Y121701D01*
Y121696D01*
Y121679D01*
Y121657D01*
X40166Y121607D01*
X40160Y121535D01*
X40144Y121463D01*
X40127Y121379D01*
X40099Y121302D01*
X40066Y121230D01*
X40060Y121224D01*
X40044Y121202D01*
X40021Y121169D01*
X39983Y121124D01*
X39938Y121080D01*
X39883Y121035D01*
X39811Y120985D01*
X39733Y120947D01*
X39600Y121146D01*
X39605Y121152D01*
X39622Y121158D01*
X39650Y121174D01*
X39683Y121196D01*
X39716Y121224D01*
X39755Y121257D01*
X39788Y121296D01*
X39816Y121341D01*
X39822Y121346D01*
X39827Y121363D01*
X39838Y121396D01*
X39855Y121435D01*
X39866Y121485D01*
X39883Y121552D01*
X39894Y121624D01*
X39899Y121707D01*
X39633D01*
Y122245D01*
X40171D01*
Y121707D01*
D02*
G37*
%LPC*%
G36*
X17284Y71201D02*
X15299D01*
Y69217D01*
X17284D01*
Y71201D01*
D02*
G37*
G36*
X3953Y83953D02*
X984D01*
Y80984D01*
X3953D01*
Y83953D01*
D02*
G37*
G36*
X-984D02*
X-3953D01*
Y80984D01*
X-984D01*
Y83953D01*
D02*
G37*
G36*
X6516Y78618D02*
X4532D01*
Y76634D01*
X6516D01*
Y78618D01*
D02*
G37*
G36*
X3953Y79016D02*
X984D01*
Y76047D01*
X3953D01*
Y79016D01*
D02*
G37*
G36*
X-984D02*
X-3953D01*
Y76047D01*
X-984D01*
Y79016D01*
D02*
G37*
G36*
X25665Y70292D02*
X25616Y70274D01*
X25588Y70231D01*
X25851Y70231D01*
X25817Y70250D01*
X25732Y70285D01*
X25665Y70292D01*
D02*
G37*
G36*
X21516Y21366D02*
X19532D01*
Y19382D01*
X21516D01*
Y21366D01*
D02*
G37*
G36*
X23953Y3953D02*
X20984D01*
Y1198D01*
Y984D01*
X23953D01*
Y2500D01*
Y3953D01*
D02*
G37*
G36*
X19016D02*
X16047D01*
Y2500D01*
Y984D01*
X19016D01*
Y3953D01*
D02*
G37*
G36*
X23953Y-984D02*
X20984D01*
Y-3953D01*
X23953D01*
Y-984D01*
D02*
G37*
G36*
X19016D02*
X16047D01*
Y-3953D01*
X19016D01*
Y-984D01*
D02*
G37*
G36*
X102394Y111345D02*
X100447D01*
X100287Y111338D01*
X100134Y111323D01*
X99988Y111301D01*
X99857Y111272D01*
X99733Y111235D01*
X99616Y111199D01*
X99514Y111155D01*
X99419Y111112D01*
X99339Y111068D01*
X99266Y111024D01*
X99208Y110988D01*
X99157Y110951D01*
X99113Y110922D01*
X99084Y110900D01*
X99069Y110886D01*
X99062Y110878D01*
X98975Y110784D01*
X98902Y110689D01*
X98836Y110587D01*
X98778Y110477D01*
X98734Y110375D01*
X98690Y110266D01*
X98632Y110062D01*
X98618Y109967D01*
X98603Y109880D01*
X98588Y109799D01*
X98581Y109734D01*
X98574Y109683D01*
Y109690D01*
Y109683D01*
Y107970D01*
Y109603D01*
X98588Y109377D01*
X98625Y109172D01*
X98669Y108990D01*
X98698Y108917D01*
X98727Y108844D01*
X98756Y108779D01*
X98785Y108721D01*
X98807Y108677D01*
X98829Y108633D01*
X98851Y108604D01*
X98865Y108582D01*
X98880Y108567D01*
Y108560D01*
X99011Y108414D01*
X99150Y108298D01*
X99296Y108196D01*
X99434Y108123D01*
X99558Y108064D01*
X99616Y108043D01*
X99660Y108021D01*
X99704Y108006D01*
X99733Y107999D01*
X99748Y107992D01*
X99755D01*
X99835Y108633D01*
X99696Y108691D01*
X99580Y108757D01*
X99478Y108823D01*
X99398Y108881D01*
X99339Y108932D01*
X99296Y108976D01*
X99266Y109012D01*
X99259Y109019D01*
X99201Y109114D01*
X99157Y109209D01*
X99128Y109311D01*
X99106Y109398D01*
X99091Y109479D01*
X99084Y109544D01*
Y109603D01*
X99091Y109690D01*
X99099Y109770D01*
X99135Y109916D01*
X99186Y110047D01*
X99244Y110164D01*
X99296Y110251D01*
X99347Y110317D01*
X99383Y110361D01*
X99398Y110368D01*
Y110375D01*
X99529Y110477D01*
X99675Y110558D01*
X99835Y110616D01*
X99981Y110660D01*
X100112Y110681D01*
X100170Y110696D01*
X100221Y110703D01*
X100265D01*
X100294Y110711D01*
X100316D01*
X100323D01*
Y107977D01*
X100396Y107970D01*
X100484D01*
X100651Y107977D01*
X100804Y107992D01*
X100950Y108013D01*
X101089Y108043D01*
X101213Y108079D01*
X101329Y108115D01*
X101432Y108159D01*
X101526Y108203D01*
X101614Y108247D01*
X101687Y108290D01*
X101745Y108327D01*
X101796Y108363D01*
X101840Y108393D01*
X101869Y108414D01*
X101883Y108429D01*
X101891Y108436D01*
X101978Y108524D01*
X102058Y108618D01*
X102124Y108721D01*
X102182Y108823D01*
X102233Y108925D01*
X102270Y109019D01*
X102306Y109122D01*
X102328Y109209D01*
X102350Y109304D01*
X102365Y109384D01*
X102379Y109457D01*
X102386Y109515D01*
X102394Y109566D01*
Y108013D01*
Y109683D01*
Y109639D01*
X102386Y109777D01*
X102372Y109909D01*
X102350Y110033D01*
X102314Y110149D01*
X102277Y110259D01*
X102233Y110361D01*
X102190Y110456D01*
X102139Y110536D01*
X102095Y110616D01*
X102044Y110681D01*
X102000Y110740D01*
X101964Y110784D01*
X101927Y110820D01*
X101905Y110849D01*
X101891Y110864D01*
X101883Y110871D01*
X101781Y110951D01*
X101672Y111024D01*
X101563Y111090D01*
X101446Y111148D01*
X101322Y111192D01*
X101206Y111228D01*
X100972Y111287D01*
X100870Y111308D01*
X100768Y111323D01*
X100681Y111330D01*
X100600Y111338D01*
X100535Y111345D01*
X102394D01*
D02*
G37*
G36*
X102314Y107598D02*
X98654Y106220D01*
Y105630D01*
X102314Y104237D01*
X98654D01*
X102314D01*
Y107598D01*
D02*
G37*
G36*
X97699Y104259D02*
X97254D01*
Y100155D01*
X98654D01*
X97699D01*
Y104259D01*
D02*
G37*
G36*
X103699Y99710D02*
X98654D01*
Y97786D01*
X98661Y97610D01*
X98669Y97457D01*
X98683Y97319D01*
X98698Y97202D01*
X98712Y97107D01*
X98720Y97035D01*
X98734Y96991D01*
Y96976D01*
X98771Y96852D01*
X98807Y96750D01*
X98851Y96656D01*
X98895Y96575D01*
X98924Y96510D01*
X98953Y96459D01*
X98975Y96430D01*
X98982Y96422D01*
X99048Y96342D01*
X99128Y96269D01*
X99208Y96211D01*
X99281Y96153D01*
X99354Y96109D01*
X99405Y96080D01*
X99441Y96058D01*
X99456Y96051D01*
X99572Y95999D01*
X99689Y95963D01*
X99799Y95934D01*
X99901Y95919D01*
X99988Y95905D01*
X100061Y95897D01*
X98654D01*
X100119D01*
X100280Y95905D01*
X100426Y95934D01*
X100549Y95978D01*
X100666Y96021D01*
X100753Y96065D01*
X100819Y96109D01*
X100863Y96138D01*
X100877Y96145D01*
X100994Y96247D01*
X101089Y96357D01*
X101169Y96481D01*
X101235Y96590D01*
X101286Y96692D01*
X101315Y96780D01*
X101329Y96809D01*
X101337Y96830D01*
X101344Y96845D01*
Y96852D01*
X101417Y96728D01*
X101490Y96619D01*
X101570Y96532D01*
X101643Y96459D01*
X101701Y96400D01*
X101760Y96357D01*
X101789Y96335D01*
X101803Y96328D01*
X101913Y96269D01*
X102015Y96225D01*
X102117Y96189D01*
X102211Y96167D01*
X102292Y96153D01*
X102357Y96145D01*
X102394D01*
X102408D01*
X102532Y96153D01*
X102656Y96174D01*
X102766Y96211D01*
X102868Y96247D01*
X102955Y96284D01*
X103013Y96320D01*
X103057Y96342D01*
X103072Y96349D01*
X103181Y96430D01*
X103283Y96517D01*
X103363Y96612D01*
X103429Y96699D01*
X103480Y96772D01*
X103516Y96838D01*
X103538Y96882D01*
X103546Y96889D01*
Y96896D01*
X103597Y97035D01*
X103633Y97188D01*
X103662Y97341D01*
X103677Y97487D01*
X103691Y97618D01*
Y97676D01*
X103699Y97727D01*
Y95897D01*
D01*
D01*
Y99710D01*
D02*
G37*
G36*
Y94972D02*
X98654D01*
Y92260D01*
Y94301D01*
X100892D01*
Y93441D01*
X100885Y93361D01*
Y93302D01*
X100877Y93251D01*
X100870Y93215D01*
Y93186D01*
X100863Y93171D01*
Y93164D01*
X100826Y93047D01*
X100804Y92996D01*
X100783Y92952D01*
X100761Y92909D01*
X100746Y92879D01*
X100739Y92865D01*
X100732Y92857D01*
X100688Y92799D01*
X100637Y92741D01*
X100528Y92632D01*
X100477Y92580D01*
X100433Y92544D01*
X100404Y92522D01*
X100396Y92515D01*
X100294Y92442D01*
X100185Y92362D01*
X100068Y92282D01*
X99959Y92201D01*
X99857Y92136D01*
X99777Y92085D01*
X99748Y92063D01*
X99726Y92048D01*
X99711Y92034D01*
X99704D01*
X98654Y91370D01*
Y91407D01*
Y91370D01*
Y90539D01*
X100024Y91407D01*
X100170Y91509D01*
X100302Y91604D01*
X100411Y91698D01*
X100513Y91778D01*
X100586Y91851D01*
X100644Y91910D01*
X100681Y91946D01*
X100695Y91961D01*
X100739Y92019D01*
X100790Y92085D01*
X100870Y92216D01*
X100899Y92274D01*
X100928Y92318D01*
X100943Y92347D01*
X100950Y92362D01*
X100972Y92230D01*
X100994Y92107D01*
X101031Y91997D01*
X101060Y91888D01*
X101096Y91793D01*
X101140Y91706D01*
X101176Y91625D01*
X101213Y91553D01*
X101257Y91494D01*
X101293Y91436D01*
X101322Y91392D01*
X101351Y91356D01*
X101373Y91327D01*
X101395Y91305D01*
X101402Y91297D01*
X101410Y91290D01*
X101482Y91232D01*
X101555Y91173D01*
X101708Y91086D01*
X101862Y91028D01*
X102007Y90984D01*
X102131Y90955D01*
X102182Y90948D01*
X102233D01*
X102270Y90940D01*
X102299D01*
X102314D01*
X102321D01*
X102474Y90948D01*
X102612Y90969D01*
X102744Y91006D01*
X102853Y91042D01*
X102948Y91086D01*
X103021Y91115D01*
X103064Y91144D01*
X103072Y91152D01*
X103079D01*
X103196Y91239D01*
X103298Y91327D01*
X103385Y91421D01*
X103451Y91509D01*
X103502Y91589D01*
X103531Y91655D01*
X103553Y91698D01*
X103560Y91706D01*
Y91713D01*
X103582Y91778D01*
X103604Y91859D01*
X103640Y92019D01*
X103662Y92194D01*
X103684Y92354D01*
X103691Y92507D01*
Y92573D01*
X103699Y92632D01*
Y94972D01*
D02*
G37*
G36*
Y89890D02*
X98654D01*
Y85721D01*
Y88075D01*
X98661Y87908D01*
X98669Y87754D01*
X98683Y87616D01*
X98698Y87499D01*
X98712Y87397D01*
X98720Y87324D01*
X98727Y87303D01*
X98734Y87281D01*
Y87266D01*
X98771Y87135D01*
X98814Y87018D01*
X98851Y86916D01*
X98895Y86829D01*
X98931Y86756D01*
X98960Y86705D01*
X98982Y86676D01*
X98989Y86661D01*
X99055Y86566D01*
X99135Y86486D01*
X99208Y86406D01*
X99281Y86340D01*
X99347Y86282D01*
X99398Y86238D01*
X99434Y86209D01*
X99449Y86202D01*
X99565Y86129D01*
X99689Y86056D01*
X99806Y85998D01*
X99922Y85954D01*
X100024Y85910D01*
X100105Y85881D01*
X100134Y85874D01*
X100156Y85866D01*
X100170Y85859D01*
X100178D01*
X100353Y85815D01*
X100528Y85779D01*
X100695Y85757D01*
X100856Y85735D01*
X100994Y85728D01*
X101052D01*
X101103Y85721D01*
X103699D01*
Y89890D01*
D02*
G37*
G36*
X97699Y85458D02*
X97254D01*
Y81354D01*
X98654D01*
X97699D01*
Y85458D01*
D02*
G37*
G36*
X100272Y81106D02*
X100090Y81091D01*
X99915Y81062D01*
X99762Y81019D01*
X99624Y80967D01*
X99514Y80916D01*
X99471Y80895D01*
X99434Y80880D01*
X99405Y80858D01*
X99383Y80851D01*
X99368Y80836D01*
X99361D01*
X99223Y80727D01*
X99099Y80610D01*
X98997Y80486D01*
X98909Y80370D01*
X98843Y80268D01*
X98800Y80180D01*
X98785Y80151D01*
X98771Y80129D01*
X98763Y80115D01*
Y80107D01*
X98698Y79925D01*
X98647Y79735D01*
X98618Y79546D01*
X98588Y79364D01*
X98581Y79276D01*
X98574Y79203D01*
Y79138D01*
X98567Y79079D01*
Y79109D01*
Y77096D01*
Y78963D01*
X98574Y78766D01*
X98596Y78584D01*
X98632Y78416D01*
X98669Y78277D01*
X98698Y78161D01*
X98720Y78110D01*
X98734Y78066D01*
X98749Y78037D01*
X98756Y78015D01*
X98763Y78000D01*
Y77993D01*
X98843Y77840D01*
X98931Y77709D01*
X99026Y77592D01*
X99113Y77497D01*
X99186Y77425D01*
X99252Y77373D01*
X99296Y77337D01*
X99303Y77330D01*
X99310D01*
X99449Y77250D01*
X99580Y77191D01*
X99704Y77155D01*
X99820Y77126D01*
X99922Y77111D01*
X100003Y77096D01*
X98567D01*
X103786D01*
Y79145D01*
X103779Y79334D01*
X103757Y79502D01*
X103728Y79663D01*
X103699Y79801D01*
X103670Y79910D01*
X103655Y79962D01*
X103640Y79998D01*
X103626Y80027D01*
X103619Y80049D01*
X103611Y80063D01*
Y80071D01*
X103538Y80217D01*
X103458Y80348D01*
X103371Y80457D01*
X103290Y80545D01*
X103217Y80610D01*
X103159Y80661D01*
X103115Y80698D01*
X103108Y80705D01*
X103101D01*
X102977Y80778D01*
X102853Y80829D01*
X102729Y80865D01*
X102620Y80887D01*
X102525Y80902D01*
X102452Y80916D01*
X102423D01*
X102401D01*
X102394D01*
X102386D01*
X102262Y80909D01*
X102146Y80887D01*
X102036Y80858D01*
X101942Y80829D01*
X101869Y80800D01*
X101811Y80771D01*
X101774Y80749D01*
X101760Y80742D01*
X101657Y80669D01*
X101563Y80581D01*
X101482Y80494D01*
X101417Y80406D01*
X101359Y80333D01*
X101322Y80268D01*
X101293Y80224D01*
X101286Y80217D01*
Y80209D01*
X101257Y80151D01*
X101227Y80085D01*
X101176Y79940D01*
X101125Y79772D01*
X101074Y79611D01*
X101031Y79466D01*
X101016Y79400D01*
X101001Y79342D01*
X100987Y79298D01*
X100979Y79262D01*
X100972Y79240D01*
Y79232D01*
X100943Y79109D01*
X100914Y78992D01*
X100885Y78890D01*
X100863Y78802D01*
X100841Y78715D01*
X100819Y78642D01*
X100804Y78576D01*
X100783Y78525D01*
X100768Y78474D01*
X100761Y78438D01*
X100739Y78379D01*
X100732Y78343D01*
X100724Y78336D01*
X100681Y78226D01*
X100630Y78132D01*
X100578Y78052D01*
X100535Y77993D01*
X100491Y77942D01*
X100462Y77913D01*
X100440Y77891D01*
X100433Y77884D01*
X100367Y77833D01*
X100294Y77796D01*
X100221Y77775D01*
X100163Y77753D01*
X100105Y77745D01*
X100061Y77738D01*
X100024D01*
X100017D01*
X99930Y77745D01*
X99849Y77760D01*
X99777Y77782D01*
X99718Y77811D01*
X99660Y77840D01*
X99624Y77862D01*
X99594Y77877D01*
X99587Y77884D01*
X99514Y77942D01*
X99456Y78015D01*
X99405Y78088D01*
X99354Y78154D01*
X99325Y78219D01*
X99296Y78270D01*
X99281Y78307D01*
X99274Y78321D01*
X99237Y78431D01*
X99208Y78547D01*
X99193Y78664D01*
X99179Y78766D01*
X99172Y78853D01*
X99164Y78926D01*
Y78992D01*
X99172Y79152D01*
X99186Y79298D01*
X99208Y79429D01*
X99237Y79546D01*
X99266Y79641D01*
X99288Y79714D01*
X99296Y79735D01*
X99303Y79757D01*
X99310Y79765D01*
Y79772D01*
X99368Y79888D01*
X99434Y79998D01*
X99500Y80078D01*
X99565Y80151D01*
X99616Y80209D01*
X99667Y80246D01*
X99696Y80268D01*
X99704Y80275D01*
X99799Y80326D01*
X99901Y80377D01*
X100010Y80406D01*
X100105Y80435D01*
X100199Y80457D01*
X100265Y80472D01*
X100294D01*
X100316Y80479D01*
X100323D01*
X100331D01*
X100272Y81106D01*
D02*
G37*
G36*
X103699Y76557D02*
X103101D01*
Y74895D01*
X98654D01*
Y74224D01*
X103101D01*
Y72562D01*
X98654D01*
X103699D01*
Y76557D01*
D02*
G37*
G36*
Y71891D02*
X98654D01*
Y71250D01*
X102948D01*
X98654Y69792D01*
Y69194D01*
X102875Y67721D01*
X98654D01*
Y67080D01*
X103699D01*
Y71891D01*
D02*
G37*
G36*
X103720Y66242D02*
D01*
Y64776D01*
X103706Y64878D01*
X103670Y65075D01*
X103611Y65243D01*
X103553Y65389D01*
X103516Y65454D01*
X103487Y65505D01*
X103458Y65556D01*
X103429Y65593D01*
X103407Y65622D01*
X103393Y65644D01*
X103385Y65658D01*
X103378Y65666D01*
X103239Y65804D01*
X103086Y65914D01*
X102926Y66001D01*
X102766Y66074D01*
X102627Y66118D01*
X102569Y66140D01*
X102518Y66154D01*
X102474Y66162D01*
X102445Y66169D01*
X102423Y66176D01*
X102416D01*
X102306Y65556D01*
X102467Y65527D01*
X102605Y65483D01*
X102722Y65433D01*
X102817Y65381D01*
X102890Y65330D01*
X102940Y65287D01*
X102977Y65258D01*
X102984Y65250D01*
X103057Y65156D01*
X103115Y65053D01*
X103152Y64959D01*
X103181Y64864D01*
X103196Y64776D01*
X103210Y64711D01*
Y64652D01*
X103203Y64521D01*
X103174Y64405D01*
X103137Y64302D01*
X103101Y64215D01*
X103057Y64149D01*
X103021Y64098D01*
X102991Y64062D01*
X102984Y64055D01*
X102897Y63974D01*
X102802Y63916D01*
X102707Y63880D01*
X102620Y63850D01*
X102540Y63836D01*
X102481Y63821D01*
X102437D01*
X102430D01*
X102423D01*
X102343D01*
X102270Y63836D01*
X102146Y63872D01*
X102036Y63924D01*
X101942Y63982D01*
X101876Y64040D01*
X101825Y64091D01*
X101796Y64128D01*
X101789Y64135D01*
Y64142D01*
X101723Y64266D01*
X101672Y64383D01*
X101636Y64507D01*
X101614Y64616D01*
X101599Y64711D01*
X101585Y64791D01*
Y64886D01*
X101592Y64915D01*
Y64951D01*
X101045Y65024D01*
X101067Y64929D01*
X101082Y64842D01*
X101096Y64769D01*
X101103Y64704D01*
X101111Y64652D01*
Y64587D01*
X101096Y64434D01*
X101067Y64295D01*
X101023Y64171D01*
X100972Y64069D01*
X100921Y63989D01*
X100877Y63931D01*
X100848Y63894D01*
X100834Y63880D01*
X100724Y63785D01*
X100608Y63712D01*
X100491Y63661D01*
X100374Y63632D01*
X100280Y63610D01*
X100199Y63603D01*
X100170Y63595D01*
X100148D01*
X100134D01*
X100127D01*
X99966Y63610D01*
X99820Y63646D01*
X99696Y63690D01*
X99587Y63749D01*
X99500Y63807D01*
X99434Y63850D01*
X99390Y63887D01*
X99376Y63902D01*
X99274Y64018D01*
X99201Y64142D01*
X99150Y64266D01*
X99113Y64383D01*
X99091Y64485D01*
X99084Y64565D01*
X99077Y64594D01*
Y64638D01*
X99084Y64769D01*
X99113Y64893D01*
X99150Y65002D01*
X99193Y65090D01*
X99230Y65163D01*
X99266Y65221D01*
X99296Y65250D01*
X99303Y65265D01*
X99405Y65352D01*
X99521Y65425D01*
X99645Y65491D01*
X99777Y65542D01*
X99886Y65578D01*
X99937Y65593D01*
X99981Y65600D01*
X100017Y65607D01*
X100046Y65615D01*
X100061Y65622D01*
X100068D01*
X99988Y66242D01*
D01*
X99871Y66227D01*
X99762Y66205D01*
X99558Y66140D01*
X99383Y66059D01*
X99310Y66016D01*
X99237Y65972D01*
X99172Y65928D01*
X99120Y65885D01*
X99069Y65848D01*
X99033Y65812D01*
X99004Y65790D01*
X98982Y65768D01*
X98967Y65753D01*
X98960Y65746D01*
X98895Y65658D01*
X98829Y65571D01*
X98778Y65483D01*
X98734Y65389D01*
X98661Y65206D01*
X98618Y65031D01*
X98603Y64951D01*
X98588Y64878D01*
X98581Y64813D01*
X98574Y64754D01*
X98567Y64711D01*
Y64645D01*
X98574Y64507D01*
X98588Y64383D01*
X98610Y64259D01*
X98639Y64142D01*
X98676Y64033D01*
X98712Y63938D01*
X98756Y63843D01*
X98800Y63763D01*
X98836Y63683D01*
X98880Y63617D01*
X98916Y63559D01*
X98953Y63515D01*
X98982Y63479D01*
X99004Y63450D01*
X99019Y63435D01*
X99026Y63428D01*
X99113Y63340D01*
X99208Y63267D01*
X99303Y63202D01*
X99398Y63143D01*
X99485Y63100D01*
X99580Y63056D01*
X99755Y62998D01*
X99835Y62983D01*
X99908Y62968D01*
X99973Y62954D01*
X100032Y62947D01*
X100075Y62939D01*
X100141D01*
X100316Y62947D01*
X100477Y62976D01*
X100615Y63020D01*
X100732Y63063D01*
X100826Y63107D01*
X100899Y63151D01*
X100943Y63180D01*
X100958Y63187D01*
X101067Y63289D01*
X101162Y63399D01*
X101235Y63515D01*
X101293Y63632D01*
X101337Y63734D01*
X101366Y63814D01*
X101373Y63843D01*
X101380Y63865D01*
X101388Y63880D01*
Y63887D01*
X101453Y63763D01*
X101519Y63661D01*
X101592Y63573D01*
X101657Y63501D01*
X101716Y63442D01*
X101767Y63399D01*
X101796Y63377D01*
X101811Y63369D01*
X101913Y63311D01*
X102015Y63267D01*
X102117Y63231D01*
X102211Y63209D01*
X102292Y63194D01*
X102350Y63187D01*
X102394D01*
X102408D01*
X102532Y63194D01*
X102656Y63216D01*
X102766Y63245D01*
X102860Y63282D01*
X102940Y63318D01*
X103006Y63348D01*
X103043Y63369D01*
X103057Y63377D01*
X103166Y63450D01*
X103261Y63537D01*
X103341Y63625D01*
X103414Y63712D01*
X103465Y63785D01*
X103509Y63850D01*
X103531Y63894D01*
X103538Y63902D01*
Y63909D01*
X103597Y64040D01*
X103640Y64171D01*
X103677Y64302D01*
X103699Y64419D01*
X103713Y64514D01*
X103720Y64594D01*
Y63216D01*
Y66242D01*
D02*
G37*
G36*
X99961Y62939D02*
X98567D01*
D01*
X99961D01*
D02*
G37*
G36*
X103720Y62414D02*
D01*
Y60658D01*
X103713Y60789D01*
X103706Y60913D01*
X103684Y61029D01*
X103662Y61139D01*
X103633Y61241D01*
X103604Y61335D01*
X103567Y61423D01*
X103531Y61503D01*
X103495Y61576D01*
X103458Y61634D01*
X103429Y61685D01*
X103400Y61729D01*
X103378Y61766D01*
X103356Y61787D01*
X103349Y61802D01*
X103341Y61809D01*
X103269Y61882D01*
X103188Y61948D01*
X103101Y62014D01*
X103013Y62064D01*
X102838Y62152D01*
X102664Y62210D01*
X102583Y62232D01*
X102503Y62254D01*
X102437Y62269D01*
X102379Y62283D01*
X102328Y62291D01*
X102292D01*
X102270Y62298D01*
X102262D01*
X102197Y61664D01*
X102365Y61649D01*
X102510Y61620D01*
X102642Y61576D01*
X102744Y61525D01*
X102831Y61481D01*
X102890Y61438D01*
X102926Y61408D01*
X102940Y61394D01*
X103028Y61285D01*
X103094Y61168D01*
X103145Y61044D01*
X103174Y60935D01*
X103196Y60833D01*
X103203Y60745D01*
X103210Y60716D01*
Y60672D01*
X103203Y60519D01*
X103174Y60381D01*
X103130Y60264D01*
X103086Y60162D01*
X103035Y60082D01*
X102999Y60031D01*
X102970Y59994D01*
X102955Y59980D01*
X102853Y59892D01*
X102751Y59826D01*
X102649Y59775D01*
X102547Y59746D01*
X102467Y59724D01*
X102394Y59717D01*
X102350Y59710D01*
X102343D01*
X102335D01*
X102204Y59724D01*
X102066Y59754D01*
X101942Y59805D01*
X101825Y59856D01*
X101730Y59914D01*
X101650Y59965D01*
X101621Y59980D01*
X101599Y59994D01*
X101592Y60009D01*
X101585D01*
X101504Y60067D01*
X101424Y60140D01*
X101337Y60220D01*
X101249Y60308D01*
X101074Y60490D01*
X100899Y60672D01*
X100819Y60767D01*
X100746Y60847D01*
X100681Y60927D01*
X100622Y60993D01*
X100578Y61044D01*
X100542Y61088D01*
X100520Y61117D01*
X100513Y61124D01*
X100360Y61306D01*
X100214Y61474D01*
X100083Y61612D01*
X99973Y61722D01*
X99879Y61817D01*
X99813Y61882D01*
X99769Y61919D01*
X99762Y61933D01*
X99755D01*
X99631Y62035D01*
X99514Y62116D01*
X99398Y62188D01*
X99296Y62247D01*
X99208Y62291D01*
X99142Y62320D01*
X99099Y62334D01*
X99091Y62341D01*
X99084D01*
X99004Y62371D01*
X98931Y62385D01*
X98858Y62400D01*
X98792Y62407D01*
X98734Y62414D01*
X98654D01*
Y59068D01*
X103720D01*
Y62414D01*
D02*
G37*
G36*
X103699Y58121D02*
X98654D01*
Y54709D01*
Y57450D01*
X100943D01*
Y55081D01*
X101541D01*
Y57450D01*
X103101D01*
Y54709D01*
X98654D01*
X103699D01*
Y58121D01*
D02*
G37*
G36*
X103720Y53623D02*
X98654D01*
Y51764D01*
X103720D01*
Y52165D01*
X103597Y52238D01*
X103480Y52318D01*
X103363Y52412D01*
X103261Y52500D01*
X103174Y52587D01*
X103101Y52653D01*
X103079Y52682D01*
X103057Y52704D01*
X103050Y52711D01*
X103043Y52719D01*
X102919Y52872D01*
X102802Y53025D01*
X102700Y53171D01*
X102620Y53316D01*
X102547Y53440D01*
X102518Y53491D01*
X102496Y53535D01*
X102474Y53572D01*
X102467Y53601D01*
X102452Y53615D01*
Y53623D01*
X103720D01*
D01*
D02*
G37*
G36*
Y50174D02*
X98567D01*
X101140D01*
X100885Y50167D01*
X100644Y50153D01*
X100426Y50131D01*
X100221Y50094D01*
X100032Y50058D01*
X99864Y50014D01*
X99711Y49970D01*
X99580Y49927D01*
X99463Y49883D01*
X99361Y49832D01*
X99274Y49795D01*
X99208Y49759D01*
X99150Y49722D01*
X99113Y49701D01*
X99091Y49686D01*
X99084Y49679D01*
X98997Y49599D01*
X98916Y49511D01*
X98843Y49416D01*
X98785Y49322D01*
X98734Y49227D01*
X98690Y49132D01*
X98661Y49037D01*
X98632Y48950D01*
X98610Y48862D01*
X98596Y48782D01*
X98581Y48709D01*
X98574Y48651D01*
X98567Y48600D01*
Y48527D01*
X98581Y48330D01*
X98610Y48148D01*
X98661Y47995D01*
X98712Y47864D01*
X98763Y47754D01*
X98792Y47718D01*
X98814Y47681D01*
X98829Y47652D01*
X98843Y47630D01*
X98858Y47623D01*
Y47616D01*
X98982Y47484D01*
X99113Y47375D01*
X99259Y47280D01*
X99390Y47207D01*
X99514Y47149D01*
X99565Y47120D01*
X99616Y47105D01*
X99653Y47091D01*
X99682Y47076D01*
X99696Y47069D01*
X99704D01*
X99813Y47032D01*
X99922Y47003D01*
X100156Y46960D01*
X100396Y46923D01*
X100630Y46901D01*
X100732Y46894D01*
X100826Y46887D01*
X100914D01*
X100994Y46879D01*
X101278D01*
X101410Y46887D01*
X101526D01*
X101643Y46894D01*
X101745Y46909D01*
X101847Y46916D01*
X101935Y46923D01*
X102015Y46938D01*
X102088Y46945D01*
X102153Y46960D01*
X102204Y46967D01*
X102248Y46974D01*
X102284Y46981D01*
X102306Y46989D01*
X102321Y46996D01*
X102328D01*
X102489Y47040D01*
X102634Y47091D01*
X102758Y47149D01*
X102868Y47193D01*
X102962Y47244D01*
X103028Y47273D01*
X103064Y47302D01*
X103079Y47309D01*
X103188Y47390D01*
X103283Y47470D01*
X103363Y47557D01*
X103436Y47638D01*
X103487Y47710D01*
X103524Y47769D01*
X103546Y47805D01*
X103553Y47813D01*
Y47820D01*
X103611Y47936D01*
X103648Y48060D01*
X103677Y48177D01*
X103699Y48286D01*
X103713Y48381D01*
X103720Y48461D01*
Y47638D01*
Y48527D01*
X103706Y48724D01*
X103677Y48906D01*
X103626Y49059D01*
X103575Y49190D01*
X103516Y49300D01*
X103495Y49343D01*
X103465Y49380D01*
X103451Y49409D01*
X103436Y49431D01*
X103422Y49438D01*
Y49446D01*
X103305Y49577D01*
X103166Y49686D01*
X103028Y49781D01*
X102897Y49854D01*
X102773Y49912D01*
X102722Y49941D01*
X102671Y49956D01*
X102634Y49970D01*
X102605Y49985D01*
X102591Y49992D01*
X102583D01*
X102474Y50021D01*
X102365Y50051D01*
X102124Y50094D01*
X101883Y50131D01*
X101657Y50153D01*
X101548Y50160D01*
X101453Y50167D01*
X101366D01*
X101286Y50174D01*
X103720D01*
D01*
D02*
G37*
G36*
Y46245D02*
X99988D01*
X103720D01*
D01*
D02*
G37*
G36*
X99988D02*
D01*
X99871Y46231D01*
X99762Y46209D01*
X99558Y46143D01*
X99383Y46063D01*
X99310Y46019D01*
X99237Y45976D01*
X99172Y45932D01*
X99120Y45888D01*
X99069Y45851D01*
X99033Y45815D01*
X99004Y45793D01*
X98982Y45771D01*
X98967Y45757D01*
X98960Y45750D01*
X98895Y45662D01*
X98829Y45575D01*
X98778Y45487D01*
X98734Y45392D01*
X98661Y45210D01*
X98618Y45035D01*
X98603Y44955D01*
X98588Y44882D01*
X98581Y44816D01*
X98574Y44758D01*
X98567Y44714D01*
D01*
Y42943D01*
Y44649D01*
X98574Y44510D01*
X98588Y44386D01*
X98610Y44262D01*
X98639Y44146D01*
X98676Y44036D01*
X98712Y43942D01*
X98756Y43847D01*
X98800Y43767D01*
X98836Y43686D01*
X98880Y43621D01*
X98916Y43562D01*
X98953Y43519D01*
X98982Y43482D01*
X99004Y43453D01*
X99019Y43439D01*
X99026Y43431D01*
X99113Y43344D01*
X99208Y43271D01*
X99303Y43205D01*
X99398Y43147D01*
X99485Y43103D01*
X99580Y43060D01*
X99755Y43001D01*
X99835Y42987D01*
X99908Y42972D01*
X99973Y42957D01*
X100032Y42950D01*
X100075Y42943D01*
X98567D01*
X100141D01*
X100316Y42950D01*
X100477Y42979D01*
X100615Y43023D01*
X100732Y43067D01*
X100826Y43110D01*
X100899Y43154D01*
X100943Y43183D01*
X100958Y43191D01*
X101067Y43293D01*
X101162Y43402D01*
X101235Y43519D01*
X101293Y43635D01*
X101337Y43737D01*
X101366Y43818D01*
X101373Y43847D01*
X101380Y43869D01*
X101388Y43883D01*
Y43891D01*
X101453Y43767D01*
X101519Y43665D01*
X101592Y43577D01*
X101657Y43504D01*
X101716Y43446D01*
X101767Y43402D01*
X101796Y43380D01*
X101811Y43373D01*
X101913Y43315D01*
X102015Y43271D01*
X102117Y43234D01*
X102211Y43213D01*
X102292Y43198D01*
X102350Y43191D01*
X102394D01*
X102408D01*
X102532Y43198D01*
X102656Y43220D01*
X102766Y43249D01*
X102860Y43286D01*
X102940Y43322D01*
X103006Y43351D01*
X103043Y43373D01*
X103057Y43380D01*
X103166Y43453D01*
X103261Y43541D01*
X103341Y43628D01*
X103414Y43716D01*
X103465Y43788D01*
X103509Y43854D01*
X103531Y43898D01*
X103538Y43905D01*
Y43912D01*
X103597Y44044D01*
X103640Y44175D01*
X103677Y44306D01*
X103699Y44423D01*
X103713Y44517D01*
X103720Y44598D01*
Y44780D01*
X103706Y44882D01*
X103670Y45079D01*
X103611Y45246D01*
X103553Y45392D01*
X103516Y45458D01*
X103487Y45509D01*
X103458Y45560D01*
X103429Y45596D01*
X103407Y45625D01*
X103393Y45647D01*
X103385Y45662D01*
X103378Y45669D01*
X103239Y45808D01*
X103086Y45917D01*
X102926Y46005D01*
X102766Y46077D01*
X102627Y46121D01*
X102569Y46143D01*
X102518Y46158D01*
X102474Y46165D01*
X102445Y46172D01*
X102423Y46180D01*
X102416D01*
X102306Y45560D01*
X102467Y45531D01*
X102605Y45487D01*
X102722Y45436D01*
X102817Y45385D01*
X102890Y45334D01*
X102940Y45290D01*
X102977Y45261D01*
X102984Y45254D01*
X103057Y45159D01*
X103115Y45057D01*
X103152Y44962D01*
X103181Y44867D01*
X103196Y44780D01*
X103210Y44714D01*
Y44656D01*
X103203Y44525D01*
X103174Y44408D01*
X103137Y44306D01*
X103101Y44219D01*
X103057Y44153D01*
X103021Y44102D01*
X102991Y44065D01*
X102984Y44058D01*
X102897Y43978D01*
X102802Y43920D01*
X102707Y43883D01*
X102620Y43854D01*
X102540Y43839D01*
X102481Y43825D01*
X102437D01*
X102430D01*
X102423D01*
X102343D01*
X102270Y43839D01*
X102146Y43876D01*
X102036Y43927D01*
X101942Y43985D01*
X101876Y44044D01*
X101825Y44095D01*
X101796Y44131D01*
X101789Y44138D01*
Y44146D01*
X101723Y44270D01*
X101672Y44386D01*
X101636Y44510D01*
X101614Y44620D01*
X101599Y44714D01*
X101585Y44794D01*
Y44889D01*
X101592Y44918D01*
Y44955D01*
X101045Y45028D01*
X101067Y44933D01*
X101082Y44846D01*
X101096Y44773D01*
X101103Y44707D01*
X101111Y44656D01*
Y44590D01*
X101096Y44437D01*
X101067Y44299D01*
X101023Y44175D01*
X100972Y44073D01*
X100921Y43993D01*
X100877Y43934D01*
X100848Y43898D01*
X100834Y43883D01*
X100724Y43788D01*
X100608Y43716D01*
X100491Y43665D01*
X100374Y43635D01*
X100280Y43613D01*
X100199Y43606D01*
X100170Y43599D01*
X100148D01*
X100134D01*
X100127D01*
X99966Y43613D01*
X99820Y43650D01*
X99696Y43694D01*
X99587Y43752D01*
X99500Y43810D01*
X99434Y43854D01*
X99390Y43891D01*
X99376Y43905D01*
X99274Y44022D01*
X99201Y44146D01*
X99150Y44270D01*
X99113Y44386D01*
X99091Y44488D01*
X99084Y44568D01*
X99077Y44598D01*
Y44641D01*
X99084Y44773D01*
X99113Y44897D01*
X99150Y45006D01*
X99193Y45093D01*
X99230Y45166D01*
X99266Y45225D01*
X99296Y45254D01*
X99303Y45268D01*
X99405Y45356D01*
X99521Y45429D01*
X99645Y45494D01*
X99777Y45545D01*
X99886Y45582D01*
X99937Y45596D01*
X99981Y45604D01*
X100017Y45611D01*
X100046Y45618D01*
X100061Y45625D01*
X100068D01*
X99988Y46245D01*
D02*
G37*
G36*
X103786Y42272D02*
Y39896D01*
X103772Y40136D01*
X103735Y40369D01*
X103691Y40574D01*
X103662Y40668D01*
X103633Y40756D01*
X103604Y40836D01*
X103575Y40909D01*
X103553Y40967D01*
X103531Y41026D01*
X103509Y41062D01*
X103495Y41091D01*
X103487Y41113D01*
X103480Y41120D01*
X103356Y41317D01*
X103210Y41485D01*
X103064Y41631D01*
X102919Y41755D01*
X102787Y41849D01*
X102729Y41886D01*
X102678Y41915D01*
X102642Y41944D01*
X102612Y41959D01*
X102591Y41966D01*
X102583Y41973D01*
X102357Y42075D01*
X102124Y42148D01*
X101891Y42199D01*
X101679Y42236D01*
X101585Y42250D01*
X101490Y42258D01*
X101417Y42265D01*
X101344D01*
X101293Y42272D01*
X98567D01*
X101213D01*
X100950Y42258D01*
X100695Y42228D01*
X100469Y42192D01*
X100360Y42163D01*
X100265Y42141D01*
X100178Y42119D01*
X100097Y42090D01*
X100024Y42068D01*
X99966Y42053D01*
X99922Y42032D01*
X99886Y42024D01*
X99864Y42010D01*
X99857D01*
X99638Y41900D01*
X99441Y41776D01*
X99274Y41645D01*
X99208Y41580D01*
X99142Y41521D01*
X99084Y41463D01*
X99033Y41405D01*
X98989Y41354D01*
X98960Y41310D01*
X98931Y41281D01*
X98909Y41252D01*
X98902Y41237D01*
X98895Y41230D01*
X98836Y41128D01*
X98785Y41026D01*
X98705Y40807D01*
X98647Y40588D01*
X98610Y40377D01*
X98596Y40275D01*
X98581Y40187D01*
X98574Y40107D01*
Y40041D01*
X98567Y39983D01*
Y40114D01*
Y39903D01*
X98574Y39757D01*
X98588Y39619D01*
X98603Y39487D01*
X98632Y39363D01*
X98669Y39247D01*
X98705Y39138D01*
X98742Y39035D01*
X98785Y38941D01*
X98822Y38860D01*
X98858Y38780D01*
X98895Y38722D01*
X98931Y38664D01*
X98960Y38627D01*
X98975Y38591D01*
X98989Y38576D01*
X98997Y38569D01*
X99084Y38467D01*
X99172Y38379D01*
X99274Y38299D01*
X99376Y38219D01*
X99580Y38088D01*
X99784Y37986D01*
X99879Y37942D01*
X99966Y37905D01*
X100046Y37876D01*
X100112Y37854D01*
X100170Y37832D01*
X100214Y37818D01*
X100243Y37811D01*
X103786D01*
Y42272D01*
D02*
G37*
G36*
X103720Y37249D02*
X98567D01*
X100105D01*
X99988Y37242D01*
X99871Y37227D01*
X99762Y37206D01*
X99653Y37176D01*
X99471Y37104D01*
X99383Y37067D01*
X99310Y37023D01*
X99237Y36980D01*
X99179Y36943D01*
X99128Y36899D01*
X99084Y36870D01*
X99048Y36841D01*
X99026Y36819D01*
X99011Y36805D01*
X99004Y36797D01*
X98924Y36710D01*
X98858Y36615D01*
X98800Y36513D01*
X98749Y36411D01*
X98712Y36316D01*
X98676Y36214D01*
X98625Y36017D01*
X98603Y35930D01*
X98588Y35850D01*
X98581Y35777D01*
X98574Y35711D01*
X98567Y35660D01*
Y35587D01*
X98574Y35449D01*
X98588Y35325D01*
X98610Y35201D01*
X98632Y35084D01*
X98669Y34982D01*
X98705Y34880D01*
X98742Y34785D01*
X98785Y34705D01*
X98829Y34632D01*
X98865Y34567D01*
X98902Y34516D01*
X98938Y34465D01*
X98960Y34428D01*
X98982Y34406D01*
X98997Y34392D01*
X99004Y34384D01*
X99091Y34304D01*
X99179Y34231D01*
X99266Y34173D01*
X99361Y34122D01*
X99449Y34071D01*
X99543Y34034D01*
X99711Y33983D01*
X99791Y33961D01*
X99864Y33947D01*
X99930Y33940D01*
X99981Y33932D01*
X100024Y33925D01*
X98567D01*
X100090D01*
X100258Y33932D01*
X100411Y33961D01*
X100549Y34005D01*
X100666Y34049D01*
X100761Y34093D01*
X100834Y34137D01*
X100877Y34166D01*
X100885Y34173D01*
X100892D01*
X101009Y34275D01*
X101111Y34384D01*
X101191Y34501D01*
X101264Y34610D01*
X101315Y34712D01*
X101351Y34800D01*
X101366Y34829D01*
X101373Y34851D01*
X101380Y34865D01*
Y34873D01*
X101439Y34742D01*
X101504Y34632D01*
X101570Y34538D01*
X101636Y34457D01*
X101694Y34399D01*
X101738Y34355D01*
X101767Y34326D01*
X101781Y34319D01*
X101883Y34253D01*
X101986Y34209D01*
X102088Y34173D01*
X102190Y34151D01*
X102270Y34137D01*
X102335Y34129D01*
X102379D01*
X102386D01*
X102394D01*
X102496Y34137D01*
X102591Y34144D01*
X102773Y34195D01*
X102933Y34260D01*
X103072Y34333D01*
X103181Y34406D01*
X103225Y34443D01*
X103269Y34472D01*
X103298Y34501D01*
X103320Y34523D01*
X103327Y34530D01*
X103334Y34538D01*
X103400Y34618D01*
X103465Y34698D01*
X103516Y34785D01*
X103560Y34873D01*
X103626Y35048D01*
X103670Y35223D01*
X103691Y35296D01*
X103699Y35368D01*
X103706Y35434D01*
X103713Y35493D01*
X103720Y35536D01*
Y33925D01*
D01*
Y37249D01*
D02*
G37*
G36*
X103699Y33444D02*
X103101D01*
Y31782D01*
X98654D01*
Y33444D01*
Y29449D01*
Y31111D01*
X103101D01*
Y29449D01*
X98654D01*
X103699D01*
Y33444D01*
D02*
G37*
G36*
X103720Y29041D02*
X98567D01*
X101009D01*
X100775Y29033D01*
X100557Y29019D01*
X100353Y28997D01*
X100163Y28961D01*
X99995Y28924D01*
X99842Y28888D01*
X99704Y28844D01*
X99580Y28793D01*
X99478Y28749D01*
X99383Y28705D01*
X99310Y28669D01*
X99244Y28625D01*
X99193Y28596D01*
X99164Y28574D01*
X99142Y28560D01*
X99135Y28552D01*
X99033Y28458D01*
X98946Y28356D01*
X98873Y28253D01*
X98807Y28151D01*
X98749Y28042D01*
X98705Y27940D01*
X98669Y27838D01*
X98639Y27736D01*
X98618Y27648D01*
X98596Y27561D01*
X98581Y27488D01*
X98574Y27422D01*
Y27364D01*
X98567Y27328D01*
Y27291D01*
X98574Y27123D01*
X98603Y26970D01*
X98632Y26832D01*
X98676Y26708D01*
X98712Y26613D01*
X98749Y26540D01*
X98756Y26511D01*
X98771Y26489D01*
X98778Y26482D01*
Y26475D01*
X98865Y26351D01*
X98967Y26234D01*
X99069Y26139D01*
X99172Y26059D01*
X99266Y25994D01*
X99339Y25950D01*
X99368Y25935D01*
X99390Y25921D01*
X99398Y25913D01*
X99405D01*
X99558Y25840D01*
X99718Y25789D01*
X99864Y25753D01*
X100003Y25731D01*
X100119Y25709D01*
X100163D01*
X100207Y25702D01*
X100287D01*
X100418Y25709D01*
X100542Y25724D01*
X100666Y25746D01*
X100775Y25768D01*
X100877Y25804D01*
X100979Y25840D01*
X101067Y25877D01*
X101147Y25921D01*
X101220Y25964D01*
X101286Y26001D01*
X101337Y26037D01*
X101388Y26074D01*
X101424Y26096D01*
X101446Y26118D01*
X101461Y26132D01*
X101468Y26139D01*
X101548Y26220D01*
X101621Y26307D01*
X101679Y26402D01*
X101730Y26489D01*
X101781Y26577D01*
X101818Y26664D01*
X101869Y26832D01*
X101891Y26905D01*
X101905Y26978D01*
X101913Y27036D01*
X101920Y27094D01*
X101927Y27138D01*
Y27196D01*
X101920Y27328D01*
X101898Y27452D01*
X101876Y27568D01*
X101847Y27670D01*
X101811Y27758D01*
X101789Y27823D01*
X101767Y27867D01*
X101760Y27874D01*
Y27882D01*
X101687Y27998D01*
X101606Y28100D01*
X101526Y28195D01*
X101439Y28268D01*
X101366Y28334D01*
X101307Y28385D01*
X101264Y28414D01*
X101257Y28421D01*
X101388D01*
X101519Y28414D01*
X101636Y28407D01*
X101752Y28392D01*
X101854Y28385D01*
X101949Y28370D01*
X102036Y28356D01*
X102117Y28334D01*
X102190Y28319D01*
X102248Y28304D01*
X102299Y28290D01*
X102343Y28283D01*
X102372Y28268D01*
X102394Y28261D01*
X102408Y28253D01*
X102416D01*
X102561Y28181D01*
X102693Y28108D01*
X102795Y28027D01*
X102882Y27955D01*
X102955Y27889D01*
X103006Y27838D01*
X103035Y27801D01*
X103043Y27787D01*
X103101Y27699D01*
X103137Y27612D01*
X103166Y27525D01*
X103188Y27437D01*
X103203Y27371D01*
X103210Y27313D01*
Y27262D01*
X103196Y27131D01*
X103166Y27007D01*
X103123Y26905D01*
X103079Y26810D01*
X103028Y26737D01*
X102984Y26686D01*
X102955Y26657D01*
X102940Y26642D01*
X102875Y26591D01*
X102795Y26540D01*
X102707Y26497D01*
X102620Y26467D01*
X102540Y26438D01*
X102474Y26416D01*
X102430Y26409D01*
X102423Y26402D01*
X102416D01*
X102467Y25782D01*
X102671Y25826D01*
X102853Y25892D01*
X103013Y25964D01*
X103145Y26045D01*
X103247Y26125D01*
X103290Y26154D01*
X103327Y26190D01*
X103349Y26212D01*
X103371Y26234D01*
X103378Y26241D01*
X103385Y26249D01*
X103444Y26322D01*
X103495Y26402D01*
X103582Y26562D01*
X103640Y26723D01*
X103677Y26876D01*
X103706Y27014D01*
X103713Y27073D01*
Y27123D01*
X103720Y27167D01*
Y25746D01*
Y29041D01*
D02*
G37*
G36*
X99361Y24740D02*
X98654D01*
Y24033D01*
X99361D01*
Y24740D01*
D02*
G37*
G36*
X103699Y22873D02*
X98654D01*
Y22203D01*
X100703D01*
Y20912D01*
X100710Y20723D01*
X100724Y20541D01*
X100746Y20380D01*
X100775Y20234D01*
X100804Y20096D01*
X100841Y19979D01*
X100885Y19870D01*
X100928Y19775D01*
X100965Y19695D01*
X101009Y19622D01*
X101045Y19564D01*
X101082Y19520D01*
X101103Y19484D01*
X101125Y19462D01*
X101140Y19447D01*
X101147Y19440D01*
X101235Y19367D01*
X101322Y19301D01*
X101410Y19250D01*
X101504Y19199D01*
X101599Y19156D01*
X101687Y19126D01*
X101854Y19075D01*
X101935Y19061D01*
X102007Y19046D01*
X102073Y19039D01*
X102124Y19032D01*
X102175Y19024D01*
X98654D01*
X103699D01*
Y22873D01*
D02*
G37*
G36*
X100571Y18434D02*
X100469D01*
X100302Y18427D01*
X100148Y18412D01*
X99995Y18390D01*
X99864Y18361D01*
X99733Y18332D01*
X99624Y18288D01*
X99514Y18252D01*
X99419Y18208D01*
X99339Y18164D01*
X99266Y18128D01*
X99201Y18084D01*
X99150Y18055D01*
X99113Y18026D01*
X99084Y18004D01*
X99069Y17989D01*
X99062Y17982D01*
X98975Y17894D01*
X98902Y17800D01*
X98836Y17705D01*
X98778Y17603D01*
X98734Y17501D01*
X98690Y17406D01*
X98632Y17209D01*
X98618Y17122D01*
X98603Y17041D01*
X98588Y16969D01*
X98581Y16903D01*
X98574Y16852D01*
Y18434D01*
D01*
Y15255D01*
X102394D01*
X99915D01*
X99995Y15868D01*
X99835Y15897D01*
X99689Y15941D01*
X99572Y15999D01*
X99478Y16050D01*
X99398Y16101D01*
X99347Y16145D01*
X99310Y16167D01*
X99303Y16181D01*
X99230Y16276D01*
X99179Y16378D01*
X99135Y16480D01*
X99113Y16575D01*
X99099Y16655D01*
X99091Y16728D01*
X99084Y16772D01*
Y16786D01*
X99091Y16867D01*
X99099Y16947D01*
X99135Y17093D01*
X99186Y17216D01*
X99252Y17326D01*
X99310Y17406D01*
X99361Y17472D01*
X99398Y17508D01*
X99412Y17523D01*
X99478Y17574D01*
X99558Y17617D01*
X99718Y17683D01*
X99901Y17734D01*
X100075Y17763D01*
X100236Y17785D01*
X100302Y17792D01*
X100367D01*
X100411Y17800D01*
X100455D01*
X100477D01*
X100484D01*
X100615D01*
X100739Y17785D01*
X100856Y17771D01*
X100958Y17756D01*
X101052Y17734D01*
X101140Y17705D01*
X101220Y17683D01*
X101293Y17654D01*
X101351Y17625D01*
X101402Y17603D01*
X101446Y17574D01*
X101482Y17552D01*
X101512Y17537D01*
X101533Y17523D01*
X101541Y17508D01*
X101548D01*
X101606Y17450D01*
X101657Y17391D01*
X101745Y17267D01*
X101803Y17136D01*
X101840Y17020D01*
X101869Y16910D01*
X101876Y16830D01*
X101883Y16794D01*
Y16750D01*
X101876Y16641D01*
X101854Y16538D01*
X101825Y16451D01*
X101789Y16371D01*
X101752Y16312D01*
X101723Y16261D01*
X101701Y16232D01*
X101694Y16225D01*
X101621Y16152D01*
X101533Y16086D01*
X101439Y16028D01*
X101351Y15992D01*
X101271Y15955D01*
X101206Y15933D01*
X101162Y15926D01*
X101154Y15919D01*
X101147D01*
X101242Y15314D01*
X101439Y15365D01*
X101606Y15438D01*
X101752Y15518D01*
X101869Y15598D01*
X101964Y15678D01*
X102029Y15744D01*
X102073Y15788D01*
X102088Y15795D01*
Y15802D01*
X102190Y15955D01*
X102262Y16116D01*
X102321Y16276D01*
X102357Y16429D01*
X102379Y16568D01*
X102386Y16626D01*
Y16670D01*
X102394Y16713D01*
Y16772D01*
X102386Y16947D01*
X102357Y17107D01*
X102321Y17260D01*
X102284Y17384D01*
X102241Y17493D01*
X102219Y17537D01*
X102204Y17574D01*
X102190Y17603D01*
X102175Y17625D01*
X102168Y17639D01*
Y17647D01*
X102080Y17785D01*
X101971Y17909D01*
X101862Y18011D01*
X101752Y18099D01*
X101657Y18164D01*
X101577Y18208D01*
X101548Y18222D01*
X101526Y18237D01*
X101512Y18244D01*
X101504D01*
X101329Y18310D01*
X101154Y18354D01*
X100979Y18390D01*
X100819Y18412D01*
X100746Y18419D01*
X100681Y18427D01*
X100622D01*
X100571Y18434D01*
D02*
G37*
G36*
X103699Y14738D02*
X98654D01*
Y14162D01*
X99113D01*
X99019Y14089D01*
X98938Y14016D01*
X98865Y13936D01*
X98800Y13848D01*
X98749Y13768D01*
X98705Y13681D01*
X98669Y13601D01*
X98639Y13520D01*
X98603Y13375D01*
X98588Y13309D01*
X98581Y13258D01*
Y13214D01*
X98574Y13178D01*
Y13149D01*
X98581Y13032D01*
X98596Y12915D01*
X98618Y12806D01*
X98654Y12704D01*
X98734Y12507D01*
X98785Y12427D01*
X98829Y12347D01*
X98880Y12274D01*
X98924Y12216D01*
X98967Y12164D01*
X99004Y12113D01*
X99040Y12077D01*
X99062Y12055D01*
X99077Y12041D01*
X99084Y12033D01*
X99186Y11953D01*
X99296Y11880D01*
X99405Y11814D01*
X99529Y11763D01*
X99645Y11720D01*
X99769Y11683D01*
X100003Y11625D01*
X100112Y11603D01*
X100214Y11588D01*
X100302Y11581D01*
X100382Y11574D01*
X100447Y11567D01*
X98574D01*
D01*
X103699D01*
Y14738D01*
D02*
G37*
G36*
Y10721D02*
X98654D01*
Y6551D01*
Y8906D01*
X98661Y8738D01*
X98669Y8585D01*
X98683Y8447D01*
X98698Y8330D01*
X98712Y8228D01*
X98720Y8155D01*
X98727Y8133D01*
X98734Y8111D01*
Y8097D01*
X98771Y7965D01*
X98814Y7849D01*
X98851Y7747D01*
X98895Y7659D01*
X98931Y7586D01*
X98960Y7535D01*
X98982Y7506D01*
X98989Y7492D01*
X99055Y7397D01*
X99135Y7317D01*
X99208Y7236D01*
X99281Y7171D01*
X99347Y7113D01*
X99398Y7069D01*
X99434Y7040D01*
X99449Y7032D01*
X99565Y6959D01*
X99689Y6887D01*
X99806Y6828D01*
X99922Y6784D01*
X100024Y6741D01*
X100105Y6712D01*
X100134Y6704D01*
X100156Y6697D01*
X100170Y6690D01*
X100178D01*
X100353Y6646D01*
X100528Y6610D01*
X100695Y6588D01*
X100856Y6566D01*
X100994Y6558D01*
X101052D01*
X101103Y6551D01*
X98654D01*
X103699D01*
Y10721D01*
D02*
G37*
G36*
X100528Y5946D02*
X100484D01*
X100316Y5939D01*
X100156Y5924D01*
X100010Y5902D01*
X99871Y5873D01*
X99748Y5837D01*
X99631Y5800D01*
X99521Y5756D01*
X99427Y5713D01*
X99339Y5669D01*
X99266Y5625D01*
X99208Y5589D01*
X99157Y5552D01*
X99113Y5523D01*
X99084Y5501D01*
X99069Y5487D01*
X99062Y5480D01*
X98975Y5385D01*
X98902Y5290D01*
X98836Y5188D01*
X98778Y5086D01*
X98734Y4984D01*
X98690Y4874D01*
X98632Y4678D01*
X98618Y4590D01*
X98603Y4503D01*
X98588Y4430D01*
X98581Y4364D01*
X98574Y4306D01*
Y4233D01*
X98581Y4058D01*
X98610Y3898D01*
X98647Y3745D01*
X98683Y3621D01*
X98727Y3511D01*
X98742Y3467D01*
X98756Y3431D01*
X98771Y3395D01*
X98785Y3373D01*
X98792Y3365D01*
Y3358D01*
X98887Y3212D01*
X98989Y3088D01*
X99091Y2979D01*
X99193Y2892D01*
X99281Y2826D01*
X99354Y2775D01*
X99383Y2760D01*
X99405Y2746D01*
X99412Y2739D01*
X99419D01*
X99587Y2666D01*
X99769Y2615D01*
X99952Y2571D01*
X100134Y2549D01*
X100214Y2534D01*
X100287D01*
X100360Y2527D01*
X100418Y2520D01*
X98574D01*
D01*
X102394D01*
X100535D01*
X100695Y2527D01*
X100841Y2542D01*
X100979Y2564D01*
X101111Y2593D01*
X101235Y2629D01*
X101344Y2673D01*
X101453Y2717D01*
X101541Y2760D01*
X101621Y2804D01*
X101694Y2848D01*
X101760Y2892D01*
X101811Y2928D01*
X101847Y2957D01*
X101876Y2979D01*
X101891Y2994D01*
X101898Y3001D01*
X101986Y3096D01*
X102058Y3190D01*
X102131Y3292D01*
X102182Y3395D01*
X102233Y3497D01*
X102270Y3599D01*
X102335Y3796D01*
X102350Y3890D01*
X102365Y3971D01*
X102379Y4043D01*
X102386Y4109D01*
X102394Y4160D01*
Y4233D01*
X102386Y4357D01*
X102379Y4473D01*
X102328Y4699D01*
X102262Y4896D01*
X102226Y4984D01*
X102190Y5064D01*
X102153Y5137D01*
X102117Y5195D01*
X102080Y5254D01*
X102051Y5297D01*
X102022Y5334D01*
X102000Y5363D01*
X101993Y5378D01*
X101986Y5385D01*
X101891Y5487D01*
X101781Y5567D01*
X101665Y5647D01*
X101548Y5706D01*
X101424Y5764D01*
X101293Y5808D01*
X101169Y5844D01*
X101052Y5873D01*
X100936Y5902D01*
X100834Y5917D01*
X100732Y5931D01*
X100651Y5939D01*
X100578D01*
X100528Y5946D01*
D02*
G37*
G36*
X100571Y1973D02*
X100469D01*
X100302Y1966D01*
X100148Y1951D01*
X99995Y1929D01*
X99864Y1900D01*
X99733Y1871D01*
X99624Y1827D01*
X99514Y1791D01*
X99419Y1747D01*
X99339Y1703D01*
X99266Y1667D01*
X99201Y1623D01*
X99150Y1594D01*
X99113Y1565D01*
X99084Y1543D01*
X99069Y1528D01*
X99062Y1521D01*
X98975Y1434D01*
X98902Y1339D01*
X98836Y1244D01*
X98778Y1142D01*
X98734Y1040D01*
X98690Y945D01*
X98632Y748D01*
X98618Y661D01*
X98603Y581D01*
X98588Y508D01*
X98581Y442D01*
X98574Y391D01*
Y318D01*
X98581Y209D01*
X98588Y100D01*
X98632Y-90D01*
X98683Y-265D01*
X98749Y-411D01*
X98785Y-469D01*
X98814Y-527D01*
X98843Y-579D01*
X98873Y-615D01*
X98895Y-644D01*
X98909Y-666D01*
X98916Y-680D01*
X98924Y-688D01*
X98997Y-761D01*
X99069Y-826D01*
X99230Y-943D01*
X99398Y-1038D01*
X99551Y-1103D01*
X99696Y-1154D01*
X99755Y-1169D01*
X99813Y-1183D01*
X99857Y-1191D01*
X99886Y-1198D01*
X99908Y-1205D01*
X98574D01*
D01*
X102394D01*
Y311D01*
X102386Y486D01*
X102357Y646D01*
X102321Y799D01*
X102284Y923D01*
X102241Y1033D01*
X102219Y1076D01*
X102204Y1113D01*
X102190Y1142D01*
X102175Y1164D01*
X102168Y1178D01*
Y1186D01*
X102080Y1324D01*
X101971Y1448D01*
X101862Y1550D01*
X101752Y1638D01*
X101657Y1703D01*
X101577Y1747D01*
X101548Y1762D01*
X101526Y1776D01*
X101512Y1784D01*
X101504D01*
X101329Y1849D01*
X101154Y1893D01*
X100979Y1929D01*
X100819Y1951D01*
X100746Y1958D01*
X100681Y1966D01*
X100622D01*
X100571Y1973D01*
D02*
G37*
%LPD*%
G36*
X101001Y110652D02*
X101154Y110609D01*
X101286Y110558D01*
X101388Y110499D01*
X101475Y110448D01*
X101541Y110397D01*
X101577Y110368D01*
X101592Y110354D01*
X101687Y110237D01*
X101760Y110120D01*
X101811Y109996D01*
X101847Y109880D01*
X101869Y109785D01*
X101876Y109705D01*
X101883Y109676D01*
Y109632D01*
X101876Y109544D01*
X101869Y109464D01*
X101825Y109311D01*
X101767Y109180D01*
X101701Y109070D01*
X101636Y108983D01*
X101577Y108917D01*
X101533Y108881D01*
X101526Y108866D01*
X101519D01*
X101424Y108801D01*
X101315Y108742D01*
X101206Y108706D01*
X101089Y108669D01*
X100994Y108648D01*
X100907Y108633D01*
X100877D01*
X100856Y108626D01*
X100841D01*
X100834D01*
Y110674D01*
X101001Y110652D01*
D02*
G37*
G36*
X102314Y104879D02*
X100075Y105688D01*
X99930Y105739D01*
X99799Y105790D01*
X99675Y105826D01*
X99580Y105863D01*
X99492Y105885D01*
X99434Y105907D01*
X99398Y105914D01*
X99383Y105921D01*
X99521Y105965D01*
X99660Y106001D01*
X99784Y106045D01*
X99893Y106081D01*
X99988Y106111D01*
X100061Y106132D01*
X100083Y106140D01*
X100105Y106147D01*
X100112Y106154D01*
X100119D01*
X102314Y106942D01*
Y104879D01*
D02*
G37*
G36*
X103101Y97844D02*
X103086Y97683D01*
X103079Y97559D01*
X103064Y97450D01*
X103050Y97370D01*
X103043Y97319D01*
X103028Y97282D01*
Y97275D01*
X102999Y97195D01*
X102955Y97122D01*
X102911Y97064D01*
X102868Y97013D01*
X102831Y96976D01*
X102795Y96947D01*
X102773Y96933D01*
X102766Y96925D01*
X102693Y96882D01*
X102620Y96852D01*
X102547Y96830D01*
X102474Y96816D01*
X102416Y96809D01*
X102372Y96801D01*
X102343D01*
X102328D01*
X102233Y96809D01*
X102146Y96823D01*
X102073Y96845D01*
X102015Y96867D01*
X101964Y96889D01*
X101920Y96911D01*
X101898Y96925D01*
X101891Y96933D01*
X101832Y96984D01*
X101774Y97049D01*
X101730Y97115D01*
X101701Y97173D01*
X101672Y97232D01*
X101650Y97275D01*
X101643Y97304D01*
X101636Y97319D01*
X101621Y97399D01*
X101606Y97501D01*
X101599Y97603D01*
X101592Y97705D01*
X101585Y97800D01*
Y99039D01*
X103101D01*
Y97844D01*
D02*
G37*
G36*
X100987Y97713D02*
X100972Y97559D01*
X100958Y97436D01*
X100943Y97334D01*
X100928Y97253D01*
X100914Y97188D01*
X100907Y97159D01*
X100899Y97144D01*
X100863Y97049D01*
X100819Y96969D01*
X100768Y96896D01*
X100717Y96838D01*
X100673Y96794D01*
X100637Y96765D01*
X100608Y96743D01*
X100600Y96736D01*
X100520Y96685D01*
X100440Y96648D01*
X100360Y96619D01*
X100287Y96605D01*
X100221Y96590D01*
X100163Y96583D01*
X100134D01*
X100119D01*
X100032Y96590D01*
X99944Y96597D01*
X99871Y96612D01*
X99813Y96634D01*
X99762Y96656D01*
X99718Y96670D01*
X99696Y96677D01*
X99689Y96685D01*
X99624Y96728D01*
X99565Y96765D01*
X99521Y96816D01*
X99478Y96852D01*
X99449Y96889D01*
X99427Y96918D01*
X99412Y96940D01*
X99405Y96947D01*
X99347Y97071D01*
X99303Y97195D01*
X99288Y97246D01*
X99281Y97290D01*
X99274Y97319D01*
Y97326D01*
X99266Y97385D01*
X99259Y97450D01*
X99252Y97603D01*
Y99039D01*
X100987D01*
Y97713D01*
D02*
G37*
G36*
X103137Y92712D02*
X103130Y92515D01*
X103101Y92347D01*
X103064Y92201D01*
X103021Y92092D01*
X102977Y91997D01*
X102940Y91939D01*
X102911Y91903D01*
X102904Y91888D01*
X102809Y91800D01*
X102715Y91735D01*
X102612Y91691D01*
X102525Y91655D01*
X102437Y91640D01*
X102372Y91633D01*
X102328Y91625D01*
X102321D01*
X102314D01*
X102226Y91633D01*
X102139Y91647D01*
X102066Y91669D01*
X102000Y91691D01*
X101942Y91720D01*
X101898Y91742D01*
X101869Y91757D01*
X101862Y91764D01*
X101789Y91815D01*
X101723Y91881D01*
X101672Y91946D01*
X101628Y92012D01*
X101599Y92070D01*
X101577Y92114D01*
X101563Y92143D01*
X101555Y92158D01*
X101526Y92260D01*
X101504Y92376D01*
X101490Y92493D01*
X101482Y92610D01*
X101475Y92712D01*
X101468Y92799D01*
Y94301D01*
X103137D01*
Y92712D01*
D02*
G37*
G36*
X103101Y88053D02*
X103094Y87959D01*
Y87864D01*
X103086Y87776D01*
X103064Y87630D01*
X103050Y87514D01*
X103028Y87419D01*
X103006Y87353D01*
X102999Y87317D01*
X102991Y87303D01*
X102926Y87171D01*
X102846Y87047D01*
X102751Y86938D01*
X102656Y86843D01*
X102569Y86770D01*
X102496Y86712D01*
X102467Y86697D01*
X102445Y86683D01*
X102430Y86668D01*
X102423D01*
X102343Y86624D01*
X102248Y86581D01*
X102058Y86515D01*
X101854Y86471D01*
X101657Y86435D01*
X101570Y86428D01*
X101482Y86420D01*
X101410Y86413D01*
X101344D01*
X101286Y86406D01*
X101249D01*
X101220D01*
X101213D01*
X101009Y86413D01*
X100819Y86428D01*
X100651Y86449D01*
X100506Y86471D01*
X100447Y86486D01*
X100396Y86501D01*
X100345Y86515D01*
X100309Y86523D01*
X100280Y86530D01*
X100258Y86537D01*
X100243Y86544D01*
X100236D01*
X100097Y86595D01*
X99973Y86654D01*
X99864Y86719D01*
X99769Y86778D01*
X99696Y86829D01*
X99645Y86872D01*
X99616Y86901D01*
X99602Y86909D01*
X99543Y86982D01*
X99492Y87055D01*
X99449Y87128D01*
X99405Y87200D01*
X99376Y87266D01*
X99354Y87317D01*
X99347Y87353D01*
X99339Y87368D01*
X99310Y87477D01*
X99288Y87609D01*
X99274Y87740D01*
X99266Y87864D01*
X99259Y87973D01*
X99252Y88024D01*
Y89220D01*
X103101D01*
Y88053D01*
D02*
G37*
G36*
X103699Y85721D02*
X101198D01*
X101446Y85728D01*
X101672Y85750D01*
X101876Y85786D01*
X101971Y85801D01*
X102051Y85823D01*
X102131Y85844D01*
X102197Y85859D01*
X102255Y85874D01*
X102306Y85896D01*
X102350Y85903D01*
X102379Y85917D01*
X102394Y85925D01*
X102401D01*
X102591Y86005D01*
X102758Y86100D01*
X102904Y86202D01*
X103028Y86296D01*
X103130Y86384D01*
X103203Y86457D01*
X103225Y86486D01*
X103247Y86508D01*
X103254Y86515D01*
X103261Y86523D01*
X103356Y86639D01*
X103429Y86763D01*
X103495Y86887D01*
X103546Y87004D01*
X103582Y87106D01*
X103604Y87186D01*
X103619Y87215D01*
Y87237D01*
X103626Y87251D01*
Y87259D01*
X103648Y87383D01*
X103670Y87529D01*
X103684Y87674D01*
X103691Y87820D01*
X103699Y87951D01*
Y85721D01*
D02*
G37*
G36*
X102547Y80260D02*
X102649Y80231D01*
X102736Y80187D01*
X102817Y80136D01*
X102875Y80093D01*
X102926Y80049D01*
X102955Y80020D01*
X102962Y80005D01*
X102999Y79947D01*
X103035Y79888D01*
X103094Y79750D01*
X103130Y79604D01*
X103159Y79458D01*
X103174Y79327D01*
X103181Y79269D01*
X103188Y79225D01*
Y79123D01*
X103181Y78919D01*
X103152Y78737D01*
X103108Y78591D01*
X103064Y78467D01*
X103021Y78372D01*
X102977Y78299D01*
X102948Y78263D01*
X102940Y78248D01*
X102838Y78146D01*
X102729Y78066D01*
X102612Y78000D01*
X102496Y77957D01*
X102386Y77928D01*
X102306Y77906D01*
X102270Y77898D01*
X102248Y77891D01*
X102233D01*
X102226D01*
X102277Y77250D01*
X102437Y77264D01*
X102583Y77301D01*
X102722Y77337D01*
X102838Y77388D01*
X102933Y77432D01*
X103006Y77468D01*
X103028Y77483D01*
X103050Y77497D01*
X103057Y77505D01*
X103064D01*
X103188Y77600D01*
X103298Y77701D01*
X103393Y77811D01*
X103465Y77920D01*
X103531Y78015D01*
X103567Y78088D01*
X103582Y78117D01*
X103597Y78139D01*
X103604Y78154D01*
Y78161D01*
X103662Y78321D01*
X103706Y78496D01*
X103742Y78657D01*
X103764Y78810D01*
X103779Y78948D01*
Y78999D01*
X103786Y79050D01*
Y77096D01*
X100068D01*
X100214Y77104D01*
X100353Y77126D01*
X100477Y77162D01*
X100578Y77198D01*
X100666Y77242D01*
X100732Y77271D01*
X100768Y77301D01*
X100783Y77308D01*
X100892Y77395D01*
X100994Y77497D01*
X101082Y77607D01*
X101162Y77716D01*
X101220Y77811D01*
X101264Y77891D01*
X101278Y77920D01*
X101293Y77942D01*
X101300Y77957D01*
Y77964D01*
X101329Y78022D01*
X101351Y78095D01*
X101380Y78175D01*
X101410Y78263D01*
X101461Y78445D01*
X101512Y78635D01*
X101533Y78722D01*
X101555Y78802D01*
X101577Y78882D01*
X101592Y78948D01*
X101606Y78999D01*
X101614Y79043D01*
X101621Y79072D01*
Y79079D01*
X101657Y79225D01*
X101687Y79356D01*
X101723Y79473D01*
X101752Y79575D01*
X101789Y79670D01*
X101818Y79750D01*
X101847Y79823D01*
X101869Y79888D01*
X101898Y79940D01*
X101920Y79983D01*
X101935Y80013D01*
X101956Y80042D01*
X101978Y80078D01*
X101986Y80085D01*
X102058Y80151D01*
X102131Y80195D01*
X102204Y80231D01*
X102277Y80253D01*
X102335Y80268D01*
X102386Y80275D01*
X102416D01*
X102430D01*
X102547Y80260D01*
D02*
G37*
G36*
X103699Y67977D02*
X100185Y69187D01*
X99995Y69252D01*
X99835Y69304D01*
X99696Y69354D01*
X99580Y69391D01*
X99492Y69420D01*
X99427Y69442D01*
X99390Y69449D01*
X99376Y69457D01*
X99478Y69486D01*
X99594Y69522D01*
X99718Y69566D01*
X99842Y69602D01*
X99952Y69639D01*
X100039Y69668D01*
X100075Y69683D01*
X100097Y69690D01*
X100112Y69697D01*
X100119D01*
X103699Y70893D01*
Y67977D01*
D02*
G37*
G36*
X99376Y61467D02*
X99427Y61423D01*
X99478Y61387D01*
X99521Y61350D01*
X99551Y61321D01*
X99572Y61299D01*
X99580Y61292D01*
X99616Y61255D01*
X99653Y61212D01*
X99748Y61110D01*
X99857Y60993D01*
X99966Y60869D01*
X100061Y60752D01*
X100105Y60701D01*
X100148Y60658D01*
X100178Y60621D01*
X100199Y60592D01*
X100214Y60577D01*
X100221Y60570D01*
X100323Y60453D01*
X100418Y60337D01*
X100513Y60235D01*
X100593Y60140D01*
X100673Y60053D01*
X100746Y59980D01*
X100812Y59907D01*
X100870Y59848D01*
X100928Y59790D01*
X100972Y59746D01*
X101009Y59710D01*
X101045Y59673D01*
X101089Y59637D01*
X101103Y59622D01*
X101227Y59520D01*
X101337Y59433D01*
X101446Y59360D01*
X101533Y59302D01*
X101614Y59258D01*
X101672Y59229D01*
X101708Y59214D01*
X101723Y59207D01*
X101832Y59163D01*
X101942Y59134D01*
X102044Y59105D01*
X102131Y59090D01*
X102211Y59083D01*
X102270Y59076D01*
X102306D01*
X102321D01*
X102430Y59083D01*
X102532Y59097D01*
X102634Y59112D01*
X102722Y59141D01*
X102897Y59214D01*
X103035Y59287D01*
X103101Y59331D01*
X103152Y59367D01*
X103203Y59404D01*
X103239Y59440D01*
X103269Y59469D01*
X103298Y59484D01*
X103305Y59498D01*
X103312Y59506D01*
X103385Y59586D01*
X103451Y59673D01*
X103502Y59768D01*
X103546Y59863D01*
X103619Y60053D01*
X103670Y60242D01*
X103684Y60322D01*
X103699Y60402D01*
X103706Y60475D01*
X103713Y60534D01*
X103720Y60585D01*
Y59068D01*
X99252D01*
Y61554D01*
X99376Y61467D01*
D02*
G37*
G36*
X101898Y53513D02*
X101949Y53404D01*
X102000Y53295D01*
X102051Y53193D01*
X102095Y53105D01*
X102131Y53032D01*
X102161Y52988D01*
X102168Y52981D01*
Y52974D01*
X102248Y52843D01*
X102328Y52726D01*
X102401Y52624D01*
X102467Y52544D01*
X102518Y52471D01*
X102561Y52427D01*
X102591Y52391D01*
X102598Y52383D01*
X98654D01*
Y53623D01*
X101854D01*
X101898Y53513D01*
D02*
G37*
G36*
X101366Y49533D02*
X101570Y49526D01*
X101760Y49511D01*
X101935Y49489D01*
X102088Y49467D01*
X102226Y49438D01*
X102350Y49409D01*
X102459Y49380D01*
X102554Y49351D01*
X102634Y49329D01*
X102700Y49300D01*
X102758Y49278D01*
X102795Y49256D01*
X102824Y49241D01*
X102838Y49227D01*
X102846D01*
X102911Y49176D01*
X102970Y49125D01*
X103013Y49066D01*
X103057Y49008D01*
X103123Y48891D01*
X103166Y48782D01*
X103188Y48687D01*
X103203Y48607D01*
X103210Y48578D01*
Y48534D01*
X103203Y48454D01*
X103196Y48374D01*
X103174Y48301D01*
X103145Y48235D01*
X103079Y48111D01*
X103006Y48002D01*
X102926Y47922D01*
X102860Y47856D01*
X102831Y47834D01*
X102809Y47820D01*
X102802Y47805D01*
X102795D01*
X102707Y47754D01*
X102605Y47710D01*
X102489Y47667D01*
X102365Y47638D01*
X102233Y47608D01*
X102095Y47587D01*
X101818Y47550D01*
X101679Y47535D01*
X101555Y47528D01*
X101439Y47521D01*
X101344D01*
X101257Y47514D01*
X101191D01*
X101154D01*
X101147D01*
X101140D01*
X100914D01*
X100710Y47528D01*
X100528Y47543D01*
X100353Y47557D01*
X100207Y47579D01*
X100068Y47608D01*
X99952Y47638D01*
X99842Y47660D01*
X99755Y47689D01*
X99682Y47718D01*
X99616Y47740D01*
X99565Y47769D01*
X99529Y47783D01*
X99507Y47798D01*
X99492Y47813D01*
X99485D01*
X99412Y47871D01*
X99354Y47929D01*
X99296Y47987D01*
X99252Y48046D01*
X99179Y48170D01*
X99128Y48279D01*
X99099Y48381D01*
X99084Y48454D01*
X99077Y48483D01*
Y48527D01*
X99084Y48607D01*
X99091Y48680D01*
X99142Y48819D01*
X99208Y48943D01*
X99281Y49052D01*
X99354Y49132D01*
X99419Y49198D01*
X99471Y49234D01*
X99478Y49249D01*
X99485D01*
X99572Y49300D01*
X99675Y49343D01*
X99791Y49387D01*
X99915Y49416D01*
X100046Y49446D01*
X100185Y49467D01*
X100469Y49504D01*
X100600Y49518D01*
X100724Y49526D01*
X100841Y49533D01*
X100936D01*
X101023Y49540D01*
X101089D01*
X101125D01*
X101140D01*
X101366Y49533D01*
D02*
G37*
G36*
X101402Y41580D02*
X101577Y41565D01*
X101738Y41536D01*
X101883Y41507D01*
X102007Y41485D01*
X102058Y41470D01*
X102102Y41456D01*
X102139Y41448D01*
X102161Y41441D01*
X102175Y41434D01*
X102182D01*
X102350Y41361D01*
X102503Y41281D01*
X102627Y41193D01*
X102736Y41098D01*
X102824Y41018D01*
X102882Y40953D01*
X102919Y40902D01*
X102933Y40894D01*
Y40887D01*
X103028Y40734D01*
X103101Y40566D01*
X103152Y40406D01*
X103181Y40253D01*
X103203Y40114D01*
X103210Y40056D01*
Y40005D01*
X103217Y39968D01*
Y39910D01*
X103210Y39728D01*
X103181Y39560D01*
X103137Y39422D01*
X103094Y39298D01*
X103043Y39203D01*
X103006Y39130D01*
X102977Y39086D01*
X102962Y39072D01*
X102853Y38955D01*
X102729Y38846D01*
X102598Y38758D01*
X102467Y38686D01*
X102350Y38627D01*
X102292Y38605D01*
X102248Y38591D01*
X102211Y38576D01*
X102182Y38561D01*
X102168Y38554D01*
X102161D01*
X102314Y37898D01*
X102445Y37942D01*
X102561Y37986D01*
X102671Y38044D01*
X102780Y38095D01*
X102875Y38153D01*
X102962Y38219D01*
X103050Y38277D01*
X103123Y38336D01*
X103181Y38394D01*
X103239Y38445D01*
X103290Y38496D01*
X103327Y38532D01*
X103363Y38569D01*
X103385Y38598D01*
X103393Y38613D01*
X103400Y38620D01*
X103465Y38722D01*
X103531Y38824D01*
X103582Y38926D01*
X103626Y39035D01*
X103691Y39254D01*
X103735Y39451D01*
X103757Y39546D01*
X103764Y39626D01*
X103772Y39706D01*
X103779Y39772D01*
X103786Y39823D01*
Y37811D01*
X100250D01*
X100418Y38481D01*
X100302Y38511D01*
X100192Y38547D01*
X100090Y38583D01*
X99995Y38620D01*
X99908Y38664D01*
X99835Y38707D01*
X99762Y38758D01*
X99696Y38802D01*
X99638Y38839D01*
X99594Y38882D01*
X99551Y38919D01*
X99514Y38948D01*
X99492Y38977D01*
X99471Y38999D01*
X99463Y39006D01*
X99456Y39013D01*
X99398Y39086D01*
X99354Y39167D01*
X99274Y39327D01*
X99215Y39480D01*
X99179Y39633D01*
X99150Y39764D01*
X99142Y39815D01*
Y39866D01*
X99135Y39910D01*
Y39961D01*
X99142Y40129D01*
X99172Y40289D01*
X99208Y40435D01*
X99252Y40566D01*
X99296Y40668D01*
X99317Y40712D01*
X99332Y40749D01*
X99347Y40778D01*
X99361Y40800D01*
X99368Y40814D01*
Y40821D01*
X99471Y40960D01*
X99580Y41077D01*
X99704Y41179D01*
X99820Y41259D01*
X99922Y41324D01*
X100010Y41368D01*
X100046Y41383D01*
X100068Y41397D01*
X100083Y41405D01*
X100090D01*
X100280Y41463D01*
X100469Y41507D01*
X100659Y41543D01*
X100834Y41565D01*
X100914Y41572D01*
X100987Y41580D01*
X101052D01*
X101103Y41587D01*
X101147D01*
X101184D01*
X101206D01*
X101213D01*
X101402Y41580D01*
D02*
G37*
G36*
X103720Y35602D02*
X103713Y35718D01*
X103706Y35835D01*
X103662Y36039D01*
X103633Y36134D01*
X103604Y36221D01*
X103567Y36302D01*
X103531Y36375D01*
X103495Y36433D01*
X103458Y36491D01*
X103429Y36542D01*
X103400Y36579D01*
X103378Y36608D01*
X103356Y36630D01*
X103349Y36644D01*
X103341Y36652D01*
X103269Y36717D01*
X103196Y36783D01*
X103115Y36834D01*
X103035Y36878D01*
X102882Y36950D01*
X102736Y36994D01*
X102612Y37023D01*
X102554Y37031D01*
X102510Y37038D01*
X102467Y37045D01*
X102437D01*
X102423D01*
X102416D01*
X102284Y37038D01*
X102161Y37016D01*
X102051Y36987D01*
X101956Y36950D01*
X101883Y36921D01*
X101825Y36892D01*
X101796Y36870D01*
X101781Y36863D01*
X101694Y36783D01*
X101614Y36695D01*
X101541Y36601D01*
X101482Y36506D01*
X101439Y36418D01*
X101410Y36353D01*
X101395Y36323D01*
X101388Y36302D01*
X101380Y36294D01*
Y36287D01*
X101329Y36455D01*
X101264Y36593D01*
X101184Y36717D01*
X101111Y36819D01*
X101038Y36899D01*
X100979Y36958D01*
X100943Y36987D01*
X100936Y37001D01*
X100928D01*
X100797Y37082D01*
X100659Y37147D01*
X100528Y37191D01*
X100396Y37220D01*
X100280Y37235D01*
X100229Y37242D01*
X100185D01*
X100156Y37249D01*
X103720D01*
Y35602D01*
D02*
G37*
G36*
X102547Y36404D02*
X102649Y36375D01*
X102744Y36338D01*
X102824Y36294D01*
X102890Y36258D01*
X102940Y36221D01*
X102970Y36192D01*
X102977Y36185D01*
X103057Y36090D01*
X103115Y35996D01*
X103152Y35893D01*
X103181Y35799D01*
X103196Y35711D01*
X103210Y35645D01*
Y35587D01*
X103203Y35463D01*
X103174Y35347D01*
X103137Y35252D01*
X103094Y35164D01*
X103050Y35099D01*
X103013Y35048D01*
X102984Y35011D01*
X102977Y35004D01*
X102882Y34924D01*
X102787Y34865D01*
X102693Y34822D01*
X102605Y34793D01*
X102525Y34778D01*
X102459Y34764D01*
X102416D01*
X102408D01*
X102401D01*
X102284Y34771D01*
X102175Y34800D01*
X102080Y34836D01*
X102000Y34880D01*
X101935Y34924D01*
X101891Y34960D01*
X101854Y34989D01*
X101847Y34997D01*
X101774Y35084D01*
X101716Y35186D01*
X101679Y35281D01*
X101650Y35376D01*
X101636Y35463D01*
X101628Y35529D01*
X101621Y35573D01*
Y35587D01*
X101628Y35718D01*
X101657Y35835D01*
X101694Y35937D01*
X101738Y36025D01*
X101774Y36090D01*
X101811Y36141D01*
X101840Y36178D01*
X101847Y36185D01*
X101935Y36258D01*
X102036Y36316D01*
X102131Y36353D01*
X102226Y36382D01*
X102306Y36396D01*
X102372Y36404D01*
X102416Y36411D01*
X102423D01*
X102430D01*
X102547Y36404D01*
D02*
G37*
G36*
X100258Y36601D02*
X100396Y36571D01*
X100520Y36528D01*
X100630Y36469D01*
X100710Y36418D01*
X100775Y36375D01*
X100812Y36345D01*
X100826Y36331D01*
X100921Y36221D01*
X100994Y36097D01*
X101045Y35981D01*
X101082Y35864D01*
X101103Y35762D01*
X101111Y35682D01*
X101118Y35653D01*
Y35609D01*
X101103Y35449D01*
X101074Y35303D01*
X101023Y35172D01*
X100972Y35062D01*
X100914Y34975D01*
X100863Y34909D01*
X100834Y34873D01*
X100819Y34858D01*
X100703Y34756D01*
X100578Y34683D01*
X100455Y34632D01*
X100345Y34596D01*
X100236Y34574D01*
X100156Y34567D01*
X100127Y34559D01*
X100105D01*
X100090D01*
X100083D01*
X99930Y34574D01*
X99784Y34603D01*
X99660Y34654D01*
X99558Y34705D01*
X99478Y34756D01*
X99412Y34807D01*
X99376Y34836D01*
X99361Y34851D01*
X99266Y34968D01*
X99193Y35084D01*
X99150Y35208D01*
X99113Y35325D01*
X99091Y35427D01*
X99084Y35514D01*
X99077Y35544D01*
Y35587D01*
X99084Y35689D01*
X99099Y35791D01*
X99120Y35886D01*
X99142Y35966D01*
X99164Y36032D01*
X99186Y36083D01*
X99201Y36112D01*
X99208Y36127D01*
X99266Y36214D01*
X99325Y36287D01*
X99390Y36353D01*
X99456Y36404D01*
X99507Y36447D01*
X99551Y36477D01*
X99587Y36491D01*
X99594Y36498D01*
X99689Y36535D01*
X99777Y36564D01*
X99864Y36586D01*
X99944Y36601D01*
X100010Y36608D01*
X100061Y36615D01*
X100090D01*
X100105D01*
X100258Y36601D01*
D02*
G37*
G36*
X103720Y27226D02*
X103713Y27371D01*
X103699Y27510D01*
X103670Y27641D01*
X103633Y27765D01*
X103582Y27874D01*
X103538Y27984D01*
X103480Y28078D01*
X103429Y28166D01*
X103378Y28239D01*
X103320Y28312D01*
X103276Y28370D01*
X103232Y28414D01*
X103188Y28450D01*
X103159Y28479D01*
X103145Y28494D01*
X103137Y28501D01*
X103006Y28596D01*
X102853Y28676D01*
X102693Y28749D01*
X102525Y28815D01*
X102350Y28866D01*
X102175Y28910D01*
X101993Y28946D01*
X101825Y28975D01*
X101657Y28997D01*
X101504Y29012D01*
X101366Y29026D01*
X101249Y29033D01*
X101147D01*
X101074Y29041D01*
X103720D01*
Y27226D01*
D02*
G37*
G36*
X100462Y28312D02*
X100615Y28283D01*
X100753Y28232D01*
X100863Y28181D01*
X100958Y28130D01*
X101023Y28078D01*
X101060Y28049D01*
X101074Y28035D01*
X101176Y27918D01*
X101249Y27801D01*
X101307Y27678D01*
X101344Y27568D01*
X101366Y27466D01*
X101373Y27393D01*
X101380Y27364D01*
Y27320D01*
X101366Y27167D01*
X101329Y27029D01*
X101286Y26912D01*
X101227Y26810D01*
X101169Y26730D01*
X101125Y26672D01*
X101089Y26635D01*
X101074Y26621D01*
X100950Y26526D01*
X100819Y26453D01*
X100681Y26402D01*
X100549Y26373D01*
X100433Y26351D01*
X100382Y26344D01*
X100338D01*
X100302Y26336D01*
X100272D01*
X100258D01*
X100250D01*
X100054Y26351D01*
X99886Y26380D01*
X99740Y26424D01*
X99616Y26475D01*
X99521Y26533D01*
X99449Y26577D01*
X99405Y26606D01*
X99398Y26621D01*
X99390D01*
X99332Y26672D01*
X99288Y26730D01*
X99208Y26847D01*
X99157Y26963D01*
X99113Y27065D01*
X99091Y27160D01*
X99084Y27233D01*
X99077Y27262D01*
Y27299D01*
X99084Y27400D01*
X99099Y27495D01*
X99128Y27583D01*
X99157Y27656D01*
X99179Y27721D01*
X99208Y27772D01*
X99223Y27801D01*
X99230Y27816D01*
X99296Y27904D01*
X99361Y27977D01*
X99441Y28042D01*
X99507Y28093D01*
X99572Y28137D01*
X99624Y28166D01*
X99660Y28188D01*
X99675Y28195D01*
X99784Y28239D01*
X99893Y28268D01*
X99995Y28297D01*
X100090Y28312D01*
X100170Y28319D01*
X100236Y28326D01*
X100272D01*
X100287D01*
X100462Y28312D01*
D02*
G37*
G36*
X103101Y20759D02*
X103094Y20628D01*
X103086Y20519D01*
X103079Y20431D01*
X103064Y20373D01*
X103057Y20329D01*
X103050Y20300D01*
Y20293D01*
X103013Y20198D01*
X102970Y20118D01*
X102926Y20045D01*
X102875Y19979D01*
X102824Y19936D01*
X102787Y19899D01*
X102758Y19877D01*
X102751Y19870D01*
X102664Y19819D01*
X102576Y19775D01*
X102481Y19746D01*
X102401Y19732D01*
X102328Y19717D01*
X102262Y19710D01*
X102226D01*
X102219D01*
X102211D01*
X102058Y19724D01*
X101927Y19753D01*
X101811Y19797D01*
X101716Y19848D01*
X101643Y19899D01*
X101585Y19943D01*
X101555Y19972D01*
X101541Y19987D01*
X101497Y20038D01*
X101461Y20103D01*
X101402Y20242D01*
X101359Y20395D01*
X101329Y20548D01*
X101315Y20686D01*
X101307Y20745D01*
Y20796D01*
X101300Y20847D01*
Y22203D01*
X103101D01*
Y20759D01*
D02*
G37*
G36*
X103699Y19024D02*
X102233D01*
X102372Y19032D01*
X102503Y19046D01*
X102620Y19075D01*
X102722Y19097D01*
X102809Y19126D01*
X102875Y19156D01*
X102911Y19170D01*
X102926Y19177D01*
X103035Y19236D01*
X103130Y19309D01*
X103217Y19374D01*
X103283Y19440D01*
X103334Y19498D01*
X103378Y19542D01*
X103400Y19571D01*
X103407Y19586D01*
X103465Y19680D01*
X103516Y19790D01*
X103560Y19892D01*
X103597Y19987D01*
X103619Y20074D01*
X103633Y20140D01*
X103648Y20191D01*
Y20205D01*
X103662Y20315D01*
X103677Y20439D01*
X103684Y20570D01*
X103691Y20694D01*
X103699Y20803D01*
Y19024D01*
D02*
G37*
G36*
X98581Y16670D02*
X98588Y16560D01*
X98632Y16371D01*
X98683Y16196D01*
X98749Y16050D01*
X98785Y15992D01*
X98814Y15933D01*
X98843Y15882D01*
X98873Y15846D01*
X98895Y15817D01*
X98909Y15795D01*
X98916Y15780D01*
X98924Y15773D01*
X98997Y15700D01*
X99069Y15634D01*
X99230Y15518D01*
X99398Y15423D01*
X99551Y15358D01*
X99696Y15306D01*
X99755Y15292D01*
X99813Y15277D01*
X99857Y15270D01*
X99886Y15263D01*
X99908Y15255D01*
X98574D01*
Y16779D01*
X98581Y16670D01*
D02*
G37*
G36*
X100739Y14155D02*
X100848Y14140D01*
X100950Y14126D01*
X101038Y14104D01*
X101125Y14074D01*
X101198Y14053D01*
X101271Y14023D01*
X101329Y13994D01*
X101380Y13972D01*
X101424Y13943D01*
X101461Y13921D01*
X101490Y13907D01*
X101512Y13892D01*
X101519Y13878D01*
X101526D01*
X101592Y13819D01*
X101643Y13761D01*
X101694Y13703D01*
X101730Y13644D01*
X101796Y13528D01*
X101840Y13418D01*
X101862Y13324D01*
X101876Y13243D01*
X101883Y13214D01*
Y13105D01*
X101869Y13032D01*
X101832Y12893D01*
X101774Y12777D01*
X101716Y12675D01*
X101650Y12595D01*
X101592Y12536D01*
X101555Y12500D01*
X101548Y12485D01*
X101541D01*
X101475Y12434D01*
X101395Y12390D01*
X101235Y12318D01*
X101052Y12267D01*
X100885Y12237D01*
X100732Y12216D01*
X100659Y12208D01*
X100600D01*
X100549Y12201D01*
X100513D01*
X100491D01*
X100484D01*
X100360D01*
X100236Y12216D01*
X100127Y12230D01*
X100024Y12245D01*
X99930Y12267D01*
X99842Y12296D01*
X99769Y12325D01*
X99696Y12347D01*
X99638Y12376D01*
X99580Y12405D01*
X99536Y12427D01*
X99500Y12456D01*
X99471Y12471D01*
X99449Y12485D01*
X99441Y12500D01*
X99434D01*
X99376Y12558D01*
X99317Y12616D01*
X99230Y12733D01*
X99172Y12850D01*
X99128Y12959D01*
X99106Y13054D01*
X99091Y13134D01*
X99084Y13163D01*
Y13200D01*
X99091Y13294D01*
X99106Y13375D01*
X99128Y13462D01*
X99157Y13535D01*
X99237Y13674D01*
X99325Y13783D01*
X99405Y13878D01*
X99485Y13943D01*
X99514Y13965D01*
X99536Y13980D01*
X99551Y13994D01*
X99558D01*
X99616Y14023D01*
X99682Y14053D01*
X99828Y14096D01*
X99988Y14126D01*
X100141Y14147D01*
X100280Y14162D01*
X100345D01*
X100396Y14169D01*
X100440D01*
X100477D01*
X100498D01*
X100506D01*
X100630D01*
X100739Y14155D01*
D02*
G37*
G36*
X103699Y11567D02*
X100535D01*
X100681Y11574D01*
X100819Y11581D01*
X100943Y11603D01*
X101052Y11625D01*
X101147Y11647D01*
X101220Y11661D01*
X101242Y11669D01*
X101264Y11676D01*
X101271Y11683D01*
X101278D01*
X101402Y11727D01*
X101519Y11778D01*
X101621Y11829D01*
X101708Y11880D01*
X101774Y11924D01*
X101825Y11960D01*
X101862Y11982D01*
X101869Y11989D01*
X101956Y12062D01*
X102036Y12150D01*
X102102Y12230D01*
X102153Y12310D01*
X102197Y12376D01*
X102233Y12434D01*
X102248Y12471D01*
X102255Y12485D01*
X102299Y12595D01*
X102335Y12711D01*
X102357Y12821D01*
X102379Y12915D01*
X102386Y12995D01*
X102394Y13061D01*
Y13119D01*
X102386Y13229D01*
X102372Y13338D01*
X102350Y13440D01*
X102314Y13535D01*
X102241Y13703D01*
X102146Y13848D01*
X102102Y13907D01*
X102058Y13965D01*
X102015Y14009D01*
X101978Y14045D01*
X101942Y14082D01*
X101920Y14104D01*
X101905Y14111D01*
X101898Y14118D01*
X103699D01*
Y11567D01*
D02*
G37*
G36*
X103101Y8884D02*
X103094Y8789D01*
Y8694D01*
X103086Y8607D01*
X103064Y8461D01*
X103050Y8344D01*
X103028Y8250D01*
X103006Y8184D01*
X102999Y8148D01*
X102991Y8133D01*
X102926Y8002D01*
X102846Y7878D01*
X102751Y7769D01*
X102656Y7674D01*
X102569Y7601D01*
X102496Y7543D01*
X102467Y7528D01*
X102445Y7513D01*
X102430Y7499D01*
X102423D01*
X102343Y7455D01*
X102248Y7411D01*
X102058Y7346D01*
X101854Y7302D01*
X101657Y7266D01*
X101570Y7258D01*
X101482Y7251D01*
X101410Y7244D01*
X101344D01*
X101286Y7236D01*
X101249D01*
X101220D01*
X101213D01*
X101009Y7244D01*
X100819Y7258D01*
X100651Y7280D01*
X100506Y7302D01*
X100447Y7317D01*
X100396Y7331D01*
X100345Y7346D01*
X100309Y7353D01*
X100280Y7360D01*
X100258Y7368D01*
X100243Y7375D01*
X100236D01*
X100097Y7426D01*
X99973Y7484D01*
X99864Y7550D01*
X99769Y7608D01*
X99696Y7659D01*
X99645Y7703D01*
X99616Y7732D01*
X99602Y7739D01*
X99543Y7812D01*
X99492Y7885D01*
X99449Y7958D01*
X99405Y8031D01*
X99376Y8097D01*
X99354Y8148D01*
X99347Y8184D01*
X99339Y8199D01*
X99310Y8308D01*
X99288Y8439D01*
X99274Y8570D01*
X99266Y8694D01*
X99259Y8804D01*
X99252Y8855D01*
Y10050D01*
X103101D01*
Y8884D01*
D02*
G37*
G36*
X103699Y6551D02*
X101198D01*
X101446Y6558D01*
X101672Y6580D01*
X101876Y6617D01*
X101971Y6631D01*
X102051Y6653D01*
X102131Y6675D01*
X102197Y6690D01*
X102255Y6704D01*
X102306Y6726D01*
X102350Y6733D01*
X102379Y6748D01*
X102394Y6755D01*
X102401D01*
X102591Y6836D01*
X102758Y6930D01*
X102904Y7032D01*
X103028Y7127D01*
X103130Y7215D01*
X103203Y7287D01*
X103225Y7317D01*
X103247Y7339D01*
X103254Y7346D01*
X103261Y7353D01*
X103356Y7470D01*
X103429Y7594D01*
X103495Y7717D01*
X103546Y7834D01*
X103582Y7936D01*
X103604Y8016D01*
X103619Y8046D01*
Y8067D01*
X103626Y8082D01*
Y8089D01*
X103648Y8213D01*
X103670Y8359D01*
X103684Y8505D01*
X103691Y8651D01*
X103699Y8782D01*
Y6551D01*
D02*
G37*
G36*
X100608Y5305D02*
X100732Y5297D01*
X100841Y5283D01*
X100943Y5261D01*
X101038Y5239D01*
X101125Y5217D01*
X101198Y5188D01*
X101271Y5159D01*
X101329Y5130D01*
X101388Y5100D01*
X101432Y5079D01*
X101468Y5057D01*
X101497Y5035D01*
X101519Y5020D01*
X101526Y5006D01*
X101533D01*
X101592Y4947D01*
X101650Y4882D01*
X101738Y4758D01*
X101796Y4627D01*
X101840Y4503D01*
X101869Y4393D01*
X101876Y4313D01*
X101883Y4277D01*
Y4233D01*
X101876Y4146D01*
X101869Y4065D01*
X101832Y3920D01*
X101774Y3788D01*
X101708Y3679D01*
X101643Y3591D01*
X101592Y3526D01*
X101548Y3482D01*
X101541Y3467D01*
X101533D01*
X101468Y3409D01*
X101388Y3365D01*
X101227Y3285D01*
X101052Y3227D01*
X100892Y3190D01*
X100739Y3169D01*
X100673Y3161D01*
X100615D01*
X100571Y3154D01*
X100535D01*
X100513D01*
X100506D01*
X100374D01*
X100250Y3169D01*
X100141Y3183D01*
X100032Y3205D01*
X99937Y3227D01*
X99849Y3256D01*
X99769Y3278D01*
X99696Y3307D01*
X99638Y3336D01*
X99580Y3365D01*
X99536Y3395D01*
X99500Y3416D01*
X99471Y3438D01*
X99449Y3453D01*
X99441Y3460D01*
X99434Y3467D01*
X99376Y3526D01*
X99317Y3591D01*
X99230Y3715D01*
X99172Y3847D01*
X99128Y3963D01*
X99106Y4073D01*
X99091Y4153D01*
X99084Y4189D01*
Y4233D01*
X99091Y4320D01*
X99099Y4401D01*
X99135Y4554D01*
X99193Y4685D01*
X99259Y4794D01*
X99317Y4882D01*
X99376Y4947D01*
X99412Y4991D01*
X99427Y4998D01*
Y5006D01*
X99500Y5057D01*
X99572Y5108D01*
X99740Y5181D01*
X99915Y5239D01*
X100090Y5275D01*
X100243Y5297D01*
X100309Y5305D01*
X100367D01*
X100418Y5312D01*
X100455D01*
X100477D01*
X100484D01*
X100608Y5305D01*
D02*
G37*
G36*
X100739Y1324D02*
X100856Y1310D01*
X100958Y1295D01*
X101052Y1273D01*
X101140Y1244D01*
X101220Y1222D01*
X101293Y1193D01*
X101351Y1164D01*
X101402Y1142D01*
X101446Y1113D01*
X101482Y1091D01*
X101512Y1076D01*
X101533Y1062D01*
X101541Y1047D01*
X101548D01*
X101606Y989D01*
X101657Y931D01*
X101745Y807D01*
X101803Y675D01*
X101840Y559D01*
X101869Y449D01*
X101876Y369D01*
X101883Y333D01*
Y289D01*
X101876Y180D01*
X101854Y78D01*
X101825Y-10D01*
X101789Y-90D01*
X101752Y-148D01*
X101723Y-199D01*
X101701Y-228D01*
X101694Y-236D01*
X101621Y-309D01*
X101533Y-374D01*
X101439Y-433D01*
X101351Y-469D01*
X101271Y-506D01*
X101206Y-527D01*
X101162Y-535D01*
X101154Y-542D01*
X101147D01*
X101242Y-1147D01*
X101439Y-1096D01*
X101606Y-1023D01*
X101752Y-943D01*
X101869Y-863D01*
X101964Y-783D01*
X102029Y-717D01*
X102073Y-673D01*
X102088Y-666D01*
Y-659D01*
X102190Y-506D01*
X102262Y-345D01*
X102321Y-185D01*
X102357Y-32D01*
X102379Y107D01*
X102386Y165D01*
Y209D01*
X102394Y253D01*
Y-1205D01*
X99915D01*
X99995Y-593D01*
X99835Y-564D01*
X99689Y-520D01*
X99572Y-462D01*
X99478Y-411D01*
X99398Y-360D01*
X99347Y-316D01*
X99310Y-294D01*
X99303Y-280D01*
X99230Y-185D01*
X99179Y-83D01*
X99135Y19D01*
X99113Y114D01*
X99099Y194D01*
X99091Y267D01*
X99084Y311D01*
Y326D01*
X99091Y406D01*
X99099Y486D01*
X99135Y632D01*
X99186Y756D01*
X99252Y865D01*
X99310Y945D01*
X99361Y1011D01*
X99398Y1047D01*
X99412Y1062D01*
X99478Y1113D01*
X99558Y1157D01*
X99718Y1222D01*
X99901Y1273D01*
X100075Y1302D01*
X100236Y1324D01*
X100302Y1331D01*
X100367D01*
X100411Y1339D01*
X100455D01*
X100477D01*
X100484D01*
X100615D01*
X100739Y1324D01*
D02*
G37*
%LPC*%
G36*
X111320Y116142D02*
X110722D01*
Y114480D01*
X106275D01*
Y116142D01*
Y112147D01*
Y113809D01*
X110722D01*
Y112147D01*
X106275D01*
X111320D01*
Y116142D01*
D02*
G37*
G36*
X110015Y111768D02*
X106195D01*
X108105D01*
X107937Y111760D01*
X107777Y111746D01*
X107631Y111724D01*
X107492Y111695D01*
X107369Y111658D01*
X107252Y111622D01*
X107142Y111578D01*
X107048Y111534D01*
X106960Y111491D01*
X106887Y111447D01*
X106829Y111410D01*
X106778Y111374D01*
X106734Y111345D01*
X106705Y111323D01*
X106691Y111308D01*
X106683Y111301D01*
X106596Y111206D01*
X106523Y111112D01*
X106457Y111010D01*
X106399Y110907D01*
X106355Y110805D01*
X106311Y110696D01*
X106253Y110499D01*
X106238Y110412D01*
X106224Y110324D01*
X106209Y110251D01*
X106202Y110186D01*
X106195Y110127D01*
Y110135D01*
Y110127D01*
Y110055D01*
X106202Y109880D01*
X106231Y109719D01*
X106268Y109566D01*
X106304Y109442D01*
X106348Y109333D01*
X106362Y109289D01*
X106377Y109253D01*
X106392Y109216D01*
X106406Y109194D01*
X106413Y109187D01*
Y109180D01*
X106508Y109034D01*
X106610Y108910D01*
X106712Y108801D01*
X106814Y108713D01*
X106902Y108648D01*
X106975Y108597D01*
X107004Y108582D01*
X107026Y108567D01*
X107033Y108560D01*
X107040D01*
X107208Y108487D01*
X107390Y108436D01*
X107573Y108393D01*
X107755Y108371D01*
X107835Y108356D01*
X107908D01*
X107981Y108349D01*
X108039Y108341D01*
X108156D01*
X108316Y108349D01*
X108462Y108363D01*
X108600Y108385D01*
X108732Y108414D01*
X108856Y108451D01*
X108965Y108494D01*
X109074Y108538D01*
X109162Y108582D01*
X109242Y108626D01*
X109315Y108669D01*
X109380Y108713D01*
X109432Y108750D01*
X109468Y108779D01*
X109497Y108801D01*
X109512Y108815D01*
X109519Y108823D01*
X109607Y108917D01*
X109679Y109012D01*
X109752Y109114D01*
X109803Y109216D01*
X109854Y109318D01*
X109891Y109420D01*
X109956Y109617D01*
X109971Y109712D01*
X109986Y109792D01*
X110000Y109865D01*
X110007Y109931D01*
X110015Y109982D01*
Y110055D01*
X110007Y110178D01*
X110000Y110295D01*
X109949Y110521D01*
X109883Y110718D01*
X109847Y110805D01*
X109811Y110886D01*
X109774Y110959D01*
X109738Y111017D01*
X109701Y111075D01*
X109672Y111119D01*
X109643Y111155D01*
X109621Y111185D01*
X109614Y111199D01*
X109607Y111206D01*
X109512Y111308D01*
X109402Y111389D01*
X109286Y111469D01*
X109169Y111527D01*
X109045Y111585D01*
X108914Y111629D01*
X108790Y111666D01*
X108673Y111695D01*
X108557Y111724D01*
X108455Y111739D01*
X108353Y111753D01*
X108272Y111760D01*
X108200D01*
X108149Y111768D01*
X110015D01*
D02*
G37*
G36*
Y107612D02*
X104875D01*
Y106993D01*
X106654D01*
X106581Y106934D01*
X106516Y106869D01*
X106457Y106796D01*
X106413Y106738D01*
X106370Y106679D01*
X106341Y106636D01*
X106326Y106599D01*
X106319Y106592D01*
X106275Y106497D01*
X106246Y106402D01*
X106224Y106307D01*
X106209Y106220D01*
X106202Y106147D01*
X106195Y106089D01*
Y106038D01*
X106202Y105885D01*
X106231Y105732D01*
X106268Y105600D01*
X106311Y105476D01*
X106355Y105374D01*
X106392Y105301D01*
X106406Y105272D01*
X106421Y105251D01*
X106428Y105243D01*
Y105236D01*
X106530Y105097D01*
X106640Y104981D01*
X106749Y104879D01*
X106858Y104798D01*
X106960Y104733D01*
X107040Y104682D01*
X107070Y104667D01*
X107091Y104653D01*
X107106Y104645D01*
X107113D01*
X107288Y104580D01*
X107463Y104529D01*
X107631Y104492D01*
X107791Y104463D01*
X107922Y104449D01*
X107981D01*
X108032Y104441D01*
X104875D01*
X108127D01*
X108316Y104449D01*
X108498Y104470D01*
X108659Y104500D01*
X108805Y104536D01*
X108921Y104572D01*
X108972Y104587D01*
X109016Y104602D01*
X109045Y104616D01*
X109067Y104623D01*
X109082Y104631D01*
X109089D01*
X109242Y104704D01*
X109380Y104791D01*
X109497Y104879D01*
X109592Y104966D01*
X109665Y105046D01*
X109723Y105112D01*
X109752Y105156D01*
X109767Y105163D01*
Y105170D01*
X109847Y105309D01*
X109913Y105447D01*
X109956Y105586D01*
X109986Y105717D01*
X110000Y105826D01*
X110007Y105877D01*
X110015Y105914D01*
Y105994D01*
X110007Y106125D01*
X109993Y106242D01*
X109971Y106344D01*
X109942Y106431D01*
X109913Y106504D01*
X109891Y106563D01*
X109876Y106592D01*
X109869Y106606D01*
X109811Y106694D01*
X109745Y106781D01*
X109679Y106854D01*
X109607Y106920D01*
X109548Y106978D01*
X109497Y107015D01*
X109468Y107044D01*
X109453Y107051D01*
X109934D01*
Y107612D01*
X110015D01*
D02*
G37*
G36*
X111320Y101678D02*
X106275D01*
Y98522D01*
X111320D01*
Y101678D01*
D02*
G37*
G36*
X107281Y98019D02*
X107237D01*
X107150Y98011D01*
X107077Y98004D01*
X106924Y97968D01*
X106800Y97917D01*
X106691Y97858D01*
X106603Y97800D01*
X106537Y97749D01*
X106501Y97713D01*
X106486Y97698D01*
X106392Y97567D01*
X106319Y97421D01*
X106268Y97261D01*
X106231Y97115D01*
X106209Y96984D01*
X106202Y96925D01*
Y96874D01*
X106195Y96830D01*
Y96845D01*
Y96830D01*
Y96772D01*
X106202Y96641D01*
X106217Y96510D01*
X106231Y96393D01*
X106253Y96291D01*
X106275Y96211D01*
X106297Y96145D01*
X106304Y96101D01*
X106311Y96087D01*
X106362Y95963D01*
X106428Y95846D01*
X106501Y95737D01*
X106567Y95628D01*
X106632Y95540D01*
X106683Y95475D01*
X106720Y95431D01*
X106734Y95424D01*
Y95416D01*
X106640Y95402D01*
X106552Y95387D01*
X106472Y95372D01*
X106406Y95351D01*
X106348Y95329D01*
X106311Y95314D01*
X106282Y95307D01*
X106275Y95300D01*
Y94651D01*
X106355Y94687D01*
X106435Y94724D01*
X106508Y94753D01*
X106574Y94767D01*
X106632Y94789D01*
X106676Y94797D01*
X106705Y94804D01*
X106712D01*
X106763Y94811D01*
X106829Y94819D01*
X106902D01*
X106982Y94826D01*
X107164Y94833D01*
X107347D01*
X107521Y94840D01*
X107602D01*
X107667D01*
X107726D01*
X107769D01*
X107799D01*
X107806D01*
X108637D01*
X108775D01*
X108899Y94848D01*
X108994Y94855D01*
X109074D01*
X109133Y94862D01*
X109176Y94870D01*
X109198Y94877D01*
X109205D01*
X109300Y94899D01*
X109380Y94928D01*
X109446Y94957D01*
X109512Y94993D01*
X109555Y95023D01*
X109592Y95044D01*
X109614Y95059D01*
X109621Y95066D01*
X109679Y95125D01*
X109738Y95190D01*
X109781Y95263D01*
X109825Y95336D01*
X109854Y95402D01*
X109876Y95453D01*
X109891Y95489D01*
X109898Y95504D01*
X109934Y95620D01*
X109964Y95744D01*
X109986Y95868D01*
X110000Y95992D01*
X110007Y96101D01*
X110015Y96182D01*
Y96262D01*
X110007Y96437D01*
X109993Y96590D01*
X109971Y96736D01*
X109949Y96852D01*
X109927Y96954D01*
X109905Y97027D01*
X109898Y97057D01*
X109891Y97078D01*
X109883Y97086D01*
Y97093D01*
X109833Y97217D01*
X109767Y97326D01*
X109708Y97421D01*
X109650Y97501D01*
X109592Y97559D01*
X109548Y97603D01*
X109519Y97632D01*
X109512Y97640D01*
X109417Y97705D01*
X109315Y97764D01*
X109213Y97807D01*
X109118Y97844D01*
X109023Y97873D01*
X108958Y97895D01*
X108929Y97902D01*
X108907D01*
X108899Y97909D01*
X108892D01*
X108812Y97304D01*
X108943Y97261D01*
X109060Y97217D01*
X109154Y97166D01*
X109227Y97122D01*
X109286Y97078D01*
X109322Y97042D01*
X109344Y97013D01*
X109351Y97005D01*
X109402Y96918D01*
X109439Y96816D01*
X109468Y96707D01*
X109483Y96605D01*
X109497Y96503D01*
X109504Y96430D01*
Y96357D01*
X109497Y96189D01*
X109475Y96043D01*
X109439Y95926D01*
X109402Y95824D01*
X109359Y95752D01*
X109329Y95693D01*
X109300Y95657D01*
X109293Y95649D01*
X109227Y95591D01*
X109147Y95547D01*
X109060Y95511D01*
X108972Y95489D01*
X108892Y95475D01*
X108819Y95467D01*
X108775D01*
X108768D01*
X108761D01*
X108746D01*
X108717D01*
X108666D01*
X108622Y95475D01*
X108608D01*
X108600D01*
X108579Y95547D01*
X108557Y95628D01*
X108513Y95795D01*
X108476Y95985D01*
X108440Y96160D01*
X108425Y96247D01*
X108418Y96328D01*
X108404Y96400D01*
X108396Y96459D01*
X108389Y96510D01*
Y96546D01*
X108382Y96575D01*
Y96583D01*
X108367Y96714D01*
X108345Y96823D01*
X108331Y96918D01*
X108316Y96991D01*
X108309Y97049D01*
X108294Y97093D01*
X108287Y97122D01*
Y97129D01*
X108258Y97224D01*
X108229Y97304D01*
X108192Y97385D01*
X108163Y97450D01*
X108134Y97509D01*
X108105Y97545D01*
X108090Y97574D01*
X108083Y97581D01*
X108032Y97654D01*
X107974Y97713D01*
X107915Y97771D01*
X107857Y97815D01*
X107806Y97851D01*
X107762Y97880D01*
X107733Y97895D01*
X107726Y97902D01*
X107645Y97939D01*
X107558Y97968D01*
X107478Y97990D01*
X107398Y98004D01*
X107332Y98011D01*
X107281Y98019D01*
D02*
G37*
G36*
X110015Y90568D02*
X108068D01*
X107908Y90561D01*
X107755Y90547D01*
X107609Y90525D01*
X107478Y90496D01*
X107354Y90459D01*
X107237Y90423D01*
X107135Y90379D01*
X107040Y90335D01*
X106960Y90291D01*
X106887Y90248D01*
X106829Y90211D01*
X106778Y90175D01*
X106734Y90146D01*
X106705Y90124D01*
X106691Y90109D01*
X106683Y90102D01*
X106596Y90007D01*
X106523Y89912D01*
X106457Y89810D01*
X106399Y89701D01*
X106355Y89599D01*
X106311Y89490D01*
X106253Y89285D01*
X106238Y89191D01*
X106224Y89103D01*
X106209Y89023D01*
X106202Y88957D01*
X106195Y88906D01*
Y89008D01*
Y87193D01*
Y88826D01*
X106209Y88600D01*
X106246Y88396D01*
X106290Y88214D01*
X106319Y88141D01*
X106348Y88068D01*
X106377Y88002D01*
X106406Y87944D01*
X106428Y87900D01*
X106450Y87857D01*
X106472Y87827D01*
X106486Y87805D01*
X106501Y87791D01*
Y87784D01*
X106632Y87638D01*
X106771Y87521D01*
X106916Y87419D01*
X107055Y87346D01*
X107179Y87288D01*
X107237Y87266D01*
X107281Y87244D01*
X107325Y87230D01*
X107354Y87222D01*
X107369Y87215D01*
X107376D01*
X107456Y87857D01*
X107317Y87915D01*
X107201Y87980D01*
X107099Y88046D01*
X107018Y88104D01*
X106960Y88155D01*
X106916Y88199D01*
X106887Y88236D01*
X106880Y88243D01*
X106822Y88338D01*
X106778Y88432D01*
X106749Y88534D01*
X106727Y88622D01*
X106712Y88702D01*
X106705Y88768D01*
Y88826D01*
X106712Y88914D01*
X106720Y88994D01*
X106756Y89140D01*
X106807Y89271D01*
X106865Y89387D01*
X106916Y89475D01*
X106967Y89540D01*
X107004Y89584D01*
X107018Y89591D01*
Y89599D01*
X107150Y89701D01*
X107296Y89781D01*
X107456Y89839D01*
X107602Y89883D01*
X107733Y89905D01*
X107791Y89920D01*
X107842Y89927D01*
X107886D01*
X107915Y89934D01*
X107937D01*
X107944D01*
Y87200D01*
X108017Y87193D01*
X108105D01*
X108272Y87200D01*
X108425Y87215D01*
X108571Y87237D01*
X108710Y87266D01*
X108834Y87303D01*
X108950Y87339D01*
X109052Y87383D01*
X109147Y87426D01*
X109235Y87470D01*
X109308Y87514D01*
X109366Y87550D01*
X109417Y87587D01*
X109461Y87616D01*
X109490Y87638D01*
X109504Y87652D01*
X109512Y87660D01*
X109599Y87747D01*
X109679Y87842D01*
X109745Y87944D01*
X109803Y88046D01*
X109854Y88148D01*
X109891Y88243D01*
X109927Y88345D01*
X109949Y88432D01*
X109971Y88527D01*
X109986Y88607D01*
X110000Y88680D01*
X110007Y88739D01*
X110015Y88790D01*
Y87237D01*
Y88906D01*
Y88863D01*
X110007Y89001D01*
X109993Y89132D01*
X109971Y89256D01*
X109934Y89373D01*
X109898Y89482D01*
X109854Y89584D01*
X109811Y89679D01*
X109760Y89759D01*
X109716Y89839D01*
X109665Y89905D01*
X109621Y89963D01*
X109585Y90007D01*
X109548Y90043D01*
X109526Y90073D01*
X109512Y90087D01*
X109504Y90095D01*
X109402Y90175D01*
X109293Y90248D01*
X109184Y90313D01*
X109067Y90372D01*
X108943Y90415D01*
X108826Y90452D01*
X108593Y90510D01*
X108491Y90532D01*
X108389Y90547D01*
X108302Y90554D01*
X108221Y90561D01*
X108156Y90568D01*
X110015D01*
D02*
G37*
G36*
Y86442D02*
X106275D01*
Y84459D01*
D01*
Y85823D01*
X108185D01*
X108331Y85815D01*
X108462Y85808D01*
X108586Y85793D01*
X108695Y85772D01*
X108783Y85750D01*
X108848Y85735D01*
X108892Y85728D01*
X108907Y85721D01*
X108987Y85691D01*
X109052Y85655D01*
X109111Y85619D01*
X109162Y85582D01*
X109198Y85546D01*
X109227Y85524D01*
X109242Y85502D01*
X109249Y85495D01*
X109293Y85436D01*
X109322Y85371D01*
X109344Y85305D01*
X109359Y85254D01*
X109366Y85203D01*
X109373Y85167D01*
Y85130D01*
X109366Y85050D01*
X109351Y84970D01*
X109329Y84890D01*
X109308Y84824D01*
X109286Y84766D01*
X109264Y84722D01*
X109249Y84693D01*
X109242Y84685D01*
X109811Y84459D01*
X109876Y84583D01*
X109927Y84700D01*
X109964Y84802D01*
X109993Y84897D01*
X110007Y84977D01*
X110015Y85043D01*
Y85094D01*
X110007Y85174D01*
X109993Y85247D01*
X109971Y85320D01*
X109949Y85378D01*
X109927Y85422D01*
X109905Y85465D01*
X109891Y85487D01*
X109883Y85495D01*
X109825Y85560D01*
X109752Y85626D01*
X109665Y85691D01*
X109585Y85750D01*
X109504Y85808D01*
X109439Y85844D01*
X109388Y85874D01*
X109380Y85881D01*
X109934D01*
Y86442D01*
X110015D01*
D02*
G37*
G36*
X106187Y82593D02*
Y82097D01*
X111407Y80632D01*
Y81128D01*
X106187Y82593D01*
D02*
G37*
%LPD*%
G36*
X108229Y111126D02*
X108353Y111119D01*
X108462Y111104D01*
X108564Y111082D01*
X108659Y111061D01*
X108746Y111039D01*
X108819Y111010D01*
X108892Y110980D01*
X108950Y110951D01*
X109009Y110922D01*
X109052Y110900D01*
X109089Y110878D01*
X109118Y110856D01*
X109140Y110842D01*
X109147Y110827D01*
X109154D01*
X109213Y110769D01*
X109271Y110703D01*
X109359Y110579D01*
X109417Y110448D01*
X109461Y110324D01*
X109490Y110215D01*
X109497Y110135D01*
X109504Y110098D01*
Y110055D01*
X109497Y109967D01*
X109490Y109887D01*
X109453Y109741D01*
X109395Y109610D01*
X109329Y109501D01*
X109264Y109413D01*
X109213Y109347D01*
X109169Y109304D01*
X109162Y109289D01*
X109154D01*
X109089Y109231D01*
X109009Y109187D01*
X108848Y109107D01*
X108673Y109049D01*
X108513Y109012D01*
X108360Y108990D01*
X108294Y108983D01*
X108236D01*
X108192Y108976D01*
X108156D01*
X108134D01*
X108127D01*
X107995D01*
X107871Y108990D01*
X107762Y109005D01*
X107653Y109027D01*
X107558Y109049D01*
X107471Y109078D01*
X107390Y109100D01*
X107317Y109129D01*
X107259Y109158D01*
X107201Y109187D01*
X107157Y109216D01*
X107121Y109238D01*
X107091Y109260D01*
X107070Y109274D01*
X107062Y109282D01*
X107055Y109289D01*
X106997Y109347D01*
X106938Y109413D01*
X106851Y109537D01*
X106792Y109668D01*
X106749Y109785D01*
X106727Y109894D01*
X106712Y109974D01*
X106705Y110011D01*
Y110055D01*
X106712Y110142D01*
X106720Y110222D01*
X106756Y110375D01*
X106814Y110506D01*
X106880Y110616D01*
X106938Y110703D01*
X106997Y110769D01*
X107033Y110813D01*
X107048Y110820D01*
Y110827D01*
X107121Y110878D01*
X107194Y110929D01*
X107361Y111002D01*
X107536Y111061D01*
X107711Y111097D01*
X107864Y111119D01*
X107930Y111126D01*
X107988D01*
X108039Y111134D01*
X108076D01*
X108098D01*
X108105D01*
X108229Y111126D01*
D02*
G37*
G36*
X108331Y107036D02*
X108440Y107022D01*
X108549Y107007D01*
X108644Y106978D01*
X108732Y106956D01*
X108812Y106927D01*
X108885Y106898D01*
X108943Y106876D01*
X109001Y106847D01*
X109045Y106818D01*
X109089Y106796D01*
X109118Y106781D01*
X109140Y106767D01*
X109147Y106752D01*
X109154D01*
X109220Y106694D01*
X109278Y106636D01*
X109329Y106577D01*
X109373Y106512D01*
X109439Y106395D01*
X109483Y106286D01*
X109504Y106191D01*
X109519Y106118D01*
X109526Y106089D01*
Y106052D01*
X109519Y105980D01*
X109512Y105907D01*
X109475Y105775D01*
X109417Y105659D01*
X109351Y105557D01*
X109286Y105476D01*
X109235Y105418D01*
X109191Y105382D01*
X109184Y105367D01*
X109176D01*
X109111Y105316D01*
X109031Y105272D01*
X108863Y105199D01*
X108695Y105148D01*
X108528Y105112D01*
X108375Y105090D01*
X108309Y105083D01*
X108250D01*
X108200Y105076D01*
X108163D01*
X108141D01*
X108134D01*
X108003D01*
X107879Y105090D01*
X107762Y105105D01*
X107653Y105119D01*
X107558Y105141D01*
X107471Y105170D01*
X107383Y105199D01*
X107317Y105221D01*
X107252Y105251D01*
X107201Y105280D01*
X107150Y105301D01*
X107113Y105331D01*
X107084Y105345D01*
X107062Y105360D01*
X107055Y105374D01*
X107048D01*
X106989Y105433D01*
X106938Y105491D01*
X106851Y105608D01*
X106792Y105724D01*
X106749Y105834D01*
X106727Y105936D01*
X106712Y106009D01*
X106705Y106038D01*
Y106081D01*
X106712Y106154D01*
X106720Y106227D01*
X106756Y106359D01*
X106814Y106475D01*
X106873Y106577D01*
X106931Y106657D01*
X106989Y106716D01*
X107026Y106752D01*
X107040Y106767D01*
X107106Y106818D01*
X107179Y106862D01*
X107347Y106934D01*
X107514Y106978D01*
X107689Y107015D01*
X107842Y107036D01*
X107908Y107044D01*
X107966D01*
X108017Y107051D01*
X108054D01*
X108076D01*
X108083D01*
X108214D01*
X108331Y107036D01*
D02*
G37*
G36*
X111320Y98522D02*
X106873D01*
Y101008D01*
X111320D01*
Y98522D01*
D02*
G37*
G36*
X107317Y97348D02*
X107376Y97341D01*
X107420Y97326D01*
X107463Y97312D01*
X107500Y97297D01*
X107529Y97290D01*
X107543Y97275D01*
X107551D01*
X107638Y97202D01*
X107696Y97115D01*
X107718Y97086D01*
X107733Y97057D01*
X107747Y97035D01*
Y97027D01*
X107777Y96954D01*
X107799Y96874D01*
X107820Y96787D01*
X107835Y96699D01*
X107850Y96619D01*
X107864Y96546D01*
X107871Y96503D01*
Y96488D01*
X107893Y96364D01*
X107908Y96247D01*
X107930Y96145D01*
X107952Y96043D01*
X107974Y95948D01*
X107995Y95868D01*
X108010Y95788D01*
X108032Y95722D01*
X108046Y95664D01*
X108061Y95613D01*
X108076Y95569D01*
X108090Y95533D01*
X108098Y95504D01*
X108105Y95482D01*
X108112Y95475D01*
Y95467D01*
X107879Y95475D01*
X107733Y95482D01*
X107609Y95489D01*
X107507Y95504D01*
X107420Y95526D01*
X107354Y95547D01*
X107303Y95562D01*
X107274Y95569D01*
X107266Y95577D01*
X107172Y95635D01*
X107084Y95693D01*
X107011Y95766D01*
X106953Y95832D01*
X106902Y95890D01*
X106865Y95941D01*
X106844Y95970D01*
X106836Y95985D01*
X106785Y96094D01*
X106749Y96204D01*
X106720Y96306D01*
X106705Y96408D01*
X106691Y96488D01*
X106683Y96561D01*
Y96619D01*
X106691Y96750D01*
X106705Y96860D01*
X106734Y96954D01*
X106763Y97035D01*
X106792Y97093D01*
X106822Y97137D01*
X106836Y97166D01*
X106844Y97173D01*
X106909Y97232D01*
X106982Y97275D01*
X107048Y97312D01*
X107113Y97334D01*
X107172Y97348D01*
X107215Y97355D01*
X107252D01*
X107259D01*
X107317Y97348D01*
D02*
G37*
G36*
X108622Y89876D02*
X108775Y89832D01*
X108907Y89781D01*
X109009Y89723D01*
X109096Y89672D01*
X109162Y89621D01*
X109198Y89591D01*
X109213Y89577D01*
X109308Y89460D01*
X109380Y89344D01*
X109432Y89220D01*
X109468Y89103D01*
X109490Y89008D01*
X109497Y88928D01*
X109504Y88899D01*
Y88855D01*
X109497Y88768D01*
X109490Y88688D01*
X109446Y88534D01*
X109388Y88403D01*
X109322Y88294D01*
X109257Y88206D01*
X109198Y88141D01*
X109154Y88104D01*
X109147Y88090D01*
X109140D01*
X109045Y88024D01*
X108936Y87966D01*
X108826Y87929D01*
X108710Y87893D01*
X108615Y87871D01*
X108528Y87857D01*
X108498D01*
X108476Y87849D01*
X108462D01*
X108455D01*
Y89898D01*
X108622Y89876D01*
D02*
G37*
%LPC*%
G36*
X-13191Y55683D02*
X-13363D01*
X-13369D01*
X-13374D01*
X-13402D01*
X-13452D01*
X-13519Y55678D01*
X-13591D01*
X-13680Y55672D01*
X-13774Y55667D01*
X-13879Y55655D01*
X-14090Y55628D01*
X-14196Y55611D01*
X-14296Y55589D01*
X-14390Y55567D01*
X-14479Y55533D01*
X-14557Y55500D01*
X-14623Y55461D01*
X-14629D01*
X-14634Y55450D01*
X-14651Y55439D01*
X-14673Y55422D01*
X-14723Y55372D01*
X-14784Y55311D01*
X-14840Y55228D01*
X-14889Y55134D01*
X-14912Y55084D01*
X-14928Y55028D01*
X-14934Y54967D01*
X-14940Y54906D01*
Y54873D01*
X-14934Y54851D01*
X-14923Y54790D01*
X-14906Y54717D01*
X-14873Y54634D01*
X-14823Y54545D01*
X-14790Y54501D01*
X-14756Y54457D01*
X-14712Y54418D01*
X-14662Y54379D01*
X-14656D01*
X-14645Y54368D01*
X-14623Y54357D01*
X-14595Y54340D01*
X-14551Y54324D01*
X-14501Y54301D01*
X-14440Y54285D01*
X-14368Y54262D01*
X-14285Y54240D01*
X-14190Y54218D01*
X-14085Y54196D01*
X-13968Y54179D01*
X-13835Y54163D01*
X-13691Y54151D01*
X-13535Y54146D01*
X-13363Y54140D01*
X-13352D01*
X-13324D01*
X-13274D01*
X-13208Y54146D01*
X-13136D01*
X-13047Y54151D01*
X-12953Y54157D01*
X-12853Y54168D01*
X-12636Y54196D01*
X-12531Y54212D01*
X-12431Y54235D01*
X-12336Y54257D01*
X-12248Y54290D01*
X-12170Y54324D01*
X-12103Y54362D01*
X-12098D01*
X-12092Y54373D01*
X-12054Y54401D01*
X-12004Y54451D01*
X-11948Y54512D01*
X-11892Y54595D01*
X-11843Y54690D01*
X-11804Y54795D01*
X-11798Y54851D01*
X-11793Y54912D01*
Y54945D01*
X-11798Y54967D01*
X-11809Y55023D01*
X-11831Y55101D01*
X-11870Y55184D01*
X-11926Y55278D01*
X-11959Y55322D01*
X-12004Y55367D01*
X-12048Y55411D01*
X-12103Y55456D01*
X-12109D01*
X-12120Y55467D01*
X-12137Y55478D01*
X-12165Y55489D01*
X-12203Y55511D01*
X-12253Y55528D01*
X-12309Y55550D01*
X-12375Y55572D01*
X-12459Y55589D01*
X-12547Y55611D01*
X-12653Y55633D01*
X-12764Y55650D01*
X-12897Y55661D01*
X-13036Y55672D01*
X-13191Y55683D01*
D02*
G37*
G36*
Y52697D02*
X-13363D01*
X-13369D01*
X-13374D01*
X-13402D01*
X-13452D01*
X-13519Y52692D01*
X-13591D01*
X-13680Y52686D01*
X-13774Y52681D01*
X-13879Y52670D01*
X-14090Y52642D01*
X-14196Y52625D01*
X-14296Y52603D01*
X-14390Y52581D01*
X-14479Y52548D01*
X-14557Y52514D01*
X-14623Y52475D01*
X-14629D01*
X-14634Y52464D01*
X-14651Y52453D01*
X-14673Y52437D01*
X-14723Y52386D01*
X-14784Y52325D01*
X-14840Y52242D01*
X-14889Y52148D01*
X-14912Y52098D01*
X-14928Y52042D01*
X-14934Y51981D01*
X-14940Y51920D01*
Y51887D01*
X-14934Y51865D01*
X-14923Y51804D01*
X-14906Y51732D01*
X-14873Y51648D01*
X-14823Y51560D01*
X-14790Y51515D01*
X-14756Y51471D01*
X-14712Y51432D01*
X-14662Y51393D01*
X-14656D01*
X-14645Y51382D01*
X-14623Y51371D01*
X-14595Y51354D01*
X-14551Y51338D01*
X-14501Y51315D01*
X-14440Y51299D01*
X-14368Y51276D01*
X-14285Y51254D01*
X-14190Y51232D01*
X-14085Y51210D01*
X-13968Y51193D01*
X-13835Y51177D01*
X-13691Y51165D01*
X-13535Y51160D01*
X-13363Y51154D01*
X-13352D01*
X-13324D01*
X-13274D01*
X-13208Y51160D01*
X-13136D01*
X-13047Y51165D01*
X-12953Y51171D01*
X-12853Y51182D01*
X-12636Y51210D01*
X-12531Y51227D01*
X-12431Y51249D01*
X-12336Y51271D01*
X-12248Y51304D01*
X-12170Y51338D01*
X-12103Y51376D01*
X-12098D01*
X-12092Y51388D01*
X-12054Y51415D01*
X-12004Y51465D01*
X-11948Y51526D01*
X-11892Y51609D01*
X-11843Y51704D01*
X-11804Y51809D01*
X-11798Y51865D01*
X-11793Y51926D01*
Y51959D01*
X-11798Y51981D01*
X-11809Y52037D01*
X-11831Y52115D01*
X-11870Y52198D01*
X-11926Y52292D01*
X-11959Y52337D01*
X-12004Y52381D01*
X-12048Y52425D01*
X-12103Y52470D01*
X-12109D01*
X-12120Y52481D01*
X-12137Y52492D01*
X-12165Y52503D01*
X-12203Y52525D01*
X-12253Y52542D01*
X-12309Y52564D01*
X-12375Y52586D01*
X-12459Y52603D01*
X-12547Y52625D01*
X-12653Y52647D01*
X-12764Y52664D01*
X-12897Y52675D01*
X-13036Y52686D01*
X-13191Y52697D01*
D02*
G37*
G36*
X37679Y123783D02*
X37646D01*
X37624Y123777D01*
X37568Y123772D01*
X37491Y123755D01*
X37407Y123727D01*
X37313Y123683D01*
X37224Y123627D01*
X37135Y123549D01*
X37124Y123538D01*
X37102Y123511D01*
X37063Y123461D01*
X37025Y123389D01*
X36986Y123305D01*
X36947Y123200D01*
X36925Y123083D01*
X36913Y122950D01*
Y122939D01*
Y122911D01*
X36919Y122861D01*
X36925Y122800D01*
X36936Y122728D01*
X36958Y122651D01*
X36980Y122567D01*
X37013Y122484D01*
X37019Y122473D01*
X37036Y122445D01*
X37058Y122406D01*
X37091Y122356D01*
X37130Y122306D01*
X37180Y122245D01*
X37235Y122195D01*
X37302Y122145D01*
X37313Y122140D01*
X37335Y122129D01*
X37374Y122107D01*
X37424Y122090D01*
X37480Y122068D01*
X37546Y122046D01*
X37618Y122034D01*
X37696Y122029D01*
X37724D01*
X37746Y122034D01*
X37802Y122040D01*
X37874Y122057D01*
X37951Y122090D01*
X38040Y122129D01*
X38129Y122190D01*
X38173Y122223D01*
X38212Y122267D01*
Y122273D01*
X38223Y122279D01*
X38245Y122312D01*
X38279Y122367D01*
X38323Y122440D01*
X38362Y122534D01*
X38395Y122645D01*
X38418Y122773D01*
X38429Y122922D01*
Y122928D01*
Y122939D01*
Y122961D01*
X38423Y122989D01*
Y123022D01*
X38418Y123061D01*
X38401Y123150D01*
X38379Y123250D01*
X38340Y123355D01*
X38284Y123455D01*
X38212Y123549D01*
X38201Y123561D01*
X38173Y123588D01*
X38129Y123622D01*
X38068Y123666D01*
X37990Y123711D01*
X37901Y123744D01*
X37796Y123772D01*
X37679Y123783D01*
D02*
G37*
G36*
X45105Y125176D02*
X45072D01*
X45050Y125170D01*
X44989Y125159D01*
X44917Y125142D01*
X44833Y125109D01*
X44745Y125059D01*
X44700Y125026D01*
X44656Y124993D01*
X44617Y124948D01*
X44578Y124898D01*
Y124893D01*
X44567Y124881D01*
X44556Y124859D01*
X44539Y124832D01*
X44523Y124787D01*
X44500Y124737D01*
X44484Y124676D01*
X44462Y124604D01*
X44439Y124521D01*
X44417Y124426D01*
X44395Y124321D01*
X44378Y124204D01*
X44362Y124071D01*
X44350Y123927D01*
X44345Y123772D01*
X44339Y123600D01*
Y123588D01*
Y123561D01*
Y123511D01*
X44345Y123444D01*
Y123372D01*
X44350Y123283D01*
X44356Y123189D01*
X44367Y123089D01*
X44395Y122872D01*
X44412Y122767D01*
X44434Y122667D01*
X44456Y122573D01*
X44489Y122484D01*
X44523Y122406D01*
X44561Y122340D01*
Y122334D01*
X44572Y122328D01*
X44600Y122290D01*
X44650Y122240D01*
X44711Y122184D01*
X44794Y122129D01*
X44889Y122079D01*
X44994Y122040D01*
X45050Y122034D01*
X45111Y122029D01*
X45144D01*
X45166Y122034D01*
X45222Y122046D01*
X45300Y122068D01*
X45383Y122107D01*
X45477Y122162D01*
X45522Y122195D01*
X45566Y122240D01*
X45610Y122284D01*
X45655Y122340D01*
Y122345D01*
X45666Y122356D01*
X45677Y122373D01*
X45688Y122401D01*
X45710Y122440D01*
X45727Y122490D01*
X45749Y122545D01*
X45771Y122612D01*
X45788Y122695D01*
X45810Y122784D01*
X45832Y122889D01*
X45849Y123000D01*
X45860Y123133D01*
X45871Y123272D01*
X45882Y123427D01*
Y123600D01*
Y123605D01*
Y123611D01*
Y123638D01*
Y123688D01*
X45877Y123755D01*
Y123827D01*
X45871Y123916D01*
X45866Y124010D01*
X45855Y124116D01*
X45827Y124327D01*
X45810Y124432D01*
X45788Y124532D01*
X45766Y124626D01*
X45733Y124715D01*
X45699Y124793D01*
X45660Y124859D01*
Y124865D01*
X45649Y124871D01*
X45638Y124887D01*
X45621Y124909D01*
X45572Y124959D01*
X45510Y125020D01*
X45427Y125076D01*
X45333Y125126D01*
X45283Y125148D01*
X45227Y125165D01*
X45166Y125170D01*
X45105Y125176D01*
D02*
G37*
G36*
X42119D02*
X42086D01*
X42064Y125170D01*
X42003Y125159D01*
X41931Y125142D01*
X41847Y125109D01*
X41759Y125059D01*
X41714Y125026D01*
X41670Y124993D01*
X41631Y124948D01*
X41592Y124898D01*
Y124893D01*
X41581Y124881D01*
X41570Y124859D01*
X41553Y124832D01*
X41537Y124787D01*
X41514Y124737D01*
X41498Y124676D01*
X41476Y124604D01*
X41453Y124521D01*
X41431Y124426D01*
X41409Y124321D01*
X41392Y124204D01*
X41376Y124071D01*
X41365Y123927D01*
X41359Y123772D01*
X41353Y123600D01*
Y123588D01*
Y123561D01*
Y123511D01*
X41359Y123444D01*
Y123372D01*
X41365Y123283D01*
X41370Y123189D01*
X41381Y123089D01*
X41409Y122872D01*
X41426Y122767D01*
X41448Y122667D01*
X41470Y122573D01*
X41503Y122484D01*
X41537Y122406D01*
X41576Y122340D01*
Y122334D01*
X41587Y122328D01*
X41614Y122290D01*
X41664Y122240D01*
X41725Y122184D01*
X41809Y122129D01*
X41903Y122079D01*
X42008Y122040D01*
X42064Y122034D01*
X42125Y122029D01*
X42158D01*
X42180Y122034D01*
X42236Y122046D01*
X42314Y122068D01*
X42397Y122107D01*
X42491Y122162D01*
X42536Y122195D01*
X42580Y122240D01*
X42625Y122284D01*
X42669Y122340D01*
Y122345D01*
X42680Y122356D01*
X42691Y122373D01*
X42702Y122401D01*
X42724Y122440D01*
X42741Y122490D01*
X42763Y122545D01*
X42785Y122612D01*
X42802Y122695D01*
X42824Y122784D01*
X42846Y122889D01*
X42863Y123000D01*
X42874Y123133D01*
X42885Y123272D01*
X42896Y123427D01*
Y123600D01*
Y123605D01*
Y123611D01*
Y123638D01*
Y123688D01*
X42891Y123755D01*
Y123827D01*
X42885Y123916D01*
X42880Y124010D01*
X42869Y124116D01*
X42841Y124327D01*
X42824Y124432D01*
X42802Y124532D01*
X42780Y124626D01*
X42747Y124715D01*
X42713Y124793D01*
X42674Y124859D01*
Y124865D01*
X42663Y124871D01*
X42652Y124887D01*
X42636Y124909D01*
X42586Y124959D01*
X42524Y125020D01*
X42441Y125076D01*
X42347Y125126D01*
X42297Y125148D01*
X42241Y125165D01*
X42180Y125170D01*
X42119Y125176D01*
D02*
G37*
%LPD*%
D10*
X83469Y73469D02*
X87000Y77000D01*
X56264Y55575D02*
X64291D01*
X84500Y78000D02*
Y84500D01*
X81500Y72784D02*
Y75000D01*
X84500Y78000D01*
X64291Y55575D02*
X81500Y72784D01*
X84500Y84500D02*
X86000Y86000D01*
X83469Y71969D02*
Y73469D01*
X65106Y53606D02*
X83469Y71969D01*
X10500Y28622D02*
Y43500D01*
X7500Y25622D02*
X10500Y28622D01*
X8000Y16500D02*
X12500Y21000D01*
Y42500D01*
X45339Y92606D02*
X54732Y102000D01*
X57732D01*
X33528Y16027D02*
X34500Y15055D01*
X43500Y21000D02*
X44344D01*
X39433Y25067D02*
X43500Y21000D01*
X39433Y25067D02*
Y32839D01*
X37465Y23453D02*
Y32839D01*
Y23453D02*
X41417Y19500D01*
X40917Y17185D02*
Y19500D01*
X34500Y8500D02*
X40602D01*
X30449Y12551D02*
Y19665D01*
Y12551D02*
X34500Y8500D01*
X33000Y6000D02*
X38500D01*
X39500Y5000D01*
X28000Y11000D02*
X33000Y6000D01*
X28000Y11000D02*
Y20000D01*
X20021Y97500D02*
X29261Y88261D01*
X33528Y83993D01*
X29500Y79000D02*
Y82000D01*
Y79000D02*
X31559Y76941D01*
X33528Y64531D02*
Y83993D01*
X35496Y64531D02*
Y86720D01*
X37465Y64531D02*
Y88535D01*
X39433Y64531D02*
Y92169D01*
X41402Y64531D02*
Y98185D01*
X43370Y64531D02*
Y95638D01*
X45339Y64531D02*
Y92606D01*
X31559Y64531D02*
Y76941D01*
X84917Y14146D02*
X85532Y13532D01*
X84917Y14146D02*
Y17583D01*
X66917Y13185D02*
Y16583D01*
X53904Y20906D02*
X62594D01*
X66917Y16583D01*
X54719Y22874D02*
X64126D01*
X70500Y16500D01*
X85000Y60000D02*
X86000D01*
X83000Y55000D02*
Y58000D01*
X85000Y60000D01*
X79917Y22583D02*
Y31685D01*
Y22583D02*
X84917Y17583D01*
X76940Y21560D02*
Y29663D01*
X82500Y7602D02*
Y16000D01*
X76940Y21560D02*
X82500Y16000D01*
X11500Y97500D02*
X20021D01*
X20417Y105583D02*
X37465Y88535D01*
X34000Y15000D02*
X34445D01*
X34500Y15055D01*
X33528Y16027D02*
Y32839D01*
X43500Y26141D02*
Y26500D01*
X61000Y28500D02*
X63500D01*
X40000Y38602D02*
X41402Y37201D01*
X56264Y49669D02*
X77669D01*
X83000Y55000D01*
X56264Y53606D02*
X65106D01*
X79000Y101602D02*
X79500Y101102D01*
Y80000D02*
Y101102D01*
X72685Y69685D02*
X82000Y79000D01*
Y99768D02*
X82417Y100185D01*
X82000Y79000D02*
Y99768D01*
X71185Y71685D02*
X79500Y80000D01*
X56264Y51638D02*
X66138D01*
X83185Y68685D02*
X85417D01*
X66138Y51638D02*
X83185Y68685D01*
X30449Y19665D02*
X31559Y20775D01*
Y32839D01*
X78370Y45732D02*
X80917Y43185D01*
X56264Y45732D02*
X78370D01*
X75339Y43764D02*
X75535Y43567D01*
X56264Y43764D02*
X75339D01*
X72591Y41795D02*
X80877Y33510D01*
X56264Y41795D02*
X72591D01*
X71776Y39827D02*
X79917Y31685D01*
X56264Y39827D02*
X71776D01*
X68744Y37858D02*
X76940Y29663D01*
X56264Y37858D02*
X68744D01*
X75546Y43567D02*
X83923Y35190D01*
X75535Y43567D02*
X75546D01*
X35496Y21377D02*
X37436Y19436D01*
X25945Y15945D02*
Y25205D01*
X22500Y28650D02*
X25945Y25205D01*
X25000Y15000D02*
X25945Y15945D01*
X11000Y61000D02*
X12602D01*
X16059Y57543D01*
X33866Y50134D02*
X38866Y55134D01*
X24571Y39827D02*
X28827D01*
X20327D02*
X24571D01*
Y45732D02*
X29732D01*
X32000Y48000D01*
X43500Y26141D02*
X45339Y27979D01*
X56681Y24843D02*
X67658D01*
X51244Y30279D02*
X56681Y24843D01*
X49276Y28318D02*
X54719Y22874D01*
X47307Y27502D02*
X53904Y20906D01*
X56264Y59512D02*
X59012D01*
X59768Y60268D01*
Y65592D01*
Y65685D01*
X60417Y96185D02*
X62917D01*
X55417Y91185D02*
X60417Y96185D01*
X55417Y75685D02*
Y91185D01*
X37417Y94185D02*
X39433Y92169D01*
X22216Y100000D02*
X35496Y86720D01*
X64732Y83500D02*
X76000D01*
X61043Y57543D02*
X64236Y60736D01*
Y60976D02*
X64760Y61500D01*
X64236Y60736D02*
Y60976D01*
X50417Y57543D02*
X61043D01*
X51917Y71685D02*
X71185D01*
X53417Y69685D02*
X72685D01*
X64167Y82935D02*
X64732Y83500D01*
X67469Y28500D02*
X67469Y28500D01*
X67469Y25122D02*
Y28500D01*
X67658Y24843D02*
X72500Y20000D01*
X56264Y47701D02*
X81433D01*
X51244Y30279D02*
Y32839D01*
X11500Y65602D02*
Y75102D01*
Y65602D02*
X17591Y59512D01*
X15000Y100000D02*
X22216D01*
X12500Y102500D02*
X15000Y100000D01*
X13606Y53606D02*
X22012D01*
X5417Y45417D02*
X13606Y53606D01*
X15138Y51638D02*
X24571D01*
X8500Y36000D02*
Y45000D01*
X15138Y51638D01*
X6000Y33500D02*
X8500Y36000D01*
X10500Y43500D02*
X16669Y49669D01*
X24571D01*
X12500Y42500D02*
X17701Y47701D01*
X24571D01*
X14500Y14500D02*
Y40500D01*
X8500Y8500D02*
X14500Y14500D01*
Y40500D02*
X17764Y43764D01*
X24571D01*
X14000Y7500D02*
X16500Y10000D01*
Y39500D01*
X18795Y41795D01*
X24571D01*
X21000Y36000D02*
X21500Y35500D01*
X21577Y37858D02*
X24571D01*
X21000Y37282D02*
X21577Y37858D01*
X21000Y36000D02*
Y37282D01*
X18802Y38302D02*
X20327Y39827D01*
X8210Y55575D02*
X24571D01*
X42000Y15500D02*
Y16102D01*
X41417Y16685D02*
X42000Y16102D01*
X28000Y20000D02*
X29591Y21590D01*
Y32839D01*
X35496Y21377D02*
Y32839D01*
X40917Y17185D02*
X41417Y16685D01*
X47307Y27502D02*
Y32839D01*
X49276Y28318D02*
Y32839D01*
X41402D02*
Y37201D01*
X31559Y58441D02*
Y64531D01*
X45339Y27979D02*
Y32839D01*
X22012Y53606D02*
X24571D01*
X49276Y64531D02*
Y69043D01*
X22012Y53606D02*
X22012Y53606D01*
X47307Y64531D02*
Y70575D01*
X50417Y73685D01*
X80877Y33510D02*
X82917Y31469D01*
X80877Y33510D02*
Y33510D01*
X17591Y59512D02*
X24571D01*
X16059Y57543D02*
X24571D01*
X53417Y73685D02*
X55417Y75685D01*
X50417Y73685D02*
X53417D01*
X51244Y67512D02*
X53417Y69685D01*
X51244Y64531D02*
Y67512D01*
X29591Y64531D02*
Y68095D01*
X43370Y95638D02*
X44917Y97185D01*
X82917Y27185D02*
Y31469D01*
X43370Y32839D02*
Y38685D01*
X27459Y70227D02*
X29591Y68095D01*
X49276Y69043D02*
X51917Y71685D01*
D13*
X-14780Y-5906D02*
X-6905D01*
X-14780Y116142D02*
X-6905D01*
X-13780Y-5906D02*
Y42212D01*
Y66024D02*
Y116142D01*
Y-5906D02*
X-11779Y94D01*
X-15779D02*
X-13780Y-5906D01*
X-15779Y110142D02*
X-13780Y116142D01*
X-11779Y110142D01*
X96457Y117142D02*
Y125016D01*
X-5906Y117142D02*
Y125016D01*
X56223Y124016D02*
X96457D01*
X-5906D02*
X32339D01*
X90457Y126016D02*
X96457Y124016D01*
X90457Y122016D02*
X96457Y124016D01*
X-5906D02*
X94Y122016D01*
X-5906Y124016D02*
X94Y126016D01*
D16*
X63532Y28500D02*
D03*
X67469D02*
D03*
D17*
X24847Y84000D02*
D03*
X18154D02*
D03*
D18*
X7500Y75650D02*
D03*
Y69350D02*
D03*
X22500Y28650D02*
D03*
Y22350D02*
D03*
D19*
X24567Y72185D02*
D03*
X18268D02*
D03*
X66067Y65685D02*
D03*
X59768D02*
D03*
D20*
X29591Y32839D02*
D03*
X31559D02*
D03*
X33528D02*
D03*
X35496D02*
D03*
X37465D02*
D03*
X39433D02*
D03*
X41402D02*
D03*
X43370D02*
D03*
X45339D02*
D03*
X47307D02*
D03*
X49276D02*
D03*
X51244D02*
D03*
Y64531D02*
D03*
X49276D02*
D03*
X47307D02*
D03*
X45339D02*
D03*
X43370D02*
D03*
X41402D02*
D03*
X39433D02*
D03*
X37465D02*
D03*
X35496D02*
D03*
X33528D02*
D03*
X31559D02*
D03*
X29591D02*
D03*
D21*
X56264Y37858D02*
D03*
Y39827D02*
D03*
Y41795D02*
D03*
Y43764D02*
D03*
Y45732D02*
D03*
Y47701D02*
D03*
Y49669D02*
D03*
Y51638D02*
D03*
Y53606D02*
D03*
Y55575D02*
D03*
Y57543D02*
D03*
Y59512D02*
D03*
X24571D02*
D03*
Y57543D02*
D03*
Y55575D02*
D03*
Y53606D02*
D03*
Y51638D02*
D03*
Y49669D02*
D03*
Y47701D02*
D03*
Y45732D02*
D03*
Y43764D02*
D03*
Y41795D02*
D03*
Y39827D02*
D03*
Y37858D02*
D03*
D22*
X18154Y77500D02*
D03*
X24847D02*
D03*
D35*
X87000Y77000D02*
X90000Y80000D01*
X86000Y86000D02*
X90000Y90000D01*
X3847Y21969D02*
X7500Y25622D01*
X0Y20000D02*
X1969Y21969D01*
X3847D01*
X0Y10000D02*
X1969Y11969D01*
X3469D02*
X8000Y16500D01*
X1969Y11969D02*
X3469D01*
X57732Y102000D02*
X59665Y103933D01*
X40090Y55909D02*
X40500Y56320D01*
Y56000D02*
Y56320D01*
X41417Y16685D02*
Y19500D01*
X39632Y5132D02*
X39917Y4847D01*
X25634Y84984D02*
X25634D01*
X29085Y88436D01*
X24847Y84197D02*
X25634Y84984D01*
X24847Y84000D02*
Y84197D01*
X88640Y10360D02*
X89640D01*
X85500Y13500D02*
X88640Y10360D01*
X86949Y12051D02*
Y12154D01*
X89640Y10360D02*
X90000Y10000D01*
X88032Y11969D02*
X89640Y10360D01*
X86878Y12185D02*
X86917D01*
X87032Y11969D02*
X88032D01*
X70500Y500D02*
Y16500D01*
X24000Y63000D02*
X24707Y63707D01*
X185Y100185D02*
X8815D01*
X11500Y97500D01*
X20417Y105583D02*
Y109583D01*
X70000Y0D02*
X70500Y500D01*
X58500Y29000D02*
X58726Y28774D01*
X60726D01*
X40000Y38602D02*
Y42500D01*
X79000Y109000D02*
X80000Y110000D01*
X79000Y101602D02*
Y109000D01*
X81433Y47701D02*
X83732Y50000D01*
X86000Y60000D02*
X90000D01*
X55593Y65592D02*
X59768D01*
X22541Y33774D02*
X22583Y33815D01*
X22541Y28691D02*
Y33774D01*
X22500Y28650D02*
X22541Y28691D01*
X1000Y61000D02*
X11000D01*
X24707Y63707D02*
Y77360D01*
X24847Y77500D01*
X18154Y77346D02*
Y84000D01*
Y77346D02*
X18500Y77000D01*
X39909Y55909D02*
X40090D01*
X39000Y55000D02*
X39909Y55909D01*
X32000Y48000D02*
X34000Y50000D01*
X55500Y65500D02*
X55593Y65592D01*
X59665Y103933D02*
Y109114D01*
X60000Y109449D02*
Y110000D01*
X59665Y109114D02*
X60000Y109449D01*
X63685Y96185D02*
X70417Y102917D01*
X62917Y96185D02*
X63685D01*
X65149Y64767D02*
X66067Y65685D01*
X65149Y62255D02*
Y64767D01*
X64500Y61607D02*
X65149Y62255D01*
X64500Y61500D02*
Y61607D01*
X72500Y20000D02*
X78850Y13650D01*
X0Y100000D02*
X185Y100185D01*
X82917Y24185D02*
X85479Y21623D01*
X88377D02*
X90000Y20000D01*
X82917Y24185D02*
Y27185D01*
X85479Y21623D02*
X88377D01*
X70417Y102917D02*
Y109583D01*
X6248Y88217D02*
X11500Y82965D01*
Y75102D02*
Y82965D01*
X9752Y105248D02*
X12500Y102500D01*
X9752Y109752D02*
X10000Y110000D01*
X9752Y105248D02*
Y109752D01*
X66917Y9417D02*
Y13185D01*
X60000Y0D02*
X61822Y1822D01*
Y4322D01*
X66917Y9417D01*
X82500Y7602D02*
X89637Y466D01*
X78850Y1150D02*
Y13650D01*
Y1150D02*
X80000Y0D01*
X25000Y7500D02*
Y15000D01*
Y7500D02*
X28178Y4322D01*
Y1822D02*
Y4322D01*
Y1822D02*
X30000Y0D01*
X39917Y83D02*
Y4847D01*
Y83D02*
X40000Y0D01*
X84102Y40000D02*
X90000D01*
X80917Y43185D02*
X84102Y40000D01*
X0Y50000D02*
X1755Y51755D01*
X4390D01*
X7883Y55248D01*
X5417Y44417D02*
Y45417D01*
X0Y40000D02*
X1969Y41969D01*
X2968D01*
X5417Y44417D01*
X21500Y35500D02*
X22507Y34493D01*
Y33890D02*
X22583Y33815D01*
X22507Y33890D02*
Y34493D01*
X0Y30000D02*
X1822Y31822D01*
X4322D01*
X6000Y33500D01*
X0Y60000D02*
X1000Y61000D01*
X11252Y4752D02*
X14000Y7500D01*
X10000Y0D02*
X11252Y1252D01*
Y4752D01*
X0Y0D02*
X8500Y8500D01*
X0Y70000D02*
X7500D01*
X48602Y21000D02*
X54102Y15500D01*
X61000D01*
X44344Y21000D02*
X48602D01*
X40602Y8500D02*
X43602D01*
X48031Y1969D02*
X50000Y0D01*
X48031Y1969D02*
Y4071D01*
X43602Y8500D02*
X48031Y4071D01*
X30417Y101185D02*
X37417Y94185D01*
X83732Y50000D02*
X90000D01*
X41417Y98185D02*
Y108583D01*
X40000Y110000D02*
X41417Y108583D01*
X50417Y102685D02*
Y109583D01*
X50000Y110000D02*
X50417Y109583D01*
X44917Y97185D02*
X50417Y102685D01*
X20000Y110000D02*
X20417Y109583D01*
X89636Y30364D02*
Y30466D01*
Y30364D02*
X90000Y30000D01*
X86917Y33185D02*
X89636Y30466D01*
X85917Y33185D02*
X86917D01*
X83917Y35185D02*
X85917Y33185D01*
X70000Y110000D02*
X70417Y109583D01*
X1784Y88217D02*
X6248D01*
X0Y90000D02*
X1784Y88217D01*
X89637Y363D02*
Y466D01*
Y363D02*
X90000Y0D01*
X82417Y100185D02*
Y102417D01*
X90000Y110000D01*
X30417Y101185D02*
Y109583D01*
X30000Y110000D02*
X30417Y109583D01*
X86917Y12185D02*
X86949Y12154D01*
X85417Y68685D02*
X88685D01*
X90000Y70000D01*
X50308Y57575D02*
X50417Y57685D01*
X47575Y57575D02*
X50308D01*
X47500Y57500D02*
X47575Y57575D01*
X50417Y78685D02*
X50917Y78185D01*
X50417Y78685D02*
Y88685D01*
X60417Y78685D02*
X64417Y82685D01*
X81417Y47685D02*
X81433Y47701D01*
X25551Y71201D02*
X26402D01*
X27417Y70185D01*
D36*
X78500Y58500D02*
D03*
X73000Y26000D02*
D03*
D37*
X0Y110000D02*
D03*
X20000Y0D02*
D03*
X0Y70000D02*
D03*
X30000Y0D02*
D03*
X50000D02*
D03*
X70000Y110000D02*
D03*
X80000D02*
D03*
X90000D02*
D03*
Y90000D02*
D03*
Y80000D02*
D03*
X10000Y0D02*
D03*
X0D02*
D03*
Y10000D02*
D03*
Y20000D02*
D03*
Y40000D02*
D03*
Y50000D02*
D03*
X90000Y70000D02*
D03*
Y60000D02*
D03*
Y50000D02*
D03*
X70417Y88685D02*
D03*
D38*
X60000Y110000D02*
D03*
X0Y30000D02*
D03*
X40000Y0D02*
D03*
X0Y60000D02*
D03*
X10000Y110000D02*
D03*
X20000D02*
D03*
X30000D02*
D03*
X40000D02*
D03*
X50000D02*
D03*
X90000Y40000D02*
D03*
Y30000D02*
D03*
Y20000D02*
D03*
Y10000D02*
D03*
Y0D02*
D03*
X80000D02*
D03*
X70000D02*
D03*
X60000D02*
D03*
X0Y80000D02*
D03*
Y90000D02*
D03*
Y100000D02*
D03*
X90000D02*
D03*
D39*
X61000Y15500D02*
D03*
X42000D02*
D03*
D40*
X70417Y78685D02*
D03*
X60417Y88685D02*
D03*
Y78685D02*
D03*
X50417Y88685D02*
D03*
Y78685D02*
D03*
D41*
X40500Y56000D02*
D03*
X29500Y82000D02*
D03*
X24000Y63000D02*
D03*
X34000Y15000D02*
D03*
X43500Y26500D02*
D03*
X58500Y29000D02*
D03*
X32500Y42500D02*
D03*
X40000D02*
D03*
X47500D02*
D03*
X82500Y49000D02*
D03*
X7500Y80000D02*
D03*
X31500Y54000D02*
D03*
X32000Y48000D02*
D03*
X37000Y19000D02*
D03*
X55500Y65500D02*
D03*
X35000Y58000D02*
D03*
X76000Y83500D02*
D03*
X64500Y61500D02*
D03*
X56000Y33500D02*
D03*
X47500Y47500D02*
D03*
X18500Y89500D02*
D03*
Y63500D02*
D03*
X22583Y33815D02*
D03*
X18500Y94000D02*
D03*
X20000Y18500D02*
D03*
X48500Y14000D02*
D03*
X58500Y8500D02*
D03*
X52500Y10000D02*
D03*
X12500Y90000D02*
D03*
X53000Y94000D02*
D03*
X47500Y52500D02*
D03*
X7000Y94000D02*
D03*
X40000Y50000D02*
D03*
X47500Y57500D02*
D03*
M02*
