G04*
G04 #@! TF.GenerationSoftware,Altium Limited,Altium Designer,20.0.11 (256)*
G04*
G04 Layer_Color=8421504*
%FSLAX25Y25*%
%MOIN*%
G70*
G01*
G75*
%ADD16R,0.02362X0.01968*%
%ADD17R,0.03543X0.03937*%
%ADD18R,0.03937X0.03937*%
%ADD19R,0.03937X0.03937*%
%ADD20O,0.00984X0.06102*%
%ADD21O,0.06102X0.00984*%
G04:AMPARAMS|DCode=22|XSize=31.5mil|YSize=31.5mil|CornerRadius=3.94mil|HoleSize=0mil|Usage=FLASHONLY|Rotation=180.000|XOffset=0mil|YOffset=0mil|HoleType=Round|Shape=RoundedRectangle|*
%AMROUNDEDRECTD22*
21,1,0.03150,0.02362,0,0,180.0*
21,1,0.02362,0.03150,0,0,180.0*
1,1,0.00787,-0.01181,0.01181*
1,1,0.00787,0.01181,0.01181*
1,1,0.00787,0.01181,-0.01181*
1,1,0.00787,-0.01181,-0.01181*
%
%ADD22ROUNDEDRECTD22*%
D16*
X63532Y28500D02*
D03*
X67469D02*
D03*
D17*
X24847Y84000D02*
D03*
X18154D02*
D03*
D18*
X7500Y75650D02*
D03*
Y69350D02*
D03*
X22500Y28650D02*
D03*
Y22350D02*
D03*
D19*
X24567Y72185D02*
D03*
X18268D02*
D03*
X66067Y65685D02*
D03*
X59768D02*
D03*
D20*
X29591Y32839D02*
D03*
X31559D02*
D03*
X33528D02*
D03*
X35496D02*
D03*
X37465D02*
D03*
X39433D02*
D03*
X41402D02*
D03*
X43370D02*
D03*
X45339D02*
D03*
X47307D02*
D03*
X49276D02*
D03*
X51244D02*
D03*
Y64531D02*
D03*
X49276D02*
D03*
X47307D02*
D03*
X45339D02*
D03*
X43370D02*
D03*
X41402D02*
D03*
X39433D02*
D03*
X37465D02*
D03*
X35496D02*
D03*
X33528D02*
D03*
X31559D02*
D03*
X29591D02*
D03*
D21*
X56264Y37858D02*
D03*
Y39827D02*
D03*
Y41795D02*
D03*
Y43764D02*
D03*
Y45732D02*
D03*
Y47701D02*
D03*
Y49669D02*
D03*
Y51638D02*
D03*
Y53606D02*
D03*
Y55575D02*
D03*
Y57543D02*
D03*
Y59512D02*
D03*
X24571D02*
D03*
Y57543D02*
D03*
Y55575D02*
D03*
Y53606D02*
D03*
Y51638D02*
D03*
Y49669D02*
D03*
Y47701D02*
D03*
Y45732D02*
D03*
Y43764D02*
D03*
Y41795D02*
D03*
Y39827D02*
D03*
Y37858D02*
D03*
D22*
X18154Y77500D02*
D03*
X24847D02*
D03*
M02*
